<?xml version="1.0" encoding="utf-8" standalone="no"?>
<!DOCTYPE svg PUBLIC "-//W3C//DTD SVG 1.1//EN"
  "http://www.w3.org/Graphics/SVG/1.1/DTD/svg11.dtd">
<svg xmlns:xlink="http://www.w3.org/1999/xlink" width="856.8pt" height="320.31625pt" viewBox="0 0 856.8 320.31625" xmlns="http://www.w3.org/2000/svg" version="1.1">
 <metadata>
  <rdf:RDF xmlns:dc="http://purl.org/dc/elements/1.1/" xmlns:cc="http://creativecommons.org/ns#" xmlns:rdf="http://www.w3.org/1999/02/22-rdf-syntax-ns#">
   <cc:Work>
    <dc:type rdf:resource="http://purl.org/dc/dcmitype/StillImage"/>
    <dc:date>2026-04-24T07:26:55.010992</dc:date>
    <dc:format>image/svg+xml</dc:format>
    <dc:creator>
     <cc:Agent>
      <dc:title>Matplotlib v3.8.0, https://matplotlib.org/</dc:title>
     </cc:Agent>
    </dc:creator>
   </cc:Work>
  </rdf:RDF>
 </metadata>
 <defs>
  <style type="text/css">*{stroke-linejoin: round; stroke-linecap: butt}</style>
 </defs>
 <g id="figure_1">
  <g id="patch_1">
   <path d="M 0 320.31625 
L 856.8 320.31625 
L 856.8 0 
L 0 0 
z
" style="fill: #ffffff"/>
  </g>
  <g id="axes_1">
   <g id="patch_2">
    <path d="M 100.658 101.61048 
L 307.842 101.61048 
Q 314.598 101.61048 314.598 96.02232 
L 314.598 69.01288 
Q 314.598 63.42472 307.842 63.42472 
L 100.658 63.42472 
Q 93.902 63.42472 93.902 69.01288 
L 93.902 96.02232 
Q 93.902 101.61048 100.658 101.61048 
z
" clip-path="url(#pe5bec971eb)" style="fill: #dbeafe; stroke: #2563eb; stroke-width: 1.5; stroke-linejoin: miter"/>
   </g>
   <g id="patch_3">
    <path d="M 204.25 101.748956 
Q 204.25 105.8029 204.25 108.179792 
" style="fill: none; stroke: #374151; stroke-width: 1.5; stroke-linecap: round"/>
    <path d="M 206.05 104.579792 
L 204.25 108.179792 
L 202.45 104.579792 
z
" style="fill: #374151; stroke: #374151; stroke-width: 1.5; stroke-linecap: round"/>
   </g>
   <g id="patch_4">
    <path d="M 100.658 148.17848 
L 307.842 148.17848 
Q 314.598 148.17848 314.598 142.59032 
L 314.598 115.58088 
Q 314.598 109.99272 307.842 109.99272 
L 100.658 109.99272 
Q 93.902 109.99272 93.902 115.58088 
L 93.902 142.59032 
Q 93.902 148.17848 100.658 148.17848 
z
" clip-path="url(#pe5bec971eb)" style="fill: #dcfce7; stroke: #16a34a; stroke-width: 1.5; stroke-linejoin: miter"/>
   </g>
   <g id="patch_5">
    <path d="M 204.25 148.316956 
Q 204.25 152.3709 204.25 154.747792 
" style="fill: none; stroke: #374151; stroke-width: 1.5; stroke-linecap: round"/>
    <path d="M 206.05 151.147792 
L 204.25 154.747792 
L 202.45 151.147792 
z
" style="fill: #374151; stroke: #374151; stroke-width: 1.5; stroke-linecap: round"/>
   </g>
   <g id="patch_6">
    <path d="M 100.658 194.74648 
L 307.842 194.74648 
Q 314.598 194.74648 314.598 189.15832 
L 314.598 162.14888 
Q 314.598 156.56072 307.842 156.56072 
L 100.658 156.56072 
Q 93.902 156.56072 93.902 162.14888 
L 93.902 189.15832 
Q 93.902 194.74648 100.658 194.74648 
z
" clip-path="url(#pe5bec971eb)" style="fill: #ffedd5; stroke: #ea580c; stroke-width: 1.5; stroke-linejoin: miter"/>
   </g>
   <g id="patch_7">
    <path d="M 204.25 194.884956 
Q 204.25 198.9389 204.25 201.315792 
" style="fill: none; stroke: #374151; stroke-width: 1.5; stroke-linecap: round"/>
    <path d="M 206.05 197.715792 
L 204.25 201.315792 
L 202.45 197.715792 
z
" style="fill: #374151; stroke: #374151; stroke-width: 1.5; stroke-linecap: round"/>
   </g>
   <g id="patch_8">
    <path d="M 100.658 241.31448 
L 307.842 241.31448 
Q 314.598 241.31448 314.598 235.72632 
L 314.598 208.71688 
Q 314.598 203.12872 307.842 203.12872 
L 100.658 203.12872 
Q 93.902 203.12872 93.902 208.71688 
L 93.902 235.72632 
Q 93.902 241.31448 100.658 241.31448 
z
" clip-path="url(#pe5bec971eb)" style="fill: #f3f4f6; stroke: #6b7280; stroke-width: 1.5; stroke-linejoin: miter"/>
   </g>
   <g id="text_1">
    <!-- BatchNorm makes training faster and more stable -->
    <g style="fill: #475569" transform="translate(97.343906 261.8044) scale(0.085 -0.085)">
     <defs>
      <path id="DejaVuSans-Oblique-42" d="M 1081 4666 
L 2694 4666 
Q 3350 4666 3675 4422 
Q 4000 4178 4000 3688 
Q 4000 3238 3720 2911 
Q 3441 2584 2988 2516 
Q 3375 2428 3569 2181 
Q 3763 1934 3763 1522 
Q 3763 819 3242 409 
Q 2722 0 1819 0 
L 172 0 
L 1081 4666 
z
M 1234 2228 
L 903 519 
L 1919 519 
Q 2491 519 2800 781 
Q 3109 1044 3109 1522 
Q 3109 1891 2904 2059 
Q 2700 2228 2247 2228 
L 1234 2228 
z
M 1606 4147 
L 1331 2741 
L 2272 2741 
Q 2775 2741 3058 2959 
Q 3341 3178 3341 3566 
Q 3341 3869 3150 4008 
Q 2959 4147 2541 4147 
L 1606 4147 
z
" transform="scale(0.015625)"/>
      <path id="DejaVuSans-Oblique-61" d="M 3438 1997 
L 3047 0 
L 2472 0 
L 2578 531 
Q 2325 219 2001 64 
Q 1678 -91 1281 -91 
Q 834 -91 548 182 
Q 263 456 263 884 
Q 263 1497 752 1853 
Q 1241 2209 2100 2209 
L 2900 2209 
L 2931 2363 
Q 2938 2388 2941 2417 
Q 2944 2447 2944 2509 
Q 2944 2788 2717 2942 
Q 2491 3097 2081 3097 
Q 1800 3097 1504 3025 
Q 1209 2953 897 2809 
L 997 3341 
Q 1322 3463 1633 3523 
Q 1944 3584 2234 3584 
Q 2853 3584 3176 3315 
Q 3500 3047 3500 2534 
Q 3500 2431 3484 2292 
Q 3469 2153 3438 1997 
z
M 2816 1759 
L 2241 1759 
Q 1534 1759 1195 1570 
Q 856 1381 856 984 
Q 856 709 1029 553 
Q 1203 397 1509 397 
Q 1978 397 2328 733 
Q 2678 1069 2791 1631 
L 2816 1759 
z
" transform="scale(0.015625)"/>
      <path id="DejaVuSans-Oblique-74" d="M 2706 3500 
L 2619 3053 
L 1472 3053 
L 1100 1153 
Q 1081 1047 1072 975 
Q 1063 903 1063 863 
Q 1063 663 1183 572 
Q 1303 481 1569 481 
L 2150 481 
L 2053 0 
L 1503 0 
Q 991 0 739 200 
Q 488 400 488 806 
Q 488 878 497 964 
Q 506 1050 525 1153 
L 897 3053 
L 409 3053 
L 500 3500 
L 978 3500 
L 1172 4494 
L 1747 4494 
L 1556 3500 
L 2706 3500 
z
" transform="scale(0.015625)"/>
      <path id="DejaVuSans-Oblique-63" d="M 3431 3366 
L 3316 2797 
Q 3109 2947 2876 3022 
Q 2644 3097 2394 3097 
Q 2119 3097 1870 3000 
Q 1622 2903 1453 2725 
Q 1184 2453 1037 2087 
Q 891 1722 891 1331 
Q 891 859 1127 628 
Q 1363 397 1844 397 
Q 2081 397 2348 469 
Q 2616 541 2906 684 
L 2797 116 
Q 2547 13 2283 -39 
Q 2019 -91 1741 -91 
Q 1044 -91 669 257 
Q 294 606 294 1253 
Q 294 1797 489 2255 
Q 684 2713 1069 3078 
Q 1331 3328 1684 3456 
Q 2038 3584 2456 3584 
Q 2700 3584 2940 3529 
Q 3181 3475 3431 3366 
z
" transform="scale(0.015625)"/>
      <path id="DejaVuSans-Oblique-68" d="M 3566 2113 
L 3156 0 
L 2578 0 
L 2988 2091 
Q 3016 2238 3031 2350 
Q 3047 2463 3047 2528 
Q 3047 2791 2881 2937 
Q 2716 3084 2419 3084 
Q 1956 3084 1617 2771 
Q 1278 2459 1178 1941 
L 800 0 
L 225 0 
L 1172 4863 
L 1747 4863 
L 1375 2950 
Q 1594 3244 1934 3414 
Q 2275 3584 2650 3584 
Q 3113 3584 3367 3334 
Q 3622 3084 3622 2631 
Q 3622 2519 3608 2391 
Q 3594 2263 3566 2113 
z
" transform="scale(0.015625)"/>
      <path id="DejaVuSans-Oblique-4e" d="M 1081 4666 
L 1931 4666 
L 3219 666 
L 4000 4666 
L 4616 4666 
L 3706 0 
L 2853 0 
L 1569 4025 
L 788 0 
L 172 0 
L 1081 4666 
z
" transform="scale(0.015625)"/>
      <path id="DejaVuSans-Oblique-6f" d="M 1625 -91 
Q 1009 -91 651 289 
Q 294 669 294 1325 
Q 294 1706 417 2101 
Q 541 2497 738 2766 
Q 1047 3184 1428 3384 
Q 1809 3584 2291 3584 
Q 2888 3584 3255 3212 
Q 3622 2841 3622 2241 
Q 3622 1825 3500 1412 
Q 3378 1000 3181 728 
Q 2875 309 2494 109 
Q 2113 -91 1625 -91 
z
M 891 1344 
Q 891 869 1089 633 
Q 1288 397 1691 397 
Q 2269 397 2648 901 
Q 3028 1406 3028 2181 
Q 3028 2634 2825 2865 
Q 2622 3097 2228 3097 
Q 1903 3097 1650 2945 
Q 1397 2794 1197 2484 
Q 1050 2253 970 1956 
Q 891 1659 891 1344 
z
" transform="scale(0.015625)"/>
      <path id="DejaVuSans-Oblique-72" d="M 2853 2969 
Q 2766 3016 2653 3041 
Q 2541 3066 2413 3066 
Q 1953 3066 1609 2717 
Q 1266 2369 1153 1784 
L 800 0 
L 225 0 
L 909 3500 
L 1484 3500 
L 1375 2956 
Q 1603 3259 1920 3421 
Q 2238 3584 2597 3584 
Q 2691 3584 2781 3573 
Q 2872 3563 2963 3538 
L 2853 2969 
z
" transform="scale(0.015625)"/>
      <path id="DejaVuSans-Oblique-6d" d="M 5747 2113 
L 5338 0 
L 4763 0 
L 5166 2094 
Q 5191 2228 5203 2325 
Q 5216 2422 5216 2491 
Q 5216 2772 5059 2928 
Q 4903 3084 4622 3084 
Q 4203 3084 3875 2770 
Q 3547 2456 3450 1953 
L 3066 0 
L 2491 0 
L 2900 2094 
Q 2925 2209 2937 2307 
Q 2950 2406 2950 2484 
Q 2950 2769 2794 2926 
Q 2638 3084 2363 3084 
Q 1938 3084 1609 2770 
Q 1281 2456 1184 1953 
L 800 0 
L 225 0 
L 909 3500 
L 1484 3500 
L 1375 2956 
Q 1609 3263 1923 3423 
Q 2238 3584 2597 3584 
Q 2978 3584 3223 3384 
Q 3469 3184 3519 2828 
Q 3781 3197 4126 3390 
Q 4472 3584 4856 3584 
Q 5306 3584 5551 3325 
Q 5797 3066 5797 2591 
Q 5797 2488 5784 2364 
Q 5772 2241 5747 2113 
z
" transform="scale(0.015625)"/>
      <path id="DejaVuSans-Oblique-20" transform="scale(0.015625)"/>
      <path id="DejaVuSans-Oblique-6b" d="M 1172 4863 
L 1747 4863 
L 1197 2028 
L 3169 3500 
L 3916 3500 
L 1716 1825 
L 3322 0 
L 2625 0 
L 1131 1709 
L 800 0 
L 225 0 
L 1172 4863 
z
" transform="scale(0.015625)"/>
      <path id="DejaVuSans-Oblique-65" d="M 3078 2063 
Q 3088 2113 3092 2166 
Q 3097 2219 3097 2272 
Q 3097 2653 2873 2875 
Q 2650 3097 2266 3097 
Q 1838 3097 1509 2826 
Q 1181 2556 1013 2059 
L 3078 2063 
z
M 3578 1613 
L 903 1613 
Q 884 1494 878 1425 
Q 872 1356 872 1306 
Q 872 872 1139 634 
Q 1406 397 1894 397 
Q 2269 397 2603 481 
Q 2938 566 3225 728 
L 3116 159 
Q 2806 34 2476 -28 
Q 2147 -91 1806 -91 
Q 1078 -91 686 257 
Q 294 606 294 1247 
Q 294 1794 489 2264 
Q 684 2734 1063 3103 
Q 1306 3334 1642 3459 
Q 1978 3584 2356 3584 
Q 2950 3584 3301 3228 
Q 3653 2872 3653 2272 
Q 3653 2128 3634 1964 
Q 3616 1800 3578 1613 
z
" transform="scale(0.015625)"/>
      <path id="DejaVuSans-Oblique-73" d="M 3200 3397 
L 3091 2853 
Q 2863 2978 2609 3040 
Q 2356 3103 2088 3103 
Q 1634 3103 1373 2948 
Q 1113 2794 1113 2528 
Q 1113 2219 1719 2053 
Q 1766 2041 1788 2034 
L 1972 1978 
Q 2547 1819 2739 1644 
Q 2931 1469 2931 1166 
Q 2931 609 2489 259 
Q 2047 -91 1331 -91 
Q 1053 -91 747 -37 
Q 441 16 72 128 
L 184 722 
Q 500 559 806 475 
Q 1113 391 1394 391 
Q 1816 391 2080 572 
Q 2344 753 2344 1031 
Q 2344 1331 1650 1516 
L 1591 1531 
L 1394 1581 
Q 956 1697 753 1886 
Q 550 2075 550 2369 
Q 550 2928 970 3256 
Q 1391 3584 2113 3584 
Q 2397 3584 2667 3537 
Q 2938 3491 3200 3397 
z
" transform="scale(0.015625)"/>
      <path id="DejaVuSans-Oblique-69" d="M 1172 4863 
L 1747 4863 
L 1606 4134 
L 1031 4134 
L 1172 4863 
z
M 909 3500 
L 1484 3500 
L 800 0 
L 225 0 
L 909 3500 
z
" transform="scale(0.015625)"/>
      <path id="DejaVuSans-Oblique-6e" d="M 3566 2113 
L 3156 0 
L 2578 0 
L 2988 2091 
Q 3016 2238 3031 2350 
Q 3047 2463 3047 2528 
Q 3047 2791 2881 2937 
Q 2716 3084 2419 3084 
Q 1956 3084 1622 2776 
Q 1288 2469 1184 1941 
L 800 0 
L 225 0 
L 903 3500 
L 1478 3500 
L 1363 2950 
Q 1603 3253 1940 3418 
Q 2278 3584 2650 3584 
Q 3113 3584 3367 3334 
Q 3622 3084 3622 2631 
Q 3622 2519 3608 2391 
Q 3594 2263 3566 2113 
z
" transform="scale(0.015625)"/>
      <path id="DejaVuSans-Oblique-67" d="M 3816 3500 
L 3219 434 
Q 3047 -456 2561 -893 
Q 2075 -1331 1253 -1331 
Q 950 -1331 690 -1286 
Q 431 -1241 206 -1147 
L 313 -588 
Q 525 -725 762 -790 
Q 1000 -856 1269 -856 
Q 1816 -856 2167 -557 
Q 2519 -259 2631 300 
L 2681 563 
Q 2441 288 2122 144 
Q 1803 0 1434 0 
Q 903 0 598 351 
Q 294 703 294 1319 
Q 294 1803 478 2267 
Q 663 2731 997 3091 
Q 1219 3328 1514 3456 
Q 1809 3584 2131 3584 
Q 2484 3584 2746 3420 
Q 3009 3256 3138 2956 
L 3238 3500 
L 3816 3500 
z
M 2950 2216 
Q 2950 2641 2750 2872 
Q 2550 3103 2181 3103 
Q 1953 3103 1747 3012 
Q 1541 2922 1394 2759 
Q 1156 2491 1023 2127 
Q 891 1763 891 1375 
Q 891 944 1092 712 
Q 1294 481 1672 481 
Q 2219 481 2584 976 
Q 2950 1472 2950 2216 
z
" transform="scale(0.015625)"/>
      <path id="DejaVuSans-Oblique-66" d="M 3059 4863 
L 2969 4384 
L 2419 4384 
Q 2106 4384 1964 4261 
Q 1822 4138 1753 3809 
L 1691 3500 
L 2638 3500 
L 2553 3053 
L 1606 3053 
L 1013 0 
L 434 0 
L 1031 3053 
L 481 3053 
L 563 3500 
L 1113 3500 
L 1159 3744 
Q 1278 4363 1576 4613 
Q 1875 4863 2516 4863 
L 3059 4863 
z
" transform="scale(0.015625)"/>
      <path id="DejaVuSans-Oblique-64" d="M 2675 525 
Q 2444 222 2128 65 
Q 1813 -91 1428 -91 
Q 903 -91 598 267 
Q 294 625 294 1247 
Q 294 1766 478 2236 
Q 663 2706 1013 3078 
Q 1244 3325 1534 3454 
Q 1825 3584 2144 3584 
Q 2481 3584 2739 3421 
Q 2997 3259 3138 2956 
L 3513 4863 
L 4091 4863 
L 3144 0 
L 2566 0 
L 2675 525 
z
M 891 1350 
Q 891 897 1095 644 
Q 1300 391 1663 391 
Q 1931 391 2161 520 
Q 2391 650 2566 903 
Q 2750 1166 2856 1509 
Q 2963 1853 2963 2188 
Q 2963 2622 2758 2865 
Q 2553 3109 2194 3109 
Q 1922 3109 1687 2981 
Q 1453 2853 1288 2613 
Q 1106 2353 998 2009 
Q 891 1666 891 1350 
z
" transform="scale(0.015625)"/>
      <path id="DejaVuSans-Oblique-62" d="M 3169 2138 
Q 3169 2591 2961 2847 
Q 2753 3103 2388 3103 
Q 2122 3103 1889 2973 
Q 1656 2844 1484 2597 
Q 1303 2338 1198 1995 
Q 1094 1653 1094 1313 
Q 1094 881 1298 636 
Q 1503 391 1863 391 
Q 2134 391 2365 517 
Q 2597 644 2772 891 
Q 2950 1147 3059 1487 
Q 3169 1828 3169 2138 
z
M 1381 2969 
Q 1594 3256 1914 3420 
Q 2234 3584 2584 3584 
Q 3122 3584 3439 3221 
Q 3756 2859 3756 2241 
Q 3756 1734 3570 1259 
Q 3384 784 3041 416 
Q 2816 172 2522 40 
Q 2228 -91 1906 -91 
Q 1566 -91 1316 65 
Q 1066 222 909 531 
L 806 0 
L 231 0 
L 1178 4863 
L 1753 4863 
L 1381 2969 
z
" transform="scale(0.015625)"/>
      <path id="DejaVuSans-Oblique-6c" d="M 1172 4863 
L 1747 4863 
L 800 0 
L 225 0 
L 1172 4863 
z
" transform="scale(0.015625)"/>
     </defs>
     <use xlink:href="#DejaVuSans-Oblique-42"/>
     <use xlink:href="#DejaVuSans-Oblique-61" x="68.603516"/>
     <use xlink:href="#DejaVuSans-Oblique-74" x="129.882812"/>
     <use xlink:href="#DejaVuSans-Oblique-63" x="169.091797"/>
     <use xlink:href="#DejaVuSans-Oblique-68" x="224.072266"/>
     <use xlink:href="#DejaVuSans-Oblique-4e" x="287.451172"/>
     <use xlink:href="#DejaVuSans-Oblique-6f" x="362.255859"/>
     <use xlink:href="#DejaVuSans-Oblique-72" x="423.4375"/>
     <use xlink:href="#DejaVuSans-Oblique-6d" x="464.550781"/>
     <use xlink:href="#DejaVuSans-Oblique-20" x="561.962891"/>
     <use xlink:href="#DejaVuSans-Oblique-6d" x="593.75"/>
     <use xlink:href="#DejaVuSans-Oblique-61" x="691.162109"/>
     <use xlink:href="#DejaVuSans-Oblique-6b" x="752.441406"/>
     <use xlink:href="#DejaVuSans-Oblique-65" x="810.351562"/>
     <use xlink:href="#DejaVuSans-Oblique-73" x="871.875"/>
     <use xlink:href="#DejaVuSans-Oblique-20" x="923.974609"/>
     <use xlink:href="#DejaVuSans-Oblique-74" x="955.761719"/>
     <use xlink:href="#DejaVuSans-Oblique-72" x="994.970703"/>
     <use xlink:href="#DejaVuSans-Oblique-61" x="1036.083984"/>
     <use xlink:href="#DejaVuSans-Oblique-69" x="1097.363281"/>
     <use xlink:href="#DejaVuSans-Oblique-6e" x="1125.146484"/>
     <use xlink:href="#DejaVuSans-Oblique-69" x="1188.525391"/>
     <use xlink:href="#DejaVuSans-Oblique-6e" x="1216.308594"/>
     <use xlink:href="#DejaVuSans-Oblique-67" x="1279.6875"/>
     <use xlink:href="#DejaVuSans-Oblique-20" x="1343.164062"/>
     <use xlink:href="#DejaVuSans-Oblique-66" x="1374.951172"/>
     <use xlink:href="#DejaVuSans-Oblique-61" x="1410.15625"/>
     <use xlink:href="#DejaVuSans-Oblique-73" x="1471.435547"/>
     <use xlink:href="#DejaVuSans-Oblique-74" x="1523.535156"/>
     <use xlink:href="#DejaVuSans-Oblique-65" x="1562.744141"/>
     <use xlink:href="#DejaVuSans-Oblique-72" x="1624.267578"/>
     <use xlink:href="#DejaVuSans-Oblique-20" x="1665.380859"/>
     <use xlink:href="#DejaVuSans-Oblique-61" x="1697.167969"/>
     <use xlink:href="#DejaVuSans-Oblique-6e" x="1758.447266"/>
     <use xlink:href="#DejaVuSans-Oblique-64" x="1821.826172"/>
     <use xlink:href="#DejaVuSans-Oblique-20" x="1885.302734"/>
     <use xlink:href="#DejaVuSans-Oblique-6d" x="1917.089844"/>
     <use xlink:href="#DejaVuSans-Oblique-6f" x="2014.501953"/>
     <use xlink:href="#DejaVuSans-Oblique-72" x="2075.683594"/>
     <use xlink:href="#DejaVuSans-Oblique-65" x="2116.796875"/>
     <use xlink:href="#DejaVuSans-Oblique-20" x="2178.320312"/>
     <use xlink:href="#DejaVuSans-Oblique-73" x="2210.107422"/>
     <use xlink:href="#DejaVuSans-Oblique-74" x="2262.207031"/>
     <use xlink:href="#DejaVuSans-Oblique-61" x="2301.416016"/>
     <use xlink:href="#DejaVuSans-Oblique-62" x="2362.695312"/>
     <use xlink:href="#DejaVuSans-Oblique-6c" x="2426.171875"/>
     <use xlink:href="#DejaVuSans-Oblique-65" x="2453.955078"/>
    </g>
   </g>
   <g id="text_2">
    <!-- Where BatchNorm sits -->
    <g style="fill: #0f172a" transform="translate(134.671563 43.92) scale(0.11 -0.11)">
     <defs>
      <path id="DejaVuSans-Bold-57" d="M 191 4666 
L 1344 4666 
L 2150 1275 
L 2950 4666 
L 4109 4666 
L 4909 1275 
L 5716 4666 
L 6859 4666 
L 5759 0 
L 4372 0 
L 3525 3547 
L 2688 0 
L 1300 0 
L 191 4666 
z
" transform="scale(0.015625)"/>
      <path id="DejaVuSans-Bold-68" d="M 4056 2131 
L 4056 0 
L 2931 0 
L 2931 347 
L 2931 1625 
Q 2931 2084 2911 2256 
Q 2891 2428 2841 2509 
Q 2775 2619 2662 2680 
Q 2550 2741 2406 2741 
Q 2056 2741 1856 2470 
Q 1656 2200 1656 1722 
L 1656 0 
L 538 0 
L 538 4863 
L 1656 4863 
L 1656 2988 
Q 1909 3294 2193 3439 
Q 2478 3584 2822 3584 
Q 3428 3584 3742 3212 
Q 4056 2841 4056 2131 
z
" transform="scale(0.015625)"/>
      <path id="DejaVuSans-Bold-65" d="M 4031 1759 
L 4031 1441 
L 1416 1441 
Q 1456 1047 1700 850 
Q 1944 653 2381 653 
Q 2734 653 3104 758 
Q 3475 863 3866 1075 
L 3866 213 
Q 3469 63 3072 -14 
Q 2675 -91 2278 -91 
Q 1328 -91 801 392 
Q 275 875 275 1747 
Q 275 2603 792 3093 
Q 1309 3584 2216 3584 
Q 3041 3584 3536 3087 
Q 4031 2591 4031 1759 
z
M 2881 2131 
Q 2881 2450 2695 2645 
Q 2509 2841 2209 2841 
Q 1884 2841 1681 2658 
Q 1478 2475 1428 2131 
L 2881 2131 
z
" transform="scale(0.015625)"/>
      <path id="DejaVuSans-Bold-72" d="M 3138 2547 
Q 2991 2616 2845 2648 
Q 2700 2681 2553 2681 
Q 2122 2681 1889 2404 
Q 1656 2128 1656 1613 
L 1656 0 
L 538 0 
L 538 3500 
L 1656 3500 
L 1656 2925 
Q 1872 3269 2151 3426 
Q 2431 3584 2822 3584 
Q 2878 3584 2943 3579 
Q 3009 3575 3134 3559 
L 3138 2547 
z
" transform="scale(0.015625)"/>
      <path id="DejaVuSans-Bold-20" transform="scale(0.015625)"/>
      <path id="DejaVuSans-Bold-42" d="M 2456 2859 
Q 2741 2859 2887 2984 
Q 3034 3109 3034 3353 
Q 3034 3594 2887 3720 
Q 2741 3847 2456 3847 
L 1791 3847 
L 1791 2859 
L 2456 2859 
z
M 2497 819 
Q 2859 819 3042 972 
Q 3225 1125 3225 1434 
Q 3225 1738 3044 1889 
Q 2863 2041 2497 2041 
L 1791 2041 
L 1791 819 
L 2497 819 
z
M 3616 2497 
Q 4003 2384 4215 2081 
Q 4428 1778 4428 1338 
Q 4428 663 3972 331 
Q 3516 0 2584 0 
L 588 0 
L 588 4666 
L 2394 4666 
Q 3366 4666 3802 4372 
Q 4238 4078 4238 3431 
Q 4238 3091 4078 2852 
Q 3919 2613 3616 2497 
z
" transform="scale(0.015625)"/>
      <path id="DejaVuSans-Bold-61" d="M 2106 1575 
Q 1756 1575 1579 1456 
Q 1403 1338 1403 1106 
Q 1403 894 1545 773 
Q 1688 653 1941 653 
Q 2256 653 2472 879 
Q 2688 1106 2688 1447 
L 2688 1575 
L 2106 1575 
z
M 3816 1997 
L 3816 0 
L 2688 0 
L 2688 519 
Q 2463 200 2181 54 
Q 1900 -91 1497 -91 
Q 953 -91 614 226 
Q 275 544 275 1050 
Q 275 1666 698 1953 
Q 1122 2241 2028 2241 
L 2688 2241 
L 2688 2328 
Q 2688 2594 2478 2717 
Q 2269 2841 1825 2841 
Q 1466 2841 1156 2769 
Q 847 2697 581 2553 
L 581 3406 
Q 941 3494 1303 3539 
Q 1666 3584 2028 3584 
Q 2975 3584 3395 3211 
Q 3816 2838 3816 1997 
z
" transform="scale(0.015625)"/>
      <path id="DejaVuSans-Bold-74" d="M 1759 4494 
L 1759 3500 
L 2913 3500 
L 2913 2700 
L 1759 2700 
L 1759 1216 
Q 1759 972 1856 886 
Q 1953 800 2241 800 
L 2816 800 
L 2816 0 
L 1856 0 
Q 1194 0 917 276 
Q 641 553 641 1216 
L 641 2700 
L 84 2700 
L 84 3500 
L 641 3500 
L 641 4494 
L 1759 4494 
z
" transform="scale(0.015625)"/>
      <path id="DejaVuSans-Bold-63" d="M 3366 3391 
L 3366 2478 
Q 3138 2634 2908 2709 
Q 2678 2784 2431 2784 
Q 1963 2784 1702 2511 
Q 1441 2238 1441 1747 
Q 1441 1256 1702 982 
Q 1963 709 2431 709 
Q 2694 709 2930 787 
Q 3166 866 3366 1019 
L 3366 103 
Q 3103 6 2833 -42 
Q 2563 -91 2291 -91 
Q 1344 -91 809 395 
Q 275 881 275 1747 
Q 275 2613 809 3098 
Q 1344 3584 2291 3584 
Q 2566 3584 2833 3536 
Q 3100 3488 3366 3391 
z
" transform="scale(0.015625)"/>
      <path id="DejaVuSans-Bold-4e" d="M 588 4666 
L 1931 4666 
L 3628 1466 
L 3628 4666 
L 4769 4666 
L 4769 0 
L 3425 0 
L 1728 3200 
L 1728 0 
L 588 0 
L 588 4666 
z
" transform="scale(0.015625)"/>
      <path id="DejaVuSans-Bold-6f" d="M 2203 2784 
Q 1831 2784 1636 2517 
Q 1441 2250 1441 1747 
Q 1441 1244 1636 976 
Q 1831 709 2203 709 
Q 2569 709 2762 976 
Q 2956 1244 2956 1747 
Q 2956 2250 2762 2517 
Q 2569 2784 2203 2784 
z
M 2203 3584 
Q 3106 3584 3614 3096 
Q 4122 2609 4122 1747 
Q 4122 884 3614 396 
Q 3106 -91 2203 -91 
Q 1297 -91 786 396 
Q 275 884 275 1747 
Q 275 2609 786 3096 
Q 1297 3584 2203 3584 
z
" transform="scale(0.015625)"/>
      <path id="DejaVuSans-Bold-6d" d="M 3781 2919 
Q 3994 3244 4286 3414 
Q 4578 3584 4928 3584 
Q 5531 3584 5847 3212 
Q 6163 2841 6163 2131 
L 6163 0 
L 5038 0 
L 5038 1825 
Q 5041 1866 5042 1909 
Q 5044 1953 5044 2034 
Q 5044 2406 4934 2573 
Q 4825 2741 4581 2741 
Q 4263 2741 4089 2478 
Q 3916 2216 3909 1719 
L 3909 0 
L 2784 0 
L 2784 1825 
Q 2784 2406 2684 2573 
Q 2584 2741 2328 2741 
Q 2006 2741 1831 2477 
Q 1656 2213 1656 1722 
L 1656 0 
L 531 0 
L 531 3500 
L 1656 3500 
L 1656 2988 
Q 1863 3284 2130 3434 
Q 2397 3584 2719 3584 
Q 3081 3584 3359 3409 
Q 3638 3234 3781 2919 
z
" transform="scale(0.015625)"/>
      <path id="DejaVuSans-Bold-73" d="M 3272 3391 
L 3272 2541 
Q 2913 2691 2578 2766 
Q 2244 2841 1947 2841 
Q 1628 2841 1473 2761 
Q 1319 2681 1319 2516 
Q 1319 2381 1436 2309 
Q 1553 2238 1856 2203 
L 2053 2175 
Q 2913 2066 3209 1816 
Q 3506 1566 3506 1031 
Q 3506 472 3093 190 
Q 2681 -91 1863 -91 
Q 1516 -91 1145 -36 
Q 775 19 384 128 
L 384 978 
Q 719 816 1070 734 
Q 1422 653 1784 653 
Q 2113 653 2278 743 
Q 2444 834 2444 1013 
Q 2444 1163 2330 1236 
Q 2216 1309 1875 1350 
L 1678 1375 
Q 931 1469 631 1722 
Q 331 1975 331 2491 
Q 331 3047 712 3315 
Q 1094 3584 1881 3584 
Q 2191 3584 2531 3537 
Q 2872 3491 3272 3391 
z
" transform="scale(0.015625)"/>
      <path id="DejaVuSans-Bold-69" d="M 538 3500 
L 1656 3500 
L 1656 0 
L 538 0 
L 538 3500 
z
M 538 4863 
L 1656 4863 
L 1656 3950 
L 538 3950 
L 538 4863 
z
" transform="scale(0.015625)"/>
     </defs>
     <use xlink:href="#DejaVuSans-Bold-57"/>
     <use xlink:href="#DejaVuSans-Bold-68" x="110.302734"/>
     <use xlink:href="#DejaVuSans-Bold-65" x="181.494141"/>
     <use xlink:href="#DejaVuSans-Bold-72" x="249.316406"/>
     <use xlink:href="#DejaVuSans-Bold-65" x="298.632812"/>
     <use xlink:href="#DejaVuSans-Bold-20" x="366.455078"/>
     <use xlink:href="#DejaVuSans-Bold-42" x="401.269531"/>
     <use xlink:href="#DejaVuSans-Bold-61" x="477.490234"/>
     <use xlink:href="#DejaVuSans-Bold-74" x="544.970703"/>
     <use xlink:href="#DejaVuSans-Bold-63" x="592.773438"/>
     <use xlink:href="#DejaVuSans-Bold-68" x="652.050781"/>
     <use xlink:href="#DejaVuSans-Bold-4e" x="723.242188"/>
     <use xlink:href="#DejaVuSans-Bold-6f" x="806.933594"/>
     <use xlink:href="#DejaVuSans-Bold-72" x="875.634766"/>
     <use xlink:href="#DejaVuSans-Bold-6d" x="924.951172"/>
     <use xlink:href="#DejaVuSans-Bold-20" x="1029.150391"/>
     <use xlink:href="#DejaVuSans-Bold-73" x="1063.964844"/>
     <use xlink:href="#DejaVuSans-Bold-69" x="1123.486328"/>
     <use xlink:href="#DejaVuSans-Bold-74" x="1157.763672"/>
     <use xlink:href="#DejaVuSans-Bold-73" x="1205.566406"/>
    </g>
   </g>
   <g id="text_3">
    <!-- Linear / Conv layer -->
    <g style="fill: #1f2937" transform="translate(151.539063 85.237912) scale(0.1 -0.1)">
     <defs>
      <path id="DejaVuSans-Bold-4c" d="M 588 4666 
L 1791 4666 
L 1791 909 
L 3903 909 
L 3903 0 
L 588 0 
L 588 4666 
z
" transform="scale(0.015625)"/>
      <path id="DejaVuSans-Bold-6e" d="M 4056 2131 
L 4056 0 
L 2931 0 
L 2931 347 
L 2931 1631 
Q 2931 2084 2911 2256 
Q 2891 2428 2841 2509 
Q 2775 2619 2662 2680 
Q 2550 2741 2406 2741 
Q 2056 2741 1856 2470 
Q 1656 2200 1656 1722 
L 1656 0 
L 538 0 
L 538 3500 
L 1656 3500 
L 1656 2988 
Q 1909 3294 2193 3439 
Q 2478 3584 2822 3584 
Q 3428 3584 3742 3212 
Q 4056 2841 4056 2131 
z
" transform="scale(0.015625)"/>
      <path id="DejaVuSans-Bold-2f" d="M 1644 4666 
L 2338 4666 
L 691 -594 
L 0 -594 
L 1644 4666 
z
" transform="scale(0.015625)"/>
      <path id="DejaVuSans-Bold-43" d="M 4288 256 
Q 3956 84 3597 -3 
Q 3238 -91 2847 -91 
Q 1681 -91 1000 561 
Q 319 1213 319 2328 
Q 319 3447 1000 4098 
Q 1681 4750 2847 4750 
Q 3238 4750 3597 4662 
Q 3956 4575 4288 4403 
L 4288 3438 
Q 3953 3666 3628 3772 
Q 3303 3878 2944 3878 
Q 2300 3878 1931 3465 
Q 1563 3053 1563 2328 
Q 1563 1606 1931 1193 
Q 2300 781 2944 781 
Q 3303 781 3628 887 
Q 3953 994 4288 1222 
L 4288 256 
z
" transform="scale(0.015625)"/>
      <path id="DejaVuSans-Bold-76" d="M 97 3500 
L 1216 3500 
L 2088 1081 
L 2956 3500 
L 4078 3500 
L 2700 0 
L 1472 0 
L 97 3500 
z
" transform="scale(0.015625)"/>
      <path id="DejaVuSans-Bold-6c" d="M 538 4863 
L 1656 4863 
L 1656 0 
L 538 0 
L 538 4863 
z
" transform="scale(0.015625)"/>
      <path id="DejaVuSans-Bold-79" d="M 78 3500 
L 1197 3500 
L 2138 1125 
L 2938 3500 
L 4056 3500 
L 2584 -331 
Q 2363 -916 2067 -1148 
Q 1772 -1381 1288 -1381 
L 641 -1381 
L 641 -647 
L 991 -647 
Q 1275 -647 1404 -556 
Q 1534 -466 1606 -231 
L 1638 -134 
L 78 3500 
z
" transform="scale(0.015625)"/>
     </defs>
     <use xlink:href="#DejaVuSans-Bold-4c"/>
     <use xlink:href="#DejaVuSans-Bold-69" x="63.720703"/>
     <use xlink:href="#DejaVuSans-Bold-6e" x="97.998047"/>
     <use xlink:href="#DejaVuSans-Bold-65" x="169.189453"/>
     <use xlink:href="#DejaVuSans-Bold-61" x="237.011719"/>
     <use xlink:href="#DejaVuSans-Bold-72" x="304.492188"/>
     <use xlink:href="#DejaVuSans-Bold-20" x="353.808594"/>
     <use xlink:href="#DejaVuSans-Bold-2f" x="388.623047"/>
     <use xlink:href="#DejaVuSans-Bold-20" x="425.146484"/>
     <use xlink:href="#DejaVuSans-Bold-43" x="459.960938"/>
     <use xlink:href="#DejaVuSans-Bold-6f" x="533.349609"/>
     <use xlink:href="#DejaVuSans-Bold-6e" x="602.050781"/>
     <use xlink:href="#DejaVuSans-Bold-76" x="673.242188"/>
     <use xlink:href="#DejaVuSans-Bold-20" x="738.427734"/>
     <use xlink:href="#DejaVuSans-Bold-6c" x="773.242188"/>
     <use xlink:href="#DejaVuSans-Bold-61" x="807.519531"/>
     <use xlink:href="#DejaVuSans-Bold-79" x="871.875"/>
     <use xlink:href="#DejaVuSans-Bold-65" x="937.060547"/>
     <use xlink:href="#DejaVuSans-Bold-72" x="1004.882812"/>
    </g>
   </g>
   <g id="text_4">
    <!-- BatchNorm -->
    <g style="fill: #1f2937" transform="translate(172.85625 126.246069) scale(0.1 -0.1)">
     <use xlink:href="#DejaVuSans-Bold-42"/>
     <use xlink:href="#DejaVuSans-Bold-61" x="76.220703"/>
     <use xlink:href="#DejaVuSans-Bold-74" x="143.701172"/>
     <use xlink:href="#DejaVuSans-Bold-63" x="191.503906"/>
     <use xlink:href="#DejaVuSans-Bold-68" x="250.78125"/>
     <use xlink:href="#DejaVuSans-Bold-4e" x="321.972656"/>
     <use xlink:href="#DejaVuSans-Bold-6f" x="405.664062"/>
     <use xlink:href="#DejaVuSans-Bold-72" x="474.365234"/>
     <use xlink:href="#DejaVuSans-Bold-6d" x="523.681641"/>
    </g>
    <!-- (normalize across batch) -->
    <g style="fill: #1f2937" transform="translate(134.367188 137.443881) scale(0.1 -0.1)">
     <defs>
      <path id="DejaVuSans-Bold-28" d="M 2413 -844 
L 1484 -844 
Q 1006 -72 778 623 
Q 550 1319 550 2003 
Q 550 2688 779 3389 
Q 1009 4091 1484 4856 
L 2413 4856 
Q 2013 4116 1813 3408 
Q 1613 2700 1613 2009 
Q 1613 1319 1811 609 
Q 2009 -100 2413 -844 
z
" transform="scale(0.015625)"/>
      <path id="DejaVuSans-Bold-7a" d="M 366 3500 
L 3419 3500 
L 3419 2719 
L 1575 800 
L 3419 800 
L 3419 0 
L 288 0 
L 288 781 
L 2131 2700 
L 366 2700 
L 366 3500 
z
" transform="scale(0.015625)"/>
      <path id="DejaVuSans-Bold-62" d="M 2400 722 
Q 2759 722 2948 984 
Q 3138 1247 3138 1747 
Q 3138 2247 2948 2509 
Q 2759 2772 2400 2772 
Q 2041 2772 1848 2508 
Q 1656 2244 1656 1747 
Q 1656 1250 1848 986 
Q 2041 722 2400 722 
z
M 1656 2988 
Q 1888 3294 2169 3439 
Q 2450 3584 2816 3584 
Q 3463 3584 3878 3070 
Q 4294 2556 4294 1747 
Q 4294 938 3878 423 
Q 3463 -91 2816 -91 
Q 2450 -91 2169 54 
Q 1888 200 1656 506 
L 1656 0 
L 538 0 
L 538 4863 
L 1656 4863 
L 1656 2988 
z
" transform="scale(0.015625)"/>
      <path id="DejaVuSans-Bold-29" d="M 513 -844 
Q 913 -100 1113 609 
Q 1313 1319 1313 2009 
Q 1313 2700 1113 3408 
Q 913 4116 513 4856 
L 1441 4856 
Q 1916 4091 2145 3389 
Q 2375 2688 2375 2003 
Q 2375 1319 2147 623 
Q 1919 -72 1441 -844 
L 513 -844 
z
" transform="scale(0.015625)"/>
     </defs>
     <use xlink:href="#DejaVuSans-Bold-28"/>
     <use xlink:href="#DejaVuSans-Bold-6e" x="45.703125"/>
     <use xlink:href="#DejaVuSans-Bold-6f" x="116.894531"/>
     <use xlink:href="#DejaVuSans-Bold-72" x="185.595703"/>
     <use xlink:href="#DejaVuSans-Bold-6d" x="234.912109"/>
     <use xlink:href="#DejaVuSans-Bold-61" x="339.111328"/>
     <use xlink:href="#DejaVuSans-Bold-6c" x="406.591797"/>
     <use xlink:href="#DejaVuSans-Bold-69" x="440.869141"/>
     <use xlink:href="#DejaVuSans-Bold-7a" x="475.146484"/>
     <use xlink:href="#DejaVuSans-Bold-65" x="533.349609"/>
     <use xlink:href="#DejaVuSans-Bold-20" x="601.171875"/>
     <use xlink:href="#DejaVuSans-Bold-61" x="635.986328"/>
     <use xlink:href="#DejaVuSans-Bold-63" x="703.466797"/>
     <use xlink:href="#DejaVuSans-Bold-72" x="762.744141"/>
     <use xlink:href="#DejaVuSans-Bold-6f" x="812.060547"/>
     <use xlink:href="#DejaVuSans-Bold-73" x="880.761719"/>
     <use xlink:href="#DejaVuSans-Bold-73" x="940.283203"/>
     <use xlink:href="#DejaVuSans-Bold-20" x="999.804688"/>
     <use xlink:href="#DejaVuSans-Bold-62" x="1034.619141"/>
     <use xlink:href="#DejaVuSans-Bold-61" x="1106.201172"/>
     <use xlink:href="#DejaVuSans-Bold-74" x="1173.681641"/>
     <use xlink:href="#DejaVuSans-Bold-63" x="1221.484375"/>
     <use xlink:href="#DejaVuSans-Bold-68" x="1280.761719"/>
     <use xlink:href="#DejaVuSans-Bold-29" x="1351.953125"/>
    </g>
   </g>
   <g id="text_5">
    <!-- Activation (ReLU) -->
    <g style="fill: #1f2937" transform="translate(154.963281 178.412975) scale(0.1 -0.1)">
     <defs>
      <path id="DejaVuSans-Bold-41" d="M 3419 850 
L 1538 850 
L 1241 0 
L 31 0 
L 1759 4666 
L 3194 4666 
L 4922 0 
L 3713 0 
L 3419 850 
z
M 1838 1716 
L 3116 1716 
L 2478 3572 
L 1838 1716 
z
" transform="scale(0.015625)"/>
      <path id="DejaVuSans-Bold-52" d="M 2297 2597 
Q 2675 2597 2839 2737 
Q 3003 2878 3003 3200 
Q 3003 3519 2839 3656 
Q 2675 3794 2297 3794 
L 1791 3794 
L 1791 2597 
L 2297 2597 
z
M 1791 1766 
L 1791 0 
L 588 0 
L 588 4666 
L 2425 4666 
Q 3347 4666 3776 4356 
Q 4206 4047 4206 3378 
Q 4206 2916 3982 2619 
Q 3759 2322 3309 2181 
Q 3556 2125 3751 1926 
Q 3947 1728 4147 1325 
L 4800 0 
L 3519 0 
L 2950 1159 
Q 2778 1509 2601 1637 
Q 2425 1766 2131 1766 
L 1791 1766 
z
" transform="scale(0.015625)"/>
      <path id="DejaVuSans-Bold-55" d="M 588 4666 
L 1791 4666 
L 1791 1869 
Q 1791 1291 1980 1042 
Q 2169 794 2597 794 
Q 3028 794 3217 1042 
Q 3406 1291 3406 1869 
L 3406 4666 
L 4609 4666 
L 4609 1869 
Q 4609 878 4112 393 
Q 3616 -91 2597 -91 
Q 1581 -91 1084 393 
Q 588 878 588 1869 
L 588 4666 
z
" transform="scale(0.015625)"/>
     </defs>
     <use xlink:href="#DejaVuSans-Bold-41"/>
     <use xlink:href="#DejaVuSans-Bold-63" x="77.392578"/>
     <use xlink:href="#DejaVuSans-Bold-74" x="136.669922"/>
     <use xlink:href="#DejaVuSans-Bold-69" x="184.472656"/>
     <use xlink:href="#DejaVuSans-Bold-76" x="218.75"/>
     <use xlink:href="#DejaVuSans-Bold-61" x="283.935547"/>
     <use xlink:href="#DejaVuSans-Bold-74" x="351.416016"/>
     <use xlink:href="#DejaVuSans-Bold-69" x="399.21875"/>
     <use xlink:href="#DejaVuSans-Bold-6f" x="433.496094"/>
     <use xlink:href="#DejaVuSans-Bold-6e" x="502.197266"/>
     <use xlink:href="#DejaVuSans-Bold-20" x="573.388672"/>
     <use xlink:href="#DejaVuSans-Bold-28" x="608.203125"/>
     <use xlink:href="#DejaVuSans-Bold-52" x="653.90625"/>
     <use xlink:href="#DejaVuSans-Bold-65" x="730.908203"/>
     <use xlink:href="#DejaVuSans-Bold-4c" x="798.730469"/>
     <use xlink:href="#DejaVuSans-Bold-55" x="858.826172"/>
     <use xlink:href="#DejaVuSans-Bold-29" x="940.027344"/>
    </g>
   </g>
   <g id="text_6">
    <!-- Next layer … -->
    <g style="fill: #1f2937" transform="translate(168.529688 224.941912) scale(0.1 -0.1)">
     <defs>
      <path id="DejaVuSans-Bold-78" d="M 1422 1791 
L 159 3500 
L 1344 3500 
L 2059 2463 
L 2784 3500 
L 3969 3500 
L 2706 1797 
L 4031 0 
L 2847 0 
L 2059 1106 
L 1281 0 
L 97 0 
L 1422 1791 
z
" transform="scale(0.015625)"/>
      <path id="DejaVuSans-Bold-2026" d="M 4769 1209 
L 5894 1209 
L 5894 0 
L 4769 0 
L 4769 1209 
z
M 506 1209 
L 1631 1209 
L 1631 0 
L 506 0 
L 506 1209 
z
M 2638 1209 
L 3763 1209 
L 3763 0 
L 2638 0 
L 2638 1209 
z
" transform="scale(0.015625)"/>
     </defs>
     <use xlink:href="#DejaVuSans-Bold-4e"/>
     <use xlink:href="#DejaVuSans-Bold-65" x="83.691406"/>
     <use xlink:href="#DejaVuSans-Bold-78" x="151.513672"/>
     <use xlink:href="#DejaVuSans-Bold-74" x="216.015625"/>
     <use xlink:href="#DejaVuSans-Bold-20" x="263.818359"/>
     <use xlink:href="#DejaVuSans-Bold-6c" x="298.632812"/>
     <use xlink:href="#DejaVuSans-Bold-61" x="332.910156"/>
     <use xlink:href="#DejaVuSans-Bold-79" x="397.265625"/>
     <use xlink:href="#DejaVuSans-Bold-65" x="462.451172"/>
     <use xlink:href="#DejaVuSans-Bold-72" x="530.273438"/>
     <use xlink:href="#DejaVuSans-Bold-20" x="579.589844"/>
     <use xlink:href="#DejaVuSans-Bold-2026" x="614.404297"/>
    </g>
   </g>
  </g>
  <g id="axes_2">
   <g id="patch_9">
    <path d="M 455.5 282.76 
L 849.6 282.76 
L 849.6 49.92 
L 455.5 49.92 
z
" style="fill: #ffffff"/>
   </g>
   <g id="patch_10">
    <path d="M 473.413636 282.76 
L 483.65 282.76 
L 483.65 273.783763 
L 473.413636 273.783763 
z
" clip-path="url(#p4d22156654)" style="fill: #ea580c; opacity: 0.5; stroke: #ffffff; stroke-width: 0.5; stroke-linejoin: miter"/>
   </g>
   <g id="patch_11">
    <path d="M 483.65 282.76 
L 493.886364 282.76 
L 493.886364 280.515941 
L 483.65 280.515941 
z
" clip-path="url(#p4d22156654)" style="fill: #ea580c; opacity: 0.5; stroke: #ffffff; stroke-width: 0.5; stroke-linejoin: miter"/>
   </g>
   <g id="patch_12">
    <path d="M 493.886364 282.76 
L 504.122727 282.76 
L 504.122727 282.76 
L 493.886364 282.76 
z
" clip-path="url(#p4d22156654)" style="fill: #ea580c; opacity: 0.5; stroke: #ffffff; stroke-width: 0.5; stroke-linejoin: miter"/>
   </g>
   <g id="patch_13">
    <path d="M 504.122727 282.76 
L 514.359091 282.76 
L 514.359091 273.783763 
L 504.122727 273.783763 
z
" clip-path="url(#p4d22156654)" style="fill: #ea580c; opacity: 0.5; stroke: #ffffff; stroke-width: 0.5; stroke-linejoin: miter"/>
   </g>
   <g id="patch_14">
    <path d="M 514.359091 282.76 
L 524.595455 282.76 
L 524.595455 273.783763 
L 514.359091 273.783763 
z
" clip-path="url(#p4d22156654)" style="fill: #ea580c; opacity: 0.5; stroke: #ffffff; stroke-width: 0.5; stroke-linejoin: miter"/>
   </g>
   <g id="patch_15">
    <path d="M 524.595455 282.76 
L 534.831818 282.76 
L 534.831818 276.027822 
L 524.595455 276.027822 
z
" clip-path="url(#p4d22156654)" style="fill: #ea580c; opacity: 0.5; stroke: #ffffff; stroke-width: 0.5; stroke-linejoin: miter"/>
   </g>
   <g id="patch_16">
    <path d="M 534.831818 282.76 
L 545.068182 282.76 
L 545.068182 271.539703 
L 534.831818 271.539703 
z
" clip-path="url(#p4d22156654)" style="fill: #ea580c; opacity: 0.5; stroke: #ffffff; stroke-width: 0.5; stroke-linejoin: miter"/>
   </g>
   <g id="patch_17">
    <path d="M 545.068182 282.76 
L 555.304545 282.76 
L 555.304545 255.831288 
L 545.068182 255.831288 
z
" clip-path="url(#p4d22156654)" style="fill: #ea580c; opacity: 0.5; stroke: #ffffff; stroke-width: 0.5; stroke-linejoin: miter"/>
   </g>
   <g id="patch_18">
    <path d="M 555.304545 282.76 
L 565.540909 282.76 
L 565.540909 258.075347 
L 555.304545 258.075347 
z
" clip-path="url(#p4d22156654)" style="fill: #ea580c; opacity: 0.5; stroke: #ffffff; stroke-width: 0.5; stroke-linejoin: miter"/>
   </g>
   <g id="patch_19">
    <path d="M 565.540909 282.76 
L 575.777273 282.76 
L 575.777273 258.075347 
L 565.540909 258.075347 
z
" clip-path="url(#p4d22156654)" style="fill: #ea580c; opacity: 0.5; stroke: #ffffff; stroke-width: 0.5; stroke-linejoin: miter"/>
   </g>
   <g id="patch_20">
    <path d="M 575.777273 282.76 
L 586.013636 282.76 
L 586.013636 235.634754 
L 575.777273 235.634754 
z
" clip-path="url(#p4d22156654)" style="fill: #ea580c; opacity: 0.5; stroke: #ffffff; stroke-width: 0.5; stroke-linejoin: miter"/>
   </g>
   <g id="patch_21">
    <path d="M 586.013636 282.76 
L 596.25 282.76 
L 596.25 240.122873 
L 586.013636 240.122873 
z
" clip-path="url(#p4d22156654)" style="fill: #ea580c; opacity: 0.5; stroke: #ffffff; stroke-width: 0.5; stroke-linejoin: miter"/>
   </g>
   <g id="patch_22">
    <path d="M 596.25 282.76 
L 606.486364 282.76 
L 606.486364 235.634754 
L 596.25 235.634754 
z
" clip-path="url(#p4d22156654)" style="fill: #ea580c; opacity: 0.5; stroke: #ffffff; stroke-width: 0.5; stroke-linejoin: miter"/>
   </g>
   <g id="patch_23">
    <path d="M 606.486364 282.76 
L 616.722727 282.76 
L 616.722727 215.43822 
L 606.486364 215.43822 
z
" clip-path="url(#p4d22156654)" style="fill: #ea580c; opacity: 0.5; stroke: #ffffff; stroke-width: 0.5; stroke-linejoin: miter"/>
   </g>
   <g id="patch_24">
    <path d="M 616.722727 282.76 
L 626.959091 282.76 
L 626.959091 215.43822 
L 616.722727 215.43822 
z
" clip-path="url(#p4d22156654)" style="fill: #ea580c; opacity: 0.5; stroke: #ffffff; stroke-width: 0.5; stroke-linejoin: miter"/>
   </g>
   <g id="patch_25">
    <path d="M 626.959091 282.76 
L 637.195455 282.76 
L 637.195455 208.706042 
L 626.959091 208.706042 
z
" clip-path="url(#p4d22156654)" style="fill: #ea580c; opacity: 0.5; stroke: #ffffff; stroke-width: 0.5; stroke-linejoin: miter"/>
   </g>
   <g id="patch_26">
    <path d="M 637.195455 282.76 
L 647.431818 282.76 
L 647.431818 224.414457 
L 637.195455 224.414457 
z
" clip-path="url(#p4d22156654)" style="fill: #ea580c; opacity: 0.5; stroke: #ffffff; stroke-width: 0.5; stroke-linejoin: miter"/>
   </g>
   <g id="patch_27">
    <path d="M 647.431818 282.76 
L 657.668182 282.76 
L 657.668182 217.682279 
L 647.431818 217.682279 
z
" clip-path="url(#p4d22156654)" style="fill: #ea580c; opacity: 0.5; stroke: #ffffff; stroke-width: 0.5; stroke-linejoin: miter"/>
   </g>
   <g id="patch_28">
    <path d="M 657.668182 282.76 
L 667.904545 282.76 
L 667.904545 208.706042 
L 657.668182 208.706042 
z
" clip-path="url(#p4d22156654)" style="fill: #ea580c; opacity: 0.5; stroke: #ffffff; stroke-width: 0.5; stroke-linejoin: miter"/>
   </g>
   <g id="patch_29">
    <path d="M 667.904545 282.76 
L 678.140909 282.76 
L 678.140909 228.902576 
L 667.904545 228.902576 
z
" clip-path="url(#p4d22156654)" style="fill: #ea580c; opacity: 0.5; stroke: #ffffff; stroke-width: 0.5; stroke-linejoin: miter"/>
   </g>
   <g id="patch_30">
    <path d="M 678.140909 282.76 
L 688.377273 282.76 
L 688.377273 210.950101 
L 678.140909 210.950101 
z
" clip-path="url(#p4d22156654)" style="fill: #ea580c; opacity: 0.5; stroke: #ffffff; stroke-width: 0.5; stroke-linejoin: miter"/>
   </g>
   <g id="patch_31">
    <path d="M 688.377273 282.76 
L 698.613636 282.76 
L 698.613636 235.634754 
L 688.377273 235.634754 
z
" clip-path="url(#p4d22156654)" style="fill: #ea580c; opacity: 0.5; stroke: #ffffff; stroke-width: 0.5; stroke-linejoin: miter"/>
   </g>
   <g id="patch_32">
    <path d="M 698.613636 282.76 
L 708.85 282.76 
L 708.85 222.170398 
L 698.613636 222.170398 
z
" clip-path="url(#p4d22156654)" style="fill: #ea580c; opacity: 0.5; stroke: #ffffff; stroke-width: 0.5; stroke-linejoin: miter"/>
   </g>
   <g id="patch_33">
    <path d="M 708.85 282.76 
L 719.086364 282.76 
L 719.086364 222.170398 
L 708.85 222.170398 
z
" clip-path="url(#p4d22156654)" style="fill: #ea580c; opacity: 0.5; stroke: #ffffff; stroke-width: 0.5; stroke-linejoin: miter"/>
   </g>
   <g id="patch_34">
    <path d="M 719.086364 282.76 
L 729.322727 282.76 
L 729.322727 253.587229 
L 719.086364 253.587229 
z
" clip-path="url(#p4d22156654)" style="fill: #ea580c; opacity: 0.5; stroke: #ffffff; stroke-width: 0.5; stroke-linejoin: miter"/>
   </g>
   <g id="patch_35">
    <path d="M 729.322727 282.76 
L 739.559091 282.76 
L 739.559091 260.319407 
L 729.322727 260.319407 
z
" clip-path="url(#p4d22156654)" style="fill: #ea580c; opacity: 0.5; stroke: #ffffff; stroke-width: 0.5; stroke-linejoin: miter"/>
   </g>
   <g id="patch_36">
    <path d="M 739.559091 282.76 
L 749.795455 282.76 
L 749.795455 269.295644 
L 739.559091 269.295644 
z
" clip-path="url(#p4d22156654)" style="fill: #ea580c; opacity: 0.5; stroke: #ffffff; stroke-width: 0.5; stroke-linejoin: miter"/>
   </g>
   <g id="patch_37">
    <path d="M 749.795455 282.76 
L 760.031818 282.76 
L 760.031818 255.831288 
L 749.795455 255.831288 
z
" clip-path="url(#p4d22156654)" style="fill: #ea580c; opacity: 0.5; stroke: #ffffff; stroke-width: 0.5; stroke-linejoin: miter"/>
   </g>
   <g id="patch_38">
    <path d="M 760.031818 282.76 
L 770.268182 282.76 
L 770.268182 267.051585 
L 760.031818 267.051585 
z
" clip-path="url(#p4d22156654)" style="fill: #ea580c; opacity: 0.5; stroke: #ffffff; stroke-width: 0.5; stroke-linejoin: miter"/>
   </g>
   <g id="patch_39">
    <path d="M 770.268182 282.76 
L 780.504545 282.76 
L 780.504545 264.807525 
L 770.268182 264.807525 
z
" clip-path="url(#p4d22156654)" style="fill: #ea580c; opacity: 0.5; stroke: #ffffff; stroke-width: 0.5; stroke-linejoin: miter"/>
   </g>
   <g id="patch_40">
    <path d="M 780.504545 282.76 
L 790.740909 282.76 
L 790.740909 267.051585 
L 780.504545 267.051585 
z
" clip-path="url(#p4d22156654)" style="fill: #ea580c; opacity: 0.5; stroke: #ffffff; stroke-width: 0.5; stroke-linejoin: miter"/>
   </g>
   <g id="patch_41">
    <path d="M 790.740909 282.76 
L 800.977273 282.76 
L 800.977273 280.515941 
L 790.740909 280.515941 
z
" clip-path="url(#p4d22156654)" style="fill: #ea580c; opacity: 0.5; stroke: #ffffff; stroke-width: 0.5; stroke-linejoin: miter"/>
   </g>
   <g id="patch_42">
    <path d="M 800.977273 282.76 
L 811.213636 282.76 
L 811.213636 269.295644 
L 800.977273 269.295644 
z
" clip-path="url(#p4d22156654)" style="fill: #ea580c; opacity: 0.5; stroke: #ffffff; stroke-width: 0.5; stroke-linejoin: miter"/>
   </g>
   <g id="patch_43">
    <path d="M 811.213636 282.76 
L 821.45 282.76 
L 821.45 280.515941 
L 811.213636 280.515941 
z
" clip-path="url(#p4d22156654)" style="fill: #ea580c; opacity: 0.5; stroke: #ffffff; stroke-width: 0.5; stroke-linejoin: miter"/>
   </g>
   <g id="patch_44">
    <path d="M 821.45 282.76 
L 831.686364 282.76 
L 831.686364 280.515941 
L 821.45 280.515941 
z
" clip-path="url(#p4d22156654)" style="fill: #ea580c; opacity: 0.5; stroke: #ffffff; stroke-width: 0.5; stroke-linejoin: miter"/>
   </g>
   <g id="patch_45">
    <path d="M 485.76191 282.76 
L 489.180332 282.76 
L 489.180332 255.880924 
L 485.76191 255.880924 
z
" clip-path="url(#p4d22156654)" style="fill: #2563eb; opacity: 0.6; stroke: #ffffff; stroke-width: 0.5; stroke-linejoin: miter"/>
   </g>
   <g id="patch_46">
    <path d="M 489.180332 282.76 
L 492.598754 282.76 
L 492.598754 276.040231 
L 489.180332 276.040231 
z
" clip-path="url(#p4d22156654)" style="fill: #2563eb; opacity: 0.6; stroke: #ffffff; stroke-width: 0.5; stroke-linejoin: miter"/>
   </g>
   <g id="patch_47">
    <path d="M 492.598754 282.76 
L 496.017177 282.76 
L 496.017177 282.76 
L 492.598754 282.76 
z
" clip-path="url(#p4d22156654)" style="fill: #2563eb; opacity: 0.6; stroke: #ffffff; stroke-width: 0.5; stroke-linejoin: miter"/>
   </g>
   <g id="patch_48">
    <path d="M 496.017177 282.76 
L 499.435599 282.76 
L 499.435599 255.880924 
L 496.017177 255.880924 
z
" clip-path="url(#p4d22156654)" style="fill: #2563eb; opacity: 0.6; stroke: #ffffff; stroke-width: 0.5; stroke-linejoin: miter"/>
   </g>
   <g id="patch_49">
    <path d="M 499.435599 282.76 
L 502.854021 282.76 
L 502.854021 255.880924 
L 499.435599 255.880924 
z
" clip-path="url(#p4d22156654)" style="fill: #2563eb; opacity: 0.6; stroke: #ffffff; stroke-width: 0.5; stroke-linejoin: miter"/>
   </g>
   <g id="patch_50">
    <path d="M 502.854021 282.76 
L 506.272443 282.76 
L 506.272443 262.600693 
L 502.854021 262.600693 
z
" clip-path="url(#p4d22156654)" style="fill: #2563eb; opacity: 0.6; stroke: #ffffff; stroke-width: 0.5; stroke-linejoin: miter"/>
   </g>
   <g id="patch_51">
    <path d="M 506.272443 282.76 
L 509.690865 282.76 
L 509.690865 249.161154 
L 506.272443 249.161154 
z
" clip-path="url(#p4d22156654)" style="fill: #2563eb; opacity: 0.6; stroke: #ffffff; stroke-width: 0.5; stroke-linejoin: miter"/>
   </g>
   <g id="patch_52">
    <path d="M 509.690865 282.76 
L 513.109287 282.76 
L 513.109287 202.122771 
L 509.690865 202.122771 
z
" clip-path="url(#p4d22156654)" style="fill: #2563eb; opacity: 0.6; stroke: #ffffff; stroke-width: 0.5; stroke-linejoin: miter"/>
   </g>
   <g id="patch_53">
    <path d="M 513.109287 282.76 
L 516.527709 282.76 
L 516.527709 208.84254 
L 513.109287 208.84254 
z
" clip-path="url(#p4d22156654)" style="fill: #2563eb; opacity: 0.6; stroke: #ffffff; stroke-width: 0.5; stroke-linejoin: miter"/>
   </g>
   <g id="patch_54">
    <path d="M 516.527709 282.76 
L 519.946131 282.76 
L 519.946131 208.84254 
L 516.527709 208.84254 
z
" clip-path="url(#p4d22156654)" style="fill: #2563eb; opacity: 0.6; stroke: #ffffff; stroke-width: 0.5; stroke-linejoin: miter"/>
   </g>
   <g id="patch_55">
    <path d="M 519.946131 282.76 
L 523.364554 282.76 
L 523.364554 141.644848 
L 519.946131 141.644848 
z
" clip-path="url(#p4d22156654)" style="fill: #2563eb; opacity: 0.6; stroke: #ffffff; stroke-width: 0.5; stroke-linejoin: miter"/>
   </g>
   <g id="patch_56">
    <path d="M 523.364554 282.76 
L 526.782976 282.76 
L 526.782976 155.084387 
L 523.364554 155.084387 
z
" clip-path="url(#p4d22156654)" style="fill: #2563eb; opacity: 0.6; stroke: #ffffff; stroke-width: 0.5; stroke-linejoin: miter"/>
   </g>
   <g id="patch_57">
    <path d="M 526.782976 282.76 
L 530.201398 282.76 
L 530.201398 141.644848 
L 526.782976 141.644848 
z
" clip-path="url(#p4d22156654)" style="fill: #2563eb; opacity: 0.6; stroke: #ffffff; stroke-width: 0.5; stroke-linejoin: miter"/>
   </g>
   <g id="patch_58">
    <path d="M 530.201398 282.76 
L 533.61982 282.76 
L 533.61982 81.166926 
L 530.201398 81.166926 
z
" clip-path="url(#p4d22156654)" style="fill: #2563eb; opacity: 0.6; stroke: #ffffff; stroke-width: 0.5; stroke-linejoin: miter"/>
   </g>
   <g id="patch_59">
    <path d="M 533.61982 282.76 
L 537.038242 282.76 
L 537.038242 81.166926 
L 533.61982 81.166926 
z
" clip-path="url(#p4d22156654)" style="fill: #2563eb; opacity: 0.6; stroke: #ffffff; stroke-width: 0.5; stroke-linejoin: miter"/>
   </g>
   <g id="patch_60">
    <path d="M 537.038242 282.76 
L 540.456664 282.76 
L 540.456664 61.007619 
L 537.038242 61.007619 
z
" clip-path="url(#p4d22156654)" style="fill: #2563eb; opacity: 0.6; stroke: #ffffff; stroke-width: 0.5; stroke-linejoin: miter"/>
   </g>
   <g id="patch_61">
    <path d="M 540.456664 282.76 
L 543.875086 282.76 
L 543.875086 108.046003 
L 540.456664 108.046003 
z
" clip-path="url(#p4d22156654)" style="fill: #2563eb; opacity: 0.6; stroke: #ffffff; stroke-width: 0.5; stroke-linejoin: miter"/>
   </g>
   <g id="patch_62">
    <path d="M 543.875086 282.76 
L 547.293508 282.76 
L 547.293508 87.886696 
L 543.875086 87.886696 
z
" clip-path="url(#p4d22156654)" style="fill: #2563eb; opacity: 0.6; stroke: #ffffff; stroke-width: 0.5; stroke-linejoin: miter"/>
   </g>
   <g id="patch_63">
    <path d="M 547.293508 282.76 
L 550.711931 282.76 
L 550.711931 61.007619 
L 547.293508 61.007619 
z
" clip-path="url(#p4d22156654)" style="fill: #2563eb; opacity: 0.6; stroke: #ffffff; stroke-width: 0.5; stroke-linejoin: miter"/>
   </g>
   <g id="patch_64">
    <path d="M 550.711931 282.76 
L 554.130353 282.76 
L 554.130353 121.485541 
L 550.711931 121.485541 
z
" clip-path="url(#p4d22156654)" style="fill: #2563eb; opacity: 0.6; stroke: #ffffff; stroke-width: 0.5; stroke-linejoin: miter"/>
   </g>
   <g id="patch_65">
    <path d="M 554.130353 282.76 
L 557.548775 282.76 
L 557.548775 67.727388 
L 554.130353 67.727388 
z
" clip-path="url(#p4d22156654)" style="fill: #2563eb; opacity: 0.6; stroke: #ffffff; stroke-width: 0.5; stroke-linejoin: miter"/>
   </g>
   <g id="patch_66">
    <path d="M 557.548775 282.76 
L 560.967197 282.76 
L 560.967197 141.644848 
L 557.548775 141.644848 
z
" clip-path="url(#p4d22156654)" style="fill: #2563eb; opacity: 0.6; stroke: #ffffff; stroke-width: 0.5; stroke-linejoin: miter"/>
   </g>
   <g id="patch_67">
    <path d="M 560.967197 282.76 
L 564.385619 282.76 
L 564.385619 101.326234 
L 560.967197 101.326234 
z
" clip-path="url(#p4d22156654)" style="fill: #2563eb; opacity: 0.6; stroke: #ffffff; stroke-width: 0.5; stroke-linejoin: miter"/>
   </g>
   <g id="patch_68">
    <path d="M 564.385619 282.76 
L 567.804041 282.76 
L 567.804041 101.326234 
L 564.385619 101.326234 
z
" clip-path="url(#p4d22156654)" style="fill: #2563eb; opacity: 0.6; stroke: #ffffff; stroke-width: 0.5; stroke-linejoin: miter"/>
   </g>
   <g id="patch_69">
    <path d="M 567.804041 282.76 
L 571.222463 282.76 
L 571.222463 195.403001 
L 567.804041 195.403001 
z
" clip-path="url(#p4d22156654)" style="fill: #2563eb; opacity: 0.6; stroke: #ffffff; stroke-width: 0.5; stroke-linejoin: miter"/>
   </g>
   <g id="patch_70">
    <path d="M 571.222463 282.76 
L 574.640885 282.76 
L 574.640885 215.562309 
L 571.222463 215.562309 
z
" clip-path="url(#p4d22156654)" style="fill: #2563eb; opacity: 0.6; stroke: #ffffff; stroke-width: 0.5; stroke-linejoin: miter"/>
   </g>
   <g id="patch_71">
    <path d="M 574.640885 282.76 
L 578.059308 282.76 
L 578.059308 242.441385 
L 574.640885 242.441385 
z
" clip-path="url(#p4d22156654)" style="fill: #2563eb; opacity: 0.6; stroke: #ffffff; stroke-width: 0.5; stroke-linejoin: miter"/>
   </g>
   <g id="patch_72">
    <path d="M 578.059308 282.76 
L 581.47773 282.76 
L 581.47773 202.122771 
L 578.059308 202.122771 
z
" clip-path="url(#p4d22156654)" style="fill: #2563eb; opacity: 0.6; stroke: #ffffff; stroke-width: 0.5; stroke-linejoin: miter"/>
   </g>
   <g id="patch_73">
    <path d="M 581.47773 282.76 
L 584.896152 282.76 
L 584.896152 235.721616 
L 581.47773 235.721616 
z
" clip-path="url(#p4d22156654)" style="fill: #2563eb; opacity: 0.6; stroke: #ffffff; stroke-width: 0.5; stroke-linejoin: miter"/>
   </g>
   <g id="patch_74">
    <path d="M 584.896152 282.76 
L 588.314574 282.76 
L 588.314574 229.001847 
L 584.896152 229.001847 
z
" clip-path="url(#p4d22156654)" style="fill: #2563eb; opacity: 0.6; stroke: #ffffff; stroke-width: 0.5; stroke-linejoin: miter"/>
   </g>
   <g id="patch_75">
    <path d="M 588.314574 282.76 
L 591.732996 282.76 
L 591.732996 235.721616 
L 588.314574 235.721616 
z
" clip-path="url(#p4d22156654)" style="fill: #2563eb; opacity: 0.6; stroke: #ffffff; stroke-width: 0.5; stroke-linejoin: miter"/>
   </g>
   <g id="patch_76">
    <path d="M 591.732996 282.76 
L 595.151418 282.76 
L 595.151418 276.040231 
L 591.732996 276.040231 
z
" clip-path="url(#p4d22156654)" style="fill: #2563eb; opacity: 0.6; stroke: #ffffff; stroke-width: 0.5; stroke-linejoin: miter"/>
   </g>
   <g id="patch_77">
    <path d="M 595.151418 282.76 
L 598.56984 282.76 
L 598.56984 242.441385 
L 595.151418 242.441385 
z
" clip-path="url(#p4d22156654)" style="fill: #2563eb; opacity: 0.6; stroke: #ffffff; stroke-width: 0.5; stroke-linejoin: miter"/>
   </g>
   <g id="patch_78">
    <path d="M 598.56984 282.76 
L 601.988262 282.76 
L 601.988262 276.040231 
L 598.56984 276.040231 
z
" clip-path="url(#p4d22156654)" style="fill: #2563eb; opacity: 0.6; stroke: #ffffff; stroke-width: 0.5; stroke-linejoin: miter"/>
   </g>
   <g id="patch_79">
    <path d="M 601.988262 282.76 
L 605.406685 282.76 
L 605.406685 276.040231 
L 601.988262 276.040231 
z
" clip-path="url(#p4d22156654)" style="fill: #2563eb; opacity: 0.6; stroke: #ffffff; stroke-width: 0.5; stroke-linejoin: miter"/>
   </g>
   <g id="matplotlib.axis_1">
    <g id="xtick_1">
     <g id="line2d_1">
      <defs>
       <path id="m40d599f742" d="M 0 0 
L 0 3.5 
" style="stroke: #000000; stroke-width: 0.8"/>
      </defs>
      <g>
       <use xlink:href="#m40d599f742" x="491.271713" y="282.76" style="stroke: #000000; stroke-width: 0.8"/>
      </g>
     </g>
     <g id="text_7">
      <!-- −2.5 -->
      <g transform="translate(479.130307 297.358437) scale(0.1 -0.1)">
       <defs>
        <path id="DejaVuSans-2212" d="M 678 2272 
L 4684 2272 
L 4684 1741 
L 678 1741 
L 678 2272 
z
" transform="scale(0.015625)"/>
        <path id="DejaVuSans-32" d="M 1228 531 
L 3431 531 
L 3431 0 
L 469 0 
L 469 531 
Q 828 903 1448 1529 
Q 2069 2156 2228 2338 
Q 2531 2678 2651 2914 
Q 2772 3150 2772 3378 
Q 2772 3750 2511 3984 
Q 2250 4219 1831 4219 
Q 1534 4219 1204 4116 
Q 875 4013 500 3803 
L 500 4441 
Q 881 4594 1212 4672 
Q 1544 4750 1819 4750 
Q 2544 4750 2975 4387 
Q 3406 4025 3406 3419 
Q 3406 3131 3298 2873 
Q 3191 2616 2906 2266 
Q 2828 2175 2409 1742 
Q 1991 1309 1228 531 
z
" transform="scale(0.015625)"/>
        <path id="DejaVuSans-2e" d="M 684 794 
L 1344 794 
L 1344 0 
L 684 0 
L 684 794 
z
" transform="scale(0.015625)"/>
        <path id="DejaVuSans-35" d="M 691 4666 
L 3169 4666 
L 3169 4134 
L 1269 4134 
L 1269 2991 
Q 1406 3038 1543 3061 
Q 1681 3084 1819 3084 
Q 2600 3084 3056 2656 
Q 3513 2228 3513 1497 
Q 3513 744 3044 326 
Q 2575 -91 1722 -91 
Q 1428 -91 1123 -41 
Q 819 9 494 109 
L 494 744 
Q 775 591 1075 516 
Q 1375 441 1709 441 
Q 2250 441 2565 725 
Q 2881 1009 2881 1497 
Q 2881 1984 2565 2268 
Q 2250 2553 1709 2553 
Q 1456 2553 1204 2497 
Q 953 2441 691 2322 
L 691 4666 
z
" transform="scale(0.015625)"/>
       </defs>
       <use xlink:href="#DejaVuSans-2212"/>
       <use xlink:href="#DejaVuSans-32" x="83.789062"/>
       <use xlink:href="#DejaVuSans-2e" x="147.412109"/>
       <use xlink:href="#DejaVuSans-35" x="179.199219"/>
      </g>
     </g>
    </g>
    <g id="xtick_2">
     <g id="line2d_2">
      <g>
       <use xlink:href="#m40d599f742" x="545.864986" y="282.76" style="stroke: #000000; stroke-width: 0.8"/>
      </g>
     </g>
     <g id="text_8">
      <!-- 0.0 -->
      <g transform="translate(537.913423 297.358437) scale(0.1 -0.1)">
       <defs>
        <path id="DejaVuSans-30" d="M 2034 4250 
Q 1547 4250 1301 3770 
Q 1056 3291 1056 2328 
Q 1056 1369 1301 889 
Q 1547 409 2034 409 
Q 2525 409 2770 889 
Q 3016 1369 3016 2328 
Q 3016 3291 2770 3770 
Q 2525 4250 2034 4250 
z
M 2034 4750 
Q 2819 4750 3233 4129 
Q 3647 3509 3647 2328 
Q 3647 1150 3233 529 
Q 2819 -91 2034 -91 
Q 1250 -91 836 529 
Q 422 1150 422 2328 
Q 422 3509 836 4129 
Q 1250 4750 2034 4750 
z
" transform="scale(0.015625)"/>
       </defs>
       <use xlink:href="#DejaVuSans-30"/>
       <use xlink:href="#DejaVuSans-2e" x="63.623047"/>
       <use xlink:href="#DejaVuSans-30" x="95.410156"/>
      </g>
     </g>
    </g>
    <g id="xtick_3">
     <g id="line2d_3">
      <g>
       <use xlink:href="#m40d599f742" x="600.458258" y="282.76" style="stroke: #000000; stroke-width: 0.8"/>
      </g>
     </g>
     <g id="text_9">
      <!-- 2.5 -->
      <g transform="translate(592.506696 297.358437) scale(0.1 -0.1)">
       <use xlink:href="#DejaVuSans-32"/>
       <use xlink:href="#DejaVuSans-2e" x="63.623047"/>
       <use xlink:href="#DejaVuSans-35" x="95.410156"/>
      </g>
     </g>
    </g>
    <g id="xtick_4">
     <g id="line2d_4">
      <g>
       <use xlink:href="#m40d599f742" x="655.05153" y="282.76" style="stroke: #000000; stroke-width: 0.8"/>
      </g>
     </g>
     <g id="text_10">
      <!-- 5.0 -->
      <g transform="translate(647.099968 297.358437) scale(0.1 -0.1)">
       <use xlink:href="#DejaVuSans-35"/>
       <use xlink:href="#DejaVuSans-2e" x="63.623047"/>
       <use xlink:href="#DejaVuSans-30" x="95.410156"/>
      </g>
     </g>
    </g>
    <g id="xtick_5">
     <g id="line2d_5">
      <g>
       <use xlink:href="#m40d599f742" x="709.644803" y="282.76" style="stroke: #000000; stroke-width: 0.8"/>
      </g>
     </g>
     <g id="text_11">
      <!-- 7.5 -->
      <g transform="translate(701.69324 297.358437) scale(0.1 -0.1)">
       <defs>
        <path id="DejaVuSans-37" d="M 525 4666 
L 3525 4666 
L 3525 4397 
L 1831 0 
L 1172 0 
L 2766 4134 
L 525 4134 
L 525 4666 
z
" transform="scale(0.015625)"/>
       </defs>
       <use xlink:href="#DejaVuSans-37"/>
       <use xlink:href="#DejaVuSans-2e" x="63.623047"/>
       <use xlink:href="#DejaVuSans-35" x="95.410156"/>
      </g>
     </g>
    </g>
    <g id="xtick_6">
     <g id="line2d_6">
      <g>
       <use xlink:href="#m40d599f742" x="764.238075" y="282.76" style="stroke: #000000; stroke-width: 0.8"/>
      </g>
     </g>
     <g id="text_12">
      <!-- 10.0 -->
      <g transform="translate(753.105263 297.358437) scale(0.1 -0.1)">
       <defs>
        <path id="DejaVuSans-31" d="M 794 531 
L 1825 531 
L 1825 4091 
L 703 3866 
L 703 4441 
L 1819 4666 
L 2450 4666 
L 2450 531 
L 3481 531 
L 3481 0 
L 794 0 
L 794 531 
z
" transform="scale(0.015625)"/>
       </defs>
       <use xlink:href="#DejaVuSans-31"/>
       <use xlink:href="#DejaVuSans-30" x="63.623047"/>
       <use xlink:href="#DejaVuSans-2e" x="127.246094"/>
       <use xlink:href="#DejaVuSans-30" x="159.033203"/>
      </g>
     </g>
    </g>
    <g id="xtick_7">
     <g id="line2d_7">
      <g>
       <use xlink:href="#m40d599f742" x="818.831348" y="282.76" style="stroke: #000000; stroke-width: 0.8"/>
      </g>
     </g>
     <g id="text_13">
      <!-- 12.5 -->
      <g transform="translate(807.698535 297.358437) scale(0.1 -0.1)">
       <use xlink:href="#DejaVuSans-31"/>
       <use xlink:href="#DejaVuSans-32" x="63.623047"/>
       <use xlink:href="#DejaVuSans-2e" x="127.246094"/>
       <use xlink:href="#DejaVuSans-35" x="159.033203"/>
      </g>
     </g>
    </g>
    <g id="text_14">
     <!-- Activation value -->
     <g transform="translate(612.271094 311.036562) scale(0.1 -0.1)">
      <defs>
       <path id="DejaVuSans-41" d="M 2188 4044 
L 1331 1722 
L 3047 1722 
L 2188 4044 
z
M 1831 4666 
L 2547 4666 
L 4325 0 
L 3669 0 
L 3244 1197 
L 1141 1197 
L 716 0 
L 50 0 
L 1831 4666 
z
" transform="scale(0.015625)"/>
       <path id="DejaVuSans-63" d="M 3122 3366 
L 3122 2828 
Q 2878 2963 2633 3030 
Q 2388 3097 2138 3097 
Q 1578 3097 1268 2742 
Q 959 2388 959 1747 
Q 959 1106 1268 751 
Q 1578 397 2138 397 
Q 2388 397 2633 464 
Q 2878 531 3122 666 
L 3122 134 
Q 2881 22 2623 -34 
Q 2366 -91 2075 -91 
Q 1284 -91 818 406 
Q 353 903 353 1747 
Q 353 2603 823 3093 
Q 1294 3584 2113 3584 
Q 2378 3584 2631 3529 
Q 2884 3475 3122 3366 
z
" transform="scale(0.015625)"/>
       <path id="DejaVuSans-74" d="M 1172 4494 
L 1172 3500 
L 2356 3500 
L 2356 3053 
L 1172 3053 
L 1172 1153 
Q 1172 725 1289 603 
Q 1406 481 1766 481 
L 2356 481 
L 2356 0 
L 1766 0 
Q 1100 0 847 248 
Q 594 497 594 1153 
L 594 3053 
L 172 3053 
L 172 3500 
L 594 3500 
L 594 4494 
L 1172 4494 
z
" transform="scale(0.015625)"/>
       <path id="DejaVuSans-69" d="M 603 3500 
L 1178 3500 
L 1178 0 
L 603 0 
L 603 3500 
z
M 603 4863 
L 1178 4863 
L 1178 4134 
L 603 4134 
L 603 4863 
z
" transform="scale(0.015625)"/>
       <path id="DejaVuSans-76" d="M 191 3500 
L 800 3500 
L 1894 563 
L 2988 3500 
L 3597 3500 
L 2284 0 
L 1503 0 
L 191 3500 
z
" transform="scale(0.015625)"/>
       <path id="DejaVuSans-61" d="M 2194 1759 
Q 1497 1759 1228 1600 
Q 959 1441 959 1056 
Q 959 750 1161 570 
Q 1363 391 1709 391 
Q 2188 391 2477 730 
Q 2766 1069 2766 1631 
L 2766 1759 
L 2194 1759 
z
M 3341 1997 
L 3341 0 
L 2766 0 
L 2766 531 
Q 2569 213 2275 61 
Q 1981 -91 1556 -91 
Q 1019 -91 701 211 
Q 384 513 384 1019 
Q 384 1609 779 1909 
Q 1175 2209 1959 2209 
L 2766 2209 
L 2766 2266 
Q 2766 2663 2505 2880 
Q 2244 3097 1772 3097 
Q 1472 3097 1187 3025 
Q 903 2953 641 2809 
L 641 3341 
Q 956 3463 1253 3523 
Q 1550 3584 1831 3584 
Q 2591 3584 2966 3190 
Q 3341 2797 3341 1997 
z
" transform="scale(0.015625)"/>
       <path id="DejaVuSans-6f" d="M 1959 3097 
Q 1497 3097 1228 2736 
Q 959 2375 959 1747 
Q 959 1119 1226 758 
Q 1494 397 1959 397 
Q 2419 397 2687 759 
Q 2956 1122 2956 1747 
Q 2956 2369 2687 2733 
Q 2419 3097 1959 3097 
z
M 1959 3584 
Q 2709 3584 3137 3096 
Q 3566 2609 3566 1747 
Q 3566 888 3137 398 
Q 2709 -91 1959 -91 
Q 1206 -91 779 398 
Q 353 888 353 1747 
Q 353 2609 779 3096 
Q 1206 3584 1959 3584 
z
" transform="scale(0.015625)"/>
       <path id="DejaVuSans-6e" d="M 3513 2113 
L 3513 0 
L 2938 0 
L 2938 2094 
Q 2938 2591 2744 2837 
Q 2550 3084 2163 3084 
Q 1697 3084 1428 2787 
Q 1159 2491 1159 1978 
L 1159 0 
L 581 0 
L 581 3500 
L 1159 3500 
L 1159 2956 
Q 1366 3272 1645 3428 
Q 1925 3584 2291 3584 
Q 2894 3584 3203 3211 
Q 3513 2838 3513 2113 
z
" transform="scale(0.015625)"/>
       <path id="DejaVuSans-20" transform="scale(0.015625)"/>
       <path id="DejaVuSans-6c" d="M 603 4863 
L 1178 4863 
L 1178 0 
L 603 0 
L 603 4863 
z
" transform="scale(0.015625)"/>
       <path id="DejaVuSans-75" d="M 544 1381 
L 544 3500 
L 1119 3500 
L 1119 1403 
Q 1119 906 1312 657 
Q 1506 409 1894 409 
Q 2359 409 2629 706 
Q 2900 1003 2900 1516 
L 2900 3500 
L 3475 3500 
L 3475 0 
L 2900 0 
L 2900 538 
Q 2691 219 2414 64 
Q 2138 -91 1772 -91 
Q 1169 -91 856 284 
Q 544 659 544 1381 
z
M 1991 3584 
L 1991 3584 
z
" transform="scale(0.015625)"/>
       <path id="DejaVuSans-65" d="M 3597 1894 
L 3597 1613 
L 953 1613 
Q 991 1019 1311 708 
Q 1631 397 2203 397 
Q 2534 397 2845 478 
Q 3156 559 3463 722 
L 3463 178 
Q 3153 47 2828 -22 
Q 2503 -91 2169 -91 
Q 1331 -91 842 396 
Q 353 884 353 1716 
Q 353 2575 817 3079 
Q 1281 3584 2069 3584 
Q 2775 3584 3186 3129 
Q 3597 2675 3597 1894 
z
M 3022 2063 
Q 3016 2534 2758 2815 
Q 2500 3097 2075 3097 
Q 1594 3097 1305 2825 
Q 1016 2553 972 2059 
L 3022 2063 
z
" transform="scale(0.015625)"/>
      </defs>
      <use xlink:href="#DejaVuSans-41"/>
      <use xlink:href="#DejaVuSans-63" x="66.658203"/>
      <use xlink:href="#DejaVuSans-74" x="121.638672"/>
      <use xlink:href="#DejaVuSans-69" x="160.847656"/>
      <use xlink:href="#DejaVuSans-76" x="188.630859"/>
      <use xlink:href="#DejaVuSans-61" x="247.810547"/>
      <use xlink:href="#DejaVuSans-74" x="309.089844"/>
      <use xlink:href="#DejaVuSans-69" x="348.298828"/>
      <use xlink:href="#DejaVuSans-6f" x="376.082031"/>
      <use xlink:href="#DejaVuSans-6e" x="437.263672"/>
      <use xlink:href="#DejaVuSans-20" x="500.642578"/>
      <use xlink:href="#DejaVuSans-76" x="532.429688"/>
      <use xlink:href="#DejaVuSans-61" x="591.609375"/>
      <use xlink:href="#DejaVuSans-6c" x="652.888672"/>
      <use xlink:href="#DejaVuSans-75" x="680.671875"/>
      <use xlink:href="#DejaVuSans-65" x="744.050781"/>
     </g>
    </g>
   </g>
   <g id="matplotlib.axis_2">
    <g id="ytick_1">
     <g id="line2d_8">
      <defs>
       <path id="ma2abcfe37d" d="M 0 0 
L -3.5 0 
" style="stroke: #000000; stroke-width: 0.8"/>
      </defs>
      <g>
       <use xlink:href="#ma2abcfe37d" x="455.5" y="282.76" style="stroke: #000000; stroke-width: 0.8"/>
      </g>
     </g>
     <g id="text_15">
      <!-- 0.00 -->
      <g transform="translate(426.234375 286.559219) scale(0.1 -0.1)">
       <use xlink:href="#DejaVuSans-30"/>
       <use xlink:href="#DejaVuSans-2e" x="63.623047"/>
       <use xlink:href="#DejaVuSans-30" x="95.410156"/>
       <use xlink:href="#DejaVuSans-30" x="159.033203"/>
      </g>
     </g>
    </g>
    <g id="ytick_2">
     <g id="line2d_9">
      <g>
       <use xlink:href="#ma2abcfe37d" x="455.5" y="256.462108" style="stroke: #000000; stroke-width: 0.8"/>
      </g>
     </g>
     <g id="text_16">
      <!-- 0.05 -->
      <g transform="translate(426.234375 260.261327) scale(0.1 -0.1)">
       <use xlink:href="#DejaVuSans-30"/>
       <use xlink:href="#DejaVuSans-2e" x="63.623047"/>
       <use xlink:href="#DejaVuSans-30" x="95.410156"/>
       <use xlink:href="#DejaVuSans-35" x="159.033203"/>
      </g>
     </g>
    </g>
    <g id="ytick_3">
     <g id="line2d_10">
      <g>
       <use xlink:href="#ma2abcfe37d" x="455.5" y="230.164217" style="stroke: #000000; stroke-width: 0.8"/>
      </g>
     </g>
     <g id="text_17">
      <!-- 0.10 -->
      <g transform="translate(426.234375 233.963435) scale(0.1 -0.1)">
       <use xlink:href="#DejaVuSans-30"/>
       <use xlink:href="#DejaVuSans-2e" x="63.623047"/>
       <use xlink:href="#DejaVuSans-31" x="95.410156"/>
       <use xlink:href="#DejaVuSans-30" x="159.033203"/>
      </g>
     </g>
    </g>
    <g id="ytick_4">
     <g id="line2d_11">
      <g>
       <use xlink:href="#ma2abcfe37d" x="455.5" y="203.866325" style="stroke: #000000; stroke-width: 0.8"/>
      </g>
     </g>
     <g id="text_18">
      <!-- 0.15 -->
      <g transform="translate(426.234375 207.665544) scale(0.1 -0.1)">
       <use xlink:href="#DejaVuSans-30"/>
       <use xlink:href="#DejaVuSans-2e" x="63.623047"/>
       <use xlink:href="#DejaVuSans-31" x="95.410156"/>
       <use xlink:href="#DejaVuSans-35" x="159.033203"/>
      </g>
     </g>
    </g>
    <g id="ytick_5">
     <g id="line2d_12">
      <g>
       <use xlink:href="#ma2abcfe37d" x="455.5" y="177.568433" style="stroke: #000000; stroke-width: 0.8"/>
      </g>
     </g>
     <g id="text_19">
      <!-- 0.20 -->
      <g transform="translate(426.234375 181.367652) scale(0.1 -0.1)">
       <use xlink:href="#DejaVuSans-30"/>
       <use xlink:href="#DejaVuSans-2e" x="63.623047"/>
       <use xlink:href="#DejaVuSans-32" x="95.410156"/>
       <use xlink:href="#DejaVuSans-30" x="159.033203"/>
      </g>
     </g>
    </g>
    <g id="ytick_6">
     <g id="line2d_13">
      <g>
       <use xlink:href="#ma2abcfe37d" x="455.5" y="151.270542" style="stroke: #000000; stroke-width: 0.8"/>
      </g>
     </g>
     <g id="text_20">
      <!-- 0.25 -->
      <g transform="translate(426.234375 155.06976) scale(0.1 -0.1)">
       <use xlink:href="#DejaVuSans-30"/>
       <use xlink:href="#DejaVuSans-2e" x="63.623047"/>
       <use xlink:href="#DejaVuSans-32" x="95.410156"/>
       <use xlink:href="#DejaVuSans-35" x="159.033203"/>
      </g>
     </g>
    </g>
    <g id="ytick_7">
     <g id="line2d_14">
      <g>
       <use xlink:href="#ma2abcfe37d" x="455.5" y="124.97265" style="stroke: #000000; stroke-width: 0.8"/>
      </g>
     </g>
     <g id="text_21">
      <!-- 0.30 -->
      <g transform="translate(426.234375 128.771869) scale(0.1 -0.1)">
       <defs>
        <path id="DejaVuSans-33" d="M 2597 2516 
Q 3050 2419 3304 2112 
Q 3559 1806 3559 1356 
Q 3559 666 3084 287 
Q 2609 -91 1734 -91 
Q 1441 -91 1130 -33 
Q 819 25 488 141 
L 488 750 
Q 750 597 1062 519 
Q 1375 441 1716 441 
Q 2309 441 2620 675 
Q 2931 909 2931 1356 
Q 2931 1769 2642 2001 
Q 2353 2234 1838 2234 
L 1294 2234 
L 1294 2753 
L 1863 2753 
Q 2328 2753 2575 2939 
Q 2822 3125 2822 3475 
Q 2822 3834 2567 4026 
Q 2313 4219 1838 4219 
Q 1578 4219 1281 4162 
Q 984 4106 628 3988 
L 628 4550 
Q 988 4650 1302 4700 
Q 1616 4750 1894 4750 
Q 2613 4750 3031 4423 
Q 3450 4097 3450 3541 
Q 3450 3153 3228 2886 
Q 3006 2619 2597 2516 
z
" transform="scale(0.015625)"/>
       </defs>
       <use xlink:href="#DejaVuSans-30"/>
       <use xlink:href="#DejaVuSans-2e" x="63.623047"/>
       <use xlink:href="#DejaVuSans-33" x="95.410156"/>
       <use xlink:href="#DejaVuSans-30" x="159.033203"/>
      </g>
     </g>
    </g>
    <g id="ytick_8">
     <g id="line2d_15">
      <g>
       <use xlink:href="#ma2abcfe37d" x="455.5" y="98.674758" style="stroke: #000000; stroke-width: 0.8"/>
      </g>
     </g>
     <g id="text_22">
      <!-- 0.35 -->
      <g transform="translate(426.234375 102.473977) scale(0.1 -0.1)">
       <use xlink:href="#DejaVuSans-30"/>
       <use xlink:href="#DejaVuSans-2e" x="63.623047"/>
       <use xlink:href="#DejaVuSans-33" x="95.410156"/>
       <use xlink:href="#DejaVuSans-35" x="159.033203"/>
      </g>
     </g>
    </g>
    <g id="ytick_9">
     <g id="line2d_16">
      <g>
       <use xlink:href="#ma2abcfe37d" x="455.5" y="72.376867" style="stroke: #000000; stroke-width: 0.8"/>
      </g>
     </g>
     <g id="text_23">
      <!-- 0.40 -->
      <g transform="translate(426.234375 76.176085) scale(0.1 -0.1)">
       <defs>
        <path id="DejaVuSans-34" d="M 2419 4116 
L 825 1625 
L 2419 1625 
L 2419 4116 
z
M 2253 4666 
L 3047 4666 
L 3047 1625 
L 3713 1625 
L 3713 1100 
L 3047 1100 
L 3047 0 
L 2419 0 
L 2419 1100 
L 313 1100 
L 313 1709 
L 2253 4666 
z
" transform="scale(0.015625)"/>
       </defs>
       <use xlink:href="#DejaVuSans-30"/>
       <use xlink:href="#DejaVuSans-2e" x="63.623047"/>
       <use xlink:href="#DejaVuSans-34" x="95.410156"/>
       <use xlink:href="#DejaVuSans-30" x="159.033203"/>
      </g>
     </g>
    </g>
    <g id="text_24">
     <!-- Density -->
     <g transform="translate(420.154687 185.348594) rotate(-90) scale(0.1 -0.1)">
      <defs>
       <path id="DejaVuSans-44" d="M 1259 4147 
L 1259 519 
L 2022 519 
Q 2988 519 3436 956 
Q 3884 1394 3884 2338 
Q 3884 3275 3436 3711 
Q 2988 4147 2022 4147 
L 1259 4147 
z
M 628 4666 
L 1925 4666 
Q 3281 4666 3915 4102 
Q 4550 3538 4550 2338 
Q 4550 1131 3912 565 
Q 3275 0 1925 0 
L 628 0 
L 628 4666 
z
" transform="scale(0.015625)"/>
       <path id="DejaVuSans-73" d="M 2834 3397 
L 2834 2853 
Q 2591 2978 2328 3040 
Q 2066 3103 1784 3103 
Q 1356 3103 1142 2972 
Q 928 2841 928 2578 
Q 928 2378 1081 2264 
Q 1234 2150 1697 2047 
L 1894 2003 
Q 2506 1872 2764 1633 
Q 3022 1394 3022 966 
Q 3022 478 2636 193 
Q 2250 -91 1575 -91 
Q 1294 -91 989 -36 
Q 684 19 347 128 
L 347 722 
Q 666 556 975 473 
Q 1284 391 1588 391 
Q 1994 391 2212 530 
Q 2431 669 2431 922 
Q 2431 1156 2273 1281 
Q 2116 1406 1581 1522 
L 1381 1569 
Q 847 1681 609 1914 
Q 372 2147 372 2553 
Q 372 3047 722 3315 
Q 1072 3584 1716 3584 
Q 2034 3584 2315 3537 
Q 2597 3491 2834 3397 
z
" transform="scale(0.015625)"/>
       <path id="DejaVuSans-79" d="M 2059 -325 
Q 1816 -950 1584 -1140 
Q 1353 -1331 966 -1331 
L 506 -1331 
L 506 -850 
L 844 -850 
Q 1081 -850 1212 -737 
Q 1344 -625 1503 -206 
L 1606 56 
L 191 3500 
L 800 3500 
L 1894 763 
L 2988 3500 
L 3597 3500 
L 2059 -325 
z
" transform="scale(0.015625)"/>
      </defs>
      <use xlink:href="#DejaVuSans-44"/>
      <use xlink:href="#DejaVuSans-65" x="77.001953"/>
      <use xlink:href="#DejaVuSans-6e" x="138.525391"/>
      <use xlink:href="#DejaVuSans-73" x="201.904297"/>
      <use xlink:href="#DejaVuSans-69" x="254.003906"/>
      <use xlink:href="#DejaVuSans-74" x="281.787109"/>
      <use xlink:href="#DejaVuSans-79" x="320.996094"/>
     </g>
    </g>
   </g>
   <g id="line2d_17">
    <path d="M 545.864986 282.76 
L 545.864986 49.92 
" clip-path="url(#p4d22156654)" style="fill: none; stroke-dasharray: 5.55,2.4; stroke-dashoffset: 0; stroke: #2563eb; stroke-width: 1.5"/>
   </g>
   <g id="patch_80">
    <path d="M 455.5 282.76 
L 455.5 49.92 
" style="fill: none; stroke: #000000; stroke-width: 0.8; stroke-linejoin: miter; stroke-linecap: square"/>
   </g>
   <g id="patch_81">
    <path d="M 455.5 282.76 
L 849.6 282.76 
" style="fill: none; stroke: #000000; stroke-width: 0.8; stroke-linejoin: miter; stroke-linecap: square"/>
   </g>
   <g id="text_25">
    <g id="patch_82">
     <path d="M 463.382 66.831606 
L 571.972156 66.831606 
Q 573.672156 66.831606 573.672156 65.131606 
L 573.672156 56.9052 
Q 573.672156 55.2052 571.972156 55.2052 
L 463.382 55.2052 
Q 461.682 55.2052 461.682 56.9052 
L 461.682 65.131606 
Q 461.682 66.831606 463.382 66.831606 
z
" style="fill: #ffffff; stroke: #cbd5e1; stroke-linejoin: miter"/>
    </g>
    <!-- After BN: mean≈0, std≈1 -->
    <g style="fill: #2563eb" transform="translate(463.382 63.363872) scale(0.085 -0.085)">
     <defs>
      <path id="DejaVuSans-66" d="M 2375 4863 
L 2375 4384 
L 1825 4384 
Q 1516 4384 1395 4259 
Q 1275 4134 1275 3809 
L 1275 3500 
L 2222 3500 
L 2222 3053 
L 1275 3053 
L 1275 0 
L 697 0 
L 697 3053 
L 147 3053 
L 147 3500 
L 697 3500 
L 697 3744 
Q 697 4328 969 4595 
Q 1241 4863 1831 4863 
L 2375 4863 
z
" transform="scale(0.015625)"/>
      <path id="DejaVuSans-72" d="M 2631 2963 
Q 2534 3019 2420 3045 
Q 2306 3072 2169 3072 
Q 1681 3072 1420 2755 
Q 1159 2438 1159 1844 
L 1159 0 
L 581 0 
L 581 3500 
L 1159 3500 
L 1159 2956 
Q 1341 3275 1631 3429 
Q 1922 3584 2338 3584 
Q 2397 3584 2469 3576 
Q 2541 3569 2628 3553 
L 2631 2963 
z
" transform="scale(0.015625)"/>
      <path id="DejaVuSans-42" d="M 1259 2228 
L 1259 519 
L 2272 519 
Q 2781 519 3026 730 
Q 3272 941 3272 1375 
Q 3272 1813 3026 2020 
Q 2781 2228 2272 2228 
L 1259 2228 
z
M 1259 4147 
L 1259 2741 
L 2194 2741 
Q 2656 2741 2882 2914 
Q 3109 3088 3109 3444 
Q 3109 3797 2882 3972 
Q 2656 4147 2194 4147 
L 1259 4147 
z
M 628 4666 
L 2241 4666 
Q 2963 4666 3353 4366 
Q 3744 4066 3744 3513 
Q 3744 3084 3544 2831 
Q 3344 2578 2956 2516 
Q 3422 2416 3680 2098 
Q 3938 1781 3938 1306 
Q 3938 681 3513 340 
Q 3088 0 2303 0 
L 628 0 
L 628 4666 
z
" transform="scale(0.015625)"/>
      <path id="DejaVuSans-4e" d="M 628 4666 
L 1478 4666 
L 3547 763 
L 3547 4666 
L 4159 4666 
L 4159 0 
L 3309 0 
L 1241 3903 
L 1241 0 
L 628 0 
L 628 4666 
z
" transform="scale(0.015625)"/>
      <path id="DejaVuSans-3a" d="M 750 794 
L 1409 794 
L 1409 0 
L 750 0 
L 750 794 
z
M 750 3309 
L 1409 3309 
L 1409 2516 
L 750 2516 
L 750 3309 
z
" transform="scale(0.015625)"/>
      <path id="DejaVuSans-6d" d="M 3328 2828 
Q 3544 3216 3844 3400 
Q 4144 3584 4550 3584 
Q 5097 3584 5394 3201 
Q 5691 2819 5691 2113 
L 5691 0 
L 5113 0 
L 5113 2094 
Q 5113 2597 4934 2840 
Q 4756 3084 4391 3084 
Q 3944 3084 3684 2787 
Q 3425 2491 3425 1978 
L 3425 0 
L 2847 0 
L 2847 2094 
Q 2847 2600 2669 2842 
Q 2491 3084 2119 3084 
Q 1678 3084 1418 2786 
Q 1159 2488 1159 1978 
L 1159 0 
L 581 0 
L 581 3500 
L 1159 3500 
L 1159 2956 
Q 1356 3278 1631 3431 
Q 1906 3584 2284 3584 
Q 2666 3584 2933 3390 
Q 3200 3197 3328 2828 
z
" transform="scale(0.015625)"/>
      <path id="DejaVuSans-2248" d="M 4684 1947 
L 4684 1388 
Q 4356 1144 4076 1036 
Q 3797 928 3494 928 
Q 3150 928 2694 1113 
Q 2663 1125 2641 1134 
Q 2622 1141 2575 1159 
Q 2091 1350 1797 1350 
Q 1522 1350 1253 1231 
Q 984 1113 678 850 
L 678 1409 
Q 1006 1653 1286 1761 
Q 1566 1869 1869 1869 
Q 2213 1869 2672 1684 
Q 2706 1669 2722 1663 
Q 2741 1656 2788 1638 
Q 3272 1447 3566 1447 
Q 3834 1447 4098 1564 
Q 4363 1681 4684 1947 
z
M 4684 3163 
L 4684 2606 
Q 4356 2359 4076 2251 
Q 3797 2144 3494 2144 
Q 3150 2144 2694 2328 
Q 2663 2341 2641 2350 
Q 2622 2356 2575 2375 
Q 2091 2566 1797 2566 
Q 1522 2566 1253 2447 
Q 984 2328 678 2069 
L 678 2625 
Q 1006 2869 1286 2976 
Q 1566 3084 1869 3084 
Q 2213 3084 2672 2900 
Q 2703 2888 2719 2881 
Q 2741 2872 2788 2853 
Q 3272 2663 3566 2663 
Q 3834 2663 4098 2780 
Q 4363 2897 4684 3163 
z
" transform="scale(0.015625)"/>
      <path id="DejaVuSans-2c" d="M 750 794 
L 1409 794 
L 1409 256 
L 897 -744 
L 494 -744 
L 750 256 
L 750 794 
z
" transform="scale(0.015625)"/>
      <path id="DejaVuSans-64" d="M 2906 2969 
L 2906 4863 
L 3481 4863 
L 3481 0 
L 2906 0 
L 2906 525 
Q 2725 213 2448 61 
Q 2172 -91 1784 -91 
Q 1150 -91 751 415 
Q 353 922 353 1747 
Q 353 2572 751 3078 
Q 1150 3584 1784 3584 
Q 2172 3584 2448 3432 
Q 2725 3281 2906 2969 
z
M 947 1747 
Q 947 1113 1208 752 
Q 1469 391 1925 391 
Q 2381 391 2643 752 
Q 2906 1113 2906 1747 
Q 2906 2381 2643 2742 
Q 2381 3103 1925 3103 
Q 1469 3103 1208 2742 
Q 947 2381 947 1747 
z
" transform="scale(0.015625)"/>
     </defs>
     <use xlink:href="#DejaVuSans-41"/>
     <use xlink:href="#DejaVuSans-66" x="64.783203"/>
     <use xlink:href="#DejaVuSans-74" x="98.238281"/>
     <use xlink:href="#DejaVuSans-65" x="137.447266"/>
     <use xlink:href="#DejaVuSans-72" x="198.970703"/>
     <use xlink:href="#DejaVuSans-20" x="240.083984"/>
     <use xlink:href="#DejaVuSans-42" x="271.871094"/>
     <use xlink:href="#DejaVuSans-4e" x="340.474609"/>
     <use xlink:href="#DejaVuSans-3a" x="415.279297"/>
     <use xlink:href="#DejaVuSans-20" x="448.970703"/>
     <use xlink:href="#DejaVuSans-6d" x="480.757812"/>
     <use xlink:href="#DejaVuSans-65" x="578.169922"/>
     <use xlink:href="#DejaVuSans-61" x="639.693359"/>
     <use xlink:href="#DejaVuSans-6e" x="700.972656"/>
     <use xlink:href="#DejaVuSans-2248" x="764.351562"/>
     <use xlink:href="#DejaVuSans-30" x="848.140625"/>
     <use xlink:href="#DejaVuSans-2c" x="911.763672"/>
     <use xlink:href="#DejaVuSans-20" x="943.550781"/>
     <use xlink:href="#DejaVuSans-73" x="975.337891"/>
     <use xlink:href="#DejaVuSans-74" x="1027.4375"/>
     <use xlink:href="#DejaVuSans-64" x="1066.646484"/>
     <use xlink:href="#DejaVuSans-2248" x="1130.123047"/>
     <use xlink:href="#DejaVuSans-31" x="1213.912109"/>
    </g>
   </g>
   <g id="text_26">
    <!-- Activation Distribution -->
    <g style="fill: #0f172a" transform="translate(582.087266 43.92) scale(0.11 -0.11)">
     <defs>
      <path id="DejaVuSans-Bold-44" d="M 1791 3756 
L 1791 909 
L 2222 909 
Q 2959 909 3348 1275 
Q 3738 1641 3738 2338 
Q 3738 3031 3350 3393 
Q 2963 3756 2222 3756 
L 1791 3756 
z
M 588 4666 
L 1856 4666 
Q 2919 4666 3439 4514 
Q 3959 4363 4331 4000 
Q 4659 3684 4818 3271 
Q 4978 2859 4978 2338 
Q 4978 1809 4818 1395 
Q 4659 981 4331 666 
Q 3956 303 3431 151 
Q 2906 0 1856 0 
L 588 0 
L 588 4666 
z
" transform="scale(0.015625)"/>
      <path id="DejaVuSans-Bold-75" d="M 500 1363 
L 500 3500 
L 1625 3500 
L 1625 3150 
Q 1625 2866 1622 2436 
Q 1619 2006 1619 1863 
Q 1619 1441 1641 1255 
Q 1663 1069 1716 984 
Q 1784 875 1895 815 
Q 2006 756 2150 756 
Q 2500 756 2700 1025 
Q 2900 1294 2900 1772 
L 2900 3500 
L 4019 3500 
L 4019 0 
L 2900 0 
L 2900 506 
Q 2647 200 2364 54 
Q 2081 -91 1741 -91 
Q 1134 -91 817 281 
Q 500 653 500 1363 
z
" transform="scale(0.015625)"/>
     </defs>
     <use xlink:href="#DejaVuSans-Bold-41"/>
     <use xlink:href="#DejaVuSans-Bold-63" x="77.392578"/>
     <use xlink:href="#DejaVuSans-Bold-74" x="136.669922"/>
     <use xlink:href="#DejaVuSans-Bold-69" x="184.472656"/>
     <use xlink:href="#DejaVuSans-Bold-76" x="218.75"/>
     <use xlink:href="#DejaVuSans-Bold-61" x="283.935547"/>
     <use xlink:href="#DejaVuSans-Bold-74" x="351.416016"/>
     <use xlink:href="#DejaVuSans-Bold-69" x="399.21875"/>
     <use xlink:href="#DejaVuSans-Bold-6f" x="433.496094"/>
     <use xlink:href="#DejaVuSans-Bold-6e" x="502.197266"/>
     <use xlink:href="#DejaVuSans-Bold-20" x="573.388672"/>
     <use xlink:href="#DejaVuSans-Bold-44" x="608.203125"/>
     <use xlink:href="#DejaVuSans-Bold-69" x="691.210938"/>
     <use xlink:href="#DejaVuSans-Bold-73" x="725.488281"/>
     <use xlink:href="#DejaVuSans-Bold-74" x="785.009766"/>
     <use xlink:href="#DejaVuSans-Bold-72" x="832.8125"/>
     <use xlink:href="#DejaVuSans-Bold-69" x="882.128906"/>
     <use xlink:href="#DejaVuSans-Bold-62" x="916.40625"/>
     <use xlink:href="#DejaVuSans-Bold-75" x="987.988281"/>
     <use xlink:href="#DejaVuSans-Bold-74" x="1059.179688"/>
     <use xlink:href="#DejaVuSans-Bold-69" x="1106.982422"/>
     <use xlink:href="#DejaVuSans-Bold-6f" x="1141.259766"/>
     <use xlink:href="#DejaVuSans-Bold-6e" x="1209.960938"/>
    </g>
   </g>
   <g id="legend_1">
    <g id="patch_83">
     <path d="M 769.30875 83.540625 
L 843.3 83.540625 
Q 845.1 83.540625 845.1 81.740625 
L 845.1 56.22 
Q 845.1 54.42 843.3 54.42 
L 769.30875 54.42 
Q 767.50875 54.42 767.50875 56.22 
L 767.50875 81.740625 
Q 767.50875 83.540625 769.30875 83.540625 
z
" style="fill: #ffffff; opacity: 0.8; stroke: #cccccc; stroke-linejoin: miter"/>
    </g>
    <g id="patch_84">
     <path d="M 771.10875 64.858594 
L 789.10875 64.858594 
L 789.10875 58.558594 
L 771.10875 58.558594 
z
" style="fill: #ea580c; opacity: 0.5; stroke: #ffffff; stroke-width: 0.5; stroke-linejoin: miter"/>
    </g>
    <g id="text_27">
     <!-- Before BN -->
     <g transform="translate(796.30875 64.858594) scale(0.09 -0.09)">
      <use xlink:href="#DejaVuSans-42"/>
      <use xlink:href="#DejaVuSans-65" x="68.603516"/>
      <use xlink:href="#DejaVuSans-66" x="130.126953"/>
      <use xlink:href="#DejaVuSans-6f" x="165.332031"/>
      <use xlink:href="#DejaVuSans-72" x="226.513672"/>
      <use xlink:href="#DejaVuSans-65" x="265.376953"/>
      <use xlink:href="#DejaVuSans-20" x="326.900391"/>
      <use xlink:href="#DejaVuSans-42" x="358.6875"/>
      <use xlink:href="#DejaVuSans-4e" x="427.291016"/>
     </g>
    </g>
    <g id="patch_85">
     <path d="M 771.10875 78.068906 
L 789.10875 78.068906 
L 789.10875 71.768906 
L 771.10875 71.768906 
z
" style="fill: #2563eb; opacity: 0.6; stroke: #ffffff; stroke-width: 0.5; stroke-linejoin: miter"/>
    </g>
    <g id="text_28">
     <!-- After BN -->
     <g transform="translate(796.30875 78.068906) scale(0.09 -0.09)">
      <use xlink:href="#DejaVuSans-41"/>
      <use xlink:href="#DejaVuSans-66" x="64.783203"/>
      <use xlink:href="#DejaVuSans-74" x="98.238281"/>
      <use xlink:href="#DejaVuSans-65" x="137.447266"/>
      <use xlink:href="#DejaVuSans-72" x="198.970703"/>
      <use xlink:href="#DejaVuSans-20" x="240.083984"/>
      <use xlink:href="#DejaVuSans-42" x="271.871094"/>
      <use xlink:href="#DejaVuSans-4e" x="340.474609"/>
     </g>
    </g>
   </g>
  </g>
  <g id="text_29">
   <!-- Batch Normalization -->
   <g style="fill: #0f172a" transform="translate(353.884609 17.077969) scale(0.13 -0.13)">
    <use xlink:href="#DejaVuSans-Bold-42"/>
    <use xlink:href="#DejaVuSans-Bold-61" x="76.220703"/>
    <use xlink:href="#DejaVuSans-Bold-74" x="143.701172"/>
    <use xlink:href="#DejaVuSans-Bold-63" x="191.503906"/>
    <use xlink:href="#DejaVuSans-Bold-68" x="250.78125"/>
    <use xlink:href="#DejaVuSans-Bold-20" x="321.972656"/>
    <use xlink:href="#DejaVuSans-Bold-4e" x="356.787109"/>
    <use xlink:href="#DejaVuSans-Bold-6f" x="440.478516"/>
    <use xlink:href="#DejaVuSans-Bold-72" x="509.179688"/>
    <use xlink:href="#DejaVuSans-Bold-6d" x="558.496094"/>
    <use xlink:href="#DejaVuSans-Bold-61" x="662.695312"/>
    <use xlink:href="#DejaVuSans-Bold-6c" x="730.175781"/>
    <use xlink:href="#DejaVuSans-Bold-69" x="764.453125"/>
    <use xlink:href="#DejaVuSans-Bold-7a" x="798.730469"/>
    <use xlink:href="#DejaVuSans-Bold-61" x="856.933594"/>
    <use xlink:href="#DejaVuSans-Bold-74" x="924.414062"/>
    <use xlink:href="#DejaVuSans-Bold-69" x="972.216797"/>
    <use xlink:href="#DejaVuSans-Bold-6f" x="1006.494141"/>
    <use xlink:href="#DejaVuSans-Bold-6e" x="1075.195312"/>
   </g>
  </g>
 </g>
 <defs>
  <clipPath id="pe5bec971eb">
   <rect x="7.2" y="49.92" width="394.1" height="232.84"/>
  </clipPath>
  <clipPath id="p4d22156654">
   <rect x="455.5" y="49.92" width="394.1" height="232.84"/>
  </clipPath>
 </defs>
</svg>
