<?xml version="1.0" encoding="utf-8" standalone="no"?>
<!DOCTYPE svg PUBLIC "-//W3C//DTD SVG 1.1//EN"
  "http://www.w3.org/Graphics/SVG/1.1/DTD/svg11.dtd">
<svg xmlns:xlink="http://www.w3.org/1999/xlink" width="856.8pt" height="316.637812pt" viewBox="0 0 856.8 316.637812" xmlns="http://www.w3.org/2000/svg" version="1.1">
 <metadata>
  <rdf:RDF xmlns:dc="http://purl.org/dc/elements/1.1/" xmlns:cc="http://creativecommons.org/ns#" xmlns:rdf="http://www.w3.org/1999/02/22-rdf-syntax-ns#">
   <cc:Work>
    <dc:type rdf:resource="http://purl.org/dc/dcmitype/StillImage"/>
    <dc:date>2026-04-24T07:26:55.173987</dc:date>
    <dc:format>image/svg+xml</dc:format>
    <dc:creator>
     <cc:Agent>
      <dc:title>Matplotlib v3.8.0, https://matplotlib.org/</dc:title>
     </cc:Agent>
    </dc:creator>
   </cc:Work>
  </rdf:RDF>
 </metadata>
 <defs>
  <style type="text/css">*{stroke-linejoin: round; stroke-linecap: butt}</style>
 </defs>
 <g id="figure_1">
  <g id="patch_1">
   <path d="M 0 316.637812 
L 856.8 316.637812 
L 856.8 0 
L 0 0 
z
" style="fill: #ffffff"/>
  </g>
  <g id="axes_1">
   <g id="patch_2">
    <path d="M 35.982 114.699146 
L 160.938 114.699146 
Q 169.362 114.699146 169.362 107.136479 
L 169.362 70.58359 
Q 169.362 63.020924 160.938 63.020924 
L 35.982 63.020924 
Q 27.558 63.020924 27.558 70.58359 
L 27.558 107.136479 
Q 27.558 114.699146 35.982 114.699146 
z
" clip-path="url(#p030b8e866b)" style="fill: #dbeafe; stroke: #2563eb; stroke-width: 1.5; stroke-linejoin: miter"/>
   </g>
   <g id="patch_3">
    <path d="M 36.684 201.669812 
L 63.36 201.669812 
Q 66.168 201.669812 66.168 199.148924 
L 66.168 158.184479 
Q 66.168 155.66359 63.36 155.66359 
L 36.684 155.66359 
Q 33.876 155.66359 33.876 158.184479 
L 33.876 199.148924 
Q 33.876 201.669812 36.684 201.669812 
z
" clip-path="url(#p030b8e866b)" style="fill: #dbeafe; stroke: #2563eb; stroke-linejoin: miter"/>
   </g>
   <g id="patch_4">
    <path d="M 70.38 201.669812 
L 97.056 201.669812 
Q 99.864 201.669812 99.864 199.148924 
L 99.864 158.184479 
Q 99.864 155.66359 97.056 155.66359 
L 70.38 155.66359 
Q 67.572 155.66359 67.572 158.184479 
L 67.572 199.148924 
Q 67.572 201.669812 70.38 201.669812 
z
" clip-path="url(#p030b8e866b)" style="fill: #dbeafe; stroke: #2563eb; stroke-linejoin: miter"/>
   </g>
   <g id="patch_5">
    <path d="M 104.076 201.669812 
L 130.752 201.669812 
Q 133.56 201.669812 133.56 199.148924 
L 133.56 158.184479 
Q 133.56 155.66359 130.752 155.66359 
L 104.076 155.66359 
Q 101.268 155.66359 101.268 158.184479 
L 101.268 199.148924 
Q 101.268 201.669812 104.076 201.669812 
z
" clip-path="url(#p030b8e866b)" style="fill: #dbeafe; stroke: #2563eb; stroke-linejoin: miter"/>
   </g>
   <g id="patch_6">
    <path d="M 137.772 201.669812 
L 164.448 201.669812 
Q 167.256 201.669812 167.256 199.148924 
L 167.256 158.184479 
Q 167.256 155.66359 164.448 155.66359 
L 137.772 155.66359 
Q 134.964 155.66359 134.964 158.184479 
L 134.964 199.148924 
Q 134.964 201.669812 137.772 201.669812 
z
" clip-path="url(#p030b8e866b)" style="fill: #dbeafe; stroke: #2563eb; stroke-linejoin: miter"/>
   </g>
   <g id="patch_7">
    <path d="M 174.168369 88.860035 
Q 186.207882 88.860035 196.570343 88.860035 
" style="fill: none; stroke: #374151; stroke-width: 1.5; stroke-linecap: round"/>
    <path d="M 192.970343 87.060035 
L 196.570343 88.860035 
L 192.970343 90.660035 
z
" style="fill: #374151; stroke: #374151; stroke-width: 1.5; stroke-linecap: round"/>
   </g>
   <g id="patch_8">
    <path d="M 163.640511 177.091146 
Q 186.210441 177.091146 207.103319 177.091146 
" style="fill: none; stroke: #374151; stroke-width: 1.5; stroke-linecap: round"/>
    <path d="M 203.903319 175.491146 
L 207.103319 177.091146 
L 203.903319 178.691146 
z
" style="fill: #374151; stroke: #374151; stroke-width: 1.5; stroke-linecap: round"/>
   </g>
   <g id="patch_9">
    <path d="M 211.482 114.699146 
L 336.438 114.699146 
Q 344.862 114.699146 344.862 107.136479 
L 344.862 70.58359 
Q 344.862 63.020924 336.438 63.020924 
L 211.482 63.020924 
Q 203.058 63.020924 203.058 70.58359 
L 203.058 107.136479 
Q 203.058 114.699146 211.482 114.699146 
z
" clip-path="url(#p030b8e866b)" style="fill: #dcfce7; stroke: #16a34a; stroke-width: 1.5; stroke-linejoin: miter"/>
   </g>
   <g id="patch_10">
    <path d="M 212.184 201.669812 
L 238.86 201.669812 
Q 241.668 201.669812 241.668 199.148924 
L 241.668 158.184479 
Q 241.668 155.66359 238.86 155.66359 
L 212.184 155.66359 
Q 209.376 155.66359 209.376 158.184479 
L 209.376 199.148924 
Q 209.376 201.669812 212.184 201.669812 
z
" clip-path="url(#p030b8e866b)" style="fill: #dcfce7; stroke: #16a34a; stroke-linejoin: miter"/>
   </g>
   <g id="patch_11">
    <path d="M 245.88 201.669812 
L 272.556 201.669812 
Q 275.364 201.669812 275.364 199.148924 
L 275.364 158.184479 
Q 275.364 155.66359 272.556 155.66359 
L 245.88 155.66359 
Q 243.072 155.66359 243.072 158.184479 
L 243.072 199.148924 
Q 243.072 201.669812 245.88 201.669812 
z
" clip-path="url(#p030b8e866b)" style="fill: #dcfce7; stroke: #16a34a; stroke-linejoin: miter"/>
   </g>
   <g id="patch_12">
    <path d="M 279.576 201.669812 
L 306.252 201.669812 
Q 309.06 201.669812 309.06 199.148924 
L 309.06 158.184479 
Q 309.06 155.66359 306.252 155.66359 
L 279.576 155.66359 
Q 276.768 155.66359 276.768 158.184479 
L 276.768 199.148924 
Q 276.768 201.669812 279.576 201.669812 
z
" clip-path="url(#p030b8e866b)" style="fill: #dcfce7; stroke: #16a34a; stroke-linejoin: miter"/>
   </g>
   <g id="patch_13">
    <path d="M 313.272 201.669812 
L 339.948 201.669812 
Q 342.756 201.669812 342.756 199.148924 
L 342.756 158.184479 
Q 342.756 155.66359 339.948 155.66359 
L 313.272 155.66359 
Q 310.464 155.66359 310.464 158.184479 
L 310.464 199.148924 
Q 310.464 201.669812 313.272 201.669812 
z
" clip-path="url(#p030b8e866b)" style="fill: #dcfce7; stroke: #16a34a; stroke-linejoin: miter"/>
   </g>
   <g id="patch_14">
    <path d="M 349.667512 88.860035 
Q 368.727163 88.860035 386.109763 88.860035 
" style="fill: none; stroke: #374151; stroke-width: 1.5; stroke-linecap: round"/>
    <path d="M 382.509763 87.060035 
L 386.109763 88.860035 
L 382.509763 90.660035 
z
" style="fill: #374151; stroke: #374151; stroke-width: 1.5; stroke-linecap: round"/>
   </g>
   <g id="patch_15">
    <path d="M 339.141368 177.091146 
Q 368.731827 177.091146 396.645234 177.091146 
" style="fill: none; stroke: #374151; stroke-width: 1.5; stroke-linecap: round"/>
    <path d="M 393.445234 175.491146 
L 396.645234 177.091146 
L 393.445234 178.691146 
z
" style="fill: #374151; stroke: #374151; stroke-width: 1.5; stroke-linecap: round"/>
   </g>
   <g id="patch_16">
    <path d="M 401.022 114.699146 
L 525.978 114.699146 
Q 534.402 114.699146 534.402 107.136479 
L 534.402 70.58359 
Q 534.402 63.020924 525.978 63.020924 
L 401.022 63.020924 
Q 392.598 63.020924 392.598 70.58359 
L 392.598 107.136479 
Q 392.598 114.699146 401.022 114.699146 
z
" clip-path="url(#p030b8e866b)" style="fill: #ffedd5; stroke: #ea580c; stroke-width: 1.5; stroke-linejoin: miter"/>
   </g>
   <g id="patch_17">
    <path d="M 401.724 201.669812 
L 428.4 201.669812 
Q 431.208 201.669812 431.208 199.148924 
L 431.208 158.184479 
Q 431.208 155.66359 428.4 155.66359 
L 401.724 155.66359 
Q 398.916 155.66359 398.916 158.184479 
L 398.916 199.148924 
Q 398.916 201.669812 401.724 201.669812 
z
" clip-path="url(#p030b8e866b)" style="fill: #ffedd5; stroke: #ea580c; stroke-linejoin: miter"/>
   </g>
   <g id="patch_18">
    <path d="M 435.42 201.669812 
L 462.096 201.669812 
Q 464.904 201.669812 464.904 199.148924 
L 464.904 158.184479 
Q 464.904 155.66359 462.096 155.66359 
L 435.42 155.66359 
Q 432.612 155.66359 432.612 158.184479 
L 432.612 199.148924 
Q 432.612 201.669812 435.42 201.669812 
z
" clip-path="url(#p030b8e866b)" style="fill: #ffedd5; stroke: #ea580c; stroke-linejoin: miter"/>
   </g>
   <g id="patch_19">
    <path d="M 469.116 201.669812 
L 495.792 201.669812 
Q 498.6 201.669812 498.6 199.148924 
L 498.6 158.184479 
Q 498.6 155.66359 495.792 155.66359 
L 469.116 155.66359 
Q 466.308 155.66359 466.308 158.184479 
L 466.308 199.148924 
Q 466.308 201.669812 469.116 201.669812 
z
" clip-path="url(#p030b8e866b)" style="fill: #ffedd5; stroke: #ea580c; stroke-linejoin: miter"/>
   </g>
   <g id="patch_20">
    <path d="M 502.812 201.669812 
L 529.488 201.669812 
Q 532.296 201.669812 532.296 199.148924 
L 532.296 158.184479 
Q 532.296 155.66359 529.488 155.66359 
L 502.812 155.66359 
Q 500.004 155.66359 500.004 158.184479 
L 500.004 199.148924 
Q 500.004 201.669812 502.812 201.669812 
z
" clip-path="url(#p030b8e866b)" style="fill: #ffedd5; stroke: #ea580c; stroke-linejoin: miter"/>
   </g>
   <g id="patch_21">
    <path d="M 539.208369 88.860035 
Q 551.247882 88.860035 561.610343 88.860035 
" style="fill: none; stroke: #374151; stroke-width: 1.5; stroke-linecap: round"/>
    <path d="M 558.010343 87.060035 
L 561.610343 88.860035 
L 558.010343 90.660035 
z
" style="fill: #374151; stroke: #374151; stroke-width: 1.5; stroke-linecap: round"/>
   </g>
   <g id="patch_22">
    <path d="M 528.680511 177.091146 
Q 551.250441 177.091146 572.143319 177.091146 
" style="fill: none; stroke: #374151; stroke-width: 1.5; stroke-linecap: round"/>
    <path d="M 568.943319 175.491146 
L 572.143319 177.091146 
L 568.943319 178.691146 
z
" style="fill: #374151; stroke: #374151; stroke-width: 1.5; stroke-linecap: round"/>
   </g>
   <g id="text_1">
    <!-- More abstract → -->
    <g style="fill: #475569" transform="translate(429.165977 224.357812) scale(0.085 -0.085)">
     <defs>
      <path id="DejaVuSans-4d" d="M 628 4666 
L 1569 4666 
L 2759 1491 
L 3956 4666 
L 4897 4666 
L 4897 0 
L 4281 0 
L 4281 4097 
L 3078 897 
L 2444 897 
L 1241 4097 
L 1241 0 
L 628 0 
L 628 4666 
z
" transform="scale(0.015625)"/>
      <path id="DejaVuSans-6f" d="M 1959 3097 
Q 1497 3097 1228 2736 
Q 959 2375 959 1747 
Q 959 1119 1226 758 
Q 1494 397 1959 397 
Q 2419 397 2687 759 
Q 2956 1122 2956 1747 
Q 2956 2369 2687 2733 
Q 2419 3097 1959 3097 
z
M 1959 3584 
Q 2709 3584 3137 3096 
Q 3566 2609 3566 1747 
Q 3566 888 3137 398 
Q 2709 -91 1959 -91 
Q 1206 -91 779 398 
Q 353 888 353 1747 
Q 353 2609 779 3096 
Q 1206 3584 1959 3584 
z
" transform="scale(0.015625)"/>
      <path id="DejaVuSans-72" d="M 2631 2963 
Q 2534 3019 2420 3045 
Q 2306 3072 2169 3072 
Q 1681 3072 1420 2755 
Q 1159 2438 1159 1844 
L 1159 0 
L 581 0 
L 581 3500 
L 1159 3500 
L 1159 2956 
Q 1341 3275 1631 3429 
Q 1922 3584 2338 3584 
Q 2397 3584 2469 3576 
Q 2541 3569 2628 3553 
L 2631 2963 
z
" transform="scale(0.015625)"/>
      <path id="DejaVuSans-65" d="M 3597 1894 
L 3597 1613 
L 953 1613 
Q 991 1019 1311 708 
Q 1631 397 2203 397 
Q 2534 397 2845 478 
Q 3156 559 3463 722 
L 3463 178 
Q 3153 47 2828 -22 
Q 2503 -91 2169 -91 
Q 1331 -91 842 396 
Q 353 884 353 1716 
Q 353 2575 817 3079 
Q 1281 3584 2069 3584 
Q 2775 3584 3186 3129 
Q 3597 2675 3597 1894 
z
M 3022 2063 
Q 3016 2534 2758 2815 
Q 2500 3097 2075 3097 
Q 1594 3097 1305 2825 
Q 1016 2553 972 2059 
L 3022 2063 
z
" transform="scale(0.015625)"/>
      <path id="DejaVuSans-20" transform="scale(0.015625)"/>
      <path id="DejaVuSans-61" d="M 2194 1759 
Q 1497 1759 1228 1600 
Q 959 1441 959 1056 
Q 959 750 1161 570 
Q 1363 391 1709 391 
Q 2188 391 2477 730 
Q 2766 1069 2766 1631 
L 2766 1759 
L 2194 1759 
z
M 3341 1997 
L 3341 0 
L 2766 0 
L 2766 531 
Q 2569 213 2275 61 
Q 1981 -91 1556 -91 
Q 1019 -91 701 211 
Q 384 513 384 1019 
Q 384 1609 779 1909 
Q 1175 2209 1959 2209 
L 2766 2209 
L 2766 2266 
Q 2766 2663 2505 2880 
Q 2244 3097 1772 3097 
Q 1472 3097 1187 3025 
Q 903 2953 641 2809 
L 641 3341 
Q 956 3463 1253 3523 
Q 1550 3584 1831 3584 
Q 2591 3584 2966 3190 
Q 3341 2797 3341 1997 
z
" transform="scale(0.015625)"/>
      <path id="DejaVuSans-62" d="M 3116 1747 
Q 3116 2381 2855 2742 
Q 2594 3103 2138 3103 
Q 1681 3103 1420 2742 
Q 1159 2381 1159 1747 
Q 1159 1113 1420 752 
Q 1681 391 2138 391 
Q 2594 391 2855 752 
Q 3116 1113 3116 1747 
z
M 1159 2969 
Q 1341 3281 1617 3432 
Q 1894 3584 2278 3584 
Q 2916 3584 3314 3078 
Q 3713 2572 3713 1747 
Q 3713 922 3314 415 
Q 2916 -91 2278 -91 
Q 1894 -91 1617 61 
Q 1341 213 1159 525 
L 1159 0 
L 581 0 
L 581 4863 
L 1159 4863 
L 1159 2969 
z
" transform="scale(0.015625)"/>
      <path id="DejaVuSans-73" d="M 2834 3397 
L 2834 2853 
Q 2591 2978 2328 3040 
Q 2066 3103 1784 3103 
Q 1356 3103 1142 2972 
Q 928 2841 928 2578 
Q 928 2378 1081 2264 
Q 1234 2150 1697 2047 
L 1894 2003 
Q 2506 1872 2764 1633 
Q 3022 1394 3022 966 
Q 3022 478 2636 193 
Q 2250 -91 1575 -91 
Q 1294 -91 989 -36 
Q 684 19 347 128 
L 347 722 
Q 666 556 975 473 
Q 1284 391 1588 391 
Q 1994 391 2212 530 
Q 2431 669 2431 922 
Q 2431 1156 2273 1281 
Q 2116 1406 1581 1522 
L 1381 1569 
Q 847 1681 609 1914 
Q 372 2147 372 2553 
Q 372 3047 722 3315 
Q 1072 3584 1716 3584 
Q 2034 3584 2315 3537 
Q 2597 3491 2834 3397 
z
" transform="scale(0.015625)"/>
      <path id="DejaVuSans-74" d="M 1172 4494 
L 1172 3500 
L 2356 3500 
L 2356 3053 
L 1172 3053 
L 1172 1153 
Q 1172 725 1289 603 
Q 1406 481 1766 481 
L 2356 481 
L 2356 0 
L 1766 0 
Q 1100 0 847 248 
Q 594 497 594 1153 
L 594 3053 
L 172 3053 
L 172 3500 
L 594 3500 
L 594 4494 
L 1172 4494 
z
" transform="scale(0.015625)"/>
      <path id="DejaVuSans-63" d="M 3122 3366 
L 3122 2828 
Q 2878 2963 2633 3030 
Q 2388 3097 2138 3097 
Q 1578 3097 1268 2742 
Q 959 2388 959 1747 
Q 959 1106 1268 751 
Q 1578 397 2138 397 
Q 2388 397 2633 464 
Q 2878 531 3122 666 
L 3122 134 
Q 2881 22 2623 -34 
Q 2366 -91 2075 -91 
Q 1284 -91 818 406 
Q 353 903 353 1747 
Q 353 2603 823 3093 
Q 1294 3584 2113 3584 
Q 2378 3584 2631 3529 
Q 2884 3475 3122 3366 
z
" transform="scale(0.015625)"/>
      <path id="DejaVuSans-2192" d="M 5050 2147 
L 5050 1866 
L 3822 638 
L 3447 1013 
L 4175 1741 
L 366 1741 
L 366 2272 
L 4175 2272 
L 3447 3000 
L 3822 3375 
L 5050 2147 
z
" transform="scale(0.015625)"/>
     </defs>
     <use xlink:href="#DejaVuSans-4d"/>
     <use xlink:href="#DejaVuSans-6f" x="86.279297"/>
     <use xlink:href="#DejaVuSans-72" x="147.460938"/>
     <use xlink:href="#DejaVuSans-65" x="186.324219"/>
     <use xlink:href="#DejaVuSans-20" x="247.847656"/>
     <use xlink:href="#DejaVuSans-61" x="279.634766"/>
     <use xlink:href="#DejaVuSans-62" x="340.914062"/>
     <use xlink:href="#DejaVuSans-73" x="404.390625"/>
     <use xlink:href="#DejaVuSans-74" x="456.490234"/>
     <use xlink:href="#DejaVuSans-72" x="495.699219"/>
     <use xlink:href="#DejaVuSans-61" x="536.8125"/>
     <use xlink:href="#DejaVuSans-63" x="598.091797"/>
     <use xlink:href="#DejaVuSans-74" x="653.072266"/>
     <use xlink:href="#DejaVuSans-20" x="692.28125"/>
     <use xlink:href="#DejaVuSans-2192" x="724.068359"/>
    </g>
   </g>
   <g id="patch_23">
    <path d="M 576.522 114.699146 
L 701.478 114.699146 
Q 709.902 114.699146 709.902 107.136479 
L 709.902 70.58359 
Q 709.902 63.020924 701.478 63.020924 
L 576.522 63.020924 
Q 568.098 63.020924 568.098 70.58359 
L 568.098 107.136479 
Q 568.098 114.699146 576.522 114.699146 
z
" clip-path="url(#p030b8e866b)" style="fill: #ede9fe; stroke: #7c3aed; stroke-width: 1.5; stroke-linejoin: miter"/>
   </g>
   <g id="patch_24">
    <path d="M 577.224 201.669812 
L 603.9 201.669812 
Q 606.708 201.669812 606.708 199.148924 
L 606.708 158.184479 
Q 606.708 155.66359 603.9 155.66359 
L 577.224 155.66359 
Q 574.416 155.66359 574.416 158.184479 
L 574.416 199.148924 
Q 574.416 201.669812 577.224 201.669812 
z
" clip-path="url(#p030b8e866b)" style="fill: #ede9fe; stroke: #7c3aed; stroke-linejoin: miter"/>
   </g>
   <g id="patch_25">
    <path d="M 610.92 201.669812 
L 637.596 201.669812 
Q 640.404 201.669812 640.404 199.148924 
L 640.404 158.184479 
Q 640.404 155.66359 637.596 155.66359 
L 610.92 155.66359 
Q 608.112 155.66359 608.112 158.184479 
L 608.112 199.148924 
Q 608.112 201.669812 610.92 201.669812 
z
" clip-path="url(#p030b8e866b)" style="fill: #ede9fe; stroke: #7c3aed; stroke-linejoin: miter"/>
   </g>
   <g id="patch_26">
    <path d="M 644.616 201.669812 
L 671.292 201.669812 
Q 674.1 201.669812 674.1 199.148924 
L 674.1 158.184479 
Q 674.1 155.66359 671.292 155.66359 
L 644.616 155.66359 
Q 641.808 155.66359 641.808 158.184479 
L 641.808 199.148924 
Q 641.808 201.669812 644.616 201.669812 
z
" clip-path="url(#p030b8e866b)" style="fill: #ede9fe; stroke: #7c3aed; stroke-linejoin: miter"/>
   </g>
   <g id="patch_27">
    <path d="M 678.312 201.669812 
L 704.988 201.669812 
Q 707.796 201.669812 707.796 199.148924 
L 707.796 158.184479 
Q 707.796 155.66359 704.988 155.66359 
L 678.312 155.66359 
Q 675.504 155.66359 675.504 158.184479 
L 675.504 199.148924 
Q 675.504 201.669812 678.312 201.669812 
z
" clip-path="url(#p030b8e866b)" style="fill: #ede9fe; stroke: #7c3aed; stroke-linejoin: miter"/>
   </g>
   <g id="patch_28">
    <path d="M 714.708369 88.860035 
Q 716.221234 88.860035 716.057047 88.860035 
" style="fill: none; stroke: #374151; stroke-width: 1.5; stroke-linecap: round"/>
    <path d="M 712.457047 87.060035 
L 716.057047 88.860035 
L 712.457047 90.660035 
z
" style="fill: #374151; stroke: #374151; stroke-width: 1.5; stroke-linecap: round"/>
   </g>
   <g id="patch_29">
    <path d="M 704.178369 177.091146 
Q 716.217882 177.091146 726.580343 177.091146 
" style="fill: none; stroke: #374151; stroke-width: 1.5; stroke-linecap: round"/>
    <path d="M 723.380343 175.491146 
L 726.580343 177.091146 
L 723.380343 178.691146 
z
" style="fill: #374151; stroke: #374151; stroke-width: 1.5; stroke-linecap: round"/>
   </g>
   <g id="patch_30">
    <path d="M 745.002 114.699146 
L 841.878 114.699146 
Q 850.302 114.699146 850.302 107.136479 
L 850.302 70.58359 
Q 850.302 63.020924 841.878 63.020924 
L 745.002 63.020924 
Q 736.578 63.020924 736.578 70.58359 
L 736.578 107.136479 
Q 736.578 114.699146 745.002 114.699146 
z
" clip-path="url(#p030b8e866b)" style="fill: #dcfce7; stroke: #16a34a; stroke-width: 1.5; stroke-linejoin: miter"/>
   </g>
   <g id="patch_31">
    <path d="M 731.664 201.669812 
L 758.34 201.669812 
Q 761.148 201.669812 761.148 199.148924 
L 761.148 158.184479 
Q 761.148 155.66359 758.34 155.66359 
L 731.664 155.66359 
Q 728.856 155.66359 728.856 158.184479 
L 728.856 199.148924 
Q 728.856 201.669812 731.664 201.669812 
z
" clip-path="url(#p030b8e866b)" style="fill: #dcfce7; stroke: #16a34a; stroke-linejoin: miter"/>
   </g>
   <g id="text_2">
    <!-- Each layer learns increasingly abstract representations -->
    <g style="fill: #475569" transform="translate(297.010547 274.77559) scale(0.095 -0.095)">
     <defs>
      <path id="DejaVuSans-Oblique-45" d="M 1081 4666 
L 4031 4666 
L 3928 4134 
L 1606 4134 
L 1338 2753 
L 3566 2753 
L 3463 2222 
L 1234 2222 
L 909 531 
L 3284 531 
L 3181 0 
L 172 0 
L 1081 4666 
z
" transform="scale(0.015625)"/>
      <path id="DejaVuSans-Oblique-61" d="M 3438 1997 
L 3047 0 
L 2472 0 
L 2578 531 
Q 2325 219 2001 64 
Q 1678 -91 1281 -91 
Q 834 -91 548 182 
Q 263 456 263 884 
Q 263 1497 752 1853 
Q 1241 2209 2100 2209 
L 2900 2209 
L 2931 2363 
Q 2938 2388 2941 2417 
Q 2944 2447 2944 2509 
Q 2944 2788 2717 2942 
Q 2491 3097 2081 3097 
Q 1800 3097 1504 3025 
Q 1209 2953 897 2809 
L 997 3341 
Q 1322 3463 1633 3523 
Q 1944 3584 2234 3584 
Q 2853 3584 3176 3315 
Q 3500 3047 3500 2534 
Q 3500 2431 3484 2292 
Q 3469 2153 3438 1997 
z
M 2816 1759 
L 2241 1759 
Q 1534 1759 1195 1570 
Q 856 1381 856 984 
Q 856 709 1029 553 
Q 1203 397 1509 397 
Q 1978 397 2328 733 
Q 2678 1069 2791 1631 
L 2816 1759 
z
" transform="scale(0.015625)"/>
      <path id="DejaVuSans-Oblique-63" d="M 3431 3366 
L 3316 2797 
Q 3109 2947 2876 3022 
Q 2644 3097 2394 3097 
Q 2119 3097 1870 3000 
Q 1622 2903 1453 2725 
Q 1184 2453 1037 2087 
Q 891 1722 891 1331 
Q 891 859 1127 628 
Q 1363 397 1844 397 
Q 2081 397 2348 469 
Q 2616 541 2906 684 
L 2797 116 
Q 2547 13 2283 -39 
Q 2019 -91 1741 -91 
Q 1044 -91 669 257 
Q 294 606 294 1253 
Q 294 1797 489 2255 
Q 684 2713 1069 3078 
Q 1331 3328 1684 3456 
Q 2038 3584 2456 3584 
Q 2700 3584 2940 3529 
Q 3181 3475 3431 3366 
z
" transform="scale(0.015625)"/>
      <path id="DejaVuSans-Oblique-68" d="M 3566 2113 
L 3156 0 
L 2578 0 
L 2988 2091 
Q 3016 2238 3031 2350 
Q 3047 2463 3047 2528 
Q 3047 2791 2881 2937 
Q 2716 3084 2419 3084 
Q 1956 3084 1617 2771 
Q 1278 2459 1178 1941 
L 800 0 
L 225 0 
L 1172 4863 
L 1747 4863 
L 1375 2950 
Q 1594 3244 1934 3414 
Q 2275 3584 2650 3584 
Q 3113 3584 3367 3334 
Q 3622 3084 3622 2631 
Q 3622 2519 3608 2391 
Q 3594 2263 3566 2113 
z
" transform="scale(0.015625)"/>
      <path id="DejaVuSans-Oblique-20" transform="scale(0.015625)"/>
      <path id="DejaVuSans-Oblique-6c" d="M 1172 4863 
L 1747 4863 
L 800 0 
L 225 0 
L 1172 4863 
z
" transform="scale(0.015625)"/>
      <path id="DejaVuSans-Oblique-79" d="M 1588 -325 
Q 1188 -997 936 -1164 
Q 684 -1331 294 -1331 
L -159 -1331 
L -63 -850 
L 269 -850 
Q 509 -850 678 -719 
Q 847 -588 1056 -206 
L 1234 128 
L 459 3500 
L 1069 3500 
L 1650 819 
L 3256 3500 
L 3859 3500 
L 1588 -325 
z
" transform="scale(0.015625)"/>
      <path id="DejaVuSans-Oblique-65" d="M 3078 2063 
Q 3088 2113 3092 2166 
Q 3097 2219 3097 2272 
Q 3097 2653 2873 2875 
Q 2650 3097 2266 3097 
Q 1838 3097 1509 2826 
Q 1181 2556 1013 2059 
L 3078 2063 
z
M 3578 1613 
L 903 1613 
Q 884 1494 878 1425 
Q 872 1356 872 1306 
Q 872 872 1139 634 
Q 1406 397 1894 397 
Q 2269 397 2603 481 
Q 2938 566 3225 728 
L 3116 159 
Q 2806 34 2476 -28 
Q 2147 -91 1806 -91 
Q 1078 -91 686 257 
Q 294 606 294 1247 
Q 294 1794 489 2264 
Q 684 2734 1063 3103 
Q 1306 3334 1642 3459 
Q 1978 3584 2356 3584 
Q 2950 3584 3301 3228 
Q 3653 2872 3653 2272 
Q 3653 2128 3634 1964 
Q 3616 1800 3578 1613 
z
" transform="scale(0.015625)"/>
      <path id="DejaVuSans-Oblique-72" d="M 2853 2969 
Q 2766 3016 2653 3041 
Q 2541 3066 2413 3066 
Q 1953 3066 1609 2717 
Q 1266 2369 1153 1784 
L 800 0 
L 225 0 
L 909 3500 
L 1484 3500 
L 1375 2956 
Q 1603 3259 1920 3421 
Q 2238 3584 2597 3584 
Q 2691 3584 2781 3573 
Q 2872 3563 2963 3538 
L 2853 2969 
z
" transform="scale(0.015625)"/>
      <path id="DejaVuSans-Oblique-6e" d="M 3566 2113 
L 3156 0 
L 2578 0 
L 2988 2091 
Q 3016 2238 3031 2350 
Q 3047 2463 3047 2528 
Q 3047 2791 2881 2937 
Q 2716 3084 2419 3084 
Q 1956 3084 1622 2776 
Q 1288 2469 1184 1941 
L 800 0 
L 225 0 
L 903 3500 
L 1478 3500 
L 1363 2950 
Q 1603 3253 1940 3418 
Q 2278 3584 2650 3584 
Q 3113 3584 3367 3334 
Q 3622 3084 3622 2631 
Q 3622 2519 3608 2391 
Q 3594 2263 3566 2113 
z
" transform="scale(0.015625)"/>
      <path id="DejaVuSans-Oblique-73" d="M 3200 3397 
L 3091 2853 
Q 2863 2978 2609 3040 
Q 2356 3103 2088 3103 
Q 1634 3103 1373 2948 
Q 1113 2794 1113 2528 
Q 1113 2219 1719 2053 
Q 1766 2041 1788 2034 
L 1972 1978 
Q 2547 1819 2739 1644 
Q 2931 1469 2931 1166 
Q 2931 609 2489 259 
Q 2047 -91 1331 -91 
Q 1053 -91 747 -37 
Q 441 16 72 128 
L 184 722 
Q 500 559 806 475 
Q 1113 391 1394 391 
Q 1816 391 2080 572 
Q 2344 753 2344 1031 
Q 2344 1331 1650 1516 
L 1591 1531 
L 1394 1581 
Q 956 1697 753 1886 
Q 550 2075 550 2369 
Q 550 2928 970 3256 
Q 1391 3584 2113 3584 
Q 2397 3584 2667 3537 
Q 2938 3491 3200 3397 
z
" transform="scale(0.015625)"/>
      <path id="DejaVuSans-Oblique-69" d="M 1172 4863 
L 1747 4863 
L 1606 4134 
L 1031 4134 
L 1172 4863 
z
M 909 3500 
L 1484 3500 
L 800 0 
L 225 0 
L 909 3500 
z
" transform="scale(0.015625)"/>
      <path id="DejaVuSans-Oblique-67" d="M 3816 3500 
L 3219 434 
Q 3047 -456 2561 -893 
Q 2075 -1331 1253 -1331 
Q 950 -1331 690 -1286 
Q 431 -1241 206 -1147 
L 313 -588 
Q 525 -725 762 -790 
Q 1000 -856 1269 -856 
Q 1816 -856 2167 -557 
Q 2519 -259 2631 300 
L 2681 563 
Q 2441 288 2122 144 
Q 1803 0 1434 0 
Q 903 0 598 351 
Q 294 703 294 1319 
Q 294 1803 478 2267 
Q 663 2731 997 3091 
Q 1219 3328 1514 3456 
Q 1809 3584 2131 3584 
Q 2484 3584 2746 3420 
Q 3009 3256 3138 2956 
L 3238 3500 
L 3816 3500 
z
M 2950 2216 
Q 2950 2641 2750 2872 
Q 2550 3103 2181 3103 
Q 1953 3103 1747 3012 
Q 1541 2922 1394 2759 
Q 1156 2491 1023 2127 
Q 891 1763 891 1375 
Q 891 944 1092 712 
Q 1294 481 1672 481 
Q 2219 481 2584 976 
Q 2950 1472 2950 2216 
z
" transform="scale(0.015625)"/>
      <path id="DejaVuSans-Oblique-62" d="M 3169 2138 
Q 3169 2591 2961 2847 
Q 2753 3103 2388 3103 
Q 2122 3103 1889 2973 
Q 1656 2844 1484 2597 
Q 1303 2338 1198 1995 
Q 1094 1653 1094 1313 
Q 1094 881 1298 636 
Q 1503 391 1863 391 
Q 2134 391 2365 517 
Q 2597 644 2772 891 
Q 2950 1147 3059 1487 
Q 3169 1828 3169 2138 
z
M 1381 2969 
Q 1594 3256 1914 3420 
Q 2234 3584 2584 3584 
Q 3122 3584 3439 3221 
Q 3756 2859 3756 2241 
Q 3756 1734 3570 1259 
Q 3384 784 3041 416 
Q 2816 172 2522 40 
Q 2228 -91 1906 -91 
Q 1566 -91 1316 65 
Q 1066 222 909 531 
L 806 0 
L 231 0 
L 1178 4863 
L 1753 4863 
L 1381 2969 
z
" transform="scale(0.015625)"/>
      <path id="DejaVuSans-Oblique-74" d="M 2706 3500 
L 2619 3053 
L 1472 3053 
L 1100 1153 
Q 1081 1047 1072 975 
Q 1063 903 1063 863 
Q 1063 663 1183 572 
Q 1303 481 1569 481 
L 2150 481 
L 2053 0 
L 1503 0 
Q 991 0 739 200 
Q 488 400 488 806 
Q 488 878 497 964 
Q 506 1050 525 1153 
L 897 3053 
L 409 3053 
L 500 3500 
L 978 3500 
L 1172 4494 
L 1747 4494 
L 1556 3500 
L 2706 3500 
z
" transform="scale(0.015625)"/>
      <path id="DejaVuSans-Oblique-70" d="M 3175 2156 
Q 3175 2616 2975 2859 
Q 2775 3103 2400 3103 
Q 2144 3103 1911 2972 
Q 1678 2841 1497 2591 
Q 1319 2344 1212 1994 
Q 1106 1644 1106 1300 
Q 1106 863 1306 627 
Q 1506 391 1875 391 
Q 2147 391 2380 519 
Q 2613 647 2778 891 
Q 2956 1147 3065 1494 
Q 3175 1841 3175 2156 
z
M 1394 2969 
Q 1625 3272 1939 3428 
Q 2253 3584 2638 3584 
Q 3175 3584 3472 3232 
Q 3769 2881 3769 2247 
Q 3769 1728 3584 1258 
Q 3400 788 3053 416 
Q 2822 169 2531 39 
Q 2241 -91 1919 -91 
Q 1547 -91 1294 64 
Q 1041 219 916 525 
L 556 -1331 
L -19 -1331 
L 922 3500 
L 1497 3500 
L 1394 2969 
z
" transform="scale(0.015625)"/>
      <path id="DejaVuSans-Oblique-6f" d="M 1625 -91 
Q 1009 -91 651 289 
Q 294 669 294 1325 
Q 294 1706 417 2101 
Q 541 2497 738 2766 
Q 1047 3184 1428 3384 
Q 1809 3584 2291 3584 
Q 2888 3584 3255 3212 
Q 3622 2841 3622 2241 
Q 3622 1825 3500 1412 
Q 3378 1000 3181 728 
Q 2875 309 2494 109 
Q 2113 -91 1625 -91 
z
M 891 1344 
Q 891 869 1089 633 
Q 1288 397 1691 397 
Q 2269 397 2648 901 
Q 3028 1406 3028 2181 
Q 3028 2634 2825 2865 
Q 2622 3097 2228 3097 
Q 1903 3097 1650 2945 
Q 1397 2794 1197 2484 
Q 1050 2253 970 1956 
Q 891 1659 891 1344 
z
" transform="scale(0.015625)"/>
     </defs>
     <use xlink:href="#DejaVuSans-Oblique-45"/>
     <use xlink:href="#DejaVuSans-Oblique-61" x="63.183594"/>
     <use xlink:href="#DejaVuSans-Oblique-63" x="124.462891"/>
     <use xlink:href="#DejaVuSans-Oblique-68" x="179.443359"/>
     <use xlink:href="#DejaVuSans-Oblique-20" x="242.822266"/>
     <use xlink:href="#DejaVuSans-Oblique-6c" x="274.609375"/>
     <use xlink:href="#DejaVuSans-Oblique-61" x="302.392578"/>
     <use xlink:href="#DejaVuSans-Oblique-79" x="363.671875"/>
     <use xlink:href="#DejaVuSans-Oblique-65" x="422.851562"/>
     <use xlink:href="#DejaVuSans-Oblique-72" x="484.375"/>
     <use xlink:href="#DejaVuSans-Oblique-20" x="525.488281"/>
     <use xlink:href="#DejaVuSans-Oblique-6c" x="557.275391"/>
     <use xlink:href="#DejaVuSans-Oblique-65" x="585.058594"/>
     <use xlink:href="#DejaVuSans-Oblique-61" x="646.582031"/>
     <use xlink:href="#DejaVuSans-Oblique-72" x="707.861328"/>
     <use xlink:href="#DejaVuSans-Oblique-6e" x="748.974609"/>
     <use xlink:href="#DejaVuSans-Oblique-73" x="812.353516"/>
     <use xlink:href="#DejaVuSans-Oblique-20" x="864.453125"/>
     <use xlink:href="#DejaVuSans-Oblique-69" x="896.240234"/>
     <use xlink:href="#DejaVuSans-Oblique-6e" x="924.023438"/>
     <use xlink:href="#DejaVuSans-Oblique-63" x="987.402344"/>
     <use xlink:href="#DejaVuSans-Oblique-72" x="1042.382812"/>
     <use xlink:href="#DejaVuSans-Oblique-65" x="1083.496094"/>
     <use xlink:href="#DejaVuSans-Oblique-61" x="1145.019531"/>
     <use xlink:href="#DejaVuSans-Oblique-73" x="1206.298828"/>
     <use xlink:href="#DejaVuSans-Oblique-69" x="1258.398438"/>
     <use xlink:href="#DejaVuSans-Oblique-6e" x="1286.181641"/>
     <use xlink:href="#DejaVuSans-Oblique-67" x="1349.560547"/>
     <use xlink:href="#DejaVuSans-Oblique-6c" x="1413.037109"/>
     <use xlink:href="#DejaVuSans-Oblique-79" x="1440.820312"/>
     <use xlink:href="#DejaVuSans-Oblique-20" x="1500"/>
     <use xlink:href="#DejaVuSans-Oblique-61" x="1531.787109"/>
     <use xlink:href="#DejaVuSans-Oblique-62" x="1593.066406"/>
     <use xlink:href="#DejaVuSans-Oblique-73" x="1656.542969"/>
     <use xlink:href="#DejaVuSans-Oblique-74" x="1708.642578"/>
     <use xlink:href="#DejaVuSans-Oblique-72" x="1747.851562"/>
     <use xlink:href="#DejaVuSans-Oblique-61" x="1788.964844"/>
     <use xlink:href="#DejaVuSans-Oblique-63" x="1850.244141"/>
     <use xlink:href="#DejaVuSans-Oblique-74" x="1905.224609"/>
     <use xlink:href="#DejaVuSans-Oblique-20" x="1944.433594"/>
     <use xlink:href="#DejaVuSans-Oblique-72" x="1976.220703"/>
     <use xlink:href="#DejaVuSans-Oblique-65" x="2017.333984"/>
     <use xlink:href="#DejaVuSans-Oblique-70" x="2078.857422"/>
     <use xlink:href="#DejaVuSans-Oblique-72" x="2142.333984"/>
     <use xlink:href="#DejaVuSans-Oblique-65" x="2183.447266"/>
     <use xlink:href="#DejaVuSans-Oblique-73" x="2244.970703"/>
     <use xlink:href="#DejaVuSans-Oblique-65" x="2297.070312"/>
     <use xlink:href="#DejaVuSans-Oblique-6e" x="2358.59375"/>
     <use xlink:href="#DejaVuSans-Oblique-74" x="2421.972656"/>
     <use xlink:href="#DejaVuSans-Oblique-61" x="2461.181641"/>
     <use xlink:href="#DejaVuSans-Oblique-74" x="2522.460938"/>
     <use xlink:href="#DejaVuSans-Oblique-69" x="2561.669922"/>
     <use xlink:href="#DejaVuSans-Oblique-6f" x="2589.453125"/>
     <use xlink:href="#DejaVuSans-Oblique-6e" x="2650.634766"/>
     <use xlink:href="#DejaVuSans-Oblique-73" x="2714.013672"/>
    </g>
   </g>
   <g id="text_3">
    <!-- CNN Feature Hierarchy -->
    <g style="fill: #0f172a" transform="translate(337.840781 17.837812) scale(0.14 -0.14)">
     <defs>
      <path id="DejaVuSans-Bold-43" d="M 4288 256 
Q 3956 84 3597 -3 
Q 3238 -91 2847 -91 
Q 1681 -91 1000 561 
Q 319 1213 319 2328 
Q 319 3447 1000 4098 
Q 1681 4750 2847 4750 
Q 3238 4750 3597 4662 
Q 3956 4575 4288 4403 
L 4288 3438 
Q 3953 3666 3628 3772 
Q 3303 3878 2944 3878 
Q 2300 3878 1931 3465 
Q 1563 3053 1563 2328 
Q 1563 1606 1931 1193 
Q 2300 781 2944 781 
Q 3303 781 3628 887 
Q 3953 994 4288 1222 
L 4288 256 
z
" transform="scale(0.015625)"/>
      <path id="DejaVuSans-Bold-4e" d="M 588 4666 
L 1931 4666 
L 3628 1466 
L 3628 4666 
L 4769 4666 
L 4769 0 
L 3425 0 
L 1728 3200 
L 1728 0 
L 588 0 
L 588 4666 
z
" transform="scale(0.015625)"/>
      <path id="DejaVuSans-Bold-20" transform="scale(0.015625)"/>
      <path id="DejaVuSans-Bold-46" d="M 588 4666 
L 3834 4666 
L 3834 3756 
L 1791 3756 
L 1791 2888 
L 3713 2888 
L 3713 1978 
L 1791 1978 
L 1791 0 
L 588 0 
L 588 4666 
z
" transform="scale(0.015625)"/>
      <path id="DejaVuSans-Bold-65" d="M 4031 1759 
L 4031 1441 
L 1416 1441 
Q 1456 1047 1700 850 
Q 1944 653 2381 653 
Q 2734 653 3104 758 
Q 3475 863 3866 1075 
L 3866 213 
Q 3469 63 3072 -14 
Q 2675 -91 2278 -91 
Q 1328 -91 801 392 
Q 275 875 275 1747 
Q 275 2603 792 3093 
Q 1309 3584 2216 3584 
Q 3041 3584 3536 3087 
Q 4031 2591 4031 1759 
z
M 2881 2131 
Q 2881 2450 2695 2645 
Q 2509 2841 2209 2841 
Q 1884 2841 1681 2658 
Q 1478 2475 1428 2131 
L 2881 2131 
z
" transform="scale(0.015625)"/>
      <path id="DejaVuSans-Bold-61" d="M 2106 1575 
Q 1756 1575 1579 1456 
Q 1403 1338 1403 1106 
Q 1403 894 1545 773 
Q 1688 653 1941 653 
Q 2256 653 2472 879 
Q 2688 1106 2688 1447 
L 2688 1575 
L 2106 1575 
z
M 3816 1997 
L 3816 0 
L 2688 0 
L 2688 519 
Q 2463 200 2181 54 
Q 1900 -91 1497 -91 
Q 953 -91 614 226 
Q 275 544 275 1050 
Q 275 1666 698 1953 
Q 1122 2241 2028 2241 
L 2688 2241 
L 2688 2328 
Q 2688 2594 2478 2717 
Q 2269 2841 1825 2841 
Q 1466 2841 1156 2769 
Q 847 2697 581 2553 
L 581 3406 
Q 941 3494 1303 3539 
Q 1666 3584 2028 3584 
Q 2975 3584 3395 3211 
Q 3816 2838 3816 1997 
z
" transform="scale(0.015625)"/>
      <path id="DejaVuSans-Bold-74" d="M 1759 4494 
L 1759 3500 
L 2913 3500 
L 2913 2700 
L 1759 2700 
L 1759 1216 
Q 1759 972 1856 886 
Q 1953 800 2241 800 
L 2816 800 
L 2816 0 
L 1856 0 
Q 1194 0 917 276 
Q 641 553 641 1216 
L 641 2700 
L 84 2700 
L 84 3500 
L 641 3500 
L 641 4494 
L 1759 4494 
z
" transform="scale(0.015625)"/>
      <path id="DejaVuSans-Bold-75" d="M 500 1363 
L 500 3500 
L 1625 3500 
L 1625 3150 
Q 1625 2866 1622 2436 
Q 1619 2006 1619 1863 
Q 1619 1441 1641 1255 
Q 1663 1069 1716 984 
Q 1784 875 1895 815 
Q 2006 756 2150 756 
Q 2500 756 2700 1025 
Q 2900 1294 2900 1772 
L 2900 3500 
L 4019 3500 
L 4019 0 
L 2900 0 
L 2900 506 
Q 2647 200 2364 54 
Q 2081 -91 1741 -91 
Q 1134 -91 817 281 
Q 500 653 500 1363 
z
" transform="scale(0.015625)"/>
      <path id="DejaVuSans-Bold-72" d="M 3138 2547 
Q 2991 2616 2845 2648 
Q 2700 2681 2553 2681 
Q 2122 2681 1889 2404 
Q 1656 2128 1656 1613 
L 1656 0 
L 538 0 
L 538 3500 
L 1656 3500 
L 1656 2925 
Q 1872 3269 2151 3426 
Q 2431 3584 2822 3584 
Q 2878 3584 2943 3579 
Q 3009 3575 3134 3559 
L 3138 2547 
z
" transform="scale(0.015625)"/>
      <path id="DejaVuSans-Bold-48" d="M 588 4666 
L 1791 4666 
L 1791 2888 
L 3566 2888 
L 3566 4666 
L 4769 4666 
L 4769 0 
L 3566 0 
L 3566 1978 
L 1791 1978 
L 1791 0 
L 588 0 
L 588 4666 
z
" transform="scale(0.015625)"/>
      <path id="DejaVuSans-Bold-69" d="M 538 3500 
L 1656 3500 
L 1656 0 
L 538 0 
L 538 3500 
z
M 538 4863 
L 1656 4863 
L 1656 3950 
L 538 3950 
L 538 4863 
z
" transform="scale(0.015625)"/>
      <path id="DejaVuSans-Bold-63" d="M 3366 3391 
L 3366 2478 
Q 3138 2634 2908 2709 
Q 2678 2784 2431 2784 
Q 1963 2784 1702 2511 
Q 1441 2238 1441 1747 
Q 1441 1256 1702 982 
Q 1963 709 2431 709 
Q 2694 709 2930 787 
Q 3166 866 3366 1019 
L 3366 103 
Q 3103 6 2833 -42 
Q 2563 -91 2291 -91 
Q 1344 -91 809 395 
Q 275 881 275 1747 
Q 275 2613 809 3098 
Q 1344 3584 2291 3584 
Q 2566 3584 2833 3536 
Q 3100 3488 3366 3391 
z
" transform="scale(0.015625)"/>
      <path id="DejaVuSans-Bold-68" d="M 4056 2131 
L 4056 0 
L 2931 0 
L 2931 347 
L 2931 1625 
Q 2931 2084 2911 2256 
Q 2891 2428 2841 2509 
Q 2775 2619 2662 2680 
Q 2550 2741 2406 2741 
Q 2056 2741 1856 2470 
Q 1656 2200 1656 1722 
L 1656 0 
L 538 0 
L 538 4863 
L 1656 4863 
L 1656 2988 
Q 1909 3294 2193 3439 
Q 2478 3584 2822 3584 
Q 3428 3584 3742 3212 
Q 4056 2841 4056 2131 
z
" transform="scale(0.015625)"/>
      <path id="DejaVuSans-Bold-79" d="M 78 3500 
L 1197 3500 
L 2138 1125 
L 2938 3500 
L 4056 3500 
L 2584 -331 
Q 2363 -916 2067 -1148 
Q 1772 -1381 1288 -1381 
L 641 -1381 
L 641 -647 
L 991 -647 
Q 1275 -647 1404 -556 
Q 1534 -466 1606 -231 
L 1638 -134 
L 78 3500 
z
" transform="scale(0.015625)"/>
     </defs>
     <use xlink:href="#DejaVuSans-Bold-43"/>
     <use xlink:href="#DejaVuSans-Bold-4e" x="73.388672"/>
     <use xlink:href="#DejaVuSans-Bold-4e" x="157.080078"/>
     <use xlink:href="#DejaVuSans-Bold-20" x="240.771484"/>
     <use xlink:href="#DejaVuSans-Bold-46" x="275.585938"/>
     <use xlink:href="#DejaVuSans-Bold-65" x="339.896484"/>
     <use xlink:href="#DejaVuSans-Bold-61" x="407.71875"/>
     <use xlink:href="#DejaVuSans-Bold-74" x="475.199219"/>
     <use xlink:href="#DejaVuSans-Bold-75" x="523.001953"/>
     <use xlink:href="#DejaVuSans-Bold-72" x="594.193359"/>
     <use xlink:href="#DejaVuSans-Bold-65" x="643.509766"/>
     <use xlink:href="#DejaVuSans-Bold-20" x="711.332031"/>
     <use xlink:href="#DejaVuSans-Bold-48" x="746.146484"/>
     <use xlink:href="#DejaVuSans-Bold-69" x="829.837891"/>
     <use xlink:href="#DejaVuSans-Bold-65" x="864.115234"/>
     <use xlink:href="#DejaVuSans-Bold-72" x="931.9375"/>
     <use xlink:href="#DejaVuSans-Bold-61" x="981.253906"/>
     <use xlink:href="#DejaVuSans-Bold-72" x="1048.734375"/>
     <use xlink:href="#DejaVuSans-Bold-63" x="1098.050781"/>
     <use xlink:href="#DejaVuSans-Bold-68" x="1157.328125"/>
     <use xlink:href="#DejaVuSans-Bold-79" x="1228.519531"/>
    </g>
   </g>
   <g id="text_4">
    <!-- Layer 1 -->
    <g style="fill: #1f2937" transform="translate(78.757148 86.051152) scale(0.095 -0.095)">
     <defs>
      <path id="DejaVuSans-Bold-4c" d="M 588 4666 
L 1791 4666 
L 1791 909 
L 3903 909 
L 3903 0 
L 588 0 
L 588 4666 
z
" transform="scale(0.015625)"/>
      <path id="DejaVuSans-Bold-31" d="M 750 831 
L 1813 831 
L 1813 3847 
L 722 3622 
L 722 4441 
L 1806 4666 
L 2950 4666 
L 2950 831 
L 4013 831 
L 4013 0 
L 750 0 
L 750 831 
z
" transform="scale(0.015625)"/>
     </defs>
     <use xlink:href="#DejaVuSans-Bold-4c"/>
     <use xlink:href="#DejaVuSans-Bold-61" x="63.720703"/>
     <use xlink:href="#DejaVuSans-Bold-79" x="128.076172"/>
     <use xlink:href="#DejaVuSans-Bold-65" x="193.261719"/>
     <use xlink:href="#DejaVuSans-Bold-72" x="261.083984"/>
     <use xlink:href="#DejaVuSans-Bold-20" x="310.400391"/>
     <use xlink:href="#DejaVuSans-Bold-31" x="345.214844"/>
    </g>
    <!-- (edges, colors) -->
    <g style="fill: #1f2937" transform="translate(58.449414 96.763293) scale(0.095 -0.095)">
     <defs>
      <path id="DejaVuSans-Bold-28" d="M 2413 -844 
L 1484 -844 
Q 1006 -72 778 623 
Q 550 1319 550 2003 
Q 550 2688 779 3389 
Q 1009 4091 1484 4856 
L 2413 4856 
Q 2013 4116 1813 3408 
Q 1613 2700 1613 2009 
Q 1613 1319 1811 609 
Q 2009 -100 2413 -844 
z
" transform="scale(0.015625)"/>
      <path id="DejaVuSans-Bold-64" d="M 2919 2988 
L 2919 4863 
L 4044 4863 
L 4044 0 
L 2919 0 
L 2919 506 
Q 2688 197 2409 53 
Q 2131 -91 1766 -91 
Q 1119 -91 703 423 
Q 288 938 288 1747 
Q 288 2556 703 3070 
Q 1119 3584 1766 3584 
Q 2128 3584 2408 3439 
Q 2688 3294 2919 2988 
z
M 2181 722 
Q 2541 722 2730 984 
Q 2919 1247 2919 1747 
Q 2919 2247 2730 2509 
Q 2541 2772 2181 2772 
Q 1825 2772 1636 2509 
Q 1447 2247 1447 1747 
Q 1447 1247 1636 984 
Q 1825 722 2181 722 
z
" transform="scale(0.015625)"/>
      <path id="DejaVuSans-Bold-67" d="M 2919 594 
Q 2688 288 2409 144 
Q 2131 0 1766 0 
Q 1125 0 706 504 
Q 288 1009 288 1791 
Q 288 2575 706 3076 
Q 1125 3578 1766 3578 
Q 2131 3578 2409 3434 
Q 2688 3291 2919 2981 
L 2919 3500 
L 4044 3500 
L 4044 353 
Q 4044 -491 3511 -936 
Q 2978 -1381 1966 -1381 
Q 1638 -1381 1331 -1331 
Q 1025 -1281 716 -1178 
L 716 -306 
Q 1009 -475 1290 -558 
Q 1572 -641 1856 -641 
Q 2406 -641 2662 -400 
Q 2919 -159 2919 353 
L 2919 594 
z
M 2181 2772 
Q 1834 2772 1640 2515 
Q 1447 2259 1447 1791 
Q 1447 1309 1634 1061 
Q 1822 813 2181 813 
Q 2531 813 2725 1069 
Q 2919 1325 2919 1791 
Q 2919 2259 2725 2515 
Q 2531 2772 2181 2772 
z
" transform="scale(0.015625)"/>
      <path id="DejaVuSans-Bold-73" d="M 3272 3391 
L 3272 2541 
Q 2913 2691 2578 2766 
Q 2244 2841 1947 2841 
Q 1628 2841 1473 2761 
Q 1319 2681 1319 2516 
Q 1319 2381 1436 2309 
Q 1553 2238 1856 2203 
L 2053 2175 
Q 2913 2066 3209 1816 
Q 3506 1566 3506 1031 
Q 3506 472 3093 190 
Q 2681 -91 1863 -91 
Q 1516 -91 1145 -36 
Q 775 19 384 128 
L 384 978 
Q 719 816 1070 734 
Q 1422 653 1784 653 
Q 2113 653 2278 743 
Q 2444 834 2444 1013 
Q 2444 1163 2330 1236 
Q 2216 1309 1875 1350 
L 1678 1375 
Q 931 1469 631 1722 
Q 331 1975 331 2491 
Q 331 3047 712 3315 
Q 1094 3584 1881 3584 
Q 2191 3584 2531 3537 
Q 2872 3491 3272 3391 
z
" transform="scale(0.015625)"/>
      <path id="DejaVuSans-Bold-2c" d="M 653 1209 
L 1778 1209 
L 1778 256 
L 1006 -909 
L 341 -909 
L 653 256 
L 653 1209 
z
" transform="scale(0.015625)"/>
      <path id="DejaVuSans-Bold-6f" d="M 2203 2784 
Q 1831 2784 1636 2517 
Q 1441 2250 1441 1747 
Q 1441 1244 1636 976 
Q 1831 709 2203 709 
Q 2569 709 2762 976 
Q 2956 1244 2956 1747 
Q 2956 2250 2762 2517 
Q 2569 2784 2203 2784 
z
M 2203 3584 
Q 3106 3584 3614 3096 
Q 4122 2609 4122 1747 
Q 4122 884 3614 396 
Q 3106 -91 2203 -91 
Q 1297 -91 786 396 
Q 275 884 275 1747 
Q 275 2609 786 3096 
Q 1297 3584 2203 3584 
z
" transform="scale(0.015625)"/>
      <path id="DejaVuSans-Bold-6c" d="M 538 4863 
L 1656 4863 
L 1656 0 
L 538 0 
L 538 4863 
z
" transform="scale(0.015625)"/>
      <path id="DejaVuSans-Bold-29" d="M 513 -844 
Q 913 -100 1113 609 
Q 1313 1319 1313 2009 
Q 1313 2700 1113 3408 
Q 913 4116 513 4856 
L 1441 4856 
Q 1916 4091 2145 3389 
Q 2375 2688 2375 2003 
Q 2375 1319 2147 623 
Q 1919 -72 1441 -844 
L 513 -844 
z
" transform="scale(0.015625)"/>
     </defs>
     <use xlink:href="#DejaVuSans-Bold-28"/>
     <use xlink:href="#DejaVuSans-Bold-65" x="45.703125"/>
     <use xlink:href="#DejaVuSans-Bold-64" x="113.525391"/>
     <use xlink:href="#DejaVuSans-Bold-67" x="185.107422"/>
     <use xlink:href="#DejaVuSans-Bold-65" x="256.689453"/>
     <use xlink:href="#DejaVuSans-Bold-73" x="324.511719"/>
     <use xlink:href="#DejaVuSans-Bold-2c" x="384.033203"/>
     <use xlink:href="#DejaVuSans-Bold-20" x="422.021484"/>
     <use xlink:href="#DejaVuSans-Bold-63" x="456.835938"/>
     <use xlink:href="#DejaVuSans-Bold-6f" x="516.113281"/>
     <use xlink:href="#DejaVuSans-Bold-6c" x="584.814453"/>
     <use xlink:href="#DejaVuSans-Bold-6f" x="619.091797"/>
     <use xlink:href="#DejaVuSans-Bold-72" x="687.792969"/>
     <use xlink:href="#DejaVuSans-Bold-73" x="737.109375"/>
     <use xlink:href="#DejaVuSans-Bold-29" x="796.630859"/>
    </g>
   </g>
   <g id="text_5">
    <!-- — -->
    <g transform="translate(45.57 179.160677) scale(0.075 -0.075)">
     <defs>
      <path id="DejaVuSans-2014" d="M 313 1978 
L 6088 1978 
L 6088 1528 
L 313 1528 
L 313 1978 
z
" transform="scale(0.015625)"/>
     </defs>
     <use xlink:href="#DejaVuSans-2014"/>
    </g>
   </g>
   <g id="text_6">
    <!-- ╱ -->
    <g transform="translate(80.758383 179.671029) scale(0.075 -0.075)">
     <defs>
      <path id="DejaVuSans-2571" d="M -278 -1538 
L 3575 5941 
L 4131 5941 
L 278 -1538 
L -278 -1538 
z
" transform="scale(0.015625)"/>
     </defs>
     <use xlink:href="#DejaVuSans-2571"/>
    </g>
   </g>
   <g id="text_7">
    <!-- ┃ -->
    <g transform="translate(114.454383 179.671029) scale(0.075 -0.075)">
     <defs>
      <path id="DejaVuSans-2503" d="M 1425 -1600 
L 1425 6003 
L 2425 6003 
L 2425 -1600 
L 1425 -1600 
z
" transform="scale(0.015625)"/>
     </defs>
     <use xlink:href="#DejaVuSans-2503"/>
    </g>
   </g>
   <g id="text_8">
    <!-- ╲ -->
    <g transform="translate(148.150383 179.671029) scale(0.075 -0.075)">
     <defs>
      <path id="DejaVuSans-2572" d="M 4131 -1538 
L 3575 -1538 
L -278 5941 
L 278 5941 
L 4131 -1538 
z
" transform="scale(0.015625)"/>
     </defs>
     <use xlink:href="#DejaVuSans-2572"/>
    </g>
   </g>
   <g id="text_9">
    <!-- Layer 2 -->
    <g style="fill: #1f2937" transform="translate(254.257148 86.088261) scale(0.095 -0.095)">
     <defs>
      <path id="DejaVuSans-Bold-32" d="M 1844 884 
L 3897 884 
L 3897 0 
L 506 0 
L 506 884 
L 2209 2388 
Q 2438 2594 2547 2791 
Q 2656 2988 2656 3200 
Q 2656 3528 2436 3728 
Q 2216 3928 1850 3928 
Q 1569 3928 1234 3808 
Q 900 3688 519 3450 
L 519 4475 
Q 925 4609 1322 4679 
Q 1719 4750 2100 4750 
Q 2938 4750 3402 4381 
Q 3866 4013 3866 3353 
Q 3866 2972 3669 2642 
Q 3472 2313 2841 1759 
L 1844 884 
z
" transform="scale(0.015625)"/>
     </defs>
     <use xlink:href="#DejaVuSans-Bold-4c"/>
     <use xlink:href="#DejaVuSans-Bold-61" x="63.720703"/>
     <use xlink:href="#DejaVuSans-Bold-79" x="128.076172"/>
     <use xlink:href="#DejaVuSans-Bold-65" x="193.261719"/>
     <use xlink:href="#DejaVuSans-Bold-72" x="261.083984"/>
     <use xlink:href="#DejaVuSans-Bold-20" x="310.400391"/>
     <use xlink:href="#DejaVuSans-Bold-32" x="345.214844"/>
    </g>
    <!-- (corners, textures) -->
    <g style="fill: #1f2937" transform="translate(223.367305 96.800402) scale(0.095 -0.095)">
     <defs>
      <path id="DejaVuSans-Bold-6e" d="M 4056 2131 
L 4056 0 
L 2931 0 
L 2931 347 
L 2931 1631 
Q 2931 2084 2911 2256 
Q 2891 2428 2841 2509 
Q 2775 2619 2662 2680 
Q 2550 2741 2406 2741 
Q 2056 2741 1856 2470 
Q 1656 2200 1656 1722 
L 1656 0 
L 538 0 
L 538 3500 
L 1656 3500 
L 1656 2988 
Q 1909 3294 2193 3439 
Q 2478 3584 2822 3584 
Q 3428 3584 3742 3212 
Q 4056 2841 4056 2131 
z
" transform="scale(0.015625)"/>
      <path id="DejaVuSans-Bold-78" d="M 1422 1791 
L 159 3500 
L 1344 3500 
L 2059 2463 
L 2784 3500 
L 3969 3500 
L 2706 1797 
L 4031 0 
L 2847 0 
L 2059 1106 
L 1281 0 
L 97 0 
L 1422 1791 
z
" transform="scale(0.015625)"/>
     </defs>
     <use xlink:href="#DejaVuSans-Bold-28"/>
     <use xlink:href="#DejaVuSans-Bold-63" x="45.703125"/>
     <use xlink:href="#DejaVuSans-Bold-6f" x="104.980469"/>
     <use xlink:href="#DejaVuSans-Bold-72" x="173.681641"/>
     <use xlink:href="#DejaVuSans-Bold-6e" x="222.998047"/>
     <use xlink:href="#DejaVuSans-Bold-65" x="294.189453"/>
     <use xlink:href="#DejaVuSans-Bold-72" x="362.011719"/>
     <use xlink:href="#DejaVuSans-Bold-73" x="411.328125"/>
     <use xlink:href="#DejaVuSans-Bold-2c" x="470.849609"/>
     <use xlink:href="#DejaVuSans-Bold-20" x="508.837891"/>
     <use xlink:href="#DejaVuSans-Bold-74" x="543.652344"/>
     <use xlink:href="#DejaVuSans-Bold-65" x="591.455078"/>
     <use xlink:href="#DejaVuSans-Bold-78" x="659.277344"/>
     <use xlink:href="#DejaVuSans-Bold-74" x="723.779297"/>
     <use xlink:href="#DejaVuSans-Bold-75" x="771.582031"/>
     <use xlink:href="#DejaVuSans-Bold-72" x="842.773438"/>
     <use xlink:href="#DejaVuSans-Bold-65" x="892.089844"/>
     <use xlink:href="#DejaVuSans-Bold-73" x="959.912109"/>
     <use xlink:href="#DejaVuSans-Bold-29" x="1019.433594"/>
    </g>
   </g>
   <g id="text_10">
    <!-- ▦ -->
    <g transform="translate(221.276836 179.160677) scale(0.075 -0.075)">
     <defs>
      <path id="DejaVuSans-25a6" d="M 1838 -425 
L 2394 -425 
L 2394 119 
L 1838 119 
L 1838 -425 
z
M 2750 -425 
L 3300 -425 
L 3300 119 
L 2750 119 
L 2750 -425 
z
M 3656 -425 
L 4213 -425 
L 4213 119 
L 3656 119 
L 3656 -425 
z
M 938 3206 
L 1481 3206 
L 1481 3750 
L 938 3750 
L 938 3206 
z
M 938 2294 
L 1481 2294 
L 1481 2850 
L 938 2850 
L 938 2294 
z
M 938 1388 
L 1481 1388 
L 1481 1938 
L 938 1938 
L 938 1388 
z
M 938 475 
L 1481 475 
L 1481 1031 
L 938 1031 
L 938 475 
z
M 938 -425 
L 1481 -425 
L 1481 119 
L 938 119 
L 938 -425 
z
M 1838 3206 
L 2394 3206 
L 2394 3750 
L 1838 3750 
L 1838 3206 
z
M 1838 2294 
L 2394 2294 
L 2394 2850 
L 1838 2850 
L 1838 2294 
z
M 1838 1388 
L 2394 1388 
L 2394 1938 
L 1838 1938 
L 1838 1388 
z
M 1838 475 
L 2394 475 
L 2394 1031 
L 1838 1031 
L 1838 475 
z
M 2750 3206 
L 3300 3206 
L 3300 3750 
L 2750 3750 
L 2750 3206 
z
M 2750 2294 
L 3300 2294 
L 3300 2850 
L 2750 2850 
L 2750 2294 
z
M 2750 1388 
L 3300 1388 
L 3300 1938 
L 2750 1938 
L 2750 1388 
z
M 2750 475 
L 3300 475 
L 3300 1031 
L 2750 1031 
L 2750 475 
z
M 3656 3206 
L 4213 3206 
L 4213 3750 
L 3656 3750 
L 3656 3206 
z
M 3656 2294 
L 4213 2294 
L 4213 2850 
L 3656 2850 
L 3656 2294 
z
M 3656 1388 
L 4213 1388 
L 4213 1938 
L 3656 1938 
L 3656 1388 
z
M 3656 475 
L 4213 475 
L 4213 1031 
L 3656 1031 
L 3656 475 
z
M 4569 3206 
L 5109 3206 
L 5109 3750 
L 4569 3750 
L 4569 3206 
z
M 4569 2294 
L 5109 2294 
L 5109 2850 
L 4569 2850 
L 4569 2294 
z
M 4569 1388 
L 5109 1388 
L 5109 1938 
L 4569 1938 
L 4569 1388 
z
M 4569 475 
L 5109 475 
L 5109 1031 
L 4569 1031 
L 4569 475 
z
M 4569 -425 
L 5109 -425 
L 5109 119 
L 4569 119 
L 4569 -425 
z
M 581 -788 
L 581 4113 
L 5466 4113 
L 5466 -788 
L 581 -788 
z
" transform="scale(0.015625)"/>
     </defs>
     <use xlink:href="#DejaVuSans-25a6"/>
    </g>
   </g>
   <g id="text_11">
    <!-- ▩ -->
    <g transform="translate(254.972836 179.160677) scale(0.075 -0.075)">
     <defs>
      <path id="DejaVuSans-25a9" d="M 938 3359 
L 1094 3206 
L 1481 3594 
L 1316 3756 
L 938 3756 
L 938 3359 
z
M 938 2069 
L 1094 1913 
L 1488 2306 
L 1094 2700 
L 938 2547 
L 938 2069 
z
M 1984 3594 
L 2378 3200 
L 2772 3594 
L 2606 3756 
L 2150 3756 
L 1984 3594 
z
M 1344 2953 
L 1738 2559 
L 2125 2947 
L 1731 3341 
L 1344 2953 
z
M 938 778 
L 1094 625 
L 1488 1019 
L 1094 1409 
L 938 1256 
L 938 778 
z
M 3275 3594 
L 3669 3200 
L 4063 3594 
L 3897 3756 
L 3441 3756 
L 3275 3594 
z
M 2631 2947 
L 3025 2556 
L 3416 2947 
L 3025 3341 
L 2631 2947 
z
M 1991 2306 
L 2381 1913 
L 2772 2303 
L 2378 2694 
L 1991 2306 
z
M 1344 1663 
L 1738 1269 
L 2131 1663 
L 1738 2056 
L 1344 1663 
z
M 4566 3594 
L 4956 3206 
L 5109 3359 
L 5109 3756 
L 4731 3756 
L 4566 3594 
z
M 3922 2947 
L 4309 2559 
L 4703 2953 
L 4316 3341 
L 3922 2947 
z
M 3275 2303 
L 3663 1913 
L 4056 2306 
L 3669 2694 
L 3275 2303 
z
M 2634 1663 
L 3025 1275 
L 3413 1663 
L 3025 2050 
L 2634 1663 
z
M 1991 1016 
L 2378 628 
L 2772 1022 
L 2384 1409 
L 1991 1016 
z
M 1344 372 
L 1734 -16 
L 2125 375 
L 1738 766 
L 1344 372 
z
M 938 -431 
L 1319 -431 
L 1481 -269 
L 1094 119 
L 938 -34 
L 938 -431 
z
M 4563 2306 
L 4956 1913 
L 5109 2069 
L 5109 2547 
L 4953 2700 
L 4563 2306 
z
M 3916 1663 
L 4309 1269 
L 4703 1663 
L 4309 2056 
L 3916 1663 
z
M 3275 1022 
L 3669 628 
L 4056 1016 
L 3663 1409 
L 3275 1022 
z
M 2631 375 
L 3025 -19 
L 3419 375 
L 3025 769 
L 2631 375 
z
M 1984 -269 
L 2150 -431 
L 2609 -431 
L 2772 -269 
L 2378 125 
L 1984 -269 
z
M 4563 1019 
L 4953 625 
L 5109 778 
L 5109 1256 
L 4953 1409 
L 4563 1019 
z
M 3919 375 
L 4313 -16 
L 4703 372 
L 4309 766 
L 3919 375 
z
M 3275 -269 
L 3438 -431 
L 3897 -431 
L 4063 -269 
L 3669 125 
L 3275 -269 
z
M 4566 -269 
L 4728 -431 
L 5109 -431 
L 5109 -34 
L 4953 119 
L 4566 -269 
z
M 581 -788 
L 581 4113 
L 5466 4113 
L 5466 -788 
L 581 -788 
z
" transform="scale(0.015625)"/>
     </defs>
     <use xlink:href="#DejaVuSans-25a9"/>
    </g>
   </g>
   <g id="text_12">
    <!-- ▥ -->
    <g transform="translate(288.668836 179.160677) scale(0.075 -0.075)">
     <defs>
      <path id="DejaVuSans-25a5" d="M 581 -788 
L 581 4113 
L 5466 4113 
L 5466 -788 
L 581 -788 
z
M 4569 -425 
L 5119 -425 
L 5119 3750 
L 4569 3750 
L 4569 -425 
z
M 3656 -425 
L 4213 -425 
L 4213 3750 
L 3656 3750 
L 3656 -425 
z
M 2750 -425 
L 3300 -425 
L 3300 3750 
L 2750 3750 
L 2750 -425 
z
M 1838 -425 
L 2394 -425 
L 2394 3750 
L 1838 3750 
L 1838 -425 
z
M 931 -425 
L 1481 -425 
L 1481 3750 
L 931 3750 
L 931 -425 
z
" transform="scale(0.015625)"/>
     </defs>
     <use xlink:href="#DejaVuSans-25a5"/>
    </g>
   </g>
   <g id="text_13">
    <!-- ░ -->
    <g transform="translate(323.024016 179.039388) scale(0.075 -0.075)">
     <defs>
      <path id="DejaVuSans-2591" d="M 3722 -1600 
L 3722 -784 
L 4353 -784 
L 4353 -1600 
L 3722 -1600 
z
M 1197 -1600 
L 1197 -784 
L 1828 -784 
L 1828 -1600 
L 1197 -1600 
z
M 2459 -459 
L 2459 356 
L 3091 356 
L 3091 -459 
L 2459 -459 
z
M -63 -459 
L -63 356 
L 566 356 
L 566 -459 
L -63 -459 
z
M 3722 684 
L 3722 1500 
L 4353 1500 
L 4353 684 
L 3722 684 
z
M 1197 684 
L 1197 1500 
L 1828 1500 
L 1828 684 
L 1197 684 
z
M 2459 1825 
L 2459 2641 
L 3091 2641 
L 3091 1825 
L 2459 1825 
z
M -63 1825 
L -63 2641 
L 566 2641 
L 566 1825 
L -63 1825 
z
M 3722 2969 
L 3722 3784 
L 4353 3784 
L 4353 2969 
L 3722 2969 
z
M 1197 2969 
L 1197 3784 
L 1828 3784 
L 1828 2969 
L 1197 2969 
z
M 2459 4109 
L 2459 4925 
L 3091 4925 
L 3091 4109 
L 2459 4109 
z
M -63 4109 
L -63 4925 
L 566 4925 
L 566 4109 
L -63 4109 
z
" transform="scale(0.015625)"/>
     </defs>
     <use xlink:href="#DejaVuSans-2591"/>
    </g>
   </g>
   <g id="text_14">
    <!-- Layer 3 -->
    <g style="fill: #1f2937" transform="translate(443.797148 86.088261) scale(0.095 -0.095)">
     <defs>
      <path id="DejaVuSans-Bold-33" d="M 2981 2516 
Q 3453 2394 3698 2092 
Q 3944 1791 3944 1325 
Q 3944 631 3412 270 
Q 2881 -91 1863 -91 
Q 1503 -91 1142 -33 
Q 781 25 428 141 
L 428 1069 
Q 766 900 1098 814 
Q 1431 728 1753 728 
Q 2231 728 2486 893 
Q 2741 1059 2741 1369 
Q 2741 1688 2480 1852 
Q 2219 2016 1709 2016 
L 1228 2016 
L 1228 2791 
L 1734 2791 
Q 2188 2791 2409 2933 
Q 2631 3075 2631 3366 
Q 2631 3634 2415 3781 
Q 2200 3928 1806 3928 
Q 1516 3928 1219 3862 
Q 922 3797 628 3669 
L 628 4550 
Q 984 4650 1334 4700 
Q 1684 4750 2022 4750 
Q 2931 4750 3382 4451 
Q 3834 4153 3834 3553 
Q 3834 3144 3618 2883 
Q 3403 2622 2981 2516 
z
" transform="scale(0.015625)"/>
     </defs>
     <use xlink:href="#DejaVuSans-Bold-4c"/>
     <use xlink:href="#DejaVuSans-Bold-61" x="63.720703"/>
     <use xlink:href="#DejaVuSans-Bold-79" x="128.076172"/>
     <use xlink:href="#DejaVuSans-Bold-65" x="193.261719"/>
     <use xlink:href="#DejaVuSans-Bold-72" x="261.083984"/>
     <use xlink:href="#DejaVuSans-Bold-20" x="310.400391"/>
     <use xlink:href="#DejaVuSans-Bold-33" x="345.214844"/>
    </g>
    <!-- (shapes, parts) -->
    <g style="fill: #1f2937" transform="translate(422.7925 96.800402) scale(0.095 -0.095)">
     <defs>
      <path id="DejaVuSans-Bold-70" d="M 1656 506 
L 1656 -1331 
L 538 -1331 
L 538 3500 
L 1656 3500 
L 1656 2988 
Q 1888 3294 2169 3439 
Q 2450 3584 2816 3584 
Q 3463 3584 3878 3070 
Q 4294 2556 4294 1747 
Q 4294 938 3878 423 
Q 3463 -91 2816 -91 
Q 2450 -91 2169 54 
Q 1888 200 1656 506 
z
M 2400 2772 
Q 2041 2772 1848 2508 
Q 1656 2244 1656 1747 
Q 1656 1250 1848 986 
Q 2041 722 2400 722 
Q 2759 722 2948 984 
Q 3138 1247 3138 1747 
Q 3138 2247 2948 2509 
Q 2759 2772 2400 2772 
z
" transform="scale(0.015625)"/>
     </defs>
     <use xlink:href="#DejaVuSans-Bold-28"/>
     <use xlink:href="#DejaVuSans-Bold-73" x="45.703125"/>
     <use xlink:href="#DejaVuSans-Bold-68" x="105.224609"/>
     <use xlink:href="#DejaVuSans-Bold-61" x="176.416016"/>
     <use xlink:href="#DejaVuSans-Bold-70" x="243.896484"/>
     <use xlink:href="#DejaVuSans-Bold-65" x="315.478516"/>
     <use xlink:href="#DejaVuSans-Bold-73" x="383.300781"/>
     <use xlink:href="#DejaVuSans-Bold-2c" x="442.822266"/>
     <use xlink:href="#DejaVuSans-Bold-20" x="480.810547"/>
     <use xlink:href="#DejaVuSans-Bold-70" x="515.625"/>
     <use xlink:href="#DejaVuSans-Bold-61" x="587.207031"/>
     <use xlink:href="#DejaVuSans-Bold-72" x="654.6875"/>
     <use xlink:href="#DejaVuSans-Bold-74" x="704.003906"/>
     <use xlink:href="#DejaVuSans-Bold-73" x="751.806641"/>
     <use xlink:href="#DejaVuSans-Bold-29" x="811.328125"/>
    </g>
   </g>
   <g id="text_15">
    <!-- ◯ -->
    <g transform="translate(410.16293 179.039388) scale(0.075 -0.075)">
     <defs>
      <path id="DejaVuSans-25ef" d="M 2169 4109 
Q 753 3294 753 1662 
Q 753 31 2169 -784 
Q 2875 -1194 3581 -1194 
Q 4288 -1194 4994 -784 
Q 6409 31 6409 1662 
Q 6409 3294 4994 4109 
Q 4288 4519 3581 4519 
Q 2875 4519 2169 4109 
z
M 1966 -1131 
Q 350 -200 350 1662 
Q 350 3525 1966 4456 
Q 2775 4925 3581 4925 
Q 4388 4925 5197 4456 
Q 6813 3525 6813 1662 
Q 6813 -200 5197 -1131 
Q 4388 -1600 3581 -1600 
Q 2775 -1600 1966 -1131 
z
" transform="scale(0.015625)"/>
     </defs>
     <use xlink:href="#DejaVuSans-25ef"/>
    </g>
   </g>
   <g id="text_16">
    <!-- ▭ -->
    <g transform="translate(444.512836 179.160677) scale(0.075 -0.075)">
     <defs>
      <path id="DejaVuSans-25ad" d="M 5109 838 
L 5109 2488 
L 938 2488 
L 938 838 
L 5109 838 
z
M 5466 481 
L 581 481 
L 581 2844 
L 5466 2844 
L 5466 481 
z
" transform="scale(0.015625)"/>
     </defs>
     <use xlink:href="#DejaVuSans-25ad"/>
    </g>
   </g>
   <g id="text_17">
    <!-- △ -->
    <g transform="translate(478.868016 179.160677) scale(0.075 -0.075)">
     <defs>
      <path id="DejaVuSans-25b3" d="M 553 -431 
L 4369 -431 
L 2459 3400 
L 553 -431 
z
M 19 -788 
L 2459 4113 
L 4903 -788 
L 19 -788 
z
" transform="scale(0.015625)"/>
     </defs>
     <use xlink:href="#DejaVuSans-25b3"/>
    </g>
   </g>
   <g id="text_18">
    <!-- ⬡ -->
    <g transform="translate(512.173781 179.160677) scale(0.075 -0.075)">
     <defs>
      <path id="DejaVuSans-2b21" d="M 825 966 
L 2794 -169 
L 4763 966 
L 4763 3241 
L 2794 4375 
L 825 3241 
L 825 966 
z
M 469 759 
L 469 3447 
L 2794 4788 
L 5119 3447 
L 5119 759 
L 2794 -581 
L 469 759 
z
" transform="scale(0.015625)"/>
     </defs>
     <use xlink:href="#DejaVuSans-2b21"/>
    </g>
   </g>
   <g id="text_19">
    <!-- Layer 4 -->
    <g style="fill: #1f2937" transform="translate(619.297148 86.051152) scale(0.095 -0.095)">
     <defs>
      <path id="DejaVuSans-Bold-34" d="M 2356 3675 
L 1038 1722 
L 2356 1722 
L 2356 3675 
z
M 2156 4666 
L 3494 4666 
L 3494 1722 
L 4159 1722 
L 4159 850 
L 3494 850 
L 3494 0 
L 2356 0 
L 2356 850 
L 288 850 
L 288 1881 
L 2156 4666 
z
" transform="scale(0.015625)"/>
     </defs>
     <use xlink:href="#DejaVuSans-Bold-4c"/>
     <use xlink:href="#DejaVuSans-Bold-61" x="63.720703"/>
     <use xlink:href="#DejaVuSans-Bold-79" x="128.076172"/>
     <use xlink:href="#DejaVuSans-Bold-65" x="193.261719"/>
     <use xlink:href="#DejaVuSans-Bold-72" x="261.083984"/>
     <use xlink:href="#DejaVuSans-Bold-20" x="310.400391"/>
     <use xlink:href="#DejaVuSans-Bold-34" x="345.214844"/>
    </g>
    <!-- (objects, faces) -->
    <g style="fill: #1f2937" transform="translate(597.637148 96.763293) scale(0.095 -0.095)">
     <defs>
      <path id="DejaVuSans-Bold-62" d="M 2400 722 
Q 2759 722 2948 984 
Q 3138 1247 3138 1747 
Q 3138 2247 2948 2509 
Q 2759 2772 2400 2772 
Q 2041 2772 1848 2508 
Q 1656 2244 1656 1747 
Q 1656 1250 1848 986 
Q 2041 722 2400 722 
z
M 1656 2988 
Q 1888 3294 2169 3439 
Q 2450 3584 2816 3584 
Q 3463 3584 3878 3070 
Q 4294 2556 4294 1747 
Q 4294 938 3878 423 
Q 3463 -91 2816 -91 
Q 2450 -91 2169 54 
Q 1888 200 1656 506 
L 1656 0 
L 538 0 
L 538 4863 
L 1656 4863 
L 1656 2988 
z
" transform="scale(0.015625)"/>
      <path id="DejaVuSans-Bold-6a" d="M 538 3500 
L 1656 3500 
L 1656 63 
Q 1656 -641 1318 -1011 
Q 981 -1381 341 -1381 
L -213 -1381 
L -213 -647 
L -19 -647 
Q 300 -647 419 -503 
Q 538 -359 538 63 
L 538 3500 
z
M 538 4863 
L 1656 4863 
L 1656 3950 
L 538 3950 
L 538 4863 
z
" transform="scale(0.015625)"/>
      <path id="DejaVuSans-Bold-66" d="M 2841 4863 
L 2841 4128 
L 2222 4128 
Q 1984 4128 1890 4042 
Q 1797 3956 1797 3744 
L 1797 3500 
L 2753 3500 
L 2753 2700 
L 1797 2700 
L 1797 0 
L 678 0 
L 678 2700 
L 122 2700 
L 122 3500 
L 678 3500 
L 678 3744 
Q 678 4316 997 4589 
Q 1316 4863 1984 4863 
L 2841 4863 
z
" transform="scale(0.015625)"/>
     </defs>
     <use xlink:href="#DejaVuSans-Bold-28"/>
     <use xlink:href="#DejaVuSans-Bold-6f" x="45.703125"/>
     <use xlink:href="#DejaVuSans-Bold-62" x="114.404297"/>
     <use xlink:href="#DejaVuSans-Bold-6a" x="185.986328"/>
     <use xlink:href="#DejaVuSans-Bold-65" x="220.263672"/>
     <use xlink:href="#DejaVuSans-Bold-63" x="288.085938"/>
     <use xlink:href="#DejaVuSans-Bold-74" x="347.363281"/>
     <use xlink:href="#DejaVuSans-Bold-73" x="395.166016"/>
     <use xlink:href="#DejaVuSans-Bold-2c" x="454.6875"/>
     <use xlink:href="#DejaVuSans-Bold-20" x="492.675781"/>
     <use xlink:href="#DejaVuSans-Bold-66" x="527.490234"/>
     <use xlink:href="#DejaVuSans-Bold-61" x="570.996094"/>
     <use xlink:href="#DejaVuSans-Bold-63" x="638.476562"/>
     <use xlink:href="#DejaVuSans-Bold-65" x="697.753906"/>
     <use xlink:href="#DejaVuSans-Bold-73" x="765.576172"/>
     <use xlink:href="#DejaVuSans-Bold-29" x="825.097656"/>
    </g>
   </g>
   <g id="text_20">
    <!-- cat -->
    <g transform="translate(584.029922 179.160677) scale(0.075 -0.075)">
     <use xlink:href="#DejaVuSans-63"/>
     <use xlink:href="#DejaVuSans-61" x="54.980469"/>
     <use xlink:href="#DejaVuSans-74" x="116.259766"/>
    </g>
   </g>
   <g id="text_21">
    <!-- car -->
    <g transform="translate(617.654438 179.160677) scale(0.075 -0.075)">
     <use xlink:href="#DejaVuSans-63"/>
     <use xlink:href="#DejaVuSans-61" x="54.980469"/>
     <use xlink:href="#DejaVuSans-72" x="116.259766"/>
    </g>
   </g>
   <g id="text_22">
    <!-- jet -->
    <g transform="translate(652.432664 179.160677) scale(0.075 -0.075)">
     <defs>
      <path id="DejaVuSans-6a" d="M 603 3500 
L 1178 3500 
L 1178 -63 
Q 1178 -731 923 -1031 
Q 669 -1331 103 -1331 
L -116 -1331 
L -116 -844 
L 38 -844 
Q 366 -844 484 -692 
Q 603 -541 603 -63 
L 603 3500 
z
M 603 4863 
L 1178 4863 
L 1178 4134 
L 603 4134 
L 603 4863 
z
" transform="scale(0.015625)"/>
     </defs>
     <use xlink:href="#DejaVuSans-6a"/>
     <use xlink:href="#DejaVuSans-65" x="27.783203"/>
     <use xlink:href="#DejaVuSans-74" x="89.306641"/>
    </g>
   </g>
   <g id="text_23">
    <!-- house -->
    <g transform="translate(679.639406 179.160677) scale(0.075 -0.075)">
     <defs>
      <path id="DejaVuSans-68" d="M 3513 2113 
L 3513 0 
L 2938 0 
L 2938 2094 
Q 2938 2591 2744 2837 
Q 2550 3084 2163 3084 
Q 1697 3084 1428 2787 
Q 1159 2491 1159 1978 
L 1159 0 
L 581 0 
L 581 4863 
L 1159 4863 
L 1159 2956 
Q 1366 3272 1645 3428 
Q 1925 3584 2291 3584 
Q 2894 3584 3203 3211 
Q 3513 2838 3513 2113 
z
" transform="scale(0.015625)"/>
      <path id="DejaVuSans-75" d="M 544 1381 
L 544 3500 
L 1119 3500 
L 1119 1403 
Q 1119 906 1312 657 
Q 1506 409 1894 409 
Q 2359 409 2629 706 
Q 2900 1003 2900 1516 
L 2900 3500 
L 3475 3500 
L 3475 0 
L 2900 0 
L 2900 538 
Q 2691 219 2414 64 
Q 2138 -91 1772 -91 
Q 1169 -91 856 284 
Q 544 659 544 1381 
z
M 1991 3584 
L 1991 3584 
z
" transform="scale(0.015625)"/>
     </defs>
     <use xlink:href="#DejaVuSans-68"/>
     <use xlink:href="#DejaVuSans-6f" x="63.378906"/>
     <use xlink:href="#DejaVuSans-75" x="124.560547"/>
     <use xlink:href="#DejaVuSans-73" x="187.939453"/>
     <use xlink:href="#DejaVuSans-65" x="240.039062"/>
    </g>
   </g>
   <g id="text_24">
    <!-- Output -->
    <g style="fill: #1f2937" transform="translate(774.698281 86.16248) scale(0.095 -0.095)">
     <defs>
      <path id="DejaVuSans-Bold-4f" d="M 2719 3878 
Q 2169 3878 1866 3472 
Q 1563 3066 1563 2328 
Q 1563 1594 1866 1187 
Q 2169 781 2719 781 
Q 3272 781 3575 1187 
Q 3878 1594 3878 2328 
Q 3878 3066 3575 3472 
Q 3272 3878 2719 3878 
z
M 2719 4750 
Q 3844 4750 4481 4106 
Q 5119 3463 5119 2328 
Q 5119 1197 4481 553 
Q 3844 -91 2719 -91 
Q 1597 -91 958 553 
Q 319 1197 319 2328 
Q 319 3463 958 4106 
Q 1597 4750 2719 4750 
z
" transform="scale(0.015625)"/>
     </defs>
     <use xlink:href="#DejaVuSans-Bold-4f"/>
     <use xlink:href="#DejaVuSans-Bold-75" x="85.009766"/>
     <use xlink:href="#DejaVuSans-Bold-74" x="156.201172"/>
     <use xlink:href="#DejaVuSans-Bold-70" x="204.003906"/>
     <use xlink:href="#DejaVuSans-Bold-75" x="275.585938"/>
     <use xlink:href="#DejaVuSans-Bold-74" x="346.777344"/>
    </g>
    <!-- (class) -->
    <g style="fill: #1f2937" transform="translate(775.794492 96.800402) scale(0.095 -0.095)">
     <use xlink:href="#DejaVuSans-Bold-28"/>
     <use xlink:href="#DejaVuSans-Bold-63" x="45.703125"/>
     <use xlink:href="#DejaVuSans-Bold-6c" x="104.980469"/>
     <use xlink:href="#DejaVuSans-Bold-61" x="139.257812"/>
     <use xlink:href="#DejaVuSans-Bold-73" x="206.738281"/>
     <use xlink:href="#DejaVuSans-Bold-73" x="266.259766"/>
     <use xlink:href="#DejaVuSans-Bold-29" x="325.78125"/>
    </g>
   </g>
   <g id="text_25">
    <!-- cat -->
    <g transform="translate(738.469922 174.961497) scale(0.075 -0.075)">
     <use xlink:href="#DejaVuSans-63"/>
     <use xlink:href="#DejaVuSans-61" x="54.980469"/>
     <use xlink:href="#DejaVuSans-74" x="116.259766"/>
    </g>
    <!-- 92% -->
    <g transform="translate(735.965039 183.359857) scale(0.075 -0.075)">
     <defs>
      <path id="DejaVuSans-39" d="M 703 97 
L 703 672 
Q 941 559 1184 500 
Q 1428 441 1663 441 
Q 2288 441 2617 861 
Q 2947 1281 2994 2138 
Q 2813 1869 2534 1725 
Q 2256 1581 1919 1581 
Q 1219 1581 811 2004 
Q 403 2428 403 3163 
Q 403 3881 828 4315 
Q 1253 4750 1959 4750 
Q 2769 4750 3195 4129 
Q 3622 3509 3622 2328 
Q 3622 1225 3098 567 
Q 2575 -91 1691 -91 
Q 1453 -91 1209 -44 
Q 966 3 703 97 
z
M 1959 2075 
Q 2384 2075 2632 2365 
Q 2881 2656 2881 3163 
Q 2881 3666 2632 3958 
Q 2384 4250 1959 4250 
Q 1534 4250 1286 3958 
Q 1038 3666 1038 3163 
Q 1038 2656 1286 2365 
Q 1534 2075 1959 2075 
z
" transform="scale(0.015625)"/>
      <path id="DejaVuSans-32" d="M 1228 531 
L 3431 531 
L 3431 0 
L 469 0 
L 469 531 
Q 828 903 1448 1529 
Q 2069 2156 2228 2338 
Q 2531 2678 2651 2914 
Q 2772 3150 2772 3378 
Q 2772 3750 2511 3984 
Q 2250 4219 1831 4219 
Q 1534 4219 1204 4116 
Q 875 4013 500 3803 
L 500 4441 
Q 881 4594 1212 4672 
Q 1544 4750 1819 4750 
Q 2544 4750 2975 4387 
Q 3406 4025 3406 3419 
Q 3406 3131 3298 2873 
Q 3191 2616 2906 2266 
Q 2828 2175 2409 1742 
Q 1991 1309 1228 531 
z
" transform="scale(0.015625)"/>
      <path id="DejaVuSans-25" d="M 4653 2053 
Q 4381 2053 4226 1822 
Q 4072 1591 4072 1178 
Q 4072 772 4226 539 
Q 4381 306 4653 306 
Q 4919 306 5073 539 
Q 5228 772 5228 1178 
Q 5228 1588 5073 1820 
Q 4919 2053 4653 2053 
z
M 4653 2450 
Q 5147 2450 5437 2106 
Q 5728 1763 5728 1178 
Q 5728 594 5436 251 
Q 5144 -91 4653 -91 
Q 4153 -91 3862 251 
Q 3572 594 3572 1178 
Q 3572 1766 3864 2108 
Q 4156 2450 4653 2450 
z
M 1428 4353 
Q 1159 4353 1004 4120 
Q 850 3888 850 3481 
Q 850 3069 1003 2837 
Q 1156 2606 1428 2606 
Q 1700 2606 1854 2837 
Q 2009 3069 2009 3481 
Q 2009 3884 1853 4118 
Q 1697 4353 1428 4353 
z
M 4250 4750 
L 4750 4750 
L 1831 -91 
L 1331 -91 
L 4250 4750 
z
M 1428 4750 
Q 1922 4750 2215 4408 
Q 2509 4066 2509 3481 
Q 2509 2891 2217 2550 
Q 1925 2209 1428 2209 
Q 931 2209 642 2551 
Q 353 2894 353 3481 
Q 353 4063 643 4406 
Q 934 4750 1428 4750 
z
" transform="scale(0.015625)"/>
     </defs>
     <use xlink:href="#DejaVuSans-39"/>
     <use xlink:href="#DejaVuSans-32" x="63.623047"/>
     <use xlink:href="#DejaVuSans-25" x="127.246094"/>
    </g>
   </g>
  </g>
 </g>
 <defs>
  <clipPath id="p030b8e866b">
   <rect x="7.2" y="25.837812" width="842.4" height="283.6"/>
  </clipPath>
 </defs>
</svg>
