<?xml version="1.0" encoding="utf-8" standalone="no"?>
<!DOCTYPE svg PUBLIC "-//W3C//DTD SVG 1.1//EN"
  "http://www.w3.org/Graphics/SVG/1.1/DTD/svg11.dtd">
<svg xmlns:xlink="http://www.w3.org/1999/xlink" width="784.8pt" height="496.637812pt" viewBox="0 0 784.8 496.637812" xmlns="http://www.w3.org/2000/svg" version="1.1">
 <metadata>
  <rdf:RDF xmlns:dc="http://purl.org/dc/elements/1.1/" xmlns:cc="http://creativecommons.org/ns#" xmlns:rdf="http://www.w3.org/1999/02/22-rdf-syntax-ns#">
   <cc:Work>
    <dc:type rdf:resource="http://purl.org/dc/dcmitype/StillImage"/>
    <dc:date>2026-04-24T07:26:55.087642</dc:date>
    <dc:format>image/svg+xml</dc:format>
    <dc:creator>
     <cc:Agent>
      <dc:title>Matplotlib v3.8.0, https://matplotlib.org/</dc:title>
     </cc:Agent>
    </dc:creator>
   </cc:Work>
  </rdf:RDF>
 </metadata>
 <defs>
  <style type="text/css">*{stroke-linejoin: round; stroke-linecap: butt}</style>
 </defs>
 <g id="figure_1">
  <g id="patch_1">
   <path d="M 0 496.637812 
L 784.8 496.637812 
L 784.8 0 
L 0 0 
z
" style="fill: #ffffff"/>
  </g>
  <g id="axes_1">
   <g id="patch_2">
    <path d="M 206.103273 94.384384 
L 578.696727 94.384384 
Q 589.202182 94.384384 589.202182 84.450098 
L 589.202182 59.945527 
Q 589.202182 50.011241 578.696727 50.011241 
L 206.103273 50.011241 
Q 195.597818 50.011241 195.597818 59.945527 
L 195.597818 84.450098 
Q 195.597818 94.384384 206.103273 94.384384 
z
" clip-path="url(#p545012821a)" style="fill: #f3f4f6; stroke: #6b7280; stroke-width: 2; stroke-linejoin: miter"/>
   </g>
   <g id="patch_3">
    <path d="M 392.4 95.059767 
Q 392.4 96.206052 392.4 95.675287 
" style="fill: none; stroke: #374151; stroke-width: 1.5; stroke-linecap: round"/>
    <path d="M 394.4 91.675287 
L 392.4 95.675287 
L 390.4 91.675287 
z
" style="fill: #374151; stroke: #374151; stroke-width: 1.5; stroke-linecap: round"/>
   </g>
   <g id="patch_4">
    <path d="M 101.048727 165.580098 
L 683.751273 165.580098 
Q 694.256727 165.580098 694.256727 155.645812 
L 694.256727 107.961241 
Q 694.256727 98.026955 683.751273 98.026955 
L 101.048727 98.026955 
Q 90.543273 98.026955 90.543273 107.961241 
L 90.543273 155.645812 
Q 90.543273 165.580098 101.048727 165.580098 
z
" clip-path="url(#p545012821a)" style="fill: #dbeafe; stroke: #2563eb; stroke-width: 2; stroke-linejoin: miter"/>
   </g>
   <g id="patch_5">
    <path d="M 392.4 166.254026 
Q 392.4 168.227804 392.4 168.524531 
" style="fill: none; stroke: #374151; stroke-width: 1.5; stroke-linecap: round"/>
    <path d="M 394.4 164.524531 
L 392.4 168.524531 
L 390.4 164.524531 
z
" style="fill: #374151; stroke: #374151; stroke-width: 1.5; stroke-linecap: round"/>
   </g>
   <g id="patch_6">
    <path d="M 101.048727 238.431527 
L 683.751273 238.431527 
Q 694.256727 238.431527 694.256727 228.497241 
L 694.256727 180.81267 
Q 694.256727 170.878384 683.751273 170.878384 
L 101.048727 170.878384 
Q 90.543273 170.878384 90.543273 180.81267 
L 90.543273 228.497241 
Q 90.543273 238.431527 101.048727 238.431527 
z
" clip-path="url(#p545012821a)" style="fill: #dbeafe; stroke: #2563eb; stroke-width: 2; stroke-linejoin: miter"/>
   </g>
   <g id="patch_7">
    <path d="M 392.4 239.105454 
Q 392.4 241.079232 392.4 241.37596 
" style="fill: none; stroke: #374151; stroke-width: 1.5; stroke-linecap: round"/>
    <path d="M 394.4 237.37596 
L 392.4 241.37596 
L 390.4 237.37596 
z
" style="fill: #374151; stroke: #374151; stroke-width: 1.5; stroke-linecap: round"/>
   </g>
   <g id="patch_8">
    <path d="M 101.048727 311.282955 
L 683.751273 311.282955 
Q 694.256727 311.282955 694.256727 301.34867 
L 694.256727 253.664098 
Q 694.256727 243.729813 683.751273 243.729813 
L 101.048727 243.729813 
Q 90.543273 243.729813 90.543273 253.664098 
L 90.543273 301.34867 
Q 90.543273 311.282955 101.048727 311.282955 
z
" clip-path="url(#p545012821a)" style="fill: #ede9fe; stroke: #7c3aed; stroke-width: 2; stroke-linejoin: miter"/>
   </g>
   <g id="patch_9">
    <path d="M 392.4 311.958338 
Q 392.4 313.104624 392.4 312.573858 
" style="fill: none; stroke: #374151; stroke-width: 1.5; stroke-linecap: round"/>
    <path d="M 394.4 308.573858 
L 392.4 312.573858 
L 390.4 308.573858 
z
" style="fill: #374151; stroke: #374151; stroke-width: 1.5; stroke-linecap: round"/>
   </g>
   <g id="patch_10">
    <path d="M 171.085091 372.544384 
L 613.714909 372.544384 
Q 624.220364 372.544384 624.220364 362.610098 
L 624.220364 324.859812 
Q 624.220364 314.925527 613.714909 314.925527 
L 171.085091 314.925527 
Q 160.579636 314.925527 160.579636 324.859812 
L 160.579636 362.610098 
Q 160.579636 372.544384 171.085091 372.544384 
z
" clip-path="url(#p545012821a)" style="fill: #dcfce7; stroke: #16a34a; stroke-width: 2; stroke-linejoin: miter"/>
   </g>
   <g id="patch_11">
    <path d="M 392.4 373.21815 
Q 392.4 376.846845 392.4 378.798489 
" style="fill: none; stroke: #374151; stroke-width: 1.5; stroke-linecap: round"/>
    <path d="M 394.4 374.798489 
L 392.4 378.798489 
L 390.4 374.798489 
z
" style="fill: #374151; stroke: #374151; stroke-width: 1.5; stroke-linecap: round"/>
   </g>
   <g id="patch_12">
    <path d="M 206.103273 425.527241 
L 578.696727 425.527241 
Q 589.202182 425.527241 589.202182 415.592955 
L 589.202182 391.088384 
Q 589.202182 381.154098 578.696727 381.154098 
L 206.103273 381.154098 
Q 195.597818 381.154098 195.597818 391.088384 
L 195.597818 415.592955 
Q 195.597818 425.527241 206.103273 425.527241 
z
" clip-path="url(#p545012821a)" style="fill: #dcfce7; stroke: #16a34a; stroke-width: 2; stroke-linejoin: miter"/>
   </g>
   <g id="text_1">
    <!-- CNN Architecture for CIFAR-10 -->
    <g style="fill: #0f172a" transform="translate(272.584062 17.837812) scale(0.14 -0.14)">
     <defs>
      <path id="DejaVuSans-Bold-43" d="M 4288 256 
Q 3956 84 3597 -3 
Q 3238 -91 2847 -91 
Q 1681 -91 1000 561 
Q 319 1213 319 2328 
Q 319 3447 1000 4098 
Q 1681 4750 2847 4750 
Q 3238 4750 3597 4662 
Q 3956 4575 4288 4403 
L 4288 3438 
Q 3953 3666 3628 3772 
Q 3303 3878 2944 3878 
Q 2300 3878 1931 3465 
Q 1563 3053 1563 2328 
Q 1563 1606 1931 1193 
Q 2300 781 2944 781 
Q 3303 781 3628 887 
Q 3953 994 4288 1222 
L 4288 256 
z
" transform="scale(0.015625)"/>
      <path id="DejaVuSans-Bold-4e" d="M 588 4666 
L 1931 4666 
L 3628 1466 
L 3628 4666 
L 4769 4666 
L 4769 0 
L 3425 0 
L 1728 3200 
L 1728 0 
L 588 0 
L 588 4666 
z
" transform="scale(0.015625)"/>
      <path id="DejaVuSans-Bold-20" transform="scale(0.015625)"/>
      <path id="DejaVuSans-Bold-41" d="M 3419 850 
L 1538 850 
L 1241 0 
L 31 0 
L 1759 4666 
L 3194 4666 
L 4922 0 
L 3713 0 
L 3419 850 
z
M 1838 1716 
L 3116 1716 
L 2478 3572 
L 1838 1716 
z
" transform="scale(0.015625)"/>
      <path id="DejaVuSans-Bold-72" d="M 3138 2547 
Q 2991 2616 2845 2648 
Q 2700 2681 2553 2681 
Q 2122 2681 1889 2404 
Q 1656 2128 1656 1613 
L 1656 0 
L 538 0 
L 538 3500 
L 1656 3500 
L 1656 2925 
Q 1872 3269 2151 3426 
Q 2431 3584 2822 3584 
Q 2878 3584 2943 3579 
Q 3009 3575 3134 3559 
L 3138 2547 
z
" transform="scale(0.015625)"/>
      <path id="DejaVuSans-Bold-63" d="M 3366 3391 
L 3366 2478 
Q 3138 2634 2908 2709 
Q 2678 2784 2431 2784 
Q 1963 2784 1702 2511 
Q 1441 2238 1441 1747 
Q 1441 1256 1702 982 
Q 1963 709 2431 709 
Q 2694 709 2930 787 
Q 3166 866 3366 1019 
L 3366 103 
Q 3103 6 2833 -42 
Q 2563 -91 2291 -91 
Q 1344 -91 809 395 
Q 275 881 275 1747 
Q 275 2613 809 3098 
Q 1344 3584 2291 3584 
Q 2566 3584 2833 3536 
Q 3100 3488 3366 3391 
z
" transform="scale(0.015625)"/>
      <path id="DejaVuSans-Bold-68" d="M 4056 2131 
L 4056 0 
L 2931 0 
L 2931 347 
L 2931 1625 
Q 2931 2084 2911 2256 
Q 2891 2428 2841 2509 
Q 2775 2619 2662 2680 
Q 2550 2741 2406 2741 
Q 2056 2741 1856 2470 
Q 1656 2200 1656 1722 
L 1656 0 
L 538 0 
L 538 4863 
L 1656 4863 
L 1656 2988 
Q 1909 3294 2193 3439 
Q 2478 3584 2822 3584 
Q 3428 3584 3742 3212 
Q 4056 2841 4056 2131 
z
" transform="scale(0.015625)"/>
      <path id="DejaVuSans-Bold-69" d="M 538 3500 
L 1656 3500 
L 1656 0 
L 538 0 
L 538 3500 
z
M 538 4863 
L 1656 4863 
L 1656 3950 
L 538 3950 
L 538 4863 
z
" transform="scale(0.015625)"/>
      <path id="DejaVuSans-Bold-74" d="M 1759 4494 
L 1759 3500 
L 2913 3500 
L 2913 2700 
L 1759 2700 
L 1759 1216 
Q 1759 972 1856 886 
Q 1953 800 2241 800 
L 2816 800 
L 2816 0 
L 1856 0 
Q 1194 0 917 276 
Q 641 553 641 1216 
L 641 2700 
L 84 2700 
L 84 3500 
L 641 3500 
L 641 4494 
L 1759 4494 
z
" transform="scale(0.015625)"/>
      <path id="DejaVuSans-Bold-65" d="M 4031 1759 
L 4031 1441 
L 1416 1441 
Q 1456 1047 1700 850 
Q 1944 653 2381 653 
Q 2734 653 3104 758 
Q 3475 863 3866 1075 
L 3866 213 
Q 3469 63 3072 -14 
Q 2675 -91 2278 -91 
Q 1328 -91 801 392 
Q 275 875 275 1747 
Q 275 2603 792 3093 
Q 1309 3584 2216 3584 
Q 3041 3584 3536 3087 
Q 4031 2591 4031 1759 
z
M 2881 2131 
Q 2881 2450 2695 2645 
Q 2509 2841 2209 2841 
Q 1884 2841 1681 2658 
Q 1478 2475 1428 2131 
L 2881 2131 
z
" transform="scale(0.015625)"/>
      <path id="DejaVuSans-Bold-75" d="M 500 1363 
L 500 3500 
L 1625 3500 
L 1625 3150 
Q 1625 2866 1622 2436 
Q 1619 2006 1619 1863 
Q 1619 1441 1641 1255 
Q 1663 1069 1716 984 
Q 1784 875 1895 815 
Q 2006 756 2150 756 
Q 2500 756 2700 1025 
Q 2900 1294 2900 1772 
L 2900 3500 
L 4019 3500 
L 4019 0 
L 2900 0 
L 2900 506 
Q 2647 200 2364 54 
Q 2081 -91 1741 -91 
Q 1134 -91 817 281 
Q 500 653 500 1363 
z
" transform="scale(0.015625)"/>
      <path id="DejaVuSans-Bold-66" d="M 2841 4863 
L 2841 4128 
L 2222 4128 
Q 1984 4128 1890 4042 
Q 1797 3956 1797 3744 
L 1797 3500 
L 2753 3500 
L 2753 2700 
L 1797 2700 
L 1797 0 
L 678 0 
L 678 2700 
L 122 2700 
L 122 3500 
L 678 3500 
L 678 3744 
Q 678 4316 997 4589 
Q 1316 4863 1984 4863 
L 2841 4863 
z
" transform="scale(0.015625)"/>
      <path id="DejaVuSans-Bold-6f" d="M 2203 2784 
Q 1831 2784 1636 2517 
Q 1441 2250 1441 1747 
Q 1441 1244 1636 976 
Q 1831 709 2203 709 
Q 2569 709 2762 976 
Q 2956 1244 2956 1747 
Q 2956 2250 2762 2517 
Q 2569 2784 2203 2784 
z
M 2203 3584 
Q 3106 3584 3614 3096 
Q 4122 2609 4122 1747 
Q 4122 884 3614 396 
Q 3106 -91 2203 -91 
Q 1297 -91 786 396 
Q 275 884 275 1747 
Q 275 2609 786 3096 
Q 1297 3584 2203 3584 
z
" transform="scale(0.015625)"/>
      <path id="DejaVuSans-Bold-49" d="M 588 4666 
L 1791 4666 
L 1791 0 
L 588 0 
L 588 4666 
z
" transform="scale(0.015625)"/>
      <path id="DejaVuSans-Bold-46" d="M 588 4666 
L 3834 4666 
L 3834 3756 
L 1791 3756 
L 1791 2888 
L 3713 2888 
L 3713 1978 
L 1791 1978 
L 1791 0 
L 588 0 
L 588 4666 
z
" transform="scale(0.015625)"/>
      <path id="DejaVuSans-Bold-52" d="M 2297 2597 
Q 2675 2597 2839 2737 
Q 3003 2878 3003 3200 
Q 3003 3519 2839 3656 
Q 2675 3794 2297 3794 
L 1791 3794 
L 1791 2597 
L 2297 2597 
z
M 1791 1766 
L 1791 0 
L 588 0 
L 588 4666 
L 2425 4666 
Q 3347 4666 3776 4356 
Q 4206 4047 4206 3378 
Q 4206 2916 3982 2619 
Q 3759 2322 3309 2181 
Q 3556 2125 3751 1926 
Q 3947 1728 4147 1325 
L 4800 0 
L 3519 0 
L 2950 1159 
Q 2778 1509 2601 1637 
Q 2425 1766 2131 1766 
L 1791 1766 
z
" transform="scale(0.015625)"/>
      <path id="DejaVuSans-Bold-2d" d="M 347 2297 
L 2309 2297 
L 2309 1388 
L 347 1388 
L 347 2297 
z
" transform="scale(0.015625)"/>
      <path id="DejaVuSans-Bold-31" d="M 750 831 
L 1813 831 
L 1813 3847 
L 722 3622 
L 722 4441 
L 1806 4666 
L 2950 4666 
L 2950 831 
L 4013 831 
L 4013 0 
L 750 0 
L 750 831 
z
" transform="scale(0.015625)"/>
      <path id="DejaVuSans-Bold-30" d="M 2944 2338 
Q 2944 3213 2780 3570 
Q 2616 3928 2228 3928 
Q 1841 3928 1675 3570 
Q 1509 3213 1509 2338 
Q 1509 1453 1675 1090 
Q 1841 728 2228 728 
Q 2613 728 2778 1090 
Q 2944 1453 2944 2338 
z
M 4147 2328 
Q 4147 1169 3647 539 
Q 3147 -91 2228 -91 
Q 1306 -91 806 539 
Q 306 1169 306 2328 
Q 306 3491 806 4120 
Q 1306 4750 2228 4750 
Q 3147 4750 3647 4120 
Q 4147 3491 4147 2328 
z
" transform="scale(0.015625)"/>
     </defs>
     <use xlink:href="#DejaVuSans-Bold-43"/>
     <use xlink:href="#DejaVuSans-Bold-4e" x="73.388672"/>
     <use xlink:href="#DejaVuSans-Bold-4e" x="157.080078"/>
     <use xlink:href="#DejaVuSans-Bold-20" x="240.771484"/>
     <use xlink:href="#DejaVuSans-Bold-41" x="275.585938"/>
     <use xlink:href="#DejaVuSans-Bold-72" x="352.978516"/>
     <use xlink:href="#DejaVuSans-Bold-63" x="402.294922"/>
     <use xlink:href="#DejaVuSans-Bold-68" x="461.572266"/>
     <use xlink:href="#DejaVuSans-Bold-69" x="532.763672"/>
     <use xlink:href="#DejaVuSans-Bold-74" x="567.041016"/>
     <use xlink:href="#DejaVuSans-Bold-65" x="614.84375"/>
     <use xlink:href="#DejaVuSans-Bold-63" x="682.666016"/>
     <use xlink:href="#DejaVuSans-Bold-74" x="741.943359"/>
     <use xlink:href="#DejaVuSans-Bold-75" x="789.746094"/>
     <use xlink:href="#DejaVuSans-Bold-72" x="860.9375"/>
     <use xlink:href="#DejaVuSans-Bold-65" x="910.253906"/>
     <use xlink:href="#DejaVuSans-Bold-20" x="978.076172"/>
     <use xlink:href="#DejaVuSans-Bold-66" x="1012.890625"/>
     <use xlink:href="#DejaVuSans-Bold-6f" x="1056.396484"/>
     <use xlink:href="#DejaVuSans-Bold-72" x="1125.097656"/>
     <use xlink:href="#DejaVuSans-Bold-20" x="1174.414062"/>
     <use xlink:href="#DejaVuSans-Bold-43" x="1209.228516"/>
     <use xlink:href="#DejaVuSans-Bold-49" x="1282.617188"/>
     <use xlink:href="#DejaVuSans-Bold-46" x="1319.824219"/>
     <use xlink:href="#DejaVuSans-Bold-41" x="1376.634766"/>
     <use xlink:href="#DejaVuSans-Bold-52" x="1454.027344"/>
     <use xlink:href="#DejaVuSans-Bold-2d" x="1531.029297"/>
     <use xlink:href="#DejaVuSans-Bold-31" x="1572.533203"/>
     <use xlink:href="#DejaVuSans-Bold-30" x="1642.113281"/>
    </g>
   </g>
   <g id="text_2">
    <!-- Input: 3 × 32 × 32 -->
    <g style="fill: #0f172a" transform="translate(330.690937 75.509063) scale(0.12 -0.12)">
     <defs>
      <path id="DejaVuSans-Bold-6e" d="M 4056 2131 
L 4056 0 
L 2931 0 
L 2931 347 
L 2931 1631 
Q 2931 2084 2911 2256 
Q 2891 2428 2841 2509 
Q 2775 2619 2662 2680 
Q 2550 2741 2406 2741 
Q 2056 2741 1856 2470 
Q 1656 2200 1656 1722 
L 1656 0 
L 538 0 
L 538 3500 
L 1656 3500 
L 1656 2988 
Q 1909 3294 2193 3439 
Q 2478 3584 2822 3584 
Q 3428 3584 3742 3212 
Q 4056 2841 4056 2131 
z
" transform="scale(0.015625)"/>
      <path id="DejaVuSans-Bold-70" d="M 1656 506 
L 1656 -1331 
L 538 -1331 
L 538 3500 
L 1656 3500 
L 1656 2988 
Q 1888 3294 2169 3439 
Q 2450 3584 2816 3584 
Q 3463 3584 3878 3070 
Q 4294 2556 4294 1747 
Q 4294 938 3878 423 
Q 3463 -91 2816 -91 
Q 2450 -91 2169 54 
Q 1888 200 1656 506 
z
M 2400 2772 
Q 2041 2772 1848 2508 
Q 1656 2244 1656 1747 
Q 1656 1250 1848 986 
Q 2041 722 2400 722 
Q 2759 722 2948 984 
Q 3138 1247 3138 1747 
Q 3138 2247 2948 2509 
Q 2759 2772 2400 2772 
z
" transform="scale(0.015625)"/>
      <path id="DejaVuSans-Bold-3a" d="M 716 3500 
L 1844 3500 
L 1844 2291 
L 716 2291 
L 716 3500 
z
M 716 1209 
L 1844 1209 
L 1844 0 
L 716 0 
L 716 1209 
z
" transform="scale(0.015625)"/>
      <path id="DejaVuSans-Bold-33" d="M 2981 2516 
Q 3453 2394 3698 2092 
Q 3944 1791 3944 1325 
Q 3944 631 3412 270 
Q 2881 -91 1863 -91 
Q 1503 -91 1142 -33 
Q 781 25 428 141 
L 428 1069 
Q 766 900 1098 814 
Q 1431 728 1753 728 
Q 2231 728 2486 893 
Q 2741 1059 2741 1369 
Q 2741 1688 2480 1852 
Q 2219 2016 1709 2016 
L 1228 2016 
L 1228 2791 
L 1734 2791 
Q 2188 2791 2409 2933 
Q 2631 3075 2631 3366 
Q 2631 3634 2415 3781 
Q 2200 3928 1806 3928 
Q 1516 3928 1219 3862 
Q 922 3797 628 3669 
L 628 4550 
Q 984 4650 1334 4700 
Q 1684 4750 2022 4750 
Q 2931 4750 3382 4451 
Q 3834 4153 3834 3553 
Q 3834 3144 3618 2883 
Q 3403 2622 2981 2516 
z
" transform="scale(0.015625)"/>
      <path id="DejaVuSans-Bold-d7" d="M 4563 3359 
L 3206 2003 
L 4563 653 
L 4038 128 
L 2681 1478 
L 1325 128 
L 800 653 
L 2156 2003 
L 800 3359 
L 1325 3884 
L 2681 2528 
L 4038 3884 
L 4563 3359 
z
" transform="scale(0.015625)"/>
      <path id="DejaVuSans-Bold-32" d="M 1844 884 
L 3897 884 
L 3897 0 
L 506 0 
L 506 884 
L 2209 2388 
Q 2438 2594 2547 2791 
Q 2656 2988 2656 3200 
Q 2656 3528 2436 3728 
Q 2216 3928 1850 3928 
Q 1569 3928 1234 3808 
Q 900 3688 519 3450 
L 519 4475 
Q 925 4609 1322 4679 
Q 1719 4750 2100 4750 
Q 2938 4750 3402 4381 
Q 3866 4013 3866 3353 
Q 3866 2972 3669 2642 
Q 3472 2313 2841 1759 
L 1844 884 
z
" transform="scale(0.015625)"/>
     </defs>
     <use xlink:href="#DejaVuSans-Bold-49"/>
     <use xlink:href="#DejaVuSans-Bold-6e" x="37.207031"/>
     <use xlink:href="#DejaVuSans-Bold-70" x="108.398438"/>
     <use xlink:href="#DejaVuSans-Bold-75" x="179.980469"/>
     <use xlink:href="#DejaVuSans-Bold-74" x="251.171875"/>
     <use xlink:href="#DejaVuSans-Bold-3a" x="298.974609"/>
     <use xlink:href="#DejaVuSans-Bold-20" x="338.964844"/>
     <use xlink:href="#DejaVuSans-Bold-33" x="373.779297"/>
     <use xlink:href="#DejaVuSans-Bold-20" x="443.359375"/>
     <use xlink:href="#DejaVuSans-Bold-d7" x="478.173828"/>
     <use xlink:href="#DejaVuSans-Bold-20" x="561.962891"/>
     <use xlink:href="#DejaVuSans-Bold-33" x="596.777344"/>
     <use xlink:href="#DejaVuSans-Bold-32" x="666.357422"/>
     <use xlink:href="#DejaVuSans-Bold-20" x="735.9375"/>
     <use xlink:href="#DejaVuSans-Bold-d7" x="770.751953"/>
     <use xlink:href="#DejaVuSans-Bold-20" x="854.541016"/>
     <use xlink:href="#DejaVuSans-Bold-33" x="889.355469"/>
     <use xlink:href="#DejaVuSans-Bold-32" x="958.935547"/>
    </g>
   </g>
   <g id="text_3">
    <!-- Block 1 -->
    <g style="fill: #0f172a" transform="translate(369.884375 120.268554) scale(0.11 -0.11)">
     <defs>
      <path id="DejaVuSans-Bold-42" d="M 2456 2859 
Q 2741 2859 2887 2984 
Q 3034 3109 3034 3353 
Q 3034 3594 2887 3720 
Q 2741 3847 2456 3847 
L 1791 3847 
L 1791 2859 
L 2456 2859 
z
M 2497 819 
Q 2859 819 3042 972 
Q 3225 1125 3225 1434 
Q 3225 1738 3044 1889 
Q 2863 2041 2497 2041 
L 1791 2041 
L 1791 819 
L 2497 819 
z
M 3616 2497 
Q 4003 2384 4215 2081 
Q 4428 1778 4428 1338 
Q 4428 663 3972 331 
Q 3516 0 2584 0 
L 588 0 
L 588 4666 
L 2394 4666 
Q 3366 4666 3802 4372 
Q 4238 4078 4238 3431 
Q 4238 3091 4078 2852 
Q 3919 2613 3616 2497 
z
" transform="scale(0.015625)"/>
      <path id="DejaVuSans-Bold-6c" d="M 538 4863 
L 1656 4863 
L 1656 0 
L 538 0 
L 538 4863 
z
" transform="scale(0.015625)"/>
      <path id="DejaVuSans-Bold-6b" d="M 538 4863 
L 1656 4863 
L 1656 2216 
L 2944 3500 
L 4244 3500 
L 2534 1894 
L 4378 0 
L 3022 0 
L 1656 1459 
L 1656 0 
L 538 0 
L 538 4863 
z
" transform="scale(0.015625)"/>
     </defs>
     <use xlink:href="#DejaVuSans-Bold-42"/>
     <use xlink:href="#DejaVuSans-Bold-6c" x="76.220703"/>
     <use xlink:href="#DejaVuSans-Bold-6f" x="110.498047"/>
     <use xlink:href="#DejaVuSans-Bold-63" x="179.199219"/>
     <use xlink:href="#DejaVuSans-Bold-6b" x="238.476562"/>
     <use xlink:href="#DejaVuSans-Bold-20" x="304.980469"/>
     <use xlink:href="#DejaVuSans-Bold-31" x="339.794922"/>
    </g>
   </g>
   <g id="text_4">
    <!-- Conv2d(3→32, 3×3) → BN → ReLU -->
    <g style="fill: #475569" transform="translate(320.296094 131.286549) scale(0.085 -0.085)">
     <defs>
      <path id="DejaVuSans-43" d="M 4122 4306 
L 4122 3641 
Q 3803 3938 3442 4084 
Q 3081 4231 2675 4231 
Q 1875 4231 1450 3742 
Q 1025 3253 1025 2328 
Q 1025 1406 1450 917 
Q 1875 428 2675 428 
Q 3081 428 3442 575 
Q 3803 722 4122 1019 
L 4122 359 
Q 3791 134 3420 21 
Q 3050 -91 2638 -91 
Q 1578 -91 968 557 
Q 359 1206 359 2328 
Q 359 3453 968 4101 
Q 1578 4750 2638 4750 
Q 3056 4750 3426 4639 
Q 3797 4528 4122 4306 
z
" transform="scale(0.015625)"/>
      <path id="DejaVuSans-6f" d="M 1959 3097 
Q 1497 3097 1228 2736 
Q 959 2375 959 1747 
Q 959 1119 1226 758 
Q 1494 397 1959 397 
Q 2419 397 2687 759 
Q 2956 1122 2956 1747 
Q 2956 2369 2687 2733 
Q 2419 3097 1959 3097 
z
M 1959 3584 
Q 2709 3584 3137 3096 
Q 3566 2609 3566 1747 
Q 3566 888 3137 398 
Q 2709 -91 1959 -91 
Q 1206 -91 779 398 
Q 353 888 353 1747 
Q 353 2609 779 3096 
Q 1206 3584 1959 3584 
z
" transform="scale(0.015625)"/>
      <path id="DejaVuSans-6e" d="M 3513 2113 
L 3513 0 
L 2938 0 
L 2938 2094 
Q 2938 2591 2744 2837 
Q 2550 3084 2163 3084 
Q 1697 3084 1428 2787 
Q 1159 2491 1159 1978 
L 1159 0 
L 581 0 
L 581 3500 
L 1159 3500 
L 1159 2956 
Q 1366 3272 1645 3428 
Q 1925 3584 2291 3584 
Q 2894 3584 3203 3211 
Q 3513 2838 3513 2113 
z
" transform="scale(0.015625)"/>
      <path id="DejaVuSans-76" d="M 191 3500 
L 800 3500 
L 1894 563 
L 2988 3500 
L 3597 3500 
L 2284 0 
L 1503 0 
L 191 3500 
z
" transform="scale(0.015625)"/>
      <path id="DejaVuSans-32" d="M 1228 531 
L 3431 531 
L 3431 0 
L 469 0 
L 469 531 
Q 828 903 1448 1529 
Q 2069 2156 2228 2338 
Q 2531 2678 2651 2914 
Q 2772 3150 2772 3378 
Q 2772 3750 2511 3984 
Q 2250 4219 1831 4219 
Q 1534 4219 1204 4116 
Q 875 4013 500 3803 
L 500 4441 
Q 881 4594 1212 4672 
Q 1544 4750 1819 4750 
Q 2544 4750 2975 4387 
Q 3406 4025 3406 3419 
Q 3406 3131 3298 2873 
Q 3191 2616 2906 2266 
Q 2828 2175 2409 1742 
Q 1991 1309 1228 531 
z
" transform="scale(0.015625)"/>
      <path id="DejaVuSans-64" d="M 2906 2969 
L 2906 4863 
L 3481 4863 
L 3481 0 
L 2906 0 
L 2906 525 
Q 2725 213 2448 61 
Q 2172 -91 1784 -91 
Q 1150 -91 751 415 
Q 353 922 353 1747 
Q 353 2572 751 3078 
Q 1150 3584 1784 3584 
Q 2172 3584 2448 3432 
Q 2725 3281 2906 2969 
z
M 947 1747 
Q 947 1113 1208 752 
Q 1469 391 1925 391 
Q 2381 391 2643 752 
Q 2906 1113 2906 1747 
Q 2906 2381 2643 2742 
Q 2381 3103 1925 3103 
Q 1469 3103 1208 2742 
Q 947 2381 947 1747 
z
" transform="scale(0.015625)"/>
      <path id="DejaVuSans-28" d="M 1984 4856 
Q 1566 4138 1362 3434 
Q 1159 2731 1159 2009 
Q 1159 1288 1364 580 
Q 1569 -128 1984 -844 
L 1484 -844 
Q 1016 -109 783 600 
Q 550 1309 550 2009 
Q 550 2706 781 3412 
Q 1013 4119 1484 4856 
L 1984 4856 
z
" transform="scale(0.015625)"/>
      <path id="DejaVuSans-33" d="M 2597 2516 
Q 3050 2419 3304 2112 
Q 3559 1806 3559 1356 
Q 3559 666 3084 287 
Q 2609 -91 1734 -91 
Q 1441 -91 1130 -33 
Q 819 25 488 141 
L 488 750 
Q 750 597 1062 519 
Q 1375 441 1716 441 
Q 2309 441 2620 675 
Q 2931 909 2931 1356 
Q 2931 1769 2642 2001 
Q 2353 2234 1838 2234 
L 1294 2234 
L 1294 2753 
L 1863 2753 
Q 2328 2753 2575 2939 
Q 2822 3125 2822 3475 
Q 2822 3834 2567 4026 
Q 2313 4219 1838 4219 
Q 1578 4219 1281 4162 
Q 984 4106 628 3988 
L 628 4550 
Q 988 4650 1302 4700 
Q 1616 4750 1894 4750 
Q 2613 4750 3031 4423 
Q 3450 4097 3450 3541 
Q 3450 3153 3228 2886 
Q 3006 2619 2597 2516 
z
" transform="scale(0.015625)"/>
      <path id="DejaVuSans-2192" d="M 5050 2147 
L 5050 1866 
L 3822 638 
L 3447 1013 
L 4175 1741 
L 366 1741 
L 366 2272 
L 4175 2272 
L 3447 3000 
L 3822 3375 
L 5050 2147 
z
" transform="scale(0.015625)"/>
      <path id="DejaVuSans-2c" d="M 750 794 
L 1409 794 
L 1409 256 
L 897 -744 
L 494 -744 
L 750 256 
L 750 794 
z
" transform="scale(0.015625)"/>
      <path id="DejaVuSans-20" transform="scale(0.015625)"/>
      <path id="DejaVuSans-d7" d="M 4488 3438 
L 3059 2003 
L 4488 575 
L 4116 197 
L 2681 1631 
L 1247 197 
L 878 575 
L 2303 2003 
L 878 3438 
L 1247 3816 
L 2681 2381 
L 4116 3816 
L 4488 3438 
z
" transform="scale(0.015625)"/>
      <path id="DejaVuSans-29" d="M 513 4856 
L 1013 4856 
Q 1481 4119 1714 3412 
Q 1947 2706 1947 2009 
Q 1947 1309 1714 600 
Q 1481 -109 1013 -844 
L 513 -844 
Q 928 -128 1133 580 
Q 1338 1288 1338 2009 
Q 1338 2731 1133 3434 
Q 928 4138 513 4856 
z
" transform="scale(0.015625)"/>
      <path id="DejaVuSans-42" d="M 1259 2228 
L 1259 519 
L 2272 519 
Q 2781 519 3026 730 
Q 3272 941 3272 1375 
Q 3272 1813 3026 2020 
Q 2781 2228 2272 2228 
L 1259 2228 
z
M 1259 4147 
L 1259 2741 
L 2194 2741 
Q 2656 2741 2882 2914 
Q 3109 3088 3109 3444 
Q 3109 3797 2882 3972 
Q 2656 4147 2194 4147 
L 1259 4147 
z
M 628 4666 
L 2241 4666 
Q 2963 4666 3353 4366 
Q 3744 4066 3744 3513 
Q 3744 3084 3544 2831 
Q 3344 2578 2956 2516 
Q 3422 2416 3680 2098 
Q 3938 1781 3938 1306 
Q 3938 681 3513 340 
Q 3088 0 2303 0 
L 628 0 
L 628 4666 
z
" transform="scale(0.015625)"/>
      <path id="DejaVuSans-4e" d="M 628 4666 
L 1478 4666 
L 3547 763 
L 3547 4666 
L 4159 4666 
L 4159 0 
L 3309 0 
L 1241 3903 
L 1241 0 
L 628 0 
L 628 4666 
z
" transform="scale(0.015625)"/>
      <path id="DejaVuSans-52" d="M 2841 2188 
Q 3044 2119 3236 1894 
Q 3428 1669 3622 1275 
L 4263 0 
L 3584 0 
L 2988 1197 
Q 2756 1666 2539 1819 
Q 2322 1972 1947 1972 
L 1259 1972 
L 1259 0 
L 628 0 
L 628 4666 
L 2053 4666 
Q 2853 4666 3247 4331 
Q 3641 3997 3641 3322 
Q 3641 2881 3436 2590 
Q 3231 2300 2841 2188 
z
M 1259 4147 
L 1259 2491 
L 2053 2491 
Q 2509 2491 2742 2702 
Q 2975 2913 2975 3322 
Q 2975 3731 2742 3939 
Q 2509 4147 2053 4147 
L 1259 4147 
z
" transform="scale(0.015625)"/>
      <path id="DejaVuSans-65" d="M 3597 1894 
L 3597 1613 
L 953 1613 
Q 991 1019 1311 708 
Q 1631 397 2203 397 
Q 2534 397 2845 478 
Q 3156 559 3463 722 
L 3463 178 
Q 3153 47 2828 -22 
Q 2503 -91 2169 -91 
Q 1331 -91 842 396 
Q 353 884 353 1716 
Q 353 2575 817 3079 
Q 1281 3584 2069 3584 
Q 2775 3584 3186 3129 
Q 3597 2675 3597 1894 
z
M 3022 2063 
Q 3016 2534 2758 2815 
Q 2500 3097 2075 3097 
Q 1594 3097 1305 2825 
Q 1016 2553 972 2059 
L 3022 2063 
z
" transform="scale(0.015625)"/>
      <path id="DejaVuSans-4c" d="M 628 4666 
L 1259 4666 
L 1259 531 
L 3531 531 
L 3531 0 
L 628 0 
L 628 4666 
z
" transform="scale(0.015625)"/>
      <path id="DejaVuSans-55" d="M 556 4666 
L 1191 4666 
L 1191 1831 
Q 1191 1081 1462 751 
Q 1734 422 2344 422 
Q 2950 422 3222 751 
Q 3494 1081 3494 1831 
L 3494 4666 
L 4128 4666 
L 4128 1753 
Q 4128 841 3676 375 
Q 3225 -91 2344 -91 
Q 1459 -91 1007 375 
Q 556 841 556 1753 
L 556 4666 
z
" transform="scale(0.015625)"/>
     </defs>
     <use xlink:href="#DejaVuSans-43"/>
     <use xlink:href="#DejaVuSans-6f" x="69.824219"/>
     <use xlink:href="#DejaVuSans-6e" x="131.005859"/>
     <use xlink:href="#DejaVuSans-76" x="194.384766"/>
     <use xlink:href="#DejaVuSans-32" x="253.564453"/>
     <use xlink:href="#DejaVuSans-64" x="317.1875"/>
     <use xlink:href="#DejaVuSans-28" x="380.664062"/>
     <use xlink:href="#DejaVuSans-33" x="419.677734"/>
     <use xlink:href="#DejaVuSans-2192" x="483.300781"/>
     <use xlink:href="#DejaVuSans-33" x="567.089844"/>
     <use xlink:href="#DejaVuSans-32" x="630.712891"/>
     <use xlink:href="#DejaVuSans-2c" x="694.335938"/>
     <use xlink:href="#DejaVuSans-20" x="726.123047"/>
     <use xlink:href="#DejaVuSans-33" x="757.910156"/>
     <use xlink:href="#DejaVuSans-d7" x="821.533203"/>
     <use xlink:href="#DejaVuSans-33" x="905.322266"/>
     <use xlink:href="#DejaVuSans-29" x="968.945312"/>
     <use xlink:href="#DejaVuSans-20" x="1007.958984"/>
     <use xlink:href="#DejaVuSans-2192" x="1039.746094"/>
     <use xlink:href="#DejaVuSans-20" x="1123.535156"/>
     <use xlink:href="#DejaVuSans-42" x="1155.322266"/>
     <use xlink:href="#DejaVuSans-4e" x="1223.925781"/>
     <use xlink:href="#DejaVuSans-20" x="1298.730469"/>
     <use xlink:href="#DejaVuSans-2192" x="1330.517578"/>
     <use xlink:href="#DejaVuSans-20" x="1414.306641"/>
     <use xlink:href="#DejaVuSans-52" x="1446.09375"/>
     <use xlink:href="#DejaVuSans-65" x="1511.076172"/>
     <use xlink:href="#DejaVuSans-4c" x="1572.599609"/>
     <use xlink:href="#DejaVuSans-55" x="1623.3125"/>
    </g>
    <!-- Conv2d(32→32, 3×3) → BN → ReLU -->
    <g style="fill: #475569" transform="translate(317.592031 142.096424) scale(0.085 -0.085)">
     <use xlink:href="#DejaVuSans-43"/>
     <use xlink:href="#DejaVuSans-6f" x="69.824219"/>
     <use xlink:href="#DejaVuSans-6e" x="131.005859"/>
     <use xlink:href="#DejaVuSans-76" x="194.384766"/>
     <use xlink:href="#DejaVuSans-32" x="253.564453"/>
     <use xlink:href="#DejaVuSans-64" x="317.1875"/>
     <use xlink:href="#DejaVuSans-28" x="380.664062"/>
     <use xlink:href="#DejaVuSans-33" x="419.677734"/>
     <use xlink:href="#DejaVuSans-32" x="483.300781"/>
     <use xlink:href="#DejaVuSans-2192" x="546.923828"/>
     <use xlink:href="#DejaVuSans-33" x="630.712891"/>
     <use xlink:href="#DejaVuSans-32" x="694.335938"/>
     <use xlink:href="#DejaVuSans-2c" x="757.958984"/>
     <use xlink:href="#DejaVuSans-20" x="789.746094"/>
     <use xlink:href="#DejaVuSans-33" x="821.533203"/>
     <use xlink:href="#DejaVuSans-d7" x="885.15625"/>
     <use xlink:href="#DejaVuSans-33" x="968.945312"/>
     <use xlink:href="#DejaVuSans-29" x="1032.568359"/>
     <use xlink:href="#DejaVuSans-20" x="1071.582031"/>
     <use xlink:href="#DejaVuSans-2192" x="1103.369141"/>
     <use xlink:href="#DejaVuSans-20" x="1187.158203"/>
     <use xlink:href="#DejaVuSans-42" x="1218.945312"/>
     <use xlink:href="#DejaVuSans-4e" x="1287.548828"/>
     <use xlink:href="#DejaVuSans-20" x="1362.353516"/>
     <use xlink:href="#DejaVuSans-2192" x="1394.140625"/>
     <use xlink:href="#DejaVuSans-20" x="1477.929688"/>
     <use xlink:href="#DejaVuSans-52" x="1509.716797"/>
     <use xlink:href="#DejaVuSans-65" x="1574.699219"/>
     <use xlink:href="#DejaVuSans-4c" x="1636.222656"/>
     <use xlink:href="#DejaVuSans-55" x="1686.935547"/>
    </g>
    <!-- MaxPool(2×2)   →  32×16×16 -->
    <g style="fill: #475569" transform="translate(328.875117 152.906299) scale(0.085 -0.085)">
     <defs>
      <path id="DejaVuSans-4d" d="M 628 4666 
L 1569 4666 
L 2759 1491 
L 3956 4666 
L 4897 4666 
L 4897 0 
L 4281 0 
L 4281 4097 
L 3078 897 
L 2444 897 
L 1241 4097 
L 1241 0 
L 628 0 
L 628 4666 
z
" transform="scale(0.015625)"/>
      <path id="DejaVuSans-61" d="M 2194 1759 
Q 1497 1759 1228 1600 
Q 959 1441 959 1056 
Q 959 750 1161 570 
Q 1363 391 1709 391 
Q 2188 391 2477 730 
Q 2766 1069 2766 1631 
L 2766 1759 
L 2194 1759 
z
M 3341 1997 
L 3341 0 
L 2766 0 
L 2766 531 
Q 2569 213 2275 61 
Q 1981 -91 1556 -91 
Q 1019 -91 701 211 
Q 384 513 384 1019 
Q 384 1609 779 1909 
Q 1175 2209 1959 2209 
L 2766 2209 
L 2766 2266 
Q 2766 2663 2505 2880 
Q 2244 3097 1772 3097 
Q 1472 3097 1187 3025 
Q 903 2953 641 2809 
L 641 3341 
Q 956 3463 1253 3523 
Q 1550 3584 1831 3584 
Q 2591 3584 2966 3190 
Q 3341 2797 3341 1997 
z
" transform="scale(0.015625)"/>
      <path id="DejaVuSans-78" d="M 3513 3500 
L 2247 1797 
L 3578 0 
L 2900 0 
L 1881 1375 
L 863 0 
L 184 0 
L 1544 1831 
L 300 3500 
L 978 3500 
L 1906 2253 
L 2834 3500 
L 3513 3500 
z
" transform="scale(0.015625)"/>
      <path id="DejaVuSans-50" d="M 1259 4147 
L 1259 2394 
L 2053 2394 
Q 2494 2394 2734 2622 
Q 2975 2850 2975 3272 
Q 2975 3691 2734 3919 
Q 2494 4147 2053 4147 
L 1259 4147 
z
M 628 4666 
L 2053 4666 
Q 2838 4666 3239 4311 
Q 3641 3956 3641 3272 
Q 3641 2581 3239 2228 
Q 2838 1875 2053 1875 
L 1259 1875 
L 1259 0 
L 628 0 
L 628 4666 
z
" transform="scale(0.015625)"/>
      <path id="DejaVuSans-6c" d="M 603 4863 
L 1178 4863 
L 1178 0 
L 603 0 
L 603 4863 
z
" transform="scale(0.015625)"/>
      <path id="DejaVuSans-31" d="M 794 531 
L 1825 531 
L 1825 4091 
L 703 3866 
L 703 4441 
L 1819 4666 
L 2450 4666 
L 2450 531 
L 3481 531 
L 3481 0 
L 794 0 
L 794 531 
z
" transform="scale(0.015625)"/>
      <path id="DejaVuSans-36" d="M 2113 2584 
Q 1688 2584 1439 2293 
Q 1191 2003 1191 1497 
Q 1191 994 1439 701 
Q 1688 409 2113 409 
Q 2538 409 2786 701 
Q 3034 994 3034 1497 
Q 3034 2003 2786 2293 
Q 2538 2584 2113 2584 
z
M 3366 4563 
L 3366 3988 
Q 3128 4100 2886 4159 
Q 2644 4219 2406 4219 
Q 1781 4219 1451 3797 
Q 1122 3375 1075 2522 
Q 1259 2794 1537 2939 
Q 1816 3084 2150 3084 
Q 2853 3084 3261 2657 
Q 3669 2231 3669 1497 
Q 3669 778 3244 343 
Q 2819 -91 2113 -91 
Q 1303 -91 875 529 
Q 447 1150 447 2328 
Q 447 3434 972 4092 
Q 1497 4750 2381 4750 
Q 2619 4750 2861 4703 
Q 3103 4656 3366 4563 
z
" transform="scale(0.015625)"/>
     </defs>
     <use xlink:href="#DejaVuSans-4d"/>
     <use xlink:href="#DejaVuSans-61" x="86.279297"/>
     <use xlink:href="#DejaVuSans-78" x="147.558594"/>
     <use xlink:href="#DejaVuSans-50" x="206.738281"/>
     <use xlink:href="#DejaVuSans-6f" x="263.416016"/>
     <use xlink:href="#DejaVuSans-6f" x="324.597656"/>
     <use xlink:href="#DejaVuSans-6c" x="385.779297"/>
     <use xlink:href="#DejaVuSans-28" x="413.5625"/>
     <use xlink:href="#DejaVuSans-32" x="452.576172"/>
     <use xlink:href="#DejaVuSans-d7" x="516.199219"/>
     <use xlink:href="#DejaVuSans-32" x="599.988281"/>
     <use xlink:href="#DejaVuSans-29" x="663.611328"/>
     <use xlink:href="#DejaVuSans-20" x="702.625"/>
     <use xlink:href="#DejaVuSans-20" x="734.412109"/>
     <use xlink:href="#DejaVuSans-20" x="766.199219"/>
     <use xlink:href="#DejaVuSans-2192" x="797.986328"/>
     <use xlink:href="#DejaVuSans-20" x="881.775391"/>
     <use xlink:href="#DejaVuSans-20" x="913.5625"/>
     <use xlink:href="#DejaVuSans-33" x="945.349609"/>
     <use xlink:href="#DejaVuSans-32" x="1008.972656"/>
     <use xlink:href="#DejaVuSans-d7" x="1072.595703"/>
     <use xlink:href="#DejaVuSans-31" x="1156.384766"/>
     <use xlink:href="#DejaVuSans-36" x="1220.007812"/>
     <use xlink:href="#DejaVuSans-d7" x="1283.630859"/>
     <use xlink:href="#DejaVuSans-31" x="1367.419922"/>
     <use xlink:href="#DejaVuSans-36" x="1431.042969"/>
    </g>
   </g>
   <g id="text_5">
    <!-- Block 2 -->
    <g style="fill: #0f172a" transform="translate(369.884375 193.119982) scale(0.11 -0.11)">
     <use xlink:href="#DejaVuSans-Bold-42"/>
     <use xlink:href="#DejaVuSans-Bold-6c" x="76.220703"/>
     <use xlink:href="#DejaVuSans-Bold-6f" x="110.498047"/>
     <use xlink:href="#DejaVuSans-Bold-63" x="179.199219"/>
     <use xlink:href="#DejaVuSans-Bold-6b" x="238.476562"/>
     <use xlink:href="#DejaVuSans-Bold-20" x="304.980469"/>
     <use xlink:href="#DejaVuSans-Bold-32" x="339.794922"/>
    </g>
   </g>
   <g id="text_6">
    <!-- Conv2d(32→64, 3×3) → BN → ReLU -->
    <g style="fill: #475569" transform="translate(317.592031 204.137978) scale(0.085 -0.085)">
     <defs>
      <path id="DejaVuSans-34" d="M 2419 4116 
L 825 1625 
L 2419 1625 
L 2419 4116 
z
M 2253 4666 
L 3047 4666 
L 3047 1625 
L 3713 1625 
L 3713 1100 
L 3047 1100 
L 3047 0 
L 2419 0 
L 2419 1100 
L 313 1100 
L 313 1709 
L 2253 4666 
z
" transform="scale(0.015625)"/>
     </defs>
     <use xlink:href="#DejaVuSans-43"/>
     <use xlink:href="#DejaVuSans-6f" x="69.824219"/>
     <use xlink:href="#DejaVuSans-6e" x="131.005859"/>
     <use xlink:href="#DejaVuSans-76" x="194.384766"/>
     <use xlink:href="#DejaVuSans-32" x="253.564453"/>
     <use xlink:href="#DejaVuSans-64" x="317.1875"/>
     <use xlink:href="#DejaVuSans-28" x="380.664062"/>
     <use xlink:href="#DejaVuSans-33" x="419.677734"/>
     <use xlink:href="#DejaVuSans-32" x="483.300781"/>
     <use xlink:href="#DejaVuSans-2192" x="546.923828"/>
     <use xlink:href="#DejaVuSans-36" x="630.712891"/>
     <use xlink:href="#DejaVuSans-34" x="694.335938"/>
     <use xlink:href="#DejaVuSans-2c" x="757.958984"/>
     <use xlink:href="#DejaVuSans-20" x="789.746094"/>
     <use xlink:href="#DejaVuSans-33" x="821.533203"/>
     <use xlink:href="#DejaVuSans-d7" x="885.15625"/>
     <use xlink:href="#DejaVuSans-33" x="968.945312"/>
     <use xlink:href="#DejaVuSans-29" x="1032.568359"/>
     <use xlink:href="#DejaVuSans-20" x="1071.582031"/>
     <use xlink:href="#DejaVuSans-2192" x="1103.369141"/>
     <use xlink:href="#DejaVuSans-20" x="1187.158203"/>
     <use xlink:href="#DejaVuSans-42" x="1218.945312"/>
     <use xlink:href="#DejaVuSans-4e" x="1287.548828"/>
     <use xlink:href="#DejaVuSans-20" x="1362.353516"/>
     <use xlink:href="#DejaVuSans-2192" x="1394.140625"/>
     <use xlink:href="#DejaVuSans-20" x="1477.929688"/>
     <use xlink:href="#DejaVuSans-52" x="1509.716797"/>
     <use xlink:href="#DejaVuSans-65" x="1574.699219"/>
     <use xlink:href="#DejaVuSans-4c" x="1636.222656"/>
     <use xlink:href="#DejaVuSans-55" x="1686.935547"/>
    </g>
    <!-- Conv2d(64→64, 3×3) → BN → ReLU -->
    <g style="fill: #475569" transform="translate(317.592031 214.947853) scale(0.085 -0.085)">
     <use xlink:href="#DejaVuSans-43"/>
     <use xlink:href="#DejaVuSans-6f" x="69.824219"/>
     <use xlink:href="#DejaVuSans-6e" x="131.005859"/>
     <use xlink:href="#DejaVuSans-76" x="194.384766"/>
     <use xlink:href="#DejaVuSans-32" x="253.564453"/>
     <use xlink:href="#DejaVuSans-64" x="317.1875"/>
     <use xlink:href="#DejaVuSans-28" x="380.664062"/>
     <use xlink:href="#DejaVuSans-36" x="419.677734"/>
     <use xlink:href="#DejaVuSans-34" x="483.300781"/>
     <use xlink:href="#DejaVuSans-2192" x="546.923828"/>
     <use xlink:href="#DejaVuSans-36" x="630.712891"/>
     <use xlink:href="#DejaVuSans-34" x="694.335938"/>
     <use xlink:href="#DejaVuSans-2c" x="757.958984"/>
     <use xlink:href="#DejaVuSans-20" x="789.746094"/>
     <use xlink:href="#DejaVuSans-33" x="821.533203"/>
     <use xlink:href="#DejaVuSans-d7" x="885.15625"/>
     <use xlink:href="#DejaVuSans-33" x="968.945312"/>
     <use xlink:href="#DejaVuSans-29" x="1032.568359"/>
     <use xlink:href="#DejaVuSans-20" x="1071.582031"/>
     <use xlink:href="#DejaVuSans-2192" x="1103.369141"/>
     <use xlink:href="#DejaVuSans-20" x="1187.158203"/>
     <use xlink:href="#DejaVuSans-42" x="1218.945312"/>
     <use xlink:href="#DejaVuSans-4e" x="1287.548828"/>
     <use xlink:href="#DejaVuSans-20" x="1362.353516"/>
     <use xlink:href="#DejaVuSans-2192" x="1394.140625"/>
     <use xlink:href="#DejaVuSans-20" x="1477.929688"/>
     <use xlink:href="#DejaVuSans-52" x="1509.716797"/>
     <use xlink:href="#DejaVuSans-65" x="1574.699219"/>
     <use xlink:href="#DejaVuSans-4c" x="1636.222656"/>
     <use xlink:href="#DejaVuSans-55" x="1686.935547"/>
    </g>
    <!-- MaxPool(2×2)   →  64×8×8 -->
    <g style="fill: #475569" transform="translate(334.283242 225.757728) scale(0.085 -0.085)">
     <defs>
      <path id="DejaVuSans-38" d="M 2034 2216 
Q 1584 2216 1326 1975 
Q 1069 1734 1069 1313 
Q 1069 891 1326 650 
Q 1584 409 2034 409 
Q 2484 409 2743 651 
Q 3003 894 3003 1313 
Q 3003 1734 2745 1975 
Q 2488 2216 2034 2216 
z
M 1403 2484 
Q 997 2584 770 2862 
Q 544 3141 544 3541 
Q 544 4100 942 4425 
Q 1341 4750 2034 4750 
Q 2731 4750 3128 4425 
Q 3525 4100 3525 3541 
Q 3525 3141 3298 2862 
Q 3072 2584 2669 2484 
Q 3125 2378 3379 2068 
Q 3634 1759 3634 1313 
Q 3634 634 3220 271 
Q 2806 -91 2034 -91 
Q 1263 -91 848 271 
Q 434 634 434 1313 
Q 434 1759 690 2068 
Q 947 2378 1403 2484 
z
M 1172 3481 
Q 1172 3119 1398 2916 
Q 1625 2713 2034 2713 
Q 2441 2713 2670 2916 
Q 2900 3119 2900 3481 
Q 2900 3844 2670 4047 
Q 2441 4250 2034 4250 
Q 1625 4250 1398 4047 
Q 1172 3844 1172 3481 
z
" transform="scale(0.015625)"/>
     </defs>
     <use xlink:href="#DejaVuSans-4d"/>
     <use xlink:href="#DejaVuSans-61" x="86.279297"/>
     <use xlink:href="#DejaVuSans-78" x="147.558594"/>
     <use xlink:href="#DejaVuSans-50" x="206.738281"/>
     <use xlink:href="#DejaVuSans-6f" x="263.416016"/>
     <use xlink:href="#DejaVuSans-6f" x="324.597656"/>
     <use xlink:href="#DejaVuSans-6c" x="385.779297"/>
     <use xlink:href="#DejaVuSans-28" x="413.5625"/>
     <use xlink:href="#DejaVuSans-32" x="452.576172"/>
     <use xlink:href="#DejaVuSans-d7" x="516.199219"/>
     <use xlink:href="#DejaVuSans-32" x="599.988281"/>
     <use xlink:href="#DejaVuSans-29" x="663.611328"/>
     <use xlink:href="#DejaVuSans-20" x="702.625"/>
     <use xlink:href="#DejaVuSans-20" x="734.412109"/>
     <use xlink:href="#DejaVuSans-20" x="766.199219"/>
     <use xlink:href="#DejaVuSans-2192" x="797.986328"/>
     <use xlink:href="#DejaVuSans-20" x="881.775391"/>
     <use xlink:href="#DejaVuSans-20" x="913.5625"/>
     <use xlink:href="#DejaVuSans-36" x="945.349609"/>
     <use xlink:href="#DejaVuSans-34" x="1008.972656"/>
     <use xlink:href="#DejaVuSans-d7" x="1072.595703"/>
     <use xlink:href="#DejaVuSans-38" x="1156.384766"/>
     <use xlink:href="#DejaVuSans-d7" x="1220.007812"/>
     <use xlink:href="#DejaVuSans-38" x="1303.796875"/>
    </g>
   </g>
   <g id="text_7">
    <!-- Block 3 -->
    <g style="fill: #0f172a" transform="translate(369.884375 265.971411) scale(0.11 -0.11)">
     <use xlink:href="#DejaVuSans-Bold-42"/>
     <use xlink:href="#DejaVuSans-Bold-6c" x="76.220703"/>
     <use xlink:href="#DejaVuSans-Bold-6f" x="110.498047"/>
     <use xlink:href="#DejaVuSans-Bold-63" x="179.199219"/>
     <use xlink:href="#DejaVuSans-Bold-6b" x="238.476562"/>
     <use xlink:href="#DejaVuSans-Bold-20" x="304.980469"/>
     <use xlink:href="#DejaVuSans-Bold-33" x="339.794922"/>
    </g>
   </g>
   <g id="text_8">
    <!-- Conv2d(64→128, 3×3) → BN → ReLU -->
    <g style="fill: #475569" transform="translate(314.887969 276.989406) scale(0.085 -0.085)">
     <use xlink:href="#DejaVuSans-43"/>
     <use xlink:href="#DejaVuSans-6f" x="69.824219"/>
     <use xlink:href="#DejaVuSans-6e" x="131.005859"/>
     <use xlink:href="#DejaVuSans-76" x="194.384766"/>
     <use xlink:href="#DejaVuSans-32" x="253.564453"/>
     <use xlink:href="#DejaVuSans-64" x="317.1875"/>
     <use xlink:href="#DejaVuSans-28" x="380.664062"/>
     <use xlink:href="#DejaVuSans-36" x="419.677734"/>
     <use xlink:href="#DejaVuSans-34" x="483.300781"/>
     <use xlink:href="#DejaVuSans-2192" x="546.923828"/>
     <use xlink:href="#DejaVuSans-31" x="630.712891"/>
     <use xlink:href="#DejaVuSans-32" x="694.335938"/>
     <use xlink:href="#DejaVuSans-38" x="757.958984"/>
     <use xlink:href="#DejaVuSans-2c" x="821.582031"/>
     <use xlink:href="#DejaVuSans-20" x="853.369141"/>
     <use xlink:href="#DejaVuSans-33" x="885.15625"/>
     <use xlink:href="#DejaVuSans-d7" x="948.779297"/>
     <use xlink:href="#DejaVuSans-33" x="1032.568359"/>
     <use xlink:href="#DejaVuSans-29" x="1096.191406"/>
     <use xlink:href="#DejaVuSans-20" x="1135.205078"/>
     <use xlink:href="#DejaVuSans-2192" x="1166.992188"/>
     <use xlink:href="#DejaVuSans-20" x="1250.78125"/>
     <use xlink:href="#DejaVuSans-42" x="1282.568359"/>
     <use xlink:href="#DejaVuSans-4e" x="1351.171875"/>
     <use xlink:href="#DejaVuSans-20" x="1425.976562"/>
     <use xlink:href="#DejaVuSans-2192" x="1457.763672"/>
     <use xlink:href="#DejaVuSans-20" x="1541.552734"/>
     <use xlink:href="#DejaVuSans-52" x="1573.339844"/>
     <use xlink:href="#DejaVuSans-65" x="1638.322266"/>
     <use xlink:href="#DejaVuSans-4c" x="1699.845703"/>
     <use xlink:href="#DejaVuSans-55" x="1750.558594"/>
    </g>
    <!-- Conv2d(128→128, 3×3) → BN → ReLU -->
    <g style="fill: #475569" transform="translate(312.183906 287.799281) scale(0.085 -0.085)">
     <use xlink:href="#DejaVuSans-43"/>
     <use xlink:href="#DejaVuSans-6f" x="69.824219"/>
     <use xlink:href="#DejaVuSans-6e" x="131.005859"/>
     <use xlink:href="#DejaVuSans-76" x="194.384766"/>
     <use xlink:href="#DejaVuSans-32" x="253.564453"/>
     <use xlink:href="#DejaVuSans-64" x="317.1875"/>
     <use xlink:href="#DejaVuSans-28" x="380.664062"/>
     <use xlink:href="#DejaVuSans-31" x="419.677734"/>
     <use xlink:href="#DejaVuSans-32" x="483.300781"/>
     <use xlink:href="#DejaVuSans-38" x="546.923828"/>
     <use xlink:href="#DejaVuSans-2192" x="610.546875"/>
     <use xlink:href="#DejaVuSans-31" x="694.335938"/>
     <use xlink:href="#DejaVuSans-32" x="757.958984"/>
     <use xlink:href="#DejaVuSans-38" x="821.582031"/>
     <use xlink:href="#DejaVuSans-2c" x="885.205078"/>
     <use xlink:href="#DejaVuSans-20" x="916.992188"/>
     <use xlink:href="#DejaVuSans-33" x="948.779297"/>
     <use xlink:href="#DejaVuSans-d7" x="1012.402344"/>
     <use xlink:href="#DejaVuSans-33" x="1096.191406"/>
     <use xlink:href="#DejaVuSans-29" x="1159.814453"/>
     <use xlink:href="#DejaVuSans-20" x="1198.828125"/>
     <use xlink:href="#DejaVuSans-2192" x="1230.615234"/>
     <use xlink:href="#DejaVuSans-20" x="1314.404297"/>
     <use xlink:href="#DejaVuSans-42" x="1346.191406"/>
     <use xlink:href="#DejaVuSans-4e" x="1414.794922"/>
     <use xlink:href="#DejaVuSans-20" x="1489.599609"/>
     <use xlink:href="#DejaVuSans-2192" x="1521.386719"/>
     <use xlink:href="#DejaVuSans-20" x="1605.175781"/>
     <use xlink:href="#DejaVuSans-52" x="1636.962891"/>
     <use xlink:href="#DejaVuSans-65" x="1701.945312"/>
     <use xlink:href="#DejaVuSans-4c" x="1763.46875"/>
     <use xlink:href="#DejaVuSans-55" x="1814.181641"/>
    </g>
    <!-- MaxPool(2×2)  →  128×4×4 -->
    <g style="fill: #475569" transform="translate(332.929883 298.609156) scale(0.085 -0.085)">
     <use xlink:href="#DejaVuSans-4d"/>
     <use xlink:href="#DejaVuSans-61" x="86.279297"/>
     <use xlink:href="#DejaVuSans-78" x="147.558594"/>
     <use xlink:href="#DejaVuSans-50" x="206.738281"/>
     <use xlink:href="#DejaVuSans-6f" x="263.416016"/>
     <use xlink:href="#DejaVuSans-6f" x="324.597656"/>
     <use xlink:href="#DejaVuSans-6c" x="385.779297"/>
     <use xlink:href="#DejaVuSans-28" x="413.5625"/>
     <use xlink:href="#DejaVuSans-32" x="452.576172"/>
     <use xlink:href="#DejaVuSans-d7" x="516.199219"/>
     <use xlink:href="#DejaVuSans-32" x="599.988281"/>
     <use xlink:href="#DejaVuSans-29" x="663.611328"/>
     <use xlink:href="#DejaVuSans-20" x="702.625"/>
     <use xlink:href="#DejaVuSans-20" x="734.412109"/>
     <use xlink:href="#DejaVuSans-2192" x="766.199219"/>
     <use xlink:href="#DejaVuSans-20" x="849.988281"/>
     <use xlink:href="#DejaVuSans-20" x="881.775391"/>
     <use xlink:href="#DejaVuSans-31" x="913.5625"/>
     <use xlink:href="#DejaVuSans-32" x="977.185547"/>
     <use xlink:href="#DejaVuSans-38" x="1040.808594"/>
     <use xlink:href="#DejaVuSans-d7" x="1104.431641"/>
     <use xlink:href="#DejaVuSans-34" x="1188.220703"/>
     <use xlink:href="#DejaVuSans-d7" x="1251.84375"/>
     <use xlink:href="#DejaVuSans-34" x="1335.632812"/>
    </g>
   </g>
   <g id="text_9">
    <!-- Classifier -->
    <g style="fill: #0f172a" transform="translate(363.613516 332.199982) scale(0.11 -0.11)">
     <defs>
      <path id="DejaVuSans-Bold-61" d="M 2106 1575 
Q 1756 1575 1579 1456 
Q 1403 1338 1403 1106 
Q 1403 894 1545 773 
Q 1688 653 1941 653 
Q 2256 653 2472 879 
Q 2688 1106 2688 1447 
L 2688 1575 
L 2106 1575 
z
M 3816 1997 
L 3816 0 
L 2688 0 
L 2688 519 
Q 2463 200 2181 54 
Q 1900 -91 1497 -91 
Q 953 -91 614 226 
Q 275 544 275 1050 
Q 275 1666 698 1953 
Q 1122 2241 2028 2241 
L 2688 2241 
L 2688 2328 
Q 2688 2594 2478 2717 
Q 2269 2841 1825 2841 
Q 1466 2841 1156 2769 
Q 847 2697 581 2553 
L 581 3406 
Q 941 3494 1303 3539 
Q 1666 3584 2028 3584 
Q 2975 3584 3395 3211 
Q 3816 2838 3816 1997 
z
" transform="scale(0.015625)"/>
      <path id="DejaVuSans-Bold-73" d="M 3272 3391 
L 3272 2541 
Q 2913 2691 2578 2766 
Q 2244 2841 1947 2841 
Q 1628 2841 1473 2761 
Q 1319 2681 1319 2516 
Q 1319 2381 1436 2309 
Q 1553 2238 1856 2203 
L 2053 2175 
Q 2913 2066 3209 1816 
Q 3506 1566 3506 1031 
Q 3506 472 3093 190 
Q 2681 -91 1863 -91 
Q 1516 -91 1145 -36 
Q 775 19 384 128 
L 384 978 
Q 719 816 1070 734 
Q 1422 653 1784 653 
Q 2113 653 2278 743 
Q 2444 834 2444 1013 
Q 2444 1163 2330 1236 
Q 2216 1309 1875 1350 
L 1678 1375 
Q 931 1469 631 1722 
Q 331 1975 331 2491 
Q 331 3047 712 3315 
Q 1094 3584 1881 3584 
Q 2191 3584 2531 3537 
Q 2872 3491 3272 3391 
z
" transform="scale(0.015625)"/>
     </defs>
     <use xlink:href="#DejaVuSans-Bold-43"/>
     <use xlink:href="#DejaVuSans-Bold-6c" x="73.388672"/>
     <use xlink:href="#DejaVuSans-Bold-61" x="107.666016"/>
     <use xlink:href="#DejaVuSans-Bold-73" x="175.146484"/>
     <use xlink:href="#DejaVuSans-Bold-73" x="234.667969"/>
     <use xlink:href="#DejaVuSans-Bold-69" x="294.189453"/>
     <use xlink:href="#DejaVuSans-Bold-66" x="328.466797"/>
     <use xlink:href="#DejaVuSans-Bold-69" x="371.972656"/>
     <use xlink:href="#DejaVuSans-Bold-65" x="406.25"/>
     <use xlink:href="#DejaVuSans-Bold-72" x="474.072266"/>
    </g>
   </g>
   <g id="text_10">
    <!-- Flatten(2048) → Dropout(0.5) -->
    <g style="fill: #475569" transform="translate(329.876523 343.217978) scale(0.085 -0.085)">
     <defs>
      <path id="DejaVuSans-46" d="M 628 4666 
L 3309 4666 
L 3309 4134 
L 1259 4134 
L 1259 2759 
L 3109 2759 
L 3109 2228 
L 1259 2228 
L 1259 0 
L 628 0 
L 628 4666 
z
" transform="scale(0.015625)"/>
      <path id="DejaVuSans-74" d="M 1172 4494 
L 1172 3500 
L 2356 3500 
L 2356 3053 
L 1172 3053 
L 1172 1153 
Q 1172 725 1289 603 
Q 1406 481 1766 481 
L 2356 481 
L 2356 0 
L 1766 0 
Q 1100 0 847 248 
Q 594 497 594 1153 
L 594 3053 
L 172 3053 
L 172 3500 
L 594 3500 
L 594 4494 
L 1172 4494 
z
" transform="scale(0.015625)"/>
      <path id="DejaVuSans-30" d="M 2034 4250 
Q 1547 4250 1301 3770 
Q 1056 3291 1056 2328 
Q 1056 1369 1301 889 
Q 1547 409 2034 409 
Q 2525 409 2770 889 
Q 3016 1369 3016 2328 
Q 3016 3291 2770 3770 
Q 2525 4250 2034 4250 
z
M 2034 4750 
Q 2819 4750 3233 4129 
Q 3647 3509 3647 2328 
Q 3647 1150 3233 529 
Q 2819 -91 2034 -91 
Q 1250 -91 836 529 
Q 422 1150 422 2328 
Q 422 3509 836 4129 
Q 1250 4750 2034 4750 
z
" transform="scale(0.015625)"/>
      <path id="DejaVuSans-44" d="M 1259 4147 
L 1259 519 
L 2022 519 
Q 2988 519 3436 956 
Q 3884 1394 3884 2338 
Q 3884 3275 3436 3711 
Q 2988 4147 2022 4147 
L 1259 4147 
z
M 628 4666 
L 1925 4666 
Q 3281 4666 3915 4102 
Q 4550 3538 4550 2338 
Q 4550 1131 3912 565 
Q 3275 0 1925 0 
L 628 0 
L 628 4666 
z
" transform="scale(0.015625)"/>
      <path id="DejaVuSans-72" d="M 2631 2963 
Q 2534 3019 2420 3045 
Q 2306 3072 2169 3072 
Q 1681 3072 1420 2755 
Q 1159 2438 1159 1844 
L 1159 0 
L 581 0 
L 581 3500 
L 1159 3500 
L 1159 2956 
Q 1341 3275 1631 3429 
Q 1922 3584 2338 3584 
Q 2397 3584 2469 3576 
Q 2541 3569 2628 3553 
L 2631 2963 
z
" transform="scale(0.015625)"/>
      <path id="DejaVuSans-70" d="M 1159 525 
L 1159 -1331 
L 581 -1331 
L 581 3500 
L 1159 3500 
L 1159 2969 
Q 1341 3281 1617 3432 
Q 1894 3584 2278 3584 
Q 2916 3584 3314 3078 
Q 3713 2572 3713 1747 
Q 3713 922 3314 415 
Q 2916 -91 2278 -91 
Q 1894 -91 1617 61 
Q 1341 213 1159 525 
z
M 3116 1747 
Q 3116 2381 2855 2742 
Q 2594 3103 2138 3103 
Q 1681 3103 1420 2742 
Q 1159 2381 1159 1747 
Q 1159 1113 1420 752 
Q 1681 391 2138 391 
Q 2594 391 2855 752 
Q 3116 1113 3116 1747 
z
" transform="scale(0.015625)"/>
      <path id="DejaVuSans-75" d="M 544 1381 
L 544 3500 
L 1119 3500 
L 1119 1403 
Q 1119 906 1312 657 
Q 1506 409 1894 409 
Q 2359 409 2629 706 
Q 2900 1003 2900 1516 
L 2900 3500 
L 3475 3500 
L 3475 0 
L 2900 0 
L 2900 538 
Q 2691 219 2414 64 
Q 2138 -91 1772 -91 
Q 1169 -91 856 284 
Q 544 659 544 1381 
z
M 1991 3584 
L 1991 3584 
z
" transform="scale(0.015625)"/>
      <path id="DejaVuSans-2e" d="M 684 794 
L 1344 794 
L 1344 0 
L 684 0 
L 684 794 
z
" transform="scale(0.015625)"/>
      <path id="DejaVuSans-35" d="M 691 4666 
L 3169 4666 
L 3169 4134 
L 1269 4134 
L 1269 2991 
Q 1406 3038 1543 3061 
Q 1681 3084 1819 3084 
Q 2600 3084 3056 2656 
Q 3513 2228 3513 1497 
Q 3513 744 3044 326 
Q 2575 -91 1722 -91 
Q 1428 -91 1123 -41 
Q 819 9 494 109 
L 494 744 
Q 775 591 1075 516 
Q 1375 441 1709 441 
Q 2250 441 2565 725 
Q 2881 1009 2881 1497 
Q 2881 1984 2565 2268 
Q 2250 2553 1709 2553 
Q 1456 2553 1204 2497 
Q 953 2441 691 2322 
L 691 4666 
z
" transform="scale(0.015625)"/>
     </defs>
     <use xlink:href="#DejaVuSans-46"/>
     <use xlink:href="#DejaVuSans-6c" x="57.519531"/>
     <use xlink:href="#DejaVuSans-61" x="85.302734"/>
     <use xlink:href="#DejaVuSans-74" x="146.582031"/>
     <use xlink:href="#DejaVuSans-74" x="185.791016"/>
     <use xlink:href="#DejaVuSans-65" x="225"/>
     <use xlink:href="#DejaVuSans-6e" x="286.523438"/>
     <use xlink:href="#DejaVuSans-28" x="349.902344"/>
     <use xlink:href="#DejaVuSans-32" x="388.916016"/>
     <use xlink:href="#DejaVuSans-30" x="452.539062"/>
     <use xlink:href="#DejaVuSans-34" x="516.162109"/>
     <use xlink:href="#DejaVuSans-38" x="579.785156"/>
     <use xlink:href="#DejaVuSans-29" x="643.408203"/>
     <use xlink:href="#DejaVuSans-20" x="682.421875"/>
     <use xlink:href="#DejaVuSans-2192" x="714.208984"/>
     <use xlink:href="#DejaVuSans-20" x="797.998047"/>
     <use xlink:href="#DejaVuSans-44" x="829.785156"/>
     <use xlink:href="#DejaVuSans-72" x="906.787109"/>
     <use xlink:href="#DejaVuSans-6f" x="945.650391"/>
     <use xlink:href="#DejaVuSans-70" x="1006.832031"/>
     <use xlink:href="#DejaVuSans-6f" x="1070.308594"/>
     <use xlink:href="#DejaVuSans-75" x="1131.490234"/>
     <use xlink:href="#DejaVuSans-74" x="1194.869141"/>
     <use xlink:href="#DejaVuSans-28" x="1234.078125"/>
     <use xlink:href="#DejaVuSans-30" x="1273.091797"/>
     <use xlink:href="#DejaVuSans-2e" x="1336.714844"/>
     <use xlink:href="#DejaVuSans-35" x="1368.501953"/>
     <use xlink:href="#DejaVuSans-29" x="1432.125"/>
    </g>
    <!-- Linear(2048→256) → ReLU → Dropout(0.3) -->
    <g style="fill: #475569" transform="translate(302.95875 354.027853) scale(0.085 -0.085)">
     <defs>
      <path id="DejaVuSans-69" d="M 603 3500 
L 1178 3500 
L 1178 0 
L 603 0 
L 603 3500 
z
M 603 4863 
L 1178 4863 
L 1178 4134 
L 603 4134 
L 603 4863 
z
" transform="scale(0.015625)"/>
     </defs>
     <use xlink:href="#DejaVuSans-4c"/>
     <use xlink:href="#DejaVuSans-69" x="55.712891"/>
     <use xlink:href="#DejaVuSans-6e" x="83.496094"/>
     <use xlink:href="#DejaVuSans-65" x="146.875"/>
     <use xlink:href="#DejaVuSans-61" x="208.398438"/>
     <use xlink:href="#DejaVuSans-72" x="269.677734"/>
     <use xlink:href="#DejaVuSans-28" x="310.791016"/>
     <use xlink:href="#DejaVuSans-32" x="349.804688"/>
     <use xlink:href="#DejaVuSans-30" x="413.427734"/>
     <use xlink:href="#DejaVuSans-34" x="477.050781"/>
     <use xlink:href="#DejaVuSans-38" x="540.673828"/>
     <use xlink:href="#DejaVuSans-2192" x="604.296875"/>
     <use xlink:href="#DejaVuSans-32" x="688.085938"/>
     <use xlink:href="#DejaVuSans-35" x="751.708984"/>
     <use xlink:href="#DejaVuSans-36" x="815.332031"/>
     <use xlink:href="#DejaVuSans-29" x="878.955078"/>
     <use xlink:href="#DejaVuSans-20" x="917.96875"/>
     <use xlink:href="#DejaVuSans-2192" x="949.755859"/>
     <use xlink:href="#DejaVuSans-20" x="1033.544922"/>
     <use xlink:href="#DejaVuSans-52" x="1065.332031"/>
     <use xlink:href="#DejaVuSans-65" x="1130.314453"/>
     <use xlink:href="#DejaVuSans-4c" x="1191.837891"/>
     <use xlink:href="#DejaVuSans-55" x="1242.550781"/>
     <use xlink:href="#DejaVuSans-20" x="1315.744141"/>
     <use xlink:href="#DejaVuSans-2192" x="1347.53125"/>
     <use xlink:href="#DejaVuSans-20" x="1431.320312"/>
     <use xlink:href="#DejaVuSans-44" x="1463.107422"/>
     <use xlink:href="#DejaVuSans-72" x="1540.109375"/>
     <use xlink:href="#DejaVuSans-6f" x="1578.972656"/>
     <use xlink:href="#DejaVuSans-70" x="1640.154297"/>
     <use xlink:href="#DejaVuSans-6f" x="1703.630859"/>
     <use xlink:href="#DejaVuSans-75" x="1764.8125"/>
     <use xlink:href="#DejaVuSans-74" x="1828.191406"/>
     <use xlink:href="#DejaVuSans-28" x="1867.400391"/>
     <use xlink:href="#DejaVuSans-30" x="1906.414062"/>
     <use xlink:href="#DejaVuSans-2e" x="1970.037109"/>
     <use xlink:href="#DejaVuSans-33" x="2001.824219"/>
     <use xlink:href="#DejaVuSans-29" x="2065.447266"/>
    </g>
    <!-- Linear(256→10) -->
    <g style="fill: #475569" transform="translate(358.793125 364.837728) scale(0.085 -0.085)">
     <use xlink:href="#DejaVuSans-4c"/>
     <use xlink:href="#DejaVuSans-69" x="55.712891"/>
     <use xlink:href="#DejaVuSans-6e" x="83.496094"/>
     <use xlink:href="#DejaVuSans-65" x="146.875"/>
     <use xlink:href="#DejaVuSans-61" x="208.398438"/>
     <use xlink:href="#DejaVuSans-72" x="269.677734"/>
     <use xlink:href="#DejaVuSans-28" x="310.791016"/>
     <use xlink:href="#DejaVuSans-32" x="349.804688"/>
     <use xlink:href="#DejaVuSans-35" x="413.427734"/>
     <use xlink:href="#DejaVuSans-36" x="477.050781"/>
     <use xlink:href="#DejaVuSans-2192" x="540.673828"/>
     <use xlink:href="#DejaVuSans-31" x="624.462891"/>
     <use xlink:href="#DejaVuSans-30" x="688.085938"/>
     <use xlink:href="#DejaVuSans-29" x="751.708984"/>
    </g>
   </g>
   <g id="text_11">
    <!-- Output: 10 class probabilities -->
    <g style="fill: #0f172a" transform="translate(292.156875 406.65192) scale(0.12 -0.12)">
     <defs>
      <path id="DejaVuSans-Bold-4f" d="M 2719 3878 
Q 2169 3878 1866 3472 
Q 1563 3066 1563 2328 
Q 1563 1594 1866 1187 
Q 2169 781 2719 781 
Q 3272 781 3575 1187 
Q 3878 1594 3878 2328 
Q 3878 3066 3575 3472 
Q 3272 3878 2719 3878 
z
M 2719 4750 
Q 3844 4750 4481 4106 
Q 5119 3463 5119 2328 
Q 5119 1197 4481 553 
Q 3844 -91 2719 -91 
Q 1597 -91 958 553 
Q 319 1197 319 2328 
Q 319 3463 958 4106 
Q 1597 4750 2719 4750 
z
" transform="scale(0.015625)"/>
      <path id="DejaVuSans-Bold-62" d="M 2400 722 
Q 2759 722 2948 984 
Q 3138 1247 3138 1747 
Q 3138 2247 2948 2509 
Q 2759 2772 2400 2772 
Q 2041 2772 1848 2508 
Q 1656 2244 1656 1747 
Q 1656 1250 1848 986 
Q 2041 722 2400 722 
z
M 1656 2988 
Q 1888 3294 2169 3439 
Q 2450 3584 2816 3584 
Q 3463 3584 3878 3070 
Q 4294 2556 4294 1747 
Q 4294 938 3878 423 
Q 3463 -91 2816 -91 
Q 2450 -91 2169 54 
Q 1888 200 1656 506 
L 1656 0 
L 538 0 
L 538 4863 
L 1656 4863 
L 1656 2988 
z
" transform="scale(0.015625)"/>
     </defs>
     <use xlink:href="#DejaVuSans-Bold-4f"/>
     <use xlink:href="#DejaVuSans-Bold-75" x="85.009766"/>
     <use xlink:href="#DejaVuSans-Bold-74" x="156.201172"/>
     <use xlink:href="#DejaVuSans-Bold-70" x="204.003906"/>
     <use xlink:href="#DejaVuSans-Bold-75" x="275.585938"/>
     <use xlink:href="#DejaVuSans-Bold-74" x="346.777344"/>
     <use xlink:href="#DejaVuSans-Bold-3a" x="394.580078"/>
     <use xlink:href="#DejaVuSans-Bold-20" x="434.570312"/>
     <use xlink:href="#DejaVuSans-Bold-31" x="469.384766"/>
     <use xlink:href="#DejaVuSans-Bold-30" x="538.964844"/>
     <use xlink:href="#DejaVuSans-Bold-20" x="608.544922"/>
     <use xlink:href="#DejaVuSans-Bold-63" x="643.359375"/>
     <use xlink:href="#DejaVuSans-Bold-6c" x="702.636719"/>
     <use xlink:href="#DejaVuSans-Bold-61" x="736.914062"/>
     <use xlink:href="#DejaVuSans-Bold-73" x="804.394531"/>
     <use xlink:href="#DejaVuSans-Bold-73" x="863.916016"/>
     <use xlink:href="#DejaVuSans-Bold-20" x="923.4375"/>
     <use xlink:href="#DejaVuSans-Bold-70" x="958.251953"/>
     <use xlink:href="#DejaVuSans-Bold-72" x="1029.833984"/>
     <use xlink:href="#DejaVuSans-Bold-6f" x="1079.150391"/>
     <use xlink:href="#DejaVuSans-Bold-62" x="1147.851562"/>
     <use xlink:href="#DejaVuSans-Bold-61" x="1219.433594"/>
     <use xlink:href="#DejaVuSans-Bold-62" x="1286.914062"/>
     <use xlink:href="#DejaVuSans-Bold-69" x="1358.496094"/>
     <use xlink:href="#DejaVuSans-Bold-6c" x="1392.773438"/>
     <use xlink:href="#DejaVuSans-Bold-69" x="1427.050781"/>
     <use xlink:href="#DejaVuSans-Bold-74" x="1461.328125"/>
     <use xlink:href="#DejaVuSans-Bold-69" x="1509.130859"/>
     <use xlink:href="#DejaVuSans-Bold-65" x="1543.408203"/>
     <use xlink:href="#DejaVuSans-Bold-73" x="1611.230469"/>
    </g>
   </g>
  </g>
 </g>
 <defs>
  <clipPath id="p545012821a">
   <rect x="7.2" y="25.837812" width="770.4" height="463.6"/>
  </clipPath>
 </defs>
</svg>
