<svg xmlns="http://www.w3.org/2000/svg" viewBox="0 0 720 340" font-family="'Segoe UI', Arial, sans-serif" font-size="14">
  <defs>
    <marker id="a2" markerWidth="8" markerHeight="6" refX="8" refY="3" orient="auto">
      <path d="M0,0 L8,3 L0,6 Z" fill="#555"/>
    </marker>
  </defs>

  <!-- Input label -->
  <text x="125" y="25" text-anchor="middle" font-size="15" font-weight="bold" fill="#333">Input (5x5)</text>

  <!-- Input grid 5x5 -->
  <g transform="translate(30,35)">
    <!-- Highlight the 3x3 region being convolved -->
    <rect x="0" y="0" width="108" height="108" rx="2" fill="#dbeafe" stroke="#2563eb" stroke-width="2" opacity="0.3"/>

    <!-- Grid cells -->
    <rect x="0" y="0" width="36" height="36" fill="none" stroke="#999" stroke-width="1"/>
    <text x="18" y="23" text-anchor="middle" fill="#333">1</text>
    <rect x="36" y="0" width="36" height="36" fill="none" stroke="#999" stroke-width="1"/>
    <text x="54" y="23" text-anchor="middle" fill="#333">0</text>
    <rect x="72" y="0" width="36" height="36" fill="none" stroke="#999" stroke-width="1"/>
    <text x="90" y="23" text-anchor="middle" fill="#333">1</text>
    <rect x="108" y="0" width="36" height="36" fill="none" stroke="#999" stroke-width="1"/>
    <text x="126" y="23" text-anchor="middle" fill="#333">0</text>
    <rect x="144" y="0" width="36" height="36" fill="none" stroke="#999" stroke-width="1"/>
    <text x="162" y="23" text-anchor="middle" fill="#333">1</text>

    <rect x="0" y="36" width="36" height="36" fill="none" stroke="#999" stroke-width="1"/>
    <text x="18" y="59" text-anchor="middle" fill="#333">0</text>
    <rect x="36" y="36" width="36" height="36" fill="none" stroke="#999" stroke-width="1"/>
    <text x="54" y="59" text-anchor="middle" fill="#333">1</text>
    <rect x="72" y="36" width="36" height="36" fill="none" stroke="#999" stroke-width="1"/>
    <text x="90" y="59" text-anchor="middle" fill="#333">0</text>
    <rect x="108" y="36" width="36" height="36" fill="none" stroke="#999" stroke-width="1"/>
    <text x="126" y="59" text-anchor="middle" fill="#333">1</text>
    <rect x="144" y="36" width="36" height="36" fill="none" stroke="#999" stroke-width="1"/>
    <text x="162" y="59" text-anchor="middle" fill="#333">0</text>

    <rect x="0" y="72" width="36" height="36" fill="none" stroke="#999" stroke-width="1"/>
    <text x="18" y="95" text-anchor="middle" fill="#333">1</text>
    <rect x="36" y="72" width="36" height="36" fill="none" stroke="#999" stroke-width="1"/>
    <text x="54" y="95" text-anchor="middle" fill="#333">0</text>
    <rect x="72" y="72" width="36" height="36" fill="none" stroke="#999" stroke-width="1"/>
    <text x="90" y="95" text-anchor="middle" fill="#333">1</text>
    <rect x="108" y="72" width="36" height="36" fill="none" stroke="#999" stroke-width="1"/>
    <text x="126" y="95" text-anchor="middle" fill="#333">0</text>
    <rect x="144" y="72" width="36" height="36" fill="none" stroke="#999" stroke-width="1"/>
    <text x="162" y="95" text-anchor="middle" fill="#333">1</text>

    <rect x="0" y="108" width="36" height="36" fill="none" stroke="#999" stroke-width="1"/>
    <text x="18" y="131" text-anchor="middle" fill="#333">0</text>
    <rect x="36" y="108" width="36" height="36" fill="none" stroke="#999" stroke-width="1"/>
    <text x="54" y="131" text-anchor="middle" fill="#333">1</text>
    <rect x="72" y="108" width="36" height="36" fill="none" stroke="#999" stroke-width="1"/>
    <text x="90" y="131" text-anchor="middle" fill="#333">0</text>
    <rect x="108" y="108" width="36" height="36" fill="none" stroke="#999" stroke-width="1"/>
    <text x="126" y="131" text-anchor="middle" fill="#333">1</text>
    <rect x="144" y="108" width="36" height="36" fill="none" stroke="#999" stroke-width="1"/>
    <text x="162" y="131" text-anchor="middle" fill="#333">0</text>

    <rect x="0" y="144" width="36" height="36" fill="none" stroke="#999" stroke-width="1"/>
    <text x="18" y="167" text-anchor="middle" fill="#333">1</text>
    <rect x="36" y="144" width="36" height="36" fill="none" stroke="#999" stroke-width="1"/>
    <text x="54" y="167" text-anchor="middle" fill="#333">0</text>
    <rect x="72" y="144" width="36" height="36" fill="none" stroke="#999" stroke-width="1"/>
    <text x="90" y="167" text-anchor="middle" fill="#333">1</text>
    <rect x="108" y="144" width="36" height="36" fill="none" stroke="#999" stroke-width="1"/>
    <text x="126" y="167" text-anchor="middle" fill="#333">0</text>
    <rect x="144" y="144" width="36" height="36" fill="none" stroke="#999" stroke-width="1"/>
    <text x="162" y="167" text-anchor="middle" fill="#333">1</text>
  </g>

  <!-- Filter label -->
  <text x="340" y="25" text-anchor="middle" font-size="15" font-weight="bold" fill="#333">Filter (3x3)</text>

  <!-- Filter grid 3x3 -->
  <g transform="translate(270,35)">
    <rect x="0" y="0" width="36" height="36" fill="#fef3c7" stroke="#d97706" stroke-width="1.5"/>
    <text x="18" y="23" text-anchor="middle" fill="#92400e">1</text>
    <rect x="36" y="0" width="36" height="36" fill="#fef3c7" stroke="#d97706" stroke-width="1.5"/>
    <text x="54" y="23" text-anchor="middle" fill="#92400e">0</text>
    <rect x="72" y="0" width="36" height="36" fill="#fef3c7" stroke="#d97706" stroke-width="1.5"/>
    <text x="90" y="23" text-anchor="middle" fill="#92400e">1</text>

    <rect x="0" y="36" width="36" height="36" fill="#fef3c7" stroke="#d97706" stroke-width="1.5"/>
    <text x="18" y="59" text-anchor="middle" fill="#92400e">0</text>
    <rect x="36" y="36" width="36" height="36" fill="#fef3c7" stroke="#d97706" stroke-width="1.5"/>
    <text x="54" y="59" text-anchor="middle" fill="#92400e">1</text>
    <rect x="72" y="36" width="36" height="36" fill="#fef3c7" stroke="#d97706" stroke-width="1.5"/>
    <text x="90" y="59" text-anchor="middle" fill="#92400e">0</text>

    <rect x="0" y="72" width="36" height="36" fill="#fef3c7" stroke="#d97706" stroke-width="1.5"/>
    <text x="18" y="95" text-anchor="middle" fill="#92400e">1</text>
    <rect x="36" y="72" width="36" height="36" fill="#fef3c7" stroke="#d97706" stroke-width="1.5"/>
    <text x="54" y="95" text-anchor="middle" fill="#92400e">0</text>
    <rect x="72" y="72" width="36" height="36" fill="#fef3c7" stroke="#d97706" stroke-width="1.5"/>
    <text x="90" y="95" text-anchor="middle" fill="#92400e">1</text>
  </g>

  <!-- Arrow -->
  <text x="420" y="90" font-size="28" fill="#555">&#x2192;</text>

  <!-- Output label -->
  <text x="560" y="25" text-anchor="middle" font-size="15" font-weight="bold" fill="#333">Output (3x3)</text>

  <!-- Output grid 3x3 -->
  <g transform="translate(490,35)">
    <rect x="0" y="0" width="44" height="44" fill="#d1fae5" stroke="#059669" stroke-width="1.5"/>
    <text x="22" y="28" text-anchor="middle" fill="#065f46" font-weight="bold">4</text>
    <rect x="44" y="0" width="44" height="44" fill="#d1fae5" stroke="#059669" stroke-width="1.5"/>
    <text x="66" y="28" text-anchor="middle" fill="#065f46" font-weight="bold">3</text>
    <rect x="88" y="0" width="44" height="44" fill="#d1fae5" stroke="#059669" stroke-width="1.5"/>
    <text x="110" y="28" text-anchor="middle" fill="#065f46" font-weight="bold">4</text>

    <rect x="0" y="44" width="44" height="44" fill="#d1fae5" stroke="#059669" stroke-width="1.5"/>
    <text x="22" y="72" text-anchor="middle" fill="#065f46" font-weight="bold">2</text>
    <rect x="44" y="44" width="44" height="44" fill="#d1fae5" stroke="#059669" stroke-width="1.5"/>
    <text x="66" y="72" text-anchor="middle" fill="#065f46" font-weight="bold">4</text>
    <rect x="88" y="44" width="44" height="44" fill="#d1fae5" stroke="#059669" stroke-width="1.5"/>
    <text x="110" y="72" text-anchor="middle" fill="#065f46" font-weight="bold">3</text>

    <rect x="0" y="88" width="44" height="44" fill="#d1fae5" stroke="#059669" stroke-width="1.5"/>
    <text x="22" y="116" text-anchor="middle" fill="#065f46" font-weight="bold">4</text>
    <rect x="44" y="88" width="44" height="44" fill="#d1fae5" stroke="#059669" stroke-width="1.5"/>
    <text x="66" y="116" text-anchor="middle" fill="#065f46" font-weight="bold">3</text>
    <rect x="88" y="88" width="44" height="44" fill="#d1fae5" stroke="#059669" stroke-width="1.5"/>
    <text x="110" y="116" text-anchor="middle" fill="#065f46" font-weight="bold">4</text>
  </g>

  <!-- Computation explanation -->
  <rect x="200" y="250" width="340" height="65" rx="6" fill="#f5f5f5" stroke="#ddd" stroke-width="1"/>
  <text x="370" y="272" text-anchor="middle" font-size="13" fill="#333" font-weight="bold">Top-left computation:</text>
  <text x="370" y="292" text-anchor="middle" font-size="12" fill="#555">1&#xD7;1 + 0&#xD7;0 + 1&#xD7;1 + 0&#xD7;0 + 1&#xD7;1 + 0&#xD7;0 + 1&#xD7;1 + 0&#xD7;0 + 1&#xD7;1 = 4</text>
</svg>