<?xml version="1.0" encoding="utf-8" standalone="no"?>
<!DOCTYPE svg PUBLIC "-//W3C//DTD SVG 1.1//EN"
  "http://www.w3.org/Graphics/SVG/1.1/DTD/svg11.dtd">
<svg xmlns:xlink="http://www.w3.org/1999/xlink" width="928.8pt" height="388.637812pt" viewBox="0 0 928.8 388.637812" xmlns="http://www.w3.org/2000/svg" version="1.1">
 <metadata>
  <rdf:RDF xmlns:dc="http://purl.org/dc/elements/1.1/" xmlns:cc="http://creativecommons.org/ns#" xmlns:rdf="http://www.w3.org/1999/02/22-rdf-syntax-ns#">
   <cc:Work>
    <dc:type rdf:resource="http://purl.org/dc/dcmitype/StillImage"/>
    <dc:date>2026-04-24T07:26:54.851430</dc:date>
    <dc:format>image/svg+xml</dc:format>
    <dc:creator>
     <cc:Agent>
      <dc:title>Matplotlib v3.8.0, https://matplotlib.org/</dc:title>
     </cc:Agent>
    </dc:creator>
   </cc:Work>
  </rdf:RDF>
 </metadata>
 <defs>
  <style type="text/css">*{stroke-linejoin: round; stroke-linecap: butt}</style>
 </defs>
 <g id="figure_1">
  <g id="patch_1">
   <path d="M 0 388.637812 
L 928.8 388.637812 
L 928.8 0 
L 0 0 
z
" style="fill: #ffffff"/>
  </g>
  <g id="axes_1">
   <g id="text_1">
    <!-- Input (5×5) -->
    <g style="fill: #0f172a" transform="translate(122.780817 62.044358) scale(0.11 -0.11)">
     <defs>
      <path id="DejaVuSans-Bold-49" d="M 588 4666 
L 1791 4666 
L 1791 0 
L 588 0 
L 588 4666 
z
" transform="scale(0.015625)"/>
      <path id="DejaVuSans-Bold-6e" d="M 4056 2131 
L 4056 0 
L 2931 0 
L 2931 347 
L 2931 1631 
Q 2931 2084 2911 2256 
Q 2891 2428 2841 2509 
Q 2775 2619 2662 2680 
Q 2550 2741 2406 2741 
Q 2056 2741 1856 2470 
Q 1656 2200 1656 1722 
L 1656 0 
L 538 0 
L 538 3500 
L 1656 3500 
L 1656 2988 
Q 1909 3294 2193 3439 
Q 2478 3584 2822 3584 
Q 3428 3584 3742 3212 
Q 4056 2841 4056 2131 
z
" transform="scale(0.015625)"/>
      <path id="DejaVuSans-Bold-70" d="M 1656 506 
L 1656 -1331 
L 538 -1331 
L 538 3500 
L 1656 3500 
L 1656 2988 
Q 1888 3294 2169 3439 
Q 2450 3584 2816 3584 
Q 3463 3584 3878 3070 
Q 4294 2556 4294 1747 
Q 4294 938 3878 423 
Q 3463 -91 2816 -91 
Q 2450 -91 2169 54 
Q 1888 200 1656 506 
z
M 2400 2772 
Q 2041 2772 1848 2508 
Q 1656 2244 1656 1747 
Q 1656 1250 1848 986 
Q 2041 722 2400 722 
Q 2759 722 2948 984 
Q 3138 1247 3138 1747 
Q 3138 2247 2948 2509 
Q 2759 2772 2400 2772 
z
" transform="scale(0.015625)"/>
      <path id="DejaVuSans-Bold-75" d="M 500 1363 
L 500 3500 
L 1625 3500 
L 1625 3150 
Q 1625 2866 1622 2436 
Q 1619 2006 1619 1863 
Q 1619 1441 1641 1255 
Q 1663 1069 1716 984 
Q 1784 875 1895 815 
Q 2006 756 2150 756 
Q 2500 756 2700 1025 
Q 2900 1294 2900 1772 
L 2900 3500 
L 4019 3500 
L 4019 0 
L 2900 0 
L 2900 506 
Q 2647 200 2364 54 
Q 2081 -91 1741 -91 
Q 1134 -91 817 281 
Q 500 653 500 1363 
z
" transform="scale(0.015625)"/>
      <path id="DejaVuSans-Bold-74" d="M 1759 4494 
L 1759 3500 
L 2913 3500 
L 2913 2700 
L 1759 2700 
L 1759 1216 
Q 1759 972 1856 886 
Q 1953 800 2241 800 
L 2816 800 
L 2816 0 
L 1856 0 
Q 1194 0 917 276 
Q 641 553 641 1216 
L 641 2700 
L 84 2700 
L 84 3500 
L 641 3500 
L 641 4494 
L 1759 4494 
z
" transform="scale(0.015625)"/>
      <path id="DejaVuSans-Bold-20" transform="scale(0.015625)"/>
      <path id="DejaVuSans-Bold-28" d="M 2413 -844 
L 1484 -844 
Q 1006 -72 778 623 
Q 550 1319 550 2003 
Q 550 2688 779 3389 
Q 1009 4091 1484 4856 
L 2413 4856 
Q 2013 4116 1813 3408 
Q 1613 2700 1613 2009 
Q 1613 1319 1811 609 
Q 2009 -100 2413 -844 
z
" transform="scale(0.015625)"/>
      <path id="DejaVuSans-Bold-35" d="M 678 4666 
L 3669 4666 
L 3669 3781 
L 1638 3781 
L 1638 3059 
Q 1775 3097 1914 3117 
Q 2053 3138 2203 3138 
Q 3056 3138 3531 2711 
Q 4006 2284 4006 1522 
Q 4006 766 3489 337 
Q 2972 -91 2053 -91 
Q 1656 -91 1267 -14 
Q 878 63 494 219 
L 494 1166 
Q 875 947 1217 837 
Q 1559 728 1863 728 
Q 2300 728 2551 942 
Q 2803 1156 2803 1522 
Q 2803 1891 2551 2103 
Q 2300 2316 1863 2316 
Q 1603 2316 1309 2248 
Q 1016 2181 678 2041 
L 678 4666 
z
" transform="scale(0.015625)"/>
      <path id="DejaVuSans-Bold-d7" d="M 4563 3359 
L 3206 2003 
L 4563 653 
L 4038 128 
L 2681 1478 
L 1325 128 
L 800 653 
L 2156 2003 
L 800 3359 
L 1325 3884 
L 2681 2528 
L 4038 3884 
L 4563 3359 
z
" transform="scale(0.015625)"/>
      <path id="DejaVuSans-Bold-29" d="M 513 -844 
Q 913 -100 1113 609 
Q 1313 1319 1313 2009 
Q 1313 2700 1113 3408 
Q 913 4116 513 4856 
L 1441 4856 
Q 1916 4091 2145 3389 
Q 2375 2688 2375 2003 
Q 2375 1319 2147 623 
Q 1919 -72 1441 -844 
L 513 -844 
z
" transform="scale(0.015625)"/>
     </defs>
     <use xlink:href="#DejaVuSans-Bold-49"/>
     <use xlink:href="#DejaVuSans-Bold-6e" x="37.207031"/>
     <use xlink:href="#DejaVuSans-Bold-70" x="108.398438"/>
     <use xlink:href="#DejaVuSans-Bold-75" x="179.980469"/>
     <use xlink:href="#DejaVuSans-Bold-74" x="251.171875"/>
     <use xlink:href="#DejaVuSans-Bold-20" x="298.974609"/>
     <use xlink:href="#DejaVuSans-Bold-28" x="333.789062"/>
     <use xlink:href="#DejaVuSans-Bold-35" x="379.492188"/>
     <use xlink:href="#DejaVuSans-Bold-d7" x="449.072266"/>
     <use xlink:href="#DejaVuSans-Bold-35" x="532.861328"/>
     <use xlink:href="#DejaVuSans-Bold-29" x="602.441406"/>
    </g>
   </g>
   <g id="patch_2">
    <path d="M 34.632 136.397085 
L 85.275692 136.397085 
L 85.275692 89.845812 
L 34.632 89.845812 
z
" clip-path="url(#pa25109da89)" style="fill: #dbeafe; stroke: #2563eb; stroke-width: 1.5; stroke-linejoin: miter"/>
   </g>
   <g id="patch_3">
    <path d="M 83.868923 136.397085 
L 134.512615 136.397085 
L 134.512615 89.845812 
L 83.868923 89.845812 
z
" clip-path="url(#pa25109da89)" style="fill: #dbeafe; stroke: #2563eb; stroke-width: 1.5; stroke-linejoin: miter"/>
   </g>
   <g id="patch_4">
    <path d="M 133.105846 136.397085 
L 183.749538 136.397085 
L 183.749538 89.845812 
L 133.105846 89.845812 
z
" clip-path="url(#pa25109da89)" style="fill: #dbeafe; stroke: #2563eb; stroke-width: 1.5; stroke-linejoin: miter"/>
   </g>
   <g id="patch_5">
    <path d="M 182.342769 136.397085 
L 232.986462 136.397085 
L 232.986462 89.845812 
L 182.342769 89.845812 
z
" clip-path="url(#pa25109da89)" style="fill: #f3f4f6; stroke: #cbd5e1; stroke-width: 1.5; stroke-linejoin: miter"/>
   </g>
   <g id="patch_6">
    <path d="M 231.579692 136.397085 
L 282.223385 136.397085 
L 282.223385 89.845812 
L 231.579692 89.845812 
z
" clip-path="url(#pa25109da89)" style="fill: #f3f4f6; stroke: #cbd5e1; stroke-width: 1.5; stroke-linejoin: miter"/>
   </g>
   <g id="patch_7">
    <path d="M 34.632 181.655267 
L 85.275692 181.655267 
L 85.275692 135.103994 
L 34.632 135.103994 
z
" clip-path="url(#pa25109da89)" style="fill: #dbeafe; stroke: #2563eb; stroke-width: 1.5; stroke-linejoin: miter"/>
   </g>
   <g id="patch_8">
    <path d="M 83.868923 181.655267 
L 134.512615 181.655267 
L 134.512615 135.103994 
L 83.868923 135.103994 
z
" clip-path="url(#pa25109da89)" style="fill: #dbeafe; stroke: #2563eb; stroke-width: 1.5; stroke-linejoin: miter"/>
   </g>
   <g id="patch_9">
    <path d="M 133.105846 181.655267 
L 183.749538 181.655267 
L 183.749538 135.103994 
L 133.105846 135.103994 
z
" clip-path="url(#pa25109da89)" style="fill: #dbeafe; stroke: #2563eb; stroke-width: 1.5; stroke-linejoin: miter"/>
   </g>
   <g id="patch_10">
    <path d="M 182.342769 181.655267 
L 232.986462 181.655267 
L 232.986462 135.103994 
L 182.342769 135.103994 
z
" clip-path="url(#pa25109da89)" style="fill: #f3f4f6; stroke: #cbd5e1; stroke-width: 1.5; stroke-linejoin: miter"/>
   </g>
   <g id="patch_11">
    <path d="M 231.579692 181.655267 
L 282.223385 181.655267 
L 282.223385 135.103994 
L 231.579692 135.103994 
z
" clip-path="url(#pa25109da89)" style="fill: #f3f4f6; stroke: #cbd5e1; stroke-width: 1.5; stroke-linejoin: miter"/>
   </g>
   <g id="patch_12">
    <path d="M 34.632 226.913449 
L 85.275692 226.913449 
L 85.275692 180.362176 
L 34.632 180.362176 
z
" clip-path="url(#pa25109da89)" style="fill: #dbeafe; stroke: #2563eb; stroke-width: 1.5; stroke-linejoin: miter"/>
   </g>
   <g id="patch_13">
    <path d="M 83.868923 226.913449 
L 134.512615 226.913449 
L 134.512615 180.362176 
L 83.868923 180.362176 
z
" clip-path="url(#pa25109da89)" style="fill: #dbeafe; stroke: #2563eb; stroke-width: 1.5; stroke-linejoin: miter"/>
   </g>
   <g id="patch_14">
    <path d="M 133.105846 226.913449 
L 183.749538 226.913449 
L 183.749538 180.362176 
L 133.105846 180.362176 
z
" clip-path="url(#pa25109da89)" style="fill: #dbeafe; stroke: #2563eb; stroke-width: 1.5; stroke-linejoin: miter"/>
   </g>
   <g id="patch_15">
    <path d="M 182.342769 226.913449 
L 232.986462 226.913449 
L 232.986462 180.362176 
L 182.342769 180.362176 
z
" clip-path="url(#pa25109da89)" style="fill: #f3f4f6; stroke: #cbd5e1; stroke-width: 1.5; stroke-linejoin: miter"/>
   </g>
   <g id="patch_16">
    <path d="M 231.579692 226.913449 
L 282.223385 226.913449 
L 282.223385 180.362176 
L 231.579692 180.362176 
z
" clip-path="url(#pa25109da89)" style="fill: #f3f4f6; stroke: #cbd5e1; stroke-width: 1.5; stroke-linejoin: miter"/>
   </g>
   <g id="patch_17">
    <path d="M 34.632 272.171631 
L 85.275692 272.171631 
L 85.275692 225.620358 
L 34.632 225.620358 
z
" clip-path="url(#pa25109da89)" style="fill: #f3f4f6; stroke: #cbd5e1; stroke-width: 1.5; stroke-linejoin: miter"/>
   </g>
   <g id="patch_18">
    <path d="M 83.868923 272.171631 
L 134.512615 272.171631 
L 134.512615 225.620358 
L 83.868923 225.620358 
z
" clip-path="url(#pa25109da89)" style="fill: #f3f4f6; stroke: #cbd5e1; stroke-width: 1.5; stroke-linejoin: miter"/>
   </g>
   <g id="patch_19">
    <path d="M 133.105846 272.171631 
L 183.749538 272.171631 
L 183.749538 225.620358 
L 133.105846 225.620358 
z
" clip-path="url(#pa25109da89)" style="fill: #f3f4f6; stroke: #cbd5e1; stroke-width: 1.5; stroke-linejoin: miter"/>
   </g>
   <g id="patch_20">
    <path d="M 182.342769 272.171631 
L 232.986462 272.171631 
L 232.986462 225.620358 
L 182.342769 225.620358 
z
" clip-path="url(#pa25109da89)" style="fill: #f3f4f6; stroke: #cbd5e1; stroke-width: 1.5; stroke-linejoin: miter"/>
   </g>
   <g id="patch_21">
    <path d="M 231.579692 272.171631 
L 282.223385 272.171631 
L 282.223385 225.620358 
L 231.579692 225.620358 
z
" clip-path="url(#pa25109da89)" style="fill: #f3f4f6; stroke: #cbd5e1; stroke-width: 1.5; stroke-linejoin: miter"/>
   </g>
   <g id="patch_22">
    <path d="M 34.632 317.429812 
L 85.275692 317.429812 
L 85.275692 270.87854 
L 34.632 270.87854 
z
" clip-path="url(#pa25109da89)" style="fill: #f3f4f6; stroke: #cbd5e1; stroke-width: 1.5; stroke-linejoin: miter"/>
   </g>
   <g id="patch_23">
    <path d="M 83.868923 317.429812 
L 134.512615 317.429812 
L 134.512615 270.87854 
L 83.868923 270.87854 
z
" clip-path="url(#pa25109da89)" style="fill: #f3f4f6; stroke: #cbd5e1; stroke-width: 1.5; stroke-linejoin: miter"/>
   </g>
   <g id="patch_24">
    <path d="M 133.105846 317.429812 
L 183.749538 317.429812 
L 183.749538 270.87854 
L 133.105846 270.87854 
z
" clip-path="url(#pa25109da89)" style="fill: #f3f4f6; stroke: #cbd5e1; stroke-width: 1.5; stroke-linejoin: miter"/>
   </g>
   <g id="patch_25">
    <path d="M 182.342769 317.429812 
L 232.986462 317.429812 
L 232.986462 270.87854 
L 182.342769 270.87854 
z
" clip-path="url(#pa25109da89)" style="fill: #f3f4f6; stroke: #cbd5e1; stroke-width: 1.5; stroke-linejoin: miter"/>
   </g>
   <g id="patch_26">
    <path d="M 231.579692 317.429812 
L 282.223385 317.429812 
L 282.223385 270.87854 
L 231.579692 270.87854 
z
" clip-path="url(#pa25109da89)" style="fill: #f3f4f6; stroke: #cbd5e1; stroke-width: 1.5; stroke-linejoin: miter"/>
   </g>
   <g id="text_2">
    <!-- Kernel (3×3) -->
    <g style="fill: #0f172a" transform="translate(393.403786 126.698903) scale(0.11 -0.11)">
     <defs>
      <path id="DejaVuSans-Bold-4b" d="M 588 4666 
L 1791 4666 
L 1791 2963 
L 3525 4666 
L 4922 4666 
L 2675 2456 
L 5153 0 
L 3647 0 
L 1791 1838 
L 1791 0 
L 588 0 
L 588 4666 
z
" transform="scale(0.015625)"/>
      <path id="DejaVuSans-Bold-65" d="M 4031 1759 
L 4031 1441 
L 1416 1441 
Q 1456 1047 1700 850 
Q 1944 653 2381 653 
Q 2734 653 3104 758 
Q 3475 863 3866 1075 
L 3866 213 
Q 3469 63 3072 -14 
Q 2675 -91 2278 -91 
Q 1328 -91 801 392 
Q 275 875 275 1747 
Q 275 2603 792 3093 
Q 1309 3584 2216 3584 
Q 3041 3584 3536 3087 
Q 4031 2591 4031 1759 
z
M 2881 2131 
Q 2881 2450 2695 2645 
Q 2509 2841 2209 2841 
Q 1884 2841 1681 2658 
Q 1478 2475 1428 2131 
L 2881 2131 
z
" transform="scale(0.015625)"/>
      <path id="DejaVuSans-Bold-72" d="M 3138 2547 
Q 2991 2616 2845 2648 
Q 2700 2681 2553 2681 
Q 2122 2681 1889 2404 
Q 1656 2128 1656 1613 
L 1656 0 
L 538 0 
L 538 3500 
L 1656 3500 
L 1656 2925 
Q 1872 3269 2151 3426 
Q 2431 3584 2822 3584 
Q 2878 3584 2943 3579 
Q 3009 3575 3134 3559 
L 3138 2547 
z
" transform="scale(0.015625)"/>
      <path id="DejaVuSans-Bold-6c" d="M 538 4863 
L 1656 4863 
L 1656 0 
L 538 0 
L 538 4863 
z
" transform="scale(0.015625)"/>
      <path id="DejaVuSans-Bold-33" d="M 2981 2516 
Q 3453 2394 3698 2092 
Q 3944 1791 3944 1325 
Q 3944 631 3412 270 
Q 2881 -91 1863 -91 
Q 1503 -91 1142 -33 
Q 781 25 428 141 
L 428 1069 
Q 766 900 1098 814 
Q 1431 728 1753 728 
Q 2231 728 2486 893 
Q 2741 1059 2741 1369 
Q 2741 1688 2480 1852 
Q 2219 2016 1709 2016 
L 1228 2016 
L 1228 2791 
L 1734 2791 
Q 2188 2791 2409 2933 
Q 2631 3075 2631 3366 
Q 2631 3634 2415 3781 
Q 2200 3928 1806 3928 
Q 1516 3928 1219 3862 
Q 922 3797 628 3669 
L 628 4550 
Q 984 4650 1334 4700 
Q 1684 4750 2022 4750 
Q 2931 4750 3382 4451 
Q 3834 4153 3834 3553 
Q 3834 3144 3618 2883 
Q 3403 2622 2981 2516 
z
" transform="scale(0.015625)"/>
     </defs>
     <use xlink:href="#DejaVuSans-Bold-4b"/>
     <use xlink:href="#DejaVuSans-Bold-65" x="75.740234"/>
     <use xlink:href="#DejaVuSans-Bold-72" x="143.5625"/>
     <use xlink:href="#DejaVuSans-Bold-6e" x="192.878906"/>
     <use xlink:href="#DejaVuSans-Bold-65" x="264.070312"/>
     <use xlink:href="#DejaVuSans-Bold-6c" x="331.892578"/>
     <use xlink:href="#DejaVuSans-Bold-20" x="366.169922"/>
     <use xlink:href="#DejaVuSans-Bold-28" x="400.984375"/>
     <use xlink:href="#DejaVuSans-Bold-33" x="446.6875"/>
     <use xlink:href="#DejaVuSans-Bold-d7" x="516.267578"/>
     <use xlink:href="#DejaVuSans-Bold-33" x="600.056641"/>
     <use xlink:href="#DejaVuSans-Bold-29" x="669.636719"/>
    </g>
   </g>
   <g id="patch_27">
    <path d="M 358.188923 194.586176 
L 408.832615 194.586176 
L 408.832615 148.034903 
L 358.188923 148.034903 
z
" clip-path="url(#pa25109da89)" style="fill: #ffedd5; stroke: #ea580c; stroke-width: 1.5; stroke-linejoin: miter"/>
   </g>
   <g id="patch_28">
    <path d="M 407.425846 194.586176 
L 458.069538 194.586176 
L 458.069538 148.034903 
L 407.425846 148.034903 
z
" clip-path="url(#pa25109da89)" style="fill: #ffedd5; stroke: #ea580c; stroke-width: 1.5; stroke-linejoin: miter"/>
   </g>
   <g id="patch_29">
    <path d="M 456.662769 194.586176 
L 507.306462 194.586176 
L 507.306462 148.034903 
L 456.662769 148.034903 
z
" clip-path="url(#pa25109da89)" style="fill: #ffedd5; stroke: #ea580c; stroke-width: 1.5; stroke-linejoin: miter"/>
   </g>
   <g id="patch_30">
    <path d="M 358.188923 239.844358 
L 408.832615 239.844358 
L 408.832615 193.293085 
L 358.188923 193.293085 
z
" clip-path="url(#pa25109da89)" style="fill: #ffedd5; stroke: #ea580c; stroke-width: 1.5; stroke-linejoin: miter"/>
   </g>
   <g id="patch_31">
    <path d="M 407.425846 239.844358 
L 458.069538 239.844358 
L 458.069538 193.293085 
L 407.425846 193.293085 
z
" clip-path="url(#pa25109da89)" style="fill: #ffedd5; stroke: #ea580c; stroke-width: 1.5; stroke-linejoin: miter"/>
   </g>
   <g id="patch_32">
    <path d="M 456.662769 239.844358 
L 507.306462 239.844358 
L 507.306462 193.293085 
L 456.662769 193.293085 
z
" clip-path="url(#pa25109da89)" style="fill: #ffedd5; stroke: #ea580c; stroke-width: 1.5; stroke-linejoin: miter"/>
   </g>
   <g id="patch_33">
    <path d="M 358.188923 285.10254 
L 408.832615 285.10254 
L 408.832615 238.551267 
L 358.188923 238.551267 
z
" clip-path="url(#pa25109da89)" style="fill: #ffedd5; stroke: #ea580c; stroke-width: 1.5; stroke-linejoin: miter"/>
   </g>
   <g id="patch_34">
    <path d="M 407.425846 285.10254 
L 458.069538 285.10254 
L 458.069538 238.551267 
L 407.425846 238.551267 
z
" clip-path="url(#pa25109da89)" style="fill: #ffedd5; stroke: #ea580c; stroke-width: 1.5; stroke-linejoin: miter"/>
   </g>
   <g id="patch_35">
    <path d="M 456.662769 285.10254 
L 507.306462 285.10254 
L 507.306462 238.551267 
L 456.662769 238.551267 
z
" clip-path="url(#pa25109da89)" style="fill: #ffedd5; stroke: #ea580c; stroke-width: 1.5; stroke-linejoin: miter"/>
   </g>
   <g id="text_3">
    <!-- ×  →  Σ -->
    <g style="fill: #7c3aed" transform="translate(532.392067 187.474176) scale(0.2 -0.2)">
     <defs>
      <path id="DejaVuSans-Bold-2192" d="M 5050 2225 
L 5050 1788 
L 3822 559 
L 3369 1013 
L 3988 1631 
L 366 1631 
L 366 2381 
L 3988 2381 
L 3369 3000 
L 3822 3453 
L 5050 2225 
z
" transform="scale(0.015625)"/>
      <path id="DejaVuSans-Bold-3a3" d="M 1684 909 
L 3903 909 
L 3903 0 
L 588 0 
L 588 1003 
L 2075 2481 
L 588 3703 
L 588 4666 
L 3834 4666 
L 3834 3756 
L 1738 3756 
L 3278 2494 
L 1684 909 
z
" transform="scale(0.015625)"/>
     </defs>
     <use xlink:href="#DejaVuSans-Bold-d7"/>
     <use xlink:href="#DejaVuSans-Bold-20" x="83.789062"/>
     <use xlink:href="#DejaVuSans-Bold-20" x="118.603516"/>
     <use xlink:href="#DejaVuSans-Bold-2192" x="153.417969"/>
     <use xlink:href="#DejaVuSans-Bold-20" x="237.207031"/>
     <use xlink:href="#DejaVuSans-Bold-20" x="272.021484"/>
     <use xlink:href="#DejaVuSans-Bold-3a3" x="306.835938"/>
    </g>
   </g>
   <g id="text_4">
    <!-- Output (3×3) -->
    <g style="fill: #0f172a" transform="translate(687.26384 126.698903) scale(0.11 -0.11)">
     <defs>
      <path id="DejaVuSans-Bold-4f" d="M 2719 3878 
Q 2169 3878 1866 3472 
Q 1563 3066 1563 2328 
Q 1563 1594 1866 1187 
Q 2169 781 2719 781 
Q 3272 781 3575 1187 
Q 3878 1594 3878 2328 
Q 3878 3066 3575 3472 
Q 3272 3878 2719 3878 
z
M 2719 4750 
Q 3844 4750 4481 4106 
Q 5119 3463 5119 2328 
Q 5119 1197 4481 553 
Q 3844 -91 2719 -91 
Q 1597 -91 958 553 
Q 319 1197 319 2328 
Q 319 3463 958 4106 
Q 1597 4750 2719 4750 
z
" transform="scale(0.015625)"/>
     </defs>
     <use xlink:href="#DejaVuSans-Bold-4f"/>
     <use xlink:href="#DejaVuSans-Bold-75" x="85.009766"/>
     <use xlink:href="#DejaVuSans-Bold-74" x="156.201172"/>
     <use xlink:href="#DejaVuSans-Bold-70" x="204.003906"/>
     <use xlink:href="#DejaVuSans-Bold-75" x="275.585938"/>
     <use xlink:href="#DejaVuSans-Bold-74" x="346.777344"/>
     <use xlink:href="#DejaVuSans-Bold-20" x="394.580078"/>
     <use xlink:href="#DejaVuSans-Bold-28" x="429.394531"/>
     <use xlink:href="#DejaVuSans-Bold-33" x="475.097656"/>
     <use xlink:href="#DejaVuSans-Bold-d7" x="544.677734"/>
     <use xlink:href="#DejaVuSans-Bold-33" x="628.466797"/>
     <use xlink:href="#DejaVuSans-Bold-29" x="698.046875"/>
    </g>
   </g>
   <g id="patch_36">
    <path d="M 653.610462 194.586176 
L 704.254154 194.586176 
L 704.254154 148.034903 
L 653.610462 148.034903 
z
" clip-path="url(#pa25109da89)" style="fill: #dcfce7; stroke: #16a34a; stroke-width: 1.5; stroke-linejoin: miter"/>
   </g>
   <g id="patch_37">
    <path d="M 702.847385 194.586176 
L 753.491077 194.586176 
L 753.491077 148.034903 
L 702.847385 148.034903 
z
" clip-path="url(#pa25109da89)" style="fill: #dcfce7; stroke: #16a34a; stroke-width: 1.5; stroke-linejoin: miter"/>
   </g>
   <g id="patch_38">
    <path d="M 752.084308 194.586176 
L 802.728 194.586176 
L 802.728 148.034903 
L 752.084308 148.034903 
z
" clip-path="url(#pa25109da89)" style="fill: #dcfce7; stroke: #16a34a; stroke-width: 1.5; stroke-linejoin: miter"/>
   </g>
   <g id="patch_39">
    <path d="M 653.610462 239.844358 
L 704.254154 239.844358 
L 704.254154 193.293085 
L 653.610462 193.293085 
z
" clip-path="url(#pa25109da89)" style="fill: #dcfce7; stroke: #16a34a; stroke-width: 1.5; stroke-linejoin: miter"/>
   </g>
   <g id="patch_40">
    <path d="M 702.847385 239.844358 
L 753.491077 239.844358 
L 753.491077 193.293085 
L 702.847385 193.293085 
z
" clip-path="url(#pa25109da89)" style="fill: #dcfce7; stroke: #16a34a; stroke-width: 1.5; stroke-linejoin: miter"/>
   </g>
   <g id="patch_41">
    <path d="M 752.084308 239.844358 
L 802.728 239.844358 
L 802.728 193.293085 
L 752.084308 193.293085 
z
" clip-path="url(#pa25109da89)" style="fill: #dcfce7; stroke: #16a34a; stroke-width: 1.5; stroke-linejoin: miter"/>
   </g>
   <g id="patch_42">
    <path d="M 653.610462 285.10254 
L 704.254154 285.10254 
L 704.254154 238.551267 
L 653.610462 238.551267 
z
" clip-path="url(#pa25109da89)" style="fill: #dcfce7; stroke: #16a34a; stroke-width: 1.5; stroke-linejoin: miter"/>
   </g>
   <g id="patch_43">
    <path d="M 702.847385 285.10254 
L 753.491077 285.10254 
L 753.491077 238.551267 
L 702.847385 238.551267 
z
" clip-path="url(#pa25109da89)" style="fill: #dcfce7; stroke: #16a34a; stroke-width: 1.5; stroke-linejoin: miter"/>
   </g>
   <g id="patch_44">
    <path d="M 752.084308 285.10254 
L 802.728 285.10254 
L 802.728 238.551267 
L 752.084308 238.551267 
z
" clip-path="url(#pa25109da89)" style="fill: #dcfce7; stroke: #16a34a; stroke-width: 1.5; stroke-linejoin: miter"/>
   </g>
   <g id="text_5">
    <!-- Blue patch: current 3×3 receptive field    Orange: shared kernel weights    Green: output feature map -->
    <g style="fill: #475569" transform="translate(35.335385 345.877812) scale(0.09 -0.09)">
     <defs>
      <path id="DejaVuSans-42" d="M 1259 2228 
L 1259 519 
L 2272 519 
Q 2781 519 3026 730 
Q 3272 941 3272 1375 
Q 3272 1813 3026 2020 
Q 2781 2228 2272 2228 
L 1259 2228 
z
M 1259 4147 
L 1259 2741 
L 2194 2741 
Q 2656 2741 2882 2914 
Q 3109 3088 3109 3444 
Q 3109 3797 2882 3972 
Q 2656 4147 2194 4147 
L 1259 4147 
z
M 628 4666 
L 2241 4666 
Q 2963 4666 3353 4366 
Q 3744 4066 3744 3513 
Q 3744 3084 3544 2831 
Q 3344 2578 2956 2516 
Q 3422 2416 3680 2098 
Q 3938 1781 3938 1306 
Q 3938 681 3513 340 
Q 3088 0 2303 0 
L 628 0 
L 628 4666 
z
" transform="scale(0.015625)"/>
      <path id="DejaVuSans-6c" d="M 603 4863 
L 1178 4863 
L 1178 0 
L 603 0 
L 603 4863 
z
" transform="scale(0.015625)"/>
      <path id="DejaVuSans-75" d="M 544 1381 
L 544 3500 
L 1119 3500 
L 1119 1403 
Q 1119 906 1312 657 
Q 1506 409 1894 409 
Q 2359 409 2629 706 
Q 2900 1003 2900 1516 
L 2900 3500 
L 3475 3500 
L 3475 0 
L 2900 0 
L 2900 538 
Q 2691 219 2414 64 
Q 2138 -91 1772 -91 
Q 1169 -91 856 284 
Q 544 659 544 1381 
z
M 1991 3584 
L 1991 3584 
z
" transform="scale(0.015625)"/>
      <path id="DejaVuSans-65" d="M 3597 1894 
L 3597 1613 
L 953 1613 
Q 991 1019 1311 708 
Q 1631 397 2203 397 
Q 2534 397 2845 478 
Q 3156 559 3463 722 
L 3463 178 
Q 3153 47 2828 -22 
Q 2503 -91 2169 -91 
Q 1331 -91 842 396 
Q 353 884 353 1716 
Q 353 2575 817 3079 
Q 1281 3584 2069 3584 
Q 2775 3584 3186 3129 
Q 3597 2675 3597 1894 
z
M 3022 2063 
Q 3016 2534 2758 2815 
Q 2500 3097 2075 3097 
Q 1594 3097 1305 2825 
Q 1016 2553 972 2059 
L 3022 2063 
z
" transform="scale(0.015625)"/>
      <path id="DejaVuSans-20" transform="scale(0.015625)"/>
      <path id="DejaVuSans-70" d="M 1159 525 
L 1159 -1331 
L 581 -1331 
L 581 3500 
L 1159 3500 
L 1159 2969 
Q 1341 3281 1617 3432 
Q 1894 3584 2278 3584 
Q 2916 3584 3314 3078 
Q 3713 2572 3713 1747 
Q 3713 922 3314 415 
Q 2916 -91 2278 -91 
Q 1894 -91 1617 61 
Q 1341 213 1159 525 
z
M 3116 1747 
Q 3116 2381 2855 2742 
Q 2594 3103 2138 3103 
Q 1681 3103 1420 2742 
Q 1159 2381 1159 1747 
Q 1159 1113 1420 752 
Q 1681 391 2138 391 
Q 2594 391 2855 752 
Q 3116 1113 3116 1747 
z
" transform="scale(0.015625)"/>
      <path id="DejaVuSans-61" d="M 2194 1759 
Q 1497 1759 1228 1600 
Q 959 1441 959 1056 
Q 959 750 1161 570 
Q 1363 391 1709 391 
Q 2188 391 2477 730 
Q 2766 1069 2766 1631 
L 2766 1759 
L 2194 1759 
z
M 3341 1997 
L 3341 0 
L 2766 0 
L 2766 531 
Q 2569 213 2275 61 
Q 1981 -91 1556 -91 
Q 1019 -91 701 211 
Q 384 513 384 1019 
Q 384 1609 779 1909 
Q 1175 2209 1959 2209 
L 2766 2209 
L 2766 2266 
Q 2766 2663 2505 2880 
Q 2244 3097 1772 3097 
Q 1472 3097 1187 3025 
Q 903 2953 641 2809 
L 641 3341 
Q 956 3463 1253 3523 
Q 1550 3584 1831 3584 
Q 2591 3584 2966 3190 
Q 3341 2797 3341 1997 
z
" transform="scale(0.015625)"/>
      <path id="DejaVuSans-74" d="M 1172 4494 
L 1172 3500 
L 2356 3500 
L 2356 3053 
L 1172 3053 
L 1172 1153 
Q 1172 725 1289 603 
Q 1406 481 1766 481 
L 2356 481 
L 2356 0 
L 1766 0 
Q 1100 0 847 248 
Q 594 497 594 1153 
L 594 3053 
L 172 3053 
L 172 3500 
L 594 3500 
L 594 4494 
L 1172 4494 
z
" transform="scale(0.015625)"/>
      <path id="DejaVuSans-63" d="M 3122 3366 
L 3122 2828 
Q 2878 2963 2633 3030 
Q 2388 3097 2138 3097 
Q 1578 3097 1268 2742 
Q 959 2388 959 1747 
Q 959 1106 1268 751 
Q 1578 397 2138 397 
Q 2388 397 2633 464 
Q 2878 531 3122 666 
L 3122 134 
Q 2881 22 2623 -34 
Q 2366 -91 2075 -91 
Q 1284 -91 818 406 
Q 353 903 353 1747 
Q 353 2603 823 3093 
Q 1294 3584 2113 3584 
Q 2378 3584 2631 3529 
Q 2884 3475 3122 3366 
z
" transform="scale(0.015625)"/>
      <path id="DejaVuSans-68" d="M 3513 2113 
L 3513 0 
L 2938 0 
L 2938 2094 
Q 2938 2591 2744 2837 
Q 2550 3084 2163 3084 
Q 1697 3084 1428 2787 
Q 1159 2491 1159 1978 
L 1159 0 
L 581 0 
L 581 4863 
L 1159 4863 
L 1159 2956 
Q 1366 3272 1645 3428 
Q 1925 3584 2291 3584 
Q 2894 3584 3203 3211 
Q 3513 2838 3513 2113 
z
" transform="scale(0.015625)"/>
      <path id="DejaVuSans-3a" d="M 750 794 
L 1409 794 
L 1409 0 
L 750 0 
L 750 794 
z
M 750 3309 
L 1409 3309 
L 1409 2516 
L 750 2516 
L 750 3309 
z
" transform="scale(0.015625)"/>
      <path id="DejaVuSans-72" d="M 2631 2963 
Q 2534 3019 2420 3045 
Q 2306 3072 2169 3072 
Q 1681 3072 1420 2755 
Q 1159 2438 1159 1844 
L 1159 0 
L 581 0 
L 581 3500 
L 1159 3500 
L 1159 2956 
Q 1341 3275 1631 3429 
Q 1922 3584 2338 3584 
Q 2397 3584 2469 3576 
Q 2541 3569 2628 3553 
L 2631 2963 
z
" transform="scale(0.015625)"/>
      <path id="DejaVuSans-6e" d="M 3513 2113 
L 3513 0 
L 2938 0 
L 2938 2094 
Q 2938 2591 2744 2837 
Q 2550 3084 2163 3084 
Q 1697 3084 1428 2787 
Q 1159 2491 1159 1978 
L 1159 0 
L 581 0 
L 581 3500 
L 1159 3500 
L 1159 2956 
Q 1366 3272 1645 3428 
Q 1925 3584 2291 3584 
Q 2894 3584 3203 3211 
Q 3513 2838 3513 2113 
z
" transform="scale(0.015625)"/>
      <path id="DejaVuSans-33" d="M 2597 2516 
Q 3050 2419 3304 2112 
Q 3559 1806 3559 1356 
Q 3559 666 3084 287 
Q 2609 -91 1734 -91 
Q 1441 -91 1130 -33 
Q 819 25 488 141 
L 488 750 
Q 750 597 1062 519 
Q 1375 441 1716 441 
Q 2309 441 2620 675 
Q 2931 909 2931 1356 
Q 2931 1769 2642 2001 
Q 2353 2234 1838 2234 
L 1294 2234 
L 1294 2753 
L 1863 2753 
Q 2328 2753 2575 2939 
Q 2822 3125 2822 3475 
Q 2822 3834 2567 4026 
Q 2313 4219 1838 4219 
Q 1578 4219 1281 4162 
Q 984 4106 628 3988 
L 628 4550 
Q 988 4650 1302 4700 
Q 1616 4750 1894 4750 
Q 2613 4750 3031 4423 
Q 3450 4097 3450 3541 
Q 3450 3153 3228 2886 
Q 3006 2619 2597 2516 
z
" transform="scale(0.015625)"/>
      <path id="DejaVuSans-d7" d="M 4488 3438 
L 3059 2003 
L 4488 575 
L 4116 197 
L 2681 1631 
L 1247 197 
L 878 575 
L 2303 2003 
L 878 3438 
L 1247 3816 
L 2681 2381 
L 4116 3816 
L 4488 3438 
z
" transform="scale(0.015625)"/>
      <path id="DejaVuSans-69" d="M 603 3500 
L 1178 3500 
L 1178 0 
L 603 0 
L 603 3500 
z
M 603 4863 
L 1178 4863 
L 1178 4134 
L 603 4134 
L 603 4863 
z
" transform="scale(0.015625)"/>
      <path id="DejaVuSans-76" d="M 191 3500 
L 800 3500 
L 1894 563 
L 2988 3500 
L 3597 3500 
L 2284 0 
L 1503 0 
L 191 3500 
z
" transform="scale(0.015625)"/>
      <path id="DejaVuSans-66" d="M 2375 4863 
L 2375 4384 
L 1825 4384 
Q 1516 4384 1395 4259 
Q 1275 4134 1275 3809 
L 1275 3500 
L 2222 3500 
L 2222 3053 
L 1275 3053 
L 1275 0 
L 697 0 
L 697 3053 
L 147 3053 
L 147 3500 
L 697 3500 
L 697 3744 
Q 697 4328 969 4595 
Q 1241 4863 1831 4863 
L 2375 4863 
z
" transform="scale(0.015625)"/>
      <path id="DejaVuSans-64" d="M 2906 2969 
L 2906 4863 
L 3481 4863 
L 3481 0 
L 2906 0 
L 2906 525 
Q 2725 213 2448 61 
Q 2172 -91 1784 -91 
Q 1150 -91 751 415 
Q 353 922 353 1747 
Q 353 2572 751 3078 
Q 1150 3584 1784 3584 
Q 2172 3584 2448 3432 
Q 2725 3281 2906 2969 
z
M 947 1747 
Q 947 1113 1208 752 
Q 1469 391 1925 391 
Q 2381 391 2643 752 
Q 2906 1113 2906 1747 
Q 2906 2381 2643 2742 
Q 2381 3103 1925 3103 
Q 1469 3103 1208 2742 
Q 947 2381 947 1747 
z
" transform="scale(0.015625)"/>
      <path id="DejaVuSans-4f" d="M 2522 4238 
Q 1834 4238 1429 3725 
Q 1025 3213 1025 2328 
Q 1025 1447 1429 934 
Q 1834 422 2522 422 
Q 3209 422 3611 934 
Q 4013 1447 4013 2328 
Q 4013 3213 3611 3725 
Q 3209 4238 2522 4238 
z
M 2522 4750 
Q 3503 4750 4090 4092 
Q 4678 3434 4678 2328 
Q 4678 1225 4090 567 
Q 3503 -91 2522 -91 
Q 1538 -91 948 565 
Q 359 1222 359 2328 
Q 359 3434 948 4092 
Q 1538 4750 2522 4750 
z
" transform="scale(0.015625)"/>
      <path id="DejaVuSans-67" d="M 2906 1791 
Q 2906 2416 2648 2759 
Q 2391 3103 1925 3103 
Q 1463 3103 1205 2759 
Q 947 2416 947 1791 
Q 947 1169 1205 825 
Q 1463 481 1925 481 
Q 2391 481 2648 825 
Q 2906 1169 2906 1791 
z
M 3481 434 
Q 3481 -459 3084 -895 
Q 2688 -1331 1869 -1331 
Q 1566 -1331 1297 -1286 
Q 1028 -1241 775 -1147 
L 775 -588 
Q 1028 -725 1275 -790 
Q 1522 -856 1778 -856 
Q 2344 -856 2625 -561 
Q 2906 -266 2906 331 
L 2906 616 
Q 2728 306 2450 153 
Q 2172 0 1784 0 
Q 1141 0 747 490 
Q 353 981 353 1791 
Q 353 2603 747 3093 
Q 1141 3584 1784 3584 
Q 2172 3584 2450 3431 
Q 2728 3278 2906 2969 
L 2906 3500 
L 3481 3500 
L 3481 434 
z
" transform="scale(0.015625)"/>
      <path id="DejaVuSans-73" d="M 2834 3397 
L 2834 2853 
Q 2591 2978 2328 3040 
Q 2066 3103 1784 3103 
Q 1356 3103 1142 2972 
Q 928 2841 928 2578 
Q 928 2378 1081 2264 
Q 1234 2150 1697 2047 
L 1894 2003 
Q 2506 1872 2764 1633 
Q 3022 1394 3022 966 
Q 3022 478 2636 193 
Q 2250 -91 1575 -91 
Q 1294 -91 989 -36 
Q 684 19 347 128 
L 347 722 
Q 666 556 975 473 
Q 1284 391 1588 391 
Q 1994 391 2212 530 
Q 2431 669 2431 922 
Q 2431 1156 2273 1281 
Q 2116 1406 1581 1522 
L 1381 1569 
Q 847 1681 609 1914 
Q 372 2147 372 2553 
Q 372 3047 722 3315 
Q 1072 3584 1716 3584 
Q 2034 3584 2315 3537 
Q 2597 3491 2834 3397 
z
" transform="scale(0.015625)"/>
      <path id="DejaVuSans-6b" d="M 581 4863 
L 1159 4863 
L 1159 1991 
L 2875 3500 
L 3609 3500 
L 1753 1863 
L 3688 0 
L 2938 0 
L 1159 1709 
L 1159 0 
L 581 0 
L 581 4863 
z
" transform="scale(0.015625)"/>
      <path id="DejaVuSans-77" d="M 269 3500 
L 844 3500 
L 1563 769 
L 2278 3500 
L 2956 3500 
L 3675 769 
L 4391 3500 
L 4966 3500 
L 4050 0 
L 3372 0 
L 2619 2869 
L 1863 0 
L 1184 0 
L 269 3500 
z
" transform="scale(0.015625)"/>
      <path id="DejaVuSans-47" d="M 3809 666 
L 3809 1919 
L 2778 1919 
L 2778 2438 
L 4434 2438 
L 4434 434 
Q 4069 175 3628 42 
Q 3188 -91 2688 -91 
Q 1594 -91 976 548 
Q 359 1188 359 2328 
Q 359 3472 976 4111 
Q 1594 4750 2688 4750 
Q 3144 4750 3555 4637 
Q 3966 4525 4313 4306 
L 4313 3634 
Q 3963 3931 3569 4081 
Q 3175 4231 2741 4231 
Q 1884 4231 1454 3753 
Q 1025 3275 1025 2328 
Q 1025 1384 1454 906 
Q 1884 428 2741 428 
Q 3075 428 3337 486 
Q 3600 544 3809 666 
z
" transform="scale(0.015625)"/>
      <path id="DejaVuSans-6f" d="M 1959 3097 
Q 1497 3097 1228 2736 
Q 959 2375 959 1747 
Q 959 1119 1226 758 
Q 1494 397 1959 397 
Q 2419 397 2687 759 
Q 2956 1122 2956 1747 
Q 2956 2369 2687 2733 
Q 2419 3097 1959 3097 
z
M 1959 3584 
Q 2709 3584 3137 3096 
Q 3566 2609 3566 1747 
Q 3566 888 3137 398 
Q 2709 -91 1959 -91 
Q 1206 -91 779 398 
Q 353 888 353 1747 
Q 353 2609 779 3096 
Q 1206 3584 1959 3584 
z
" transform="scale(0.015625)"/>
      <path id="DejaVuSans-6d" d="M 3328 2828 
Q 3544 3216 3844 3400 
Q 4144 3584 4550 3584 
Q 5097 3584 5394 3201 
Q 5691 2819 5691 2113 
L 5691 0 
L 5113 0 
L 5113 2094 
Q 5113 2597 4934 2840 
Q 4756 3084 4391 3084 
Q 3944 3084 3684 2787 
Q 3425 2491 3425 1978 
L 3425 0 
L 2847 0 
L 2847 2094 
Q 2847 2600 2669 2842 
Q 2491 3084 2119 3084 
Q 1678 3084 1418 2786 
Q 1159 2488 1159 1978 
L 1159 0 
L 581 0 
L 581 3500 
L 1159 3500 
L 1159 2956 
Q 1356 3278 1631 3431 
Q 1906 3584 2284 3584 
Q 2666 3584 2933 3390 
Q 3200 3197 3328 2828 
z
" transform="scale(0.015625)"/>
     </defs>
     <use xlink:href="#DejaVuSans-42"/>
     <use xlink:href="#DejaVuSans-6c" x="68.603516"/>
     <use xlink:href="#DejaVuSans-75" x="96.386719"/>
     <use xlink:href="#DejaVuSans-65" x="159.765625"/>
     <use xlink:href="#DejaVuSans-20" x="221.289062"/>
     <use xlink:href="#DejaVuSans-70" x="253.076172"/>
     <use xlink:href="#DejaVuSans-61" x="316.552734"/>
     <use xlink:href="#DejaVuSans-74" x="377.832031"/>
     <use xlink:href="#DejaVuSans-63" x="417.041016"/>
     <use xlink:href="#DejaVuSans-68" x="472.021484"/>
     <use xlink:href="#DejaVuSans-3a" x="535.400391"/>
     <use xlink:href="#DejaVuSans-20" x="569.091797"/>
     <use xlink:href="#DejaVuSans-63" x="600.878906"/>
     <use xlink:href="#DejaVuSans-75" x="655.859375"/>
     <use xlink:href="#DejaVuSans-72" x="719.238281"/>
     <use xlink:href="#DejaVuSans-72" x="758.601562"/>
     <use xlink:href="#DejaVuSans-65" x="797.464844"/>
     <use xlink:href="#DejaVuSans-6e" x="858.988281"/>
     <use xlink:href="#DejaVuSans-74" x="922.367188"/>
     <use xlink:href="#DejaVuSans-20" x="961.576172"/>
     <use xlink:href="#DejaVuSans-33" x="993.363281"/>
     <use xlink:href="#DejaVuSans-d7" x="1056.986328"/>
     <use xlink:href="#DejaVuSans-33" x="1140.775391"/>
     <use xlink:href="#DejaVuSans-20" x="1204.398438"/>
     <use xlink:href="#DejaVuSans-72" x="1236.185547"/>
     <use xlink:href="#DejaVuSans-65" x="1275.048828"/>
     <use xlink:href="#DejaVuSans-63" x="1336.572266"/>
     <use xlink:href="#DejaVuSans-65" x="1391.552734"/>
     <use xlink:href="#DejaVuSans-70" x="1453.076172"/>
     <use xlink:href="#DejaVuSans-74" x="1516.552734"/>
     <use xlink:href="#DejaVuSans-69" x="1555.761719"/>
     <use xlink:href="#DejaVuSans-76" x="1583.544922"/>
     <use xlink:href="#DejaVuSans-65" x="1642.724609"/>
     <use xlink:href="#DejaVuSans-20" x="1704.248047"/>
     <use xlink:href="#DejaVuSans-66" x="1736.035156"/>
     <use xlink:href="#DejaVuSans-69" x="1771.240234"/>
     <use xlink:href="#DejaVuSans-65" x="1799.023438"/>
     <use xlink:href="#DejaVuSans-6c" x="1860.546875"/>
     <use xlink:href="#DejaVuSans-64" x="1888.330078"/>
     <use xlink:href="#DejaVuSans-20" x="1951.806641"/>
     <use xlink:href="#DejaVuSans-20" x="1983.59375"/>
     <use xlink:href="#DejaVuSans-20" x="2015.380859"/>
     <use xlink:href="#DejaVuSans-20" x="2047.167969"/>
     <use xlink:href="#DejaVuSans-4f" x="2078.955078"/>
     <use xlink:href="#DejaVuSans-72" x="2157.666016"/>
     <use xlink:href="#DejaVuSans-61" x="2198.779297"/>
     <use xlink:href="#DejaVuSans-6e" x="2260.058594"/>
     <use xlink:href="#DejaVuSans-67" x="2323.4375"/>
     <use xlink:href="#DejaVuSans-65" x="2386.914062"/>
     <use xlink:href="#DejaVuSans-3a" x="2448.4375"/>
     <use xlink:href="#DejaVuSans-20" x="2482.128906"/>
     <use xlink:href="#DejaVuSans-73" x="2513.916016"/>
     <use xlink:href="#DejaVuSans-68" x="2566.015625"/>
     <use xlink:href="#DejaVuSans-61" x="2629.394531"/>
     <use xlink:href="#DejaVuSans-72" x="2690.673828"/>
     <use xlink:href="#DejaVuSans-65" x="2729.537109"/>
     <use xlink:href="#DejaVuSans-64" x="2791.060547"/>
     <use xlink:href="#DejaVuSans-20" x="2854.537109"/>
     <use xlink:href="#DejaVuSans-6b" x="2886.324219"/>
     <use xlink:href="#DejaVuSans-65" x="2940.609375"/>
     <use xlink:href="#DejaVuSans-72" x="3002.132812"/>
     <use xlink:href="#DejaVuSans-6e" x="3041.496094"/>
     <use xlink:href="#DejaVuSans-65" x="3104.875"/>
     <use xlink:href="#DejaVuSans-6c" x="3166.398438"/>
     <use xlink:href="#DejaVuSans-20" x="3194.181641"/>
     <use xlink:href="#DejaVuSans-77" x="3225.96875"/>
     <use xlink:href="#DejaVuSans-65" x="3307.755859"/>
     <use xlink:href="#DejaVuSans-69" x="3369.279297"/>
     <use xlink:href="#DejaVuSans-67" x="3397.0625"/>
     <use xlink:href="#DejaVuSans-68" x="3460.539062"/>
     <use xlink:href="#DejaVuSans-74" x="3523.917969"/>
     <use xlink:href="#DejaVuSans-73" x="3563.126953"/>
     <use xlink:href="#DejaVuSans-20" x="3615.226562"/>
     <use xlink:href="#DejaVuSans-20" x="3647.013672"/>
     <use xlink:href="#DejaVuSans-20" x="3678.800781"/>
     <use xlink:href="#DejaVuSans-20" x="3710.587891"/>
     <use xlink:href="#DejaVuSans-47" x="3742.375"/>
     <use xlink:href="#DejaVuSans-72" x="3819.865234"/>
     <use xlink:href="#DejaVuSans-65" x="3858.728516"/>
     <use xlink:href="#DejaVuSans-65" x="3920.251953"/>
     <use xlink:href="#DejaVuSans-6e" x="3981.775391"/>
     <use xlink:href="#DejaVuSans-3a" x="4045.154297"/>
     <use xlink:href="#DejaVuSans-20" x="4078.845703"/>
     <use xlink:href="#DejaVuSans-6f" x="4110.632812"/>
     <use xlink:href="#DejaVuSans-75" x="4171.814453"/>
     <use xlink:href="#DejaVuSans-74" x="4235.193359"/>
     <use xlink:href="#DejaVuSans-70" x="4274.402344"/>
     <use xlink:href="#DejaVuSans-75" x="4337.878906"/>
     <use xlink:href="#DejaVuSans-74" x="4401.257812"/>
     <use xlink:href="#DejaVuSans-20" x="4440.466797"/>
     <use xlink:href="#DejaVuSans-66" x="4472.253906"/>
     <use xlink:href="#DejaVuSans-65" x="4507.458984"/>
     <use xlink:href="#DejaVuSans-61" x="4568.982422"/>
     <use xlink:href="#DejaVuSans-74" x="4630.261719"/>
     <use xlink:href="#DejaVuSans-75" x="4669.470703"/>
     <use xlink:href="#DejaVuSans-72" x="4732.849609"/>
     <use xlink:href="#DejaVuSans-65" x="4771.712891"/>
     <use xlink:href="#DejaVuSans-20" x="4833.236328"/>
     <use xlink:href="#DejaVuSans-6d" x="4865.023438"/>
     <use xlink:href="#DejaVuSans-61" x="4962.435547"/>
     <use xlink:href="#DejaVuSans-70" x="5023.714844"/>
    </g>
   </g>
   <g id="patch_45">
    <path d="M 356.896007 193.939631 
Q 341.307727 193.939631 327.396497 193.939631 
" style="fill: none; stroke: #2563eb; stroke-width: 1.5; stroke-linecap: round"/>
    <path d="M 330.596497 195.539631 
L 327.396497 193.939631 
L 330.596497 192.339631 
z
" style="fill: #2563eb; stroke: #2563eb; stroke-width: 1.5; stroke-linecap: round"/>
   </g>
   <g id="text_6">
    <!-- slides -->
    <g style="fill: #2563eb" transform="translate(330.628981 184.241449) scale(0.075 -0.075)">
     <use xlink:href="#DejaVuSans-73"/>
     <use xlink:href="#DejaVuSans-6c" x="52.099609"/>
     <use xlink:href="#DejaVuSans-69" x="79.882812"/>
     <use xlink:href="#DejaVuSans-64" x="107.666016"/>
     <use xlink:href="#DejaVuSans-65" x="171.142578"/>
     <use xlink:href="#DejaVuSans-73" x="232.666016"/>
    </g>
   </g>
   <g id="text_7">
    <!-- 2D Convolution Operation -->
    <g style="fill: #0f172a" transform="translate(362.198906 17.837812) scale(0.14 -0.14)">
     <defs>
      <path id="DejaVuSans-Bold-32" d="M 1844 884 
L 3897 884 
L 3897 0 
L 506 0 
L 506 884 
L 2209 2388 
Q 2438 2594 2547 2791 
Q 2656 2988 2656 3200 
Q 2656 3528 2436 3728 
Q 2216 3928 1850 3928 
Q 1569 3928 1234 3808 
Q 900 3688 519 3450 
L 519 4475 
Q 925 4609 1322 4679 
Q 1719 4750 2100 4750 
Q 2938 4750 3402 4381 
Q 3866 4013 3866 3353 
Q 3866 2972 3669 2642 
Q 3472 2313 2841 1759 
L 1844 884 
z
" transform="scale(0.015625)"/>
      <path id="DejaVuSans-Bold-44" d="M 1791 3756 
L 1791 909 
L 2222 909 
Q 2959 909 3348 1275 
Q 3738 1641 3738 2338 
Q 3738 3031 3350 3393 
Q 2963 3756 2222 3756 
L 1791 3756 
z
M 588 4666 
L 1856 4666 
Q 2919 4666 3439 4514 
Q 3959 4363 4331 4000 
Q 4659 3684 4818 3271 
Q 4978 2859 4978 2338 
Q 4978 1809 4818 1395 
Q 4659 981 4331 666 
Q 3956 303 3431 151 
Q 2906 0 1856 0 
L 588 0 
L 588 4666 
z
" transform="scale(0.015625)"/>
      <path id="DejaVuSans-Bold-43" d="M 4288 256 
Q 3956 84 3597 -3 
Q 3238 -91 2847 -91 
Q 1681 -91 1000 561 
Q 319 1213 319 2328 
Q 319 3447 1000 4098 
Q 1681 4750 2847 4750 
Q 3238 4750 3597 4662 
Q 3956 4575 4288 4403 
L 4288 3438 
Q 3953 3666 3628 3772 
Q 3303 3878 2944 3878 
Q 2300 3878 1931 3465 
Q 1563 3053 1563 2328 
Q 1563 1606 1931 1193 
Q 2300 781 2944 781 
Q 3303 781 3628 887 
Q 3953 994 4288 1222 
L 4288 256 
z
" transform="scale(0.015625)"/>
      <path id="DejaVuSans-Bold-6f" d="M 2203 2784 
Q 1831 2784 1636 2517 
Q 1441 2250 1441 1747 
Q 1441 1244 1636 976 
Q 1831 709 2203 709 
Q 2569 709 2762 976 
Q 2956 1244 2956 1747 
Q 2956 2250 2762 2517 
Q 2569 2784 2203 2784 
z
M 2203 3584 
Q 3106 3584 3614 3096 
Q 4122 2609 4122 1747 
Q 4122 884 3614 396 
Q 3106 -91 2203 -91 
Q 1297 -91 786 396 
Q 275 884 275 1747 
Q 275 2609 786 3096 
Q 1297 3584 2203 3584 
z
" transform="scale(0.015625)"/>
      <path id="DejaVuSans-Bold-76" d="M 97 3500 
L 1216 3500 
L 2088 1081 
L 2956 3500 
L 4078 3500 
L 2700 0 
L 1472 0 
L 97 3500 
z
" transform="scale(0.015625)"/>
      <path id="DejaVuSans-Bold-69" d="M 538 3500 
L 1656 3500 
L 1656 0 
L 538 0 
L 538 3500 
z
M 538 4863 
L 1656 4863 
L 1656 3950 
L 538 3950 
L 538 4863 
z
" transform="scale(0.015625)"/>
      <path id="DejaVuSans-Bold-61" d="M 2106 1575 
Q 1756 1575 1579 1456 
Q 1403 1338 1403 1106 
Q 1403 894 1545 773 
Q 1688 653 1941 653 
Q 2256 653 2472 879 
Q 2688 1106 2688 1447 
L 2688 1575 
L 2106 1575 
z
M 3816 1997 
L 3816 0 
L 2688 0 
L 2688 519 
Q 2463 200 2181 54 
Q 1900 -91 1497 -91 
Q 953 -91 614 226 
Q 275 544 275 1050 
Q 275 1666 698 1953 
Q 1122 2241 2028 2241 
L 2688 2241 
L 2688 2328 
Q 2688 2594 2478 2717 
Q 2269 2841 1825 2841 
Q 1466 2841 1156 2769 
Q 847 2697 581 2553 
L 581 3406 
Q 941 3494 1303 3539 
Q 1666 3584 2028 3584 
Q 2975 3584 3395 3211 
Q 3816 2838 3816 1997 
z
" transform="scale(0.015625)"/>
     </defs>
     <use xlink:href="#DejaVuSans-Bold-32"/>
     <use xlink:href="#DejaVuSans-Bold-44" x="69.580078"/>
     <use xlink:href="#DejaVuSans-Bold-20" x="152.587891"/>
     <use xlink:href="#DejaVuSans-Bold-43" x="187.402344"/>
     <use xlink:href="#DejaVuSans-Bold-6f" x="260.791016"/>
     <use xlink:href="#DejaVuSans-Bold-6e" x="329.492188"/>
     <use xlink:href="#DejaVuSans-Bold-76" x="400.683594"/>
     <use xlink:href="#DejaVuSans-Bold-6f" x="465.869141"/>
     <use xlink:href="#DejaVuSans-Bold-6c" x="534.570312"/>
     <use xlink:href="#DejaVuSans-Bold-75" x="568.847656"/>
     <use xlink:href="#DejaVuSans-Bold-74" x="640.039062"/>
     <use xlink:href="#DejaVuSans-Bold-69" x="687.841797"/>
     <use xlink:href="#DejaVuSans-Bold-6f" x="722.119141"/>
     <use xlink:href="#DejaVuSans-Bold-6e" x="790.820312"/>
     <use xlink:href="#DejaVuSans-Bold-20" x="862.011719"/>
     <use xlink:href="#DejaVuSans-Bold-4f" x="896.826172"/>
     <use xlink:href="#DejaVuSans-Bold-70" x="981.835938"/>
     <use xlink:href="#DejaVuSans-Bold-65" x="1053.417969"/>
     <use xlink:href="#DejaVuSans-Bold-72" x="1121.240234"/>
     <use xlink:href="#DejaVuSans-Bold-61" x="1170.556641"/>
     <use xlink:href="#DejaVuSans-Bold-74" x="1238.037109"/>
     <use xlink:href="#DejaVuSans-Bold-69" x="1285.839844"/>
     <use xlink:href="#DejaVuSans-Bold-6f" x="1320.117188"/>
     <use xlink:href="#DejaVuSans-Bold-6e" x="1388.818359"/>
    </g>
   </g>
   <g id="text_8">
    <!-- 1 -->
    <g style="fill: #1e40af" transform="translate(56.127049 116.156761) scale(0.11 -0.11)">
     <defs>
      <path id="DejaVuSans-Bold-31" d="M 750 831 
L 1813 831 
L 1813 3847 
L 722 3622 
L 722 4441 
L 1806 4666 
L 2950 4666 
L 2950 831 
L 4013 831 
L 4013 0 
L 750 0 
L 750 831 
z
" transform="scale(0.015625)"/>
     </defs>
     <use xlink:href="#DejaVuSans-Bold-31"/>
    </g>
   </g>
   <g id="text_9">
    <!-- 2 -->
    <g style="fill: #1e40af" transform="translate(105.363972 116.156761) scale(0.11 -0.11)">
     <use xlink:href="#DejaVuSans-Bold-32"/>
    </g>
   </g>
   <g id="text_10">
    <!-- 0 -->
    <g style="fill: #1e40af" transform="translate(154.600895 116.156761) scale(0.11 -0.11)">
     <defs>
      <path id="DejaVuSans-Bold-30" d="M 2944 2338 
Q 2944 3213 2780 3570 
Q 2616 3928 2228 3928 
Q 1841 3928 1675 3570 
Q 1509 3213 1509 2338 
Q 1509 1453 1675 1090 
Q 1841 728 2228 728 
Q 2613 728 2778 1090 
Q 2944 1453 2944 2338 
z
M 4147 2328 
Q 4147 1169 3647 539 
Q 3147 -91 2228 -91 
Q 1306 -91 806 539 
Q 306 1169 306 2328 
Q 306 3491 806 4120 
Q 1306 4750 2228 4750 
Q 3147 4750 3647 4120 
Q 4147 3491 4147 2328 
z
" transform="scale(0.015625)"/>
     </defs>
     <use xlink:href="#DejaVuSans-Bold-30"/>
    </g>
   </g>
   <g id="text_11">
    <!-- 1 -->
    <g style="fill: #1f2937" transform="translate(204.16524 116.156761) scale(0.11 -0.11)">
     <defs>
      <path id="DejaVuSans-31" d="M 794 531 
L 1825 531 
L 1825 4091 
L 703 3866 
L 703 4441 
L 1819 4666 
L 2450 4666 
L 2450 531 
L 3481 531 
L 3481 0 
L 794 0 
L 794 531 
z
" transform="scale(0.015625)"/>
     </defs>
     <use xlink:href="#DejaVuSans-31"/>
    </g>
   </g>
   <g id="text_12">
    <!-- 2 -->
    <g style="fill: #1f2937" transform="translate(253.402163 116.156761) scale(0.11 -0.11)">
     <defs>
      <path id="DejaVuSans-32" d="M 1228 531 
L 3431 531 
L 3431 0 
L 469 0 
L 469 531 
Q 828 903 1448 1529 
Q 2069 2156 2228 2338 
Q 2531 2678 2651 2914 
Q 2772 3150 2772 3378 
Q 2772 3750 2511 3984 
Q 2250 4219 1831 4219 
Q 1534 4219 1204 4116 
Q 875 4013 500 3803 
L 500 4441 
Q 881 4594 1212 4672 
Q 1544 4750 1819 4750 
Q 2544 4750 2975 4387 
Q 3406 4025 3406 3419 
Q 3406 3131 3298 2873 
Q 3191 2616 2906 2266 
Q 2828 2175 2409 1742 
Q 1991 1309 1228 531 
z
" transform="scale(0.015625)"/>
     </defs>
     <use xlink:href="#DejaVuSans-32"/>
    </g>
   </g>
   <g id="text_13">
    <!-- 0 -->
    <g style="fill: #1e40af" transform="translate(56.127049 161.414943) scale(0.11 -0.11)">
     <use xlink:href="#DejaVuSans-Bold-30"/>
    </g>
   </g>
   <g id="text_14">
    <!-- 1 -->
    <g style="fill: #1e40af" transform="translate(105.363972 161.414943) scale(0.11 -0.11)">
     <use xlink:href="#DejaVuSans-Bold-31"/>
    </g>
   </g>
   <g id="text_15">
    <!-- 3 -->
    <g style="fill: #1e40af" transform="translate(154.600895 161.414943) scale(0.11 -0.11)">
     <use xlink:href="#DejaVuSans-Bold-33"/>
    </g>
   </g>
   <g id="text_16">
    <!-- 2 -->
    <g style="fill: #1f2937" transform="translate(204.16524 161.414943) scale(0.11 -0.11)">
     <use xlink:href="#DejaVuSans-32"/>
    </g>
   </g>
   <g id="text_17">
    <!-- 1 -->
    <g style="fill: #1f2937" transform="translate(253.402163 161.414943) scale(0.11 -0.11)">
     <use xlink:href="#DejaVuSans-31"/>
    </g>
   </g>
   <g id="text_18">
    <!-- 2 -->
    <g style="fill: #1e40af" transform="translate(56.127049 206.673125) scale(0.11 -0.11)">
     <use xlink:href="#DejaVuSans-Bold-32"/>
    </g>
   </g>
   <g id="text_19">
    <!-- 0 -->
    <g style="fill: #1e40af" transform="translate(105.363972 206.673125) scale(0.11 -0.11)">
     <use xlink:href="#DejaVuSans-Bold-30"/>
    </g>
   </g>
   <g id="text_20">
    <!-- 1 -->
    <g style="fill: #1e40af" transform="translate(154.600895 206.673125) scale(0.11 -0.11)">
     <use xlink:href="#DejaVuSans-Bold-31"/>
    </g>
   </g>
   <g id="text_21">
    <!-- 0 -->
    <g style="fill: #1f2937" transform="translate(204.16524 206.673125) scale(0.11 -0.11)">
     <defs>
      <path id="DejaVuSans-30" d="M 2034 4250 
Q 1547 4250 1301 3770 
Q 1056 3291 1056 2328 
Q 1056 1369 1301 889 
Q 1547 409 2034 409 
Q 2525 409 2770 889 
Q 3016 1369 3016 2328 
Q 3016 3291 2770 3770 
Q 2525 4250 2034 4250 
z
M 2034 4750 
Q 2819 4750 3233 4129 
Q 3647 3509 3647 2328 
Q 3647 1150 3233 529 
Q 2819 -91 2034 -91 
Q 1250 -91 836 529 
Q 422 1150 422 2328 
Q 422 3509 836 4129 
Q 1250 4750 2034 4750 
z
" transform="scale(0.015625)"/>
     </defs>
     <use xlink:href="#DejaVuSans-30"/>
    </g>
   </g>
   <g id="text_22">
    <!-- 3 -->
    <g style="fill: #1f2937" transform="translate(253.402163 206.673125) scale(0.11 -0.11)">
     <use xlink:href="#DejaVuSans-33"/>
    </g>
   </g>
   <g id="text_23">
    <!-- 1 -->
    <g style="fill: #1f2937" transform="translate(56.454471 251.931307) scale(0.11 -0.11)">
     <use xlink:href="#DejaVuSans-31"/>
    </g>
   </g>
   <g id="text_24">
    <!-- 3 -->
    <g style="fill: #1f2937" transform="translate(105.691394 251.931307) scale(0.11 -0.11)">
     <use xlink:href="#DejaVuSans-33"/>
    </g>
   </g>
   <g id="text_25">
    <!-- 2 -->
    <g style="fill: #1f2937" transform="translate(154.928317 251.931307) scale(0.11 -0.11)">
     <use xlink:href="#DejaVuSans-32"/>
    </g>
   </g>
   <g id="text_26">
    <!-- 1 -->
    <g style="fill: #1f2937" transform="translate(204.16524 251.931307) scale(0.11 -0.11)">
     <use xlink:href="#DejaVuSans-31"/>
    </g>
   </g>
   <g id="text_27">
    <!-- 0 -->
    <g style="fill: #1f2937" transform="translate(253.402163 251.931307) scale(0.11 -0.11)">
     <use xlink:href="#DejaVuSans-30"/>
    </g>
   </g>
   <g id="text_28">
    <!-- 0 -->
    <g style="fill: #1f2937" transform="translate(56.454471 297.189489) scale(0.11 -0.11)">
     <use xlink:href="#DejaVuSans-30"/>
    </g>
   </g>
   <g id="text_29">
    <!-- 1 -->
    <g style="fill: #1f2937" transform="translate(105.691394 297.189489) scale(0.11 -0.11)">
     <use xlink:href="#DejaVuSans-31"/>
    </g>
   </g>
   <g id="text_30">
    <!-- 0 -->
    <g style="fill: #1f2937" transform="translate(154.928317 297.189489) scale(0.11 -0.11)">
     <use xlink:href="#DejaVuSans-30"/>
    </g>
   </g>
   <g id="text_31">
    <!-- 2 -->
    <g style="fill: #1f2937" transform="translate(204.16524 297.189489) scale(0.11 -0.11)">
     <use xlink:href="#DejaVuSans-32"/>
    </g>
   </g>
   <g id="text_32">
    <!-- 1 -->
    <g style="fill: #1f2937" transform="translate(253.402163 297.189489) scale(0.11 -0.11)">
     <use xlink:href="#DejaVuSans-31"/>
    </g>
   </g>
   <g id="text_33">
    <!-- +1 -->
    <g style="fill: #ea580c" transform="translate(375.075144 174.345852) scale(0.11 -0.11)">
     <defs>
      <path id="DejaVuSans-Bold-2b" d="M 3053 4013 
L 3053 2375 
L 4684 2375 
L 4684 1638 
L 3053 1638 
L 3053 0 
L 2309 0 
L 2309 1638 
L 678 1638 
L 678 2375 
L 2309 2375 
L 2309 4013 
L 3053 4013 
z
" transform="scale(0.015625)"/>
     </defs>
     <use xlink:href="#DejaVuSans-Bold-2b"/>
     <use xlink:href="#DejaVuSans-Bold-31" x="83.789062"/>
    </g>
   </g>
   <g id="text_34">
    <!-- +0 -->
    <g style="fill: #475569" transform="translate(424.312067 174.345852) scale(0.11 -0.11)">
     <use xlink:href="#DejaVuSans-Bold-2b"/>
     <use xlink:href="#DejaVuSans-Bold-30" x="83.789062"/>
    </g>
   </g>
   <g id="text_35">
    <!-- -1 -->
    <g style="fill: #ea580c" transform="translate(475.875319 174.345852) scale(0.11 -0.11)">
     <defs>
      <path id="DejaVuSans-Bold-2d" d="M 347 2297 
L 2309 2297 
L 2309 1388 
L 347 1388 
L 347 2297 
z
" transform="scale(0.015625)"/>
     </defs>
     <use xlink:href="#DejaVuSans-Bold-2d"/>
     <use xlink:href="#DejaVuSans-Bold-31" x="41.503906"/>
    </g>
   </g>
   <g id="text_36">
    <!-- +1 -->
    <g style="fill: #ea580c" transform="translate(375.075144 219.604034) scale(0.11 -0.11)">
     <use xlink:href="#DejaVuSans-Bold-2b"/>
     <use xlink:href="#DejaVuSans-Bold-31" x="83.789062"/>
    </g>
   </g>
   <g id="text_37">
    <!-- +0 -->
    <g style="fill: #475569" transform="translate(424.312067 219.604034) scale(0.11 -0.11)">
     <use xlink:href="#DejaVuSans-Bold-2b"/>
     <use xlink:href="#DejaVuSans-Bold-30" x="83.789062"/>
    </g>
   </g>
   <g id="text_38">
    <!-- -1 -->
    <g style="fill: #ea580c" transform="translate(475.875319 219.604034) scale(0.11 -0.11)">
     <use xlink:href="#DejaVuSans-Bold-2d"/>
     <use xlink:href="#DejaVuSans-Bold-31" x="41.503906"/>
    </g>
   </g>
   <g id="text_39">
    <!-- +1 -->
    <g style="fill: #ea580c" transform="translate(375.075144 264.862216) scale(0.11 -0.11)">
     <use xlink:href="#DejaVuSans-Bold-2b"/>
     <use xlink:href="#DejaVuSans-Bold-31" x="83.789062"/>
    </g>
   </g>
   <g id="text_40">
    <!-- +0 -->
    <g style="fill: #475569" transform="translate(424.312067 264.862216) scale(0.11 -0.11)">
     <use xlink:href="#DejaVuSans-Bold-2b"/>
     <use xlink:href="#DejaVuSans-Bold-30" x="83.789062"/>
    </g>
   </g>
   <g id="text_41">
    <!-- -1 -->
    <g style="fill: #ea580c" transform="translate(475.875319 264.862216) scale(0.11 -0.11)">
     <use xlink:href="#DejaVuSans-Bold-2d"/>
     <use xlink:href="#DejaVuSans-Bold-31" x="41.503906"/>
    </g>
   </g>
   <g id="text_42">
    <!-- 1 -->
    <g style="fill: #065f46" transform="translate(675.105511 174.345852) scale(0.11 -0.11)">
     <use xlink:href="#DejaVuSans-Bold-31"/>
    </g>
   </g>
   <g id="text_43">
    <!-- -1 -->
    <g style="fill: #065f46" transform="translate(722.059934 174.345852) scale(0.11 -0.11)">
     <use xlink:href="#DejaVuSans-Bold-2d"/>
     <use xlink:href="#DejaVuSans-Bold-31" x="41.503906"/>
    </g>
   </g>
   <g id="text_44">
    <!-- 2 -->
    <g style="fill: #065f46" transform="translate(773.579357 174.345852) scale(0.11 -0.11)">
     <use xlink:href="#DejaVuSans-Bold-32"/>
    </g>
   </g>
   <g id="text_45">
    <!-- 3 -->
    <g style="fill: #065f46" transform="translate(675.105511 219.604034) scale(0.11 -0.11)">
     <use xlink:href="#DejaVuSans-Bold-33"/>
    </g>
   </g>
   <g id="text_46">
    <!-- 1 -->
    <g style="fill: #065f46" transform="translate(724.342434 219.604034) scale(0.11 -0.11)">
     <use xlink:href="#DejaVuSans-Bold-31"/>
    </g>
   </g>
   <g id="text_47">
    <!-- -2 -->
    <g style="fill: #065f46" transform="translate(771.296857 219.604034) scale(0.11 -0.11)">
     <use xlink:href="#DejaVuSans-Bold-2d"/>
     <use xlink:href="#DejaVuSans-Bold-32" x="41.503906"/>
    </g>
   </g>
   <g id="text_48">
    <!-- -1 -->
    <g style="fill: #065f46" transform="translate(672.823011 264.862216) scale(0.11 -0.11)">
     <use xlink:href="#DejaVuSans-Bold-2d"/>
     <use xlink:href="#DejaVuSans-Bold-31" x="41.503906"/>
    </g>
   </g>
   <g id="text_49">
    <!-- 2 -->
    <g style="fill: #065f46" transform="translate(724.342434 264.862216) scale(0.11 -0.11)">
     <use xlink:href="#DejaVuSans-Bold-32"/>
    </g>
   </g>
   <g id="text_50">
    <!-- 0 -->
    <g style="fill: #065f46" transform="translate(773.579357 264.862216) scale(0.11 -0.11)">
     <use xlink:href="#DejaVuSans-Bold-30"/>
    </g>
   </g>
   <g id="patch_46">
    <path d="M 653.610462 194.586176 
L 704.254154 194.586176 
L 704.254154 148.034903 
L 653.610462 148.034903 
z
" clip-path="url(#pa25109da89)" style="fill: #16a34a; stroke: #ffffff; stroke-width: 2; stroke-linejoin: miter"/>
   </g>
   <g id="text_51">
    <!-- 1 -->
    <g style="fill: #ffffff" transform="translate(674.75762 174.62179) scale(0.12 -0.12)">
     <use xlink:href="#DejaVuSans-Bold-31"/>
    </g>
   </g>
  </g>
 </g>
 <defs>
  <clipPath id="pa25109da89">
   <rect x="7.2" y="25.837812" width="914.4" height="355.6"/>
  </clipPath>
 </defs>
</svg>
