<?xml version="1.0" encoding="utf-8" standalone="no"?>
<!DOCTYPE svg PUBLIC "-//W3C//DTD SVG 1.1//EN"
  "http://www.w3.org/Graphics/SVG/1.1/DTD/svg11.dtd">
<svg xmlns:xlink="http://www.w3.org/1999/xlink" width="928.8pt" height="330.84pt" viewBox="0 0 928.8 330.84" xmlns="http://www.w3.org/2000/svg" version="1.1">
 <metadata>
  <rdf:RDF xmlns:dc="http://purl.org/dc/elements/1.1/" xmlns:cc="http://creativecommons.org/ns#" xmlns:rdf="http://www.w3.org/1999/02/22-rdf-syntax-ns#">
   <cc:Work>
    <dc:type rdf:resource="http://purl.org/dc/dcmitype/StillImage"/>
    <dc:date>2026-04-24T07:26:53.735962</dc:date>
    <dc:format>image/svg+xml</dc:format>
    <dc:creator>
     <cc:Agent>
      <dc:title>Matplotlib v3.8.0, https://matplotlib.org/</dc:title>
     </cc:Agent>
    </dc:creator>
   </cc:Work>
  </rdf:RDF>
 </metadata>
 <defs>
  <style type="text/css">*{stroke-linejoin: round; stroke-linecap: butt}</style>
 </defs>
 <g id="figure_1">
  <g id="patch_1">
   <path d="M 0 330.84 
L 928.8 330.84 
L 928.8 0 
L 0 0 
z
" style="fill: #ffffff"/>
  </g>
  <g id="axes_1">
   <g id="patch_2">
    <path d="M 23.4648 236.1112 
L 90.3312 236.1112 
Q 95.7528 236.1112 95.7528 228.2728 
L 95.7528 157.7272 
Q 95.7528 149.8888 90.3312 149.8888 
L 23.4648 149.8888 
Q 18.0432 149.8888 18.0432 157.7272 
L 18.0432 228.2728 
Q 18.0432 236.1112 23.4648 236.1112 
z
" clip-path="url(#pb8997aeabd)" style="fill: #f3f4f6; stroke: #6b7280; stroke-width: 1.5; stroke-linejoin: miter"/>
   </g>
   <g id="patch_3">
    <path d="M 95.943844 193 
Q 106.595263 193 115.56963 193 
" style="fill: none; stroke: #374151; stroke-width: 1.5; stroke-linecap: round"/>
    <path d="M 111.96963 191.2 
L 115.56963 193 
L 111.96963 194.8 
z
" style="fill: #374151; stroke: #374151; stroke-width: 1.5; stroke-linecap: round"/>
   </g>
   <g id="patch_4">
    <path d="M 122.8608 236.1112 
L 189.7272 236.1112 
Q 195.1488 236.1112 195.1488 228.2728 
L 195.1488 157.7272 
Q 195.1488 149.8888 189.7272 149.8888 
L 122.8608 149.8888 
Q 117.4392 149.8888 117.4392 157.7272 
L 117.4392 228.2728 
Q 117.4392 236.1112 122.8608 236.1112 
z
" clip-path="url(#pb8997aeabd)" style="fill: #ffedd5; stroke: #ea580c; stroke-width: 1.5; stroke-linejoin: miter"/>
   </g>
   <g id="patch_5">
    <path d="M 195.339844 193 
Q 205.991263 193 214.96563 193 
" style="fill: none; stroke: #374151; stroke-width: 1.5; stroke-linecap: round"/>
    <path d="M 211.36563 191.2 
L 214.96563 193 
L 211.36563 194.8 
z
" style="fill: #374151; stroke: #374151; stroke-width: 1.5; stroke-linecap: round"/>
   </g>
   <g id="patch_6">
    <path d="M 222.2568 236.1112 
L 289.1232 236.1112 
Q 294.5448 236.1112 294.5448 228.2728 
L 294.5448 157.7272 
Q 294.5448 149.8888 289.1232 149.8888 
L 222.2568 149.8888 
Q 216.8352 149.8888 216.8352 157.7272 
L 216.8352 228.2728 
Q 216.8352 236.1112 222.2568 236.1112 
z
" clip-path="url(#pb8997aeabd)" style="fill: #dbeafe; stroke: #2563eb; stroke-width: 1.5; stroke-linejoin: miter"/>
   </g>
   <g id="patch_7">
    <path d="M 294.735844 193 
Q 305.387263 193 314.36163 193 
" style="fill: none; stroke: #374151; stroke-width: 1.5; stroke-linecap: round"/>
    <path d="M 310.76163 191.2 
L 314.36163 193 
L 310.76163 194.8 
z
" style="fill: #374151; stroke: #374151; stroke-width: 1.5; stroke-linecap: round"/>
   </g>
   <g id="patch_8">
    <path d="M 321.6528 236.1112 
L 388.5192 236.1112 
Q 393.9408 236.1112 393.9408 228.2728 
L 393.9408 157.7272 
Q 393.9408 149.8888 388.5192 149.8888 
L 321.6528 149.8888 
Q 316.2312 149.8888 316.2312 157.7272 
L 316.2312 228.2728 
Q 316.2312 236.1112 321.6528 236.1112 
z
" clip-path="url(#pb8997aeabd)" style="fill: #dcfce7; stroke: #16a34a; stroke-width: 1.5; stroke-linejoin: miter"/>
   </g>
   <g id="patch_9">
    <path d="M 122.92688 277.916 
Q 156.294684 277.916 189.662489 277.916 
" style="fill: none; stroke: #ea580c; stroke-width: 1.5; stroke-linecap: round"/>
    <path d="M 126.92688 279.916 
L 122.92688 277.916 
L 126.92688 275.916 
" style="fill: none; stroke: #ea580c; stroke-width: 1.5; stroke-linecap: round"/>
    <path d="M 185.662489 275.916 
L 189.662489 277.916 
L 185.662489 279.916 
" style="fill: none; stroke: #ea580c; stroke-width: 1.5; stroke-linecap: round"/>
   </g>
   <g id="text_1">
    <!-- Requires domain expertise -->
    <g style="fill: #ea580c" transform="translate(99.09232 296.2056) scale(0.085 -0.085)">
     <defs>
      <path id="DejaVuSans-Oblique-52" d="M 1613 4147 
L 1294 2491 
L 2106 2491 
Q 2584 2491 2879 2755 
Q 3175 3019 3175 3444 
Q 3175 3784 2976 3965 
Q 2778 4147 2406 4147 
L 1613 4147 
z
M 2772 2241 
Q 2972 2194 3105 2009 
Q 3238 1825 3413 1275 
L 3809 0 
L 3144 0 
L 2778 1197 
Q 2638 1659 2453 1815 
Q 2269 1972 1888 1972 
L 1191 1972 
L 806 0 
L 172 0 
L 1081 4666 
L 2503 4666 
Q 3150 4666 3495 4373 
Q 3841 4081 3841 3531 
Q 3841 3044 3547 2687 
Q 3253 2331 2772 2241 
z
" transform="scale(0.015625)"/>
      <path id="DejaVuSans-Oblique-65" d="M 3078 2063 
Q 3088 2113 3092 2166 
Q 3097 2219 3097 2272 
Q 3097 2653 2873 2875 
Q 2650 3097 2266 3097 
Q 1838 3097 1509 2826 
Q 1181 2556 1013 2059 
L 3078 2063 
z
M 3578 1613 
L 903 1613 
Q 884 1494 878 1425 
Q 872 1356 872 1306 
Q 872 872 1139 634 
Q 1406 397 1894 397 
Q 2269 397 2603 481 
Q 2938 566 3225 728 
L 3116 159 
Q 2806 34 2476 -28 
Q 2147 -91 1806 -91 
Q 1078 -91 686 257 
Q 294 606 294 1247 
Q 294 1794 489 2264 
Q 684 2734 1063 3103 
Q 1306 3334 1642 3459 
Q 1978 3584 2356 3584 
Q 2950 3584 3301 3228 
Q 3653 2872 3653 2272 
Q 3653 2128 3634 1964 
Q 3616 1800 3578 1613 
z
" transform="scale(0.015625)"/>
      <path id="DejaVuSans-Oblique-71" d="M 2669 525 
Q 2438 222 2123 65 
Q 1809 -91 1428 -91 
Q 897 -91 595 267 
Q 294 625 294 1253 
Q 294 1759 480 2231 
Q 666 2703 1013 3078 
Q 1238 3322 1530 3453 
Q 1822 3584 2144 3584 
Q 2531 3584 2781 3431 
Q 3031 3278 3144 2969 
L 3244 3494 
L 3822 3494 
L 2888 -1319 
L 2309 -1319 
L 2669 525 
z
M 891 1338 
Q 891 875 1084 633 
Q 1278 391 1644 391 
Q 2188 391 2572 911 
Q 2956 1431 2956 2175 
Q 2956 2625 2757 2864 
Q 2559 3103 2188 3103 
Q 1916 3103 1684 2976 
Q 1453 2850 1281 2606 
Q 1100 2350 995 2006 
Q 891 1663 891 1338 
z
" transform="scale(0.015625)"/>
      <path id="DejaVuSans-Oblique-75" d="M 428 1388 
L 838 3500 
L 1416 3500 
L 1006 1409 
Q 975 1256 961 1147 
Q 947 1038 947 966 
Q 947 700 1109 554 
Q 1272 409 1569 409 
Q 2031 409 2368 721 
Q 2706 1034 2809 1563 
L 3194 3500 
L 3769 3500 
L 3091 0 
L 2516 0 
L 2631 550 
Q 2388 244 2052 76 
Q 1716 -91 1338 -91 
Q 878 -91 622 161 
Q 366 413 366 863 
Q 366 956 381 1097 
Q 397 1238 428 1388 
z
" transform="scale(0.015625)"/>
      <path id="DejaVuSans-Oblique-69" d="M 1172 4863 
L 1747 4863 
L 1606 4134 
L 1031 4134 
L 1172 4863 
z
M 909 3500 
L 1484 3500 
L 800 0 
L 225 0 
L 909 3500 
z
" transform="scale(0.015625)"/>
      <path id="DejaVuSans-Oblique-72" d="M 2853 2969 
Q 2766 3016 2653 3041 
Q 2541 3066 2413 3066 
Q 1953 3066 1609 2717 
Q 1266 2369 1153 1784 
L 800 0 
L 225 0 
L 909 3500 
L 1484 3500 
L 1375 2956 
Q 1603 3259 1920 3421 
Q 2238 3584 2597 3584 
Q 2691 3584 2781 3573 
Q 2872 3563 2963 3538 
L 2853 2969 
z
" transform="scale(0.015625)"/>
      <path id="DejaVuSans-Oblique-73" d="M 3200 3397 
L 3091 2853 
Q 2863 2978 2609 3040 
Q 2356 3103 2088 3103 
Q 1634 3103 1373 2948 
Q 1113 2794 1113 2528 
Q 1113 2219 1719 2053 
Q 1766 2041 1788 2034 
L 1972 1978 
Q 2547 1819 2739 1644 
Q 2931 1469 2931 1166 
Q 2931 609 2489 259 
Q 2047 -91 1331 -91 
Q 1053 -91 747 -37 
Q 441 16 72 128 
L 184 722 
Q 500 559 806 475 
Q 1113 391 1394 391 
Q 1816 391 2080 572 
Q 2344 753 2344 1031 
Q 2344 1331 1650 1516 
L 1591 1531 
L 1394 1581 
Q 956 1697 753 1886 
Q 550 2075 550 2369 
Q 550 2928 970 3256 
Q 1391 3584 2113 3584 
Q 2397 3584 2667 3537 
Q 2938 3491 3200 3397 
z
" transform="scale(0.015625)"/>
      <path id="DejaVuSans-Oblique-20" transform="scale(0.015625)"/>
      <path id="DejaVuSans-Oblique-64" d="M 2675 525 
Q 2444 222 2128 65 
Q 1813 -91 1428 -91 
Q 903 -91 598 267 
Q 294 625 294 1247 
Q 294 1766 478 2236 
Q 663 2706 1013 3078 
Q 1244 3325 1534 3454 
Q 1825 3584 2144 3584 
Q 2481 3584 2739 3421 
Q 2997 3259 3138 2956 
L 3513 4863 
L 4091 4863 
L 3144 0 
L 2566 0 
L 2675 525 
z
M 891 1350 
Q 891 897 1095 644 
Q 1300 391 1663 391 
Q 1931 391 2161 520 
Q 2391 650 2566 903 
Q 2750 1166 2856 1509 
Q 2963 1853 2963 2188 
Q 2963 2622 2758 2865 
Q 2553 3109 2194 3109 
Q 1922 3109 1687 2981 
Q 1453 2853 1288 2613 
Q 1106 2353 998 2009 
Q 891 1666 891 1350 
z
" transform="scale(0.015625)"/>
      <path id="DejaVuSans-Oblique-6f" d="M 1625 -91 
Q 1009 -91 651 289 
Q 294 669 294 1325 
Q 294 1706 417 2101 
Q 541 2497 738 2766 
Q 1047 3184 1428 3384 
Q 1809 3584 2291 3584 
Q 2888 3584 3255 3212 
Q 3622 2841 3622 2241 
Q 3622 1825 3500 1412 
Q 3378 1000 3181 728 
Q 2875 309 2494 109 
Q 2113 -91 1625 -91 
z
M 891 1344 
Q 891 869 1089 633 
Q 1288 397 1691 397 
Q 2269 397 2648 901 
Q 3028 1406 3028 2181 
Q 3028 2634 2825 2865 
Q 2622 3097 2228 3097 
Q 1903 3097 1650 2945 
Q 1397 2794 1197 2484 
Q 1050 2253 970 1956 
Q 891 1659 891 1344 
z
" transform="scale(0.015625)"/>
      <path id="DejaVuSans-Oblique-6d" d="M 5747 2113 
L 5338 0 
L 4763 0 
L 5166 2094 
Q 5191 2228 5203 2325 
Q 5216 2422 5216 2491 
Q 5216 2772 5059 2928 
Q 4903 3084 4622 3084 
Q 4203 3084 3875 2770 
Q 3547 2456 3450 1953 
L 3066 0 
L 2491 0 
L 2900 2094 
Q 2925 2209 2937 2307 
Q 2950 2406 2950 2484 
Q 2950 2769 2794 2926 
Q 2638 3084 2363 3084 
Q 1938 3084 1609 2770 
Q 1281 2456 1184 1953 
L 800 0 
L 225 0 
L 909 3500 
L 1484 3500 
L 1375 2956 
Q 1609 3263 1923 3423 
Q 2238 3584 2597 3584 
Q 2978 3584 3223 3384 
Q 3469 3184 3519 2828 
Q 3781 3197 4126 3390 
Q 4472 3584 4856 3584 
Q 5306 3584 5551 3325 
Q 5797 3066 5797 2591 
Q 5797 2488 5784 2364 
Q 5772 2241 5747 2113 
z
" transform="scale(0.015625)"/>
      <path id="DejaVuSans-Oblique-61" d="M 3438 1997 
L 3047 0 
L 2472 0 
L 2578 531 
Q 2325 219 2001 64 
Q 1678 -91 1281 -91 
Q 834 -91 548 182 
Q 263 456 263 884 
Q 263 1497 752 1853 
Q 1241 2209 2100 2209 
L 2900 2209 
L 2931 2363 
Q 2938 2388 2941 2417 
Q 2944 2447 2944 2509 
Q 2944 2788 2717 2942 
Q 2491 3097 2081 3097 
Q 1800 3097 1504 3025 
Q 1209 2953 897 2809 
L 997 3341 
Q 1322 3463 1633 3523 
Q 1944 3584 2234 3584 
Q 2853 3584 3176 3315 
Q 3500 3047 3500 2534 
Q 3500 2431 3484 2292 
Q 3469 2153 3438 1997 
z
M 2816 1759 
L 2241 1759 
Q 1534 1759 1195 1570 
Q 856 1381 856 984 
Q 856 709 1029 553 
Q 1203 397 1509 397 
Q 1978 397 2328 733 
Q 2678 1069 2791 1631 
L 2816 1759 
z
" transform="scale(0.015625)"/>
      <path id="DejaVuSans-Oblique-6e" d="M 3566 2113 
L 3156 0 
L 2578 0 
L 2988 2091 
Q 3016 2238 3031 2350 
Q 3047 2463 3047 2528 
Q 3047 2791 2881 2937 
Q 2716 3084 2419 3084 
Q 1956 3084 1622 2776 
Q 1288 2469 1184 1941 
L 800 0 
L 225 0 
L 903 3500 
L 1478 3500 
L 1363 2950 
Q 1603 3253 1940 3418 
Q 2278 3584 2650 3584 
Q 3113 3584 3367 3334 
Q 3622 3084 3622 2631 
Q 3622 2519 3608 2391 
Q 3594 2263 3566 2113 
z
" transform="scale(0.015625)"/>
      <path id="DejaVuSans-Oblique-78" d="M 3841 3500 
L 2234 1784 
L 3219 0 
L 2559 0 
L 1819 1388 
L 531 0 
L -166 0 
L 1556 1844 
L 641 3500 
L 1300 3500 
L 1972 2234 
L 3144 3500 
L 3841 3500 
z
" transform="scale(0.015625)"/>
      <path id="DejaVuSans-Oblique-70" d="M 3175 2156 
Q 3175 2616 2975 2859 
Q 2775 3103 2400 3103 
Q 2144 3103 1911 2972 
Q 1678 2841 1497 2591 
Q 1319 2344 1212 1994 
Q 1106 1644 1106 1300 
Q 1106 863 1306 627 
Q 1506 391 1875 391 
Q 2147 391 2380 519 
Q 2613 647 2778 891 
Q 2956 1147 3065 1494 
Q 3175 1841 3175 2156 
z
M 1394 2969 
Q 1625 3272 1939 3428 
Q 2253 3584 2638 3584 
Q 3175 3584 3472 3232 
Q 3769 2881 3769 2247 
Q 3769 1728 3584 1258 
Q 3400 788 3053 416 
Q 2822 169 2531 39 
Q 2241 -91 1919 -91 
Q 1547 -91 1294 64 
Q 1041 219 916 525 
L 556 -1331 
L -19 -1331 
L 922 3500 
L 1497 3500 
L 1394 2969 
z
" transform="scale(0.015625)"/>
      <path id="DejaVuSans-Oblique-74" d="M 2706 3500 
L 2619 3053 
L 1472 3053 
L 1100 1153 
Q 1081 1047 1072 975 
Q 1063 903 1063 863 
Q 1063 663 1183 572 
Q 1303 481 1569 481 
L 2150 481 
L 2053 0 
L 1503 0 
Q 991 0 739 200 
Q 488 400 488 806 
Q 488 878 497 964 
Q 506 1050 525 1153 
L 897 3053 
L 409 3053 
L 500 3500 
L 978 3500 
L 1172 4494 
L 1747 4494 
L 1556 3500 
L 2706 3500 
z
" transform="scale(0.015625)"/>
     </defs>
     <use xlink:href="#DejaVuSans-Oblique-52"/>
     <use xlink:href="#DejaVuSans-Oblique-65" x="69.482422"/>
     <use xlink:href="#DejaVuSans-Oblique-71" x="131.005859"/>
     <use xlink:href="#DejaVuSans-Oblique-75" x="194.482422"/>
     <use xlink:href="#DejaVuSans-Oblique-69" x="257.861328"/>
     <use xlink:href="#DejaVuSans-Oblique-72" x="285.644531"/>
     <use xlink:href="#DejaVuSans-Oblique-65" x="326.757812"/>
     <use xlink:href="#DejaVuSans-Oblique-73" x="388.28125"/>
     <use xlink:href="#DejaVuSans-Oblique-20" x="440.380859"/>
     <use xlink:href="#DejaVuSans-Oblique-64" x="472.167969"/>
     <use xlink:href="#DejaVuSans-Oblique-6f" x="535.644531"/>
     <use xlink:href="#DejaVuSans-Oblique-6d" x="596.826172"/>
     <use xlink:href="#DejaVuSans-Oblique-61" x="694.238281"/>
     <use xlink:href="#DejaVuSans-Oblique-69" x="755.517578"/>
     <use xlink:href="#DejaVuSans-Oblique-6e" x="783.300781"/>
     <use xlink:href="#DejaVuSans-Oblique-20" x="846.679688"/>
     <use xlink:href="#DejaVuSans-Oblique-65" x="878.466797"/>
     <use xlink:href="#DejaVuSans-Oblique-78" x="939.990234"/>
     <use xlink:href="#DejaVuSans-Oblique-70" x="999.169922"/>
     <use xlink:href="#DejaVuSans-Oblique-65" x="1062.646484"/>
     <use xlink:href="#DejaVuSans-Oblique-72" x="1124.169922"/>
     <use xlink:href="#DejaVuSans-Oblique-74" x="1165.283203"/>
     <use xlink:href="#DejaVuSans-Oblique-69" x="1204.492188"/>
     <use xlink:href="#DejaVuSans-Oblique-73" x="1232.275391"/>
     <use xlink:href="#DejaVuSans-Oblique-65" x="1284.375"/>
    </g>
   </g>
   <g id="text_2">
    <!-- Traditional ML -->
    <g style="fill: #0f172a" transform="translate(185.000625 54.36) scale(0.12 -0.12)">
     <defs>
      <path id="DejaVuSans-Bold-54" d="M 31 4666 
L 4331 4666 
L 4331 3756 
L 2784 3756 
L 2784 0 
L 1581 0 
L 1581 3756 
L 31 3756 
L 31 4666 
z
" transform="scale(0.015625)"/>
      <path id="DejaVuSans-Bold-72" d="M 3138 2547 
Q 2991 2616 2845 2648 
Q 2700 2681 2553 2681 
Q 2122 2681 1889 2404 
Q 1656 2128 1656 1613 
L 1656 0 
L 538 0 
L 538 3500 
L 1656 3500 
L 1656 2925 
Q 1872 3269 2151 3426 
Q 2431 3584 2822 3584 
Q 2878 3584 2943 3579 
Q 3009 3575 3134 3559 
L 3138 2547 
z
" transform="scale(0.015625)"/>
      <path id="DejaVuSans-Bold-61" d="M 2106 1575 
Q 1756 1575 1579 1456 
Q 1403 1338 1403 1106 
Q 1403 894 1545 773 
Q 1688 653 1941 653 
Q 2256 653 2472 879 
Q 2688 1106 2688 1447 
L 2688 1575 
L 2106 1575 
z
M 3816 1997 
L 3816 0 
L 2688 0 
L 2688 519 
Q 2463 200 2181 54 
Q 1900 -91 1497 -91 
Q 953 -91 614 226 
Q 275 544 275 1050 
Q 275 1666 698 1953 
Q 1122 2241 2028 2241 
L 2688 2241 
L 2688 2328 
Q 2688 2594 2478 2717 
Q 2269 2841 1825 2841 
Q 1466 2841 1156 2769 
Q 847 2697 581 2553 
L 581 3406 
Q 941 3494 1303 3539 
Q 1666 3584 2028 3584 
Q 2975 3584 3395 3211 
Q 3816 2838 3816 1997 
z
" transform="scale(0.015625)"/>
      <path id="DejaVuSans-Bold-64" d="M 2919 2988 
L 2919 4863 
L 4044 4863 
L 4044 0 
L 2919 0 
L 2919 506 
Q 2688 197 2409 53 
Q 2131 -91 1766 -91 
Q 1119 -91 703 423 
Q 288 938 288 1747 
Q 288 2556 703 3070 
Q 1119 3584 1766 3584 
Q 2128 3584 2408 3439 
Q 2688 3294 2919 2988 
z
M 2181 722 
Q 2541 722 2730 984 
Q 2919 1247 2919 1747 
Q 2919 2247 2730 2509 
Q 2541 2772 2181 2772 
Q 1825 2772 1636 2509 
Q 1447 2247 1447 1747 
Q 1447 1247 1636 984 
Q 1825 722 2181 722 
z
" transform="scale(0.015625)"/>
      <path id="DejaVuSans-Bold-69" d="M 538 3500 
L 1656 3500 
L 1656 0 
L 538 0 
L 538 3500 
z
M 538 4863 
L 1656 4863 
L 1656 3950 
L 538 3950 
L 538 4863 
z
" transform="scale(0.015625)"/>
      <path id="DejaVuSans-Bold-74" d="M 1759 4494 
L 1759 3500 
L 2913 3500 
L 2913 2700 
L 1759 2700 
L 1759 1216 
Q 1759 972 1856 886 
Q 1953 800 2241 800 
L 2816 800 
L 2816 0 
L 1856 0 
Q 1194 0 917 276 
Q 641 553 641 1216 
L 641 2700 
L 84 2700 
L 84 3500 
L 641 3500 
L 641 4494 
L 1759 4494 
z
" transform="scale(0.015625)"/>
      <path id="DejaVuSans-Bold-6f" d="M 2203 2784 
Q 1831 2784 1636 2517 
Q 1441 2250 1441 1747 
Q 1441 1244 1636 976 
Q 1831 709 2203 709 
Q 2569 709 2762 976 
Q 2956 1244 2956 1747 
Q 2956 2250 2762 2517 
Q 2569 2784 2203 2784 
z
M 2203 3584 
Q 3106 3584 3614 3096 
Q 4122 2609 4122 1747 
Q 4122 884 3614 396 
Q 3106 -91 2203 -91 
Q 1297 -91 786 396 
Q 275 884 275 1747 
Q 275 2609 786 3096 
Q 1297 3584 2203 3584 
z
" transform="scale(0.015625)"/>
      <path id="DejaVuSans-Bold-6e" d="M 4056 2131 
L 4056 0 
L 2931 0 
L 2931 347 
L 2931 1631 
Q 2931 2084 2911 2256 
Q 2891 2428 2841 2509 
Q 2775 2619 2662 2680 
Q 2550 2741 2406 2741 
Q 2056 2741 1856 2470 
Q 1656 2200 1656 1722 
L 1656 0 
L 538 0 
L 538 3500 
L 1656 3500 
L 1656 2988 
Q 1909 3294 2193 3439 
Q 2478 3584 2822 3584 
Q 3428 3584 3742 3212 
Q 4056 2841 4056 2131 
z
" transform="scale(0.015625)"/>
      <path id="DejaVuSans-Bold-6c" d="M 538 4863 
L 1656 4863 
L 1656 0 
L 538 0 
L 538 4863 
z
" transform="scale(0.015625)"/>
      <path id="DejaVuSans-Bold-20" transform="scale(0.015625)"/>
      <path id="DejaVuSans-Bold-4d" d="M 588 4666 
L 2119 4666 
L 3181 2169 
L 4250 4666 
L 5778 4666 
L 5778 0 
L 4641 0 
L 4641 3413 
L 3566 897 
L 2803 897 
L 1728 3413 
L 1728 0 
L 588 0 
L 588 4666 
z
" transform="scale(0.015625)"/>
      <path id="DejaVuSans-Bold-4c" d="M 588 4666 
L 1791 4666 
L 1791 909 
L 3903 909 
L 3903 0 
L 588 0 
L 588 4666 
z
" transform="scale(0.015625)"/>
     </defs>
     <use xlink:href="#DejaVuSans-Bold-54"/>
     <use xlink:href="#DejaVuSans-Bold-72" x="57.212891"/>
     <use xlink:href="#DejaVuSans-Bold-61" x="106.529297"/>
     <use xlink:href="#DejaVuSans-Bold-64" x="174.009766"/>
     <use xlink:href="#DejaVuSans-Bold-69" x="245.591797"/>
     <use xlink:href="#DejaVuSans-Bold-74" x="279.869141"/>
     <use xlink:href="#DejaVuSans-Bold-69" x="327.671875"/>
     <use xlink:href="#DejaVuSans-Bold-6f" x="361.949219"/>
     <use xlink:href="#DejaVuSans-Bold-6e" x="430.650391"/>
     <use xlink:href="#DejaVuSans-Bold-61" x="501.841797"/>
     <use xlink:href="#DejaVuSans-Bold-6c" x="569.322266"/>
     <use xlink:href="#DejaVuSans-Bold-20" x="603.599609"/>
     <use xlink:href="#DejaVuSans-Bold-4d" x="638.414062"/>
     <use xlink:href="#DejaVuSans-Bold-4c" x="737.925781"/>
    </g>
   </g>
   <g id="text_3">
    <!-- Raw -->
    <g style="fill: #1f2937" transform="translate(45.05425 190.160469) scale(0.1 -0.1)">
     <defs>
      <path id="DejaVuSans-Bold-52" d="M 2297 2597 
Q 2675 2597 2839 2737 
Q 3003 2878 3003 3200 
Q 3003 3519 2839 3656 
Q 2675 3794 2297 3794 
L 1791 3794 
L 1791 2597 
L 2297 2597 
z
M 1791 1766 
L 1791 0 
L 588 0 
L 588 4666 
L 2425 4666 
Q 3347 4666 3776 4356 
Q 4206 4047 4206 3378 
Q 4206 2916 3982 2619 
Q 3759 2322 3309 2181 
Q 3556 2125 3751 1926 
Q 3947 1728 4147 1325 
L 4800 0 
L 3519 0 
L 2950 1159 
Q 2778 1509 2601 1637 
Q 2425 1766 2131 1766 
L 1791 1766 
z
" transform="scale(0.015625)"/>
      <path id="DejaVuSans-Bold-77" d="M 225 3500 
L 1313 3500 
L 1900 1088 
L 2491 3500 
L 3425 3500 
L 4013 1113 
L 4603 3500 
L 5691 3500 
L 4769 0 
L 3547 0 
L 2956 2406 
L 2369 0 
L 1147 0 
L 225 3500 
z
" transform="scale(0.015625)"/>
     </defs>
     <use xlink:href="#DejaVuSans-Bold-52"/>
     <use xlink:href="#DejaVuSans-Bold-61" x="77.001953"/>
     <use xlink:href="#DejaVuSans-Bold-77" x="144.482422"/>
    </g>
    <!-- Data -->
    <g style="fill: #1f2937" transform="translate(43.608938 201.358281) scale(0.1 -0.1)">
     <defs>
      <path id="DejaVuSans-Bold-44" d="M 1791 3756 
L 1791 909 
L 2222 909 
Q 2959 909 3348 1275 
Q 3738 1641 3738 2338 
Q 3738 3031 3350 3393 
Q 2963 3756 2222 3756 
L 1791 3756 
z
M 588 4666 
L 1856 4666 
Q 2919 4666 3439 4514 
Q 3959 4363 4331 4000 
Q 4659 3684 4818 3271 
Q 4978 2859 4978 2338 
Q 4978 1809 4818 1395 
Q 4659 981 4331 666 
Q 3956 303 3431 151 
Q 2906 0 1856 0 
L 588 0 
L 588 4666 
z
" transform="scale(0.015625)"/>
     </defs>
     <use xlink:href="#DejaVuSans-Bold-44"/>
     <use xlink:href="#DejaVuSans-Bold-61" x="83.007812"/>
     <use xlink:href="#DejaVuSans-Bold-74" x="150.488281"/>
     <use xlink:href="#DejaVuSans-Bold-61" x="198.291016"/>
    </g>
   </g>
   <g id="text_4">
    <!-- Feature -->
    <g style="fill: #1f2937" transform="translate(134.5065 184.5225) scale(0.1 -0.1)">
     <defs>
      <path id="DejaVuSans-Bold-46" d="M 588 4666 
L 3834 4666 
L 3834 3756 
L 1791 3756 
L 1791 2888 
L 3713 2888 
L 3713 1978 
L 1791 1978 
L 1791 0 
L 588 0 
L 588 4666 
z
" transform="scale(0.015625)"/>
      <path id="DejaVuSans-Bold-65" d="M 4031 1759 
L 4031 1441 
L 1416 1441 
Q 1456 1047 1700 850 
Q 1944 653 2381 653 
Q 2734 653 3104 758 
Q 3475 863 3866 1075 
L 3866 213 
Q 3469 63 3072 -14 
Q 2675 -91 2278 -91 
Q 1328 -91 801 392 
Q 275 875 275 1747 
Q 275 2603 792 3093 
Q 1309 3584 2216 3584 
Q 3041 3584 3536 3087 
Q 4031 2591 4031 1759 
z
M 2881 2131 
Q 2881 2450 2695 2645 
Q 2509 2841 2209 2841 
Q 1884 2841 1681 2658 
Q 1478 2475 1428 2131 
L 2881 2131 
z
" transform="scale(0.015625)"/>
      <path id="DejaVuSans-Bold-75" d="M 500 1363 
L 500 3500 
L 1625 3500 
L 1625 3150 
Q 1625 2866 1622 2436 
Q 1619 2006 1619 1863 
Q 1619 1441 1641 1255 
Q 1663 1069 1716 984 
Q 1784 875 1895 815 
Q 2006 756 2150 756 
Q 2500 756 2700 1025 
Q 2900 1294 2900 1772 
L 2900 3500 
L 4019 3500 
L 4019 0 
L 2900 0 
L 2900 506 
Q 2647 200 2364 54 
Q 2081 -91 1741 -91 
Q 1134 -91 817 281 
Q 500 653 500 1363 
z
" transform="scale(0.015625)"/>
     </defs>
     <use xlink:href="#DejaVuSans-Bold-46"/>
     <use xlink:href="#DejaVuSans-Bold-65" x="64.310547"/>
     <use xlink:href="#DejaVuSans-Bold-61" x="132.132812"/>
     <use xlink:href="#DejaVuSans-Bold-74" x="199.613281"/>
     <use xlink:href="#DejaVuSans-Bold-75" x="247.416016"/>
     <use xlink:href="#DejaVuSans-Bold-72" x="318.607422"/>
     <use xlink:href="#DejaVuSans-Bold-65" x="367.923828"/>
    </g>
    <!-- Engineering -->
    <g style="fill: #1f2937" transform="translate(122.365875 195.720313) scale(0.1 -0.1)">
     <defs>
      <path id="DejaVuSans-Bold-45" d="M 588 4666 
L 3834 4666 
L 3834 3756 
L 1791 3756 
L 1791 2888 
L 3713 2888 
L 3713 1978 
L 1791 1978 
L 1791 909 
L 3903 909 
L 3903 0 
L 588 0 
L 588 4666 
z
" transform="scale(0.015625)"/>
      <path id="DejaVuSans-Bold-67" d="M 2919 594 
Q 2688 288 2409 144 
Q 2131 0 1766 0 
Q 1125 0 706 504 
Q 288 1009 288 1791 
Q 288 2575 706 3076 
Q 1125 3578 1766 3578 
Q 2131 3578 2409 3434 
Q 2688 3291 2919 2981 
L 2919 3500 
L 4044 3500 
L 4044 353 
Q 4044 -491 3511 -936 
Q 2978 -1381 1966 -1381 
Q 1638 -1381 1331 -1331 
Q 1025 -1281 716 -1178 
L 716 -306 
Q 1009 -475 1290 -558 
Q 1572 -641 1856 -641 
Q 2406 -641 2662 -400 
Q 2919 -159 2919 353 
L 2919 594 
z
M 2181 2772 
Q 1834 2772 1640 2515 
Q 1447 2259 1447 1791 
Q 1447 1309 1634 1061 
Q 1822 813 2181 813 
Q 2531 813 2725 1069 
Q 2919 1325 2919 1791 
Q 2919 2259 2725 2515 
Q 2531 2772 2181 2772 
z
" transform="scale(0.015625)"/>
     </defs>
     <use xlink:href="#DejaVuSans-Bold-45"/>
     <use xlink:href="#DejaVuSans-Bold-6e" x="68.310547"/>
     <use xlink:href="#DejaVuSans-Bold-67" x="139.501953"/>
     <use xlink:href="#DejaVuSans-Bold-69" x="211.083984"/>
     <use xlink:href="#DejaVuSans-Bold-6e" x="245.361328"/>
     <use xlink:href="#DejaVuSans-Bold-65" x="316.552734"/>
     <use xlink:href="#DejaVuSans-Bold-65" x="384.375"/>
     <use xlink:href="#DejaVuSans-Bold-72" x="452.197266"/>
     <use xlink:href="#DejaVuSans-Bold-69" x="501.513672"/>
     <use xlink:href="#DejaVuSans-Bold-6e" x="535.791016"/>
     <use xlink:href="#DejaVuSans-Bold-67" x="606.982422"/>
    </g>
    <!-- (manual) -->
    <g style="fill: #1f2937" transform="translate(130.932281 206.99625) scale(0.1 -0.1)">
     <defs>
      <path id="DejaVuSans-Bold-28" d="M 2413 -844 
L 1484 -844 
Q 1006 -72 778 623 
Q 550 1319 550 2003 
Q 550 2688 779 3389 
Q 1009 4091 1484 4856 
L 2413 4856 
Q 2013 4116 1813 3408 
Q 1613 2700 1613 2009 
Q 1613 1319 1811 609 
Q 2009 -100 2413 -844 
z
" transform="scale(0.015625)"/>
      <path id="DejaVuSans-Bold-6d" d="M 3781 2919 
Q 3994 3244 4286 3414 
Q 4578 3584 4928 3584 
Q 5531 3584 5847 3212 
Q 6163 2841 6163 2131 
L 6163 0 
L 5038 0 
L 5038 1825 
Q 5041 1866 5042 1909 
Q 5044 1953 5044 2034 
Q 5044 2406 4934 2573 
Q 4825 2741 4581 2741 
Q 4263 2741 4089 2478 
Q 3916 2216 3909 1719 
L 3909 0 
L 2784 0 
L 2784 1825 
Q 2784 2406 2684 2573 
Q 2584 2741 2328 2741 
Q 2006 2741 1831 2477 
Q 1656 2213 1656 1722 
L 1656 0 
L 531 0 
L 531 3500 
L 1656 3500 
L 1656 2988 
Q 1863 3284 2130 3434 
Q 2397 3584 2719 3584 
Q 3081 3584 3359 3409 
Q 3638 3234 3781 2919 
z
" transform="scale(0.015625)"/>
      <path id="DejaVuSans-Bold-29" d="M 513 -844 
Q 913 -100 1113 609 
Q 1313 1319 1313 2009 
Q 1313 2700 1113 3408 
Q 913 4116 513 4856 
L 1441 4856 
Q 1916 4091 2145 3389 
Q 2375 2688 2375 2003 
Q 2375 1319 2147 623 
Q 1919 -72 1441 -844 
L 513 -844 
z
" transform="scale(0.015625)"/>
     </defs>
     <use xlink:href="#DejaVuSans-Bold-28"/>
     <use xlink:href="#DejaVuSans-Bold-6d" x="45.703125"/>
     <use xlink:href="#DejaVuSans-Bold-61" x="149.902344"/>
     <use xlink:href="#DejaVuSans-Bold-6e" x="217.382812"/>
     <use xlink:href="#DejaVuSans-Bold-75" x="288.574219"/>
     <use xlink:href="#DejaVuSans-Bold-61" x="359.765625"/>
     <use xlink:href="#DejaVuSans-Bold-6c" x="427.246094"/>
     <use xlink:href="#DejaVuSans-Bold-29" x="461.523438"/>
    </g>
   </g>
   <g id="text_5">
    <!-- ML -->
    <g style="fill: #1f2937" transform="translate(247.528281 190.160469) scale(0.1 -0.1)">
     <use xlink:href="#DejaVuSans-Bold-4d"/>
     <use xlink:href="#DejaVuSans-Bold-4c" x="99.511719"/>
    </g>
    <!-- Model -->
    <g style="fill: #1f2937" transform="translate(238.594688 201.358281) scale(0.1 -0.1)">
     <use xlink:href="#DejaVuSans-Bold-4d"/>
     <use xlink:href="#DejaVuSans-Bold-6f" x="99.511719"/>
     <use xlink:href="#DejaVuSans-Bold-64" x="168.212891"/>
     <use xlink:href="#DejaVuSans-Bold-65" x="239.794922"/>
     <use xlink:href="#DejaVuSans-Bold-6c" x="307.617188"/>
    </g>
   </g>
   <g id="text_6">
    <!-- Prediction -->
    <g style="fill: #1f2937" transform="translate(326.208656 195.759375) scale(0.1 -0.1)">
     <defs>
      <path id="DejaVuSans-Bold-50" d="M 588 4666 
L 2584 4666 
Q 3475 4666 3951 4270 
Q 4428 3875 4428 3144 
Q 4428 2409 3951 2014 
Q 3475 1619 2584 1619 
L 1791 1619 
L 1791 0 
L 588 0 
L 588 4666 
z
M 1791 3794 
L 1791 2491 
L 2456 2491 
Q 2806 2491 2997 2661 
Q 3188 2831 3188 3144 
Q 3188 3456 2997 3625 
Q 2806 3794 2456 3794 
L 1791 3794 
z
" transform="scale(0.015625)"/>
      <path id="DejaVuSans-Bold-63" d="M 3366 3391 
L 3366 2478 
Q 3138 2634 2908 2709 
Q 2678 2784 2431 2784 
Q 1963 2784 1702 2511 
Q 1441 2238 1441 1747 
Q 1441 1256 1702 982 
Q 1963 709 2431 709 
Q 2694 709 2930 787 
Q 3166 866 3366 1019 
L 3366 103 
Q 3103 6 2833 -42 
Q 2563 -91 2291 -91 
Q 1344 -91 809 395 
Q 275 881 275 1747 
Q 275 2613 809 3098 
Q 1344 3584 2291 3584 
Q 2566 3584 2833 3536 
Q 3100 3488 3366 3391 
z
" transform="scale(0.015625)"/>
     </defs>
     <use xlink:href="#DejaVuSans-Bold-50"/>
     <use xlink:href="#DejaVuSans-Bold-72" x="73.291016"/>
     <use xlink:href="#DejaVuSans-Bold-65" x="122.607422"/>
     <use xlink:href="#DejaVuSans-Bold-64" x="190.429688"/>
     <use xlink:href="#DejaVuSans-Bold-69" x="262.011719"/>
     <use xlink:href="#DejaVuSans-Bold-63" x="296.289062"/>
     <use xlink:href="#DejaVuSans-Bold-74" x="355.566406"/>
     <use xlink:href="#DejaVuSans-Bold-69" x="403.369141"/>
     <use xlink:href="#DejaVuSans-Bold-6f" x="437.646484"/>
     <use xlink:href="#DejaVuSans-Bold-6e" x="506.347656"/>
    </g>
   </g>
  </g>
  <g id="axes_2">
   <g id="patch_10">
    <path d="M 486.0648 236.1112 
L 552.9312 236.1112 
Q 558.3528 236.1112 558.3528 228.2728 
L 558.3528 157.7272 
Q 558.3528 149.8888 552.9312 149.8888 
L 486.0648 149.8888 
Q 480.6432 149.8888 480.6432 157.7272 
L 480.6432 228.2728 
Q 480.6432 236.1112 486.0648 236.1112 
z
" clip-path="url(#p4014c8860b)" style="fill: #f3f4f6; stroke: #6b7280; stroke-width: 1.5; stroke-linejoin: miter"/>
   </g>
   <g id="patch_11">
    <path d="M 558.543844 193 
Q 569.195263 193 578.16963 193 
" style="fill: none; stroke: #374151; stroke-width: 1.5; stroke-linecap: round"/>
    <path d="M 574.56963 191.2 
L 578.16963 193 
L 574.56963 194.8 
z
" style="fill: #374151; stroke: #374151; stroke-width: 1.5; stroke-linecap: round"/>
   </g>
   <g id="patch_12">
    <path d="M 585.4608 236.1112 
L 652.3272 236.1112 
Q 657.7488 236.1112 657.7488 228.2728 
L 657.7488 157.7272 
Q 657.7488 149.8888 652.3272 149.8888 
L 585.4608 149.8888 
Q 580.0392 149.8888 580.0392 157.7272 
L 580.0392 228.2728 
Q 580.0392 236.1112 585.4608 236.1112 
z
" clip-path="url(#p4014c8860b)" style="fill: #ede9fe; stroke: #7c3aed; stroke-width: 1.5; stroke-linejoin: miter"/>
   </g>
   <g id="patch_13">
    <path d="M 657.939844 193 
Q 668.591263 193 677.56563 193 
" style="fill: none; stroke: #374151; stroke-width: 1.5; stroke-linecap: round"/>
    <path d="M 673.96563 191.2 
L 677.56563 193 
L 673.96563 194.8 
z
" style="fill: #374151; stroke: #374151; stroke-width: 1.5; stroke-linecap: round"/>
   </g>
   <g id="patch_14">
    <path d="M 684.8568 236.1112 
L 751.7232 236.1112 
Q 757.1448 236.1112 757.1448 228.2728 
L 757.1448 157.7272 
Q 757.1448 149.8888 751.7232 149.8888 
L 684.8568 149.8888 
Q 679.4352 149.8888 679.4352 157.7272 
L 679.4352 228.2728 
Q 679.4352 236.1112 684.8568 236.1112 
z
" clip-path="url(#p4014c8860b)" style="fill: #dbeafe; stroke: #2563eb; stroke-width: 1.5; stroke-linejoin: miter"/>
   </g>
   <g id="patch_15">
    <path d="M 757.335844 193 
Q 767.987263 193 776.96163 193 
" style="fill: none; stroke: #374151; stroke-width: 1.5; stroke-linecap: round"/>
    <path d="M 773.36163 191.2 
L 776.96163 193 
L 773.36163 194.8 
z
" style="fill: #374151; stroke: #374151; stroke-width: 1.5; stroke-linecap: round"/>
   </g>
   <g id="patch_16">
    <path d="M 784.2528 236.1112 
L 851.1192 236.1112 
Q 856.5408 236.1112 856.5408 228.2728 
L 856.5408 157.7272 
Q 856.5408 149.8888 851.1192 149.8888 
L 784.2528 149.8888 
Q 778.8312 149.8888 778.8312 157.7272 
L 778.8312 228.2728 
Q 778.8312 236.1112 784.2528 236.1112 
z
" clip-path="url(#p4014c8860b)" style="fill: #dcfce7; stroke: #16a34a; stroke-width: 1.5; stroke-linejoin: miter"/>
   </g>
   <g id="patch_17">
    <path d="M 585.52688 277.916 
Q 618.894684 277.916 652.262489 277.916 
" style="fill: none; stroke: #7c3aed; stroke-width: 1.5; stroke-linecap: round"/>
    <path d="M 589.52688 279.916 
L 585.52688 277.916 
L 589.52688 275.916 
" style="fill: none; stroke: #7c3aed; stroke-width: 1.5; stroke-linecap: round"/>
    <path d="M 648.262489 275.916 
L 652.262489 277.916 
L 648.262489 279.916 
" style="fill: none; stroke: #7c3aed; stroke-width: 1.5; stroke-linecap: round"/>
   </g>
   <g id="text_7">
    <!-- Learned from data -->
    <g style="fill: #7c3aed" transform="translate(579.294625 296.2056) scale(0.085 -0.085)">
     <defs>
      <path id="DejaVuSans-Oblique-4c" d="M 1075 4666 
L 1709 4666 
L 909 525 
L 3181 525 
L 3078 0 
L 172 0 
L 1075 4666 
z
" transform="scale(0.015625)"/>
      <path id="DejaVuSans-Oblique-66" d="M 3059 4863 
L 2969 4384 
L 2419 4384 
Q 2106 4384 1964 4261 
Q 1822 4138 1753 3809 
L 1691 3500 
L 2638 3500 
L 2553 3053 
L 1606 3053 
L 1013 0 
L 434 0 
L 1031 3053 
L 481 3053 
L 563 3500 
L 1113 3500 
L 1159 3744 
Q 1278 4363 1576 4613 
Q 1875 4863 2516 4863 
L 3059 4863 
z
" transform="scale(0.015625)"/>
     </defs>
     <use xlink:href="#DejaVuSans-Oblique-4c"/>
     <use xlink:href="#DejaVuSans-Oblique-65" x="55.712891"/>
     <use xlink:href="#DejaVuSans-Oblique-61" x="117.236328"/>
     <use xlink:href="#DejaVuSans-Oblique-72" x="178.515625"/>
     <use xlink:href="#DejaVuSans-Oblique-6e" x="219.628906"/>
     <use xlink:href="#DejaVuSans-Oblique-65" x="283.007812"/>
     <use xlink:href="#DejaVuSans-Oblique-64" x="344.53125"/>
     <use xlink:href="#DejaVuSans-Oblique-20" x="408.007812"/>
     <use xlink:href="#DejaVuSans-Oblique-66" x="439.794922"/>
     <use xlink:href="#DejaVuSans-Oblique-72" x="475"/>
     <use xlink:href="#DejaVuSans-Oblique-6f" x="516.113281"/>
     <use xlink:href="#DejaVuSans-Oblique-6d" x="577.294922"/>
     <use xlink:href="#DejaVuSans-Oblique-20" x="674.707031"/>
     <use xlink:href="#DejaVuSans-Oblique-64" x="706.494141"/>
     <use xlink:href="#DejaVuSans-Oblique-61" x="769.970703"/>
     <use xlink:href="#DejaVuSans-Oblique-74" x="831.25"/>
     <use xlink:href="#DejaVuSans-Oblique-61" x="870.458984"/>
    </g>
   </g>
   <g id="text_8">
    <!-- Deep Learning -->
    <g style="fill: #0f172a" transform="translate(646.401563 54.36) scale(0.12 -0.12)">
     <defs>
      <path id="DejaVuSans-Bold-70" d="M 1656 506 
L 1656 -1331 
L 538 -1331 
L 538 3500 
L 1656 3500 
L 1656 2988 
Q 1888 3294 2169 3439 
Q 2450 3584 2816 3584 
Q 3463 3584 3878 3070 
Q 4294 2556 4294 1747 
Q 4294 938 3878 423 
Q 3463 -91 2816 -91 
Q 2450 -91 2169 54 
Q 1888 200 1656 506 
z
M 2400 2772 
Q 2041 2772 1848 2508 
Q 1656 2244 1656 1747 
Q 1656 1250 1848 986 
Q 2041 722 2400 722 
Q 2759 722 2948 984 
Q 3138 1247 3138 1747 
Q 3138 2247 2948 2509 
Q 2759 2772 2400 2772 
z
" transform="scale(0.015625)"/>
     </defs>
     <use xlink:href="#DejaVuSans-Bold-44"/>
     <use xlink:href="#DejaVuSans-Bold-65" x="83.007812"/>
     <use xlink:href="#DejaVuSans-Bold-65" x="150.830078"/>
     <use xlink:href="#DejaVuSans-Bold-70" x="218.652344"/>
     <use xlink:href="#DejaVuSans-Bold-20" x="290.234375"/>
     <use xlink:href="#DejaVuSans-Bold-4c" x="325.048828"/>
     <use xlink:href="#DejaVuSans-Bold-65" x="388.769531"/>
     <use xlink:href="#DejaVuSans-Bold-61" x="456.591797"/>
     <use xlink:href="#DejaVuSans-Bold-72" x="524.072266"/>
     <use xlink:href="#DejaVuSans-Bold-6e" x="573.388672"/>
     <use xlink:href="#DejaVuSans-Bold-69" x="644.580078"/>
     <use xlink:href="#DejaVuSans-Bold-6e" x="678.857422"/>
     <use xlink:href="#DejaVuSans-Bold-67" x="750.048828"/>
    </g>
   </g>
   <g id="text_9">
    <!-- Raw -->
    <g style="fill: #1f2937" transform="translate(507.65425 190.160469) scale(0.1 -0.1)">
     <use xlink:href="#DejaVuSans-Bold-52"/>
     <use xlink:href="#DejaVuSans-Bold-61" x="77.001953"/>
     <use xlink:href="#DejaVuSans-Bold-77" x="144.482422"/>
    </g>
    <!-- Data -->
    <g style="fill: #1f2937" transform="translate(506.208938 201.358281) scale(0.1 -0.1)">
     <use xlink:href="#DejaVuSans-Bold-44"/>
     <use xlink:href="#DejaVuSans-Bold-61" x="83.007812"/>
     <use xlink:href="#DejaVuSans-Bold-74" x="150.488281"/>
     <use xlink:href="#DejaVuSans-Bold-61" x="198.291016"/>
    </g>
   </g>
   <g id="text_10">
    <!-- Feature -->
    <g style="fill: #1f2937" transform="translate(597.1065 184.5225) scale(0.1 -0.1)">
     <use xlink:href="#DejaVuSans-Bold-46"/>
     <use xlink:href="#DejaVuSans-Bold-65" x="64.310547"/>
     <use xlink:href="#DejaVuSans-Bold-61" x="132.132812"/>
     <use xlink:href="#DejaVuSans-Bold-74" x="199.613281"/>
     <use xlink:href="#DejaVuSans-Bold-75" x="247.416016"/>
     <use xlink:href="#DejaVuSans-Bold-72" x="318.607422"/>
     <use xlink:href="#DejaVuSans-Bold-65" x="367.923828"/>
    </g>
    <!-- Learning -->
    <g style="fill: #1f2937" transform="translate(594.065094 195.720313) scale(0.1 -0.1)">
     <use xlink:href="#DejaVuSans-Bold-4c"/>
     <use xlink:href="#DejaVuSans-Bold-65" x="63.720703"/>
     <use xlink:href="#DejaVuSans-Bold-61" x="131.542969"/>
     <use xlink:href="#DejaVuSans-Bold-72" x="199.023438"/>
     <use xlink:href="#DejaVuSans-Bold-6e" x="248.339844"/>
     <use xlink:href="#DejaVuSans-Bold-69" x="319.53125"/>
     <use xlink:href="#DejaVuSans-Bold-6e" x="353.808594"/>
     <use xlink:href="#DejaVuSans-Bold-67" x="425"/>
    </g>
    <!-- (automatic) -->
    <g style="fill: #1f2937" transform="translate(585.91275 206.99625) scale(0.1 -0.1)">
     <use xlink:href="#DejaVuSans-Bold-28"/>
     <use xlink:href="#DejaVuSans-Bold-61" x="45.703125"/>
     <use xlink:href="#DejaVuSans-Bold-75" x="113.183594"/>
     <use xlink:href="#DejaVuSans-Bold-74" x="184.375"/>
     <use xlink:href="#DejaVuSans-Bold-6f" x="232.177734"/>
     <use xlink:href="#DejaVuSans-Bold-6d" x="300.878906"/>
     <use xlink:href="#DejaVuSans-Bold-61" x="405.078125"/>
     <use xlink:href="#DejaVuSans-Bold-74" x="472.558594"/>
     <use xlink:href="#DejaVuSans-Bold-69" x="520.361328"/>
     <use xlink:href="#DejaVuSans-Bold-63" x="554.638672"/>
     <use xlink:href="#DejaVuSans-Bold-29" x="613.916016"/>
    </g>
   </g>
   <g id="text_11">
    <!-- Deep -->
    <g style="fill: #1f2937" transform="translate(703.7775 190.160469) scale(0.1 -0.1)">
     <use xlink:href="#DejaVuSans-Bold-44"/>
     <use xlink:href="#DejaVuSans-Bold-65" x="83.007812"/>
     <use xlink:href="#DejaVuSans-Bold-65" x="150.830078"/>
     <use xlink:href="#DejaVuSans-Bold-70" x="218.652344"/>
    </g>
    <!-- Network -->
    <g style="fill: #1f2937" transform="translate(694.479063 201.358281) scale(0.1 -0.1)">
     <defs>
      <path id="DejaVuSans-Bold-4e" d="M 588 4666 
L 1931 4666 
L 3628 1466 
L 3628 4666 
L 4769 4666 
L 4769 0 
L 3425 0 
L 1728 3200 
L 1728 0 
L 588 0 
L 588 4666 
z
" transform="scale(0.015625)"/>
      <path id="DejaVuSans-Bold-6b" d="M 538 4863 
L 1656 4863 
L 1656 2216 
L 2944 3500 
L 4244 3500 
L 2534 1894 
L 4378 0 
L 3022 0 
L 1656 1459 
L 1656 0 
L 538 0 
L 538 4863 
z
" transform="scale(0.015625)"/>
     </defs>
     <use xlink:href="#DejaVuSans-Bold-4e"/>
     <use xlink:href="#DejaVuSans-Bold-65" x="83.691406"/>
     <use xlink:href="#DejaVuSans-Bold-74" x="151.513672"/>
     <use xlink:href="#DejaVuSans-Bold-77" x="199.316406"/>
     <use xlink:href="#DejaVuSans-Bold-6f" x="291.699219"/>
     <use xlink:href="#DejaVuSans-Bold-72" x="360.400391"/>
     <use xlink:href="#DejaVuSans-Bold-6b" x="409.716797"/>
    </g>
   </g>
   <g id="text_12">
    <!-- Prediction -->
    <g style="fill: #1f2937" transform="translate(788.808656 195.759375) scale(0.1 -0.1)">
     <use xlink:href="#DejaVuSans-Bold-50"/>
     <use xlink:href="#DejaVuSans-Bold-72" x="73.291016"/>
     <use xlink:href="#DejaVuSans-Bold-65" x="122.607422"/>
     <use xlink:href="#DejaVuSans-Bold-64" x="190.429688"/>
     <use xlink:href="#DejaVuSans-Bold-69" x="262.011719"/>
     <use xlink:href="#DejaVuSans-Bold-63" x="296.289062"/>
     <use xlink:href="#DejaVuSans-Bold-74" x="355.566406"/>
     <use xlink:href="#DejaVuSans-Bold-69" x="403.369141"/>
     <use xlink:href="#DejaVuSans-Bold-6f" x="437.646484"/>
     <use xlink:href="#DejaVuSans-Bold-6e" x="506.347656"/>
    </g>
   </g>
  </g>
  <g id="text_13">
   <!-- Traditional ML vs Deep Learning -->
   <g style="fill: #0f172a" transform="translate(337.16625 17.837812) scale(0.14 -0.14)">
    <defs>
     <path id="DejaVuSans-Bold-76" d="M 97 3500 
L 1216 3500 
L 2088 1081 
L 2956 3500 
L 4078 3500 
L 2700 0 
L 1472 0 
L 97 3500 
z
" transform="scale(0.015625)"/>
     <path id="DejaVuSans-Bold-73" d="M 3272 3391 
L 3272 2541 
Q 2913 2691 2578 2766 
Q 2244 2841 1947 2841 
Q 1628 2841 1473 2761 
Q 1319 2681 1319 2516 
Q 1319 2381 1436 2309 
Q 1553 2238 1856 2203 
L 2053 2175 
Q 2913 2066 3209 1816 
Q 3506 1566 3506 1031 
Q 3506 472 3093 190 
Q 2681 -91 1863 -91 
Q 1516 -91 1145 -36 
Q 775 19 384 128 
L 384 978 
Q 719 816 1070 734 
Q 1422 653 1784 653 
Q 2113 653 2278 743 
Q 2444 834 2444 1013 
Q 2444 1163 2330 1236 
Q 2216 1309 1875 1350 
L 1678 1375 
Q 931 1469 631 1722 
Q 331 1975 331 2491 
Q 331 3047 712 3315 
Q 1094 3584 1881 3584 
Q 2191 3584 2531 3537 
Q 2872 3491 3272 3391 
z
" transform="scale(0.015625)"/>
    </defs>
    <use xlink:href="#DejaVuSans-Bold-54"/>
    <use xlink:href="#DejaVuSans-Bold-72" x="57.212891"/>
    <use xlink:href="#DejaVuSans-Bold-61" x="106.529297"/>
    <use xlink:href="#DejaVuSans-Bold-64" x="174.009766"/>
    <use xlink:href="#DejaVuSans-Bold-69" x="245.591797"/>
    <use xlink:href="#DejaVuSans-Bold-74" x="279.869141"/>
    <use xlink:href="#DejaVuSans-Bold-69" x="327.671875"/>
    <use xlink:href="#DejaVuSans-Bold-6f" x="361.949219"/>
    <use xlink:href="#DejaVuSans-Bold-6e" x="430.650391"/>
    <use xlink:href="#DejaVuSans-Bold-61" x="501.841797"/>
    <use xlink:href="#DejaVuSans-Bold-6c" x="569.322266"/>
    <use xlink:href="#DejaVuSans-Bold-20" x="603.599609"/>
    <use xlink:href="#DejaVuSans-Bold-4d" x="638.414062"/>
    <use xlink:href="#DejaVuSans-Bold-4c" x="737.925781"/>
    <use xlink:href="#DejaVuSans-Bold-20" x="801.646484"/>
    <use xlink:href="#DejaVuSans-Bold-76" x="836.460938"/>
    <use xlink:href="#DejaVuSans-Bold-73" x="901.646484"/>
    <use xlink:href="#DejaVuSans-Bold-20" x="961.167969"/>
    <use xlink:href="#DejaVuSans-Bold-44" x="995.982422"/>
    <use xlink:href="#DejaVuSans-Bold-65" x="1078.990234"/>
    <use xlink:href="#DejaVuSans-Bold-65" x="1146.8125"/>
    <use xlink:href="#DejaVuSans-Bold-70" x="1214.634766"/>
    <use xlink:href="#DejaVuSans-Bold-20" x="1286.216797"/>
    <use xlink:href="#DejaVuSans-Bold-4c" x="1321.03125"/>
    <use xlink:href="#DejaVuSans-Bold-65" x="1384.751953"/>
    <use xlink:href="#DejaVuSans-Bold-61" x="1452.574219"/>
    <use xlink:href="#DejaVuSans-Bold-72" x="1520.054688"/>
    <use xlink:href="#DejaVuSans-Bold-6e" x="1569.371094"/>
    <use xlink:href="#DejaVuSans-Bold-69" x="1640.5625"/>
    <use xlink:href="#DejaVuSans-Bold-6e" x="1674.839844"/>
    <use xlink:href="#DejaVuSans-Bold-67" x="1746.03125"/>
   </g>
  </g>
 </g>
 <defs>
  <clipPath id="pb8997aeabd">
   <rect x="7.2" y="62.36" width="451.8" height="261.28"/>
  </clipPath>
  <clipPath id="p4014c8860b">
   <rect x="469.8" y="62.36" width="451.8" height="261.28"/>
  </clipPath>
 </defs>
</svg>
