<?xml version="1.0" encoding="utf-8" standalone="no"?>
<!DOCTYPE svg PUBLIC "-//W3C//DTD SVG 1.1//EN"
  "http://www.w3.org/Graphics/SVG/1.1/DTD/svg11.dtd">
<svg xmlns:xlink="http://www.w3.org/1999/xlink" width="784.8pt" height="356.4pt" viewBox="0 0 784.8 356.4" xmlns="http://www.w3.org/2000/svg" version="1.1">
 <metadata>
  <rdf:RDF xmlns:dc="http://purl.org/dc/elements/1.1/" xmlns:cc="http://creativecommons.org/ns#" xmlns:rdf="http://www.w3.org/1999/02/22-rdf-syntax-ns#">
   <cc:Work>
    <dc:type rdf:resource="http://purl.org/dc/dcmitype/StillImage"/>
    <dc:date>2026-04-24T07:26:55.904964</dc:date>
    <dc:format>image/svg+xml</dc:format>
    <dc:creator>
     <cc:Agent>
      <dc:title>Matplotlib v3.8.0, https://matplotlib.org/</dc:title>
     </cc:Agent>
    </dc:creator>
   </cc:Work>
  </rdf:RDF>
 </metadata>
 <defs>
  <style type="text/css">*{stroke-linejoin: round; stroke-linecap: butt}</style>
 </defs>
 <g id="figure_1">
  <g id="patch_1">
   <path d="M 0 356.4 
L 784.8 356.4 
L 784.8 0 
L 0 0 
z
" style="fill: #ffffff"/>
  </g>
  <g id="axes_1">
   <g id="line2d_1">
    <path d="M 73.393714 299.2 
L 185.163429 289.2 
" clip-path="url(#p85a9256dcc)" style="fill: none; stroke: #cbd5e1; stroke-opacity: 0.2; stroke-width: 0.6; stroke-linecap: square"/>
   </g>
   <g id="line2d_2">
    <path d="M 73.393714 299.2 
L 185.163429 239.2 
" clip-path="url(#p85a9256dcc)" style="fill: none; stroke: #cbd5e1; stroke-opacity: 0.2; stroke-width: 0.6; stroke-linecap: square"/>
   </g>
   <g id="line2d_3">
    <path d="M 73.393714 299.2 
L 185.163429 189.2 
" clip-path="url(#p85a9256dcc)" style="fill: none; stroke: #cbd5e1; stroke-opacity: 0.2; stroke-width: 0.6; stroke-linecap: square"/>
   </g>
   <g id="line2d_4">
    <path d="M 73.393714 299.2 
L 185.163429 139.2 
" clip-path="url(#p85a9256dcc)" style="fill: none; stroke: #cbd5e1; stroke-opacity: 0.2; stroke-width: 0.6; stroke-linecap: square"/>
   </g>
   <g id="line2d_5">
    <path d="M 73.393714 255.45 
L 185.163429 289.2 
" clip-path="url(#p85a9256dcc)" style="fill: none; stroke: #cbd5e1; stroke-opacity: 0.2; stroke-width: 0.6; stroke-linecap: square"/>
   </g>
   <g id="line2d_6">
    <path d="M 73.393714 255.45 
L 185.163429 239.2 
" clip-path="url(#p85a9256dcc)" style="fill: none; stroke: #cbd5e1; stroke-opacity: 0.2; stroke-width: 0.6; stroke-linecap: square"/>
   </g>
   <g id="line2d_7">
    <path d="M 73.393714 255.45 
L 185.163429 189.2 
" clip-path="url(#p85a9256dcc)" style="fill: none; stroke: #cbd5e1; stroke-opacity: 0.2; stroke-width: 0.6; stroke-linecap: square"/>
   </g>
   <g id="line2d_8">
    <path d="M 73.393714 255.45 
L 185.163429 139.2 
" clip-path="url(#p85a9256dcc)" style="fill: none; stroke: #cbd5e1; stroke-opacity: 0.2; stroke-width: 0.6; stroke-linecap: square"/>
   </g>
   <g id="line2d_9">
    <path d="M 73.393714 211.7 
L 185.163429 289.2 
" clip-path="url(#p85a9256dcc)" style="fill: none; stroke: #cbd5e1; stroke-opacity: 0.2; stroke-width: 0.6; stroke-linecap: square"/>
   </g>
   <g id="line2d_10">
    <path d="M 73.393714 211.7 
L 185.163429 239.2 
" clip-path="url(#p85a9256dcc)" style="fill: none; stroke: #cbd5e1; stroke-opacity: 0.2; stroke-width: 0.6; stroke-linecap: square"/>
   </g>
   <g id="line2d_11">
    <path d="M 73.393714 211.7 
L 185.163429 189.2 
" clip-path="url(#p85a9256dcc)" style="fill: none; stroke: #cbd5e1; stroke-opacity: 0.2; stroke-width: 0.6; stroke-linecap: square"/>
   </g>
   <g id="line2d_12">
    <path d="M 73.393714 211.7 
L 185.163429 139.2 
" clip-path="url(#p85a9256dcc)" style="fill: none; stroke: #cbd5e1; stroke-opacity: 0.2; stroke-width: 0.6; stroke-linecap: square"/>
   </g>
   <g id="line2d_13">
    <path d="M 73.393714 167.95 
L 185.163429 289.2 
" clip-path="url(#p85a9256dcc)" style="fill: none; stroke: #cbd5e1; stroke-opacity: 0.2; stroke-width: 0.6; stroke-linecap: square"/>
   </g>
   <g id="line2d_14">
    <path d="M 73.393714 167.95 
L 185.163429 239.2 
" clip-path="url(#p85a9256dcc)" style="fill: none; stroke: #cbd5e1; stroke-opacity: 0.2; stroke-width: 0.6; stroke-linecap: square"/>
   </g>
   <g id="line2d_15">
    <path d="M 73.393714 167.95 
L 185.163429 189.2 
" clip-path="url(#p85a9256dcc)" style="fill: none; stroke: #cbd5e1; stroke-opacity: 0.2; stroke-width: 0.6; stroke-linecap: square"/>
   </g>
   <g id="line2d_16">
    <path d="M 73.393714 167.95 
L 185.163429 139.2 
" clip-path="url(#p85a9256dcc)" style="fill: none; stroke: #cbd5e1; stroke-opacity: 0.2; stroke-width: 0.6; stroke-linecap: square"/>
   </g>
   <g id="line2d_17">
    <path d="M 73.393714 124.2 
L 185.163429 289.2 
" clip-path="url(#p85a9256dcc)" style="fill: none; stroke: #cbd5e1; stroke-opacity: 0.2; stroke-width: 0.6; stroke-linecap: square"/>
   </g>
   <g id="line2d_18">
    <path d="M 73.393714 124.2 
L 185.163429 239.2 
" clip-path="url(#p85a9256dcc)" style="fill: none; stroke: #cbd5e1; stroke-opacity: 0.2; stroke-width: 0.6; stroke-linecap: square"/>
   </g>
   <g id="line2d_19">
    <path d="M 73.393714 124.2 
L 185.163429 189.2 
" clip-path="url(#p85a9256dcc)" style="fill: none; stroke: #cbd5e1; stroke-opacity: 0.2; stroke-width: 0.6; stroke-linecap: square"/>
   </g>
   <g id="line2d_20">
    <path d="M 73.393714 124.2 
L 185.163429 139.2 
" clip-path="url(#p85a9256dcc)" style="fill: none; stroke: #cbd5e1; stroke-opacity: 0.2; stroke-width: 0.6; stroke-linecap: square"/>
   </g>
   <g id="line2d_21">
    <path d="M 209.036571 289.2 
L 320.806286 274.2 
" clip-path="url(#p85a9256dcc)" style="fill: none; stroke: #cbd5e1; stroke-opacity: 0.2; stroke-width: 0.6; stroke-linecap: square"/>
   </g>
   <g id="line2d_22">
    <path d="M 209.036571 289.2 
L 320.806286 211.7 
" clip-path="url(#p85a9256dcc)" style="fill: none; stroke: #cbd5e1; stroke-opacity: 0.2; stroke-width: 0.6; stroke-linecap: square"/>
   </g>
   <g id="line2d_23">
    <path d="M 209.036571 289.2 
L 320.806286 149.2 
" clip-path="url(#p85a9256dcc)" style="fill: none; stroke: #cbd5e1; stroke-opacity: 0.2; stroke-width: 0.6; stroke-linecap: square"/>
   </g>
   <g id="line2d_24">
    <path d="M 209.036571 239.2 
L 320.806286 274.2 
" clip-path="url(#p85a9256dcc)" style="fill: none; stroke: #cbd5e1; stroke-opacity: 0.2; stroke-width: 0.6; stroke-linecap: square"/>
   </g>
   <g id="line2d_25">
    <path d="M 209.036571 239.2 
L 320.806286 211.7 
" clip-path="url(#p85a9256dcc)" style="fill: none; stroke: #cbd5e1; stroke-opacity: 0.2; stroke-width: 0.6; stroke-linecap: square"/>
   </g>
   <g id="line2d_26">
    <path d="M 209.036571 239.2 
L 320.806286 149.2 
" clip-path="url(#p85a9256dcc)" style="fill: none; stroke: #cbd5e1; stroke-opacity: 0.2; stroke-width: 0.6; stroke-linecap: square"/>
   </g>
   <g id="line2d_27">
    <path d="M 209.036571 189.2 
L 320.806286 274.2 
" clip-path="url(#p85a9256dcc)" style="fill: none; stroke: #cbd5e1; stroke-opacity: 0.2; stroke-width: 0.6; stroke-linecap: square"/>
   </g>
   <g id="line2d_28">
    <path d="M 209.036571 189.2 
L 320.806286 211.7 
" clip-path="url(#p85a9256dcc)" style="fill: none; stroke: #cbd5e1; stroke-opacity: 0.2; stroke-width: 0.6; stroke-linecap: square"/>
   </g>
   <g id="line2d_29">
    <path d="M 209.036571 189.2 
L 320.806286 149.2 
" clip-path="url(#p85a9256dcc)" style="fill: none; stroke: #cbd5e1; stroke-opacity: 0.2; stroke-width: 0.6; stroke-linecap: square"/>
   </g>
   <g id="line2d_30">
    <path d="M 209.036571 139.2 
L 320.806286 274.2 
" clip-path="url(#p85a9256dcc)" style="fill: none; stroke: #cbd5e1; stroke-opacity: 0.2; stroke-width: 0.6; stroke-linecap: square"/>
   </g>
   <g id="line2d_31">
    <path d="M 209.036571 139.2 
L 320.806286 211.7 
" clip-path="url(#p85a9256dcc)" style="fill: none; stroke: #cbd5e1; stroke-opacity: 0.2; stroke-width: 0.6; stroke-linecap: square"/>
   </g>
   <g id="line2d_32">
    <path d="M 209.036571 139.2 
L 320.806286 149.2 
" clip-path="url(#p85a9256dcc)" style="fill: none; stroke: #cbd5e1; stroke-opacity: 0.2; stroke-width: 0.6; stroke-linecap: square"/>
   </g>
   <g id="patch_2">
    <path d="M 61.457143 310.2 
C 64.622759 310.2 67.659145 309.040971 69.897573 306.978175 
C 72.136002 304.915379 73.393714 302.117234 73.393714 299.2 
C 73.393714 296.282766 72.136002 293.484621 69.897573 291.421825 
C 67.659145 289.359029 64.622759 288.2 61.457143 288.2 
C 58.291527 288.2 55.255141 289.359029 53.016712 291.421825 
C 50.778284 293.484621 49.520571 296.282766 49.520571 299.2 
C 49.520571 302.117234 50.778284 304.915379 53.016712 306.978175 
C 55.255141 309.040971 58.291527 310.2 61.457143 310.2 
z
" clip-path="url(#p85a9256dcc)" style="fill: #dbeafe; stroke: #2563eb; stroke-width: 1.5; stroke-linejoin: miter"/>
   </g>
   <g id="patch_3">
    <path d="M 61.457143 266.45 
C 64.622759 266.45 67.659145 265.290971 69.897573 263.228175 
C 72.136002 261.165379 73.393714 258.367234 73.393714 255.45 
C 73.393714 252.532766 72.136002 249.734621 69.897573 247.671825 
C 67.659145 245.609029 64.622759 244.45 61.457143 244.45 
C 58.291527 244.45 55.255141 245.609029 53.016712 247.671825 
C 50.778284 249.734621 49.520571 252.532766 49.520571 255.45 
C 49.520571 258.367234 50.778284 261.165379 53.016712 263.228175 
C 55.255141 265.290971 58.291527 266.45 61.457143 266.45 
z
" clip-path="url(#p85a9256dcc)" style="fill: #dbeafe; stroke: #2563eb; stroke-width: 1.5; stroke-linejoin: miter"/>
   </g>
   <g id="patch_4">
    <path d="M 61.457143 222.7 
C 64.622759 222.7 67.659145 221.540971 69.897573 219.478175 
C 72.136002 217.415379 73.393714 214.617234 73.393714 211.7 
C 73.393714 208.782766 72.136002 205.984621 69.897573 203.921825 
C 67.659145 201.859029 64.622759 200.7 61.457143 200.7 
C 58.291527 200.7 55.255141 201.859029 53.016712 203.921825 
C 50.778284 205.984621 49.520571 208.782766 49.520571 211.7 
C 49.520571 214.617234 50.778284 217.415379 53.016712 219.478175 
C 55.255141 221.540971 58.291527 222.7 61.457143 222.7 
z
" clip-path="url(#p85a9256dcc)" style="fill: #dbeafe; stroke: #2563eb; stroke-width: 1.5; stroke-linejoin: miter"/>
   </g>
   <g id="patch_5">
    <path d="M 61.457143 178.95 
C 64.622759 178.95 67.659145 177.790971 69.897573 175.728175 
C 72.136002 173.665379 73.393714 170.867234 73.393714 167.95 
C 73.393714 165.032766 72.136002 162.234621 69.897573 160.171825 
C 67.659145 158.109029 64.622759 156.95 61.457143 156.95 
C 58.291527 156.95 55.255141 158.109029 53.016712 160.171825 
C 50.778284 162.234621 49.520571 165.032766 49.520571 167.95 
C 49.520571 170.867234 50.778284 173.665379 53.016712 175.728175 
C 55.255141 177.790971 58.291527 178.95 61.457143 178.95 
z
" clip-path="url(#p85a9256dcc)" style="fill: #dbeafe; stroke: #2563eb; stroke-width: 1.5; stroke-linejoin: miter"/>
   </g>
   <g id="patch_6">
    <path d="M 61.457143 135.2 
C 64.622759 135.2 67.659145 134.040971 69.897573 131.978175 
C 72.136002 129.915379 73.393714 127.117234 73.393714 124.2 
C 73.393714 121.282766 72.136002 118.484621 69.897573 116.421825 
C 67.659145 114.359029 64.622759 113.2 61.457143 113.2 
C 58.291527 113.2 55.255141 114.359029 53.016712 116.421825 
C 50.778284 118.484621 49.520571 121.282766 49.520571 124.2 
C 49.520571 127.117234 50.778284 129.915379 53.016712 131.978175 
C 55.255141 134.040971 58.291527 135.2 61.457143 135.2 
z
" clip-path="url(#p85a9256dcc)" style="fill: #dbeafe; stroke: #2563eb; stroke-width: 1.5; stroke-linejoin: miter"/>
   </g>
   <g id="patch_7">
    <path d="M 197.1 300.2 
C 200.265616 300.2 203.302002 299.040971 205.540431 296.978175 
C 207.778859 294.915379 209.036571 292.117234 209.036571 289.2 
C 209.036571 286.282766 207.778859 283.484621 205.540431 281.421825 
C 203.302002 279.359029 200.265616 278.2 197.1 278.2 
C 193.934384 278.2 190.897998 279.359029 188.659569 281.421825 
C 186.421141 283.484621 185.163429 286.282766 185.163429 289.2 
C 185.163429 292.117234 186.421141 294.915379 188.659569 296.978175 
C 190.897998 299.040971 193.934384 300.2 197.1 300.2 
z
" clip-path="url(#p85a9256dcc)" style="fill: #dcfce7; stroke: #16a34a; stroke-width: 1.5; stroke-linejoin: miter"/>
   </g>
   <g id="patch_8">
    <path d="M 197.1 250.2 
C 200.265616 250.2 203.302002 249.040971 205.540431 246.978175 
C 207.778859 244.915379 209.036571 242.117234 209.036571 239.2 
C 209.036571 236.282766 207.778859 233.484621 205.540431 231.421825 
C 203.302002 229.359029 200.265616 228.2 197.1 228.2 
C 193.934384 228.2 190.897998 229.359029 188.659569 231.421825 
C 186.421141 233.484621 185.163429 236.282766 185.163429 239.2 
C 185.163429 242.117234 186.421141 244.915379 188.659569 246.978175 
C 190.897998 249.040971 193.934384 250.2 197.1 250.2 
z
" clip-path="url(#p85a9256dcc)" style="fill: #dcfce7; stroke: #16a34a; stroke-width: 1.5; stroke-linejoin: miter"/>
   </g>
   <g id="patch_9">
    <path d="M 197.1 200.2 
C 200.265616 200.2 203.302002 199.040971 205.540431 196.978175 
C 207.778859 194.915379 209.036571 192.117234 209.036571 189.2 
C 209.036571 186.282766 207.778859 183.484621 205.540431 181.421825 
C 203.302002 179.359029 200.265616 178.2 197.1 178.2 
C 193.934384 178.2 190.897998 179.359029 188.659569 181.421825 
C 186.421141 183.484621 185.163429 186.282766 185.163429 189.2 
C 185.163429 192.117234 186.421141 194.915379 188.659569 196.978175 
C 190.897998 199.040971 193.934384 200.2 197.1 200.2 
z
" clip-path="url(#p85a9256dcc)" style="fill: #dcfce7; stroke: #16a34a; stroke-width: 1.5; stroke-linejoin: miter"/>
   </g>
   <g id="patch_10">
    <path d="M 197.1 150.2 
C 200.265616 150.2 203.302002 149.040971 205.540431 146.978175 
C 207.778859 144.915379 209.036571 142.117234 209.036571 139.2 
C 209.036571 136.282766 207.778859 133.484621 205.540431 131.421825 
C 203.302002 129.359029 200.265616 128.2 197.1 128.2 
C 193.934384 128.2 190.897998 129.359029 188.659569 131.421825 
C 186.421141 133.484621 185.163429 136.282766 185.163429 139.2 
C 185.163429 142.117234 186.421141 144.915379 188.659569 146.978175 
C 190.897998 149.040971 193.934384 150.2 197.1 150.2 
z
" clip-path="url(#p85a9256dcc)" style="fill: #dcfce7; stroke: #16a34a; stroke-width: 1.5; stroke-linejoin: miter"/>
   </g>
   <g id="patch_11">
    <path d="M 332.742857 285.2 
C 335.908473 285.2 338.944859 284.040971 341.183288 281.978175 
C 343.421716 279.915379 344.679429 277.117234 344.679429 274.2 
C 344.679429 271.282766 343.421716 268.484621 341.183288 266.421825 
C 338.944859 264.359029 335.908473 263.2 332.742857 263.2 
C 329.577241 263.2 326.540855 264.359029 324.302427 266.421825 
C 322.063998 268.484621 320.806286 271.282766 320.806286 274.2 
C 320.806286 277.117234 322.063998 279.915379 324.302427 281.978175 
C 326.540855 284.040971 329.577241 285.2 332.742857 285.2 
z
" clip-path="url(#p85a9256dcc)" style="fill: #ffedd5; stroke: #ea580c; stroke-width: 1.5; stroke-linejoin: miter"/>
   </g>
   <g id="patch_12">
    <path d="M 332.742857 222.7 
C 335.908473 222.7 338.944859 221.540971 341.183288 219.478175 
C 343.421716 217.415379 344.679429 214.617234 344.679429 211.7 
C 344.679429 208.782766 343.421716 205.984621 341.183288 203.921825 
C 338.944859 201.859029 335.908473 200.7 332.742857 200.7 
C 329.577241 200.7 326.540855 201.859029 324.302427 203.921825 
C 322.063998 205.984621 320.806286 208.782766 320.806286 211.7 
C 320.806286 214.617234 322.063998 217.415379 324.302427 219.478175 
C 326.540855 221.540971 329.577241 222.7 332.742857 222.7 
z
" clip-path="url(#p85a9256dcc)" style="fill: #ffedd5; stroke: #ea580c; stroke-width: 1.5; stroke-linejoin: miter"/>
   </g>
   <g id="patch_13">
    <path d="M 332.742857 160.2 
C 335.908473 160.2 338.944859 159.040971 341.183288 156.978175 
C 343.421716 154.915379 344.679429 152.117234 344.679429 149.2 
C 344.679429 146.282766 343.421716 143.484621 341.183288 141.421825 
C 338.944859 139.359029 335.908473 138.2 332.742857 138.2 
C 329.577241 138.2 326.540855 139.359029 324.302427 141.421825 
C 322.063998 143.484621 320.806286 146.282766 320.806286 149.2 
C 320.806286 152.117234 322.063998 154.915379 324.302427 156.978175 
C 326.540855 159.040971 329.577241 160.2 332.742857 160.2 
z
" clip-path="url(#p85a9256dcc)" style="fill: #ffedd5; stroke: #ea580c; stroke-width: 1.5; stroke-linejoin: miter"/>
   </g>
   <g id="text_1">
    <!-- Layer 1 -->
    <g style="fill: #475569" transform="translate(44.616596 329.2) scale(0.09 -0.09)">
     <defs>
      <path id="DejaVuSans-4c" d="M 628 4666 
L 1259 4666 
L 1259 531 
L 3531 531 
L 3531 0 
L 628 0 
L 628 4666 
z
" transform="scale(0.015625)"/>
      <path id="DejaVuSans-61" d="M 2194 1759 
Q 1497 1759 1228 1600 
Q 959 1441 959 1056 
Q 959 750 1161 570 
Q 1363 391 1709 391 
Q 2188 391 2477 730 
Q 2766 1069 2766 1631 
L 2766 1759 
L 2194 1759 
z
M 3341 1997 
L 3341 0 
L 2766 0 
L 2766 531 
Q 2569 213 2275 61 
Q 1981 -91 1556 -91 
Q 1019 -91 701 211 
Q 384 513 384 1019 
Q 384 1609 779 1909 
Q 1175 2209 1959 2209 
L 2766 2209 
L 2766 2266 
Q 2766 2663 2505 2880 
Q 2244 3097 1772 3097 
Q 1472 3097 1187 3025 
Q 903 2953 641 2809 
L 641 3341 
Q 956 3463 1253 3523 
Q 1550 3584 1831 3584 
Q 2591 3584 2966 3190 
Q 3341 2797 3341 1997 
z
" transform="scale(0.015625)"/>
      <path id="DejaVuSans-79" d="M 2059 -325 
Q 1816 -950 1584 -1140 
Q 1353 -1331 966 -1331 
L 506 -1331 
L 506 -850 
L 844 -850 
Q 1081 -850 1212 -737 
Q 1344 -625 1503 -206 
L 1606 56 
L 191 3500 
L 800 3500 
L 1894 763 
L 2988 3500 
L 3597 3500 
L 2059 -325 
z
" transform="scale(0.015625)"/>
      <path id="DejaVuSans-65" d="M 3597 1894 
L 3597 1613 
L 953 1613 
Q 991 1019 1311 708 
Q 1631 397 2203 397 
Q 2534 397 2845 478 
Q 3156 559 3463 722 
L 3463 178 
Q 3153 47 2828 -22 
Q 2503 -91 2169 -91 
Q 1331 -91 842 396 
Q 353 884 353 1716 
Q 353 2575 817 3079 
Q 1281 3584 2069 3584 
Q 2775 3584 3186 3129 
Q 3597 2675 3597 1894 
z
M 3022 2063 
Q 3016 2534 2758 2815 
Q 2500 3097 2075 3097 
Q 1594 3097 1305 2825 
Q 1016 2553 972 2059 
L 3022 2063 
z
" transform="scale(0.015625)"/>
      <path id="DejaVuSans-72" d="M 2631 2963 
Q 2534 3019 2420 3045 
Q 2306 3072 2169 3072 
Q 1681 3072 1420 2755 
Q 1159 2438 1159 1844 
L 1159 0 
L 581 0 
L 581 3500 
L 1159 3500 
L 1159 2956 
Q 1341 3275 1631 3429 
Q 1922 3584 2338 3584 
Q 2397 3584 2469 3576 
Q 2541 3569 2628 3553 
L 2631 2963 
z
" transform="scale(0.015625)"/>
      <path id="DejaVuSans-20" transform="scale(0.015625)"/>
      <path id="DejaVuSans-31" d="M 794 531 
L 1825 531 
L 1825 4091 
L 703 3866 
L 703 4441 
L 1819 4666 
L 2450 4666 
L 2450 531 
L 3481 531 
L 3481 0 
L 794 0 
L 794 531 
z
" transform="scale(0.015625)"/>
     </defs>
     <use xlink:href="#DejaVuSans-4c"/>
     <use xlink:href="#DejaVuSans-61" x="55.712891"/>
     <use xlink:href="#DejaVuSans-79" x="116.992188"/>
     <use xlink:href="#DejaVuSans-65" x="176.171875"/>
     <use xlink:href="#DejaVuSans-72" x="237.695312"/>
     <use xlink:href="#DejaVuSans-20" x="278.808594"/>
     <use xlink:href="#DejaVuSans-31" x="310.595703"/>
    </g>
   </g>
   <g id="text_2">
    <!-- Layer 2 -->
    <g style="fill: #475569" transform="translate(180.259453 329.2) scale(0.09 -0.09)">
     <defs>
      <path id="DejaVuSans-32" d="M 1228 531 
L 3431 531 
L 3431 0 
L 469 0 
L 469 531 
Q 828 903 1448 1529 
Q 2069 2156 2228 2338 
Q 2531 2678 2651 2914 
Q 2772 3150 2772 3378 
Q 2772 3750 2511 3984 
Q 2250 4219 1831 4219 
Q 1534 4219 1204 4116 
Q 875 4013 500 3803 
L 500 4441 
Q 881 4594 1212 4672 
Q 1544 4750 1819 4750 
Q 2544 4750 2975 4387 
Q 3406 4025 3406 3419 
Q 3406 3131 3298 2873 
Q 3191 2616 2906 2266 
Q 2828 2175 2409 1742 
Q 1991 1309 1228 531 
z
" transform="scale(0.015625)"/>
     </defs>
     <use xlink:href="#DejaVuSans-4c"/>
     <use xlink:href="#DejaVuSans-61" x="55.712891"/>
     <use xlink:href="#DejaVuSans-79" x="116.992188"/>
     <use xlink:href="#DejaVuSans-65" x="176.171875"/>
     <use xlink:href="#DejaVuSans-72" x="237.695312"/>
     <use xlink:href="#DejaVuSans-20" x="278.808594"/>
     <use xlink:href="#DejaVuSans-32" x="310.595703"/>
    </g>
   </g>
   <g id="text_3">
    <!-- Layer 3 -->
    <g style="fill: #475569" transform="translate(315.90231 329.2) scale(0.09 -0.09)">
     <defs>
      <path id="DejaVuSans-33" d="M 2597 2516 
Q 3050 2419 3304 2112 
Q 3559 1806 3559 1356 
Q 3559 666 3084 287 
Q 2609 -91 1734 -91 
Q 1441 -91 1130 -33 
Q 819 25 488 141 
L 488 750 
Q 750 597 1062 519 
Q 1375 441 1716 441 
Q 2309 441 2620 675 
Q 2931 909 2931 1356 
Q 2931 1769 2642 2001 
Q 2353 2234 1838 2234 
L 1294 2234 
L 1294 2753 
L 1863 2753 
Q 2328 2753 2575 2939 
Q 2822 3125 2822 3475 
Q 2822 3834 2567 4026 
Q 2313 4219 1838 4219 
Q 1578 4219 1281 4162 
Q 984 4106 628 3988 
L 628 4550 
Q 988 4650 1302 4700 
Q 1616 4750 1894 4750 
Q 2613 4750 3031 4423 
Q 3450 4097 3450 3541 
Q 3450 3153 3228 2886 
Q 3006 2619 2597 2516 
z
" transform="scale(0.015625)"/>
     </defs>
     <use xlink:href="#DejaVuSans-4c"/>
     <use xlink:href="#DejaVuSans-61" x="55.712891"/>
     <use xlink:href="#DejaVuSans-79" x="116.992188"/>
     <use xlink:href="#DejaVuSans-65" x="176.171875"/>
     <use xlink:href="#DejaVuSans-72" x="237.695312"/>
     <use xlink:href="#DejaVuSans-20" x="278.808594"/>
     <use xlink:href="#DejaVuSans-33" x="310.595703"/>
    </g>
   </g>
   <g id="text_4">
    <!-- Each neuron fires normally -->
    <g style="fill: #475569" transform="translate(139.769492 69.2) scale(0.085 -0.085)">
     <defs>
      <path id="DejaVuSans-Oblique-45" d="M 1081 4666 
L 4031 4666 
L 3928 4134 
L 1606 4134 
L 1338 2753 
L 3566 2753 
L 3463 2222 
L 1234 2222 
L 909 531 
L 3284 531 
L 3181 0 
L 172 0 
L 1081 4666 
z
" transform="scale(0.015625)"/>
      <path id="DejaVuSans-Oblique-61" d="M 3438 1997 
L 3047 0 
L 2472 0 
L 2578 531 
Q 2325 219 2001 64 
Q 1678 -91 1281 -91 
Q 834 -91 548 182 
Q 263 456 263 884 
Q 263 1497 752 1853 
Q 1241 2209 2100 2209 
L 2900 2209 
L 2931 2363 
Q 2938 2388 2941 2417 
Q 2944 2447 2944 2509 
Q 2944 2788 2717 2942 
Q 2491 3097 2081 3097 
Q 1800 3097 1504 3025 
Q 1209 2953 897 2809 
L 997 3341 
Q 1322 3463 1633 3523 
Q 1944 3584 2234 3584 
Q 2853 3584 3176 3315 
Q 3500 3047 3500 2534 
Q 3500 2431 3484 2292 
Q 3469 2153 3438 1997 
z
M 2816 1759 
L 2241 1759 
Q 1534 1759 1195 1570 
Q 856 1381 856 984 
Q 856 709 1029 553 
Q 1203 397 1509 397 
Q 1978 397 2328 733 
Q 2678 1069 2791 1631 
L 2816 1759 
z
" transform="scale(0.015625)"/>
      <path id="DejaVuSans-Oblique-63" d="M 3431 3366 
L 3316 2797 
Q 3109 2947 2876 3022 
Q 2644 3097 2394 3097 
Q 2119 3097 1870 3000 
Q 1622 2903 1453 2725 
Q 1184 2453 1037 2087 
Q 891 1722 891 1331 
Q 891 859 1127 628 
Q 1363 397 1844 397 
Q 2081 397 2348 469 
Q 2616 541 2906 684 
L 2797 116 
Q 2547 13 2283 -39 
Q 2019 -91 1741 -91 
Q 1044 -91 669 257 
Q 294 606 294 1253 
Q 294 1797 489 2255 
Q 684 2713 1069 3078 
Q 1331 3328 1684 3456 
Q 2038 3584 2456 3584 
Q 2700 3584 2940 3529 
Q 3181 3475 3431 3366 
z
" transform="scale(0.015625)"/>
      <path id="DejaVuSans-Oblique-68" d="M 3566 2113 
L 3156 0 
L 2578 0 
L 2988 2091 
Q 3016 2238 3031 2350 
Q 3047 2463 3047 2528 
Q 3047 2791 2881 2937 
Q 2716 3084 2419 3084 
Q 1956 3084 1617 2771 
Q 1278 2459 1178 1941 
L 800 0 
L 225 0 
L 1172 4863 
L 1747 4863 
L 1375 2950 
Q 1594 3244 1934 3414 
Q 2275 3584 2650 3584 
Q 3113 3584 3367 3334 
Q 3622 3084 3622 2631 
Q 3622 2519 3608 2391 
Q 3594 2263 3566 2113 
z
" transform="scale(0.015625)"/>
      <path id="DejaVuSans-Oblique-20" transform="scale(0.015625)"/>
      <path id="DejaVuSans-Oblique-6e" d="M 3566 2113 
L 3156 0 
L 2578 0 
L 2988 2091 
Q 3016 2238 3031 2350 
Q 3047 2463 3047 2528 
Q 3047 2791 2881 2937 
Q 2716 3084 2419 3084 
Q 1956 3084 1622 2776 
Q 1288 2469 1184 1941 
L 800 0 
L 225 0 
L 903 3500 
L 1478 3500 
L 1363 2950 
Q 1603 3253 1940 3418 
Q 2278 3584 2650 3584 
Q 3113 3584 3367 3334 
Q 3622 3084 3622 2631 
Q 3622 2519 3608 2391 
Q 3594 2263 3566 2113 
z
" transform="scale(0.015625)"/>
      <path id="DejaVuSans-Oblique-65" d="M 3078 2063 
Q 3088 2113 3092 2166 
Q 3097 2219 3097 2272 
Q 3097 2653 2873 2875 
Q 2650 3097 2266 3097 
Q 1838 3097 1509 2826 
Q 1181 2556 1013 2059 
L 3078 2063 
z
M 3578 1613 
L 903 1613 
Q 884 1494 878 1425 
Q 872 1356 872 1306 
Q 872 872 1139 634 
Q 1406 397 1894 397 
Q 2269 397 2603 481 
Q 2938 566 3225 728 
L 3116 159 
Q 2806 34 2476 -28 
Q 2147 -91 1806 -91 
Q 1078 -91 686 257 
Q 294 606 294 1247 
Q 294 1794 489 2264 
Q 684 2734 1063 3103 
Q 1306 3334 1642 3459 
Q 1978 3584 2356 3584 
Q 2950 3584 3301 3228 
Q 3653 2872 3653 2272 
Q 3653 2128 3634 1964 
Q 3616 1800 3578 1613 
z
" transform="scale(0.015625)"/>
      <path id="DejaVuSans-Oblique-75" d="M 428 1388 
L 838 3500 
L 1416 3500 
L 1006 1409 
Q 975 1256 961 1147 
Q 947 1038 947 966 
Q 947 700 1109 554 
Q 1272 409 1569 409 
Q 2031 409 2368 721 
Q 2706 1034 2809 1563 
L 3194 3500 
L 3769 3500 
L 3091 0 
L 2516 0 
L 2631 550 
Q 2388 244 2052 76 
Q 1716 -91 1338 -91 
Q 878 -91 622 161 
Q 366 413 366 863 
Q 366 956 381 1097 
Q 397 1238 428 1388 
z
" transform="scale(0.015625)"/>
      <path id="DejaVuSans-Oblique-72" d="M 2853 2969 
Q 2766 3016 2653 3041 
Q 2541 3066 2413 3066 
Q 1953 3066 1609 2717 
Q 1266 2369 1153 1784 
L 800 0 
L 225 0 
L 909 3500 
L 1484 3500 
L 1375 2956 
Q 1603 3259 1920 3421 
Q 2238 3584 2597 3584 
Q 2691 3584 2781 3573 
Q 2872 3563 2963 3538 
L 2853 2969 
z
" transform="scale(0.015625)"/>
      <path id="DejaVuSans-Oblique-6f" d="M 1625 -91 
Q 1009 -91 651 289 
Q 294 669 294 1325 
Q 294 1706 417 2101 
Q 541 2497 738 2766 
Q 1047 3184 1428 3384 
Q 1809 3584 2291 3584 
Q 2888 3584 3255 3212 
Q 3622 2841 3622 2241 
Q 3622 1825 3500 1412 
Q 3378 1000 3181 728 
Q 2875 309 2494 109 
Q 2113 -91 1625 -91 
z
M 891 1344 
Q 891 869 1089 633 
Q 1288 397 1691 397 
Q 2269 397 2648 901 
Q 3028 1406 3028 2181 
Q 3028 2634 2825 2865 
Q 2622 3097 2228 3097 
Q 1903 3097 1650 2945 
Q 1397 2794 1197 2484 
Q 1050 2253 970 1956 
Q 891 1659 891 1344 
z
" transform="scale(0.015625)"/>
      <path id="DejaVuSans-Oblique-66" d="M 3059 4863 
L 2969 4384 
L 2419 4384 
Q 2106 4384 1964 4261 
Q 1822 4138 1753 3809 
L 1691 3500 
L 2638 3500 
L 2553 3053 
L 1606 3053 
L 1013 0 
L 434 0 
L 1031 3053 
L 481 3053 
L 563 3500 
L 1113 3500 
L 1159 3744 
Q 1278 4363 1576 4613 
Q 1875 4863 2516 4863 
L 3059 4863 
z
" transform="scale(0.015625)"/>
      <path id="DejaVuSans-Oblique-69" d="M 1172 4863 
L 1747 4863 
L 1606 4134 
L 1031 4134 
L 1172 4863 
z
M 909 3500 
L 1484 3500 
L 800 0 
L 225 0 
L 909 3500 
z
" transform="scale(0.015625)"/>
      <path id="DejaVuSans-Oblique-73" d="M 3200 3397 
L 3091 2853 
Q 2863 2978 2609 3040 
Q 2356 3103 2088 3103 
Q 1634 3103 1373 2948 
Q 1113 2794 1113 2528 
Q 1113 2219 1719 2053 
Q 1766 2041 1788 2034 
L 1972 1978 
Q 2547 1819 2739 1644 
Q 2931 1469 2931 1166 
Q 2931 609 2489 259 
Q 2047 -91 1331 -91 
Q 1053 -91 747 -37 
Q 441 16 72 128 
L 184 722 
Q 500 559 806 475 
Q 1113 391 1394 391 
Q 1816 391 2080 572 
Q 2344 753 2344 1031 
Q 2344 1331 1650 1516 
L 1591 1531 
L 1394 1581 
Q 956 1697 753 1886 
Q 550 2075 550 2369 
Q 550 2928 970 3256 
Q 1391 3584 2113 3584 
Q 2397 3584 2667 3537 
Q 2938 3491 3200 3397 
z
" transform="scale(0.015625)"/>
      <path id="DejaVuSans-Oblique-6d" d="M 5747 2113 
L 5338 0 
L 4763 0 
L 5166 2094 
Q 5191 2228 5203 2325 
Q 5216 2422 5216 2491 
Q 5216 2772 5059 2928 
Q 4903 3084 4622 3084 
Q 4203 3084 3875 2770 
Q 3547 2456 3450 1953 
L 3066 0 
L 2491 0 
L 2900 2094 
Q 2925 2209 2937 2307 
Q 2950 2406 2950 2484 
Q 2950 2769 2794 2926 
Q 2638 3084 2363 3084 
Q 1938 3084 1609 2770 
Q 1281 2456 1184 1953 
L 800 0 
L 225 0 
L 909 3500 
L 1484 3500 
L 1375 2956 
Q 1609 3263 1923 3423 
Q 2238 3584 2597 3584 
Q 2978 3584 3223 3384 
Q 3469 3184 3519 2828 
Q 3781 3197 4126 3390 
Q 4472 3584 4856 3584 
Q 5306 3584 5551 3325 
Q 5797 3066 5797 2591 
Q 5797 2488 5784 2364 
Q 5772 2241 5747 2113 
z
" transform="scale(0.015625)"/>
      <path id="DejaVuSans-Oblique-6c" d="M 1172 4863 
L 1747 4863 
L 800 0 
L 225 0 
L 1172 4863 
z
" transform="scale(0.015625)"/>
      <path id="DejaVuSans-Oblique-79" d="M 1588 -325 
Q 1188 -997 936 -1164 
Q 684 -1331 294 -1331 
L -159 -1331 
L -63 -850 
L 269 -850 
Q 509 -850 678 -719 
Q 847 -588 1056 -206 
L 1234 128 
L 459 3500 
L 1069 3500 
L 1650 819 
L 3256 3500 
L 3859 3500 
L 1588 -325 
z
" transform="scale(0.015625)"/>
     </defs>
     <use xlink:href="#DejaVuSans-Oblique-45"/>
     <use xlink:href="#DejaVuSans-Oblique-61" x="63.183594"/>
     <use xlink:href="#DejaVuSans-Oblique-63" x="124.462891"/>
     <use xlink:href="#DejaVuSans-Oblique-68" x="179.443359"/>
     <use xlink:href="#DejaVuSans-Oblique-20" x="242.822266"/>
     <use xlink:href="#DejaVuSans-Oblique-6e" x="274.609375"/>
     <use xlink:href="#DejaVuSans-Oblique-65" x="337.988281"/>
     <use xlink:href="#DejaVuSans-Oblique-75" x="399.511719"/>
     <use xlink:href="#DejaVuSans-Oblique-72" x="462.890625"/>
     <use xlink:href="#DejaVuSans-Oblique-6f" x="504.003906"/>
     <use xlink:href="#DejaVuSans-Oblique-6e" x="565.185547"/>
     <use xlink:href="#DejaVuSans-Oblique-20" x="628.564453"/>
     <use xlink:href="#DejaVuSans-Oblique-66" x="660.351562"/>
     <use xlink:href="#DejaVuSans-Oblique-69" x="695.556641"/>
     <use xlink:href="#DejaVuSans-Oblique-72" x="723.339844"/>
     <use xlink:href="#DejaVuSans-Oblique-65" x="764.453125"/>
     <use xlink:href="#DejaVuSans-Oblique-73" x="825.976562"/>
     <use xlink:href="#DejaVuSans-Oblique-20" x="878.076172"/>
     <use xlink:href="#DejaVuSans-Oblique-6e" x="909.863281"/>
     <use xlink:href="#DejaVuSans-Oblique-6f" x="973.242188"/>
     <use xlink:href="#DejaVuSans-Oblique-72" x="1034.423828"/>
     <use xlink:href="#DejaVuSans-Oblique-6d" x="1075.537109"/>
     <use xlink:href="#DejaVuSans-Oblique-61" x="1172.949219"/>
     <use xlink:href="#DejaVuSans-Oblique-6c" x="1234.228516"/>
     <use xlink:href="#DejaVuSans-Oblique-6c" x="1262.011719"/>
     <use xlink:href="#DejaVuSans-Oblique-79" x="1289.794922"/>
    </g>
   </g>
   <g id="text_5">
    <!-- Without Dropout -->
    <g style="fill: #0f172a" transform="translate(145.050234 43.2) scale(0.11 -0.11)">
     <defs>
      <path id="DejaVuSans-Bold-57" d="M 191 4666 
L 1344 4666 
L 2150 1275 
L 2950 4666 
L 4109 4666 
L 4909 1275 
L 5716 4666 
L 6859 4666 
L 5759 0 
L 4372 0 
L 3525 3547 
L 2688 0 
L 1300 0 
L 191 4666 
z
" transform="scale(0.015625)"/>
      <path id="DejaVuSans-Bold-69" d="M 538 3500 
L 1656 3500 
L 1656 0 
L 538 0 
L 538 3500 
z
M 538 4863 
L 1656 4863 
L 1656 3950 
L 538 3950 
L 538 4863 
z
" transform="scale(0.015625)"/>
      <path id="DejaVuSans-Bold-74" d="M 1759 4494 
L 1759 3500 
L 2913 3500 
L 2913 2700 
L 1759 2700 
L 1759 1216 
Q 1759 972 1856 886 
Q 1953 800 2241 800 
L 2816 800 
L 2816 0 
L 1856 0 
Q 1194 0 917 276 
Q 641 553 641 1216 
L 641 2700 
L 84 2700 
L 84 3500 
L 641 3500 
L 641 4494 
L 1759 4494 
z
" transform="scale(0.015625)"/>
      <path id="DejaVuSans-Bold-68" d="M 4056 2131 
L 4056 0 
L 2931 0 
L 2931 347 
L 2931 1625 
Q 2931 2084 2911 2256 
Q 2891 2428 2841 2509 
Q 2775 2619 2662 2680 
Q 2550 2741 2406 2741 
Q 2056 2741 1856 2470 
Q 1656 2200 1656 1722 
L 1656 0 
L 538 0 
L 538 4863 
L 1656 4863 
L 1656 2988 
Q 1909 3294 2193 3439 
Q 2478 3584 2822 3584 
Q 3428 3584 3742 3212 
Q 4056 2841 4056 2131 
z
" transform="scale(0.015625)"/>
      <path id="DejaVuSans-Bold-6f" d="M 2203 2784 
Q 1831 2784 1636 2517 
Q 1441 2250 1441 1747 
Q 1441 1244 1636 976 
Q 1831 709 2203 709 
Q 2569 709 2762 976 
Q 2956 1244 2956 1747 
Q 2956 2250 2762 2517 
Q 2569 2784 2203 2784 
z
M 2203 3584 
Q 3106 3584 3614 3096 
Q 4122 2609 4122 1747 
Q 4122 884 3614 396 
Q 3106 -91 2203 -91 
Q 1297 -91 786 396 
Q 275 884 275 1747 
Q 275 2609 786 3096 
Q 1297 3584 2203 3584 
z
" transform="scale(0.015625)"/>
      <path id="DejaVuSans-Bold-75" d="M 500 1363 
L 500 3500 
L 1625 3500 
L 1625 3150 
Q 1625 2866 1622 2436 
Q 1619 2006 1619 1863 
Q 1619 1441 1641 1255 
Q 1663 1069 1716 984 
Q 1784 875 1895 815 
Q 2006 756 2150 756 
Q 2500 756 2700 1025 
Q 2900 1294 2900 1772 
L 2900 3500 
L 4019 3500 
L 4019 0 
L 2900 0 
L 2900 506 
Q 2647 200 2364 54 
Q 2081 -91 1741 -91 
Q 1134 -91 817 281 
Q 500 653 500 1363 
z
" transform="scale(0.015625)"/>
      <path id="DejaVuSans-Bold-20" transform="scale(0.015625)"/>
      <path id="DejaVuSans-Bold-44" d="M 1791 3756 
L 1791 909 
L 2222 909 
Q 2959 909 3348 1275 
Q 3738 1641 3738 2338 
Q 3738 3031 3350 3393 
Q 2963 3756 2222 3756 
L 1791 3756 
z
M 588 4666 
L 1856 4666 
Q 2919 4666 3439 4514 
Q 3959 4363 4331 4000 
Q 4659 3684 4818 3271 
Q 4978 2859 4978 2338 
Q 4978 1809 4818 1395 
Q 4659 981 4331 666 
Q 3956 303 3431 151 
Q 2906 0 1856 0 
L 588 0 
L 588 4666 
z
" transform="scale(0.015625)"/>
      <path id="DejaVuSans-Bold-72" d="M 3138 2547 
Q 2991 2616 2845 2648 
Q 2700 2681 2553 2681 
Q 2122 2681 1889 2404 
Q 1656 2128 1656 1613 
L 1656 0 
L 538 0 
L 538 3500 
L 1656 3500 
L 1656 2925 
Q 1872 3269 2151 3426 
Q 2431 3584 2822 3584 
Q 2878 3584 2943 3579 
Q 3009 3575 3134 3559 
L 3138 2547 
z
" transform="scale(0.015625)"/>
      <path id="DejaVuSans-Bold-70" d="M 1656 506 
L 1656 -1331 
L 538 -1331 
L 538 3500 
L 1656 3500 
L 1656 2988 
Q 1888 3294 2169 3439 
Q 2450 3584 2816 3584 
Q 3463 3584 3878 3070 
Q 4294 2556 4294 1747 
Q 4294 938 3878 423 
Q 3463 -91 2816 -91 
Q 2450 -91 2169 54 
Q 1888 200 1656 506 
z
M 2400 2772 
Q 2041 2772 1848 2508 
Q 1656 2244 1656 1747 
Q 1656 1250 1848 986 
Q 2041 722 2400 722 
Q 2759 722 2948 984 
Q 3138 1247 3138 1747 
Q 3138 2247 2948 2509 
Q 2759 2772 2400 2772 
z
" transform="scale(0.015625)"/>
     </defs>
     <use xlink:href="#DejaVuSans-Bold-57"/>
     <use xlink:href="#DejaVuSans-Bold-69" x="110.302734"/>
     <use xlink:href="#DejaVuSans-Bold-74" x="144.580078"/>
     <use xlink:href="#DejaVuSans-Bold-68" x="192.382812"/>
     <use xlink:href="#DejaVuSans-Bold-6f" x="263.574219"/>
     <use xlink:href="#DejaVuSans-Bold-75" x="332.275391"/>
     <use xlink:href="#DejaVuSans-Bold-74" x="403.466797"/>
     <use xlink:href="#DejaVuSans-Bold-20" x="451.269531"/>
     <use xlink:href="#DejaVuSans-Bold-44" x="486.083984"/>
     <use xlink:href="#DejaVuSans-Bold-72" x="569.091797"/>
     <use xlink:href="#DejaVuSans-Bold-6f" x="618.408203"/>
     <use xlink:href="#DejaVuSans-Bold-70" x="687.109375"/>
     <use xlink:href="#DejaVuSans-Bold-6f" x="758.691406"/>
     <use xlink:href="#DejaVuSans-Bold-75" x="827.392578"/>
     <use xlink:href="#DejaVuSans-Bold-74" x="898.583984"/>
    </g>
   </g>
  </g>
  <g id="axes_2">
   <g id="line2d_33">
    <path d="M 463.993714 299.2 
L 575.763429 289.2 
" clip-path="url(#pc0ff173897)" style="fill: none; stroke: #cbd5e1; stroke-opacity: 0.2; stroke-width: 0.6; stroke-linecap: square"/>
   </g>
   <g id="line2d_34">
    <path d="M 463.993714 299.2 
L 575.763429 239.2 
" clip-path="url(#pc0ff173897)" style="fill: none; stroke: #cbd5e1; stroke-opacity: 0.08; stroke-width: 0.6; stroke-linecap: square"/>
   </g>
   <g id="line2d_35">
    <path d="M 463.993714 299.2 
L 575.763429 189.2 
" clip-path="url(#pc0ff173897)" style="fill: none; stroke: #cbd5e1; stroke-opacity: 0.2; stroke-width: 0.6; stroke-linecap: square"/>
   </g>
   <g id="line2d_36">
    <path d="M 463.993714 299.2 
L 575.763429 139.2 
" clip-path="url(#pc0ff173897)" style="fill: none; stroke: #cbd5e1; stroke-opacity: 0.08; stroke-width: 0.6; stroke-linecap: square"/>
   </g>
   <g id="line2d_37">
    <path d="M 463.993714 255.45 
L 575.763429 289.2 
" clip-path="url(#pc0ff173897)" style="fill: none; stroke: #cbd5e1; stroke-opacity: 0.2; stroke-width: 0.6; stroke-linecap: square"/>
   </g>
   <g id="line2d_38">
    <path d="M 463.993714 255.45 
L 575.763429 239.2 
" clip-path="url(#pc0ff173897)" style="fill: none; stroke: #cbd5e1; stroke-opacity: 0.08; stroke-width: 0.6; stroke-linecap: square"/>
   </g>
   <g id="line2d_39">
    <path d="M 463.993714 255.45 
L 575.763429 189.2 
" clip-path="url(#pc0ff173897)" style="fill: none; stroke: #cbd5e1; stroke-opacity: 0.2; stroke-width: 0.6; stroke-linecap: square"/>
   </g>
   <g id="line2d_40">
    <path d="M 463.993714 255.45 
L 575.763429 139.2 
" clip-path="url(#pc0ff173897)" style="fill: none; stroke: #cbd5e1; stroke-opacity: 0.08; stroke-width: 0.6; stroke-linecap: square"/>
   </g>
   <g id="line2d_41">
    <path d="M 463.993714 211.7 
L 575.763429 289.2 
" clip-path="url(#pc0ff173897)" style="fill: none; stroke: #cbd5e1; stroke-opacity: 0.2; stroke-width: 0.6; stroke-linecap: square"/>
   </g>
   <g id="line2d_42">
    <path d="M 463.993714 211.7 
L 575.763429 239.2 
" clip-path="url(#pc0ff173897)" style="fill: none; stroke: #cbd5e1; stroke-opacity: 0.08; stroke-width: 0.6; stroke-linecap: square"/>
   </g>
   <g id="line2d_43">
    <path d="M 463.993714 211.7 
L 575.763429 189.2 
" clip-path="url(#pc0ff173897)" style="fill: none; stroke: #cbd5e1; stroke-opacity: 0.2; stroke-width: 0.6; stroke-linecap: square"/>
   </g>
   <g id="line2d_44">
    <path d="M 463.993714 211.7 
L 575.763429 139.2 
" clip-path="url(#pc0ff173897)" style="fill: none; stroke: #cbd5e1; stroke-opacity: 0.08; stroke-width: 0.6; stroke-linecap: square"/>
   </g>
   <g id="line2d_45">
    <path d="M 463.993714 167.95 
L 575.763429 289.2 
" clip-path="url(#pc0ff173897)" style="fill: none; stroke: #cbd5e1; stroke-opacity: 0.2; stroke-width: 0.6; stroke-linecap: square"/>
   </g>
   <g id="line2d_46">
    <path d="M 463.993714 167.95 
L 575.763429 239.2 
" clip-path="url(#pc0ff173897)" style="fill: none; stroke: #cbd5e1; stroke-opacity: 0.08; stroke-width: 0.6; stroke-linecap: square"/>
   </g>
   <g id="line2d_47">
    <path d="M 463.993714 167.95 
L 575.763429 189.2 
" clip-path="url(#pc0ff173897)" style="fill: none; stroke: #cbd5e1; stroke-opacity: 0.2; stroke-width: 0.6; stroke-linecap: square"/>
   </g>
   <g id="line2d_48">
    <path d="M 463.993714 167.95 
L 575.763429 139.2 
" clip-path="url(#pc0ff173897)" style="fill: none; stroke: #cbd5e1; stroke-opacity: 0.08; stroke-width: 0.6; stroke-linecap: square"/>
   </g>
   <g id="line2d_49">
    <path d="M 463.993714 124.2 
L 575.763429 289.2 
" clip-path="url(#pc0ff173897)" style="fill: none; stroke: #cbd5e1; stroke-opacity: 0.2; stroke-width: 0.6; stroke-linecap: square"/>
   </g>
   <g id="line2d_50">
    <path d="M 463.993714 124.2 
L 575.763429 239.2 
" clip-path="url(#pc0ff173897)" style="fill: none; stroke: #cbd5e1; stroke-opacity: 0.08; stroke-width: 0.6; stroke-linecap: square"/>
   </g>
   <g id="line2d_51">
    <path d="M 463.993714 124.2 
L 575.763429 189.2 
" clip-path="url(#pc0ff173897)" style="fill: none; stroke: #cbd5e1; stroke-opacity: 0.2; stroke-width: 0.6; stroke-linecap: square"/>
   </g>
   <g id="line2d_52">
    <path d="M 463.993714 124.2 
L 575.763429 139.2 
" clip-path="url(#pc0ff173897)" style="fill: none; stroke: #cbd5e1; stroke-opacity: 0.08; stroke-width: 0.6; stroke-linecap: square"/>
   </g>
   <g id="line2d_53">
    <path d="M 599.636571 289.2 
L 711.406286 274.2 
" clip-path="url(#pc0ff173897)" style="fill: none; stroke: #cbd5e1; stroke-opacity: 0.2; stroke-width: 0.6; stroke-linecap: square"/>
   </g>
   <g id="line2d_54">
    <path d="M 599.636571 289.2 
L 711.406286 211.7 
" clip-path="url(#pc0ff173897)" style="fill: none; stroke: #cbd5e1; stroke-opacity: 0.2; stroke-width: 0.6; stroke-linecap: square"/>
   </g>
   <g id="line2d_55">
    <path d="M 599.636571 289.2 
L 711.406286 149.2 
" clip-path="url(#pc0ff173897)" style="fill: none; stroke: #cbd5e1; stroke-opacity: 0.2; stroke-width: 0.6; stroke-linecap: square"/>
   </g>
   <g id="line2d_56">
    <path d="M 599.636571 239.2 
L 711.406286 274.2 
" clip-path="url(#pc0ff173897)" style="fill: none; stroke: #cbd5e1; stroke-opacity: 0.05; stroke-width: 0.6; stroke-linecap: square"/>
   </g>
   <g id="line2d_57">
    <path d="M 599.636571 239.2 
L 711.406286 211.7 
" clip-path="url(#pc0ff173897)" style="fill: none; stroke: #cbd5e1; stroke-opacity: 0.05; stroke-width: 0.6; stroke-linecap: square"/>
   </g>
   <g id="line2d_58">
    <path d="M 599.636571 239.2 
L 711.406286 149.2 
" clip-path="url(#pc0ff173897)" style="fill: none; stroke: #cbd5e1; stroke-opacity: 0.05; stroke-width: 0.6; stroke-linecap: square"/>
   </g>
   <g id="line2d_59">
    <path d="M 599.636571 189.2 
L 711.406286 274.2 
" clip-path="url(#pc0ff173897)" style="fill: none; stroke: #cbd5e1; stroke-opacity: 0.2; stroke-width: 0.6; stroke-linecap: square"/>
   </g>
   <g id="line2d_60">
    <path d="M 599.636571 189.2 
L 711.406286 211.7 
" clip-path="url(#pc0ff173897)" style="fill: none; stroke: #cbd5e1; stroke-opacity: 0.2; stroke-width: 0.6; stroke-linecap: square"/>
   </g>
   <g id="line2d_61">
    <path d="M 599.636571 189.2 
L 711.406286 149.2 
" clip-path="url(#pc0ff173897)" style="fill: none; stroke: #cbd5e1; stroke-opacity: 0.2; stroke-width: 0.6; stroke-linecap: square"/>
   </g>
   <g id="line2d_62">
    <path d="M 599.636571 139.2 
L 711.406286 274.2 
" clip-path="url(#pc0ff173897)" style="fill: none; stroke: #cbd5e1; stroke-opacity: 0.05; stroke-width: 0.6; stroke-linecap: square"/>
   </g>
   <g id="line2d_63">
    <path d="M 599.636571 139.2 
L 711.406286 211.7 
" clip-path="url(#pc0ff173897)" style="fill: none; stroke: #cbd5e1; stroke-opacity: 0.05; stroke-width: 0.6; stroke-linecap: square"/>
   </g>
   <g id="line2d_64">
    <path d="M 599.636571 139.2 
L 711.406286 149.2 
" clip-path="url(#pc0ff173897)" style="fill: none; stroke: #cbd5e1; stroke-opacity: 0.05; stroke-width: 0.6; stroke-linecap: square"/>
   </g>
   <g id="patch_14">
    <path d="M 452.057143 310.2 
C 455.222759 310.2 458.259145 309.040971 460.497573 306.978175 
C 462.736002 304.915379 463.993714 302.117234 463.993714 299.2 
C 463.993714 296.282766 462.736002 293.484621 460.497573 291.421825 
C 458.259145 289.359029 455.222759 288.2 452.057143 288.2 
C 448.891527 288.2 445.855141 289.359029 443.616712 291.421825 
C 441.378284 293.484621 440.120571 296.282766 440.120571 299.2 
C 440.120571 302.117234 441.378284 304.915379 443.616712 306.978175 
C 445.855141 309.040971 448.891527 310.2 452.057143 310.2 
z
" clip-path="url(#pc0ff173897)" style="fill: #dbeafe; stroke: #2563eb; stroke-width: 1.5; stroke-linejoin: miter"/>
   </g>
   <g id="patch_15">
    <path d="M 452.057143 266.45 
C 455.222759 266.45 458.259145 265.290971 460.497573 263.228175 
C 462.736002 261.165379 463.993714 258.367234 463.993714 255.45 
C 463.993714 252.532766 462.736002 249.734621 460.497573 247.671825 
C 458.259145 245.609029 455.222759 244.45 452.057143 244.45 
C 448.891527 244.45 445.855141 245.609029 443.616712 247.671825 
C 441.378284 249.734621 440.120571 252.532766 440.120571 255.45 
C 440.120571 258.367234 441.378284 261.165379 443.616712 263.228175 
C 445.855141 265.290971 448.891527 266.45 452.057143 266.45 
z
" clip-path="url(#pc0ff173897)" style="fill: #dbeafe; stroke: #2563eb; stroke-width: 1.5; stroke-linejoin: miter"/>
   </g>
   <g id="patch_16">
    <path d="M 452.057143 222.7 
C 455.222759 222.7 458.259145 221.540971 460.497573 219.478175 
C 462.736002 217.415379 463.993714 214.617234 463.993714 211.7 
C 463.993714 208.782766 462.736002 205.984621 460.497573 203.921825 
C 458.259145 201.859029 455.222759 200.7 452.057143 200.7 
C 448.891527 200.7 445.855141 201.859029 443.616712 203.921825 
C 441.378284 205.984621 440.120571 208.782766 440.120571 211.7 
C 440.120571 214.617234 441.378284 217.415379 443.616712 219.478175 
C 445.855141 221.540971 448.891527 222.7 452.057143 222.7 
z
" clip-path="url(#pc0ff173897)" style="fill: #dbeafe; stroke: #2563eb; stroke-width: 1.5; stroke-linejoin: miter"/>
   </g>
   <g id="patch_17">
    <path d="M 452.057143 178.95 
C 455.222759 178.95 458.259145 177.790971 460.497573 175.728175 
C 462.736002 173.665379 463.993714 170.867234 463.993714 167.95 
C 463.993714 165.032766 462.736002 162.234621 460.497573 160.171825 
C 458.259145 158.109029 455.222759 156.95 452.057143 156.95 
C 448.891527 156.95 445.855141 158.109029 443.616712 160.171825 
C 441.378284 162.234621 440.120571 165.032766 440.120571 167.95 
C 440.120571 170.867234 441.378284 173.665379 443.616712 175.728175 
C 445.855141 177.790971 448.891527 178.95 452.057143 178.95 
z
" clip-path="url(#pc0ff173897)" style="fill: #dbeafe; stroke: #2563eb; stroke-width: 1.5; stroke-linejoin: miter"/>
   </g>
   <g id="patch_18">
    <path d="M 452.057143 135.2 
C 455.222759 135.2 458.259145 134.040971 460.497573 131.978175 
C 462.736002 129.915379 463.993714 127.117234 463.993714 124.2 
C 463.993714 121.282766 462.736002 118.484621 460.497573 116.421825 
C 458.259145 114.359029 455.222759 113.2 452.057143 113.2 
C 448.891527 113.2 445.855141 114.359029 443.616712 116.421825 
C 441.378284 118.484621 440.120571 121.282766 440.120571 124.2 
C 440.120571 127.117234 441.378284 129.915379 443.616712 131.978175 
C 445.855141 134.040971 448.891527 135.2 452.057143 135.2 
z
" clip-path="url(#pc0ff173897)" style="fill: #dbeafe; stroke: #2563eb; stroke-width: 1.5; stroke-linejoin: miter"/>
   </g>
   <g id="patch_19">
    <path d="M 587.7 300.2 
C 590.865616 300.2 593.902002 299.040971 596.140431 296.978175 
C 598.378859 294.915379 599.636571 292.117234 599.636571 289.2 
C 599.636571 286.282766 598.378859 283.484621 596.140431 281.421825 
C 593.902002 279.359029 590.865616 278.2 587.7 278.2 
C 584.534384 278.2 581.497998 279.359029 579.259569 281.421825 
C 577.021141 283.484621 575.763429 286.282766 575.763429 289.2 
C 575.763429 292.117234 577.021141 294.915379 579.259569 296.978175 
C 581.497998 299.040971 584.534384 300.2 587.7 300.2 
z
" clip-path="url(#pc0ff173897)" style="fill: #dcfce7; stroke: #16a34a; stroke-width: 1.5; stroke-linejoin: miter"/>
   </g>
   <g id="patch_20">
    <path d="M 587.7 250.2 
C 590.865616 250.2 593.902002 249.040971 596.140431 246.978175 
C 598.378859 244.915379 599.636571 242.117234 599.636571 239.2 
C 599.636571 236.282766 598.378859 233.484621 596.140431 231.421825 
C 593.902002 229.359029 590.865616 228.2 587.7 228.2 
C 584.534384 228.2 581.497998 229.359029 579.259569 231.421825 
C 577.021141 233.484621 575.763429 236.282766 575.763429 239.2 
C 575.763429 242.117234 577.021141 244.915379 579.259569 246.978175 
C 581.497998 249.040971 584.534384 250.2 587.7 250.2 
z
" clip-path="url(#pc0ff173897)" style="fill: #f3f4f6; opacity: 0.25; stroke: #cbd5e1; stroke-width: 1.5; stroke-linejoin: miter"/>
   </g>
   <g id="patch_21">
    <path d="M 587.7 200.2 
C 590.865616 200.2 593.902002 199.040971 596.140431 196.978175 
C 598.378859 194.915379 599.636571 192.117234 599.636571 189.2 
C 599.636571 186.282766 598.378859 183.484621 596.140431 181.421825 
C 593.902002 179.359029 590.865616 178.2 587.7 178.2 
C 584.534384 178.2 581.497998 179.359029 579.259569 181.421825 
C 577.021141 183.484621 575.763429 186.282766 575.763429 189.2 
C 575.763429 192.117234 577.021141 194.915379 579.259569 196.978175 
C 581.497998 199.040971 584.534384 200.2 587.7 200.2 
z
" clip-path="url(#pc0ff173897)" style="fill: #dcfce7; stroke: #16a34a; stroke-width: 1.5; stroke-linejoin: miter"/>
   </g>
   <g id="patch_22">
    <path d="M 587.7 150.2 
C 590.865616 150.2 593.902002 149.040971 596.140431 146.978175 
C 598.378859 144.915379 599.636571 142.117234 599.636571 139.2 
C 599.636571 136.282766 598.378859 133.484621 596.140431 131.421825 
C 593.902002 129.359029 590.865616 128.2 587.7 128.2 
C 584.534384 128.2 581.497998 129.359029 579.259569 131.421825 
C 577.021141 133.484621 575.763429 136.282766 575.763429 139.2 
C 575.763429 142.117234 577.021141 144.915379 579.259569 146.978175 
C 581.497998 149.040971 584.534384 150.2 587.7 150.2 
z
" clip-path="url(#pc0ff173897)" style="fill: #f3f4f6; opacity: 0.25; stroke: #cbd5e1; stroke-width: 1.5; stroke-linejoin: miter"/>
   </g>
   <g id="patch_23">
    <path d="M 723.342857 285.2 
C 726.508473 285.2 729.544859 284.040971 731.783288 281.978175 
C 734.021716 279.915379 735.279429 277.117234 735.279429 274.2 
C 735.279429 271.282766 734.021716 268.484621 731.783288 266.421825 
C 729.544859 264.359029 726.508473 263.2 723.342857 263.2 
C 720.177241 263.2 717.140855 264.359029 714.902427 266.421825 
C 712.663998 268.484621 711.406286 271.282766 711.406286 274.2 
C 711.406286 277.117234 712.663998 279.915379 714.902427 281.978175 
C 717.140855 284.040971 720.177241 285.2 723.342857 285.2 
z
" clip-path="url(#pc0ff173897)" style="fill: #ffedd5; stroke: #ea580c; stroke-width: 1.5; stroke-linejoin: miter"/>
   </g>
   <g id="patch_24">
    <path d="M 723.342857 222.7 
C 726.508473 222.7 729.544859 221.540971 731.783288 219.478175 
C 734.021716 217.415379 735.279429 214.617234 735.279429 211.7 
C 735.279429 208.782766 734.021716 205.984621 731.783288 203.921825 
C 729.544859 201.859029 726.508473 200.7 723.342857 200.7 
C 720.177241 200.7 717.140855 201.859029 714.902427 203.921825 
C 712.663998 205.984621 711.406286 208.782766 711.406286 211.7 
C 711.406286 214.617234 712.663998 217.415379 714.902427 219.478175 
C 717.140855 221.540971 720.177241 222.7 723.342857 222.7 
z
" clip-path="url(#pc0ff173897)" style="fill: #ffedd5; stroke: #ea580c; stroke-width: 1.5; stroke-linejoin: miter"/>
   </g>
   <g id="patch_25">
    <path d="M 723.342857 160.2 
C 726.508473 160.2 729.544859 159.040971 731.783288 156.978175 
C 734.021716 154.915379 735.279429 152.117234 735.279429 149.2 
C 735.279429 146.282766 734.021716 143.484621 731.783288 141.421825 
C 729.544859 139.359029 726.508473 138.2 723.342857 138.2 
C 720.177241 138.2 717.140855 139.359029 714.902427 141.421825 
C 712.663998 143.484621 711.406286 146.282766 711.406286 149.2 
C 711.406286 152.117234 712.663998 154.915379 714.902427 156.978175 
C 717.140855 159.040971 720.177241 160.2 723.342857 160.2 
z
" clip-path="url(#pc0ff173897)" style="fill: #ffedd5; stroke: #ea580c; stroke-width: 1.5; stroke-linejoin: miter"/>
   </g>
   <g id="text_6">
    <!-- Layer 1 -->
    <g style="fill: #475569" transform="translate(435.216596 329.2) scale(0.09 -0.09)">
     <use xlink:href="#DejaVuSans-4c"/>
     <use xlink:href="#DejaVuSans-61" x="55.712891"/>
     <use xlink:href="#DejaVuSans-79" x="116.992188"/>
     <use xlink:href="#DejaVuSans-65" x="176.171875"/>
     <use xlink:href="#DejaVuSans-72" x="237.695312"/>
     <use xlink:href="#DejaVuSans-20" x="278.808594"/>
     <use xlink:href="#DejaVuSans-31" x="310.595703"/>
    </g>
   </g>
   <g id="text_7">
    <!-- Layer 2 -->
    <g style="fill: #475569" transform="translate(570.859453 329.2) scale(0.09 -0.09)">
     <use xlink:href="#DejaVuSans-4c"/>
     <use xlink:href="#DejaVuSans-61" x="55.712891"/>
     <use xlink:href="#DejaVuSans-79" x="116.992188"/>
     <use xlink:href="#DejaVuSans-65" x="176.171875"/>
     <use xlink:href="#DejaVuSans-72" x="237.695312"/>
     <use xlink:href="#DejaVuSans-20" x="278.808594"/>
     <use xlink:href="#DejaVuSans-32" x="310.595703"/>
    </g>
   </g>
   <g id="text_8">
    <!-- Layer 3 -->
    <g style="fill: #475569" transform="translate(706.50231 329.2) scale(0.09 -0.09)">
     <use xlink:href="#DejaVuSans-4c"/>
     <use xlink:href="#DejaVuSans-61" x="55.712891"/>
     <use xlink:href="#DejaVuSans-79" x="116.992188"/>
     <use xlink:href="#DejaVuSans-65" x="176.171875"/>
     <use xlink:href="#DejaVuSans-72" x="237.695312"/>
     <use xlink:href="#DejaVuSans-20" x="278.808594"/>
     <use xlink:href="#DejaVuSans-33" x="310.595703"/>
    </g>
   </g>
   <g id="text_9">
    <!-- Each neuron randomly set to 0 -->
    <g style="fill: #475569" transform="translate(521.937891 59.681859) scale(0.085 -0.085)">
     <defs>
      <path id="DejaVuSans-Oblique-64" d="M 2675 525 
Q 2444 222 2128 65 
Q 1813 -91 1428 -91 
Q 903 -91 598 267 
Q 294 625 294 1247 
Q 294 1766 478 2236 
Q 663 2706 1013 3078 
Q 1244 3325 1534 3454 
Q 1825 3584 2144 3584 
Q 2481 3584 2739 3421 
Q 2997 3259 3138 2956 
L 3513 4863 
L 4091 4863 
L 3144 0 
L 2566 0 
L 2675 525 
z
M 891 1350 
Q 891 897 1095 644 
Q 1300 391 1663 391 
Q 1931 391 2161 520 
Q 2391 650 2566 903 
Q 2750 1166 2856 1509 
Q 2963 1853 2963 2188 
Q 2963 2622 2758 2865 
Q 2553 3109 2194 3109 
Q 1922 3109 1687 2981 
Q 1453 2853 1288 2613 
Q 1106 2353 998 2009 
Q 891 1666 891 1350 
z
" transform="scale(0.015625)"/>
      <path id="DejaVuSans-Oblique-74" d="M 2706 3500 
L 2619 3053 
L 1472 3053 
L 1100 1153 
Q 1081 1047 1072 975 
Q 1063 903 1063 863 
Q 1063 663 1183 572 
Q 1303 481 1569 481 
L 2150 481 
L 2053 0 
L 1503 0 
Q 991 0 739 200 
Q 488 400 488 806 
Q 488 878 497 964 
Q 506 1050 525 1153 
L 897 3053 
L 409 3053 
L 500 3500 
L 978 3500 
L 1172 4494 
L 1747 4494 
L 1556 3500 
L 2706 3500 
z
" transform="scale(0.015625)"/>
      <path id="DejaVuSans-Oblique-30" d="M 2444 4750 
Q 3078 4750 3414 4328 
Q 3750 3906 3750 3116 
Q 3750 2516 3592 1923 
Q 3434 1331 3150 863 
Q 2859 394 2467 151 
Q 2075 -91 1600 -91 
Q 988 -91 653 334 
Q 319 759 319 1544 
Q 319 2138 480 2733 
Q 641 3328 928 3794 
Q 1216 4263 1602 4506 
Q 1988 4750 2444 4750 
z
M 2406 4250 
Q 2169 4250 1955 4123 
Q 1741 3997 1569 3750 
Q 1281 3338 1111 2720 
Q 941 2103 941 1453 
Q 941 938 1123 673 
Q 1306 409 1663 409 
Q 1913 409 2125 536 
Q 2338 663 2509 909 
Q 2794 1319 2961 1936 
Q 3128 2553 3128 3206 
Q 3128 3722 2945 3986 
Q 2763 4250 2406 4250 
z
" transform="scale(0.015625)"/>
     </defs>
     <use xlink:href="#DejaVuSans-Oblique-45"/>
     <use xlink:href="#DejaVuSans-Oblique-61" x="63.183594"/>
     <use xlink:href="#DejaVuSans-Oblique-63" x="124.462891"/>
     <use xlink:href="#DejaVuSans-Oblique-68" x="179.443359"/>
     <use xlink:href="#DejaVuSans-Oblique-20" x="242.822266"/>
     <use xlink:href="#DejaVuSans-Oblique-6e" x="274.609375"/>
     <use xlink:href="#DejaVuSans-Oblique-65" x="337.988281"/>
     <use xlink:href="#DejaVuSans-Oblique-75" x="399.511719"/>
     <use xlink:href="#DejaVuSans-Oblique-72" x="462.890625"/>
     <use xlink:href="#DejaVuSans-Oblique-6f" x="504.003906"/>
     <use xlink:href="#DejaVuSans-Oblique-6e" x="565.185547"/>
     <use xlink:href="#DejaVuSans-Oblique-20" x="628.564453"/>
     <use xlink:href="#DejaVuSans-Oblique-72" x="660.351562"/>
     <use xlink:href="#DejaVuSans-Oblique-61" x="701.464844"/>
     <use xlink:href="#DejaVuSans-Oblique-6e" x="762.744141"/>
     <use xlink:href="#DejaVuSans-Oblique-64" x="826.123047"/>
     <use xlink:href="#DejaVuSans-Oblique-6f" x="889.599609"/>
     <use xlink:href="#DejaVuSans-Oblique-6d" x="950.78125"/>
     <use xlink:href="#DejaVuSans-Oblique-6c" x="1048.193359"/>
     <use xlink:href="#DejaVuSans-Oblique-79" x="1075.976562"/>
     <use xlink:href="#DejaVuSans-Oblique-20" x="1135.15625"/>
     <use xlink:href="#DejaVuSans-Oblique-73" x="1166.943359"/>
     <use xlink:href="#DejaVuSans-Oblique-65" x="1219.042969"/>
     <use xlink:href="#DejaVuSans-Oblique-74" x="1280.566406"/>
     <use xlink:href="#DejaVuSans-Oblique-20" x="1319.775391"/>
     <use xlink:href="#DejaVuSans-Oblique-74" x="1351.5625"/>
     <use xlink:href="#DejaVuSans-Oblique-6f" x="1390.771484"/>
     <use xlink:href="#DejaVuSans-Oblique-20" x="1451.953125"/>
     <use xlink:href="#DejaVuSans-Oblique-30" x="1483.740234"/>
    </g>
    <!-- during training -->
    <g style="fill: #475569" transform="translate(556.174297 69.2) scale(0.085 -0.085)">
     <defs>
      <path id="DejaVuSans-Oblique-67" d="M 3816 3500 
L 3219 434 
Q 3047 -456 2561 -893 
Q 2075 -1331 1253 -1331 
Q 950 -1331 690 -1286 
Q 431 -1241 206 -1147 
L 313 -588 
Q 525 -725 762 -790 
Q 1000 -856 1269 -856 
Q 1816 -856 2167 -557 
Q 2519 -259 2631 300 
L 2681 563 
Q 2441 288 2122 144 
Q 1803 0 1434 0 
Q 903 0 598 351 
Q 294 703 294 1319 
Q 294 1803 478 2267 
Q 663 2731 997 3091 
Q 1219 3328 1514 3456 
Q 1809 3584 2131 3584 
Q 2484 3584 2746 3420 
Q 3009 3256 3138 2956 
L 3238 3500 
L 3816 3500 
z
M 2950 2216 
Q 2950 2641 2750 2872 
Q 2550 3103 2181 3103 
Q 1953 3103 1747 3012 
Q 1541 2922 1394 2759 
Q 1156 2491 1023 2127 
Q 891 1763 891 1375 
Q 891 944 1092 712 
Q 1294 481 1672 481 
Q 2219 481 2584 976 
Q 2950 1472 2950 2216 
z
" transform="scale(0.015625)"/>
     </defs>
     <use xlink:href="#DejaVuSans-Oblique-64"/>
     <use xlink:href="#DejaVuSans-Oblique-75" x="63.476562"/>
     <use xlink:href="#DejaVuSans-Oblique-72" x="126.855469"/>
     <use xlink:href="#DejaVuSans-Oblique-69" x="167.96875"/>
     <use xlink:href="#DejaVuSans-Oblique-6e" x="195.751953"/>
     <use xlink:href="#DejaVuSans-Oblique-67" x="259.130859"/>
     <use xlink:href="#DejaVuSans-Oblique-20" x="322.607422"/>
     <use xlink:href="#DejaVuSans-Oblique-74" x="354.394531"/>
     <use xlink:href="#DejaVuSans-Oblique-72" x="393.603516"/>
     <use xlink:href="#DejaVuSans-Oblique-61" x="434.716797"/>
     <use xlink:href="#DejaVuSans-Oblique-69" x="495.996094"/>
     <use xlink:href="#DejaVuSans-Oblique-6e" x="523.779297"/>
     <use xlink:href="#DejaVuSans-Oblique-69" x="587.158203"/>
     <use xlink:href="#DejaVuSans-Oblique-6e" x="614.941406"/>
     <use xlink:href="#DejaVuSans-Oblique-67" x="678.320312"/>
    </g>
   </g>
   <g id="text_10">
    <!-- With Dropout (p=0.5) -->
    <g style="fill: #0f172a" transform="translate(520.742656 43.2) scale(0.11 -0.11)">
     <defs>
      <path id="DejaVuSans-Bold-28" d="M 2413 -844 
L 1484 -844 
Q 1006 -72 778 623 
Q 550 1319 550 2003 
Q 550 2688 779 3389 
Q 1009 4091 1484 4856 
L 2413 4856 
Q 2013 4116 1813 3408 
Q 1613 2700 1613 2009 
Q 1613 1319 1811 609 
Q 2009 -100 2413 -844 
z
" transform="scale(0.015625)"/>
      <path id="DejaVuSans-Bold-3d" d="M 678 3084 
L 4684 3084 
L 4684 2350 
L 678 2350 
L 678 3084 
z
M 678 1663 
L 4684 1663 
L 4684 922 
L 678 922 
L 678 1663 
z
" transform="scale(0.015625)"/>
      <path id="DejaVuSans-Bold-30" d="M 2944 2338 
Q 2944 3213 2780 3570 
Q 2616 3928 2228 3928 
Q 1841 3928 1675 3570 
Q 1509 3213 1509 2338 
Q 1509 1453 1675 1090 
Q 1841 728 2228 728 
Q 2613 728 2778 1090 
Q 2944 1453 2944 2338 
z
M 4147 2328 
Q 4147 1169 3647 539 
Q 3147 -91 2228 -91 
Q 1306 -91 806 539 
Q 306 1169 306 2328 
Q 306 3491 806 4120 
Q 1306 4750 2228 4750 
Q 3147 4750 3647 4120 
Q 4147 3491 4147 2328 
z
" transform="scale(0.015625)"/>
      <path id="DejaVuSans-Bold-2e" d="M 653 1209 
L 1778 1209 
L 1778 0 
L 653 0 
L 653 1209 
z
" transform="scale(0.015625)"/>
      <path id="DejaVuSans-Bold-35" d="M 678 4666 
L 3669 4666 
L 3669 3781 
L 1638 3781 
L 1638 3059 
Q 1775 3097 1914 3117 
Q 2053 3138 2203 3138 
Q 3056 3138 3531 2711 
Q 4006 2284 4006 1522 
Q 4006 766 3489 337 
Q 2972 -91 2053 -91 
Q 1656 -91 1267 -14 
Q 878 63 494 219 
L 494 1166 
Q 875 947 1217 837 
Q 1559 728 1863 728 
Q 2300 728 2551 942 
Q 2803 1156 2803 1522 
Q 2803 1891 2551 2103 
Q 2300 2316 1863 2316 
Q 1603 2316 1309 2248 
Q 1016 2181 678 2041 
L 678 4666 
z
" transform="scale(0.015625)"/>
      <path id="DejaVuSans-Bold-29" d="M 513 -844 
Q 913 -100 1113 609 
Q 1313 1319 1313 2009 
Q 1313 2700 1113 3408 
Q 913 4116 513 4856 
L 1441 4856 
Q 1916 4091 2145 3389 
Q 2375 2688 2375 2003 
Q 2375 1319 2147 623 
Q 1919 -72 1441 -844 
L 513 -844 
z
" transform="scale(0.015625)"/>
     </defs>
     <use xlink:href="#DejaVuSans-Bold-57"/>
     <use xlink:href="#DejaVuSans-Bold-69" x="110.302734"/>
     <use xlink:href="#DejaVuSans-Bold-74" x="144.580078"/>
     <use xlink:href="#DejaVuSans-Bold-68" x="192.382812"/>
     <use xlink:href="#DejaVuSans-Bold-20" x="263.574219"/>
     <use xlink:href="#DejaVuSans-Bold-44" x="298.388672"/>
     <use xlink:href="#DejaVuSans-Bold-72" x="381.396484"/>
     <use xlink:href="#DejaVuSans-Bold-6f" x="430.712891"/>
     <use xlink:href="#DejaVuSans-Bold-70" x="499.414062"/>
     <use xlink:href="#DejaVuSans-Bold-6f" x="570.996094"/>
     <use xlink:href="#DejaVuSans-Bold-75" x="639.697266"/>
     <use xlink:href="#DejaVuSans-Bold-74" x="710.888672"/>
     <use xlink:href="#DejaVuSans-Bold-20" x="758.691406"/>
     <use xlink:href="#DejaVuSans-Bold-28" x="793.505859"/>
     <use xlink:href="#DejaVuSans-Bold-70" x="839.208984"/>
     <use xlink:href="#DejaVuSans-Bold-3d" x="910.791016"/>
     <use xlink:href="#DejaVuSans-Bold-30" x="994.580078"/>
     <use xlink:href="#DejaVuSans-Bold-2e" x="1064.160156"/>
     <use xlink:href="#DejaVuSans-Bold-35" x="1102.148438"/>
     <use xlink:href="#DejaVuSans-Bold-29" x="1171.728516"/>
    </g>
   </g>
   <g id="line2d_65">
    <path d="M 579.561429 246.7 
L 595.838571 231.7 
" clip-path="url(#pc0ff173897)" style="fill: none; stroke: #dc2626; stroke-width: 2; stroke-linecap: square"/>
   </g>
   <g id="line2d_66">
    <path d="M 579.561429 231.7 
L 595.838571 246.7 
" clip-path="url(#pc0ff173897)" style="fill: none; stroke: #dc2626; stroke-width: 2; stroke-linecap: square"/>
   </g>
   <g id="line2d_67">
    <path d="M 579.561429 146.7 
L 595.838571 131.7 
" clip-path="url(#pc0ff173897)" style="fill: none; stroke: #dc2626; stroke-width: 2; stroke-linecap: square"/>
   </g>
   <g id="line2d_68">
    <path d="M 579.561429 131.7 
L 595.838571 146.7 
" clip-path="url(#pc0ff173897)" style="fill: none; stroke: #dc2626; stroke-width: 2; stroke-linecap: square"/>
   </g>
  </g>
  <g id="text_11">
   <!-- Dropout Regularization -->
   <g style="fill: #0f172a" transform="translate(306.878281 17.077969) scale(0.13 -0.13)">
    <defs>
     <path id="DejaVuSans-Bold-52" d="M 2297 2597 
Q 2675 2597 2839 2737 
Q 3003 2878 3003 3200 
Q 3003 3519 2839 3656 
Q 2675 3794 2297 3794 
L 1791 3794 
L 1791 2597 
L 2297 2597 
z
M 1791 1766 
L 1791 0 
L 588 0 
L 588 4666 
L 2425 4666 
Q 3347 4666 3776 4356 
Q 4206 4047 4206 3378 
Q 4206 2916 3982 2619 
Q 3759 2322 3309 2181 
Q 3556 2125 3751 1926 
Q 3947 1728 4147 1325 
L 4800 0 
L 3519 0 
L 2950 1159 
Q 2778 1509 2601 1637 
Q 2425 1766 2131 1766 
L 1791 1766 
z
" transform="scale(0.015625)"/>
     <path id="DejaVuSans-Bold-65" d="M 4031 1759 
L 4031 1441 
L 1416 1441 
Q 1456 1047 1700 850 
Q 1944 653 2381 653 
Q 2734 653 3104 758 
Q 3475 863 3866 1075 
L 3866 213 
Q 3469 63 3072 -14 
Q 2675 -91 2278 -91 
Q 1328 -91 801 392 
Q 275 875 275 1747 
Q 275 2603 792 3093 
Q 1309 3584 2216 3584 
Q 3041 3584 3536 3087 
Q 4031 2591 4031 1759 
z
M 2881 2131 
Q 2881 2450 2695 2645 
Q 2509 2841 2209 2841 
Q 1884 2841 1681 2658 
Q 1478 2475 1428 2131 
L 2881 2131 
z
" transform="scale(0.015625)"/>
     <path id="DejaVuSans-Bold-67" d="M 2919 594 
Q 2688 288 2409 144 
Q 2131 0 1766 0 
Q 1125 0 706 504 
Q 288 1009 288 1791 
Q 288 2575 706 3076 
Q 1125 3578 1766 3578 
Q 2131 3578 2409 3434 
Q 2688 3291 2919 2981 
L 2919 3500 
L 4044 3500 
L 4044 353 
Q 4044 -491 3511 -936 
Q 2978 -1381 1966 -1381 
Q 1638 -1381 1331 -1331 
Q 1025 -1281 716 -1178 
L 716 -306 
Q 1009 -475 1290 -558 
Q 1572 -641 1856 -641 
Q 2406 -641 2662 -400 
Q 2919 -159 2919 353 
L 2919 594 
z
M 2181 2772 
Q 1834 2772 1640 2515 
Q 1447 2259 1447 1791 
Q 1447 1309 1634 1061 
Q 1822 813 2181 813 
Q 2531 813 2725 1069 
Q 2919 1325 2919 1791 
Q 2919 2259 2725 2515 
Q 2531 2772 2181 2772 
z
" transform="scale(0.015625)"/>
     <path id="DejaVuSans-Bold-6c" d="M 538 4863 
L 1656 4863 
L 1656 0 
L 538 0 
L 538 4863 
z
" transform="scale(0.015625)"/>
     <path id="DejaVuSans-Bold-61" d="M 2106 1575 
Q 1756 1575 1579 1456 
Q 1403 1338 1403 1106 
Q 1403 894 1545 773 
Q 1688 653 1941 653 
Q 2256 653 2472 879 
Q 2688 1106 2688 1447 
L 2688 1575 
L 2106 1575 
z
M 3816 1997 
L 3816 0 
L 2688 0 
L 2688 519 
Q 2463 200 2181 54 
Q 1900 -91 1497 -91 
Q 953 -91 614 226 
Q 275 544 275 1050 
Q 275 1666 698 1953 
Q 1122 2241 2028 2241 
L 2688 2241 
L 2688 2328 
Q 2688 2594 2478 2717 
Q 2269 2841 1825 2841 
Q 1466 2841 1156 2769 
Q 847 2697 581 2553 
L 581 3406 
Q 941 3494 1303 3539 
Q 1666 3584 2028 3584 
Q 2975 3584 3395 3211 
Q 3816 2838 3816 1997 
z
" transform="scale(0.015625)"/>
     <path id="DejaVuSans-Bold-7a" d="M 366 3500 
L 3419 3500 
L 3419 2719 
L 1575 800 
L 3419 800 
L 3419 0 
L 288 0 
L 288 781 
L 2131 2700 
L 366 2700 
L 366 3500 
z
" transform="scale(0.015625)"/>
     <path id="DejaVuSans-Bold-6e" d="M 4056 2131 
L 4056 0 
L 2931 0 
L 2931 347 
L 2931 1631 
Q 2931 2084 2911 2256 
Q 2891 2428 2841 2509 
Q 2775 2619 2662 2680 
Q 2550 2741 2406 2741 
Q 2056 2741 1856 2470 
Q 1656 2200 1656 1722 
L 1656 0 
L 538 0 
L 538 3500 
L 1656 3500 
L 1656 2988 
Q 1909 3294 2193 3439 
Q 2478 3584 2822 3584 
Q 3428 3584 3742 3212 
Q 4056 2841 4056 2131 
z
" transform="scale(0.015625)"/>
    </defs>
    <use xlink:href="#DejaVuSans-Bold-44"/>
    <use xlink:href="#DejaVuSans-Bold-72" x="83.007812"/>
    <use xlink:href="#DejaVuSans-Bold-6f" x="132.324219"/>
    <use xlink:href="#DejaVuSans-Bold-70" x="201.025391"/>
    <use xlink:href="#DejaVuSans-Bold-6f" x="272.607422"/>
    <use xlink:href="#DejaVuSans-Bold-75" x="341.308594"/>
    <use xlink:href="#DejaVuSans-Bold-74" x="412.5"/>
    <use xlink:href="#DejaVuSans-Bold-20" x="460.302734"/>
    <use xlink:href="#DejaVuSans-Bold-52" x="495.117188"/>
    <use xlink:href="#DejaVuSans-Bold-65" x="572.119141"/>
    <use xlink:href="#DejaVuSans-Bold-67" x="639.941406"/>
    <use xlink:href="#DejaVuSans-Bold-75" x="711.523438"/>
    <use xlink:href="#DejaVuSans-Bold-6c" x="782.714844"/>
    <use xlink:href="#DejaVuSans-Bold-61" x="816.992188"/>
    <use xlink:href="#DejaVuSans-Bold-72" x="884.472656"/>
    <use xlink:href="#DejaVuSans-Bold-69" x="933.789062"/>
    <use xlink:href="#DejaVuSans-Bold-7a" x="968.066406"/>
    <use xlink:href="#DejaVuSans-Bold-61" x="1026.269531"/>
    <use xlink:href="#DejaVuSans-Bold-74" x="1093.75"/>
    <use xlink:href="#DejaVuSans-Bold-69" x="1141.552734"/>
    <use xlink:href="#DejaVuSans-Bold-6f" x="1175.830078"/>
    <use xlink:href="#DejaVuSans-Bold-6e" x="1244.53125"/>
   </g>
  </g>
 </g>
 <defs>
  <clipPath id="p85a9256dcc">
   <rect x="7.2" y="49.2" width="379.8" height="300"/>
  </clipPath>
  <clipPath id="pc0ff173897">
   <rect x="397.8" y="49.2" width="379.8" height="300"/>
  </clipPath>
 </defs>
</svg>
