<?xml version="1.0" encoding="utf-8" standalone="no"?>
<!DOCTYPE svg PUBLIC "-//W3C//DTD SVG 1.1//EN"
  "http://www.w3.org/Graphics/SVG/1.1/DTD/svg11.dtd">
<svg xmlns:xlink="http://www.w3.org/1999/xlink" width="784.8pt" height="424.597969pt" viewBox="0 0 784.8 424.597969" xmlns="http://www.w3.org/2000/svg" version="1.1">
 <metadata>
  <rdf:RDF xmlns:dc="http://purl.org/dc/elements/1.1/" xmlns:cc="http://creativecommons.org/ns#" xmlns:rdf="http://www.w3.org/1999/02/22-rdf-syntax-ns#">
   <cc:Work>
    <dc:type rdf:resource="http://purl.org/dc/dcmitype/StillImage"/>
    <dc:date>2026-04-24T07:26:54.274305</dc:date>
    <dc:format>image/svg+xml</dc:format>
    <dc:creator>
     <cc:Agent>
      <dc:title>Matplotlib v3.8.0, https://matplotlib.org/</dc:title>
     </cc:Agent>
    </dc:creator>
   </cc:Work>
  </rdf:RDF>
 </metadata>
 <defs>
  <style type="text/css">*{stroke-linejoin: round; stroke-linecap: butt}</style>
 </defs>
 <g id="figure_1">
  <g id="patch_1">
   <path d="M 0 424.597969 
L 784.8 424.597969 
L 784.8 0 
L 0 0 
z
" style="fill: #ffffff"/>
  </g>
  <g id="axes_1">
   <g id="line2d_1">
    <path d="M 82.839273 101.941969 
L 211.706182 131.515969 
" clip-path="url(#p972ea6cb24)" style="fill: none; stroke: #cbd5e1; stroke-opacity: 0.5; stroke-width: 0.4; stroke-linecap: square"/>
   </g>
   <g id="line2d_2">
    <path d="M 82.839273 101.941969 
L 211.706182 190.663969 
" clip-path="url(#p972ea6cb24)" style="fill: none; stroke: #cbd5e1; stroke-opacity: 0.5; stroke-width: 0.4; stroke-linecap: square"/>
   </g>
   <g id="line2d_3">
    <path d="M 82.839273 101.941969 
L 211.706182 249.811969 
" clip-path="url(#p972ea6cb24)" style="fill: none; stroke: #cbd5e1; stroke-opacity: 0.5; stroke-width: 0.4; stroke-linecap: square"/>
   </g>
   <g id="line2d_4">
    <path d="M 82.839273 101.941969 
L 211.706182 308.959969 
" clip-path="url(#p972ea6cb24)" style="fill: none; stroke: #cbd5e1; stroke-opacity: 0.5; stroke-width: 0.4; stroke-linecap: square"/>
   </g>
   <g id="line2d_5">
    <path d="M 82.839273 161.089969 
L 211.706182 131.515969 
" clip-path="url(#p972ea6cb24)" style="fill: none; stroke: #cbd5e1; stroke-opacity: 0.5; stroke-width: 0.4; stroke-linecap: square"/>
   </g>
   <g id="line2d_6">
    <path d="M 82.839273 161.089969 
L 211.706182 190.663969 
" clip-path="url(#p972ea6cb24)" style="fill: none; stroke: #cbd5e1; stroke-opacity: 0.5; stroke-width: 0.4; stroke-linecap: square"/>
   </g>
   <g id="line2d_7">
    <path d="M 82.839273 161.089969 
L 211.706182 249.811969 
" clip-path="url(#p972ea6cb24)" style="fill: none; stroke: #cbd5e1; stroke-opacity: 0.5; stroke-width: 0.4; stroke-linecap: square"/>
   </g>
   <g id="line2d_8">
    <path d="M 82.839273 161.089969 
L 211.706182 308.959969 
" clip-path="url(#p972ea6cb24)" style="fill: none; stroke: #cbd5e1; stroke-opacity: 0.5; stroke-width: 0.4; stroke-linecap: square"/>
   </g>
   <g id="line2d_9">
    <path d="M 82.839273 220.237969 
L 211.706182 131.515969 
" clip-path="url(#p972ea6cb24)" style="fill: none; stroke: #cbd5e1; stroke-opacity: 0.5; stroke-width: 0.4; stroke-linecap: square"/>
   </g>
   <g id="line2d_10">
    <path d="M 82.839273 220.237969 
L 211.706182 190.663969 
" clip-path="url(#p972ea6cb24)" style="fill: none; stroke: #cbd5e1; stroke-opacity: 0.5; stroke-width: 0.4; stroke-linecap: square"/>
   </g>
   <g id="line2d_11">
    <path d="M 82.839273 220.237969 
L 211.706182 249.811969 
" clip-path="url(#p972ea6cb24)" style="fill: none; stroke: #cbd5e1; stroke-opacity: 0.5; stroke-width: 0.4; stroke-linecap: square"/>
   </g>
   <g id="line2d_12">
    <path d="M 82.839273 220.237969 
L 211.706182 308.959969 
" clip-path="url(#p972ea6cb24)" style="fill: none; stroke: #cbd5e1; stroke-opacity: 0.5; stroke-width: 0.4; stroke-linecap: square"/>
   </g>
   <g id="line2d_13">
    <path d="M 82.839273 279.385969 
L 211.706182 131.515969 
" clip-path="url(#p972ea6cb24)" style="fill: none; stroke: #cbd5e1; stroke-opacity: 0.5; stroke-width: 0.4; stroke-linecap: square"/>
   </g>
   <g id="line2d_14">
    <path d="M 82.839273 279.385969 
L 211.706182 190.663969 
" clip-path="url(#p972ea6cb24)" style="fill: none; stroke: #cbd5e1; stroke-opacity: 0.5; stroke-width: 0.4; stroke-linecap: square"/>
   </g>
   <g id="line2d_15">
    <path d="M 82.839273 279.385969 
L 211.706182 249.811969 
" clip-path="url(#p972ea6cb24)" style="fill: none; stroke: #cbd5e1; stroke-opacity: 0.5; stroke-width: 0.4; stroke-linecap: square"/>
   </g>
   <g id="line2d_16">
    <path d="M 82.839273 279.385969 
L 211.706182 308.959969 
" clip-path="url(#p972ea6cb24)" style="fill: none; stroke: #cbd5e1; stroke-opacity: 0.5; stroke-width: 0.4; stroke-linecap: square"/>
   </g>
   <g id="line2d_17">
    <path d="M 82.839273 338.533969 
L 211.706182 131.515969 
" clip-path="url(#p972ea6cb24)" style="fill: none; stroke: #cbd5e1; stroke-opacity: 0.5; stroke-width: 0.4; stroke-linecap: square"/>
   </g>
   <g id="line2d_18">
    <path d="M 82.839273 338.533969 
L 211.706182 190.663969 
" clip-path="url(#p972ea6cb24)" style="fill: none; stroke: #cbd5e1; stroke-opacity: 0.5; stroke-width: 0.4; stroke-linecap: square"/>
   </g>
   <g id="line2d_19">
    <path d="M 82.839273 338.533969 
L 211.706182 249.811969 
" clip-path="url(#p972ea6cb24)" style="fill: none; stroke: #cbd5e1; stroke-opacity: 0.5; stroke-width: 0.4; stroke-linecap: square"/>
   </g>
   <g id="line2d_20">
    <path d="M 82.839273 338.533969 
L 211.706182 308.959969 
" clip-path="url(#p972ea6cb24)" style="fill: none; stroke: #cbd5e1; stroke-opacity: 0.5; stroke-width: 0.4; stroke-linecap: square"/>
   </g>
   <g id="line2d_21">
    <path d="M 222.912 131.515969 
L 386.797091 161.089969 
" clip-path="url(#p972ea6cb24)" style="fill: none; stroke: #cbd5e1; stroke-opacity: 0.5; stroke-width: 0.4; stroke-linecap: square"/>
   </g>
   <g id="line2d_22">
    <path d="M 222.912 131.515969 
L 386.797091 220.237969 
" clip-path="url(#p972ea6cb24)" style="fill: none; stroke: #cbd5e1; stroke-opacity: 0.5; stroke-width: 0.4; stroke-linecap: square"/>
   </g>
   <g id="line2d_23">
    <path d="M 222.912 131.515969 
L 386.797091 279.385969 
" clip-path="url(#p972ea6cb24)" style="fill: none; stroke: #cbd5e1; stroke-opacity: 0.5; stroke-width: 0.4; stroke-linecap: square"/>
   </g>
   <g id="line2d_24">
    <path d="M 222.912 190.663969 
L 386.797091 161.089969 
" clip-path="url(#p972ea6cb24)" style="fill: none; stroke: #cbd5e1; stroke-opacity: 0.5; stroke-width: 0.4; stroke-linecap: square"/>
   </g>
   <g id="line2d_25">
    <path d="M 222.912 190.663969 
L 386.797091 220.237969 
" clip-path="url(#p972ea6cb24)" style="fill: none; stroke: #cbd5e1; stroke-opacity: 0.5; stroke-width: 0.4; stroke-linecap: square"/>
   </g>
   <g id="line2d_26">
    <path d="M 222.912 190.663969 
L 386.797091 279.385969 
" clip-path="url(#p972ea6cb24)" style="fill: none; stroke: #cbd5e1; stroke-opacity: 0.5; stroke-width: 0.4; stroke-linecap: square"/>
   </g>
   <g id="line2d_27">
    <path d="M 222.912 249.811969 
L 386.797091 161.089969 
" clip-path="url(#p972ea6cb24)" style="fill: none; stroke: #cbd5e1; stroke-opacity: 0.5; stroke-width: 0.4; stroke-linecap: square"/>
   </g>
   <g id="line2d_28">
    <path d="M 222.912 249.811969 
L 386.797091 220.237969 
" clip-path="url(#p972ea6cb24)" style="fill: none; stroke: #cbd5e1; stroke-opacity: 0.5; stroke-width: 0.4; stroke-linecap: square"/>
   </g>
   <g id="line2d_29">
    <path d="M 222.912 249.811969 
L 386.797091 279.385969 
" clip-path="url(#p972ea6cb24)" style="fill: none; stroke: #cbd5e1; stroke-opacity: 0.5; stroke-width: 0.4; stroke-linecap: square"/>
   </g>
   <g id="line2d_30">
    <path d="M 222.912 308.959969 
L 386.797091 161.089969 
" clip-path="url(#p972ea6cb24)" style="fill: none; stroke: #cbd5e1; stroke-opacity: 0.5; stroke-width: 0.4; stroke-linecap: square"/>
   </g>
   <g id="line2d_31">
    <path d="M 222.912 308.959969 
L 386.797091 220.237969 
" clip-path="url(#p972ea6cb24)" style="fill: none; stroke: #cbd5e1; stroke-opacity: 0.5; stroke-width: 0.4; stroke-linecap: square"/>
   </g>
   <g id="line2d_32">
    <path d="M 222.912 308.959969 
L 386.797091 279.385969 
" clip-path="url(#p972ea6cb24)" style="fill: none; stroke: #cbd5e1; stroke-opacity: 0.5; stroke-width: 0.4; stroke-linecap: square"/>
   </g>
   <g id="line2d_33">
    <path d="M 398.002909 161.089969 
L 561.888 190.663969 
" clip-path="url(#p972ea6cb24)" style="fill: none; stroke: #cbd5e1; stroke-opacity: 0.5; stroke-width: 0.4; stroke-linecap: square"/>
   </g>
   <g id="line2d_34">
    <path d="M 398.002909 161.089969 
L 561.888 249.811969 
" clip-path="url(#p972ea6cb24)" style="fill: none; stroke: #cbd5e1; stroke-opacity: 0.5; stroke-width: 0.4; stroke-linecap: square"/>
   </g>
   <g id="line2d_35">
    <path d="M 398.002909 220.237969 
L 561.888 190.663969 
" clip-path="url(#p972ea6cb24)" style="fill: none; stroke: #cbd5e1; stroke-opacity: 0.5; stroke-width: 0.4; stroke-linecap: square"/>
   </g>
   <g id="line2d_36">
    <path d="M 398.002909 220.237969 
L 561.888 249.811969 
" clip-path="url(#p972ea6cb24)" style="fill: none; stroke: #cbd5e1; stroke-opacity: 0.5; stroke-width: 0.4; stroke-linecap: square"/>
   </g>
   <g id="line2d_37">
    <path d="M 398.002909 279.385969 
L 561.888 190.663969 
" clip-path="url(#p972ea6cb24)" style="fill: none; stroke: #cbd5e1; stroke-opacity: 0.5; stroke-width: 0.4; stroke-linecap: square"/>
   </g>
   <g id="line2d_38">
    <path d="M 398.002909 279.385969 
L 561.888 249.811969 
" clip-path="url(#p972ea6cb24)" style="fill: none; stroke: #cbd5e1; stroke-opacity: 0.5; stroke-width: 0.4; stroke-linecap: square"/>
   </g>
   <g id="line2d_39">
    <path d="M 573.093818 190.663969 
L 701.960727 220.237969 
" clip-path="url(#p972ea6cb24)" style="fill: none; stroke: #cbd5e1; stroke-opacity: 0.5; stroke-width: 0.4; stroke-linecap: square"/>
   </g>
   <g id="line2d_40">
    <path d="M 573.093818 249.811969 
L 701.960727 220.237969 
" clip-path="url(#p972ea6cb24)" style="fill: none; stroke: #cbd5e1; stroke-opacity: 0.5; stroke-width: 0.4; stroke-linecap: square"/>
   </g>
   <g id="patch_2">
    <path d="M 77.236364 107.199569 
C 78.722272 107.199569 80.147522 106.645595 81.198219 105.659653 
C 82.248915 104.673712 82.839273 103.336301 82.839273 101.941969 
C 82.839273 100.547637 82.248915 99.210226 81.198219 98.224284 
C 80.147522 97.238343 78.722272 96.684369 77.236364 96.684369 
C 75.750455 96.684369 74.325205 97.238343 73.274509 98.224284 
C 72.223812 99.210226 71.633455 100.547637 71.633455 101.941969 
C 71.633455 103.336301 72.223812 104.673712 73.274509 105.659653 
C 74.325205 106.645595 75.750455 107.199569 77.236364 107.199569 
z
" clip-path="url(#p972ea6cb24)" style="fill: #6b7280; stroke: #6b7280; stroke-linejoin: miter"/>
   </g>
   <g id="patch_3">
    <path d="M 77.236364 166.347569 
C 78.722272 166.347569 80.147522 165.793595 81.198219 164.807653 
C 82.248915 163.821712 82.839273 162.484301 82.839273 161.089969 
C 82.839273 159.695637 82.248915 158.358226 81.198219 157.372284 
C 80.147522 156.386343 78.722272 155.832369 77.236364 155.832369 
C 75.750455 155.832369 74.325205 156.386343 73.274509 157.372284 
C 72.223812 158.358226 71.633455 159.695637 71.633455 161.089969 
C 71.633455 162.484301 72.223812 163.821712 73.274509 164.807653 
C 74.325205 165.793595 75.750455 166.347569 77.236364 166.347569 
z
" clip-path="url(#p972ea6cb24)" style="fill: #6b7280; stroke: #6b7280; stroke-linejoin: miter"/>
   </g>
   <g id="patch_4">
    <path d="M 77.236364 225.495569 
C 78.722272 225.495569 80.147522 224.941595 81.198219 223.955653 
C 82.248915 222.969712 82.839273 221.632301 82.839273 220.237969 
C 82.839273 218.843637 82.248915 217.506226 81.198219 216.520284 
C 80.147522 215.534343 78.722272 214.980369 77.236364 214.980369 
C 75.750455 214.980369 74.325205 215.534343 73.274509 216.520284 
C 72.223812 217.506226 71.633455 218.843637 71.633455 220.237969 
C 71.633455 221.632301 72.223812 222.969712 73.274509 223.955653 
C 74.325205 224.941595 75.750455 225.495569 77.236364 225.495569 
z
" clip-path="url(#p972ea6cb24)" style="fill: #6b7280; stroke: #6b7280; stroke-linejoin: miter"/>
   </g>
   <g id="patch_5">
    <path d="M 77.236364 284.643569 
C 78.722272 284.643569 80.147522 284.089595 81.198219 283.103653 
C 82.248915 282.117712 82.839273 280.780301 82.839273 279.385969 
C 82.839273 277.991637 82.248915 276.654226 81.198219 275.668284 
C 80.147522 274.682343 78.722272 274.128369 77.236364 274.128369 
C 75.750455 274.128369 74.325205 274.682343 73.274509 275.668284 
C 72.223812 276.654226 71.633455 277.991637 71.633455 279.385969 
C 71.633455 280.780301 72.223812 282.117712 73.274509 283.103653 
C 74.325205 284.089595 75.750455 284.643569 77.236364 284.643569 
z
" clip-path="url(#p972ea6cb24)" style="fill: #6b7280; stroke: #6b7280; stroke-linejoin: miter"/>
   </g>
   <g id="patch_6">
    <path d="M 77.236364 343.791569 
C 78.722272 343.791569 80.147522 343.237595 81.198219 342.251653 
C 82.248915 341.265712 82.839273 339.928301 82.839273 338.533969 
C 82.839273 337.139637 82.248915 335.802226 81.198219 334.816284 
C 80.147522 333.830343 78.722272 333.276369 77.236364 333.276369 
C 75.750455 333.276369 74.325205 333.830343 73.274509 334.816284 
C 72.223812 335.802226 71.633455 337.139637 71.633455 338.533969 
C 71.633455 339.928301 72.223812 341.265712 73.274509 342.251653 
C 74.325205 343.237595 75.750455 343.791569 77.236364 343.791569 
z
" clip-path="url(#p972ea6cb24)" style="fill: #6b7280; stroke: #6b7280; stroke-linejoin: miter"/>
   </g>
   <g id="patch_7">
    <path d="M 217.309091 136.773569 
C 218.795 136.773569 220.22025 136.219595 221.270946 135.233653 
C 222.321642 134.247712 222.912 132.910301 222.912 131.515969 
C 222.912 130.121637 222.321642 128.784226 221.270946 127.798284 
C 220.22025 126.812343 218.795 126.258369 217.309091 126.258369 
C 215.823182 126.258369 214.397932 126.812343 213.347236 127.798284 
C 212.29654 128.784226 211.706182 130.121637 211.706182 131.515969 
C 211.706182 132.910301 212.29654 134.247712 213.347236 135.233653 
C 214.397932 136.219595 215.823182 136.773569 217.309091 136.773569 
z
" clip-path="url(#p972ea6cb24)" style="fill: #2563eb; stroke: #2563eb; stroke-linejoin: miter"/>
   </g>
   <g id="patch_8">
    <path d="M 217.309091 195.921569 
C 218.795 195.921569 220.22025 195.367595 221.270946 194.381653 
C 222.321642 193.395712 222.912 192.058301 222.912 190.663969 
C 222.912 189.269637 222.321642 187.932226 221.270946 186.946284 
C 220.22025 185.960343 218.795 185.406369 217.309091 185.406369 
C 215.823182 185.406369 214.397932 185.960343 213.347236 186.946284 
C 212.29654 187.932226 211.706182 189.269637 211.706182 190.663969 
C 211.706182 192.058301 212.29654 193.395712 213.347236 194.381653 
C 214.397932 195.367595 215.823182 195.921569 217.309091 195.921569 
z
" clip-path="url(#p972ea6cb24)" style="fill: #2563eb; stroke: #2563eb; stroke-linejoin: miter"/>
   </g>
   <g id="patch_9">
    <path d="M 217.309091 255.069569 
C 218.795 255.069569 220.22025 254.515595 221.270946 253.529653 
C 222.321642 252.543712 222.912 251.206301 222.912 249.811969 
C 222.912 248.417637 222.321642 247.080226 221.270946 246.094284 
C 220.22025 245.108343 218.795 244.554369 217.309091 244.554369 
C 215.823182 244.554369 214.397932 245.108343 213.347236 246.094284 
C 212.29654 247.080226 211.706182 248.417637 211.706182 249.811969 
C 211.706182 251.206301 212.29654 252.543712 213.347236 253.529653 
C 214.397932 254.515595 215.823182 255.069569 217.309091 255.069569 
z
" clip-path="url(#p972ea6cb24)" style="fill: #2563eb; stroke: #2563eb; stroke-linejoin: miter"/>
   </g>
   <g id="patch_10">
    <path d="M 217.309091 314.217569 
C 218.795 314.217569 220.22025 313.663595 221.270946 312.677653 
C 222.321642 311.691712 222.912 310.354301 222.912 308.959969 
C 222.912 307.565637 222.321642 306.228226 221.270946 305.242284 
C 220.22025 304.256343 218.795 303.702369 217.309091 303.702369 
C 215.823182 303.702369 214.397932 304.256343 213.347236 305.242284 
C 212.29654 306.228226 211.706182 307.565637 211.706182 308.959969 
C 211.706182 310.354301 212.29654 311.691712 213.347236 312.677653 
C 214.397932 313.663595 215.823182 314.217569 217.309091 314.217569 
z
" clip-path="url(#p972ea6cb24)" style="fill: #2563eb; stroke: #2563eb; stroke-linejoin: miter"/>
   </g>
   <g id="patch_11">
    <path d="M 392.4 166.347569 
C 393.885909 166.347569 395.311159 165.793595 396.361855 164.807653 
C 397.412551 163.821712 398.002909 162.484301 398.002909 161.089969 
C 398.002909 159.695637 397.412551 158.358226 396.361855 157.372284 
C 395.311159 156.386343 393.885909 155.832369 392.4 155.832369 
C 390.914091 155.832369 389.488841 156.386343 388.438145 157.372284 
C 387.387449 158.358226 386.797091 159.695637 386.797091 161.089969 
C 386.797091 162.484301 387.387449 163.821712 388.438145 164.807653 
C 389.488841 165.793595 390.914091 166.347569 392.4 166.347569 
z
" clip-path="url(#p972ea6cb24)" style="fill: #2563eb; stroke: #2563eb; stroke-linejoin: miter"/>
   </g>
   <g id="patch_12">
    <path d="M 392.4 225.495569 
C 393.885909 225.495569 395.311159 224.941595 396.361855 223.955653 
C 397.412551 222.969712 398.002909 221.632301 398.002909 220.237969 
C 398.002909 218.843637 397.412551 217.506226 396.361855 216.520284 
C 395.311159 215.534343 393.885909 214.980369 392.4 214.980369 
C 390.914091 214.980369 389.488841 215.534343 388.438145 216.520284 
C 387.387449 217.506226 386.797091 218.843637 386.797091 220.237969 
C 386.797091 221.632301 387.387449 222.969712 388.438145 223.955653 
C 389.488841 224.941595 390.914091 225.495569 392.4 225.495569 
z
" clip-path="url(#p972ea6cb24)" style="fill: #2563eb; stroke: #2563eb; stroke-linejoin: miter"/>
   </g>
   <g id="patch_13">
    <path d="M 392.4 284.643569 
C 393.885909 284.643569 395.311159 284.089595 396.361855 283.103653 
C 397.412551 282.117712 398.002909 280.780301 398.002909 279.385969 
C 398.002909 277.991637 397.412551 276.654226 396.361855 275.668284 
C 395.311159 274.682343 393.885909 274.128369 392.4 274.128369 
C 390.914091 274.128369 389.488841 274.682343 388.438145 275.668284 
C 387.387449 276.654226 386.797091 277.991637 386.797091 279.385969 
C 386.797091 280.780301 387.387449 282.117712 388.438145 283.103653 
C 389.488841 284.089595 390.914091 284.643569 392.4 284.643569 
z
" clip-path="url(#p972ea6cb24)" style="fill: #2563eb; stroke: #2563eb; stroke-linejoin: miter"/>
   </g>
   <g id="patch_14">
    <path d="M 567.490909 195.921569 
C 568.976818 195.921569 570.402068 195.367595 571.452764 194.381653 
C 572.50346 193.395712 573.093818 192.058301 573.093818 190.663969 
C 573.093818 189.269637 572.50346 187.932226 571.452764 186.946284 
C 570.402068 185.960343 568.976818 185.406369 567.490909 185.406369 
C 566.005 185.406369 564.57975 185.960343 563.529054 186.946284 
C 562.478358 187.932226 561.888 189.269637 561.888 190.663969 
C 561.888 192.058301 562.478358 193.395712 563.529054 194.381653 
C 564.57975 195.367595 566.005 195.921569 567.490909 195.921569 
z
" clip-path="url(#p972ea6cb24)" style="fill: #2563eb; stroke: #2563eb; stroke-linejoin: miter"/>
   </g>
   <g id="patch_15">
    <path d="M 567.490909 255.069569 
C 568.976818 255.069569 570.402068 254.515595 571.452764 253.529653 
C 572.50346 252.543712 573.093818 251.206301 573.093818 249.811969 
C 573.093818 248.417637 572.50346 247.080226 571.452764 246.094284 
C 570.402068 245.108343 568.976818 244.554369 567.490909 244.554369 
C 566.005 244.554369 564.57975 245.108343 563.529054 246.094284 
C 562.478358 247.080226 561.888 248.417637 561.888 249.811969 
C 561.888 251.206301 562.478358 252.543712 563.529054 253.529653 
C 564.57975 254.515595 566.005 255.069569 567.490909 255.069569 
z
" clip-path="url(#p972ea6cb24)" style="fill: #2563eb; stroke: #2563eb; stroke-linejoin: miter"/>
   </g>
   <g id="patch_16">
    <path d="M 707.563636 225.495569 
C 709.049545 225.495569 710.474795 224.941595 711.525491 223.955653 
C 712.576188 222.969712 713.166545 221.632301 713.166545 220.237969 
C 713.166545 218.843637 712.576188 217.506226 711.525491 216.520284 
C 710.474795 215.534343 709.049545 214.980369 707.563636 214.980369 
C 706.077728 214.980369 704.652478 215.534343 703.601781 216.520284 
C 702.551085 217.506226 701.960727 218.843637 701.960727 220.237969 
C 701.960727 221.632301 702.551085 222.969712 703.601781 223.955653 
C 704.652478 224.941595 706.077728 225.495569 707.563636 225.495569 
z
" clip-path="url(#p972ea6cb24)" style="fill: #16a34a; stroke: #16a34a; stroke-linejoin: miter"/>
   </g>
   <g id="patch_17">
    <path d="M 39.416727 409.840169 
L 115.056 409.840169 
Q 123.460364 409.840169 123.460364 401.953769 
L 123.460364 360.550169 
Q 123.460364 352.663769 115.056 352.663769 
L 39.416727 352.663769 
Q 31.012364 352.663769 31.012364 360.550169 
L 31.012364 401.953769 
Q 31.012364 409.840169 39.416727 409.840169 
z
" clip-path="url(#p972ea6cb24)" style="fill: #f3f4f6; stroke: #6b7280; stroke-width: 1.5; stroke-linejoin: miter"/>
   </g>
   <g id="patch_18">
    <path d="M 179.489455 409.840169 
L 255.128727 409.840169 
Q 263.533091 409.840169 263.533091 401.953769 
L 263.533091 360.550169 
Q 263.533091 352.663769 255.128727 352.663769 
L 179.489455 352.663769 
Q 171.085091 352.663769 171.085091 360.550169 
L 171.085091 401.953769 
Q 171.085091 409.840169 179.489455 409.840169 
z
" clip-path="url(#p972ea6cb24)" style="fill: #dbeafe; stroke: #2563eb; stroke-width: 1.5; stroke-linejoin: miter"/>
   </g>
   <g id="patch_19">
    <path d="M 354.580364 409.840169 
L 430.219636 409.840169 
Q 438.624 409.840169 438.624 401.953769 
L 438.624 360.550169 
Q 438.624 352.663769 430.219636 352.663769 
L 354.580364 352.663769 
Q 346.176 352.663769 346.176 360.550169 
L 346.176 401.953769 
Q 346.176 409.840169 354.580364 409.840169 
z
" clip-path="url(#p972ea6cb24)" style="fill: #dbeafe; stroke: #2563eb; stroke-width: 1.5; stroke-linejoin: miter"/>
   </g>
   <g id="patch_20">
    <path d="M 529.671273 409.840169 
L 605.310545 409.840169 
Q 613.714909 409.840169 613.714909 401.953769 
L 613.714909 360.550169 
Q 613.714909 352.663769 605.310545 352.663769 
L 529.671273 352.663769 
Q 521.266909 352.663769 521.266909 360.550169 
L 521.266909 401.953769 
Q 521.266909 409.840169 529.671273 409.840169 
z
" clip-path="url(#p972ea6cb24)" style="fill: #dbeafe; stroke: #2563eb; stroke-width: 1.5; stroke-linejoin: miter"/>
   </g>
   <g id="patch_21">
    <path d="M 669.744 409.840169 
L 745.383273 409.840169 
Q 753.787636 409.840169 753.787636 401.953769 
L 753.787636 360.550169 
Q 753.787636 352.663769 745.383273 352.663769 
L 669.744 352.663769 
Q 661.339636 352.663769 661.339636 360.550169 
L 661.339636 401.953769 
Q 661.339636 409.840169 669.744 409.840169 
z
" clip-path="url(#p972ea6cb24)" style="fill: #dcfce7; stroke: #16a34a; stroke-width: 1.5; stroke-linejoin: miter"/>
   </g>
   <g id="text_1">
    <!-- Dropout(0.5) -->
    <g style="fill: #dc2626" transform="translate(193.173739 55.937969) scale(0.075 -0.075)">
     <defs>
      <path id="DejaVuSans-Oblique-44" d="M 1081 4666 
L 2438 4666 
Q 3519 4666 4070 4208 
Q 4622 3750 4622 2847 
Q 4622 2250 4412 1698 
Q 4203 1147 3834 769 
Q 3463 381 2891 190 
Q 2319 0 1538 0 
L 172 0 
L 1081 4666 
z
M 1613 4147 
L 909 519 
L 1734 519 
Q 2794 519 3375 1128 
Q 3956 1738 3956 2847 
Q 3956 3519 3581 3833 
Q 3206 4147 2406 4147 
L 1613 4147 
z
" transform="scale(0.015625)"/>
      <path id="DejaVuSans-Oblique-72" d="M 2853 2969 
Q 2766 3016 2653 3041 
Q 2541 3066 2413 3066 
Q 1953 3066 1609 2717 
Q 1266 2369 1153 1784 
L 800 0 
L 225 0 
L 909 3500 
L 1484 3500 
L 1375 2956 
Q 1603 3259 1920 3421 
Q 2238 3584 2597 3584 
Q 2691 3584 2781 3573 
Q 2872 3563 2963 3538 
L 2853 2969 
z
" transform="scale(0.015625)"/>
      <path id="DejaVuSans-Oblique-6f" d="M 1625 -91 
Q 1009 -91 651 289 
Q 294 669 294 1325 
Q 294 1706 417 2101 
Q 541 2497 738 2766 
Q 1047 3184 1428 3384 
Q 1809 3584 2291 3584 
Q 2888 3584 3255 3212 
Q 3622 2841 3622 2241 
Q 3622 1825 3500 1412 
Q 3378 1000 3181 728 
Q 2875 309 2494 109 
Q 2113 -91 1625 -91 
z
M 891 1344 
Q 891 869 1089 633 
Q 1288 397 1691 397 
Q 2269 397 2648 901 
Q 3028 1406 3028 2181 
Q 3028 2634 2825 2865 
Q 2622 3097 2228 3097 
Q 1903 3097 1650 2945 
Q 1397 2794 1197 2484 
Q 1050 2253 970 1956 
Q 891 1659 891 1344 
z
" transform="scale(0.015625)"/>
      <path id="DejaVuSans-Oblique-70" d="M 3175 2156 
Q 3175 2616 2975 2859 
Q 2775 3103 2400 3103 
Q 2144 3103 1911 2972 
Q 1678 2841 1497 2591 
Q 1319 2344 1212 1994 
Q 1106 1644 1106 1300 
Q 1106 863 1306 627 
Q 1506 391 1875 391 
Q 2147 391 2380 519 
Q 2613 647 2778 891 
Q 2956 1147 3065 1494 
Q 3175 1841 3175 2156 
z
M 1394 2969 
Q 1625 3272 1939 3428 
Q 2253 3584 2638 3584 
Q 3175 3584 3472 3232 
Q 3769 2881 3769 2247 
Q 3769 1728 3584 1258 
Q 3400 788 3053 416 
Q 2822 169 2531 39 
Q 2241 -91 1919 -91 
Q 1547 -91 1294 64 
Q 1041 219 916 525 
L 556 -1331 
L -19 -1331 
L 922 3500 
L 1497 3500 
L 1394 2969 
z
" transform="scale(0.015625)"/>
      <path id="DejaVuSans-Oblique-75" d="M 428 1388 
L 838 3500 
L 1416 3500 
L 1006 1409 
Q 975 1256 961 1147 
Q 947 1038 947 966 
Q 947 700 1109 554 
Q 1272 409 1569 409 
Q 2031 409 2368 721 
Q 2706 1034 2809 1563 
L 3194 3500 
L 3769 3500 
L 3091 0 
L 2516 0 
L 2631 550 
Q 2388 244 2052 76 
Q 1716 -91 1338 -91 
Q 878 -91 622 161 
Q 366 413 366 863 
Q 366 956 381 1097 
Q 397 1238 428 1388 
z
" transform="scale(0.015625)"/>
      <path id="DejaVuSans-Oblique-74" d="M 2706 3500 
L 2619 3053 
L 1472 3053 
L 1100 1153 
Q 1081 1047 1072 975 
Q 1063 903 1063 863 
Q 1063 663 1183 572 
Q 1303 481 1569 481 
L 2150 481 
L 2053 0 
L 1503 0 
Q 991 0 739 200 
Q 488 400 488 806 
Q 488 878 497 964 
Q 506 1050 525 1153 
L 897 3053 
L 409 3053 
L 500 3500 
L 978 3500 
L 1172 4494 
L 1747 4494 
L 1556 3500 
L 2706 3500 
z
" transform="scale(0.015625)"/>
      <path id="DejaVuSans-Oblique-28" d="M 2731 4856 
Q 1903 3822 1495 2892 
Q 1088 1963 1088 1100 
Q 1088 606 1206 120 
Q 1325 -366 1563 -844 
L 1063 -844 
Q 775 -306 634 201 
Q 494 709 494 1197 
Q 494 2125 923 3036 
Q 1353 3947 2222 4856 
L 2731 4856 
z
" transform="scale(0.015625)"/>
      <path id="DejaVuSans-Oblique-30" d="M 2444 4750 
Q 3078 4750 3414 4328 
Q 3750 3906 3750 3116 
Q 3750 2516 3592 1923 
Q 3434 1331 3150 863 
Q 2859 394 2467 151 
Q 2075 -91 1600 -91 
Q 988 -91 653 334 
Q 319 759 319 1544 
Q 319 2138 480 2733 
Q 641 3328 928 3794 
Q 1216 4263 1602 4506 
Q 1988 4750 2444 4750 
z
M 2406 4250 
Q 2169 4250 1955 4123 
Q 1741 3997 1569 3750 
Q 1281 3338 1111 2720 
Q 941 2103 941 1453 
Q 941 938 1123 673 
Q 1306 409 1663 409 
Q 1913 409 2125 536 
Q 2338 663 2509 909 
Q 2794 1319 2961 1936 
Q 3128 2553 3128 3206 
Q 3128 3722 2945 3986 
Q 2763 4250 2406 4250 
z
" transform="scale(0.015625)"/>
      <path id="DejaVuSans-Oblique-2e" d="M 525 794 
L 1184 794 
L 1031 0 
L 372 0 
L 525 794 
z
" transform="scale(0.015625)"/>
      <path id="DejaVuSans-Oblique-35" d="M 3719 4666 
L 3622 4141 
L 1691 4141 
L 1466 2988 
Q 1609 3034 1757 3056 
Q 1906 3078 2059 3078 
Q 2706 3078 3081 2731 
Q 3456 2384 3456 1791 
Q 3456 1375 3264 994 
Q 3072 613 2719 325 
Q 2469 125 2108 17 
Q 1747 -91 1319 -91 
Q 1038 -91 744 -41 
Q 450 9 128 109 
L 244 697 
Q 531 556 820 486 
Q 1109 416 1403 416 
Q 2013 416 2411 781 
Q 2809 1147 2809 1697 
Q 2809 2103 2548 2328 
Q 2288 2553 1819 2553 
Q 1572 2553 1305 2495 
Q 1038 2438 756 2322 
L 1209 4666 
L 3719 4666 
z
" transform="scale(0.015625)"/>
      <path id="DejaVuSans-Oblique-29" d="M -397 -844 
Q 434 191 840 1120 
Q 1247 2050 1247 2913 
Q 1247 3406 1130 3892 
Q 1013 4378 775 4856 
L 1275 4856 
Q 1563 4316 1703 3812 
Q 1844 3309 1844 2822 
Q 1844 1891 1411 973 
Q 978 56 116 -844 
L -397 -844 
z
" transform="scale(0.015625)"/>
     </defs>
     <use xlink:href="#DejaVuSans-Oblique-44"/>
     <use xlink:href="#DejaVuSans-Oblique-72" x="77.001953"/>
     <use xlink:href="#DejaVuSans-Oblique-6f" x="118.115234"/>
     <use xlink:href="#DejaVuSans-Oblique-70" x="179.296875"/>
     <use xlink:href="#DejaVuSans-Oblique-6f" x="242.773438"/>
     <use xlink:href="#DejaVuSans-Oblique-75" x="303.955078"/>
     <use xlink:href="#DejaVuSans-Oblique-74" x="367.333984"/>
     <use xlink:href="#DejaVuSans-Oblique-28" x="406.542969"/>
     <use xlink:href="#DejaVuSans-Oblique-30" x="445.556641"/>
     <use xlink:href="#DejaVuSans-Oblique-2e" x="509.179688"/>
     <use xlink:href="#DejaVuSans-Oblique-35" x="540.966797"/>
     <use xlink:href="#DejaVuSans-Oblique-29" x="604.589844"/>
    </g>
   </g>
   <g id="text_2">
    <!-- Dropout(0.5) -->
    <g style="fill: #dc2626" transform="translate(368.264648 55.937969) scale(0.075 -0.075)">
     <use xlink:href="#DejaVuSans-Oblique-44"/>
     <use xlink:href="#DejaVuSans-Oblique-72" x="77.001953"/>
     <use xlink:href="#DejaVuSans-Oblique-6f" x="118.115234"/>
     <use xlink:href="#DejaVuSans-Oblique-70" x="179.296875"/>
     <use xlink:href="#DejaVuSans-Oblique-6f" x="242.773438"/>
     <use xlink:href="#DejaVuSans-Oblique-75" x="303.955078"/>
     <use xlink:href="#DejaVuSans-Oblique-74" x="367.333984"/>
     <use xlink:href="#DejaVuSans-Oblique-28" x="406.542969"/>
     <use xlink:href="#DejaVuSans-Oblique-30" x="445.556641"/>
     <use xlink:href="#DejaVuSans-Oblique-2e" x="509.179688"/>
     <use xlink:href="#DejaVuSans-Oblique-35" x="540.966797"/>
     <use xlink:href="#DejaVuSans-Oblique-29" x="604.589844"/>
    </g>
   </g>
   <g id="text_3">
    <!-- Dropout(0.5) -->
    <g style="fill: #dc2626" transform="translate(543.355558 55.937969) scale(0.075 -0.075)">
     <use xlink:href="#DejaVuSans-Oblique-44"/>
     <use xlink:href="#DejaVuSans-Oblique-72" x="77.001953"/>
     <use xlink:href="#DejaVuSans-Oblique-6f" x="118.115234"/>
     <use xlink:href="#DejaVuSans-Oblique-70" x="179.296875"/>
     <use xlink:href="#DejaVuSans-Oblique-6f" x="242.773438"/>
     <use xlink:href="#DejaVuSans-Oblique-75" x="303.955078"/>
     <use xlink:href="#DejaVuSans-Oblique-74" x="367.333984"/>
     <use xlink:href="#DejaVuSans-Oblique-28" x="406.542969"/>
     <use xlink:href="#DejaVuSans-Oblique-30" x="445.556641"/>
     <use xlink:href="#DejaVuSans-Oblique-2e" x="509.179688"/>
     <use xlink:href="#DejaVuSans-Oblique-35" x="540.966797"/>
     <use xlink:href="#DejaVuSans-Oblique-29" x="604.589844"/>
    </g>
   </g>
   <g id="patch_22">
    <path d="M 89.743865 213.665969 
Q 147.27527 213.665969 203.688642 213.665969 
" style="fill: none; stroke: #475569; stroke-linecap: round"/>
    <path d="M 200.488642 212.065969 
L 203.688642 213.665969 
L 200.488642 215.265969 
z
" style="fill: #475569; stroke: #475569; stroke-linecap: round"/>
   </g>
   <g id="patch_23">
    <path d="M 229.812959 213.665969 
Q 304.853582 213.665969 378.776171 213.665969 
" style="fill: none; stroke: #475569; stroke-linecap: round"/>
    <path d="M 375.576171 212.065969 
L 378.776171 213.665969 
L 375.576171 215.265969 
z
" style="fill: #475569; stroke: #475569; stroke-linecap: round"/>
   </g>
   <g id="patch_24">
    <path d="M 404.903868 213.665969 
Q 479.944491 213.665969 553.86708 213.665969 
" style="fill: none; stroke: #475569; stroke-linecap: round"/>
    <path d="M 550.66708 212.065969 
L 553.86708 213.665969 
L 550.66708 215.265969 
z
" style="fill: #475569; stroke: #475569; stroke-linecap: round"/>
   </g>
   <g id="patch_25">
    <path d="M 579.99841 213.665969 
Q 637.529816 213.665969 693.943187 213.665969 
" style="fill: none; stroke: #475569; stroke-linecap: round"/>
    <path d="M 690.743187 212.065969 
L 693.943187 213.665969 
L 690.743187 215.265969 
z
" style="fill: #475569; stroke: #475569; stroke-linecap: round"/>
   </g>
   <g id="text_4">
    <!-- 28×28 → flatten → FC layers → 10 classes -->
    <g style="fill: #475569" transform="translate(298.307109 41.479569) scale(0.09 -0.09)">
     <defs>
      <path id="DejaVuSans-Oblique-32" d="M 2950 2253 
L 934 525 
L 3163 525 
L 3053 0 
L 25 0 
L 128 531 
L 2234 2338 
Q 2656 2703 2832 2979 
Q 3009 3256 3009 3547 
Q 3009 3850 2796 4040 
Q 2584 4231 2241 4231 
Q 1944 4231 1581 4125 
Q 1219 4019 806 3816 
L 922 4441 
Q 1309 4594 1662 4672 
Q 2016 4750 2316 4750 
Q 2928 4750 3301 4425 
Q 3675 4100 3675 3572 
Q 3675 3216 3497 2892 
Q 3319 2569 2950 2253 
z
" transform="scale(0.015625)"/>
      <path id="DejaVuSans-Oblique-38" d="M 2847 1416 
Q 2847 1769 2600 1992 
Q 2353 2216 1953 2216 
Q 1466 2216 1148 1923 
Q 831 1631 831 1184 
Q 831 828 1073 618 
Q 1316 409 1728 409 
Q 2219 409 2533 693 
Q 2847 978 2847 1416 
z
M 3169 3591 
Q 3169 3888 2950 4069 
Q 2731 4250 2369 4250 
Q 1941 4250 1664 4009 
Q 1388 3769 1388 3406 
Q 1388 3094 1605 2903 
Q 1822 2713 2181 2713 
Q 2613 2713 2891 2961 
Q 3169 3209 3169 3591 
z
M 2741 2456 
Q 3094 2322 3281 2050 
Q 3469 1778 3469 1394 
Q 3469 747 2969 328 
Q 2469 -91 1678 -91 
Q 1006 -91 609 239 
Q 213 569 213 1119 
Q 213 1619 553 2008 
Q 894 2397 1441 2503 
Q 1113 2616 941 2852 
Q 769 3088 769 3425 
Q 769 3991 1239 4370 
Q 1709 4750 2431 4750 
Q 3034 4750 3414 4442 
Q 3794 4134 3794 3659 
Q 3794 3247 3511 2923 
Q 3228 2600 2741 2456 
z
" transform="scale(0.015625)"/>
      <path id="DejaVuSans-Oblique-d7" d="M 4488 3438 
L 3059 2003 
L 4488 575 
L 4116 197 
L 2681 1631 
L 1247 197 
L 878 575 
L 2303 2003 
L 878 3438 
L 1247 3816 
L 2681 2381 
L 4116 3816 
L 4488 3438 
z
" transform="scale(0.015625)"/>
      <path id="DejaVuSans-Oblique-20" transform="scale(0.015625)"/>
      <path id="DejaVuSans-Oblique-2192" d="M 5050 2147 
L 5050 1866 
L 3822 638 
L 3447 1013 
L 4175 1741 
L 366 1741 
L 366 2272 
L 4175 2272 
L 3447 3000 
L 3822 3375 
L 5050 2147 
z
" transform="scale(0.015625)"/>
      <path id="DejaVuSans-Oblique-66" d="M 3059 4863 
L 2969 4384 
L 2419 4384 
Q 2106 4384 1964 4261 
Q 1822 4138 1753 3809 
L 1691 3500 
L 2638 3500 
L 2553 3053 
L 1606 3053 
L 1013 0 
L 434 0 
L 1031 3053 
L 481 3053 
L 563 3500 
L 1113 3500 
L 1159 3744 
Q 1278 4363 1576 4613 
Q 1875 4863 2516 4863 
L 3059 4863 
z
" transform="scale(0.015625)"/>
      <path id="DejaVuSans-Oblique-6c" d="M 1172 4863 
L 1747 4863 
L 800 0 
L 225 0 
L 1172 4863 
z
" transform="scale(0.015625)"/>
      <path id="DejaVuSans-Oblique-61" d="M 3438 1997 
L 3047 0 
L 2472 0 
L 2578 531 
Q 2325 219 2001 64 
Q 1678 -91 1281 -91 
Q 834 -91 548 182 
Q 263 456 263 884 
Q 263 1497 752 1853 
Q 1241 2209 2100 2209 
L 2900 2209 
L 2931 2363 
Q 2938 2388 2941 2417 
Q 2944 2447 2944 2509 
Q 2944 2788 2717 2942 
Q 2491 3097 2081 3097 
Q 1800 3097 1504 3025 
Q 1209 2953 897 2809 
L 997 3341 
Q 1322 3463 1633 3523 
Q 1944 3584 2234 3584 
Q 2853 3584 3176 3315 
Q 3500 3047 3500 2534 
Q 3500 2431 3484 2292 
Q 3469 2153 3438 1997 
z
M 2816 1759 
L 2241 1759 
Q 1534 1759 1195 1570 
Q 856 1381 856 984 
Q 856 709 1029 553 
Q 1203 397 1509 397 
Q 1978 397 2328 733 
Q 2678 1069 2791 1631 
L 2816 1759 
z
" transform="scale(0.015625)"/>
      <path id="DejaVuSans-Oblique-65" d="M 3078 2063 
Q 3088 2113 3092 2166 
Q 3097 2219 3097 2272 
Q 3097 2653 2873 2875 
Q 2650 3097 2266 3097 
Q 1838 3097 1509 2826 
Q 1181 2556 1013 2059 
L 3078 2063 
z
M 3578 1613 
L 903 1613 
Q 884 1494 878 1425 
Q 872 1356 872 1306 
Q 872 872 1139 634 
Q 1406 397 1894 397 
Q 2269 397 2603 481 
Q 2938 566 3225 728 
L 3116 159 
Q 2806 34 2476 -28 
Q 2147 -91 1806 -91 
Q 1078 -91 686 257 
Q 294 606 294 1247 
Q 294 1794 489 2264 
Q 684 2734 1063 3103 
Q 1306 3334 1642 3459 
Q 1978 3584 2356 3584 
Q 2950 3584 3301 3228 
Q 3653 2872 3653 2272 
Q 3653 2128 3634 1964 
Q 3616 1800 3578 1613 
z
" transform="scale(0.015625)"/>
      <path id="DejaVuSans-Oblique-6e" d="M 3566 2113 
L 3156 0 
L 2578 0 
L 2988 2091 
Q 3016 2238 3031 2350 
Q 3047 2463 3047 2528 
Q 3047 2791 2881 2937 
Q 2716 3084 2419 3084 
Q 1956 3084 1622 2776 
Q 1288 2469 1184 1941 
L 800 0 
L 225 0 
L 903 3500 
L 1478 3500 
L 1363 2950 
Q 1603 3253 1940 3418 
Q 2278 3584 2650 3584 
Q 3113 3584 3367 3334 
Q 3622 3084 3622 2631 
Q 3622 2519 3608 2391 
Q 3594 2263 3566 2113 
z
" transform="scale(0.015625)"/>
      <path id="DejaVuSans-Oblique-46" d="M 1081 4666 
L 3756 4666 
L 3653 4134 
L 1606 4134 
L 1338 2759 
L 3188 2759 
L 3084 2228 
L 1234 2228 
L 800 0 
L 172 0 
L 1081 4666 
z
" transform="scale(0.015625)"/>
      <path id="DejaVuSans-Oblique-43" d="M 4447 4306 
L 4319 3641 
Q 4019 3944 3683 4091 
Q 3347 4238 2956 4238 
Q 2422 4238 2017 3981 
Q 1613 3725 1319 3200 
Q 1131 2863 1032 2486 
Q 934 2109 934 1728 
Q 934 1091 1264 756 
Q 1594 422 2222 422 
Q 2656 422 3056 561 
Q 3456 700 3834 978 
L 3688 231 
Q 3316 72 2936 -9 
Q 2556 -91 2175 -91 
Q 1278 -91 773 396 
Q 269 884 269 1753 
Q 269 2309 461 2846 
Q 653 3384 1013 3828 
Q 1394 4300 1883 4525 
Q 2372 4750 3022 4750 
Q 3422 4750 3780 4639 
Q 4138 4528 4447 4306 
z
" transform="scale(0.015625)"/>
      <path id="DejaVuSans-Oblique-79" d="M 1588 -325 
Q 1188 -997 936 -1164 
Q 684 -1331 294 -1331 
L -159 -1331 
L -63 -850 
L 269 -850 
Q 509 -850 678 -719 
Q 847 -588 1056 -206 
L 1234 128 
L 459 3500 
L 1069 3500 
L 1650 819 
L 3256 3500 
L 3859 3500 
L 1588 -325 
z
" transform="scale(0.015625)"/>
      <path id="DejaVuSans-Oblique-73" d="M 3200 3397 
L 3091 2853 
Q 2863 2978 2609 3040 
Q 2356 3103 2088 3103 
Q 1634 3103 1373 2948 
Q 1113 2794 1113 2528 
Q 1113 2219 1719 2053 
Q 1766 2041 1788 2034 
L 1972 1978 
Q 2547 1819 2739 1644 
Q 2931 1469 2931 1166 
Q 2931 609 2489 259 
Q 2047 -91 1331 -91 
Q 1053 -91 747 -37 
Q 441 16 72 128 
L 184 722 
Q 500 559 806 475 
Q 1113 391 1394 391 
Q 1816 391 2080 572 
Q 2344 753 2344 1031 
Q 2344 1331 1650 1516 
L 1591 1531 
L 1394 1581 
Q 956 1697 753 1886 
Q 550 2075 550 2369 
Q 550 2928 970 3256 
Q 1391 3584 2113 3584 
Q 2397 3584 2667 3537 
Q 2938 3491 3200 3397 
z
" transform="scale(0.015625)"/>
      <path id="DejaVuSans-Oblique-31" d="M 416 531 
L 1447 531 
L 2144 4122 
L 978 3897 
L 1088 4441 
L 2247 4666 
L 2881 4666 
L 2075 531 
L 3103 531 
L 3003 0 
L 313 0 
L 416 531 
z
" transform="scale(0.015625)"/>
      <path id="DejaVuSans-Oblique-63" d="M 3431 3366 
L 3316 2797 
Q 3109 2947 2876 3022 
Q 2644 3097 2394 3097 
Q 2119 3097 1870 3000 
Q 1622 2903 1453 2725 
Q 1184 2453 1037 2087 
Q 891 1722 891 1331 
Q 891 859 1127 628 
Q 1363 397 1844 397 
Q 2081 397 2348 469 
Q 2616 541 2906 684 
L 2797 116 
Q 2547 13 2283 -39 
Q 2019 -91 1741 -91 
Q 1044 -91 669 257 
Q 294 606 294 1253 
Q 294 1797 489 2255 
Q 684 2713 1069 3078 
Q 1331 3328 1684 3456 
Q 2038 3584 2456 3584 
Q 2700 3584 2940 3529 
Q 3181 3475 3431 3366 
z
" transform="scale(0.015625)"/>
     </defs>
     <use xlink:href="#DejaVuSans-Oblique-32"/>
     <use xlink:href="#DejaVuSans-Oblique-38" x="63.623047"/>
     <use xlink:href="#DejaVuSans-Oblique-d7" x="127.246094"/>
     <use xlink:href="#DejaVuSans-Oblique-32" x="211.035156"/>
     <use xlink:href="#DejaVuSans-Oblique-38" x="274.658203"/>
     <use xlink:href="#DejaVuSans-Oblique-20" x="338.28125"/>
     <use xlink:href="#DejaVuSans-Oblique-2192" x="370.068359"/>
     <use xlink:href="#DejaVuSans-Oblique-20" x="453.857422"/>
     <use xlink:href="#DejaVuSans-Oblique-66" x="485.644531"/>
     <use xlink:href="#DejaVuSans-Oblique-6c" x="520.849609"/>
     <use xlink:href="#DejaVuSans-Oblique-61" x="548.632812"/>
     <use xlink:href="#DejaVuSans-Oblique-74" x="609.912109"/>
     <use xlink:href="#DejaVuSans-Oblique-74" x="649.121094"/>
     <use xlink:href="#DejaVuSans-Oblique-65" x="688.330078"/>
     <use xlink:href="#DejaVuSans-Oblique-6e" x="749.853516"/>
     <use xlink:href="#DejaVuSans-Oblique-20" x="813.232422"/>
     <use xlink:href="#DejaVuSans-Oblique-2192" x="845.019531"/>
     <use xlink:href="#DejaVuSans-Oblique-20" x="928.808594"/>
     <use xlink:href="#DejaVuSans-Oblique-46" x="960.595703"/>
     <use xlink:href="#DejaVuSans-Oblique-43" x="1018.115234"/>
     <use xlink:href="#DejaVuSans-Oblique-20" x="1087.939453"/>
     <use xlink:href="#DejaVuSans-Oblique-6c" x="1119.726562"/>
     <use xlink:href="#DejaVuSans-Oblique-61" x="1147.509766"/>
     <use xlink:href="#DejaVuSans-Oblique-79" x="1208.789062"/>
     <use xlink:href="#DejaVuSans-Oblique-65" x="1267.96875"/>
     <use xlink:href="#DejaVuSans-Oblique-72" x="1329.492188"/>
     <use xlink:href="#DejaVuSans-Oblique-73" x="1370.605469"/>
     <use xlink:href="#DejaVuSans-Oblique-20" x="1422.705078"/>
     <use xlink:href="#DejaVuSans-Oblique-2192" x="1454.492188"/>
     <use xlink:href="#DejaVuSans-Oblique-20" x="1538.28125"/>
     <use xlink:href="#DejaVuSans-Oblique-31" x="1570.068359"/>
     <use xlink:href="#DejaVuSans-Oblique-30" x="1633.691406"/>
     <use xlink:href="#DejaVuSans-Oblique-20" x="1697.314453"/>
     <use xlink:href="#DejaVuSans-Oblique-63" x="1729.101562"/>
     <use xlink:href="#DejaVuSans-Oblique-6c" x="1784.082031"/>
     <use xlink:href="#DejaVuSans-Oblique-61" x="1811.865234"/>
     <use xlink:href="#DejaVuSans-Oblique-73" x="1873.144531"/>
     <use xlink:href="#DejaVuSans-Oblique-73" x="1925.244141"/>
     <use xlink:href="#DejaVuSans-Oblique-65" x="1977.34375"/>
     <use xlink:href="#DejaVuSans-Oblique-73" x="2038.867188"/>
    </g>
   </g>
   <g id="text_5">
    <!-- Fully Connected Network for MNIST Classification -->
    <g style="fill: #0f172a" transform="translate(210.760547 17.077969) scale(0.13 -0.13)">
     <defs>
      <path id="DejaVuSans-Bold-46" d="M 588 4666 
L 3834 4666 
L 3834 3756 
L 1791 3756 
L 1791 2888 
L 3713 2888 
L 3713 1978 
L 1791 1978 
L 1791 0 
L 588 0 
L 588 4666 
z
" transform="scale(0.015625)"/>
      <path id="DejaVuSans-Bold-75" d="M 500 1363 
L 500 3500 
L 1625 3500 
L 1625 3150 
Q 1625 2866 1622 2436 
Q 1619 2006 1619 1863 
Q 1619 1441 1641 1255 
Q 1663 1069 1716 984 
Q 1784 875 1895 815 
Q 2006 756 2150 756 
Q 2500 756 2700 1025 
Q 2900 1294 2900 1772 
L 2900 3500 
L 4019 3500 
L 4019 0 
L 2900 0 
L 2900 506 
Q 2647 200 2364 54 
Q 2081 -91 1741 -91 
Q 1134 -91 817 281 
Q 500 653 500 1363 
z
" transform="scale(0.015625)"/>
      <path id="DejaVuSans-Bold-6c" d="M 538 4863 
L 1656 4863 
L 1656 0 
L 538 0 
L 538 4863 
z
" transform="scale(0.015625)"/>
      <path id="DejaVuSans-Bold-79" d="M 78 3500 
L 1197 3500 
L 2138 1125 
L 2938 3500 
L 4056 3500 
L 2584 -331 
Q 2363 -916 2067 -1148 
Q 1772 -1381 1288 -1381 
L 641 -1381 
L 641 -647 
L 991 -647 
Q 1275 -647 1404 -556 
Q 1534 -466 1606 -231 
L 1638 -134 
L 78 3500 
z
" transform="scale(0.015625)"/>
      <path id="DejaVuSans-Bold-20" transform="scale(0.015625)"/>
      <path id="DejaVuSans-Bold-43" d="M 4288 256 
Q 3956 84 3597 -3 
Q 3238 -91 2847 -91 
Q 1681 -91 1000 561 
Q 319 1213 319 2328 
Q 319 3447 1000 4098 
Q 1681 4750 2847 4750 
Q 3238 4750 3597 4662 
Q 3956 4575 4288 4403 
L 4288 3438 
Q 3953 3666 3628 3772 
Q 3303 3878 2944 3878 
Q 2300 3878 1931 3465 
Q 1563 3053 1563 2328 
Q 1563 1606 1931 1193 
Q 2300 781 2944 781 
Q 3303 781 3628 887 
Q 3953 994 4288 1222 
L 4288 256 
z
" transform="scale(0.015625)"/>
      <path id="DejaVuSans-Bold-6f" d="M 2203 2784 
Q 1831 2784 1636 2517 
Q 1441 2250 1441 1747 
Q 1441 1244 1636 976 
Q 1831 709 2203 709 
Q 2569 709 2762 976 
Q 2956 1244 2956 1747 
Q 2956 2250 2762 2517 
Q 2569 2784 2203 2784 
z
M 2203 3584 
Q 3106 3584 3614 3096 
Q 4122 2609 4122 1747 
Q 4122 884 3614 396 
Q 3106 -91 2203 -91 
Q 1297 -91 786 396 
Q 275 884 275 1747 
Q 275 2609 786 3096 
Q 1297 3584 2203 3584 
z
" transform="scale(0.015625)"/>
      <path id="DejaVuSans-Bold-6e" d="M 4056 2131 
L 4056 0 
L 2931 0 
L 2931 347 
L 2931 1631 
Q 2931 2084 2911 2256 
Q 2891 2428 2841 2509 
Q 2775 2619 2662 2680 
Q 2550 2741 2406 2741 
Q 2056 2741 1856 2470 
Q 1656 2200 1656 1722 
L 1656 0 
L 538 0 
L 538 3500 
L 1656 3500 
L 1656 2988 
Q 1909 3294 2193 3439 
Q 2478 3584 2822 3584 
Q 3428 3584 3742 3212 
Q 4056 2841 4056 2131 
z
" transform="scale(0.015625)"/>
      <path id="DejaVuSans-Bold-65" d="M 4031 1759 
L 4031 1441 
L 1416 1441 
Q 1456 1047 1700 850 
Q 1944 653 2381 653 
Q 2734 653 3104 758 
Q 3475 863 3866 1075 
L 3866 213 
Q 3469 63 3072 -14 
Q 2675 -91 2278 -91 
Q 1328 -91 801 392 
Q 275 875 275 1747 
Q 275 2603 792 3093 
Q 1309 3584 2216 3584 
Q 3041 3584 3536 3087 
Q 4031 2591 4031 1759 
z
M 2881 2131 
Q 2881 2450 2695 2645 
Q 2509 2841 2209 2841 
Q 1884 2841 1681 2658 
Q 1478 2475 1428 2131 
L 2881 2131 
z
" transform="scale(0.015625)"/>
      <path id="DejaVuSans-Bold-63" d="M 3366 3391 
L 3366 2478 
Q 3138 2634 2908 2709 
Q 2678 2784 2431 2784 
Q 1963 2784 1702 2511 
Q 1441 2238 1441 1747 
Q 1441 1256 1702 982 
Q 1963 709 2431 709 
Q 2694 709 2930 787 
Q 3166 866 3366 1019 
L 3366 103 
Q 3103 6 2833 -42 
Q 2563 -91 2291 -91 
Q 1344 -91 809 395 
Q 275 881 275 1747 
Q 275 2613 809 3098 
Q 1344 3584 2291 3584 
Q 2566 3584 2833 3536 
Q 3100 3488 3366 3391 
z
" transform="scale(0.015625)"/>
      <path id="DejaVuSans-Bold-74" d="M 1759 4494 
L 1759 3500 
L 2913 3500 
L 2913 2700 
L 1759 2700 
L 1759 1216 
Q 1759 972 1856 886 
Q 1953 800 2241 800 
L 2816 800 
L 2816 0 
L 1856 0 
Q 1194 0 917 276 
Q 641 553 641 1216 
L 641 2700 
L 84 2700 
L 84 3500 
L 641 3500 
L 641 4494 
L 1759 4494 
z
" transform="scale(0.015625)"/>
      <path id="DejaVuSans-Bold-64" d="M 2919 2988 
L 2919 4863 
L 4044 4863 
L 4044 0 
L 2919 0 
L 2919 506 
Q 2688 197 2409 53 
Q 2131 -91 1766 -91 
Q 1119 -91 703 423 
Q 288 938 288 1747 
Q 288 2556 703 3070 
Q 1119 3584 1766 3584 
Q 2128 3584 2408 3439 
Q 2688 3294 2919 2988 
z
M 2181 722 
Q 2541 722 2730 984 
Q 2919 1247 2919 1747 
Q 2919 2247 2730 2509 
Q 2541 2772 2181 2772 
Q 1825 2772 1636 2509 
Q 1447 2247 1447 1747 
Q 1447 1247 1636 984 
Q 1825 722 2181 722 
z
" transform="scale(0.015625)"/>
      <path id="DejaVuSans-Bold-4e" d="M 588 4666 
L 1931 4666 
L 3628 1466 
L 3628 4666 
L 4769 4666 
L 4769 0 
L 3425 0 
L 1728 3200 
L 1728 0 
L 588 0 
L 588 4666 
z
" transform="scale(0.015625)"/>
      <path id="DejaVuSans-Bold-77" d="M 225 3500 
L 1313 3500 
L 1900 1088 
L 2491 3500 
L 3425 3500 
L 4013 1113 
L 4603 3500 
L 5691 3500 
L 4769 0 
L 3547 0 
L 2956 2406 
L 2369 0 
L 1147 0 
L 225 3500 
z
" transform="scale(0.015625)"/>
      <path id="DejaVuSans-Bold-72" d="M 3138 2547 
Q 2991 2616 2845 2648 
Q 2700 2681 2553 2681 
Q 2122 2681 1889 2404 
Q 1656 2128 1656 1613 
L 1656 0 
L 538 0 
L 538 3500 
L 1656 3500 
L 1656 2925 
Q 1872 3269 2151 3426 
Q 2431 3584 2822 3584 
Q 2878 3584 2943 3579 
Q 3009 3575 3134 3559 
L 3138 2547 
z
" transform="scale(0.015625)"/>
      <path id="DejaVuSans-Bold-6b" d="M 538 4863 
L 1656 4863 
L 1656 2216 
L 2944 3500 
L 4244 3500 
L 2534 1894 
L 4378 0 
L 3022 0 
L 1656 1459 
L 1656 0 
L 538 0 
L 538 4863 
z
" transform="scale(0.015625)"/>
      <path id="DejaVuSans-Bold-66" d="M 2841 4863 
L 2841 4128 
L 2222 4128 
Q 1984 4128 1890 4042 
Q 1797 3956 1797 3744 
L 1797 3500 
L 2753 3500 
L 2753 2700 
L 1797 2700 
L 1797 0 
L 678 0 
L 678 2700 
L 122 2700 
L 122 3500 
L 678 3500 
L 678 3744 
Q 678 4316 997 4589 
Q 1316 4863 1984 4863 
L 2841 4863 
z
" transform="scale(0.015625)"/>
      <path id="DejaVuSans-Bold-4d" d="M 588 4666 
L 2119 4666 
L 3181 2169 
L 4250 4666 
L 5778 4666 
L 5778 0 
L 4641 0 
L 4641 3413 
L 3566 897 
L 2803 897 
L 1728 3413 
L 1728 0 
L 588 0 
L 588 4666 
z
" transform="scale(0.015625)"/>
      <path id="DejaVuSans-Bold-49" d="M 588 4666 
L 1791 4666 
L 1791 0 
L 588 0 
L 588 4666 
z
" transform="scale(0.015625)"/>
      <path id="DejaVuSans-Bold-53" d="M 3834 4519 
L 3834 3531 
Q 3450 3703 3084 3790 
Q 2719 3878 2394 3878 
Q 1963 3878 1756 3759 
Q 1550 3641 1550 3391 
Q 1550 3203 1689 3098 
Q 1828 2994 2194 2919 
L 2706 2816 
Q 3484 2659 3812 2340 
Q 4141 2022 4141 1434 
Q 4141 663 3683 286 
Q 3225 -91 2284 -91 
Q 1841 -91 1394 -6 
Q 947 78 500 244 
L 500 1259 
Q 947 1022 1364 901 
Q 1781 781 2169 781 
Q 2563 781 2772 912 
Q 2981 1044 2981 1288 
Q 2981 1506 2839 1625 
Q 2697 1744 2272 1838 
L 1806 1941 
Q 1106 2091 782 2419 
Q 459 2747 459 3303 
Q 459 4000 909 4375 
Q 1359 4750 2203 4750 
Q 2588 4750 2994 4692 
Q 3400 4634 3834 4519 
z
" transform="scale(0.015625)"/>
      <path id="DejaVuSans-Bold-54" d="M 31 4666 
L 4331 4666 
L 4331 3756 
L 2784 3756 
L 2784 0 
L 1581 0 
L 1581 3756 
L 31 3756 
L 31 4666 
z
" transform="scale(0.015625)"/>
      <path id="DejaVuSans-Bold-61" d="M 2106 1575 
Q 1756 1575 1579 1456 
Q 1403 1338 1403 1106 
Q 1403 894 1545 773 
Q 1688 653 1941 653 
Q 2256 653 2472 879 
Q 2688 1106 2688 1447 
L 2688 1575 
L 2106 1575 
z
M 3816 1997 
L 3816 0 
L 2688 0 
L 2688 519 
Q 2463 200 2181 54 
Q 1900 -91 1497 -91 
Q 953 -91 614 226 
Q 275 544 275 1050 
Q 275 1666 698 1953 
Q 1122 2241 2028 2241 
L 2688 2241 
L 2688 2328 
Q 2688 2594 2478 2717 
Q 2269 2841 1825 2841 
Q 1466 2841 1156 2769 
Q 847 2697 581 2553 
L 581 3406 
Q 941 3494 1303 3539 
Q 1666 3584 2028 3584 
Q 2975 3584 3395 3211 
Q 3816 2838 3816 1997 
z
" transform="scale(0.015625)"/>
      <path id="DejaVuSans-Bold-73" d="M 3272 3391 
L 3272 2541 
Q 2913 2691 2578 2766 
Q 2244 2841 1947 2841 
Q 1628 2841 1473 2761 
Q 1319 2681 1319 2516 
Q 1319 2381 1436 2309 
Q 1553 2238 1856 2203 
L 2053 2175 
Q 2913 2066 3209 1816 
Q 3506 1566 3506 1031 
Q 3506 472 3093 190 
Q 2681 -91 1863 -91 
Q 1516 -91 1145 -36 
Q 775 19 384 128 
L 384 978 
Q 719 816 1070 734 
Q 1422 653 1784 653 
Q 2113 653 2278 743 
Q 2444 834 2444 1013 
Q 2444 1163 2330 1236 
Q 2216 1309 1875 1350 
L 1678 1375 
Q 931 1469 631 1722 
Q 331 1975 331 2491 
Q 331 3047 712 3315 
Q 1094 3584 1881 3584 
Q 2191 3584 2531 3537 
Q 2872 3491 3272 3391 
z
" transform="scale(0.015625)"/>
      <path id="DejaVuSans-Bold-69" d="M 538 3500 
L 1656 3500 
L 1656 0 
L 538 0 
L 538 3500 
z
M 538 4863 
L 1656 4863 
L 1656 3950 
L 538 3950 
L 538 4863 
z
" transform="scale(0.015625)"/>
     </defs>
     <use xlink:href="#DejaVuSans-Bold-46"/>
     <use xlink:href="#DejaVuSans-Bold-75" x="63.310547"/>
     <use xlink:href="#DejaVuSans-Bold-6c" x="134.501953"/>
     <use xlink:href="#DejaVuSans-Bold-6c" x="168.779297"/>
     <use xlink:href="#DejaVuSans-Bold-79" x="203.056641"/>
     <use xlink:href="#DejaVuSans-Bold-20" x="268.242188"/>
     <use xlink:href="#DejaVuSans-Bold-43" x="303.056641"/>
     <use xlink:href="#DejaVuSans-Bold-6f" x="376.445312"/>
     <use xlink:href="#DejaVuSans-Bold-6e" x="445.146484"/>
     <use xlink:href="#DejaVuSans-Bold-6e" x="516.337891"/>
     <use xlink:href="#DejaVuSans-Bold-65" x="587.529297"/>
     <use xlink:href="#DejaVuSans-Bold-63" x="655.351562"/>
     <use xlink:href="#DejaVuSans-Bold-74" x="714.628906"/>
     <use xlink:href="#DejaVuSans-Bold-65" x="762.431641"/>
     <use xlink:href="#DejaVuSans-Bold-64" x="830.253906"/>
     <use xlink:href="#DejaVuSans-Bold-20" x="901.835938"/>
     <use xlink:href="#DejaVuSans-Bold-4e" x="936.650391"/>
     <use xlink:href="#DejaVuSans-Bold-65" x="1020.341797"/>
     <use xlink:href="#DejaVuSans-Bold-74" x="1088.164062"/>
     <use xlink:href="#DejaVuSans-Bold-77" x="1135.966797"/>
     <use xlink:href="#DejaVuSans-Bold-6f" x="1228.349609"/>
     <use xlink:href="#DejaVuSans-Bold-72" x="1297.050781"/>
     <use xlink:href="#DejaVuSans-Bold-6b" x="1346.367188"/>
     <use xlink:href="#DejaVuSans-Bold-20" x="1412.871094"/>
     <use xlink:href="#DejaVuSans-Bold-66" x="1447.685547"/>
     <use xlink:href="#DejaVuSans-Bold-6f" x="1491.191406"/>
     <use xlink:href="#DejaVuSans-Bold-72" x="1559.892578"/>
     <use xlink:href="#DejaVuSans-Bold-20" x="1609.208984"/>
     <use xlink:href="#DejaVuSans-Bold-4d" x="1644.023438"/>
     <use xlink:href="#DejaVuSans-Bold-4e" x="1743.535156"/>
     <use xlink:href="#DejaVuSans-Bold-49" x="1827.226562"/>
     <use xlink:href="#DejaVuSans-Bold-53" x="1864.433594"/>
     <use xlink:href="#DejaVuSans-Bold-54" x="1936.455078"/>
     <use xlink:href="#DejaVuSans-Bold-20" x="2004.667969"/>
     <use xlink:href="#DejaVuSans-Bold-43" x="2039.482422"/>
     <use xlink:href="#DejaVuSans-Bold-6c" x="2112.871094"/>
     <use xlink:href="#DejaVuSans-Bold-61" x="2147.148438"/>
     <use xlink:href="#DejaVuSans-Bold-73" x="2214.628906"/>
     <use xlink:href="#DejaVuSans-Bold-73" x="2274.150391"/>
     <use xlink:href="#DejaVuSans-Bold-69" x="2333.671875"/>
     <use xlink:href="#DejaVuSans-Bold-66" x="2367.949219"/>
     <use xlink:href="#DejaVuSans-Bold-69" x="2411.455078"/>
     <use xlink:href="#DejaVuSans-Bold-63" x="2445.732422"/>
     <use xlink:href="#DejaVuSans-Bold-61" x="2505.009766"/>
     <use xlink:href="#DejaVuSans-Bold-74" x="2572.490234"/>
     <use xlink:href="#DejaVuSans-Bold-69" x="2620.292969"/>
     <use xlink:href="#DejaVuSans-Bold-6f" x="2654.570312"/>
     <use xlink:href="#DejaVuSans-Bold-6e" x="2723.271484"/>
    </g>
   </g>
   <g id="text_6">
    <!-- Input -->
    <g style="fill: #1f2937" transform="translate(63.783473 378.696391) scale(0.09 -0.09)">
     <defs>
      <path id="DejaVuSans-Bold-70" d="M 1656 506 
L 1656 -1331 
L 538 -1331 
L 538 3500 
L 1656 3500 
L 1656 2988 
Q 1888 3294 2169 3439 
Q 2450 3584 2816 3584 
Q 3463 3584 3878 3070 
Q 4294 2556 4294 1747 
Q 4294 938 3878 423 
Q 3463 -91 2816 -91 
Q 2450 -91 2169 54 
Q 1888 200 1656 506 
z
M 2400 2772 
Q 2041 2772 1848 2508 
Q 1656 2244 1656 1747 
Q 1656 1250 1848 986 
Q 2041 722 2400 722 
Q 2759 722 2948 984 
Q 3138 1247 3138 1747 
Q 3138 2247 2948 2509 
Q 2759 2772 2400 2772 
z
" transform="scale(0.015625)"/>
     </defs>
     <use xlink:href="#DejaVuSans-Bold-49"/>
     <use xlink:href="#DejaVuSans-Bold-6e" x="37.207031"/>
     <use xlink:href="#DejaVuSans-Bold-70" x="108.398438"/>
     <use xlink:href="#DejaVuSans-Bold-75" x="179.980469"/>
     <use xlink:href="#DejaVuSans-Bold-74" x="251.171875"/>
    </g>
    <!-- 784 -->
    <g style="fill: #1f2937" transform="translate(67.843317 388.774422) scale(0.09 -0.09)">
     <defs>
      <path id="DejaVuSans-Bold-37" d="M 428 4666 
L 3944 4666 
L 3944 3988 
L 2125 0 
L 953 0 
L 2675 3781 
L 428 3781 
L 428 4666 
z
" transform="scale(0.015625)"/>
      <path id="DejaVuSans-Bold-38" d="M 2228 2088 
Q 1891 2088 1709 1903 
Q 1528 1719 1528 1375 
Q 1528 1031 1709 848 
Q 1891 666 2228 666 
Q 2563 666 2741 848 
Q 2919 1031 2919 1375 
Q 2919 1722 2741 1905 
Q 2563 2088 2228 2088 
z
M 1350 2484 
Q 925 2613 709 2878 
Q 494 3144 494 3541 
Q 494 4131 934 4440 
Q 1375 4750 2228 4750 
Q 3075 4750 3515 4442 
Q 3956 4134 3956 3541 
Q 3956 3144 3739 2878 
Q 3522 2613 3097 2484 
Q 3572 2353 3814 2058 
Q 4056 1763 4056 1313 
Q 4056 619 3595 264 
Q 3134 -91 2228 -91 
Q 1319 -91 855 264 
Q 391 619 391 1313 
Q 391 1763 633 2058 
Q 875 2353 1350 2484 
z
M 1631 3419 
Q 1631 3141 1786 2991 
Q 1941 2841 2228 2841 
Q 2509 2841 2662 2991 
Q 2816 3141 2816 3419 
Q 2816 3697 2662 3845 
Q 2509 3994 2228 3994 
Q 1941 3994 1786 3844 
Q 1631 3694 1631 3419 
z
" transform="scale(0.015625)"/>
      <path id="DejaVuSans-Bold-34" d="M 2356 3675 
L 1038 1722 
L 2356 1722 
L 2356 3675 
z
M 2156 4666 
L 3494 4666 
L 3494 1722 
L 4159 1722 
L 4159 850 
L 3494 850 
L 3494 0 
L 2356 0 
L 2356 850 
L 288 850 
L 288 1881 
L 2156 4666 
z
" transform="scale(0.015625)"/>
     </defs>
     <use xlink:href="#DejaVuSans-Bold-37"/>
     <use xlink:href="#DejaVuSans-Bold-38" x="69.580078"/>
     <use xlink:href="#DejaVuSans-Bold-34" x="139.160156"/>
    </g>
   </g>
   <g id="text_7">
    <!-- Hidden 1 -->
    <g style="fill: #1f2937" transform="translate(194.605185 373.657375) scale(0.09 -0.09)">
     <defs>
      <path id="DejaVuSans-Bold-48" d="M 588 4666 
L 1791 4666 
L 1791 2888 
L 3566 2888 
L 3566 4666 
L 4769 4666 
L 4769 0 
L 3566 0 
L 3566 1978 
L 1791 1978 
L 1791 0 
L 588 0 
L 588 4666 
z
" transform="scale(0.015625)"/>
      <path id="DejaVuSans-Bold-31" d="M 750 831 
L 1813 831 
L 1813 3847 
L 722 3622 
L 722 4441 
L 1806 4666 
L 2950 4666 
L 2950 831 
L 4013 831 
L 4013 0 
L 750 0 
L 750 831 
z
" transform="scale(0.015625)"/>
     </defs>
     <use xlink:href="#DejaVuSans-Bold-48"/>
     <use xlink:href="#DejaVuSans-Bold-69" x="83.691406"/>
     <use xlink:href="#DejaVuSans-Bold-64" x="117.96875"/>
     <use xlink:href="#DejaVuSans-Bold-64" x="189.550781"/>
     <use xlink:href="#DejaVuSans-Bold-65" x="261.132812"/>
     <use xlink:href="#DejaVuSans-Bold-6e" x="328.955078"/>
     <use xlink:href="#DejaVuSans-Bold-20" x="400.146484"/>
     <use xlink:href="#DejaVuSans-Bold-31" x="434.960938"/>
    </g>
    <!-- 512 -->
    <g style="fill: #1f2937" transform="translate(207.916044 383.735406) scale(0.09 -0.09)">
     <defs>
      <path id="DejaVuSans-Bold-35" d="M 678 4666 
L 3669 4666 
L 3669 3781 
L 1638 3781 
L 1638 3059 
Q 1775 3097 1914 3117 
Q 2053 3138 2203 3138 
Q 3056 3138 3531 2711 
Q 4006 2284 4006 1522 
Q 4006 766 3489 337 
Q 2972 -91 2053 -91 
Q 1656 -91 1267 -14 
Q 878 63 494 219 
L 494 1166 
Q 875 947 1217 837 
Q 1559 728 1863 728 
Q 2300 728 2551 942 
Q 2803 1156 2803 1522 
Q 2803 1891 2551 2103 
Q 2300 2316 1863 2316 
Q 1603 2316 1309 2248 
Q 1016 2181 678 2041 
L 678 4666 
z
" transform="scale(0.015625)"/>
      <path id="DejaVuSans-Bold-32" d="M 1844 884 
L 3897 884 
L 3897 0 
L 506 0 
L 506 884 
L 2209 2388 
Q 2438 2594 2547 2791 
Q 2656 2988 2656 3200 
Q 2656 3528 2436 3728 
Q 2216 3928 1850 3928 
Q 1569 3928 1234 3808 
Q 900 3688 519 3450 
L 519 4475 
Q 925 4609 1322 4679 
Q 1719 4750 2100 4750 
Q 2938 4750 3402 4381 
Q 3866 4013 3866 3353 
Q 3866 2972 3669 2642 
Q 3472 2313 2841 1759 
L 1844 884 
z
" transform="scale(0.015625)"/>
     </defs>
     <use xlink:href="#DejaVuSans-Bold-35"/>
     <use xlink:href="#DejaVuSans-Bold-31" x="69.580078"/>
     <use xlink:href="#DejaVuSans-Bold-32" x="139.160156"/>
    </g>
    <!-- + ReLU -->
    <g style="fill: #1f2937" transform="translate(199.096044 393.813437) scale(0.09 -0.09)">
     <defs>
      <path id="DejaVuSans-Bold-2b" d="M 3053 4013 
L 3053 2375 
L 4684 2375 
L 4684 1638 
L 3053 1638 
L 3053 0 
L 2309 0 
L 2309 1638 
L 678 1638 
L 678 2375 
L 2309 2375 
L 2309 4013 
L 3053 4013 
z
" transform="scale(0.015625)"/>
      <path id="DejaVuSans-Bold-52" d="M 2297 2597 
Q 2675 2597 2839 2737 
Q 3003 2878 3003 3200 
Q 3003 3519 2839 3656 
Q 2675 3794 2297 3794 
L 1791 3794 
L 1791 2597 
L 2297 2597 
z
M 1791 1766 
L 1791 0 
L 588 0 
L 588 4666 
L 2425 4666 
Q 3347 4666 3776 4356 
Q 4206 4047 4206 3378 
Q 4206 2916 3982 2619 
Q 3759 2322 3309 2181 
Q 3556 2125 3751 1926 
Q 3947 1728 4147 1325 
L 4800 0 
L 3519 0 
L 2950 1159 
Q 2778 1509 2601 1637 
Q 2425 1766 2131 1766 
L 1791 1766 
z
" transform="scale(0.015625)"/>
      <path id="DejaVuSans-Bold-4c" d="M 588 4666 
L 1791 4666 
L 1791 909 
L 3903 909 
L 3903 0 
L 588 0 
L 588 4666 
z
" transform="scale(0.015625)"/>
      <path id="DejaVuSans-Bold-55" d="M 588 4666 
L 1791 4666 
L 1791 1869 
Q 1791 1291 1980 1042 
Q 2169 794 2597 794 
Q 3028 794 3217 1042 
Q 3406 1291 3406 1869 
L 3406 4666 
L 4609 4666 
L 4609 1869 
Q 4609 878 4112 393 
Q 3616 -91 2597 -91 
Q 1581 -91 1084 393 
Q 588 878 588 1869 
L 588 4666 
z
" transform="scale(0.015625)"/>
     </defs>
     <use xlink:href="#DejaVuSans-Bold-2b"/>
     <use xlink:href="#DejaVuSans-Bold-20" x="83.789062"/>
     <use xlink:href="#DejaVuSans-Bold-52" x="118.603516"/>
     <use xlink:href="#DejaVuSans-Bold-65" x="195.605469"/>
     <use xlink:href="#DejaVuSans-Bold-4c" x="263.427734"/>
     <use xlink:href="#DejaVuSans-Bold-55" x="323.523438"/>
    </g>
   </g>
   <g id="text_8">
    <!-- Hidden 2 -->
    <g style="fill: #1f2937" transform="translate(369.696094 373.657375) scale(0.09 -0.09)">
     <use xlink:href="#DejaVuSans-Bold-48"/>
     <use xlink:href="#DejaVuSans-Bold-69" x="83.691406"/>
     <use xlink:href="#DejaVuSans-Bold-64" x="117.96875"/>
     <use xlink:href="#DejaVuSans-Bold-64" x="189.550781"/>
     <use xlink:href="#DejaVuSans-Bold-65" x="261.132812"/>
     <use xlink:href="#DejaVuSans-Bold-6e" x="328.955078"/>
     <use xlink:href="#DejaVuSans-Bold-20" x="400.146484"/>
     <use xlink:href="#DejaVuSans-Bold-32" x="434.960938"/>
    </g>
    <!-- 256 -->
    <g style="fill: #1f2937" transform="translate(383.006953 383.735406) scale(0.09 -0.09)">
     <defs>
      <path id="DejaVuSans-Bold-36" d="M 2316 2303 
Q 2000 2303 1842 2098 
Q 1684 1894 1684 1484 
Q 1684 1075 1842 870 
Q 2000 666 2316 666 
Q 2634 666 2792 870 
Q 2950 1075 2950 1484 
Q 2950 1894 2792 2098 
Q 2634 2303 2316 2303 
z
M 3803 4544 
L 3803 3681 
Q 3506 3822 3243 3889 
Q 2981 3956 2731 3956 
Q 2194 3956 1894 3657 
Q 1594 3359 1544 2772 
Q 1750 2925 1990 3001 
Q 2231 3078 2516 3078 
Q 3231 3078 3670 2659 
Q 4109 2241 4109 1563 
Q 4109 813 3618 361 
Q 3128 -91 2303 -91 
Q 1394 -91 895 523 
Q 397 1138 397 2266 
Q 397 3422 980 4083 
Q 1563 4744 2578 4744 
Q 2900 4744 3203 4694 
Q 3506 4644 3803 4544 
z
" transform="scale(0.015625)"/>
     </defs>
     <use xlink:href="#DejaVuSans-Bold-32"/>
     <use xlink:href="#DejaVuSans-Bold-35" x="69.580078"/>
     <use xlink:href="#DejaVuSans-Bold-36" x="139.160156"/>
    </g>
    <!-- + ReLU -->
    <g style="fill: #1f2937" transform="translate(374.186953 393.813437) scale(0.09 -0.09)">
     <use xlink:href="#DejaVuSans-Bold-2b"/>
     <use xlink:href="#DejaVuSans-Bold-20" x="83.789062"/>
     <use xlink:href="#DejaVuSans-Bold-52" x="118.603516"/>
     <use xlink:href="#DejaVuSans-Bold-65" x="195.605469"/>
     <use xlink:href="#DejaVuSans-Bold-4c" x="263.427734"/>
     <use xlink:href="#DejaVuSans-Bold-55" x="323.523438"/>
    </g>
   </g>
   <g id="text_9">
    <!-- Hidden 3 -->
    <g style="fill: #1f2937" transform="translate(544.787003 373.657375) scale(0.09 -0.09)">
     <defs>
      <path id="DejaVuSans-Bold-33" d="M 2981 2516 
Q 3453 2394 3698 2092 
Q 3944 1791 3944 1325 
Q 3944 631 3412 270 
Q 2881 -91 1863 -91 
Q 1503 -91 1142 -33 
Q 781 25 428 141 
L 428 1069 
Q 766 900 1098 814 
Q 1431 728 1753 728 
Q 2231 728 2486 893 
Q 2741 1059 2741 1369 
Q 2741 1688 2480 1852 
Q 2219 2016 1709 2016 
L 1228 2016 
L 1228 2791 
L 1734 2791 
Q 2188 2791 2409 2933 
Q 2631 3075 2631 3366 
Q 2631 3634 2415 3781 
Q 2200 3928 1806 3928 
Q 1516 3928 1219 3862 
Q 922 3797 628 3669 
L 628 4550 
Q 984 4650 1334 4700 
Q 1684 4750 2022 4750 
Q 2931 4750 3382 4451 
Q 3834 4153 3834 3553 
Q 3834 3144 3618 2883 
Q 3403 2622 2981 2516 
z
" transform="scale(0.015625)"/>
     </defs>
     <use xlink:href="#DejaVuSans-Bold-48"/>
     <use xlink:href="#DejaVuSans-Bold-69" x="83.691406"/>
     <use xlink:href="#DejaVuSans-Bold-64" x="117.96875"/>
     <use xlink:href="#DejaVuSans-Bold-64" x="189.550781"/>
     <use xlink:href="#DejaVuSans-Bold-65" x="261.132812"/>
     <use xlink:href="#DejaVuSans-Bold-6e" x="328.955078"/>
     <use xlink:href="#DejaVuSans-Bold-20" x="400.146484"/>
     <use xlink:href="#DejaVuSans-Bold-33" x="434.960938"/>
    </g>
    <!-- 128 -->
    <g style="fill: #1f2937" transform="translate(558.097862 383.735406) scale(0.09 -0.09)">
     <use xlink:href="#DejaVuSans-Bold-31"/>
     <use xlink:href="#DejaVuSans-Bold-32" x="69.580078"/>
     <use xlink:href="#DejaVuSans-Bold-38" x="139.160156"/>
    </g>
    <!-- + ReLU -->
    <g style="fill: #1f2937" transform="translate(549.277862 393.813437) scale(0.09 -0.09)">
     <use xlink:href="#DejaVuSans-Bold-2b"/>
     <use xlink:href="#DejaVuSans-Bold-20" x="83.789062"/>
     <use xlink:href="#DejaVuSans-Bold-52" x="118.603516"/>
     <use xlink:href="#DejaVuSans-Bold-65" x="195.605469"/>
     <use xlink:href="#DejaVuSans-Bold-4c" x="263.427734"/>
     <use xlink:href="#DejaVuSans-Bold-55" x="323.523438"/>
    </g>
   </g>
   <g id="text_10">
    <!-- Output -->
    <g style="fill: #1f2937" transform="translate(689.808324 373.657375) scale(0.09 -0.09)">
     <defs>
      <path id="DejaVuSans-Bold-4f" d="M 2719 3878 
Q 2169 3878 1866 3472 
Q 1563 3066 1563 2328 
Q 1563 1594 1866 1187 
Q 2169 781 2719 781 
Q 3272 781 3575 1187 
Q 3878 1594 3878 2328 
Q 3878 3066 3575 3472 
Q 3272 3878 2719 3878 
z
M 2719 4750 
Q 3844 4750 4481 4106 
Q 5119 3463 5119 2328 
Q 5119 1197 4481 553 
Q 3844 -91 2719 -91 
Q 1597 -91 958 553 
Q 319 1197 319 2328 
Q 319 3463 958 4106 
Q 1597 4750 2719 4750 
z
" transform="scale(0.015625)"/>
     </defs>
     <use xlink:href="#DejaVuSans-Bold-4f"/>
     <use xlink:href="#DejaVuSans-Bold-75" x="85.009766"/>
     <use xlink:href="#DejaVuSans-Bold-74" x="156.201172"/>
     <use xlink:href="#DejaVuSans-Bold-70" x="204.003906"/>
     <use xlink:href="#DejaVuSans-Bold-75" x="275.585938"/>
     <use xlink:href="#DejaVuSans-Bold-74" x="346.777344"/>
    </g>
    <!-- 10 -->
    <g style="fill: #1f2937" transform="translate(701.301605 383.735406) scale(0.09 -0.09)">
     <defs>
      <path id="DejaVuSans-Bold-30" d="M 2944 2338 
Q 2944 3213 2780 3570 
Q 2616 3928 2228 3928 
Q 1841 3928 1675 3570 
Q 1509 3213 1509 2338 
Q 1509 1453 1675 1090 
Q 1841 728 2228 728 
Q 2613 728 2778 1090 
Q 2944 1453 2944 2338 
z
M 4147 2328 
Q 4147 1169 3647 539 
Q 3147 -91 2228 -91 
Q 1306 -91 806 539 
Q 306 1169 306 2328 
Q 306 3491 806 4120 
Q 1306 4750 2228 4750 
Q 3147 4750 3647 4120 
Q 4147 3491 4147 2328 
z
" transform="scale(0.015625)"/>
     </defs>
     <use xlink:href="#DejaVuSans-Bold-31"/>
     <use xlink:href="#DejaVuSans-Bold-30" x="69.580078"/>
    </g>
    <!-- + Softmax -->
    <g style="fill: #1f2937" transform="translate(681.157074 393.813437) scale(0.09 -0.09)">
     <defs>
      <path id="DejaVuSans-Bold-6d" d="M 3781 2919 
Q 3994 3244 4286 3414 
Q 4578 3584 4928 3584 
Q 5531 3584 5847 3212 
Q 6163 2841 6163 2131 
L 6163 0 
L 5038 0 
L 5038 1825 
Q 5041 1866 5042 1909 
Q 5044 1953 5044 2034 
Q 5044 2406 4934 2573 
Q 4825 2741 4581 2741 
Q 4263 2741 4089 2478 
Q 3916 2216 3909 1719 
L 3909 0 
L 2784 0 
L 2784 1825 
Q 2784 2406 2684 2573 
Q 2584 2741 2328 2741 
Q 2006 2741 1831 2477 
Q 1656 2213 1656 1722 
L 1656 0 
L 531 0 
L 531 3500 
L 1656 3500 
L 1656 2988 
Q 1863 3284 2130 3434 
Q 2397 3584 2719 3584 
Q 3081 3584 3359 3409 
Q 3638 3234 3781 2919 
z
" transform="scale(0.015625)"/>
      <path id="DejaVuSans-Bold-78" d="M 1422 1791 
L 159 3500 
L 1344 3500 
L 2059 2463 
L 2784 3500 
L 3969 3500 
L 2706 1797 
L 4031 0 
L 2847 0 
L 2059 1106 
L 1281 0 
L 97 0 
L 1422 1791 
z
" transform="scale(0.015625)"/>
     </defs>
     <use xlink:href="#DejaVuSans-Bold-2b"/>
     <use xlink:href="#DejaVuSans-Bold-20" x="83.789062"/>
     <use xlink:href="#DejaVuSans-Bold-53" x="118.603516"/>
     <use xlink:href="#DejaVuSans-Bold-6f" x="190.625"/>
     <use xlink:href="#DejaVuSans-Bold-66" x="259.326172"/>
     <use xlink:href="#DejaVuSans-Bold-74" x="302.832031"/>
     <use xlink:href="#DejaVuSans-Bold-6d" x="350.634766"/>
     <use xlink:href="#DejaVuSans-Bold-61" x="454.833984"/>
     <use xlink:href="#DejaVuSans-Bold-78" x="522.314453"/>
    </g>
   </g>
  </g>
 </g>
 <defs>
  <clipPath id="p972ea6cb24">
   <rect x="7.2" y="23.077969" width="770.4" height="394.32"/>
  </clipPath>
 </defs>
</svg>
