<?xml version="1.0" encoding="utf-8" standalone="no"?>
<!DOCTYPE svg PUBLIC "-//W3C//DTD SVG 1.1//EN"
  "http://www.w3.org/Graphics/SVG/1.1/DTD/svg11.dtd">
<svg xmlns:xlink="http://www.w3.org/1999/xlink" width="856.8pt" height="356.4pt" viewBox="0 0 856.8 356.4" xmlns="http://www.w3.org/2000/svg" version="1.1">
 <metadata>
  <rdf:RDF xmlns:dc="http://purl.org/dc/elements/1.1/" xmlns:cc="http://creativecommons.org/ns#" xmlns:rdf="http://www.w3.org/1999/02/22-rdf-syntax-ns#">
   <cc:Work>
    <dc:type rdf:resource="http://purl.org/dc/dcmitype/StillImage"/>
    <dc:date>2026-04-24T07:26:55.233073</dc:date>
    <dc:format>image/svg+xml</dc:format>
    <dc:creator>
     <cc:Agent>
      <dc:title>Matplotlib v3.8.0, https://matplotlib.org/</dc:title>
     </cc:Agent>
    </dc:creator>
   </cc:Work>
  </rdf:RDF>
 </metadata>
 <defs>
  <style type="text/css">*{stroke-linejoin: round; stroke-linecap: butt}</style>
 </defs>
 <g id="figure_1">
  <g id="patch_1">
   <path d="M 0 356.4 
L 856.8 356.4 
L 856.8 0 
L 0 0 
z
" style="fill: #ffffff"/>
  </g>
  <g id="axes_1">
   <g id="text_1">
    <!-- + Simple, general purpose -->
    <g style="fill: #065f46" transform="translate(27.99 87.381818) scale(0.095 -0.095)">
     <defs>
      <path id="DejaVuSans-2b" d="M 2944 4013 
L 2944 2272 
L 4684 2272 
L 4684 1741 
L 2944 1741 
L 2944 0 
L 2419 0 
L 2419 1741 
L 678 1741 
L 678 2272 
L 2419 2272 
L 2419 4013 
L 2944 4013 
z
" transform="scale(0.015625)"/>
      <path id="DejaVuSans-20" transform="scale(0.015625)"/>
      <path id="DejaVuSans-53" d="M 3425 4513 
L 3425 3897 
Q 3066 4069 2747 4153 
Q 2428 4238 2131 4238 
Q 1616 4238 1336 4038 
Q 1056 3838 1056 3469 
Q 1056 3159 1242 3001 
Q 1428 2844 1947 2747 
L 2328 2669 
Q 3034 2534 3370 2195 
Q 3706 1856 3706 1288 
Q 3706 609 3251 259 
Q 2797 -91 1919 -91 
Q 1588 -91 1214 -16 
Q 841 59 441 206 
L 441 856 
Q 825 641 1194 531 
Q 1563 422 1919 422 
Q 2459 422 2753 634 
Q 3047 847 3047 1241 
Q 3047 1584 2836 1778 
Q 2625 1972 2144 2069 
L 1759 2144 
Q 1053 2284 737 2584 
Q 422 2884 422 3419 
Q 422 4038 858 4394 
Q 1294 4750 2059 4750 
Q 2388 4750 2728 4690 
Q 3069 4631 3425 4513 
z
" transform="scale(0.015625)"/>
      <path id="DejaVuSans-69" d="M 603 3500 
L 1178 3500 
L 1178 0 
L 603 0 
L 603 3500 
z
M 603 4863 
L 1178 4863 
L 1178 4134 
L 603 4134 
L 603 4863 
z
" transform="scale(0.015625)"/>
      <path id="DejaVuSans-6d" d="M 3328 2828 
Q 3544 3216 3844 3400 
Q 4144 3584 4550 3584 
Q 5097 3584 5394 3201 
Q 5691 2819 5691 2113 
L 5691 0 
L 5113 0 
L 5113 2094 
Q 5113 2597 4934 2840 
Q 4756 3084 4391 3084 
Q 3944 3084 3684 2787 
Q 3425 2491 3425 1978 
L 3425 0 
L 2847 0 
L 2847 2094 
Q 2847 2600 2669 2842 
Q 2491 3084 2119 3084 
Q 1678 3084 1418 2786 
Q 1159 2488 1159 1978 
L 1159 0 
L 581 0 
L 581 3500 
L 1159 3500 
L 1159 2956 
Q 1356 3278 1631 3431 
Q 1906 3584 2284 3584 
Q 2666 3584 2933 3390 
Q 3200 3197 3328 2828 
z
" transform="scale(0.015625)"/>
      <path id="DejaVuSans-70" d="M 1159 525 
L 1159 -1331 
L 581 -1331 
L 581 3500 
L 1159 3500 
L 1159 2969 
Q 1341 3281 1617 3432 
Q 1894 3584 2278 3584 
Q 2916 3584 3314 3078 
Q 3713 2572 3713 1747 
Q 3713 922 3314 415 
Q 2916 -91 2278 -91 
Q 1894 -91 1617 61 
Q 1341 213 1159 525 
z
M 3116 1747 
Q 3116 2381 2855 2742 
Q 2594 3103 2138 3103 
Q 1681 3103 1420 2742 
Q 1159 2381 1159 1747 
Q 1159 1113 1420 752 
Q 1681 391 2138 391 
Q 2594 391 2855 752 
Q 3116 1113 3116 1747 
z
" transform="scale(0.015625)"/>
      <path id="DejaVuSans-6c" d="M 603 4863 
L 1178 4863 
L 1178 0 
L 603 0 
L 603 4863 
z
" transform="scale(0.015625)"/>
      <path id="DejaVuSans-65" d="M 3597 1894 
L 3597 1613 
L 953 1613 
Q 991 1019 1311 708 
Q 1631 397 2203 397 
Q 2534 397 2845 478 
Q 3156 559 3463 722 
L 3463 178 
Q 3153 47 2828 -22 
Q 2503 -91 2169 -91 
Q 1331 -91 842 396 
Q 353 884 353 1716 
Q 353 2575 817 3079 
Q 1281 3584 2069 3584 
Q 2775 3584 3186 3129 
Q 3597 2675 3597 1894 
z
M 3022 2063 
Q 3016 2534 2758 2815 
Q 2500 3097 2075 3097 
Q 1594 3097 1305 2825 
Q 1016 2553 972 2059 
L 3022 2063 
z
" transform="scale(0.015625)"/>
      <path id="DejaVuSans-2c" d="M 750 794 
L 1409 794 
L 1409 256 
L 897 -744 
L 494 -744 
L 750 256 
L 750 794 
z
" transform="scale(0.015625)"/>
      <path id="DejaVuSans-67" d="M 2906 1791 
Q 2906 2416 2648 2759 
Q 2391 3103 1925 3103 
Q 1463 3103 1205 2759 
Q 947 2416 947 1791 
Q 947 1169 1205 825 
Q 1463 481 1925 481 
Q 2391 481 2648 825 
Q 2906 1169 2906 1791 
z
M 3481 434 
Q 3481 -459 3084 -895 
Q 2688 -1331 1869 -1331 
Q 1566 -1331 1297 -1286 
Q 1028 -1241 775 -1147 
L 775 -588 
Q 1028 -725 1275 -790 
Q 1522 -856 1778 -856 
Q 2344 -856 2625 -561 
Q 2906 -266 2906 331 
L 2906 616 
Q 2728 306 2450 153 
Q 2172 0 1784 0 
Q 1141 0 747 490 
Q 353 981 353 1791 
Q 353 2603 747 3093 
Q 1141 3584 1784 3584 
Q 2172 3584 2450 3431 
Q 2728 3278 2906 2969 
L 2906 3500 
L 3481 3500 
L 3481 434 
z
" transform="scale(0.015625)"/>
      <path id="DejaVuSans-6e" d="M 3513 2113 
L 3513 0 
L 2938 0 
L 2938 2094 
Q 2938 2591 2744 2837 
Q 2550 3084 2163 3084 
Q 1697 3084 1428 2787 
Q 1159 2491 1159 1978 
L 1159 0 
L 581 0 
L 581 3500 
L 1159 3500 
L 1159 2956 
Q 1366 3272 1645 3428 
Q 1925 3584 2291 3584 
Q 2894 3584 3203 3211 
Q 3513 2838 3513 2113 
z
" transform="scale(0.015625)"/>
      <path id="DejaVuSans-72" d="M 2631 2963 
Q 2534 3019 2420 3045 
Q 2306 3072 2169 3072 
Q 1681 3072 1420 2755 
Q 1159 2438 1159 1844 
L 1159 0 
L 581 0 
L 581 3500 
L 1159 3500 
L 1159 2956 
Q 1341 3275 1631 3429 
Q 1922 3584 2338 3584 
Q 2397 3584 2469 3576 
Q 2541 3569 2628 3553 
L 2631 2963 
z
" transform="scale(0.015625)"/>
      <path id="DejaVuSans-61" d="M 2194 1759 
Q 1497 1759 1228 1600 
Q 959 1441 959 1056 
Q 959 750 1161 570 
Q 1363 391 1709 391 
Q 2188 391 2477 730 
Q 2766 1069 2766 1631 
L 2766 1759 
L 2194 1759 
z
M 3341 1997 
L 3341 0 
L 2766 0 
L 2766 531 
Q 2569 213 2275 61 
Q 1981 -91 1556 -91 
Q 1019 -91 701 211 
Q 384 513 384 1019 
Q 384 1609 779 1909 
Q 1175 2209 1959 2209 
L 2766 2209 
L 2766 2266 
Q 2766 2663 2505 2880 
Q 2244 3097 1772 3097 
Q 1472 3097 1187 3025 
Q 903 2953 641 2809 
L 641 3341 
Q 956 3463 1253 3523 
Q 1550 3584 1831 3584 
Q 2591 3584 2966 3190 
Q 3341 2797 3341 1997 
z
" transform="scale(0.015625)"/>
      <path id="DejaVuSans-75" d="M 544 1381 
L 544 3500 
L 1119 3500 
L 1119 1403 
Q 1119 906 1312 657 
Q 1506 409 1894 409 
Q 2359 409 2629 706 
Q 2900 1003 2900 1516 
L 2900 3500 
L 3475 3500 
L 3475 0 
L 2900 0 
L 2900 538 
Q 2691 219 2414 64 
Q 2138 -91 1772 -91 
Q 1169 -91 856 284 
Q 544 659 544 1381 
z
M 1991 3584 
L 1991 3584 
z
" transform="scale(0.015625)"/>
      <path id="DejaVuSans-6f" d="M 1959 3097 
Q 1497 3097 1228 2736 
Q 959 2375 959 1747 
Q 959 1119 1226 758 
Q 1494 397 1959 397 
Q 2419 397 2687 759 
Q 2956 1122 2956 1747 
Q 2956 2369 2687 2733 
Q 2419 3097 1959 3097 
z
M 1959 3584 
Q 2709 3584 3137 3096 
Q 3566 2609 3566 1747 
Q 3566 888 3137 398 
Q 2709 -91 1959 -91 
Q 1206 -91 779 398 
Q 353 888 353 1747 
Q 353 2609 779 3096 
Q 1206 3584 1959 3584 
z
" transform="scale(0.015625)"/>
      <path id="DejaVuSans-73" d="M 2834 3397 
L 2834 2853 
Q 2591 2978 2328 3040 
Q 2066 3103 1784 3103 
Q 1356 3103 1142 2972 
Q 928 2841 928 2578 
Q 928 2378 1081 2264 
Q 1234 2150 1697 2047 
L 1894 2003 
Q 2506 1872 2764 1633 
Q 3022 1394 3022 966 
Q 3022 478 2636 193 
Q 2250 -91 1575 -91 
Q 1294 -91 989 -36 
Q 684 19 347 128 
L 347 722 
Q 666 556 975 473 
Q 1284 391 1588 391 
Q 1994 391 2212 530 
Q 2431 669 2431 922 
Q 2431 1156 2273 1281 
Q 2116 1406 1581 1522 
L 1381 1569 
Q 847 1681 609 1914 
Q 372 2147 372 2553 
Q 372 3047 722 3315 
Q 1072 3584 1716 3584 
Q 2034 3584 2315 3537 
Q 2597 3491 2834 3397 
z
" transform="scale(0.015625)"/>
     </defs>
     <use xlink:href="#DejaVuSans-2b"/>
     <use xlink:href="#DejaVuSans-20" x="83.789062"/>
     <use xlink:href="#DejaVuSans-53" x="115.576172"/>
     <use xlink:href="#DejaVuSans-69" x="179.052734"/>
     <use xlink:href="#DejaVuSans-6d" x="206.835938"/>
     <use xlink:href="#DejaVuSans-70" x="304.248047"/>
     <use xlink:href="#DejaVuSans-6c" x="367.724609"/>
     <use xlink:href="#DejaVuSans-65" x="395.507812"/>
     <use xlink:href="#DejaVuSans-2c" x="457.03125"/>
     <use xlink:href="#DejaVuSans-20" x="488.818359"/>
     <use xlink:href="#DejaVuSans-67" x="520.605469"/>
     <use xlink:href="#DejaVuSans-65" x="584.082031"/>
     <use xlink:href="#DejaVuSans-6e" x="645.605469"/>
     <use xlink:href="#DejaVuSans-65" x="708.984375"/>
     <use xlink:href="#DejaVuSans-72" x="770.507812"/>
     <use xlink:href="#DejaVuSans-61" x="811.621094"/>
     <use xlink:href="#DejaVuSans-6c" x="872.900391"/>
     <use xlink:href="#DejaVuSans-20" x="900.683594"/>
     <use xlink:href="#DejaVuSans-70" x="932.470703"/>
     <use xlink:href="#DejaVuSans-75" x="995.947266"/>
     <use xlink:href="#DejaVuSans-72" x="1059.326172"/>
     <use xlink:href="#DejaVuSans-70" x="1100.439453"/>
     <use xlink:href="#DejaVuSans-6f" x="1163.916016"/>
     <use xlink:href="#DejaVuSans-73" x="1225.097656"/>
     <use xlink:href="#DejaVuSans-65" x="1277.197266"/>
    </g>
   </g>
   <g id="text_2">
    <!-- + Easy to understand -->
    <g style="fill: #065f46" transform="translate(27.99 114.654545) scale(0.095 -0.095)">
     <defs>
      <path id="DejaVuSans-45" d="M 628 4666 
L 3578 4666 
L 3578 4134 
L 1259 4134 
L 1259 2753 
L 3481 2753 
L 3481 2222 
L 1259 2222 
L 1259 531 
L 3634 531 
L 3634 0 
L 628 0 
L 628 4666 
z
" transform="scale(0.015625)"/>
      <path id="DejaVuSans-79" d="M 2059 -325 
Q 1816 -950 1584 -1140 
Q 1353 -1331 966 -1331 
L 506 -1331 
L 506 -850 
L 844 -850 
Q 1081 -850 1212 -737 
Q 1344 -625 1503 -206 
L 1606 56 
L 191 3500 
L 800 3500 
L 1894 763 
L 2988 3500 
L 3597 3500 
L 2059 -325 
z
" transform="scale(0.015625)"/>
      <path id="DejaVuSans-74" d="M 1172 4494 
L 1172 3500 
L 2356 3500 
L 2356 3053 
L 1172 3053 
L 1172 1153 
Q 1172 725 1289 603 
Q 1406 481 1766 481 
L 2356 481 
L 2356 0 
L 1766 0 
Q 1100 0 847 248 
Q 594 497 594 1153 
L 594 3053 
L 172 3053 
L 172 3500 
L 594 3500 
L 594 4494 
L 1172 4494 
z
" transform="scale(0.015625)"/>
      <path id="DejaVuSans-64" d="M 2906 2969 
L 2906 4863 
L 3481 4863 
L 3481 0 
L 2906 0 
L 2906 525 
Q 2725 213 2448 61 
Q 2172 -91 1784 -91 
Q 1150 -91 751 415 
Q 353 922 353 1747 
Q 353 2572 751 3078 
Q 1150 3584 1784 3584 
Q 2172 3584 2448 3432 
Q 2725 3281 2906 2969 
z
M 947 1747 
Q 947 1113 1208 752 
Q 1469 391 1925 391 
Q 2381 391 2643 752 
Q 2906 1113 2906 1747 
Q 2906 2381 2643 2742 
Q 2381 3103 1925 3103 
Q 1469 3103 1208 2742 
Q 947 2381 947 1747 
z
" transform="scale(0.015625)"/>
     </defs>
     <use xlink:href="#DejaVuSans-2b"/>
     <use xlink:href="#DejaVuSans-20" x="83.789062"/>
     <use xlink:href="#DejaVuSans-45" x="115.576172"/>
     <use xlink:href="#DejaVuSans-61" x="178.759766"/>
     <use xlink:href="#DejaVuSans-73" x="240.039062"/>
     <use xlink:href="#DejaVuSans-79" x="292.138672"/>
     <use xlink:href="#DejaVuSans-20" x="351.318359"/>
     <use xlink:href="#DejaVuSans-74" x="383.105469"/>
     <use xlink:href="#DejaVuSans-6f" x="422.314453"/>
     <use xlink:href="#DejaVuSans-20" x="483.496094"/>
     <use xlink:href="#DejaVuSans-75" x="515.283203"/>
     <use xlink:href="#DejaVuSans-6e" x="578.662109"/>
     <use xlink:href="#DejaVuSans-64" x="642.041016"/>
     <use xlink:href="#DejaVuSans-65" x="705.517578"/>
     <use xlink:href="#DejaVuSans-72" x="767.041016"/>
     <use xlink:href="#DejaVuSans-73" x="808.154297"/>
     <use xlink:href="#DejaVuSans-74" x="860.253906"/>
     <use xlink:href="#DejaVuSans-61" x="899.462891"/>
     <use xlink:href="#DejaVuSans-6e" x="960.742188"/>
     <use xlink:href="#DejaVuSans-64" x="1024.121094"/>
    </g>
   </g>
   <g id="text_3">
    <!-- ✗ No spatial structure -->
    <g style="fill: #dc2626" transform="translate(27.99 152.836364) scale(0.095 -0.095)">
     <defs>
      <path id="DejaVuSans-2717" d="M 3975 4688 
Q 4006 4688 4056 4638 
Q 4109 4588 4166 4506 
Q 4256 4666 4309 4666 
Q 4356 4666 4438 4581 
Q 4488 4528 4488 4463 
Q 4488 4378 4419 4306 
Q 3769 3600 3156 2753 
Q 3409 2134 3856 1388 
Q 3894 1325 3894 1288 
Q 3894 1216 3800 1138 
L 3700 1069 
Q 3713 1031 3713 969 
Q 3713 875 3644 825 
Q 3563 769 3525 769 
Q 3444 769 3381 850 
Q 3006 1331 2606 1981 
Q 2069 1281 1375 113 
Q 1275 -56 1038 -56 
Q 925 -56 913 75 
Q 753 163 753 353 
Q 753 603 788 700 
Q 803 744 888 875 
Q 1525 1869 2238 2700 
Q 1856 3606 1731 4097 
Q 1703 4206 1703 4238 
Q 1703 4281 1759 4363 
Q 1819 4444 1869 4444 
Q 1916 4444 1988 4353 
Q 2016 4406 2056 4444 
Q 2113 4494 2200 4494 
Q 2300 4494 2331 4400 
Q 2500 3875 2775 3400 
Q 3219 3975 3856 4613 
Q 3931 4688 3975 4688 
z
" transform="scale(0.015625)"/>
      <path id="DejaVuSans-4e" d="M 628 4666 
L 1478 4666 
L 3547 763 
L 3547 4666 
L 4159 4666 
L 4159 0 
L 3309 0 
L 1241 3903 
L 1241 0 
L 628 0 
L 628 4666 
z
" transform="scale(0.015625)"/>
      <path id="DejaVuSans-63" d="M 3122 3366 
L 3122 2828 
Q 2878 2963 2633 3030 
Q 2388 3097 2138 3097 
Q 1578 3097 1268 2742 
Q 959 2388 959 1747 
Q 959 1106 1268 751 
Q 1578 397 2138 397 
Q 2388 397 2633 464 
Q 2878 531 3122 666 
L 3122 134 
Q 2881 22 2623 -34 
Q 2366 -91 2075 -91 
Q 1284 -91 818 406 
Q 353 903 353 1747 
Q 353 2603 823 3093 
Q 1294 3584 2113 3584 
Q 2378 3584 2631 3529 
Q 2884 3475 3122 3366 
z
" transform="scale(0.015625)"/>
     </defs>
     <use xlink:href="#DejaVuSans-2717"/>
     <use xlink:href="#DejaVuSans-20" x="83.789062"/>
     <use xlink:href="#DejaVuSans-4e" x="115.576172"/>
     <use xlink:href="#DejaVuSans-6f" x="190.380859"/>
     <use xlink:href="#DejaVuSans-20" x="251.5625"/>
     <use xlink:href="#DejaVuSans-73" x="283.349609"/>
     <use xlink:href="#DejaVuSans-70" x="335.449219"/>
     <use xlink:href="#DejaVuSans-61" x="398.925781"/>
     <use xlink:href="#DejaVuSans-74" x="460.205078"/>
     <use xlink:href="#DejaVuSans-69" x="499.414062"/>
     <use xlink:href="#DejaVuSans-61" x="527.197266"/>
     <use xlink:href="#DejaVuSans-6c" x="588.476562"/>
     <use xlink:href="#DejaVuSans-20" x="616.259766"/>
     <use xlink:href="#DejaVuSans-73" x="648.046875"/>
     <use xlink:href="#DejaVuSans-74" x="700.146484"/>
     <use xlink:href="#DejaVuSans-72" x="739.355469"/>
     <use xlink:href="#DejaVuSans-75" x="780.46875"/>
     <use xlink:href="#DejaVuSans-63" x="843.847656"/>
     <use xlink:href="#DejaVuSans-74" x="898.828125"/>
     <use xlink:href="#DejaVuSans-75" x="938.037109"/>
     <use xlink:href="#DejaVuSans-72" x="1001.416016"/>
     <use xlink:href="#DejaVuSans-65" x="1040.279297"/>
    </g>
   </g>
   <g id="text_4">
    <!-- ✗ O(n²) parameters -->
    <g style="fill: #dc2626" transform="translate(27.99 180.109091) scale(0.095 -0.095)">
     <defs>
      <path id="DejaVuSans-4f" d="M 2522 4238 
Q 1834 4238 1429 3725 
Q 1025 3213 1025 2328 
Q 1025 1447 1429 934 
Q 1834 422 2522 422 
Q 3209 422 3611 934 
Q 4013 1447 4013 2328 
Q 4013 3213 3611 3725 
Q 3209 4238 2522 4238 
z
M 2522 4750 
Q 3503 4750 4090 4092 
Q 4678 3434 4678 2328 
Q 4678 1225 4090 567 
Q 3503 -91 2522 -91 
Q 1538 -91 948 565 
Q 359 1222 359 2328 
Q 359 3434 948 4092 
Q 1538 4750 2522 4750 
z
" transform="scale(0.015625)"/>
      <path id="DejaVuSans-28" d="M 1984 4856 
Q 1566 4138 1362 3434 
Q 1159 2731 1159 2009 
Q 1159 1288 1364 580 
Q 1569 -128 1984 -844 
L 1484 -844 
Q 1016 -109 783 600 
Q 550 1309 550 2009 
Q 550 2706 781 3412 
Q 1013 4119 1484 4856 
L 1984 4856 
z
" transform="scale(0.015625)"/>
      <path id="DejaVuSans-b2" d="M 838 2444 
L 2163 2444 
L 2163 2088 
L 294 2088 
L 294 2431 
Q 400 2528 597 2703 
Q 1672 3656 1672 3950 
Q 1672 4156 1509 4282 
Q 1347 4409 1081 4409 
Q 919 4409 728 4354 
Q 538 4300 313 4191 
L 313 4575 
Q 553 4663 761 4706 
Q 969 4750 1147 4750 
Q 1600 4750 1872 4544 
Q 2144 4338 2144 4000 
Q 2144 3566 1109 2678 
Q 934 2528 838 2444 
z
" transform="scale(0.015625)"/>
      <path id="DejaVuSans-29" d="M 513 4856 
L 1013 4856 
Q 1481 4119 1714 3412 
Q 1947 2706 1947 2009 
Q 1947 1309 1714 600 
Q 1481 -109 1013 -844 
L 513 -844 
Q 928 -128 1133 580 
Q 1338 1288 1338 2009 
Q 1338 2731 1133 3434 
Q 928 4138 513 4856 
z
" transform="scale(0.015625)"/>
     </defs>
     <use xlink:href="#DejaVuSans-2717"/>
     <use xlink:href="#DejaVuSans-20" x="83.789062"/>
     <use xlink:href="#DejaVuSans-4f" x="115.576172"/>
     <use xlink:href="#DejaVuSans-28" x="194.287109"/>
     <use xlink:href="#DejaVuSans-6e" x="233.300781"/>
     <use xlink:href="#DejaVuSans-b2" x="296.679688"/>
     <use xlink:href="#DejaVuSans-29" x="336.767578"/>
     <use xlink:href="#DejaVuSans-20" x="375.78125"/>
     <use xlink:href="#DejaVuSans-70" x="407.568359"/>
     <use xlink:href="#DejaVuSans-61" x="471.044922"/>
     <use xlink:href="#DejaVuSans-72" x="532.324219"/>
     <use xlink:href="#DejaVuSans-61" x="573.4375"/>
     <use xlink:href="#DejaVuSans-6d" x="634.716797"/>
     <use xlink:href="#DejaVuSans-65" x="732.128906"/>
     <use xlink:href="#DejaVuSans-74" x="793.652344"/>
     <use xlink:href="#DejaVuSans-65" x="832.861328"/>
     <use xlink:href="#DejaVuSans-72" x="894.384766"/>
     <use xlink:href="#DejaVuSans-73" x="935.498047"/>
    </g>
   </g>
   <g id="text_5">
    <!-- ✗ Not translation invariant -->
    <g style="fill: #dc2626" transform="translate(27.99 207.381818) scale(0.095 -0.095)">
     <defs>
      <path id="DejaVuSans-76" d="M 191 3500 
L 800 3500 
L 1894 563 
L 2988 3500 
L 3597 3500 
L 2284 0 
L 1503 0 
L 191 3500 
z
" transform="scale(0.015625)"/>
     </defs>
     <use xlink:href="#DejaVuSans-2717"/>
     <use xlink:href="#DejaVuSans-20" x="83.789062"/>
     <use xlink:href="#DejaVuSans-4e" x="115.576172"/>
     <use xlink:href="#DejaVuSans-6f" x="190.380859"/>
     <use xlink:href="#DejaVuSans-74" x="251.5625"/>
     <use xlink:href="#DejaVuSans-20" x="290.771484"/>
     <use xlink:href="#DejaVuSans-74" x="322.558594"/>
     <use xlink:href="#DejaVuSans-72" x="361.767578"/>
     <use xlink:href="#DejaVuSans-61" x="402.880859"/>
     <use xlink:href="#DejaVuSans-6e" x="464.160156"/>
     <use xlink:href="#DejaVuSans-73" x="527.539062"/>
     <use xlink:href="#DejaVuSans-6c" x="579.638672"/>
     <use xlink:href="#DejaVuSans-61" x="607.421875"/>
     <use xlink:href="#DejaVuSans-74" x="668.701172"/>
     <use xlink:href="#DejaVuSans-69" x="707.910156"/>
     <use xlink:href="#DejaVuSans-6f" x="735.693359"/>
     <use xlink:href="#DejaVuSans-6e" x="796.875"/>
     <use xlink:href="#DejaVuSans-20" x="860.253906"/>
     <use xlink:href="#DejaVuSans-69" x="892.041016"/>
     <use xlink:href="#DejaVuSans-6e" x="919.824219"/>
     <use xlink:href="#DejaVuSans-76" x="983.203125"/>
     <use xlink:href="#DejaVuSans-61" x="1042.382812"/>
     <use xlink:href="#DejaVuSans-72" x="1103.662109"/>
     <use xlink:href="#DejaVuSans-69" x="1144.775391"/>
     <use xlink:href="#DejaVuSans-61" x="1172.558594"/>
     <use xlink:href="#DejaVuSans-6e" x="1233.837891"/>
     <use xlink:href="#DejaVuSans-74" x="1297.216797"/>
    </g>
   </g>
   <g id="text_6">
    <!-- MNIST FC params: -->
    <g style="fill: #0f172a" transform="translate(163.523438 251.018182) scale(0.1 -0.1)">
     <defs>
      <path id="DejaVuSans-Bold-4d" d="M 588 4666 
L 2119 4666 
L 3181 2169 
L 4250 4666 
L 5778 4666 
L 5778 0 
L 4641 0 
L 4641 3413 
L 3566 897 
L 2803 897 
L 1728 3413 
L 1728 0 
L 588 0 
L 588 4666 
z
" transform="scale(0.015625)"/>
      <path id="DejaVuSans-Bold-4e" d="M 588 4666 
L 1931 4666 
L 3628 1466 
L 3628 4666 
L 4769 4666 
L 4769 0 
L 3425 0 
L 1728 3200 
L 1728 0 
L 588 0 
L 588 4666 
z
" transform="scale(0.015625)"/>
      <path id="DejaVuSans-Bold-49" d="M 588 4666 
L 1791 4666 
L 1791 0 
L 588 0 
L 588 4666 
z
" transform="scale(0.015625)"/>
      <path id="DejaVuSans-Bold-53" d="M 3834 4519 
L 3834 3531 
Q 3450 3703 3084 3790 
Q 2719 3878 2394 3878 
Q 1963 3878 1756 3759 
Q 1550 3641 1550 3391 
Q 1550 3203 1689 3098 
Q 1828 2994 2194 2919 
L 2706 2816 
Q 3484 2659 3812 2340 
Q 4141 2022 4141 1434 
Q 4141 663 3683 286 
Q 3225 -91 2284 -91 
Q 1841 -91 1394 -6 
Q 947 78 500 244 
L 500 1259 
Q 947 1022 1364 901 
Q 1781 781 2169 781 
Q 2563 781 2772 912 
Q 2981 1044 2981 1288 
Q 2981 1506 2839 1625 
Q 2697 1744 2272 1838 
L 1806 1941 
Q 1106 2091 782 2419 
Q 459 2747 459 3303 
Q 459 4000 909 4375 
Q 1359 4750 2203 4750 
Q 2588 4750 2994 4692 
Q 3400 4634 3834 4519 
z
" transform="scale(0.015625)"/>
      <path id="DejaVuSans-Bold-54" d="M 31 4666 
L 4331 4666 
L 4331 3756 
L 2784 3756 
L 2784 0 
L 1581 0 
L 1581 3756 
L 31 3756 
L 31 4666 
z
" transform="scale(0.015625)"/>
      <path id="DejaVuSans-Bold-20" transform="scale(0.015625)"/>
      <path id="DejaVuSans-Bold-46" d="M 588 4666 
L 3834 4666 
L 3834 3756 
L 1791 3756 
L 1791 2888 
L 3713 2888 
L 3713 1978 
L 1791 1978 
L 1791 0 
L 588 0 
L 588 4666 
z
" transform="scale(0.015625)"/>
      <path id="DejaVuSans-Bold-43" d="M 4288 256 
Q 3956 84 3597 -3 
Q 3238 -91 2847 -91 
Q 1681 -91 1000 561 
Q 319 1213 319 2328 
Q 319 3447 1000 4098 
Q 1681 4750 2847 4750 
Q 3238 4750 3597 4662 
Q 3956 4575 4288 4403 
L 4288 3438 
Q 3953 3666 3628 3772 
Q 3303 3878 2944 3878 
Q 2300 3878 1931 3465 
Q 1563 3053 1563 2328 
Q 1563 1606 1931 1193 
Q 2300 781 2944 781 
Q 3303 781 3628 887 
Q 3953 994 4288 1222 
L 4288 256 
z
" transform="scale(0.015625)"/>
      <path id="DejaVuSans-Bold-70" d="M 1656 506 
L 1656 -1331 
L 538 -1331 
L 538 3500 
L 1656 3500 
L 1656 2988 
Q 1888 3294 2169 3439 
Q 2450 3584 2816 3584 
Q 3463 3584 3878 3070 
Q 4294 2556 4294 1747 
Q 4294 938 3878 423 
Q 3463 -91 2816 -91 
Q 2450 -91 2169 54 
Q 1888 200 1656 506 
z
M 2400 2772 
Q 2041 2772 1848 2508 
Q 1656 2244 1656 1747 
Q 1656 1250 1848 986 
Q 2041 722 2400 722 
Q 2759 722 2948 984 
Q 3138 1247 3138 1747 
Q 3138 2247 2948 2509 
Q 2759 2772 2400 2772 
z
" transform="scale(0.015625)"/>
      <path id="DejaVuSans-Bold-61" d="M 2106 1575 
Q 1756 1575 1579 1456 
Q 1403 1338 1403 1106 
Q 1403 894 1545 773 
Q 1688 653 1941 653 
Q 2256 653 2472 879 
Q 2688 1106 2688 1447 
L 2688 1575 
L 2106 1575 
z
M 3816 1997 
L 3816 0 
L 2688 0 
L 2688 519 
Q 2463 200 2181 54 
Q 1900 -91 1497 -91 
Q 953 -91 614 226 
Q 275 544 275 1050 
Q 275 1666 698 1953 
Q 1122 2241 2028 2241 
L 2688 2241 
L 2688 2328 
Q 2688 2594 2478 2717 
Q 2269 2841 1825 2841 
Q 1466 2841 1156 2769 
Q 847 2697 581 2553 
L 581 3406 
Q 941 3494 1303 3539 
Q 1666 3584 2028 3584 
Q 2975 3584 3395 3211 
Q 3816 2838 3816 1997 
z
" transform="scale(0.015625)"/>
      <path id="DejaVuSans-Bold-72" d="M 3138 2547 
Q 2991 2616 2845 2648 
Q 2700 2681 2553 2681 
Q 2122 2681 1889 2404 
Q 1656 2128 1656 1613 
L 1656 0 
L 538 0 
L 538 3500 
L 1656 3500 
L 1656 2925 
Q 1872 3269 2151 3426 
Q 2431 3584 2822 3584 
Q 2878 3584 2943 3579 
Q 3009 3575 3134 3559 
L 3138 2547 
z
" transform="scale(0.015625)"/>
      <path id="DejaVuSans-Bold-6d" d="M 3781 2919 
Q 3994 3244 4286 3414 
Q 4578 3584 4928 3584 
Q 5531 3584 5847 3212 
Q 6163 2841 6163 2131 
L 6163 0 
L 5038 0 
L 5038 1825 
Q 5041 1866 5042 1909 
Q 5044 1953 5044 2034 
Q 5044 2406 4934 2573 
Q 4825 2741 4581 2741 
Q 4263 2741 4089 2478 
Q 3916 2216 3909 1719 
L 3909 0 
L 2784 0 
L 2784 1825 
Q 2784 2406 2684 2573 
Q 2584 2741 2328 2741 
Q 2006 2741 1831 2477 
Q 1656 2213 1656 1722 
L 1656 0 
L 531 0 
L 531 3500 
L 1656 3500 
L 1656 2988 
Q 1863 3284 2130 3434 
Q 2397 3584 2719 3584 
Q 3081 3584 3359 3409 
Q 3638 3234 3781 2919 
z
" transform="scale(0.015625)"/>
      <path id="DejaVuSans-Bold-73" d="M 3272 3391 
L 3272 2541 
Q 2913 2691 2578 2766 
Q 2244 2841 1947 2841 
Q 1628 2841 1473 2761 
Q 1319 2681 1319 2516 
Q 1319 2381 1436 2309 
Q 1553 2238 1856 2203 
L 2053 2175 
Q 2913 2066 3209 1816 
Q 3506 1566 3506 1031 
Q 3506 472 3093 190 
Q 2681 -91 1863 -91 
Q 1516 -91 1145 -36 
Q 775 19 384 128 
L 384 978 
Q 719 816 1070 734 
Q 1422 653 1784 653 
Q 2113 653 2278 743 
Q 2444 834 2444 1013 
Q 2444 1163 2330 1236 
Q 2216 1309 1875 1350 
L 1678 1375 
Q 931 1469 631 1722 
Q 331 1975 331 2491 
Q 331 3047 712 3315 
Q 1094 3584 1881 3584 
Q 2191 3584 2531 3537 
Q 2872 3491 3272 3391 
z
" transform="scale(0.015625)"/>
      <path id="DejaVuSans-Bold-3a" d="M 716 3500 
L 1844 3500 
L 1844 2291 
L 716 2291 
L 716 3500 
z
M 716 1209 
L 1844 1209 
L 1844 0 
L 716 0 
L 716 1209 
z
" transform="scale(0.015625)"/>
     </defs>
     <use xlink:href="#DejaVuSans-Bold-4d"/>
     <use xlink:href="#DejaVuSans-Bold-4e" x="99.511719"/>
     <use xlink:href="#DejaVuSans-Bold-49" x="183.203125"/>
     <use xlink:href="#DejaVuSans-Bold-53" x="220.410156"/>
     <use xlink:href="#DejaVuSans-Bold-54" x="292.431641"/>
     <use xlink:href="#DejaVuSans-Bold-20" x="360.644531"/>
     <use xlink:href="#DejaVuSans-Bold-46" x="395.458984"/>
     <use xlink:href="#DejaVuSans-Bold-43" x="463.769531"/>
     <use xlink:href="#DejaVuSans-Bold-20" x="537.158203"/>
     <use xlink:href="#DejaVuSans-Bold-70" x="571.972656"/>
     <use xlink:href="#DejaVuSans-Bold-61" x="643.554688"/>
     <use xlink:href="#DejaVuSans-Bold-72" x="711.035156"/>
     <use xlink:href="#DejaVuSans-Bold-61" x="760.351562"/>
     <use xlink:href="#DejaVuSans-Bold-6d" x="827.832031"/>
     <use xlink:href="#DejaVuSans-Bold-73" x="932.03125"/>
     <use xlink:href="#DejaVuSans-Bold-3a" x="991.552734"/>
    </g>
   </g>
   <g id="text_7">
    <!-- 784 × 512 + 512 × 10 -->
    <g style="fill: #475569" transform="translate(158.002344 267.093097) scale(0.1 -0.1)">
     <defs>
      <path id="DejaVuSans-37" d="M 525 4666 
L 3525 4666 
L 3525 4397 
L 1831 0 
L 1172 0 
L 2766 4134 
L 525 4134 
L 525 4666 
z
" transform="scale(0.015625)"/>
      <path id="DejaVuSans-38" d="M 2034 2216 
Q 1584 2216 1326 1975 
Q 1069 1734 1069 1313 
Q 1069 891 1326 650 
Q 1584 409 2034 409 
Q 2484 409 2743 651 
Q 3003 894 3003 1313 
Q 3003 1734 2745 1975 
Q 2488 2216 2034 2216 
z
M 1403 2484 
Q 997 2584 770 2862 
Q 544 3141 544 3541 
Q 544 4100 942 4425 
Q 1341 4750 2034 4750 
Q 2731 4750 3128 4425 
Q 3525 4100 3525 3541 
Q 3525 3141 3298 2862 
Q 3072 2584 2669 2484 
Q 3125 2378 3379 2068 
Q 3634 1759 3634 1313 
Q 3634 634 3220 271 
Q 2806 -91 2034 -91 
Q 1263 -91 848 271 
Q 434 634 434 1313 
Q 434 1759 690 2068 
Q 947 2378 1403 2484 
z
M 1172 3481 
Q 1172 3119 1398 2916 
Q 1625 2713 2034 2713 
Q 2441 2713 2670 2916 
Q 2900 3119 2900 3481 
Q 2900 3844 2670 4047 
Q 2441 4250 2034 4250 
Q 1625 4250 1398 4047 
Q 1172 3844 1172 3481 
z
" transform="scale(0.015625)"/>
      <path id="DejaVuSans-34" d="M 2419 4116 
L 825 1625 
L 2419 1625 
L 2419 4116 
z
M 2253 4666 
L 3047 4666 
L 3047 1625 
L 3713 1625 
L 3713 1100 
L 3047 1100 
L 3047 0 
L 2419 0 
L 2419 1100 
L 313 1100 
L 313 1709 
L 2253 4666 
z
" transform="scale(0.015625)"/>
      <path id="DejaVuSans-d7" d="M 4488 3438 
L 3059 2003 
L 4488 575 
L 4116 197 
L 2681 1631 
L 1247 197 
L 878 575 
L 2303 2003 
L 878 3438 
L 1247 3816 
L 2681 2381 
L 4116 3816 
L 4488 3438 
z
" transform="scale(0.015625)"/>
      <path id="DejaVuSans-35" d="M 691 4666 
L 3169 4666 
L 3169 4134 
L 1269 4134 
L 1269 2991 
Q 1406 3038 1543 3061 
Q 1681 3084 1819 3084 
Q 2600 3084 3056 2656 
Q 3513 2228 3513 1497 
Q 3513 744 3044 326 
Q 2575 -91 1722 -91 
Q 1428 -91 1123 -41 
Q 819 9 494 109 
L 494 744 
Q 775 591 1075 516 
Q 1375 441 1709 441 
Q 2250 441 2565 725 
Q 2881 1009 2881 1497 
Q 2881 1984 2565 2268 
Q 2250 2553 1709 2553 
Q 1456 2553 1204 2497 
Q 953 2441 691 2322 
L 691 4666 
z
" transform="scale(0.015625)"/>
      <path id="DejaVuSans-31" d="M 794 531 
L 1825 531 
L 1825 4091 
L 703 3866 
L 703 4441 
L 1819 4666 
L 2450 4666 
L 2450 531 
L 3481 531 
L 3481 0 
L 794 0 
L 794 531 
z
" transform="scale(0.015625)"/>
      <path id="DejaVuSans-32" d="M 1228 531 
L 3431 531 
L 3431 0 
L 469 0 
L 469 531 
Q 828 903 1448 1529 
Q 2069 2156 2228 2338 
Q 2531 2678 2651 2914 
Q 2772 3150 2772 3378 
Q 2772 3750 2511 3984 
Q 2250 4219 1831 4219 
Q 1534 4219 1204 4116 
Q 875 4013 500 3803 
L 500 4441 
Q 881 4594 1212 4672 
Q 1544 4750 1819 4750 
Q 2544 4750 2975 4387 
Q 3406 4025 3406 3419 
Q 3406 3131 3298 2873 
Q 3191 2616 2906 2266 
Q 2828 2175 2409 1742 
Q 1991 1309 1228 531 
z
" transform="scale(0.015625)"/>
      <path id="DejaVuSans-30" d="M 2034 4250 
Q 1547 4250 1301 3770 
Q 1056 3291 1056 2328 
Q 1056 1369 1301 889 
Q 1547 409 2034 409 
Q 2525 409 2770 889 
Q 3016 1369 3016 2328 
Q 3016 3291 2770 3770 
Q 2525 4250 2034 4250 
z
M 2034 4750 
Q 2819 4750 3233 4129 
Q 3647 3509 3647 2328 
Q 3647 1150 3233 529 
Q 2819 -91 2034 -91 
Q 1250 -91 836 529 
Q 422 1150 422 2328 
Q 422 3509 836 4129 
Q 1250 4750 2034 4750 
z
" transform="scale(0.015625)"/>
     </defs>
     <use xlink:href="#DejaVuSans-37"/>
     <use xlink:href="#DejaVuSans-38" x="63.623047"/>
     <use xlink:href="#DejaVuSans-34" x="127.246094"/>
     <use xlink:href="#DejaVuSans-20" x="190.869141"/>
     <use xlink:href="#DejaVuSans-d7" x="222.65625"/>
     <use xlink:href="#DejaVuSans-20" x="306.445312"/>
     <use xlink:href="#DejaVuSans-35" x="338.232422"/>
     <use xlink:href="#DejaVuSans-31" x="401.855469"/>
     <use xlink:href="#DejaVuSans-32" x="465.478516"/>
     <use xlink:href="#DejaVuSans-20" x="529.101562"/>
     <use xlink:href="#DejaVuSans-2b" x="560.888672"/>
     <use xlink:href="#DejaVuSans-20" x="644.677734"/>
     <use xlink:href="#DejaVuSans-35" x="676.464844"/>
     <use xlink:href="#DejaVuSans-31" x="740.087891"/>
     <use xlink:href="#DejaVuSans-32" x="803.710938"/>
     <use xlink:href="#DejaVuSans-20" x="867.333984"/>
     <use xlink:href="#DejaVuSans-d7" x="899.121094"/>
     <use xlink:href="#DejaVuSans-20" x="982.910156"/>
     <use xlink:href="#DejaVuSans-31" x="1014.697266"/>
     <use xlink:href="#DejaVuSans-30" x="1078.320312"/>
    </g>
    <!-- ≈ 406K parameters -->
    <g style="fill: #475569" transform="translate(165.907813 278.290909) scale(0.1 -0.1)">
     <defs>
      <path id="DejaVuSans-2248" d="M 4684 1947 
L 4684 1388 
Q 4356 1144 4076 1036 
Q 3797 928 3494 928 
Q 3150 928 2694 1113 
Q 2663 1125 2641 1134 
Q 2622 1141 2575 1159 
Q 2091 1350 1797 1350 
Q 1522 1350 1253 1231 
Q 984 1113 678 850 
L 678 1409 
Q 1006 1653 1286 1761 
Q 1566 1869 1869 1869 
Q 2213 1869 2672 1684 
Q 2706 1669 2722 1663 
Q 2741 1656 2788 1638 
Q 3272 1447 3566 1447 
Q 3834 1447 4098 1564 
Q 4363 1681 4684 1947 
z
M 4684 3163 
L 4684 2606 
Q 4356 2359 4076 2251 
Q 3797 2144 3494 2144 
Q 3150 2144 2694 2328 
Q 2663 2341 2641 2350 
Q 2622 2356 2575 2375 
Q 2091 2566 1797 2566 
Q 1522 2566 1253 2447 
Q 984 2328 678 2069 
L 678 2625 
Q 1006 2869 1286 2976 
Q 1566 3084 1869 3084 
Q 2213 3084 2672 2900 
Q 2703 2888 2719 2881 
Q 2741 2872 2788 2853 
Q 3272 2663 3566 2663 
Q 3834 2663 4098 2780 
Q 4363 2897 4684 3163 
z
" transform="scale(0.015625)"/>
      <path id="DejaVuSans-36" d="M 2113 2584 
Q 1688 2584 1439 2293 
Q 1191 2003 1191 1497 
Q 1191 994 1439 701 
Q 1688 409 2113 409 
Q 2538 409 2786 701 
Q 3034 994 3034 1497 
Q 3034 2003 2786 2293 
Q 2538 2584 2113 2584 
z
M 3366 4563 
L 3366 3988 
Q 3128 4100 2886 4159 
Q 2644 4219 2406 4219 
Q 1781 4219 1451 3797 
Q 1122 3375 1075 2522 
Q 1259 2794 1537 2939 
Q 1816 3084 2150 3084 
Q 2853 3084 3261 2657 
Q 3669 2231 3669 1497 
Q 3669 778 3244 343 
Q 2819 -91 2113 -91 
Q 1303 -91 875 529 
Q 447 1150 447 2328 
Q 447 3434 972 4092 
Q 1497 4750 2381 4750 
Q 2619 4750 2861 4703 
Q 3103 4656 3366 4563 
z
" transform="scale(0.015625)"/>
      <path id="DejaVuSans-4b" d="M 628 4666 
L 1259 4666 
L 1259 2694 
L 3353 4666 
L 4166 4666 
L 1850 2491 
L 4331 0 
L 3500 0 
L 1259 2247 
L 1259 0 
L 628 0 
L 628 4666 
z
" transform="scale(0.015625)"/>
     </defs>
     <use xlink:href="#DejaVuSans-2248"/>
     <use xlink:href="#DejaVuSans-20" x="83.789062"/>
     <use xlink:href="#DejaVuSans-34" x="115.576172"/>
     <use xlink:href="#DejaVuSans-30" x="179.199219"/>
     <use xlink:href="#DejaVuSans-36" x="242.822266"/>
     <use xlink:href="#DejaVuSans-4b" x="306.445312"/>
     <use xlink:href="#DejaVuSans-20" x="372.021484"/>
     <use xlink:href="#DejaVuSans-70" x="403.808594"/>
     <use xlink:href="#DejaVuSans-61" x="467.285156"/>
     <use xlink:href="#DejaVuSans-72" x="528.564453"/>
     <use xlink:href="#DejaVuSans-61" x="569.677734"/>
     <use xlink:href="#DejaVuSans-6d" x="630.957031"/>
     <use xlink:href="#DejaVuSans-65" x="728.369141"/>
     <use xlink:href="#DejaVuSans-74" x="789.892578"/>
     <use xlink:href="#DejaVuSans-65" x="829.101562"/>
     <use xlink:href="#DejaVuSans-72" x="890.625"/>
     <use xlink:href="#DejaVuSans-73" x="931.738281"/>
    </g>
   </g>
   <g id="text_8">
    <!-- CNN typically gets +5-10% accuracy on images -->
    <g style="fill: #475569" transform="translate(113.430703 324.654545) scale(0.085 -0.085)">
     <defs>
      <path id="DejaVuSans-Oblique-43" d="M 4447 4306 
L 4319 3641 
Q 4019 3944 3683 4091 
Q 3347 4238 2956 4238 
Q 2422 4238 2017 3981 
Q 1613 3725 1319 3200 
Q 1131 2863 1032 2486 
Q 934 2109 934 1728 
Q 934 1091 1264 756 
Q 1594 422 2222 422 
Q 2656 422 3056 561 
Q 3456 700 3834 978 
L 3688 231 
Q 3316 72 2936 -9 
Q 2556 -91 2175 -91 
Q 1278 -91 773 396 
Q 269 884 269 1753 
Q 269 2309 461 2846 
Q 653 3384 1013 3828 
Q 1394 4300 1883 4525 
Q 2372 4750 3022 4750 
Q 3422 4750 3780 4639 
Q 4138 4528 4447 4306 
z
" transform="scale(0.015625)"/>
      <path id="DejaVuSans-Oblique-4e" d="M 1081 4666 
L 1931 4666 
L 3219 666 
L 4000 4666 
L 4616 4666 
L 3706 0 
L 2853 0 
L 1569 4025 
L 788 0 
L 172 0 
L 1081 4666 
z
" transform="scale(0.015625)"/>
      <path id="DejaVuSans-Oblique-20" transform="scale(0.015625)"/>
      <path id="DejaVuSans-Oblique-74" d="M 2706 3500 
L 2619 3053 
L 1472 3053 
L 1100 1153 
Q 1081 1047 1072 975 
Q 1063 903 1063 863 
Q 1063 663 1183 572 
Q 1303 481 1569 481 
L 2150 481 
L 2053 0 
L 1503 0 
Q 991 0 739 200 
Q 488 400 488 806 
Q 488 878 497 964 
Q 506 1050 525 1153 
L 897 3053 
L 409 3053 
L 500 3500 
L 978 3500 
L 1172 4494 
L 1747 4494 
L 1556 3500 
L 2706 3500 
z
" transform="scale(0.015625)"/>
      <path id="DejaVuSans-Oblique-79" d="M 1588 -325 
Q 1188 -997 936 -1164 
Q 684 -1331 294 -1331 
L -159 -1331 
L -63 -850 
L 269 -850 
Q 509 -850 678 -719 
Q 847 -588 1056 -206 
L 1234 128 
L 459 3500 
L 1069 3500 
L 1650 819 
L 3256 3500 
L 3859 3500 
L 1588 -325 
z
" transform="scale(0.015625)"/>
      <path id="DejaVuSans-Oblique-70" d="M 3175 2156 
Q 3175 2616 2975 2859 
Q 2775 3103 2400 3103 
Q 2144 3103 1911 2972 
Q 1678 2841 1497 2591 
Q 1319 2344 1212 1994 
Q 1106 1644 1106 1300 
Q 1106 863 1306 627 
Q 1506 391 1875 391 
Q 2147 391 2380 519 
Q 2613 647 2778 891 
Q 2956 1147 3065 1494 
Q 3175 1841 3175 2156 
z
M 1394 2969 
Q 1625 3272 1939 3428 
Q 2253 3584 2638 3584 
Q 3175 3584 3472 3232 
Q 3769 2881 3769 2247 
Q 3769 1728 3584 1258 
Q 3400 788 3053 416 
Q 2822 169 2531 39 
Q 2241 -91 1919 -91 
Q 1547 -91 1294 64 
Q 1041 219 916 525 
L 556 -1331 
L -19 -1331 
L 922 3500 
L 1497 3500 
L 1394 2969 
z
" transform="scale(0.015625)"/>
      <path id="DejaVuSans-Oblique-69" d="M 1172 4863 
L 1747 4863 
L 1606 4134 
L 1031 4134 
L 1172 4863 
z
M 909 3500 
L 1484 3500 
L 800 0 
L 225 0 
L 909 3500 
z
" transform="scale(0.015625)"/>
      <path id="DejaVuSans-Oblique-63" d="M 3431 3366 
L 3316 2797 
Q 3109 2947 2876 3022 
Q 2644 3097 2394 3097 
Q 2119 3097 1870 3000 
Q 1622 2903 1453 2725 
Q 1184 2453 1037 2087 
Q 891 1722 891 1331 
Q 891 859 1127 628 
Q 1363 397 1844 397 
Q 2081 397 2348 469 
Q 2616 541 2906 684 
L 2797 116 
Q 2547 13 2283 -39 
Q 2019 -91 1741 -91 
Q 1044 -91 669 257 
Q 294 606 294 1253 
Q 294 1797 489 2255 
Q 684 2713 1069 3078 
Q 1331 3328 1684 3456 
Q 2038 3584 2456 3584 
Q 2700 3584 2940 3529 
Q 3181 3475 3431 3366 
z
" transform="scale(0.015625)"/>
      <path id="DejaVuSans-Oblique-61" d="M 3438 1997 
L 3047 0 
L 2472 0 
L 2578 531 
Q 2325 219 2001 64 
Q 1678 -91 1281 -91 
Q 834 -91 548 182 
Q 263 456 263 884 
Q 263 1497 752 1853 
Q 1241 2209 2100 2209 
L 2900 2209 
L 2931 2363 
Q 2938 2388 2941 2417 
Q 2944 2447 2944 2509 
Q 2944 2788 2717 2942 
Q 2491 3097 2081 3097 
Q 1800 3097 1504 3025 
Q 1209 2953 897 2809 
L 997 3341 
Q 1322 3463 1633 3523 
Q 1944 3584 2234 3584 
Q 2853 3584 3176 3315 
Q 3500 3047 3500 2534 
Q 3500 2431 3484 2292 
Q 3469 2153 3438 1997 
z
M 2816 1759 
L 2241 1759 
Q 1534 1759 1195 1570 
Q 856 1381 856 984 
Q 856 709 1029 553 
Q 1203 397 1509 397 
Q 1978 397 2328 733 
Q 2678 1069 2791 1631 
L 2816 1759 
z
" transform="scale(0.015625)"/>
      <path id="DejaVuSans-Oblique-6c" d="M 1172 4863 
L 1747 4863 
L 800 0 
L 225 0 
L 1172 4863 
z
" transform="scale(0.015625)"/>
      <path id="DejaVuSans-Oblique-67" d="M 3816 3500 
L 3219 434 
Q 3047 -456 2561 -893 
Q 2075 -1331 1253 -1331 
Q 950 -1331 690 -1286 
Q 431 -1241 206 -1147 
L 313 -588 
Q 525 -725 762 -790 
Q 1000 -856 1269 -856 
Q 1816 -856 2167 -557 
Q 2519 -259 2631 300 
L 2681 563 
Q 2441 288 2122 144 
Q 1803 0 1434 0 
Q 903 0 598 351 
Q 294 703 294 1319 
Q 294 1803 478 2267 
Q 663 2731 997 3091 
Q 1219 3328 1514 3456 
Q 1809 3584 2131 3584 
Q 2484 3584 2746 3420 
Q 3009 3256 3138 2956 
L 3238 3500 
L 3816 3500 
z
M 2950 2216 
Q 2950 2641 2750 2872 
Q 2550 3103 2181 3103 
Q 1953 3103 1747 3012 
Q 1541 2922 1394 2759 
Q 1156 2491 1023 2127 
Q 891 1763 891 1375 
Q 891 944 1092 712 
Q 1294 481 1672 481 
Q 2219 481 2584 976 
Q 2950 1472 2950 2216 
z
" transform="scale(0.015625)"/>
      <path id="DejaVuSans-Oblique-65" d="M 3078 2063 
Q 3088 2113 3092 2166 
Q 3097 2219 3097 2272 
Q 3097 2653 2873 2875 
Q 2650 3097 2266 3097 
Q 1838 3097 1509 2826 
Q 1181 2556 1013 2059 
L 3078 2063 
z
M 3578 1613 
L 903 1613 
Q 884 1494 878 1425 
Q 872 1356 872 1306 
Q 872 872 1139 634 
Q 1406 397 1894 397 
Q 2269 397 2603 481 
Q 2938 566 3225 728 
L 3116 159 
Q 2806 34 2476 -28 
Q 2147 -91 1806 -91 
Q 1078 -91 686 257 
Q 294 606 294 1247 
Q 294 1794 489 2264 
Q 684 2734 1063 3103 
Q 1306 3334 1642 3459 
Q 1978 3584 2356 3584 
Q 2950 3584 3301 3228 
Q 3653 2872 3653 2272 
Q 3653 2128 3634 1964 
Q 3616 1800 3578 1613 
z
" transform="scale(0.015625)"/>
      <path id="DejaVuSans-Oblique-73" d="M 3200 3397 
L 3091 2853 
Q 2863 2978 2609 3040 
Q 2356 3103 2088 3103 
Q 1634 3103 1373 2948 
Q 1113 2794 1113 2528 
Q 1113 2219 1719 2053 
Q 1766 2041 1788 2034 
L 1972 1978 
Q 2547 1819 2739 1644 
Q 2931 1469 2931 1166 
Q 2931 609 2489 259 
Q 2047 -91 1331 -91 
Q 1053 -91 747 -37 
Q 441 16 72 128 
L 184 722 
Q 500 559 806 475 
Q 1113 391 1394 391 
Q 1816 391 2080 572 
Q 2344 753 2344 1031 
Q 2344 1331 1650 1516 
L 1591 1531 
L 1394 1581 
Q 956 1697 753 1886 
Q 550 2075 550 2369 
Q 550 2928 970 3256 
Q 1391 3584 2113 3584 
Q 2397 3584 2667 3537 
Q 2938 3491 3200 3397 
z
" transform="scale(0.015625)"/>
      <path id="DejaVuSans-Oblique-2b" d="M 2944 4013 
L 2944 2272 
L 4684 2272 
L 4684 1741 
L 2944 1741 
L 2944 0 
L 2419 0 
L 2419 1741 
L 678 1741 
L 678 2272 
L 2419 2272 
L 2419 4013 
L 2944 4013 
z
" transform="scale(0.015625)"/>
      <path id="DejaVuSans-Oblique-35" d="M 3719 4666 
L 3622 4141 
L 1691 4141 
L 1466 2988 
Q 1609 3034 1757 3056 
Q 1906 3078 2059 3078 
Q 2706 3078 3081 2731 
Q 3456 2384 3456 1791 
Q 3456 1375 3264 994 
Q 3072 613 2719 325 
Q 2469 125 2108 17 
Q 1747 -91 1319 -91 
Q 1038 -91 744 -41 
Q 450 9 128 109 
L 244 697 
Q 531 556 820 486 
Q 1109 416 1403 416 
Q 2013 416 2411 781 
Q 2809 1147 2809 1697 
Q 2809 2103 2548 2328 
Q 2288 2553 1819 2553 
Q 1572 2553 1305 2495 
Q 1038 2438 756 2322 
L 1209 4666 
L 3719 4666 
z
" transform="scale(0.015625)"/>
      <path id="DejaVuSans-Oblique-2d" d="M 391 2009 
L 2075 2009 
L 1978 1497 
L 288 1497 
L 391 2009 
z
" transform="scale(0.015625)"/>
      <path id="DejaVuSans-Oblique-31" d="M 416 531 
L 1447 531 
L 2144 4122 
L 978 3897 
L 1088 4441 
L 2247 4666 
L 2881 4666 
L 2075 531 
L 3103 531 
L 3003 0 
L 313 0 
L 416 531 
z
" transform="scale(0.015625)"/>
      <path id="DejaVuSans-Oblique-30" d="M 2444 4750 
Q 3078 4750 3414 4328 
Q 3750 3906 3750 3116 
Q 3750 2516 3592 1923 
Q 3434 1331 3150 863 
Q 2859 394 2467 151 
Q 2075 -91 1600 -91 
Q 988 -91 653 334 
Q 319 759 319 1544 
Q 319 2138 480 2733 
Q 641 3328 928 3794 
Q 1216 4263 1602 4506 
Q 1988 4750 2444 4750 
z
M 2406 4250 
Q 2169 4250 1955 4123 
Q 1741 3997 1569 3750 
Q 1281 3338 1111 2720 
Q 941 2103 941 1453 
Q 941 938 1123 673 
Q 1306 409 1663 409 
Q 1913 409 2125 536 
Q 2338 663 2509 909 
Q 2794 1319 2961 1936 
Q 3128 2553 3128 3206 
Q 3128 3722 2945 3986 
Q 2763 4250 2406 4250 
z
" transform="scale(0.015625)"/>
      <path id="DejaVuSans-Oblique-25" d="M 1503 2209 
Q 1078 2209 829 2486 
Q 581 2763 581 3238 
Q 581 3913 943 4331 
Q 1306 4750 1888 4750 
Q 2313 4750 2561 4470 
Q 2809 4191 2809 3713 
Q 2809 3044 2446 2626 
Q 2084 2209 1503 2209 
z
M 2309 3694 
Q 2309 4022 2187 4187 
Q 2066 4353 1825 4353 
Q 1475 4353 1278 4050 
Q 1081 3747 1081 3206 
Q 1081 2919 1207 2762 
Q 1334 2606 1569 2606 
Q 1903 2606 2106 2903 
Q 2309 3200 2309 3694 
z
M 4997 1394 
Q 4997 1728 4878 1893 
Q 4759 2059 4519 2059 
Q 4172 2059 3973 1754 
Q 3775 1450 3775 909 
Q 3775 619 3901 462 
Q 4028 306 4263 306 
Q 4597 306 4797 603 
Q 4997 900 4997 1394 
z
M 4197 -91 
Q 3772 -91 3525 187 
Q 3278 466 3278 941 
Q 3278 1616 3639 2033 
Q 4000 2450 4581 2450 
Q 5006 2450 5251 2175 
Q 5497 1900 5497 1422 
Q 5497 750 5136 329 
Q 4775 -91 4197 -91 
z
M 5259 4750 
L 1403 -91 
L 903 -91 
L 4763 4750 
L 5259 4750 
z
" transform="scale(0.015625)"/>
      <path id="DejaVuSans-Oblique-75" d="M 428 1388 
L 838 3500 
L 1416 3500 
L 1006 1409 
Q 975 1256 961 1147 
Q 947 1038 947 966 
Q 947 700 1109 554 
Q 1272 409 1569 409 
Q 2031 409 2368 721 
Q 2706 1034 2809 1563 
L 3194 3500 
L 3769 3500 
L 3091 0 
L 2516 0 
L 2631 550 
Q 2388 244 2052 76 
Q 1716 -91 1338 -91 
Q 878 -91 622 161 
Q 366 413 366 863 
Q 366 956 381 1097 
Q 397 1238 428 1388 
z
" transform="scale(0.015625)"/>
      <path id="DejaVuSans-Oblique-72" d="M 2853 2969 
Q 2766 3016 2653 3041 
Q 2541 3066 2413 3066 
Q 1953 3066 1609 2717 
Q 1266 2369 1153 1784 
L 800 0 
L 225 0 
L 909 3500 
L 1484 3500 
L 1375 2956 
Q 1603 3259 1920 3421 
Q 2238 3584 2597 3584 
Q 2691 3584 2781 3573 
Q 2872 3563 2963 3538 
L 2853 2969 
z
" transform="scale(0.015625)"/>
      <path id="DejaVuSans-Oblique-6f" d="M 1625 -91 
Q 1009 -91 651 289 
Q 294 669 294 1325 
Q 294 1706 417 2101 
Q 541 2497 738 2766 
Q 1047 3184 1428 3384 
Q 1809 3584 2291 3584 
Q 2888 3584 3255 3212 
Q 3622 2841 3622 2241 
Q 3622 1825 3500 1412 
Q 3378 1000 3181 728 
Q 2875 309 2494 109 
Q 2113 -91 1625 -91 
z
M 891 1344 
Q 891 869 1089 633 
Q 1288 397 1691 397 
Q 2269 397 2648 901 
Q 3028 1406 3028 2181 
Q 3028 2634 2825 2865 
Q 2622 3097 2228 3097 
Q 1903 3097 1650 2945 
Q 1397 2794 1197 2484 
Q 1050 2253 970 1956 
Q 891 1659 891 1344 
z
" transform="scale(0.015625)"/>
      <path id="DejaVuSans-Oblique-6e" d="M 3566 2113 
L 3156 0 
L 2578 0 
L 2988 2091 
Q 3016 2238 3031 2350 
Q 3047 2463 3047 2528 
Q 3047 2791 2881 2937 
Q 2716 3084 2419 3084 
Q 1956 3084 1622 2776 
Q 1288 2469 1184 1941 
L 800 0 
L 225 0 
L 903 3500 
L 1478 3500 
L 1363 2950 
Q 1603 3253 1940 3418 
Q 2278 3584 2650 3584 
Q 3113 3584 3367 3334 
Q 3622 3084 3622 2631 
Q 3622 2519 3608 2391 
Q 3594 2263 3566 2113 
z
" transform="scale(0.015625)"/>
      <path id="DejaVuSans-Oblique-6d" d="M 5747 2113 
L 5338 0 
L 4763 0 
L 5166 2094 
Q 5191 2228 5203 2325 
Q 5216 2422 5216 2491 
Q 5216 2772 5059 2928 
Q 4903 3084 4622 3084 
Q 4203 3084 3875 2770 
Q 3547 2456 3450 1953 
L 3066 0 
L 2491 0 
L 2900 2094 
Q 2925 2209 2937 2307 
Q 2950 2406 2950 2484 
Q 2950 2769 2794 2926 
Q 2638 3084 2363 3084 
Q 1938 3084 1609 2770 
Q 1281 2456 1184 1953 
L 800 0 
L 225 0 
L 909 3500 
L 1484 3500 
L 1375 2956 
Q 1609 3263 1923 3423 
Q 2238 3584 2597 3584 
Q 2978 3584 3223 3384 
Q 3469 3184 3519 2828 
Q 3781 3197 4126 3390 
Q 4472 3584 4856 3584 
Q 5306 3584 5551 3325 
Q 5797 3066 5797 2591 
Q 5797 2488 5784 2364 
Q 5772 2241 5747 2113 
z
" transform="scale(0.015625)"/>
     </defs>
     <use xlink:href="#DejaVuSans-Oblique-43"/>
     <use xlink:href="#DejaVuSans-Oblique-4e" x="69.824219"/>
     <use xlink:href="#DejaVuSans-Oblique-4e" x="144.628906"/>
     <use xlink:href="#DejaVuSans-Oblique-20" x="219.433594"/>
     <use xlink:href="#DejaVuSans-Oblique-74" x="251.220703"/>
     <use xlink:href="#DejaVuSans-Oblique-79" x="290.429688"/>
     <use xlink:href="#DejaVuSans-Oblique-70" x="349.609375"/>
     <use xlink:href="#DejaVuSans-Oblique-69" x="413.085938"/>
     <use xlink:href="#DejaVuSans-Oblique-63" x="440.869141"/>
     <use xlink:href="#DejaVuSans-Oblique-61" x="495.849609"/>
     <use xlink:href="#DejaVuSans-Oblique-6c" x="557.128906"/>
     <use xlink:href="#DejaVuSans-Oblique-6c" x="584.912109"/>
     <use xlink:href="#DejaVuSans-Oblique-79" x="612.695312"/>
     <use xlink:href="#DejaVuSans-Oblique-20" x="671.875"/>
     <use xlink:href="#DejaVuSans-Oblique-67" x="703.662109"/>
     <use xlink:href="#DejaVuSans-Oblique-65" x="767.138672"/>
     <use xlink:href="#DejaVuSans-Oblique-74" x="828.662109"/>
     <use xlink:href="#DejaVuSans-Oblique-73" x="867.871094"/>
     <use xlink:href="#DejaVuSans-Oblique-20" x="919.970703"/>
     <use xlink:href="#DejaVuSans-Oblique-2b" x="951.757812"/>
     <use xlink:href="#DejaVuSans-Oblique-35" x="1035.546875"/>
     <use xlink:href="#DejaVuSans-Oblique-2d" x="1099.169922"/>
     <use xlink:href="#DejaVuSans-Oblique-31" x="1135.253906"/>
     <use xlink:href="#DejaVuSans-Oblique-30" x="1198.876953"/>
     <use xlink:href="#DejaVuSans-Oblique-25" x="1262.5"/>
     <use xlink:href="#DejaVuSans-Oblique-20" x="1357.519531"/>
     <use xlink:href="#DejaVuSans-Oblique-61" x="1389.306641"/>
     <use xlink:href="#DejaVuSans-Oblique-63" x="1450.585938"/>
     <use xlink:href="#DejaVuSans-Oblique-63" x="1505.566406"/>
     <use xlink:href="#DejaVuSans-Oblique-75" x="1560.546875"/>
     <use xlink:href="#DejaVuSans-Oblique-72" x="1623.925781"/>
     <use xlink:href="#DejaVuSans-Oblique-61" x="1665.039062"/>
     <use xlink:href="#DejaVuSans-Oblique-63" x="1726.318359"/>
     <use xlink:href="#DejaVuSans-Oblique-79" x="1781.298828"/>
     <use xlink:href="#DejaVuSans-Oblique-20" x="1840.478516"/>
     <use xlink:href="#DejaVuSans-Oblique-6f" x="1872.265625"/>
     <use xlink:href="#DejaVuSans-Oblique-6e" x="1933.447266"/>
     <use xlink:href="#DejaVuSans-Oblique-20" x="1996.826172"/>
     <use xlink:href="#DejaVuSans-Oblique-69" x="2028.613281"/>
     <use xlink:href="#DejaVuSans-Oblique-6d" x="2056.396484"/>
     <use xlink:href="#DejaVuSans-Oblique-61" x="2153.808594"/>
     <use xlink:href="#DejaVuSans-Oblique-67" x="2215.087891"/>
     <use xlink:href="#DejaVuSans-Oblique-65" x="2278.564453"/>
     <use xlink:href="#DejaVuSans-Oblique-73" x="2340.087891"/>
    </g>
   </g>
   <g id="text_9">
    <!-- Fully Connected (FC) -->
    <g style="fill: #0f172a" transform="translate(150.762891 43.2) scale(0.11 -0.11)">
     <defs>
      <path id="DejaVuSans-Bold-75" d="M 500 1363 
L 500 3500 
L 1625 3500 
L 1625 3150 
Q 1625 2866 1622 2436 
Q 1619 2006 1619 1863 
Q 1619 1441 1641 1255 
Q 1663 1069 1716 984 
Q 1784 875 1895 815 
Q 2006 756 2150 756 
Q 2500 756 2700 1025 
Q 2900 1294 2900 1772 
L 2900 3500 
L 4019 3500 
L 4019 0 
L 2900 0 
L 2900 506 
Q 2647 200 2364 54 
Q 2081 -91 1741 -91 
Q 1134 -91 817 281 
Q 500 653 500 1363 
z
" transform="scale(0.015625)"/>
      <path id="DejaVuSans-Bold-6c" d="M 538 4863 
L 1656 4863 
L 1656 0 
L 538 0 
L 538 4863 
z
" transform="scale(0.015625)"/>
      <path id="DejaVuSans-Bold-79" d="M 78 3500 
L 1197 3500 
L 2138 1125 
L 2938 3500 
L 4056 3500 
L 2584 -331 
Q 2363 -916 2067 -1148 
Q 1772 -1381 1288 -1381 
L 641 -1381 
L 641 -647 
L 991 -647 
Q 1275 -647 1404 -556 
Q 1534 -466 1606 -231 
L 1638 -134 
L 78 3500 
z
" transform="scale(0.015625)"/>
      <path id="DejaVuSans-Bold-6f" d="M 2203 2784 
Q 1831 2784 1636 2517 
Q 1441 2250 1441 1747 
Q 1441 1244 1636 976 
Q 1831 709 2203 709 
Q 2569 709 2762 976 
Q 2956 1244 2956 1747 
Q 2956 2250 2762 2517 
Q 2569 2784 2203 2784 
z
M 2203 3584 
Q 3106 3584 3614 3096 
Q 4122 2609 4122 1747 
Q 4122 884 3614 396 
Q 3106 -91 2203 -91 
Q 1297 -91 786 396 
Q 275 884 275 1747 
Q 275 2609 786 3096 
Q 1297 3584 2203 3584 
z
" transform="scale(0.015625)"/>
      <path id="DejaVuSans-Bold-6e" d="M 4056 2131 
L 4056 0 
L 2931 0 
L 2931 347 
L 2931 1631 
Q 2931 2084 2911 2256 
Q 2891 2428 2841 2509 
Q 2775 2619 2662 2680 
Q 2550 2741 2406 2741 
Q 2056 2741 1856 2470 
Q 1656 2200 1656 1722 
L 1656 0 
L 538 0 
L 538 3500 
L 1656 3500 
L 1656 2988 
Q 1909 3294 2193 3439 
Q 2478 3584 2822 3584 
Q 3428 3584 3742 3212 
Q 4056 2841 4056 2131 
z
" transform="scale(0.015625)"/>
      <path id="DejaVuSans-Bold-65" d="M 4031 1759 
L 4031 1441 
L 1416 1441 
Q 1456 1047 1700 850 
Q 1944 653 2381 653 
Q 2734 653 3104 758 
Q 3475 863 3866 1075 
L 3866 213 
Q 3469 63 3072 -14 
Q 2675 -91 2278 -91 
Q 1328 -91 801 392 
Q 275 875 275 1747 
Q 275 2603 792 3093 
Q 1309 3584 2216 3584 
Q 3041 3584 3536 3087 
Q 4031 2591 4031 1759 
z
M 2881 2131 
Q 2881 2450 2695 2645 
Q 2509 2841 2209 2841 
Q 1884 2841 1681 2658 
Q 1478 2475 1428 2131 
L 2881 2131 
z
" transform="scale(0.015625)"/>
      <path id="DejaVuSans-Bold-63" d="M 3366 3391 
L 3366 2478 
Q 3138 2634 2908 2709 
Q 2678 2784 2431 2784 
Q 1963 2784 1702 2511 
Q 1441 2238 1441 1747 
Q 1441 1256 1702 982 
Q 1963 709 2431 709 
Q 2694 709 2930 787 
Q 3166 866 3366 1019 
L 3366 103 
Q 3103 6 2833 -42 
Q 2563 -91 2291 -91 
Q 1344 -91 809 395 
Q 275 881 275 1747 
Q 275 2613 809 3098 
Q 1344 3584 2291 3584 
Q 2566 3584 2833 3536 
Q 3100 3488 3366 3391 
z
" transform="scale(0.015625)"/>
      <path id="DejaVuSans-Bold-74" d="M 1759 4494 
L 1759 3500 
L 2913 3500 
L 2913 2700 
L 1759 2700 
L 1759 1216 
Q 1759 972 1856 886 
Q 1953 800 2241 800 
L 2816 800 
L 2816 0 
L 1856 0 
Q 1194 0 917 276 
Q 641 553 641 1216 
L 641 2700 
L 84 2700 
L 84 3500 
L 641 3500 
L 641 4494 
L 1759 4494 
z
" transform="scale(0.015625)"/>
      <path id="DejaVuSans-Bold-64" d="M 2919 2988 
L 2919 4863 
L 4044 4863 
L 4044 0 
L 2919 0 
L 2919 506 
Q 2688 197 2409 53 
Q 2131 -91 1766 -91 
Q 1119 -91 703 423 
Q 288 938 288 1747 
Q 288 2556 703 3070 
Q 1119 3584 1766 3584 
Q 2128 3584 2408 3439 
Q 2688 3294 2919 2988 
z
M 2181 722 
Q 2541 722 2730 984 
Q 2919 1247 2919 1747 
Q 2919 2247 2730 2509 
Q 2541 2772 2181 2772 
Q 1825 2772 1636 2509 
Q 1447 2247 1447 1747 
Q 1447 1247 1636 984 
Q 1825 722 2181 722 
z
" transform="scale(0.015625)"/>
      <path id="DejaVuSans-Bold-28" d="M 2413 -844 
L 1484 -844 
Q 1006 -72 778 623 
Q 550 1319 550 2003 
Q 550 2688 779 3389 
Q 1009 4091 1484 4856 
L 2413 4856 
Q 2013 4116 1813 3408 
Q 1613 2700 1613 2009 
Q 1613 1319 1811 609 
Q 2009 -100 2413 -844 
z
" transform="scale(0.015625)"/>
      <path id="DejaVuSans-Bold-29" d="M 513 -844 
Q 913 -100 1113 609 
Q 1313 1319 1313 2009 
Q 1313 2700 1113 3408 
Q 913 4116 513 4856 
L 1441 4856 
Q 1916 4091 2145 3389 
Q 2375 2688 2375 2003 
Q 2375 1319 2147 623 
Q 1919 -72 1441 -844 
L 513 -844 
z
" transform="scale(0.015625)"/>
     </defs>
     <use xlink:href="#DejaVuSans-Bold-46"/>
     <use xlink:href="#DejaVuSans-Bold-75" x="63.310547"/>
     <use xlink:href="#DejaVuSans-Bold-6c" x="134.501953"/>
     <use xlink:href="#DejaVuSans-Bold-6c" x="168.779297"/>
     <use xlink:href="#DejaVuSans-Bold-79" x="203.056641"/>
     <use xlink:href="#DejaVuSans-Bold-20" x="268.242188"/>
     <use xlink:href="#DejaVuSans-Bold-43" x="303.056641"/>
     <use xlink:href="#DejaVuSans-Bold-6f" x="376.445312"/>
     <use xlink:href="#DejaVuSans-Bold-6e" x="445.146484"/>
     <use xlink:href="#DejaVuSans-Bold-6e" x="516.337891"/>
     <use xlink:href="#DejaVuSans-Bold-65" x="587.529297"/>
     <use xlink:href="#DejaVuSans-Bold-63" x="655.351562"/>
     <use xlink:href="#DejaVuSans-Bold-74" x="714.628906"/>
     <use xlink:href="#DejaVuSans-Bold-65" x="762.431641"/>
     <use xlink:href="#DejaVuSans-Bold-64" x="830.253906"/>
     <use xlink:href="#DejaVuSans-Bold-20" x="901.835938"/>
     <use xlink:href="#DejaVuSans-Bold-28" x="936.650391"/>
     <use xlink:href="#DejaVuSans-Bold-46" x="982.353516"/>
     <use xlink:href="#DejaVuSans-Bold-43" x="1050.664062"/>
     <use xlink:href="#DejaVuSans-Bold-29" x="1124.052734"/>
    </g>
   </g>
  </g>
  <g id="axes_2">
   <g id="text_10">
    <!-- + Exploits spatial structure -->
    <g style="fill: #065f46" transform="translate(454.59 87.381818) scale(0.095 -0.095)">
     <defs>
      <path id="DejaVuSans-78" d="M 3513 3500 
L 2247 1797 
L 3578 0 
L 2900 0 
L 1881 1375 
L 863 0 
L 184 0 
L 1544 1831 
L 300 3500 
L 978 3500 
L 1906 2253 
L 2834 3500 
L 3513 3500 
z
" transform="scale(0.015625)"/>
     </defs>
     <use xlink:href="#DejaVuSans-2b"/>
     <use xlink:href="#DejaVuSans-20" x="83.789062"/>
     <use xlink:href="#DejaVuSans-45" x="115.576172"/>
     <use xlink:href="#DejaVuSans-78" x="178.759766"/>
     <use xlink:href="#DejaVuSans-70" x="237.939453"/>
     <use xlink:href="#DejaVuSans-6c" x="301.416016"/>
     <use xlink:href="#DejaVuSans-6f" x="329.199219"/>
     <use xlink:href="#DejaVuSans-69" x="390.380859"/>
     <use xlink:href="#DejaVuSans-74" x="418.164062"/>
     <use xlink:href="#DejaVuSans-73" x="457.373047"/>
     <use xlink:href="#DejaVuSans-20" x="509.472656"/>
     <use xlink:href="#DejaVuSans-73" x="541.259766"/>
     <use xlink:href="#DejaVuSans-70" x="593.359375"/>
     <use xlink:href="#DejaVuSans-61" x="656.835938"/>
     <use xlink:href="#DejaVuSans-74" x="718.115234"/>
     <use xlink:href="#DejaVuSans-69" x="757.324219"/>
     <use xlink:href="#DejaVuSans-61" x="785.107422"/>
     <use xlink:href="#DejaVuSans-6c" x="846.386719"/>
     <use xlink:href="#DejaVuSans-20" x="874.169922"/>
     <use xlink:href="#DejaVuSans-73" x="905.957031"/>
     <use xlink:href="#DejaVuSans-74" x="958.056641"/>
     <use xlink:href="#DejaVuSans-72" x="997.265625"/>
     <use xlink:href="#DejaVuSans-75" x="1038.378906"/>
     <use xlink:href="#DejaVuSans-63" x="1101.757812"/>
     <use xlink:href="#DejaVuSans-74" x="1156.738281"/>
     <use xlink:href="#DejaVuSans-75" x="1195.947266"/>
     <use xlink:href="#DejaVuSans-72" x="1259.326172"/>
     <use xlink:href="#DejaVuSans-65" x="1298.189453"/>
    </g>
   </g>
   <g id="text_11">
    <!-- + Weight sharing → fewer params -->
    <g style="fill: #065f46" transform="translate(454.59 114.654545) scale(0.095 -0.095)">
     <defs>
      <path id="DejaVuSans-57" d="M 213 4666 
L 850 4666 
L 1831 722 
L 2809 4666 
L 3519 4666 
L 4500 722 
L 5478 4666 
L 6119 4666 
L 4947 0 
L 4153 0 
L 3169 4050 
L 2175 0 
L 1381 0 
L 213 4666 
z
" transform="scale(0.015625)"/>
      <path id="DejaVuSans-68" d="M 3513 2113 
L 3513 0 
L 2938 0 
L 2938 2094 
Q 2938 2591 2744 2837 
Q 2550 3084 2163 3084 
Q 1697 3084 1428 2787 
Q 1159 2491 1159 1978 
L 1159 0 
L 581 0 
L 581 4863 
L 1159 4863 
L 1159 2956 
Q 1366 3272 1645 3428 
Q 1925 3584 2291 3584 
Q 2894 3584 3203 3211 
Q 3513 2838 3513 2113 
z
" transform="scale(0.015625)"/>
      <path id="DejaVuSans-2192" d="M 5050 2147 
L 5050 1866 
L 3822 638 
L 3447 1013 
L 4175 1741 
L 366 1741 
L 366 2272 
L 4175 2272 
L 3447 3000 
L 3822 3375 
L 5050 2147 
z
" transform="scale(0.015625)"/>
      <path id="DejaVuSans-66" d="M 2375 4863 
L 2375 4384 
L 1825 4384 
Q 1516 4384 1395 4259 
Q 1275 4134 1275 3809 
L 1275 3500 
L 2222 3500 
L 2222 3053 
L 1275 3053 
L 1275 0 
L 697 0 
L 697 3053 
L 147 3053 
L 147 3500 
L 697 3500 
L 697 3744 
Q 697 4328 969 4595 
Q 1241 4863 1831 4863 
L 2375 4863 
z
" transform="scale(0.015625)"/>
      <path id="DejaVuSans-77" d="M 269 3500 
L 844 3500 
L 1563 769 
L 2278 3500 
L 2956 3500 
L 3675 769 
L 4391 3500 
L 4966 3500 
L 4050 0 
L 3372 0 
L 2619 2869 
L 1863 0 
L 1184 0 
L 269 3500 
z
" transform="scale(0.015625)"/>
     </defs>
     <use xlink:href="#DejaVuSans-2b"/>
     <use xlink:href="#DejaVuSans-20" x="83.789062"/>
     <use xlink:href="#DejaVuSans-57" x="115.576172"/>
     <use xlink:href="#DejaVuSans-65" x="208.578125"/>
     <use xlink:href="#DejaVuSans-69" x="270.101562"/>
     <use xlink:href="#DejaVuSans-67" x="297.884766"/>
     <use xlink:href="#DejaVuSans-68" x="361.361328"/>
     <use xlink:href="#DejaVuSans-74" x="424.740234"/>
     <use xlink:href="#DejaVuSans-20" x="463.949219"/>
     <use xlink:href="#DejaVuSans-73" x="495.736328"/>
     <use xlink:href="#DejaVuSans-68" x="547.835938"/>
     <use xlink:href="#DejaVuSans-61" x="611.214844"/>
     <use xlink:href="#DejaVuSans-72" x="672.494141"/>
     <use xlink:href="#DejaVuSans-69" x="713.607422"/>
     <use xlink:href="#DejaVuSans-6e" x="741.390625"/>
     <use xlink:href="#DejaVuSans-67" x="804.769531"/>
     <use xlink:href="#DejaVuSans-20" x="868.246094"/>
     <use xlink:href="#DejaVuSans-2192" x="900.033203"/>
     <use xlink:href="#DejaVuSans-20" x="983.822266"/>
     <use xlink:href="#DejaVuSans-66" x="1015.609375"/>
     <use xlink:href="#DejaVuSans-65" x="1050.814453"/>
     <use xlink:href="#DejaVuSans-77" x="1112.337891"/>
     <use xlink:href="#DejaVuSans-65" x="1194.125"/>
     <use xlink:href="#DejaVuSans-72" x="1255.648438"/>
     <use xlink:href="#DejaVuSans-20" x="1296.761719"/>
     <use xlink:href="#DejaVuSans-70" x="1328.548828"/>
     <use xlink:href="#DejaVuSans-61" x="1392.025391"/>
     <use xlink:href="#DejaVuSans-72" x="1453.304688"/>
     <use xlink:href="#DejaVuSans-61" x="1494.417969"/>
     <use xlink:href="#DejaVuSans-6d" x="1555.697266"/>
     <use xlink:href="#DejaVuSans-73" x="1653.109375"/>
    </g>
   </g>
   <g id="text_12">
    <!-- + Translation invariant -->
    <g style="fill: #065f46" transform="translate(454.59 141.927273) scale(0.095 -0.095)">
     <defs>
      <path id="DejaVuSans-54" d="M -19 4666 
L 3928 4666 
L 3928 4134 
L 2272 4134 
L 2272 0 
L 1638 0 
L 1638 4134 
L -19 4134 
L -19 4666 
z
" transform="scale(0.015625)"/>
     </defs>
     <use xlink:href="#DejaVuSans-2b"/>
     <use xlink:href="#DejaVuSans-20" x="83.789062"/>
     <use xlink:href="#DejaVuSans-54" x="115.576172"/>
     <use xlink:href="#DejaVuSans-72" x="161.910156"/>
     <use xlink:href="#DejaVuSans-61" x="203.023438"/>
     <use xlink:href="#DejaVuSans-6e" x="264.302734"/>
     <use xlink:href="#DejaVuSans-73" x="327.681641"/>
     <use xlink:href="#DejaVuSans-6c" x="379.78125"/>
     <use xlink:href="#DejaVuSans-61" x="407.564453"/>
     <use xlink:href="#DejaVuSans-74" x="468.84375"/>
     <use xlink:href="#DejaVuSans-69" x="508.052734"/>
     <use xlink:href="#DejaVuSans-6f" x="535.835938"/>
     <use xlink:href="#DejaVuSans-6e" x="597.017578"/>
     <use xlink:href="#DejaVuSans-20" x="660.396484"/>
     <use xlink:href="#DejaVuSans-69" x="692.183594"/>
     <use xlink:href="#DejaVuSans-6e" x="719.966797"/>
     <use xlink:href="#DejaVuSans-76" x="783.345703"/>
     <use xlink:href="#DejaVuSans-61" x="842.525391"/>
     <use xlink:href="#DejaVuSans-72" x="903.804688"/>
     <use xlink:href="#DejaVuSans-69" x="944.917969"/>
     <use xlink:href="#DejaVuSans-61" x="972.701172"/>
     <use xlink:href="#DejaVuSans-6e" x="1033.980469"/>
     <use xlink:href="#DejaVuSans-74" x="1097.359375"/>
    </g>
   </g>
   <g id="text_13">
    <!-- + Scales to large images -->
    <g style="fill: #065f46" transform="translate(454.59 169.2) scale(0.095 -0.095)">
     <use xlink:href="#DejaVuSans-2b"/>
     <use xlink:href="#DejaVuSans-20" x="83.789062"/>
     <use xlink:href="#DejaVuSans-53" x="115.576172"/>
     <use xlink:href="#DejaVuSans-63" x="179.052734"/>
     <use xlink:href="#DejaVuSans-61" x="234.033203"/>
     <use xlink:href="#DejaVuSans-6c" x="295.3125"/>
     <use xlink:href="#DejaVuSans-65" x="323.095703"/>
     <use xlink:href="#DejaVuSans-73" x="384.619141"/>
     <use xlink:href="#DejaVuSans-20" x="436.71875"/>
     <use xlink:href="#DejaVuSans-74" x="468.505859"/>
     <use xlink:href="#DejaVuSans-6f" x="507.714844"/>
     <use xlink:href="#DejaVuSans-20" x="568.896484"/>
     <use xlink:href="#DejaVuSans-6c" x="600.683594"/>
     <use xlink:href="#DejaVuSans-61" x="628.466797"/>
     <use xlink:href="#DejaVuSans-72" x="689.746094"/>
     <use xlink:href="#DejaVuSans-67" x="729.109375"/>
     <use xlink:href="#DejaVuSans-65" x="792.585938"/>
     <use xlink:href="#DejaVuSans-20" x="854.109375"/>
     <use xlink:href="#DejaVuSans-69" x="885.896484"/>
     <use xlink:href="#DejaVuSans-6d" x="913.679688"/>
     <use xlink:href="#DejaVuSans-61" x="1011.091797"/>
     <use xlink:href="#DejaVuSans-67" x="1072.371094"/>
     <use xlink:href="#DejaVuSans-65" x="1135.847656"/>
     <use xlink:href="#DejaVuSans-73" x="1197.371094"/>
    </g>
   </g>
   <g id="text_14">
    <!-- ~ More design choices -->
    <g style="fill: #d97706" transform="translate(454.59 196.472727) scale(0.095 -0.095)">
     <defs>
      <path id="DejaVuSans-7e" d="M 4684 2553 
L 4684 1997 
Q 4356 1750 4076 1644 
Q 3797 1538 3494 1538 
Q 3150 1538 2694 1722 
Q 2659 1734 2644 1741 
Q 2622 1750 2575 1766 
Q 2091 1959 1797 1959 
Q 1522 1959 1253 1839 
Q 984 1719 678 1459 
L 678 2016 
Q 1006 2263 1286 2370 
Q 1566 2478 1869 2478 
Q 2213 2478 2672 2291 
Q 2703 2278 2719 2272 
Q 2744 2263 2788 2247 
Q 3272 2053 3566 2053 
Q 3834 2053 4098 2172 
Q 4363 2291 4684 2553 
z
" transform="scale(0.015625)"/>
      <path id="DejaVuSans-4d" d="M 628 4666 
L 1569 4666 
L 2759 1491 
L 3956 4666 
L 4897 4666 
L 4897 0 
L 4281 0 
L 4281 4097 
L 3078 897 
L 2444 897 
L 1241 4097 
L 1241 0 
L 628 0 
L 628 4666 
z
" transform="scale(0.015625)"/>
     </defs>
     <use xlink:href="#DejaVuSans-7e"/>
     <use xlink:href="#DejaVuSans-20" x="83.789062"/>
     <use xlink:href="#DejaVuSans-4d" x="115.576172"/>
     <use xlink:href="#DejaVuSans-6f" x="201.855469"/>
     <use xlink:href="#DejaVuSans-72" x="263.037109"/>
     <use xlink:href="#DejaVuSans-65" x="301.900391"/>
     <use xlink:href="#DejaVuSans-20" x="363.423828"/>
     <use xlink:href="#DejaVuSans-64" x="395.210938"/>
     <use xlink:href="#DejaVuSans-65" x="458.6875"/>
     <use xlink:href="#DejaVuSans-73" x="520.210938"/>
     <use xlink:href="#DejaVuSans-69" x="572.310547"/>
     <use xlink:href="#DejaVuSans-67" x="600.09375"/>
     <use xlink:href="#DejaVuSans-6e" x="663.570312"/>
     <use xlink:href="#DejaVuSans-20" x="726.949219"/>
     <use xlink:href="#DejaVuSans-63" x="758.736328"/>
     <use xlink:href="#DejaVuSans-68" x="813.716797"/>
     <use xlink:href="#DejaVuSans-6f" x="877.095703"/>
     <use xlink:href="#DejaVuSans-69" x="938.277344"/>
     <use xlink:href="#DejaVuSans-63" x="966.060547"/>
     <use xlink:href="#DejaVuSans-65" x="1021.041016"/>
     <use xlink:href="#DejaVuSans-73" x="1082.564453"/>
    </g>
   </g>
   <g id="text_15">
    <!-- MNIST CNN params: -->
    <g style="fill: #0f172a" transform="translate(585.170313 251.018182) scale(0.1 -0.1)">
     <use xlink:href="#DejaVuSans-Bold-4d"/>
     <use xlink:href="#DejaVuSans-Bold-4e" x="99.511719"/>
     <use xlink:href="#DejaVuSans-Bold-49" x="183.203125"/>
     <use xlink:href="#DejaVuSans-Bold-53" x="220.410156"/>
     <use xlink:href="#DejaVuSans-Bold-54" x="292.431641"/>
     <use xlink:href="#DejaVuSans-Bold-20" x="360.644531"/>
     <use xlink:href="#DejaVuSans-Bold-43" x="395.458984"/>
     <use xlink:href="#DejaVuSans-Bold-4e" x="468.847656"/>
     <use xlink:href="#DejaVuSans-Bold-4e" x="552.539062"/>
     <use xlink:href="#DejaVuSans-Bold-20" x="636.230469"/>
     <use xlink:href="#DejaVuSans-Bold-70" x="671.044922"/>
     <use xlink:href="#DejaVuSans-Bold-61" x="742.626953"/>
     <use xlink:href="#DejaVuSans-Bold-72" x="810.107422"/>
     <use xlink:href="#DejaVuSans-Bold-61" x="859.423828"/>
     <use xlink:href="#DejaVuSans-Bold-6d" x="926.904297"/>
     <use xlink:href="#DejaVuSans-Bold-73" x="1031.103516"/>
     <use xlink:href="#DejaVuSans-Bold-3a" x="1090.625"/>
    </g>
   </g>
   <g id="text_16">
    <!-- 3×3 kernels, shared weights -->
    <g style="fill: #475569" transform="translate(570.3 267.093097) scale(0.1 -0.1)">
     <defs>
      <path id="DejaVuSans-33" d="M 2597 2516 
Q 3050 2419 3304 2112 
Q 3559 1806 3559 1356 
Q 3559 666 3084 287 
Q 2609 -91 1734 -91 
Q 1441 -91 1130 -33 
Q 819 25 488 141 
L 488 750 
Q 750 597 1062 519 
Q 1375 441 1716 441 
Q 2309 441 2620 675 
Q 2931 909 2931 1356 
Q 2931 1769 2642 2001 
Q 2353 2234 1838 2234 
L 1294 2234 
L 1294 2753 
L 1863 2753 
Q 2328 2753 2575 2939 
Q 2822 3125 2822 3475 
Q 2822 3834 2567 4026 
Q 2313 4219 1838 4219 
Q 1578 4219 1281 4162 
Q 984 4106 628 3988 
L 628 4550 
Q 988 4650 1302 4700 
Q 1616 4750 1894 4750 
Q 2613 4750 3031 4423 
Q 3450 4097 3450 3541 
Q 3450 3153 3228 2886 
Q 3006 2619 2597 2516 
z
" transform="scale(0.015625)"/>
      <path id="DejaVuSans-6b" d="M 581 4863 
L 1159 4863 
L 1159 1991 
L 2875 3500 
L 3609 3500 
L 1753 1863 
L 3688 0 
L 2938 0 
L 1159 1709 
L 1159 0 
L 581 0 
L 581 4863 
z
" transform="scale(0.015625)"/>
     </defs>
     <use xlink:href="#DejaVuSans-33"/>
     <use xlink:href="#DejaVuSans-d7" x="63.623047"/>
     <use xlink:href="#DejaVuSans-33" x="147.412109"/>
     <use xlink:href="#DejaVuSans-20" x="211.035156"/>
     <use xlink:href="#DejaVuSans-6b" x="242.822266"/>
     <use xlink:href="#DejaVuSans-65" x="297.107422"/>
     <use xlink:href="#DejaVuSans-72" x="358.630859"/>
     <use xlink:href="#DejaVuSans-6e" x="397.994141"/>
     <use xlink:href="#DejaVuSans-65" x="461.373047"/>
     <use xlink:href="#DejaVuSans-6c" x="522.896484"/>
     <use xlink:href="#DejaVuSans-73" x="550.679688"/>
     <use xlink:href="#DejaVuSans-2c" x="602.779297"/>
     <use xlink:href="#DejaVuSans-20" x="634.566406"/>
     <use xlink:href="#DejaVuSans-73" x="666.353516"/>
     <use xlink:href="#DejaVuSans-68" x="718.453125"/>
     <use xlink:href="#DejaVuSans-61" x="781.832031"/>
     <use xlink:href="#DejaVuSans-72" x="843.111328"/>
     <use xlink:href="#DejaVuSans-65" x="881.974609"/>
     <use xlink:href="#DejaVuSans-64" x="943.498047"/>
     <use xlink:href="#DejaVuSans-20" x="1006.974609"/>
     <use xlink:href="#DejaVuSans-77" x="1038.761719"/>
     <use xlink:href="#DejaVuSans-65" x="1120.548828"/>
     <use xlink:href="#DejaVuSans-69" x="1182.072266"/>
     <use xlink:href="#DejaVuSans-67" x="1209.855469"/>
     <use xlink:href="#DejaVuSans-68" x="1273.332031"/>
     <use xlink:href="#DejaVuSans-74" x="1336.710938"/>
     <use xlink:href="#DejaVuSans-73" x="1375.919922"/>
    </g>
    <!-- ≈ 50K parameters -->
    <g style="fill: #475569" transform="translate(595.689063 278.290909) scale(0.1 -0.1)">
     <use xlink:href="#DejaVuSans-2248"/>
     <use xlink:href="#DejaVuSans-20" x="83.789062"/>
     <use xlink:href="#DejaVuSans-35" x="115.576172"/>
     <use xlink:href="#DejaVuSans-30" x="179.199219"/>
     <use xlink:href="#DejaVuSans-4b" x="242.822266"/>
     <use xlink:href="#DejaVuSans-20" x="308.398438"/>
     <use xlink:href="#DejaVuSans-70" x="340.185547"/>
     <use xlink:href="#DejaVuSans-61" x="403.662109"/>
     <use xlink:href="#DejaVuSans-72" x="464.941406"/>
     <use xlink:href="#DejaVuSans-61" x="506.054688"/>
     <use xlink:href="#DejaVuSans-6d" x="567.333984"/>
     <use xlink:href="#DejaVuSans-65" x="664.746094"/>
     <use xlink:href="#DejaVuSans-74" x="726.269531"/>
     <use xlink:href="#DejaVuSans-65" x="765.478516"/>
     <use xlink:href="#DejaVuSans-72" x="827.001953"/>
     <use xlink:href="#DejaVuSans-73" x="868.115234"/>
    </g>
   </g>
   <g id="text_17">
    <!-- CNN typically gets +5-10% accuracy on images -->
    <g style="fill: #475569" transform="translate(540.030703 324.654545) scale(0.085 -0.085)">
     <use xlink:href="#DejaVuSans-Oblique-43"/>
     <use xlink:href="#DejaVuSans-Oblique-4e" x="69.824219"/>
     <use xlink:href="#DejaVuSans-Oblique-4e" x="144.628906"/>
     <use xlink:href="#DejaVuSans-Oblique-20" x="219.433594"/>
     <use xlink:href="#DejaVuSans-Oblique-74" x="251.220703"/>
     <use xlink:href="#DejaVuSans-Oblique-79" x="290.429688"/>
     <use xlink:href="#DejaVuSans-Oblique-70" x="349.609375"/>
     <use xlink:href="#DejaVuSans-Oblique-69" x="413.085938"/>
     <use xlink:href="#DejaVuSans-Oblique-63" x="440.869141"/>
     <use xlink:href="#DejaVuSans-Oblique-61" x="495.849609"/>
     <use xlink:href="#DejaVuSans-Oblique-6c" x="557.128906"/>
     <use xlink:href="#DejaVuSans-Oblique-6c" x="584.912109"/>
     <use xlink:href="#DejaVuSans-Oblique-79" x="612.695312"/>
     <use xlink:href="#DejaVuSans-Oblique-20" x="671.875"/>
     <use xlink:href="#DejaVuSans-Oblique-67" x="703.662109"/>
     <use xlink:href="#DejaVuSans-Oblique-65" x="767.138672"/>
     <use xlink:href="#DejaVuSans-Oblique-74" x="828.662109"/>
     <use xlink:href="#DejaVuSans-Oblique-73" x="867.871094"/>
     <use xlink:href="#DejaVuSans-Oblique-20" x="919.970703"/>
     <use xlink:href="#DejaVuSans-Oblique-2b" x="951.757812"/>
     <use xlink:href="#DejaVuSans-Oblique-35" x="1035.546875"/>
     <use xlink:href="#DejaVuSans-Oblique-2d" x="1099.169922"/>
     <use xlink:href="#DejaVuSans-Oblique-31" x="1135.253906"/>
     <use xlink:href="#DejaVuSans-Oblique-30" x="1198.876953"/>
     <use xlink:href="#DejaVuSans-Oblique-25" x="1262.5"/>
     <use xlink:href="#DejaVuSans-Oblique-20" x="1357.519531"/>
     <use xlink:href="#DejaVuSans-Oblique-61" x="1389.306641"/>
     <use xlink:href="#DejaVuSans-Oblique-63" x="1450.585938"/>
     <use xlink:href="#DejaVuSans-Oblique-63" x="1505.566406"/>
     <use xlink:href="#DejaVuSans-Oblique-75" x="1560.546875"/>
     <use xlink:href="#DejaVuSans-Oblique-72" x="1623.925781"/>
     <use xlink:href="#DejaVuSans-Oblique-61" x="1665.039062"/>
     <use xlink:href="#DejaVuSans-Oblique-63" x="1726.318359"/>
     <use xlink:href="#DejaVuSans-Oblique-79" x="1781.298828"/>
     <use xlink:href="#DejaVuSans-Oblique-20" x="1840.478516"/>
     <use xlink:href="#DejaVuSans-Oblique-6f" x="1872.265625"/>
     <use xlink:href="#DejaVuSans-Oblique-6e" x="1933.447266"/>
     <use xlink:href="#DejaVuSans-Oblique-20" x="1996.826172"/>
     <use xlink:href="#DejaVuSans-Oblique-69" x="2028.613281"/>
     <use xlink:href="#DejaVuSans-Oblique-6d" x="2056.396484"/>
     <use xlink:href="#DejaVuSans-Oblique-61" x="2153.808594"/>
     <use xlink:href="#DejaVuSans-Oblique-67" x="2215.087891"/>
     <use xlink:href="#DejaVuSans-Oblique-65" x="2278.564453"/>
     <use xlink:href="#DejaVuSans-Oblique-73" x="2340.087891"/>
    </g>
   </g>
   <g id="text_18">
    <!-- Convolutional Network (CNN) -->
    <g style="fill: #0f172a" transform="translate(550.708516 43.2) scale(0.11 -0.11)">
     <defs>
      <path id="DejaVuSans-Bold-76" d="M 97 3500 
L 1216 3500 
L 2088 1081 
L 2956 3500 
L 4078 3500 
L 2700 0 
L 1472 0 
L 97 3500 
z
" transform="scale(0.015625)"/>
      <path id="DejaVuSans-Bold-69" d="M 538 3500 
L 1656 3500 
L 1656 0 
L 538 0 
L 538 3500 
z
M 538 4863 
L 1656 4863 
L 1656 3950 
L 538 3950 
L 538 4863 
z
" transform="scale(0.015625)"/>
      <path id="DejaVuSans-Bold-77" d="M 225 3500 
L 1313 3500 
L 1900 1088 
L 2491 3500 
L 3425 3500 
L 4013 1113 
L 4603 3500 
L 5691 3500 
L 4769 0 
L 3547 0 
L 2956 2406 
L 2369 0 
L 1147 0 
L 225 3500 
z
" transform="scale(0.015625)"/>
      <path id="DejaVuSans-Bold-6b" d="M 538 4863 
L 1656 4863 
L 1656 2216 
L 2944 3500 
L 4244 3500 
L 2534 1894 
L 4378 0 
L 3022 0 
L 1656 1459 
L 1656 0 
L 538 0 
L 538 4863 
z
" transform="scale(0.015625)"/>
     </defs>
     <use xlink:href="#DejaVuSans-Bold-43"/>
     <use xlink:href="#DejaVuSans-Bold-6f" x="73.388672"/>
     <use xlink:href="#DejaVuSans-Bold-6e" x="142.089844"/>
     <use xlink:href="#DejaVuSans-Bold-76" x="213.28125"/>
     <use xlink:href="#DejaVuSans-Bold-6f" x="278.466797"/>
     <use xlink:href="#DejaVuSans-Bold-6c" x="347.167969"/>
     <use xlink:href="#DejaVuSans-Bold-75" x="381.445312"/>
     <use xlink:href="#DejaVuSans-Bold-74" x="452.636719"/>
     <use xlink:href="#DejaVuSans-Bold-69" x="500.439453"/>
     <use xlink:href="#DejaVuSans-Bold-6f" x="534.716797"/>
     <use xlink:href="#DejaVuSans-Bold-6e" x="603.417969"/>
     <use xlink:href="#DejaVuSans-Bold-61" x="674.609375"/>
     <use xlink:href="#DejaVuSans-Bold-6c" x="742.089844"/>
     <use xlink:href="#DejaVuSans-Bold-20" x="776.367188"/>
     <use xlink:href="#DejaVuSans-Bold-4e" x="811.181641"/>
     <use xlink:href="#DejaVuSans-Bold-65" x="894.873047"/>
     <use xlink:href="#DejaVuSans-Bold-74" x="962.695312"/>
     <use xlink:href="#DejaVuSans-Bold-77" x="1010.498047"/>
     <use xlink:href="#DejaVuSans-Bold-6f" x="1102.880859"/>
     <use xlink:href="#DejaVuSans-Bold-72" x="1171.582031"/>
     <use xlink:href="#DejaVuSans-Bold-6b" x="1220.898438"/>
     <use xlink:href="#DejaVuSans-Bold-20" x="1287.402344"/>
     <use xlink:href="#DejaVuSans-Bold-28" x="1322.216797"/>
     <use xlink:href="#DejaVuSans-Bold-43" x="1367.919922"/>
     <use xlink:href="#DejaVuSans-Bold-4e" x="1441.308594"/>
     <use xlink:href="#DejaVuSans-Bold-4e" x="1525"/>
     <use xlink:href="#DejaVuSans-Bold-29" x="1608.691406"/>
    </g>
   </g>
  </g>
  <g id="text_19">
   <!-- Fully Connected vs Convolutional Networks -->
   <g style="fill: #0f172a" transform="translate(269.598906 17.077969) scale(0.13 -0.13)">
    <use xlink:href="#DejaVuSans-Bold-46"/>
    <use xlink:href="#DejaVuSans-Bold-75" x="63.310547"/>
    <use xlink:href="#DejaVuSans-Bold-6c" x="134.501953"/>
    <use xlink:href="#DejaVuSans-Bold-6c" x="168.779297"/>
    <use xlink:href="#DejaVuSans-Bold-79" x="203.056641"/>
    <use xlink:href="#DejaVuSans-Bold-20" x="268.242188"/>
    <use xlink:href="#DejaVuSans-Bold-43" x="303.056641"/>
    <use xlink:href="#DejaVuSans-Bold-6f" x="376.445312"/>
    <use xlink:href="#DejaVuSans-Bold-6e" x="445.146484"/>
    <use xlink:href="#DejaVuSans-Bold-6e" x="516.337891"/>
    <use xlink:href="#DejaVuSans-Bold-65" x="587.529297"/>
    <use xlink:href="#DejaVuSans-Bold-63" x="655.351562"/>
    <use xlink:href="#DejaVuSans-Bold-74" x="714.628906"/>
    <use xlink:href="#DejaVuSans-Bold-65" x="762.431641"/>
    <use xlink:href="#DejaVuSans-Bold-64" x="830.253906"/>
    <use xlink:href="#DejaVuSans-Bold-20" x="901.835938"/>
    <use xlink:href="#DejaVuSans-Bold-76" x="936.650391"/>
    <use xlink:href="#DejaVuSans-Bold-73" x="1001.835938"/>
    <use xlink:href="#DejaVuSans-Bold-20" x="1061.357422"/>
    <use xlink:href="#DejaVuSans-Bold-43" x="1096.171875"/>
    <use xlink:href="#DejaVuSans-Bold-6f" x="1169.560547"/>
    <use xlink:href="#DejaVuSans-Bold-6e" x="1238.261719"/>
    <use xlink:href="#DejaVuSans-Bold-76" x="1309.453125"/>
    <use xlink:href="#DejaVuSans-Bold-6f" x="1374.638672"/>
    <use xlink:href="#DejaVuSans-Bold-6c" x="1443.339844"/>
    <use xlink:href="#DejaVuSans-Bold-75" x="1477.617188"/>
    <use xlink:href="#DejaVuSans-Bold-74" x="1548.808594"/>
    <use xlink:href="#DejaVuSans-Bold-69" x="1596.611328"/>
    <use xlink:href="#DejaVuSans-Bold-6f" x="1630.888672"/>
    <use xlink:href="#DejaVuSans-Bold-6e" x="1699.589844"/>
    <use xlink:href="#DejaVuSans-Bold-61" x="1770.78125"/>
    <use xlink:href="#DejaVuSans-Bold-6c" x="1838.261719"/>
    <use xlink:href="#DejaVuSans-Bold-20" x="1872.539062"/>
    <use xlink:href="#DejaVuSans-Bold-4e" x="1907.353516"/>
    <use xlink:href="#DejaVuSans-Bold-65" x="1991.044922"/>
    <use xlink:href="#DejaVuSans-Bold-74" x="2058.867188"/>
    <use xlink:href="#DejaVuSans-Bold-77" x="2106.669922"/>
    <use xlink:href="#DejaVuSans-Bold-6f" x="2199.052734"/>
    <use xlink:href="#DejaVuSans-Bold-72" x="2267.753906"/>
    <use xlink:href="#DejaVuSans-Bold-6b" x="2317.070312"/>
    <use xlink:href="#DejaVuSans-Bold-73" x="2383.574219"/>
   </g>
  </g>
 </g>
</svg>
