<?xml version="1.0" encoding="utf-8" standalone="no"?>
<!DOCTYPE svg PUBLIC "-//W3C//DTD SVG 1.1//EN"
  "http://www.w3.org/Graphics/SVG/1.1/DTD/svg11.dtd">
<svg xmlns:xlink="http://www.w3.org/1999/xlink" width="928.8pt" height="280.597969pt" viewBox="0 0 928.8 280.597969" xmlns="http://www.w3.org/2000/svg" version="1.1">
 <metadata>
  <rdf:RDF xmlns:dc="http://purl.org/dc/elements/1.1/" xmlns:cc="http://creativecommons.org/ns#" xmlns:rdf="http://www.w3.org/1999/02/22-rdf-syntax-ns#">
   <cc:Work>
    <dc:type rdf:resource="http://purl.org/dc/dcmitype/StillImage"/>
    <dc:date>2026-04-16T23:42:32.437743</dc:date>
    <dc:format>image/svg+xml</dc:format>
    <dc:creator>
     <cc:Agent>
      <dc:title>Matplotlib v3.8.0, https://matplotlib.org/</dc:title>
     </cc:Agent>
    </dc:creator>
   </cc:Work>
  </rdf:RDF>
 </metadata>
 <defs>
  <style type="text/css">*{stroke-linejoin: round; stroke-linecap: butt}</style>
 </defs>
 <g id="figure_1">
  <g id="patch_1">
   <path d="M 0 280.597969 
L 928.8 280.597969 
L 928.8 0 
L 0 0 
z
" style="fill: #ffffff"/>
  </g>
  <g id="axes_1">
   <g id="text_1">
    <g id="patch_2">
     <path d="M 91.606154 46.431656 
C 93.552496 46.431656 95.419383 45.658366 96.795655 44.282095 
C 98.171926 42.905823 98.945216 41.038936 98.945216 39.092594 
C 98.945216 37.146252 98.171926 35.279365 96.795655 33.903093 
C 95.419383 32.526821 93.552496 31.753531 91.606154 31.753531 
C 89.659812 31.753531 87.792925 32.526821 86.416653 33.903093 
C 85.040381 35.279365 84.267091 37.146252 84.267091 39.092594 
C 84.267091 41.038936 85.040381 42.905823 86.416653 44.282095 
C 87.792925 45.658366 89.659812 46.431656 91.606154 46.431656 
z
" style="fill: #6b7280; stroke: #000000; stroke-linejoin: miter"/>
    </g>
    <!-- 1 -->
    <g style="fill: #ffffff" transform="translate(88.127248 41.851969) scale(0.1 -0.1)">
     <defs>
      <path id="DejaVuSans-Bold-31" d="M 750 831 
L 1813 831 
L 1813 3847 
L 722 3622 
L 722 4441 
L 1806 4666 
L 2950 4666 
L 2950 831 
L 4013 831 
L 4013 0 
L 750 0 
L 750 831 
z
" transform="scale(0.015625)"/>
     </defs>
     <use xlink:href="#DejaVuSans-Bold-31"/>
    </g>
   </g>
   <g id="patch_3">
    <path d="M 29.708308 184.534369 
L 153.504 184.534369 
Q 164.054769 184.534369 164.054769 175.147369 
L 164.054769 65.006569 
Q 164.054769 55.619569 153.504 55.619569 
L 29.708308 55.619569 
Q 19.157538 55.619569 19.157538 65.006569 
L 19.157538 175.147369 
Q 19.157538 184.534369 29.708308 184.534369 
z
" clip-path="url(#p6f9b554e02)" style="fill: #f3f4f6; stroke: #6b7280; stroke-width: 1.5; stroke-linejoin: miter"/>
   </g>
   <g id="patch_4">
    <path d="M 162.533288 123.205969 
Q 165.460514 123.205969 166.710688 123.205969 
" style="fill: none; stroke: #374151; stroke-width: 1.5; stroke-linecap: round"/>
    <path d="M 163.110688 121.405969 
L 166.710688 123.205969 
L 163.110688 125.005969 
z
" style="fill: #374151; stroke: #374151; stroke-width: 1.5; stroke-linecap: round"/>
   </g>
   <g id="text_2">
    <g id="patch_5">
     <path d="M 239.316923 46.431656 
C 241.263265 46.431656 243.130152 45.658366 244.506424 44.282095 
C 245.882696 42.905823 246.655986 41.038936 246.655986 39.092594 
C 246.655986 37.146252 245.882696 35.279365 244.506424 33.903093 
C 243.130152 32.526821 241.263265 31.753531 239.316923 31.753531 
C 237.370581 31.753531 235.503694 32.526821 234.127422 33.903093 
C 232.75115 35.279365 231.977861 37.146252 231.977861 39.092594 
C 231.977861 41.038936 232.75115 42.905823 234.127422 44.282095 
C 235.503694 45.658366 237.370581 46.431656 239.316923 46.431656 
z
" style="fill: #2563eb; stroke: #000000; stroke-linejoin: miter"/>
    </g>
    <!-- 2 -->
    <g style="fill: #ffffff" transform="translate(235.838017 41.851969) scale(0.1 -0.1)">
     <defs>
      <path id="DejaVuSans-Bold-32" d="M 1844 884 
L 3897 884 
L 3897 0 
L 506 0 
L 506 884 
L 2209 2388 
Q 2438 2594 2547 2791 
Q 2656 2988 2656 3200 
Q 2656 3528 2436 3728 
Q 2216 3928 1850 3928 
Q 1569 3928 1234 3808 
Q 900 3688 519 3450 
L 519 4475 
Q 925 4609 1322 4679 
Q 1719 4750 2100 4750 
Q 2938 4750 3402 4381 
Q 3866 4013 3866 3353 
Q 3866 2972 3669 2642 
Q 3472 2313 2841 1759 
L 1844 884 
z
" transform="scale(0.015625)"/>
     </defs>
     <use xlink:href="#DejaVuSans-Bold-32"/>
    </g>
   </g>
   <g id="patch_6">
    <path d="M 177.419077 184.534369 
L 301.214769 184.534369 
Q 311.765538 184.534369 311.765538 175.147369 
L 311.765538 65.006569 
Q 311.765538 55.619569 301.214769 55.619569 
L 177.419077 55.619569 
Q 166.868308 55.619569 166.868308 65.006569 
L 166.868308 175.147369 
Q 166.868308 184.534369 177.419077 184.534369 
z
" clip-path="url(#p6f9b554e02)" style="fill: #e0e7ff; stroke: #2563eb; stroke-width: 1.5; stroke-linejoin: miter"/>
   </g>
   <g id="patch_7">
    <path d="M 310.247492 123.205969 
Q 316.687671 123.205969 321.450799 123.205969 
" style="fill: none; stroke: #374151; stroke-width: 1.5; stroke-linecap: round"/>
    <path d="M 317.850799 121.405969 
L 321.450799 123.205969 
L 317.850799 125.005969 
z
" style="fill: #374151; stroke: #374151; stroke-width: 1.5; stroke-linecap: round"/>
   </g>
   <g id="text_3">
    <g id="patch_8">
     <path d="M 394.061538 46.431656 
C 396.007881 46.431656 397.874768 45.658366 399.251039 44.282095 
C 400.627311 42.905823 401.400601 41.038936 401.400601 39.092594 
C 401.400601 37.146252 400.627311 35.279365 399.251039 33.903093 
C 397.874768 32.526821 396.007881 31.753531 394.061538 31.753531 
C 392.115196 31.753531 390.248309 32.526821 388.872038 33.903093 
C 387.495766 35.279365 386.722476 37.146252 386.722476 39.092594 
C 386.722476 41.038936 387.495766 42.905823 388.872038 44.282095 
C 390.248309 45.658366 392.115196 46.431656 394.061538 46.431656 
z
" style="fill: #7c3aed; stroke: #000000; stroke-linejoin: miter"/>
    </g>
    <!-- 3 -->
    <g style="fill: #ffffff" transform="translate(390.582632 41.851969) scale(0.1 -0.1)">
     <defs>
      <path id="DejaVuSans-Bold-33" d="M 2981 2516 
Q 3453 2394 3698 2092 
Q 3944 1791 3944 1325 
Q 3944 631 3412 270 
Q 2881 -91 1863 -91 
Q 1503 -91 1142 -33 
Q 781 25 428 141 
L 428 1069 
Q 766 900 1098 814 
Q 1431 728 1753 728 
Q 2231 728 2486 893 
Q 2741 1059 2741 1369 
Q 2741 1688 2480 1852 
Q 2219 2016 1709 2016 
L 1228 2016 
L 1228 2791 
L 1734 2791 
Q 2188 2791 2409 2933 
Q 2631 3075 2631 3366 
Q 2631 3634 2415 3781 
Q 2200 3928 1806 3928 
Q 1516 3928 1219 3862 
Q 922 3797 628 3669 
L 628 4550 
Q 984 4650 1334 4700 
Q 1684 4750 2022 4750 
Q 2931 4750 3382 4451 
Q 3834 4153 3834 3553 
Q 3834 3144 3618 2883 
Q 3403 2622 2981 2516 
z
" transform="scale(0.015625)"/>
     </defs>
     <use xlink:href="#DejaVuSans-Bold-33"/>
    </g>
   </g>
   <g id="patch_9">
    <path d="M 332.163692 184.534369 
L 455.959385 184.534369 
Q 466.510154 184.534369 466.510154 175.147369 
L 466.510154 65.006569 
Q 466.510154 55.619569 455.959385 55.619569 
L 332.163692 55.619569 
Q 321.612923 55.619569 321.612923 65.006569 
L 321.612923 175.147369 
Q 321.612923 184.534369 332.163692 184.534369 
z
" clip-path="url(#p6f9b554e02)" style="fill: #ede9fe; stroke: #7c3aed; stroke-width: 1.5; stroke-linejoin: miter"/>
   </g>
   <g id="patch_10">
    <path d="M 464.992107 123.205969 
Q 471.432286 123.205969 476.195414 123.205969 
" style="fill: none; stroke: #374151; stroke-width: 1.5; stroke-linecap: round"/>
    <path d="M 472.595414 121.405969 
L 476.195414 123.205969 
L 472.595414 125.005969 
z
" style="fill: #374151; stroke: #374151; stroke-width: 1.5; stroke-linecap: round"/>
   </g>
   <g id="text_4">
    <g id="patch_11">
     <path d="M 548.806154 46.431656 
C 550.752496 46.431656 552.619383 45.658366 553.995655 44.282095 
C 555.371926 42.905823 556.145216 41.038936 556.145216 39.092594 
C 556.145216 37.146252 555.371926 35.279365 553.995655 33.903093 
C 552.619383 32.526821 550.752496 31.753531 548.806154 31.753531 
C 546.859812 31.753531 544.992925 32.526821 543.616653 33.903093 
C 542.240381 35.279365 541.467091 37.146252 541.467091 39.092594 
C 541.467091 41.038936 542.240381 42.905823 543.616653 44.282095 
C 544.992925 45.658366 546.859812 46.431656 548.806154 46.431656 
z
" style="fill: #d97706; stroke: #000000; stroke-linejoin: miter"/>
    </g>
    <!-- 4 -->
    <g style="fill: #ffffff" transform="translate(545.327248 41.851969) scale(0.1 -0.1)">
     <defs>
      <path id="DejaVuSans-Bold-34" d="M 2356 3675 
L 1038 1722 
L 2356 1722 
L 2356 3675 
z
M 2156 4666 
L 3494 4666 
L 3494 1722 
L 4159 1722 
L 4159 850 
L 3494 850 
L 3494 0 
L 2356 0 
L 2356 850 
L 288 850 
L 288 1881 
L 2156 4666 
z
" transform="scale(0.015625)"/>
     </defs>
     <use xlink:href="#DejaVuSans-Bold-34"/>
    </g>
   </g>
   <g id="patch_12">
    <path d="M 486.908308 184.534369 
L 610.704 184.534369 
Q 621.254769 184.534369 621.254769 175.147369 
L 621.254769 65.006569 
Q 621.254769 55.619569 610.704 55.619569 
L 486.908308 55.619569 
Q 476.357538 55.619569 476.357538 65.006569 
L 476.357538 175.147369 
Q 476.357538 184.534369 486.908308 184.534369 
z
" clip-path="url(#p6f9b554e02)" style="fill: #fef3c7; stroke: #d97706; stroke-width: 1.5; stroke-linejoin: miter"/>
   </g>
   <g id="patch_13">
    <path d="M 619.736722 123.205969 
Q 626.176901 123.205969 630.94003 123.205969 
" style="fill: none; stroke: #374151; stroke-width: 1.5; stroke-linecap: round"/>
    <path d="M 627.34003 121.405969 
L 630.94003 123.205969 
L 627.34003 125.005969 
z
" style="fill: #374151; stroke: #374151; stroke-width: 1.5; stroke-linecap: round"/>
   </g>
   <g id="text_5">
    <g id="patch_14">
     <path d="M 703.550769 46.431656 
C 705.497111 46.431656 707.363998 45.658366 708.74027 44.282095 
C 710.116542 42.905823 710.889832 41.038936 710.889832 39.092594 
C 710.889832 37.146252 710.116542 35.279365 708.74027 33.903093 
C 707.363998 32.526821 705.497111 31.753531 703.550769 31.753531 
C 701.604427 31.753531 699.73754 32.526821 698.361268 33.903093 
C 696.984997 35.279365 696.211707 37.146252 696.211707 39.092594 
C 696.211707 41.038936 696.984997 42.905823 698.361268 44.282095 
C 699.73754 45.658366 701.604427 46.431656 703.550769 46.431656 
z
" style="fill: #059669; stroke: #000000; stroke-linejoin: miter"/>
    </g>
    <!-- 5 -->
    <g style="fill: #ffffff" transform="translate(700.071863 41.851969) scale(0.1 -0.1)">
     <defs>
      <path id="DejaVuSans-Bold-35" d="M 678 4666 
L 3669 4666 
L 3669 3781 
L 1638 3781 
L 1638 3059 
Q 1775 3097 1914 3117 
Q 2053 3138 2203 3138 
Q 3056 3138 3531 2711 
Q 4006 2284 4006 1522 
Q 4006 766 3489 337 
Q 2972 -91 2053 -91 
Q 1656 -91 1267 -14 
Q 878 63 494 219 
L 494 1166 
Q 875 947 1217 837 
Q 1559 728 1863 728 
Q 2300 728 2551 942 
Q 2803 1156 2803 1522 
Q 2803 1891 2551 2103 
Q 2300 2316 1863 2316 
Q 1603 2316 1309 2248 
Q 1016 2181 678 2041 
L 678 4666 
z
" transform="scale(0.015625)"/>
     </defs>
     <use xlink:href="#DejaVuSans-Bold-35"/>
    </g>
   </g>
   <g id="patch_15">
    <path d="M 641.652923 184.534369 
L 765.448615 184.534369 
Q 775.999385 184.534369 775.999385 175.147369 
L 775.999385 65.006569 
Q 775.999385 55.619569 765.448615 55.619569 
L 641.652923 55.619569 
Q 631.102154 55.619569 631.102154 65.006569 
L 631.102154 175.147369 
Q 631.102154 184.534369 641.652923 184.534369 
z
" clip-path="url(#p6f9b554e02)" style="fill: #d1fae5; stroke: #059669; stroke-width: 1.5; stroke-linejoin: miter"/>
   </g>
   <g id="patch_16">
    <path d="M 774.481338 123.205969 
Q 780.921517 123.205969 785.684645 123.205969 
" style="fill: none; stroke: #374151; stroke-width: 1.5; stroke-linecap: round"/>
    <path d="M 782.084645 121.405969 
L 785.684645 123.205969 
L 782.084645 125.005969 
z
" style="fill: #374151; stroke: #374151; stroke-width: 1.5; stroke-linecap: round"/>
   </g>
   <g id="text_6">
    <g id="patch_17">
     <path d="M 858.295385 46.431656 
C 860.241727 46.431656 862.108614 45.658366 863.484885 44.282095 
C 864.861157 42.905823 865.634447 41.038936 865.634447 39.092594 
C 865.634447 37.146252 864.861157 35.279365 863.484885 33.903093 
C 862.108614 32.526821 860.241727 31.753531 858.295385 31.753531 
C 856.349042 31.753531 854.482155 32.526821 853.105884 33.903093 
C 851.729612 35.279365 850.956322 37.146252 850.956322 39.092594 
C 850.956322 41.038936 851.729612 42.905823 853.105884 44.282095 
C 854.482155 45.658366 856.349042 46.431656 858.295385 46.431656 
z
" style="fill: #db2777; stroke: #000000; stroke-linejoin: miter"/>
    </g>
    <!-- 6 -->
    <g style="fill: #ffffff" transform="translate(854.816478 41.851969) scale(0.1 -0.1)">
     <defs>
      <path id="DejaVuSans-Bold-36" d="M 2316 2303 
Q 2000 2303 1842 2098 
Q 1684 1894 1684 1484 
Q 1684 1075 1842 870 
Q 2000 666 2316 666 
Q 2634 666 2792 870 
Q 2950 1075 2950 1484 
Q 2950 1894 2792 2098 
Q 2634 2303 2316 2303 
z
M 3803 4544 
L 3803 3681 
Q 3506 3822 3243 3889 
Q 2981 3956 2731 3956 
Q 2194 3956 1894 3657 
Q 1594 3359 1544 2772 
Q 1750 2925 1990 3001 
Q 2231 3078 2516 3078 
Q 3231 3078 3670 2659 
Q 4109 2241 4109 1563 
Q 4109 813 3618 361 
Q 3128 -91 2303 -91 
Q 1394 -91 895 523 
Q 397 1138 397 2266 
Q 397 3422 980 4083 
Q 1563 4744 2578 4744 
Q 2900 4744 3203 4694 
Q 3506 4644 3803 4544 
z
" transform="scale(0.015625)"/>
     </defs>
     <use xlink:href="#DejaVuSans-Bold-36"/>
    </g>
   </g>
   <g id="patch_18">
    <path d="M 796.397538 184.534369 
L 920.193231 184.534369 
Q 930.744 184.534369 930.744 175.147369 
L 930.744 65.006569 
Q 930.744 55.619569 920.193231 55.619569 
L 796.397538 55.619569 
Q 785.846769 55.619569 785.846769 65.006569 
L 785.846769 175.147369 
Q 785.846769 184.534369 796.397538 184.534369 
z
" clip-path="url(#p6f9b554e02)" style="fill: #fce7f3; stroke: #db2777; stroke-width: 1.5; stroke-linejoin: miter"/>
   </g>
   <g id="text_7">
    <!-- Offline: documents are embedded and indexed -->
    <g style="fill: #6b7280" transform="translate(293.455406 210.686828) scale(0.085 -0.085)">
     <defs>
      <path id="DejaVuSans-Oblique-4f" d="M 2919 4238 
Q 2400 4238 2003 3986 
Q 1606 3734 1313 3219 
Q 1125 2891 1026 2522 
Q 928 2153 928 1778 
Q 928 1128 1239 775 
Q 1550 422 2119 422 
Q 2631 422 3032 676 
Q 3434 931 3719 1434 
Q 3909 1772 4009 2142 
Q 4109 2513 4109 2881 
Q 4109 3528 3796 3883 
Q 3484 4238 2919 4238 
z
M 2100 -91 
Q 1241 -91 748 418 
Q 256 928 256 1813 
Q 256 2319 448 2847 
Q 641 3375 978 3788 
Q 1375 4272 1862 4511 
Q 2350 4750 2938 4750 
Q 3794 4750 4287 4245 
Q 4781 3741 4781 2869 
Q 4781 2331 4593 1812 
Q 4406 1294 4056 872 
Q 3656 384 3173 146 
Q 2691 -91 2100 -91 
z
" transform="scale(0.015625)"/>
      <path id="DejaVuSans-Oblique-66" d="M 3059 4863 
L 2969 4384 
L 2419 4384 
Q 2106 4384 1964 4261 
Q 1822 4138 1753 3809 
L 1691 3500 
L 2638 3500 
L 2553 3053 
L 1606 3053 
L 1013 0 
L 434 0 
L 1031 3053 
L 481 3053 
L 563 3500 
L 1113 3500 
L 1159 3744 
Q 1278 4363 1576 4613 
Q 1875 4863 2516 4863 
L 3059 4863 
z
" transform="scale(0.015625)"/>
      <path id="DejaVuSans-Oblique-6c" d="M 1172 4863 
L 1747 4863 
L 800 0 
L 225 0 
L 1172 4863 
z
" transform="scale(0.015625)"/>
      <path id="DejaVuSans-Oblique-69" d="M 1172 4863 
L 1747 4863 
L 1606 4134 
L 1031 4134 
L 1172 4863 
z
M 909 3500 
L 1484 3500 
L 800 0 
L 225 0 
L 909 3500 
z
" transform="scale(0.015625)"/>
      <path id="DejaVuSans-Oblique-6e" d="M 3566 2113 
L 3156 0 
L 2578 0 
L 2988 2091 
Q 3016 2238 3031 2350 
Q 3047 2463 3047 2528 
Q 3047 2791 2881 2937 
Q 2716 3084 2419 3084 
Q 1956 3084 1622 2776 
Q 1288 2469 1184 1941 
L 800 0 
L 225 0 
L 903 3500 
L 1478 3500 
L 1363 2950 
Q 1603 3253 1940 3418 
Q 2278 3584 2650 3584 
Q 3113 3584 3367 3334 
Q 3622 3084 3622 2631 
Q 3622 2519 3608 2391 
Q 3594 2263 3566 2113 
z
" transform="scale(0.015625)"/>
      <path id="DejaVuSans-Oblique-65" d="M 3078 2063 
Q 3088 2113 3092 2166 
Q 3097 2219 3097 2272 
Q 3097 2653 2873 2875 
Q 2650 3097 2266 3097 
Q 1838 3097 1509 2826 
Q 1181 2556 1013 2059 
L 3078 2063 
z
M 3578 1613 
L 903 1613 
Q 884 1494 878 1425 
Q 872 1356 872 1306 
Q 872 872 1139 634 
Q 1406 397 1894 397 
Q 2269 397 2603 481 
Q 2938 566 3225 728 
L 3116 159 
Q 2806 34 2476 -28 
Q 2147 -91 1806 -91 
Q 1078 -91 686 257 
Q 294 606 294 1247 
Q 294 1794 489 2264 
Q 684 2734 1063 3103 
Q 1306 3334 1642 3459 
Q 1978 3584 2356 3584 
Q 2950 3584 3301 3228 
Q 3653 2872 3653 2272 
Q 3653 2128 3634 1964 
Q 3616 1800 3578 1613 
z
" transform="scale(0.015625)"/>
      <path id="DejaVuSans-Oblique-3a" d="M 978 3309 
L 1638 3309 
L 1484 2516 
L 825 2516 
L 978 3309 
z
M 488 794 
L 1147 794 
L 991 0 
L 331 0 
L 488 794 
z
" transform="scale(0.015625)"/>
      <path id="DejaVuSans-Oblique-20" transform="scale(0.015625)"/>
      <path id="DejaVuSans-Oblique-64" d="M 2675 525 
Q 2444 222 2128 65 
Q 1813 -91 1428 -91 
Q 903 -91 598 267 
Q 294 625 294 1247 
Q 294 1766 478 2236 
Q 663 2706 1013 3078 
Q 1244 3325 1534 3454 
Q 1825 3584 2144 3584 
Q 2481 3584 2739 3421 
Q 2997 3259 3138 2956 
L 3513 4863 
L 4091 4863 
L 3144 0 
L 2566 0 
L 2675 525 
z
M 891 1350 
Q 891 897 1095 644 
Q 1300 391 1663 391 
Q 1931 391 2161 520 
Q 2391 650 2566 903 
Q 2750 1166 2856 1509 
Q 2963 1853 2963 2188 
Q 2963 2622 2758 2865 
Q 2553 3109 2194 3109 
Q 1922 3109 1687 2981 
Q 1453 2853 1288 2613 
Q 1106 2353 998 2009 
Q 891 1666 891 1350 
z
" transform="scale(0.015625)"/>
      <path id="DejaVuSans-Oblique-6f" d="M 1625 -91 
Q 1009 -91 651 289 
Q 294 669 294 1325 
Q 294 1706 417 2101 
Q 541 2497 738 2766 
Q 1047 3184 1428 3384 
Q 1809 3584 2291 3584 
Q 2888 3584 3255 3212 
Q 3622 2841 3622 2241 
Q 3622 1825 3500 1412 
Q 3378 1000 3181 728 
Q 2875 309 2494 109 
Q 2113 -91 1625 -91 
z
M 891 1344 
Q 891 869 1089 633 
Q 1288 397 1691 397 
Q 2269 397 2648 901 
Q 3028 1406 3028 2181 
Q 3028 2634 2825 2865 
Q 2622 3097 2228 3097 
Q 1903 3097 1650 2945 
Q 1397 2794 1197 2484 
Q 1050 2253 970 1956 
Q 891 1659 891 1344 
z
" transform="scale(0.015625)"/>
      <path id="DejaVuSans-Oblique-63" d="M 3431 3366 
L 3316 2797 
Q 3109 2947 2876 3022 
Q 2644 3097 2394 3097 
Q 2119 3097 1870 3000 
Q 1622 2903 1453 2725 
Q 1184 2453 1037 2087 
Q 891 1722 891 1331 
Q 891 859 1127 628 
Q 1363 397 1844 397 
Q 2081 397 2348 469 
Q 2616 541 2906 684 
L 2797 116 
Q 2547 13 2283 -39 
Q 2019 -91 1741 -91 
Q 1044 -91 669 257 
Q 294 606 294 1253 
Q 294 1797 489 2255 
Q 684 2713 1069 3078 
Q 1331 3328 1684 3456 
Q 2038 3584 2456 3584 
Q 2700 3584 2940 3529 
Q 3181 3475 3431 3366 
z
" transform="scale(0.015625)"/>
      <path id="DejaVuSans-Oblique-75" d="M 428 1388 
L 838 3500 
L 1416 3500 
L 1006 1409 
Q 975 1256 961 1147 
Q 947 1038 947 966 
Q 947 700 1109 554 
Q 1272 409 1569 409 
Q 2031 409 2368 721 
Q 2706 1034 2809 1563 
L 3194 3500 
L 3769 3500 
L 3091 0 
L 2516 0 
L 2631 550 
Q 2388 244 2052 76 
Q 1716 -91 1338 -91 
Q 878 -91 622 161 
Q 366 413 366 863 
Q 366 956 381 1097 
Q 397 1238 428 1388 
z
" transform="scale(0.015625)"/>
      <path id="DejaVuSans-Oblique-6d" d="M 5747 2113 
L 5338 0 
L 4763 0 
L 5166 2094 
Q 5191 2228 5203 2325 
Q 5216 2422 5216 2491 
Q 5216 2772 5059 2928 
Q 4903 3084 4622 3084 
Q 4203 3084 3875 2770 
Q 3547 2456 3450 1953 
L 3066 0 
L 2491 0 
L 2900 2094 
Q 2925 2209 2937 2307 
Q 2950 2406 2950 2484 
Q 2950 2769 2794 2926 
Q 2638 3084 2363 3084 
Q 1938 3084 1609 2770 
Q 1281 2456 1184 1953 
L 800 0 
L 225 0 
L 909 3500 
L 1484 3500 
L 1375 2956 
Q 1609 3263 1923 3423 
Q 2238 3584 2597 3584 
Q 2978 3584 3223 3384 
Q 3469 3184 3519 2828 
Q 3781 3197 4126 3390 
Q 4472 3584 4856 3584 
Q 5306 3584 5551 3325 
Q 5797 3066 5797 2591 
Q 5797 2488 5784 2364 
Q 5772 2241 5747 2113 
z
" transform="scale(0.015625)"/>
      <path id="DejaVuSans-Oblique-74" d="M 2706 3500 
L 2619 3053 
L 1472 3053 
L 1100 1153 
Q 1081 1047 1072 975 
Q 1063 903 1063 863 
Q 1063 663 1183 572 
Q 1303 481 1569 481 
L 2150 481 
L 2053 0 
L 1503 0 
Q 991 0 739 200 
Q 488 400 488 806 
Q 488 878 497 964 
Q 506 1050 525 1153 
L 897 3053 
L 409 3053 
L 500 3500 
L 978 3500 
L 1172 4494 
L 1747 4494 
L 1556 3500 
L 2706 3500 
z
" transform="scale(0.015625)"/>
      <path id="DejaVuSans-Oblique-73" d="M 3200 3397 
L 3091 2853 
Q 2863 2978 2609 3040 
Q 2356 3103 2088 3103 
Q 1634 3103 1373 2948 
Q 1113 2794 1113 2528 
Q 1113 2219 1719 2053 
Q 1766 2041 1788 2034 
L 1972 1978 
Q 2547 1819 2739 1644 
Q 2931 1469 2931 1166 
Q 2931 609 2489 259 
Q 2047 -91 1331 -91 
Q 1053 -91 747 -37 
Q 441 16 72 128 
L 184 722 
Q 500 559 806 475 
Q 1113 391 1394 391 
Q 1816 391 2080 572 
Q 2344 753 2344 1031 
Q 2344 1331 1650 1516 
L 1591 1531 
L 1394 1581 
Q 956 1697 753 1886 
Q 550 2075 550 2369 
Q 550 2928 970 3256 
Q 1391 3584 2113 3584 
Q 2397 3584 2667 3537 
Q 2938 3491 3200 3397 
z
" transform="scale(0.015625)"/>
      <path id="DejaVuSans-Oblique-61" d="M 3438 1997 
L 3047 0 
L 2472 0 
L 2578 531 
Q 2325 219 2001 64 
Q 1678 -91 1281 -91 
Q 834 -91 548 182 
Q 263 456 263 884 
Q 263 1497 752 1853 
Q 1241 2209 2100 2209 
L 2900 2209 
L 2931 2363 
Q 2938 2388 2941 2417 
Q 2944 2447 2944 2509 
Q 2944 2788 2717 2942 
Q 2491 3097 2081 3097 
Q 1800 3097 1504 3025 
Q 1209 2953 897 2809 
L 997 3341 
Q 1322 3463 1633 3523 
Q 1944 3584 2234 3584 
Q 2853 3584 3176 3315 
Q 3500 3047 3500 2534 
Q 3500 2431 3484 2292 
Q 3469 2153 3438 1997 
z
M 2816 1759 
L 2241 1759 
Q 1534 1759 1195 1570 
Q 856 1381 856 984 
Q 856 709 1029 553 
Q 1203 397 1509 397 
Q 1978 397 2328 733 
Q 2678 1069 2791 1631 
L 2816 1759 
z
" transform="scale(0.015625)"/>
      <path id="DejaVuSans-Oblique-72" d="M 2853 2969 
Q 2766 3016 2653 3041 
Q 2541 3066 2413 3066 
Q 1953 3066 1609 2717 
Q 1266 2369 1153 1784 
L 800 0 
L 225 0 
L 909 3500 
L 1484 3500 
L 1375 2956 
Q 1603 3259 1920 3421 
Q 2238 3584 2597 3584 
Q 2691 3584 2781 3573 
Q 2872 3563 2963 3538 
L 2853 2969 
z
" transform="scale(0.015625)"/>
      <path id="DejaVuSans-Oblique-62" d="M 3169 2138 
Q 3169 2591 2961 2847 
Q 2753 3103 2388 3103 
Q 2122 3103 1889 2973 
Q 1656 2844 1484 2597 
Q 1303 2338 1198 1995 
Q 1094 1653 1094 1313 
Q 1094 881 1298 636 
Q 1503 391 1863 391 
Q 2134 391 2365 517 
Q 2597 644 2772 891 
Q 2950 1147 3059 1487 
Q 3169 1828 3169 2138 
z
M 1381 2969 
Q 1594 3256 1914 3420 
Q 2234 3584 2584 3584 
Q 3122 3584 3439 3221 
Q 3756 2859 3756 2241 
Q 3756 1734 3570 1259 
Q 3384 784 3041 416 
Q 2816 172 2522 40 
Q 2228 -91 1906 -91 
Q 1566 -91 1316 65 
Q 1066 222 909 531 
L 806 0 
L 231 0 
L 1178 4863 
L 1753 4863 
L 1381 2969 
z
" transform="scale(0.015625)"/>
      <path id="DejaVuSans-Oblique-78" d="M 3841 3500 
L 2234 1784 
L 3219 0 
L 2559 0 
L 1819 1388 
L 531 0 
L -166 0 
L 1556 1844 
L 641 3500 
L 1300 3500 
L 1972 2234 
L 3144 3500 
L 3841 3500 
z
" transform="scale(0.015625)"/>
     </defs>
     <use xlink:href="#DejaVuSans-Oblique-4f"/>
     <use xlink:href="#DejaVuSans-Oblique-66" x="78.710938"/>
     <use xlink:href="#DejaVuSans-Oblique-66" x="113.916016"/>
     <use xlink:href="#DejaVuSans-Oblique-6c" x="149.121094"/>
     <use xlink:href="#DejaVuSans-Oblique-69" x="176.904297"/>
     <use xlink:href="#DejaVuSans-Oblique-6e" x="204.6875"/>
     <use xlink:href="#DejaVuSans-Oblique-65" x="268.066406"/>
     <use xlink:href="#DejaVuSans-Oblique-3a" x="329.589844"/>
     <use xlink:href="#DejaVuSans-Oblique-20" x="363.28125"/>
     <use xlink:href="#DejaVuSans-Oblique-64" x="395.068359"/>
     <use xlink:href="#DejaVuSans-Oblique-6f" x="458.544922"/>
     <use xlink:href="#DejaVuSans-Oblique-63" x="519.726562"/>
     <use xlink:href="#DejaVuSans-Oblique-75" x="574.707031"/>
     <use xlink:href="#DejaVuSans-Oblique-6d" x="638.085938"/>
     <use xlink:href="#DejaVuSans-Oblique-65" x="735.498047"/>
     <use xlink:href="#DejaVuSans-Oblique-6e" x="797.021484"/>
     <use xlink:href="#DejaVuSans-Oblique-74" x="860.400391"/>
     <use xlink:href="#DejaVuSans-Oblique-73" x="899.609375"/>
     <use xlink:href="#DejaVuSans-Oblique-20" x="951.708984"/>
     <use xlink:href="#DejaVuSans-Oblique-61" x="983.496094"/>
     <use xlink:href="#DejaVuSans-Oblique-72" x="1044.775391"/>
     <use xlink:href="#DejaVuSans-Oblique-65" x="1085.888672"/>
     <use xlink:href="#DejaVuSans-Oblique-20" x="1147.412109"/>
     <use xlink:href="#DejaVuSans-Oblique-65" x="1179.199219"/>
     <use xlink:href="#DejaVuSans-Oblique-6d" x="1240.722656"/>
     <use xlink:href="#DejaVuSans-Oblique-62" x="1338.134766"/>
     <use xlink:href="#DejaVuSans-Oblique-65" x="1401.611328"/>
     <use xlink:href="#DejaVuSans-Oblique-64" x="1463.134766"/>
     <use xlink:href="#DejaVuSans-Oblique-64" x="1526.611328"/>
     <use xlink:href="#DejaVuSans-Oblique-65" x="1590.087891"/>
     <use xlink:href="#DejaVuSans-Oblique-64" x="1651.611328"/>
     <use xlink:href="#DejaVuSans-Oblique-20" x="1715.087891"/>
     <use xlink:href="#DejaVuSans-Oblique-61" x="1746.875"/>
     <use xlink:href="#DejaVuSans-Oblique-6e" x="1808.154297"/>
     <use xlink:href="#DejaVuSans-Oblique-64" x="1871.533203"/>
     <use xlink:href="#DejaVuSans-Oblique-20" x="1935.009766"/>
     <use xlink:href="#DejaVuSans-Oblique-69" x="1966.796875"/>
     <use xlink:href="#DejaVuSans-Oblique-6e" x="1994.580078"/>
     <use xlink:href="#DejaVuSans-Oblique-64" x="2057.958984"/>
     <use xlink:href="#DejaVuSans-Oblique-65" x="2121.435547"/>
     <use xlink:href="#DejaVuSans-Oblique-78" x="2182.958984"/>
     <use xlink:href="#DejaVuSans-Oblique-65" x="2242.138672"/>
     <use xlink:href="#DejaVuSans-Oblique-64" x="2303.662109"/>
    </g>
    <!-- before any user query arrives -->
    <g style="fill: #6b7280" transform="translate(330.910523 220.204969) scale(0.085 -0.085)">
     <defs>
      <path id="DejaVuSans-Oblique-79" d="M 1588 -325 
Q 1188 -997 936 -1164 
Q 684 -1331 294 -1331 
L -159 -1331 
L -63 -850 
L 269 -850 
Q 509 -850 678 -719 
Q 847 -588 1056 -206 
L 1234 128 
L 459 3500 
L 1069 3500 
L 1650 819 
L 3256 3500 
L 3859 3500 
L 1588 -325 
z
" transform="scale(0.015625)"/>
      <path id="DejaVuSans-Oblique-71" d="M 2669 525 
Q 2438 222 2123 65 
Q 1809 -91 1428 -91 
Q 897 -91 595 267 
Q 294 625 294 1253 
Q 294 1759 480 2231 
Q 666 2703 1013 3078 
Q 1238 3322 1530 3453 
Q 1822 3584 2144 3584 
Q 2531 3584 2781 3431 
Q 3031 3278 3144 2969 
L 3244 3494 
L 3822 3494 
L 2888 -1319 
L 2309 -1319 
L 2669 525 
z
M 891 1338 
Q 891 875 1084 633 
Q 1278 391 1644 391 
Q 2188 391 2572 911 
Q 2956 1431 2956 2175 
Q 2956 2625 2757 2864 
Q 2559 3103 2188 3103 
Q 1916 3103 1684 2976 
Q 1453 2850 1281 2606 
Q 1100 2350 995 2006 
Q 891 1663 891 1338 
z
" transform="scale(0.015625)"/>
      <path id="DejaVuSans-Oblique-76" d="M 459 3500 
L 1069 3500 
L 1581 525 
L 3256 3500 
L 3866 3500 
L 1875 0 
L 1100 0 
L 459 3500 
z
" transform="scale(0.015625)"/>
     </defs>
     <use xlink:href="#DejaVuSans-Oblique-62"/>
     <use xlink:href="#DejaVuSans-Oblique-65" x="63.476562"/>
     <use xlink:href="#DejaVuSans-Oblique-66" x="125"/>
     <use xlink:href="#DejaVuSans-Oblique-6f" x="160.205078"/>
     <use xlink:href="#DejaVuSans-Oblique-72" x="221.386719"/>
     <use xlink:href="#DejaVuSans-Oblique-65" x="262.5"/>
     <use xlink:href="#DejaVuSans-Oblique-20" x="324.023438"/>
     <use xlink:href="#DejaVuSans-Oblique-61" x="355.810547"/>
     <use xlink:href="#DejaVuSans-Oblique-6e" x="417.089844"/>
     <use xlink:href="#DejaVuSans-Oblique-79" x="480.46875"/>
     <use xlink:href="#DejaVuSans-Oblique-20" x="539.648438"/>
     <use xlink:href="#DejaVuSans-Oblique-75" x="571.435547"/>
     <use xlink:href="#DejaVuSans-Oblique-73" x="634.814453"/>
     <use xlink:href="#DejaVuSans-Oblique-65" x="686.914062"/>
     <use xlink:href="#DejaVuSans-Oblique-72" x="748.4375"/>
     <use xlink:href="#DejaVuSans-Oblique-20" x="789.550781"/>
     <use xlink:href="#DejaVuSans-Oblique-71" x="821.337891"/>
     <use xlink:href="#DejaVuSans-Oblique-75" x="884.814453"/>
     <use xlink:href="#DejaVuSans-Oblique-65" x="948.193359"/>
     <use xlink:href="#DejaVuSans-Oblique-72" x="1009.716797"/>
     <use xlink:href="#DejaVuSans-Oblique-79" x="1050.830078"/>
     <use xlink:href="#DejaVuSans-Oblique-20" x="1110.009766"/>
     <use xlink:href="#DejaVuSans-Oblique-61" x="1141.796875"/>
     <use xlink:href="#DejaVuSans-Oblique-72" x="1203.076172"/>
     <use xlink:href="#DejaVuSans-Oblique-72" x="1244.189453"/>
     <use xlink:href="#DejaVuSans-Oblique-69" x="1285.302734"/>
     <use xlink:href="#DejaVuSans-Oblique-76" x="1313.085938"/>
     <use xlink:href="#DejaVuSans-Oblique-65" x="1372.265625"/>
     <use xlink:href="#DejaVuSans-Oblique-73" x="1433.789062"/>
    </g>
   </g>
   <g id="patch_19">
    <path d="M 394.061538 205.69171 
Q 394.061538 193.611101 394.061538 182.648525 
" style="fill: none; stroke-dasharray: 3.7,1.6; stroke-dashoffset: 0; stroke: #7c3aed; stroke-linecap: round"/>
    <path d="M 392.061538 186.648525 
L 394.061538 182.648525 
L 396.061538 186.648525 
z
" style="fill: #7c3aed; stroke-dasharray: 3.7,1.6; stroke-dashoffset: 0; stroke: #7c3aed; stroke-linecap: round"/>
   </g>
   <g id="text_8">
    <!-- Retrieval-Augmented Generation (RAG) -->
    <g style="fill: #1f2937" transform="translate(319.562734 17.077969) scale(0.13 -0.13)">
     <defs>
      <path id="DejaVuSans-Bold-52" d="M 2297 2597 
Q 2675 2597 2839 2737 
Q 3003 2878 3003 3200 
Q 3003 3519 2839 3656 
Q 2675 3794 2297 3794 
L 1791 3794 
L 1791 2597 
L 2297 2597 
z
M 1791 1766 
L 1791 0 
L 588 0 
L 588 4666 
L 2425 4666 
Q 3347 4666 3776 4356 
Q 4206 4047 4206 3378 
Q 4206 2916 3982 2619 
Q 3759 2322 3309 2181 
Q 3556 2125 3751 1926 
Q 3947 1728 4147 1325 
L 4800 0 
L 3519 0 
L 2950 1159 
Q 2778 1509 2601 1637 
Q 2425 1766 2131 1766 
L 1791 1766 
z
" transform="scale(0.015625)"/>
      <path id="DejaVuSans-Bold-65" d="M 4031 1759 
L 4031 1441 
L 1416 1441 
Q 1456 1047 1700 850 
Q 1944 653 2381 653 
Q 2734 653 3104 758 
Q 3475 863 3866 1075 
L 3866 213 
Q 3469 63 3072 -14 
Q 2675 -91 2278 -91 
Q 1328 -91 801 392 
Q 275 875 275 1747 
Q 275 2603 792 3093 
Q 1309 3584 2216 3584 
Q 3041 3584 3536 3087 
Q 4031 2591 4031 1759 
z
M 2881 2131 
Q 2881 2450 2695 2645 
Q 2509 2841 2209 2841 
Q 1884 2841 1681 2658 
Q 1478 2475 1428 2131 
L 2881 2131 
z
" transform="scale(0.015625)"/>
      <path id="DejaVuSans-Bold-74" d="M 1759 4494 
L 1759 3500 
L 2913 3500 
L 2913 2700 
L 1759 2700 
L 1759 1216 
Q 1759 972 1856 886 
Q 1953 800 2241 800 
L 2816 800 
L 2816 0 
L 1856 0 
Q 1194 0 917 276 
Q 641 553 641 1216 
L 641 2700 
L 84 2700 
L 84 3500 
L 641 3500 
L 641 4494 
L 1759 4494 
z
" transform="scale(0.015625)"/>
      <path id="DejaVuSans-Bold-72" d="M 3138 2547 
Q 2991 2616 2845 2648 
Q 2700 2681 2553 2681 
Q 2122 2681 1889 2404 
Q 1656 2128 1656 1613 
L 1656 0 
L 538 0 
L 538 3500 
L 1656 3500 
L 1656 2925 
Q 1872 3269 2151 3426 
Q 2431 3584 2822 3584 
Q 2878 3584 2943 3579 
Q 3009 3575 3134 3559 
L 3138 2547 
z
" transform="scale(0.015625)"/>
      <path id="DejaVuSans-Bold-69" d="M 538 3500 
L 1656 3500 
L 1656 0 
L 538 0 
L 538 3500 
z
M 538 4863 
L 1656 4863 
L 1656 3950 
L 538 3950 
L 538 4863 
z
" transform="scale(0.015625)"/>
      <path id="DejaVuSans-Bold-76" d="M 97 3500 
L 1216 3500 
L 2088 1081 
L 2956 3500 
L 4078 3500 
L 2700 0 
L 1472 0 
L 97 3500 
z
" transform="scale(0.015625)"/>
      <path id="DejaVuSans-Bold-61" d="M 2106 1575 
Q 1756 1575 1579 1456 
Q 1403 1338 1403 1106 
Q 1403 894 1545 773 
Q 1688 653 1941 653 
Q 2256 653 2472 879 
Q 2688 1106 2688 1447 
L 2688 1575 
L 2106 1575 
z
M 3816 1997 
L 3816 0 
L 2688 0 
L 2688 519 
Q 2463 200 2181 54 
Q 1900 -91 1497 -91 
Q 953 -91 614 226 
Q 275 544 275 1050 
Q 275 1666 698 1953 
Q 1122 2241 2028 2241 
L 2688 2241 
L 2688 2328 
Q 2688 2594 2478 2717 
Q 2269 2841 1825 2841 
Q 1466 2841 1156 2769 
Q 847 2697 581 2553 
L 581 3406 
Q 941 3494 1303 3539 
Q 1666 3584 2028 3584 
Q 2975 3584 3395 3211 
Q 3816 2838 3816 1997 
z
" transform="scale(0.015625)"/>
      <path id="DejaVuSans-Bold-6c" d="M 538 4863 
L 1656 4863 
L 1656 0 
L 538 0 
L 538 4863 
z
" transform="scale(0.015625)"/>
      <path id="DejaVuSans-Bold-2d" d="M 347 2297 
L 2309 2297 
L 2309 1388 
L 347 1388 
L 347 2297 
z
" transform="scale(0.015625)"/>
      <path id="DejaVuSans-Bold-41" d="M 3419 850 
L 1538 850 
L 1241 0 
L 31 0 
L 1759 4666 
L 3194 4666 
L 4922 0 
L 3713 0 
L 3419 850 
z
M 1838 1716 
L 3116 1716 
L 2478 3572 
L 1838 1716 
z
" transform="scale(0.015625)"/>
      <path id="DejaVuSans-Bold-75" d="M 500 1363 
L 500 3500 
L 1625 3500 
L 1625 3150 
Q 1625 2866 1622 2436 
Q 1619 2006 1619 1863 
Q 1619 1441 1641 1255 
Q 1663 1069 1716 984 
Q 1784 875 1895 815 
Q 2006 756 2150 756 
Q 2500 756 2700 1025 
Q 2900 1294 2900 1772 
L 2900 3500 
L 4019 3500 
L 4019 0 
L 2900 0 
L 2900 506 
Q 2647 200 2364 54 
Q 2081 -91 1741 -91 
Q 1134 -91 817 281 
Q 500 653 500 1363 
z
" transform="scale(0.015625)"/>
      <path id="DejaVuSans-Bold-67" d="M 2919 594 
Q 2688 288 2409 144 
Q 2131 0 1766 0 
Q 1125 0 706 504 
Q 288 1009 288 1791 
Q 288 2575 706 3076 
Q 1125 3578 1766 3578 
Q 2131 3578 2409 3434 
Q 2688 3291 2919 2981 
L 2919 3500 
L 4044 3500 
L 4044 353 
Q 4044 -491 3511 -936 
Q 2978 -1381 1966 -1381 
Q 1638 -1381 1331 -1331 
Q 1025 -1281 716 -1178 
L 716 -306 
Q 1009 -475 1290 -558 
Q 1572 -641 1856 -641 
Q 2406 -641 2662 -400 
Q 2919 -159 2919 353 
L 2919 594 
z
M 2181 2772 
Q 1834 2772 1640 2515 
Q 1447 2259 1447 1791 
Q 1447 1309 1634 1061 
Q 1822 813 2181 813 
Q 2531 813 2725 1069 
Q 2919 1325 2919 1791 
Q 2919 2259 2725 2515 
Q 2531 2772 2181 2772 
z
" transform="scale(0.015625)"/>
      <path id="DejaVuSans-Bold-6d" d="M 3781 2919 
Q 3994 3244 4286 3414 
Q 4578 3584 4928 3584 
Q 5531 3584 5847 3212 
Q 6163 2841 6163 2131 
L 6163 0 
L 5038 0 
L 5038 1825 
Q 5041 1866 5042 1909 
Q 5044 1953 5044 2034 
Q 5044 2406 4934 2573 
Q 4825 2741 4581 2741 
Q 4263 2741 4089 2478 
Q 3916 2216 3909 1719 
L 3909 0 
L 2784 0 
L 2784 1825 
Q 2784 2406 2684 2573 
Q 2584 2741 2328 2741 
Q 2006 2741 1831 2477 
Q 1656 2213 1656 1722 
L 1656 0 
L 531 0 
L 531 3500 
L 1656 3500 
L 1656 2988 
Q 1863 3284 2130 3434 
Q 2397 3584 2719 3584 
Q 3081 3584 3359 3409 
Q 3638 3234 3781 2919 
z
" transform="scale(0.015625)"/>
      <path id="DejaVuSans-Bold-6e" d="M 4056 2131 
L 4056 0 
L 2931 0 
L 2931 347 
L 2931 1631 
Q 2931 2084 2911 2256 
Q 2891 2428 2841 2509 
Q 2775 2619 2662 2680 
Q 2550 2741 2406 2741 
Q 2056 2741 1856 2470 
Q 1656 2200 1656 1722 
L 1656 0 
L 538 0 
L 538 3500 
L 1656 3500 
L 1656 2988 
Q 1909 3294 2193 3439 
Q 2478 3584 2822 3584 
Q 3428 3584 3742 3212 
Q 4056 2841 4056 2131 
z
" transform="scale(0.015625)"/>
      <path id="DejaVuSans-Bold-64" d="M 2919 2988 
L 2919 4863 
L 4044 4863 
L 4044 0 
L 2919 0 
L 2919 506 
Q 2688 197 2409 53 
Q 2131 -91 1766 -91 
Q 1119 -91 703 423 
Q 288 938 288 1747 
Q 288 2556 703 3070 
Q 1119 3584 1766 3584 
Q 2128 3584 2408 3439 
Q 2688 3294 2919 2988 
z
M 2181 722 
Q 2541 722 2730 984 
Q 2919 1247 2919 1747 
Q 2919 2247 2730 2509 
Q 2541 2772 2181 2772 
Q 1825 2772 1636 2509 
Q 1447 2247 1447 1747 
Q 1447 1247 1636 984 
Q 1825 722 2181 722 
z
" transform="scale(0.015625)"/>
      <path id="DejaVuSans-Bold-20" transform="scale(0.015625)"/>
      <path id="DejaVuSans-Bold-47" d="M 4781 347 
Q 4331 128 3847 18 
Q 3363 -91 2847 -91 
Q 1681 -91 1000 561 
Q 319 1213 319 2328 
Q 319 3456 1012 4103 
Q 1706 4750 2913 4750 
Q 3378 4750 3804 4662 
Q 4231 4575 4609 4403 
L 4609 3438 
Q 4219 3659 3833 3768 
Q 3447 3878 3059 3878 
Q 2341 3878 1952 3476 
Q 1563 3075 1563 2328 
Q 1563 1588 1938 1184 
Q 2313 781 3003 781 
Q 3191 781 3352 804 
Q 3513 828 3641 878 
L 3641 1784 
L 2906 1784 
L 2906 2591 
L 4781 2591 
L 4781 347 
z
" transform="scale(0.015625)"/>
      <path id="DejaVuSans-Bold-6f" d="M 2203 2784 
Q 1831 2784 1636 2517 
Q 1441 2250 1441 1747 
Q 1441 1244 1636 976 
Q 1831 709 2203 709 
Q 2569 709 2762 976 
Q 2956 1244 2956 1747 
Q 2956 2250 2762 2517 
Q 2569 2784 2203 2784 
z
M 2203 3584 
Q 3106 3584 3614 3096 
Q 4122 2609 4122 1747 
Q 4122 884 3614 396 
Q 3106 -91 2203 -91 
Q 1297 -91 786 396 
Q 275 884 275 1747 
Q 275 2609 786 3096 
Q 1297 3584 2203 3584 
z
" transform="scale(0.015625)"/>
      <path id="DejaVuSans-Bold-28" d="M 2413 -844 
L 1484 -844 
Q 1006 -72 778 623 
Q 550 1319 550 2003 
Q 550 2688 779 3389 
Q 1009 4091 1484 4856 
L 2413 4856 
Q 2013 4116 1813 3408 
Q 1613 2700 1613 2009 
Q 1613 1319 1811 609 
Q 2009 -100 2413 -844 
z
" transform="scale(0.015625)"/>
      <path id="DejaVuSans-Bold-29" d="M 513 -844 
Q 913 -100 1113 609 
Q 1313 1319 1313 2009 
Q 1313 2700 1113 3408 
Q 913 4116 513 4856 
L 1441 4856 
Q 1916 4091 2145 3389 
Q 2375 2688 2375 2003 
Q 2375 1319 2147 623 
Q 1919 -72 1441 -844 
L 513 -844 
z
" transform="scale(0.015625)"/>
     </defs>
     <use xlink:href="#DejaVuSans-Bold-52"/>
     <use xlink:href="#DejaVuSans-Bold-65" x="77.001953"/>
     <use xlink:href="#DejaVuSans-Bold-74" x="144.824219"/>
     <use xlink:href="#DejaVuSans-Bold-72" x="192.626953"/>
     <use xlink:href="#DejaVuSans-Bold-69" x="241.943359"/>
     <use xlink:href="#DejaVuSans-Bold-65" x="276.220703"/>
     <use xlink:href="#DejaVuSans-Bold-76" x="344.042969"/>
     <use xlink:href="#DejaVuSans-Bold-61" x="409.228516"/>
     <use xlink:href="#DejaVuSans-Bold-6c" x="476.708984"/>
     <use xlink:href="#DejaVuSans-Bold-2d" x="510.986328"/>
     <use xlink:href="#DejaVuSans-Bold-41" x="552.490234"/>
     <use xlink:href="#DejaVuSans-Bold-75" x="629.882812"/>
     <use xlink:href="#DejaVuSans-Bold-67" x="701.074219"/>
     <use xlink:href="#DejaVuSans-Bold-6d" x="772.65625"/>
     <use xlink:href="#DejaVuSans-Bold-65" x="876.855469"/>
     <use xlink:href="#DejaVuSans-Bold-6e" x="944.677734"/>
     <use xlink:href="#DejaVuSans-Bold-74" x="1015.869141"/>
     <use xlink:href="#DejaVuSans-Bold-65" x="1063.671875"/>
     <use xlink:href="#DejaVuSans-Bold-64" x="1131.494141"/>
     <use xlink:href="#DejaVuSans-Bold-20" x="1203.076172"/>
     <use xlink:href="#DejaVuSans-Bold-47" x="1237.890625"/>
     <use xlink:href="#DejaVuSans-Bold-65" x="1319.970703"/>
     <use xlink:href="#DejaVuSans-Bold-6e" x="1387.792969"/>
     <use xlink:href="#DejaVuSans-Bold-65" x="1458.984375"/>
     <use xlink:href="#DejaVuSans-Bold-72" x="1526.806641"/>
     <use xlink:href="#DejaVuSans-Bold-61" x="1576.123047"/>
     <use xlink:href="#DejaVuSans-Bold-74" x="1643.603516"/>
     <use xlink:href="#DejaVuSans-Bold-69" x="1691.40625"/>
     <use xlink:href="#DejaVuSans-Bold-6f" x="1725.683594"/>
     <use xlink:href="#DejaVuSans-Bold-6e" x="1794.384766"/>
     <use xlink:href="#DejaVuSans-Bold-20" x="1865.576172"/>
     <use xlink:href="#DejaVuSans-Bold-28" x="1900.390625"/>
     <use xlink:href="#DejaVuSans-Bold-52" x="1946.09375"/>
     <use xlink:href="#DejaVuSans-Bold-41" x="2023.095703"/>
     <use xlink:href="#DejaVuSans-Bold-47" x="2100.488281"/>
     <use xlink:href="#DejaVuSans-Bold-29" x="2182.568359"/>
    </g>
   </g>
   <g id="text_9">
    <!-- User -->
    <g style="fill: #1f2937" transform="translate(79.357834 98.605414) scale(0.095 -0.095)">
     <defs>
      <path id="DejaVuSans-Bold-55" d="M 588 4666 
L 1791 4666 
L 1791 1869 
Q 1791 1291 1980 1042 
Q 2169 794 2597 794 
Q 3028 794 3217 1042 
Q 3406 1291 3406 1869 
L 3406 4666 
L 4609 4666 
L 4609 1869 
Q 4609 878 4112 393 
Q 3616 -91 2597 -91 
Q 1581 -91 1084 393 
Q 588 878 588 1869 
L 588 4666 
z
" transform="scale(0.015625)"/>
      <path id="DejaVuSans-Bold-73" d="M 3272 3391 
L 3272 2541 
Q 2913 2691 2578 2766 
Q 2244 2841 1947 2841 
Q 1628 2841 1473 2761 
Q 1319 2681 1319 2516 
Q 1319 2381 1436 2309 
Q 1553 2238 1856 2203 
L 2053 2175 
Q 2913 2066 3209 1816 
Q 3506 1566 3506 1031 
Q 3506 472 3093 190 
Q 2681 -91 1863 -91 
Q 1516 -91 1145 -36 
Q 775 19 384 128 
L 384 978 
Q 719 816 1070 734 
Q 1422 653 1784 653 
Q 2113 653 2278 743 
Q 2444 834 2444 1013 
Q 2444 1163 2330 1236 
Q 2216 1309 1875 1350 
L 1678 1375 
Q 931 1469 631 1722 
Q 331 1975 331 2491 
Q 331 3047 712 3315 
Q 1094 3584 1881 3584 
Q 2191 3584 2531 3537 
Q 2872 3491 3272 3391 
z
" transform="scale(0.015625)"/>
     </defs>
     <use xlink:href="#DejaVuSans-Bold-55"/>
     <use xlink:href="#DejaVuSans-Bold-73" x="81.201172"/>
     <use xlink:href="#DejaVuSans-Bold-65" x="140.722656"/>
     <use xlink:href="#DejaVuSans-Bold-72" x="208.544922"/>
    </g>
    <!-- Question -->
    <g style="fill: #1f2937" transform="translate(67.594162 109.243336) scale(0.095 -0.095)">
     <defs>
      <path id="DejaVuSans-Bold-51" d="M 2847 -84 
L 2753 -84 
Q 1600 -84 959 553 
Q 319 1191 319 2328 
Q 319 3463 958 4106 
Q 1597 4750 2719 4750 
Q 3853 4750 4486 4112 
Q 5119 3475 5119 2328 
Q 5119 1541 4783 972 
Q 4447 403 3816 116 
L 4756 -934 
L 3609 -934 
L 2847 -84 
z
M 2719 3878 
Q 2169 3878 1866 3472 
Q 1563 3066 1563 2328 
Q 1563 1578 1859 1179 
Q 2156 781 2719 781 
Q 3272 781 3575 1187 
Q 3878 1594 3878 2328 
Q 3878 3066 3575 3472 
Q 3272 3878 2719 3878 
z
" transform="scale(0.015625)"/>
     </defs>
     <use xlink:href="#DejaVuSans-Bold-51"/>
     <use xlink:href="#DejaVuSans-Bold-75" x="85.009766"/>
     <use xlink:href="#DejaVuSans-Bold-65" x="156.201172"/>
     <use xlink:href="#DejaVuSans-Bold-73" x="224.023438"/>
     <use xlink:href="#DejaVuSans-Bold-74" x="283.544922"/>
     <use xlink:href="#DejaVuSans-Bold-69" x="331.347656"/>
     <use xlink:href="#DejaVuSans-Bold-6f" x="365.625"/>
     <use xlink:href="#DejaVuSans-Bold-6e" x="434.326172"/>
    </g>
   </g>
   <g id="text_10">
    <!-- "How does -->
    <g style="fill: #6b7280" transform="translate(70.236154 137.142469) scale(0.08 -0.08)">
     <defs>
      <path id="DejaVuSans-22" d="M 1147 4666 
L 1147 2931 
L 616 2931 
L 616 4666 
L 1147 4666 
z
M 2328 4666 
L 2328 2931 
L 1797 2931 
L 1797 4666 
L 2328 4666 
z
" transform="scale(0.015625)"/>
      <path id="DejaVuSans-48" d="M 628 4666 
L 1259 4666 
L 1259 2753 
L 3553 2753 
L 3553 4666 
L 4184 4666 
L 4184 0 
L 3553 0 
L 3553 2222 
L 1259 2222 
L 1259 0 
L 628 0 
L 628 4666 
z
" transform="scale(0.015625)"/>
      <path id="DejaVuSans-6f" d="M 1959 3097 
Q 1497 3097 1228 2736 
Q 959 2375 959 1747 
Q 959 1119 1226 758 
Q 1494 397 1959 397 
Q 2419 397 2687 759 
Q 2956 1122 2956 1747 
Q 2956 2369 2687 2733 
Q 2419 3097 1959 3097 
z
M 1959 3584 
Q 2709 3584 3137 3096 
Q 3566 2609 3566 1747 
Q 3566 888 3137 398 
Q 2709 -91 1959 -91 
Q 1206 -91 779 398 
Q 353 888 353 1747 
Q 353 2609 779 3096 
Q 1206 3584 1959 3584 
z
" transform="scale(0.015625)"/>
      <path id="DejaVuSans-77" d="M 269 3500 
L 844 3500 
L 1563 769 
L 2278 3500 
L 2956 3500 
L 3675 769 
L 4391 3500 
L 4966 3500 
L 4050 0 
L 3372 0 
L 2619 2869 
L 1863 0 
L 1184 0 
L 269 3500 
z
" transform="scale(0.015625)"/>
      <path id="DejaVuSans-20" transform="scale(0.015625)"/>
      <path id="DejaVuSans-64" d="M 2906 2969 
L 2906 4863 
L 3481 4863 
L 3481 0 
L 2906 0 
L 2906 525 
Q 2725 213 2448 61 
Q 2172 -91 1784 -91 
Q 1150 -91 751 415 
Q 353 922 353 1747 
Q 353 2572 751 3078 
Q 1150 3584 1784 3584 
Q 2172 3584 2448 3432 
Q 2725 3281 2906 2969 
z
M 947 1747 
Q 947 1113 1208 752 
Q 1469 391 1925 391 
Q 2381 391 2643 752 
Q 2906 1113 2906 1747 
Q 2906 2381 2643 2742 
Q 2381 3103 1925 3103 
Q 1469 3103 1208 2742 
Q 947 2381 947 1747 
z
" transform="scale(0.015625)"/>
      <path id="DejaVuSans-65" d="M 3597 1894 
L 3597 1613 
L 953 1613 
Q 991 1019 1311 708 
Q 1631 397 2203 397 
Q 2534 397 2845 478 
Q 3156 559 3463 722 
L 3463 178 
Q 3153 47 2828 -22 
Q 2503 -91 2169 -91 
Q 1331 -91 842 396 
Q 353 884 353 1716 
Q 353 2575 817 3079 
Q 1281 3584 2069 3584 
Q 2775 3584 3186 3129 
Q 3597 2675 3597 1894 
z
M 3022 2063 
Q 3016 2534 2758 2815 
Q 2500 3097 2075 3097 
Q 1594 3097 1305 2825 
Q 1016 2553 972 2059 
L 3022 2063 
z
" transform="scale(0.015625)"/>
      <path id="DejaVuSans-73" d="M 2834 3397 
L 2834 2853 
Q 2591 2978 2328 3040 
Q 2066 3103 1784 3103 
Q 1356 3103 1142 2972 
Q 928 2841 928 2578 
Q 928 2378 1081 2264 
Q 1234 2150 1697 2047 
L 1894 2003 
Q 2506 1872 2764 1633 
Q 3022 1394 3022 966 
Q 3022 478 2636 193 
Q 2250 -91 1575 -91 
Q 1294 -91 989 -36 
Q 684 19 347 128 
L 347 722 
Q 666 556 975 473 
Q 1284 391 1588 391 
Q 1994 391 2212 530 
Q 2431 669 2431 922 
Q 2431 1156 2273 1281 
Q 2116 1406 1581 1522 
L 1381 1569 
Q 847 1681 609 1914 
Q 372 2147 372 2553 
Q 372 3047 722 3315 
Q 1072 3584 1716 3584 
Q 2034 3584 2315 3537 
Q 2597 3491 2834 3397 
z
" transform="scale(0.015625)"/>
     </defs>
     <use xlink:href="#DejaVuSans-22"/>
     <use xlink:href="#DejaVuSans-48" x="45.996094"/>
     <use xlink:href="#DejaVuSans-6f" x="121.191406"/>
     <use xlink:href="#DejaVuSans-77" x="182.373047"/>
     <use xlink:href="#DejaVuSans-20" x="264.160156"/>
     <use xlink:href="#DejaVuSans-64" x="295.947266"/>
     <use xlink:href="#DejaVuSans-6f" x="359.423828"/>
     <use xlink:href="#DejaVuSans-65" x="420.605469"/>
     <use xlink:href="#DejaVuSans-73" x="482.128906"/>
    </g>
    <!-- Flash Attention -->
    <g style="fill: #6b7280" transform="translate(61.392404 147.316469) scale(0.08 -0.08)">
     <defs>
      <path id="DejaVuSans-46" d="M 628 4666 
L 3309 4666 
L 3309 4134 
L 1259 4134 
L 1259 2759 
L 3109 2759 
L 3109 2228 
L 1259 2228 
L 1259 0 
L 628 0 
L 628 4666 
z
" transform="scale(0.015625)"/>
      <path id="DejaVuSans-6c" d="M 603 4863 
L 1178 4863 
L 1178 0 
L 603 0 
L 603 4863 
z
" transform="scale(0.015625)"/>
      <path id="DejaVuSans-61" d="M 2194 1759 
Q 1497 1759 1228 1600 
Q 959 1441 959 1056 
Q 959 750 1161 570 
Q 1363 391 1709 391 
Q 2188 391 2477 730 
Q 2766 1069 2766 1631 
L 2766 1759 
L 2194 1759 
z
M 3341 1997 
L 3341 0 
L 2766 0 
L 2766 531 
Q 2569 213 2275 61 
Q 1981 -91 1556 -91 
Q 1019 -91 701 211 
Q 384 513 384 1019 
Q 384 1609 779 1909 
Q 1175 2209 1959 2209 
L 2766 2209 
L 2766 2266 
Q 2766 2663 2505 2880 
Q 2244 3097 1772 3097 
Q 1472 3097 1187 3025 
Q 903 2953 641 2809 
L 641 3341 
Q 956 3463 1253 3523 
Q 1550 3584 1831 3584 
Q 2591 3584 2966 3190 
Q 3341 2797 3341 1997 
z
" transform="scale(0.015625)"/>
      <path id="DejaVuSans-68" d="M 3513 2113 
L 3513 0 
L 2938 0 
L 2938 2094 
Q 2938 2591 2744 2837 
Q 2550 3084 2163 3084 
Q 1697 3084 1428 2787 
Q 1159 2491 1159 1978 
L 1159 0 
L 581 0 
L 581 4863 
L 1159 4863 
L 1159 2956 
Q 1366 3272 1645 3428 
Q 1925 3584 2291 3584 
Q 2894 3584 3203 3211 
Q 3513 2838 3513 2113 
z
" transform="scale(0.015625)"/>
      <path id="DejaVuSans-41" d="M 2188 4044 
L 1331 1722 
L 3047 1722 
L 2188 4044 
z
M 1831 4666 
L 2547 4666 
L 4325 0 
L 3669 0 
L 3244 1197 
L 1141 1197 
L 716 0 
L 50 0 
L 1831 4666 
z
" transform="scale(0.015625)"/>
      <path id="DejaVuSans-74" d="M 1172 4494 
L 1172 3500 
L 2356 3500 
L 2356 3053 
L 1172 3053 
L 1172 1153 
Q 1172 725 1289 603 
Q 1406 481 1766 481 
L 2356 481 
L 2356 0 
L 1766 0 
Q 1100 0 847 248 
Q 594 497 594 1153 
L 594 3053 
L 172 3053 
L 172 3500 
L 594 3500 
L 594 4494 
L 1172 4494 
z
" transform="scale(0.015625)"/>
      <path id="DejaVuSans-6e" d="M 3513 2113 
L 3513 0 
L 2938 0 
L 2938 2094 
Q 2938 2591 2744 2837 
Q 2550 3084 2163 3084 
Q 1697 3084 1428 2787 
Q 1159 2491 1159 1978 
L 1159 0 
L 581 0 
L 581 3500 
L 1159 3500 
L 1159 2956 
Q 1366 3272 1645 3428 
Q 1925 3584 2291 3584 
Q 2894 3584 3203 3211 
Q 3513 2838 3513 2113 
z
" transform="scale(0.015625)"/>
      <path id="DejaVuSans-69" d="M 603 3500 
L 1178 3500 
L 1178 0 
L 603 0 
L 603 3500 
z
M 603 4863 
L 1178 4863 
L 1178 4134 
L 603 4134 
L 603 4863 
z
" transform="scale(0.015625)"/>
     </defs>
     <use xlink:href="#DejaVuSans-46"/>
     <use xlink:href="#DejaVuSans-6c" x="57.519531"/>
     <use xlink:href="#DejaVuSans-61" x="85.302734"/>
     <use xlink:href="#DejaVuSans-73" x="146.582031"/>
     <use xlink:href="#DejaVuSans-68" x="198.681641"/>
     <use xlink:href="#DejaVuSans-20" x="262.060547"/>
     <use xlink:href="#DejaVuSans-41" x="293.847656"/>
     <use xlink:href="#DejaVuSans-74" x="360.505859"/>
     <use xlink:href="#DejaVuSans-74" x="399.714844"/>
     <use xlink:href="#DejaVuSans-65" x="438.923828"/>
     <use xlink:href="#DejaVuSans-6e" x="500.447266"/>
     <use xlink:href="#DejaVuSans-74" x="563.826172"/>
     <use xlink:href="#DejaVuSans-69" x="603.035156"/>
     <use xlink:href="#DejaVuSans-6f" x="630.818359"/>
     <use xlink:href="#DejaVuSans-6e" x="692"/>
    </g>
    <!-- work?" -->
    <g style="fill: #6b7280" transform="translate(77.963654 157.490469) scale(0.08 -0.08)">
     <defs>
      <path id="DejaVuSans-72" d="M 2631 2963 
Q 2534 3019 2420 3045 
Q 2306 3072 2169 3072 
Q 1681 3072 1420 2755 
Q 1159 2438 1159 1844 
L 1159 0 
L 581 0 
L 581 3500 
L 1159 3500 
L 1159 2956 
Q 1341 3275 1631 3429 
Q 1922 3584 2338 3584 
Q 2397 3584 2469 3576 
Q 2541 3569 2628 3553 
L 2631 2963 
z
" transform="scale(0.015625)"/>
      <path id="DejaVuSans-6b" d="M 581 4863 
L 1159 4863 
L 1159 1991 
L 2875 3500 
L 3609 3500 
L 1753 1863 
L 3688 0 
L 2938 0 
L 1159 1709 
L 1159 0 
L 581 0 
L 581 4863 
z
" transform="scale(0.015625)"/>
      <path id="DejaVuSans-3f" d="M 1222 794 
L 1856 794 
L 1856 0 
L 1222 0 
L 1222 794 
z
M 1838 1253 
L 1241 1253 
L 1241 1734 
Q 1241 2050 1328 2253 
Q 1416 2456 1697 2725 
L 1978 3003 
Q 2156 3169 2236 3316 
Q 2316 3463 2316 3616 
Q 2316 3894 2111 4066 
Q 1906 4238 1569 4238 
Q 1322 4238 1042 4128 
Q 763 4019 459 3809 
L 459 4397 
Q 753 4575 1054 4662 
Q 1356 4750 1678 4750 
Q 2253 4750 2601 4447 
Q 2950 4144 2950 3647 
Q 2950 3409 2837 3195 
Q 2725 2981 2444 2713 
L 2169 2444 
Q 2022 2297 1961 2214 
Q 1900 2131 1875 2053 
Q 1856 1988 1847 1894 
Q 1838 1800 1838 1638 
L 1838 1253 
z
" transform="scale(0.015625)"/>
     </defs>
     <use xlink:href="#DejaVuSans-77"/>
     <use xlink:href="#DejaVuSans-6f" x="81.787109"/>
     <use xlink:href="#DejaVuSans-72" x="142.96875"/>
     <use xlink:href="#DejaVuSans-6b" x="184.082031"/>
     <use xlink:href="#DejaVuSans-3f" x="241.992188"/>
     <use xlink:href="#DejaVuSans-22" x="295.068359"/>
    </g>
   </g>
   <g id="text_11">
    <!-- Embed -->
    <g style="fill: #1f2937" transform="translate(221.100673 98.605414) scale(0.095 -0.095)">
     <defs>
      <path id="DejaVuSans-Bold-45" d="M 588 4666 
L 3834 4666 
L 3834 3756 
L 1791 3756 
L 1791 2888 
L 3713 2888 
L 3713 1978 
L 1791 1978 
L 1791 909 
L 3903 909 
L 3903 0 
L 588 0 
L 588 4666 
z
" transform="scale(0.015625)"/>
      <path id="DejaVuSans-Bold-62" d="M 2400 722 
Q 2759 722 2948 984 
Q 3138 1247 3138 1747 
Q 3138 2247 2948 2509 
Q 2759 2772 2400 2772 
Q 2041 2772 1848 2508 
Q 1656 2244 1656 1747 
Q 1656 1250 1848 986 
Q 2041 722 2400 722 
z
M 1656 2988 
Q 1888 3294 2169 3439 
Q 2450 3584 2816 3584 
Q 3463 3584 3878 3070 
Q 4294 2556 4294 1747 
Q 4294 938 3878 423 
Q 3463 -91 2816 -91 
Q 2450 -91 2169 54 
Q 1888 200 1656 506 
L 1656 0 
L 538 0 
L 538 4863 
L 1656 4863 
L 1656 2988 
z
" transform="scale(0.015625)"/>
     </defs>
     <use xlink:href="#DejaVuSans-Bold-45"/>
     <use xlink:href="#DejaVuSans-Bold-6d" x="68.310547"/>
     <use xlink:href="#DejaVuSans-Bold-62" x="172.509766"/>
     <use xlink:href="#DejaVuSans-Bold-65" x="244.091797"/>
     <use xlink:href="#DejaVuSans-Bold-64" x="311.914062"/>
    </g>
    <!-- Question -->
    <g style="fill: #1f2937" transform="translate(215.304931 109.243336) scale(0.095 -0.095)">
     <use xlink:href="#DejaVuSans-Bold-51"/>
     <use xlink:href="#DejaVuSans-Bold-75" x="85.009766"/>
     <use xlink:href="#DejaVuSans-Bold-65" x="156.201172"/>
     <use xlink:href="#DejaVuSans-Bold-73" x="224.023438"/>
     <use xlink:href="#DejaVuSans-Bold-74" x="283.544922"/>
     <use xlink:href="#DejaVuSans-Bold-69" x="331.347656"/>
     <use xlink:href="#DejaVuSans-Bold-6f" x="365.625"/>
     <use xlink:href="#DejaVuSans-Bold-6e" x="434.326172"/>
    </g>
   </g>
   <g id="text_12">
    <!-- Embedding -->
    <g style="fill: #6b7280" transform="translate(216.628173 137.142469) scale(0.08 -0.08)">
     <defs>
      <path id="DejaVuSans-45" d="M 628 4666 
L 3578 4666 
L 3578 4134 
L 1259 4134 
L 1259 2753 
L 3481 2753 
L 3481 2222 
L 1259 2222 
L 1259 531 
L 3634 531 
L 3634 0 
L 628 0 
L 628 4666 
z
" transform="scale(0.015625)"/>
      <path id="DejaVuSans-6d" d="M 3328 2828 
Q 3544 3216 3844 3400 
Q 4144 3584 4550 3584 
Q 5097 3584 5394 3201 
Q 5691 2819 5691 2113 
L 5691 0 
L 5113 0 
L 5113 2094 
Q 5113 2597 4934 2840 
Q 4756 3084 4391 3084 
Q 3944 3084 3684 2787 
Q 3425 2491 3425 1978 
L 3425 0 
L 2847 0 
L 2847 2094 
Q 2847 2600 2669 2842 
Q 2491 3084 2119 3084 
Q 1678 3084 1418 2786 
Q 1159 2488 1159 1978 
L 1159 0 
L 581 0 
L 581 3500 
L 1159 3500 
L 1159 2956 
Q 1356 3278 1631 3431 
Q 1906 3584 2284 3584 
Q 2666 3584 2933 3390 
Q 3200 3197 3328 2828 
z
" transform="scale(0.015625)"/>
      <path id="DejaVuSans-62" d="M 3116 1747 
Q 3116 2381 2855 2742 
Q 2594 3103 2138 3103 
Q 1681 3103 1420 2742 
Q 1159 2381 1159 1747 
Q 1159 1113 1420 752 
Q 1681 391 2138 391 
Q 2594 391 2855 752 
Q 3116 1113 3116 1747 
z
M 1159 2969 
Q 1341 3281 1617 3432 
Q 1894 3584 2278 3584 
Q 2916 3584 3314 3078 
Q 3713 2572 3713 1747 
Q 3713 922 3314 415 
Q 2916 -91 2278 -91 
Q 1894 -91 1617 61 
Q 1341 213 1159 525 
L 1159 0 
L 581 0 
L 581 4863 
L 1159 4863 
L 1159 2969 
z
" transform="scale(0.015625)"/>
      <path id="DejaVuSans-67" d="M 2906 1791 
Q 2906 2416 2648 2759 
Q 2391 3103 1925 3103 
Q 1463 3103 1205 2759 
Q 947 2416 947 1791 
Q 947 1169 1205 825 
Q 1463 481 1925 481 
Q 2391 481 2648 825 
Q 2906 1169 2906 1791 
z
M 3481 434 
Q 3481 -459 3084 -895 
Q 2688 -1331 1869 -1331 
Q 1566 -1331 1297 -1286 
Q 1028 -1241 775 -1147 
L 775 -588 
Q 1028 -725 1275 -790 
Q 1522 -856 1778 -856 
Q 2344 -856 2625 -561 
Q 2906 -266 2906 331 
L 2906 616 
Q 2728 306 2450 153 
Q 2172 0 1784 0 
Q 1141 0 747 490 
Q 353 981 353 1791 
Q 353 2603 747 3093 
Q 1141 3584 1784 3584 
Q 2172 3584 2450 3431 
Q 2728 3278 2906 2969 
L 2906 3500 
L 3481 3500 
L 3481 434 
z
" transform="scale(0.015625)"/>
     </defs>
     <use xlink:href="#DejaVuSans-45"/>
     <use xlink:href="#DejaVuSans-6d" x="63.183594"/>
     <use xlink:href="#DejaVuSans-62" x="160.595703"/>
     <use xlink:href="#DejaVuSans-65" x="224.072266"/>
     <use xlink:href="#DejaVuSans-64" x="285.595703"/>
     <use xlink:href="#DejaVuSans-64" x="349.072266"/>
     <use xlink:href="#DejaVuSans-69" x="412.548828"/>
     <use xlink:href="#DejaVuSans-6e" x="440.332031"/>
     <use xlink:href="#DejaVuSans-67" x="503.710938"/>
    </g>
    <!-- model → -->
    <g style="fill: #6b7280" transform="translate(222.238173 147.316469) scale(0.08 -0.08)">
     <defs>
      <path id="DejaVuSans-2192" d="M 5050 2147 
L 5050 1866 
L 3822 638 
L 3447 1013 
L 4175 1741 
L 366 1741 
L 366 2272 
L 4175 2272 
L 3447 3000 
L 3822 3375 
L 5050 2147 
z
" transform="scale(0.015625)"/>
     </defs>
     <use xlink:href="#DejaVuSans-6d"/>
     <use xlink:href="#DejaVuSans-6f" x="97.412109"/>
     <use xlink:href="#DejaVuSans-64" x="158.59375"/>
     <use xlink:href="#DejaVuSans-65" x="222.070312"/>
     <use xlink:href="#DejaVuSans-6c" x="283.59375"/>
     <use xlink:href="#DejaVuSans-20" x="311.376953"/>
     <use xlink:href="#DejaVuSans-2192" x="343.164062"/>
    </g>
    <!-- 384-dim vector -->
    <g style="fill: #6b7280" transform="translate(208.732548 157.490469) scale(0.08 -0.08)">
     <defs>
      <path id="DejaVuSans-33" d="M 2597 2516 
Q 3050 2419 3304 2112 
Q 3559 1806 3559 1356 
Q 3559 666 3084 287 
Q 2609 -91 1734 -91 
Q 1441 -91 1130 -33 
Q 819 25 488 141 
L 488 750 
Q 750 597 1062 519 
Q 1375 441 1716 441 
Q 2309 441 2620 675 
Q 2931 909 2931 1356 
Q 2931 1769 2642 2001 
Q 2353 2234 1838 2234 
L 1294 2234 
L 1294 2753 
L 1863 2753 
Q 2328 2753 2575 2939 
Q 2822 3125 2822 3475 
Q 2822 3834 2567 4026 
Q 2313 4219 1838 4219 
Q 1578 4219 1281 4162 
Q 984 4106 628 3988 
L 628 4550 
Q 988 4650 1302 4700 
Q 1616 4750 1894 4750 
Q 2613 4750 3031 4423 
Q 3450 4097 3450 3541 
Q 3450 3153 3228 2886 
Q 3006 2619 2597 2516 
z
" transform="scale(0.015625)"/>
      <path id="DejaVuSans-38" d="M 2034 2216 
Q 1584 2216 1326 1975 
Q 1069 1734 1069 1313 
Q 1069 891 1326 650 
Q 1584 409 2034 409 
Q 2484 409 2743 651 
Q 3003 894 3003 1313 
Q 3003 1734 2745 1975 
Q 2488 2216 2034 2216 
z
M 1403 2484 
Q 997 2584 770 2862 
Q 544 3141 544 3541 
Q 544 4100 942 4425 
Q 1341 4750 2034 4750 
Q 2731 4750 3128 4425 
Q 3525 4100 3525 3541 
Q 3525 3141 3298 2862 
Q 3072 2584 2669 2484 
Q 3125 2378 3379 2068 
Q 3634 1759 3634 1313 
Q 3634 634 3220 271 
Q 2806 -91 2034 -91 
Q 1263 -91 848 271 
Q 434 634 434 1313 
Q 434 1759 690 2068 
Q 947 2378 1403 2484 
z
M 1172 3481 
Q 1172 3119 1398 2916 
Q 1625 2713 2034 2713 
Q 2441 2713 2670 2916 
Q 2900 3119 2900 3481 
Q 2900 3844 2670 4047 
Q 2441 4250 2034 4250 
Q 1625 4250 1398 4047 
Q 1172 3844 1172 3481 
z
" transform="scale(0.015625)"/>
      <path id="DejaVuSans-34" d="M 2419 4116 
L 825 1625 
L 2419 1625 
L 2419 4116 
z
M 2253 4666 
L 3047 4666 
L 3047 1625 
L 3713 1625 
L 3713 1100 
L 3047 1100 
L 3047 0 
L 2419 0 
L 2419 1100 
L 313 1100 
L 313 1709 
L 2253 4666 
z
" transform="scale(0.015625)"/>
      <path id="DejaVuSans-2d" d="M 313 2009 
L 1997 2009 
L 1997 1497 
L 313 1497 
L 313 2009 
z
" transform="scale(0.015625)"/>
      <path id="DejaVuSans-76" d="M 191 3500 
L 800 3500 
L 1894 563 
L 2988 3500 
L 3597 3500 
L 2284 0 
L 1503 0 
L 191 3500 
z
" transform="scale(0.015625)"/>
      <path id="DejaVuSans-63" d="M 3122 3366 
L 3122 2828 
Q 2878 2963 2633 3030 
Q 2388 3097 2138 3097 
Q 1578 3097 1268 2742 
Q 959 2388 959 1747 
Q 959 1106 1268 751 
Q 1578 397 2138 397 
Q 2388 397 2633 464 
Q 2878 531 3122 666 
L 3122 134 
Q 2881 22 2623 -34 
Q 2366 -91 2075 -91 
Q 1284 -91 818 406 
Q 353 903 353 1747 
Q 353 2603 823 3093 
Q 1294 3584 2113 3584 
Q 2378 3584 2631 3529 
Q 2884 3475 3122 3366 
z
" transform="scale(0.015625)"/>
     </defs>
     <use xlink:href="#DejaVuSans-33"/>
     <use xlink:href="#DejaVuSans-38" x="63.623047"/>
     <use xlink:href="#DejaVuSans-34" x="127.246094"/>
     <use xlink:href="#DejaVuSans-2d" x="190.869141"/>
     <use xlink:href="#DejaVuSans-64" x="226.953125"/>
     <use xlink:href="#DejaVuSans-69" x="290.429688"/>
     <use xlink:href="#DejaVuSans-6d" x="318.212891"/>
     <use xlink:href="#DejaVuSans-20" x="415.625"/>
     <use xlink:href="#DejaVuSans-76" x="447.412109"/>
     <use xlink:href="#DejaVuSans-65" x="506.591797"/>
     <use xlink:href="#DejaVuSans-63" x="568.115234"/>
     <use xlink:href="#DejaVuSans-74" x="623.095703"/>
     <use xlink:href="#DejaVuSans-6f" x="662.304688"/>
     <use xlink:href="#DejaVuSans-72" x="723.486328"/>
    </g>
   </g>
   <g id="text_13">
    <!-- Vector -->
    <g style="fill: #1f2937" transform="translate(376.732945 98.605414) scale(0.095 -0.095)">
     <defs>
      <path id="DejaVuSans-Bold-56" d="M 31 4666 
L 1241 4666 
L 2478 1222 
L 3713 4666 
L 4922 4666 
L 3194 0 
L 1759 0 
L 31 4666 
z
" transform="scale(0.015625)"/>
      <path id="DejaVuSans-Bold-63" d="M 3366 3391 
L 3366 2478 
Q 3138 2634 2908 2709 
Q 2678 2784 2431 2784 
Q 1963 2784 1702 2511 
Q 1441 2238 1441 1747 
Q 1441 1256 1702 982 
Q 1963 709 2431 709 
Q 2694 709 2930 787 
Q 3166 866 3366 1019 
L 3366 103 
Q 3103 6 2833 -42 
Q 2563 -91 2291 -91 
Q 1344 -91 809 395 
Q 275 881 275 1747 
Q 275 2613 809 3098 
Q 1344 3584 2291 3584 
Q 2566 3584 2833 3536 
Q 3100 3488 3366 3391 
z
" transform="scale(0.015625)"/>
     </defs>
     <use xlink:href="#DejaVuSans-Bold-56"/>
     <use xlink:href="#DejaVuSans-Bold-65" x="71.892578"/>
     <use xlink:href="#DejaVuSans-Bold-63" x="139.714844"/>
     <use xlink:href="#DejaVuSans-Bold-74" x="198.992188"/>
     <use xlink:href="#DejaVuSans-Bold-6f" x="246.794922"/>
     <use xlink:href="#DejaVuSans-Bold-72" x="315.496094"/>
    </g>
    <!-- Search -->
    <g style="fill: #1f2937" transform="translate(375.673843 109.243336) scale(0.095 -0.095)">
     <defs>
      <path id="DejaVuSans-Bold-53" d="M 3834 4519 
L 3834 3531 
Q 3450 3703 3084 3790 
Q 2719 3878 2394 3878 
Q 1963 3878 1756 3759 
Q 1550 3641 1550 3391 
Q 1550 3203 1689 3098 
Q 1828 2994 2194 2919 
L 2706 2816 
Q 3484 2659 3812 2340 
Q 4141 2022 4141 1434 
Q 4141 663 3683 286 
Q 3225 -91 2284 -91 
Q 1841 -91 1394 -6 
Q 947 78 500 244 
L 500 1259 
Q 947 1022 1364 901 
Q 1781 781 2169 781 
Q 2563 781 2772 912 
Q 2981 1044 2981 1288 
Q 2981 1506 2839 1625 
Q 2697 1744 2272 1838 
L 1806 1941 
Q 1106 2091 782 2419 
Q 459 2747 459 3303 
Q 459 4000 909 4375 
Q 1359 4750 2203 4750 
Q 2588 4750 2994 4692 
Q 3400 4634 3834 4519 
z
" transform="scale(0.015625)"/>
      <path id="DejaVuSans-Bold-68" d="M 4056 2131 
L 4056 0 
L 2931 0 
L 2931 347 
L 2931 1625 
Q 2931 2084 2911 2256 
Q 2891 2428 2841 2509 
Q 2775 2619 2662 2680 
Q 2550 2741 2406 2741 
Q 2056 2741 1856 2470 
Q 1656 2200 1656 1722 
L 1656 0 
L 538 0 
L 538 4863 
L 1656 4863 
L 1656 2988 
Q 1909 3294 2193 3439 
Q 2478 3584 2822 3584 
Q 3428 3584 3742 3212 
Q 4056 2841 4056 2131 
z
" transform="scale(0.015625)"/>
     </defs>
     <use xlink:href="#DejaVuSans-Bold-53"/>
     <use xlink:href="#DejaVuSans-Bold-65" x="72.021484"/>
     <use xlink:href="#DejaVuSans-Bold-61" x="139.84375"/>
     <use xlink:href="#DejaVuSans-Bold-72" x="207.324219"/>
     <use xlink:href="#DejaVuSans-Bold-63" x="256.640625"/>
     <use xlink:href="#DejaVuSans-Bold-68" x="315.917969"/>
    </g>
   </g>
   <g id="text_14">
    <!-- FAISS nearest- -->
    <g style="fill: #6b7280" transform="translate(365.301538 137.142469) scale(0.08 -0.08)">
     <defs>
      <path id="DejaVuSans-49" d="M 628 4666 
L 1259 4666 
L 1259 0 
L 628 0 
L 628 4666 
z
" transform="scale(0.015625)"/>
      <path id="DejaVuSans-53" d="M 3425 4513 
L 3425 3897 
Q 3066 4069 2747 4153 
Q 2428 4238 2131 4238 
Q 1616 4238 1336 4038 
Q 1056 3838 1056 3469 
Q 1056 3159 1242 3001 
Q 1428 2844 1947 2747 
L 2328 2669 
Q 3034 2534 3370 2195 
Q 3706 1856 3706 1288 
Q 3706 609 3251 259 
Q 2797 -91 1919 -91 
Q 1588 -91 1214 -16 
Q 841 59 441 206 
L 441 856 
Q 825 641 1194 531 
Q 1563 422 1919 422 
Q 2459 422 2753 634 
Q 3047 847 3047 1241 
Q 3047 1584 2836 1778 
Q 2625 1972 2144 2069 
L 1759 2144 
Q 1053 2284 737 2584 
Q 422 2884 422 3419 
Q 422 4038 858 4394 
Q 1294 4750 2059 4750 
Q 2388 4750 2728 4690 
Q 3069 4631 3425 4513 
z
" transform="scale(0.015625)"/>
     </defs>
     <use xlink:href="#DejaVuSans-46"/>
     <use xlink:href="#DejaVuSans-41" x="48.394531"/>
     <use xlink:href="#DejaVuSans-49" x="116.802734"/>
     <use xlink:href="#DejaVuSans-53" x="146.294922"/>
     <use xlink:href="#DejaVuSans-53" x="209.771484"/>
     <use xlink:href="#DejaVuSans-20" x="273.248047"/>
     <use xlink:href="#DejaVuSans-6e" x="305.035156"/>
     <use xlink:href="#DejaVuSans-65" x="368.414062"/>
     <use xlink:href="#DejaVuSans-61" x="429.9375"/>
     <use xlink:href="#DejaVuSans-72" x="491.216797"/>
     <use xlink:href="#DejaVuSans-65" x="530.080078"/>
     <use xlink:href="#DejaVuSans-73" x="591.603516"/>
     <use xlink:href="#DejaVuSans-74" x="643.703125"/>
     <use xlink:href="#DejaVuSans-2d" x="682.912109"/>
    </g>
    <!-- neighbor search -->
    <g style="fill: #6b7280" transform="translate(361.692163 147.316469) scale(0.08 -0.08)">
     <use xlink:href="#DejaVuSans-6e"/>
     <use xlink:href="#DejaVuSans-65" x="63.378906"/>
     <use xlink:href="#DejaVuSans-69" x="124.902344"/>
     <use xlink:href="#DejaVuSans-67" x="152.685547"/>
     <use xlink:href="#DejaVuSans-68" x="216.162109"/>
     <use xlink:href="#DejaVuSans-62" x="279.541016"/>
     <use xlink:href="#DejaVuSans-6f" x="343.017578"/>
     <use xlink:href="#DejaVuSans-72" x="404.199219"/>
     <use xlink:href="#DejaVuSans-20" x="445.3125"/>
     <use xlink:href="#DejaVuSans-73" x="477.099609"/>
     <use xlink:href="#DejaVuSans-65" x="529.199219"/>
     <use xlink:href="#DejaVuSans-61" x="590.722656"/>
     <use xlink:href="#DejaVuSans-72" x="652.001953"/>
     <use xlink:href="#DejaVuSans-63" x="690.865234"/>
     <use xlink:href="#DejaVuSans-68" x="745.845703"/>
    </g>
    <!-- in index -->
    <g style="fill: #6b7280" transform="translate(378.199663 157.490469) scale(0.08 -0.08)">
     <defs>
      <path id="DejaVuSans-78" d="M 3513 3500 
L 2247 1797 
L 3578 0 
L 2900 0 
L 1881 1375 
L 863 0 
L 184 0 
L 1544 1831 
L 300 3500 
L 978 3500 
L 1906 2253 
L 2834 3500 
L 3513 3500 
z
" transform="scale(0.015625)"/>
     </defs>
     <use xlink:href="#DejaVuSans-69"/>
     <use xlink:href="#DejaVuSans-6e" x="27.783203"/>
     <use xlink:href="#DejaVuSans-20" x="91.162109"/>
     <use xlink:href="#DejaVuSans-69" x="122.949219"/>
     <use xlink:href="#DejaVuSans-6e" x="150.732422"/>
     <use xlink:href="#DejaVuSans-64" x="214.111328"/>
     <use xlink:href="#DejaVuSans-65" x="277.587891"/>
     <use xlink:href="#DejaVuSans-78" x="337.361328"/>
    </g>
   </g>
   <g id="text_15">
    <!-- Retrieved -->
    <g style="fill: #1f2937" transform="translate(522.745724 98.605414) scale(0.095 -0.095)">
     <use xlink:href="#DejaVuSans-Bold-52"/>
     <use xlink:href="#DejaVuSans-Bold-65" x="77.001953"/>
     <use xlink:href="#DejaVuSans-Bold-74" x="144.824219"/>
     <use xlink:href="#DejaVuSans-Bold-72" x="192.626953"/>
     <use xlink:href="#DejaVuSans-Bold-69" x="241.943359"/>
     <use xlink:href="#DejaVuSans-Bold-65" x="276.220703"/>
     <use xlink:href="#DejaVuSans-Bold-76" x="344.042969"/>
     <use xlink:href="#DejaVuSans-Bold-65" x="409.228516"/>
     <use xlink:href="#DejaVuSans-Bold-64" x="477.050781"/>
    </g>
    <!-- Docs -->
    <g style="fill: #1f2937" transform="translate(535.956662 109.243336) scale(0.095 -0.095)">
     <defs>
      <path id="DejaVuSans-Bold-44" d="M 1791 3756 
L 1791 909 
L 2222 909 
Q 2959 909 3348 1275 
Q 3738 1641 3738 2338 
Q 3738 3031 3350 3393 
Q 2963 3756 2222 3756 
L 1791 3756 
z
M 588 4666 
L 1856 4666 
Q 2919 4666 3439 4514 
Q 3959 4363 4331 4000 
Q 4659 3684 4818 3271 
Q 4978 2859 4978 2338 
Q 4978 1809 4818 1395 
Q 4659 981 4331 666 
Q 3956 303 3431 151 
Q 2906 0 1856 0 
L 588 0 
L 588 4666 
z
" transform="scale(0.015625)"/>
     </defs>
     <use xlink:href="#DejaVuSans-Bold-44"/>
     <use xlink:href="#DejaVuSans-Bold-6f" x="83.007812"/>
     <use xlink:href="#DejaVuSans-Bold-63" x="151.708984"/>
     <use xlink:href="#DejaVuSans-Bold-73" x="210.986328"/>
    </g>
   </g>
   <g id="text_16">
    <!-- Top-k most -->
    <g style="fill: #6b7280" transform="translate(527.029904 137.142469) scale(0.08 -0.08)">
     <defs>
      <path id="DejaVuSans-54" d="M -19 4666 
L 3928 4666 
L 3928 4134 
L 2272 4134 
L 2272 0 
L 1638 0 
L 1638 4134 
L -19 4134 
L -19 4666 
z
" transform="scale(0.015625)"/>
      <path id="DejaVuSans-70" d="M 1159 525 
L 1159 -1331 
L 581 -1331 
L 581 3500 
L 1159 3500 
L 1159 2969 
Q 1341 3281 1617 3432 
Q 1894 3584 2278 3584 
Q 2916 3584 3314 3078 
Q 3713 2572 3713 1747 
Q 3713 922 3314 415 
Q 2916 -91 2278 -91 
Q 1894 -91 1617 61 
Q 1341 213 1159 525 
z
M 3116 1747 
Q 3116 2381 2855 2742 
Q 2594 3103 2138 3103 
Q 1681 3103 1420 2742 
Q 1159 2381 1159 1747 
Q 1159 1113 1420 752 
Q 1681 391 2138 391 
Q 2594 391 2855 752 
Q 3116 1113 3116 1747 
z
" transform="scale(0.015625)"/>
     </defs>
     <use xlink:href="#DejaVuSans-54"/>
     <use xlink:href="#DejaVuSans-6f" x="44.083984"/>
     <use xlink:href="#DejaVuSans-70" x="105.265625"/>
     <use xlink:href="#DejaVuSans-2d" x="168.742188"/>
     <use xlink:href="#DejaVuSans-6b" x="204.826172"/>
     <use xlink:href="#DejaVuSans-20" x="262.736328"/>
     <use xlink:href="#DejaVuSans-6d" x="294.523438"/>
     <use xlink:href="#DejaVuSans-6f" x="391.935547"/>
     <use xlink:href="#DejaVuSans-73" x="453.117188"/>
     <use xlink:href="#DejaVuSans-74" x="505.216797"/>
    </g>
    <!-- relevant -->
    <g style="fill: #6b7280" transform="translate(532.296154 147.316469) scale(0.08 -0.08)">
     <use xlink:href="#DejaVuSans-72"/>
     <use xlink:href="#DejaVuSans-65" x="38.863281"/>
     <use xlink:href="#DejaVuSans-6c" x="100.386719"/>
     <use xlink:href="#DejaVuSans-65" x="128.169922"/>
     <use xlink:href="#DejaVuSans-76" x="189.693359"/>
     <use xlink:href="#DejaVuSans-61" x="248.873047"/>
     <use xlink:href="#DejaVuSans-6e" x="310.152344"/>
     <use xlink:href="#DejaVuSans-74" x="373.53125"/>
    </g>
    <!-- documents -->
    <g style="fill: #6b7280" transform="translate(526.540529 157.490469) scale(0.08 -0.08)">
     <defs>
      <path id="DejaVuSans-75" d="M 544 1381 
L 544 3500 
L 1119 3500 
L 1119 1403 
Q 1119 906 1312 657 
Q 1506 409 1894 409 
Q 2359 409 2629 706 
Q 2900 1003 2900 1516 
L 2900 3500 
L 3475 3500 
L 3475 0 
L 2900 0 
L 2900 538 
Q 2691 219 2414 64 
Q 2138 -91 1772 -91 
Q 1169 -91 856 284 
Q 544 659 544 1381 
z
M 1991 3584 
L 1991 3584 
z
" transform="scale(0.015625)"/>
     </defs>
     <use xlink:href="#DejaVuSans-64"/>
     <use xlink:href="#DejaVuSans-6f" x="63.476562"/>
     <use xlink:href="#DejaVuSans-63" x="124.658203"/>
     <use xlink:href="#DejaVuSans-75" x="179.638672"/>
     <use xlink:href="#DejaVuSans-6d" x="243.017578"/>
     <use xlink:href="#DejaVuSans-65" x="340.429688"/>
     <use xlink:href="#DejaVuSans-6e" x="401.953125"/>
     <use xlink:href="#DejaVuSans-74" x="465.332031"/>
     <use xlink:href="#DejaVuSans-73" x="504.541016"/>
    </g>
   </g>
   <g id="text_17">
    <!-- Augmented -->
    <g style="fill: #1f2937" transform="translate(672.648308 98.568305) scale(0.095 -0.095)">
     <use xlink:href="#DejaVuSans-Bold-41"/>
     <use xlink:href="#DejaVuSans-Bold-75" x="77.392578"/>
     <use xlink:href="#DejaVuSans-Bold-67" x="148.583984"/>
     <use xlink:href="#DejaVuSans-Bold-6d" x="220.166016"/>
     <use xlink:href="#DejaVuSans-Bold-65" x="324.365234"/>
     <use xlink:href="#DejaVuSans-Bold-6e" x="392.1875"/>
     <use xlink:href="#DejaVuSans-Bold-74" x="463.378906"/>
     <use xlink:href="#DejaVuSans-Bold-65" x="511.181641"/>
     <use xlink:href="#DejaVuSans-Bold-64" x="579.003906"/>
    </g>
    <!-- Prompt -->
    <g style="fill: #1f2937" transform="translate(683.843465 109.280445) scale(0.095 -0.095)">
     <defs>
      <path id="DejaVuSans-Bold-50" d="M 588 4666 
L 2584 4666 
Q 3475 4666 3951 4270 
Q 4428 3875 4428 3144 
Q 4428 2409 3951 2014 
Q 3475 1619 2584 1619 
L 1791 1619 
L 1791 0 
L 588 0 
L 588 4666 
z
M 1791 3794 
L 1791 2491 
L 2456 2491 
Q 2806 2491 2997 2661 
Q 3188 2831 3188 3144 
Q 3188 3456 2997 3625 
Q 2806 3794 2456 3794 
L 1791 3794 
z
" transform="scale(0.015625)"/>
      <path id="DejaVuSans-Bold-70" d="M 1656 506 
L 1656 -1331 
L 538 -1331 
L 538 3500 
L 1656 3500 
L 1656 2988 
Q 1888 3294 2169 3439 
Q 2450 3584 2816 3584 
Q 3463 3584 3878 3070 
Q 4294 2556 4294 1747 
Q 4294 938 3878 423 
Q 3463 -91 2816 -91 
Q 2450 -91 2169 54 
Q 1888 200 1656 506 
z
M 2400 2772 
Q 2041 2772 1848 2508 
Q 1656 2244 1656 1747 
Q 1656 1250 1848 986 
Q 2041 722 2400 722 
Q 2759 722 2948 984 
Q 3138 1247 3138 1747 
Q 3138 2247 2948 2509 
Q 2759 2772 2400 2772 
z
" transform="scale(0.015625)"/>
     </defs>
     <use xlink:href="#DejaVuSans-Bold-50"/>
     <use xlink:href="#DejaVuSans-Bold-72" x="73.291016"/>
     <use xlink:href="#DejaVuSans-Bold-6f" x="122.607422"/>
     <use xlink:href="#DejaVuSans-Bold-6d" x="191.308594"/>
     <use xlink:href="#DejaVuSans-Bold-70" x="295.507812"/>
     <use xlink:href="#DejaVuSans-Bold-74" x="367.089844"/>
    </g>
   </g>
   <g id="text_18">
    <!-- Question + -->
    <g style="fill: #6b7280" transform="translate(681.037019 137.142469) scale(0.08 -0.08)">
     <defs>
      <path id="DejaVuSans-51" d="M 2522 4238 
Q 1834 4238 1429 3725 
Q 1025 3213 1025 2328 
Q 1025 1447 1429 934 
Q 1834 422 2522 422 
Q 3209 422 3611 934 
Q 4013 1447 4013 2328 
Q 4013 3213 3611 3725 
Q 3209 4238 2522 4238 
z
M 3406 84 
L 4238 -825 
L 3475 -825 
L 2784 -78 
Q 2681 -84 2626 -87 
Q 2572 -91 2522 -91 
Q 1538 -91 948 567 
Q 359 1225 359 2328 
Q 359 3434 948 4092 
Q 1538 4750 2522 4750 
Q 3503 4750 4090 4092 
Q 4678 3434 4678 2328 
Q 4678 1516 4351 937 
Q 4025 359 3406 84 
z
" transform="scale(0.015625)"/>
      <path id="DejaVuSans-2b" d="M 2944 4013 
L 2944 2272 
L 4684 2272 
L 4684 1741 
L 2944 1741 
L 2944 0 
L 2419 0 
L 2419 1741 
L 678 1741 
L 678 2272 
L 2419 2272 
L 2419 4013 
L 2944 4013 
z
" transform="scale(0.015625)"/>
     </defs>
     <use xlink:href="#DejaVuSans-51"/>
     <use xlink:href="#DejaVuSans-75" x="78.710938"/>
     <use xlink:href="#DejaVuSans-65" x="142.089844"/>
     <use xlink:href="#DejaVuSans-73" x="203.613281"/>
     <use xlink:href="#DejaVuSans-74" x="255.712891"/>
     <use xlink:href="#DejaVuSans-69" x="294.921875"/>
     <use xlink:href="#DejaVuSans-6f" x="322.705078"/>
     <use xlink:href="#DejaVuSans-6e" x="383.886719"/>
     <use xlink:href="#DejaVuSans-20" x="447.265625"/>
     <use xlink:href="#DejaVuSans-2b" x="479.052734"/>
    </g>
    <!-- docs → LLM -->
    <g style="fill: #6b7280" transform="translate(680.477644 147.316469) scale(0.08 -0.08)">
     <defs>
      <path id="DejaVuSans-4c" d="M 628 4666 
L 1259 4666 
L 1259 531 
L 3531 531 
L 3531 0 
L 628 0 
L 628 4666 
z
" transform="scale(0.015625)"/>
      <path id="DejaVuSans-4d" d="M 628 4666 
L 1569 4666 
L 2759 1491 
L 3956 4666 
L 4897 4666 
L 4897 0 
L 4281 0 
L 4281 4097 
L 3078 897 
L 2444 897 
L 1241 4097 
L 1241 0 
L 628 0 
L 628 4666 
z
" transform="scale(0.015625)"/>
     </defs>
     <use xlink:href="#DejaVuSans-64"/>
     <use xlink:href="#DejaVuSans-6f" x="63.476562"/>
     <use xlink:href="#DejaVuSans-63" x="124.658203"/>
     <use xlink:href="#DejaVuSans-73" x="179.638672"/>
     <use xlink:href="#DejaVuSans-20" x="231.738281"/>
     <use xlink:href="#DejaVuSans-2192" x="263.525391"/>
     <use xlink:href="#DejaVuSans-20" x="347.314453"/>
     <use xlink:href="#DejaVuSans-4c" x="379.101562"/>
     <use xlink:href="#DejaVuSans-4c" x="434.814453"/>
     <use xlink:href="#DejaVuSans-4d" x="490.527344"/>
    </g>
    <!-- prompt -->
    <g style="fill: #6b7280" transform="translate(689.005769 157.490469) scale(0.08 -0.08)">
     <use xlink:href="#DejaVuSans-70"/>
     <use xlink:href="#DejaVuSans-72" x="63.476562"/>
     <use xlink:href="#DejaVuSans-6f" x="102.339844"/>
     <use xlink:href="#DejaVuSans-6d" x="163.521484"/>
     <use xlink:href="#DejaVuSans-70" x="260.933594"/>
     <use xlink:href="#DejaVuSans-74" x="324.410156"/>
    </g>
   </g>
   <g id="text_19">
    <!-- Grounded -->
    <g style="fill: #1f2937" transform="translate(832.006361 98.605414) scale(0.095 -0.095)">
     <use xlink:href="#DejaVuSans-Bold-47"/>
     <use xlink:href="#DejaVuSans-Bold-72" x="82.080078"/>
     <use xlink:href="#DejaVuSans-Bold-6f" x="131.396484"/>
     <use xlink:href="#DejaVuSans-Bold-75" x="200.097656"/>
     <use xlink:href="#DejaVuSans-Bold-6e" x="271.289062"/>
     <use xlink:href="#DejaVuSans-Bold-64" x="342.480469"/>
     <use xlink:href="#DejaVuSans-Bold-65" x="414.0625"/>
     <use xlink:href="#DejaVuSans-Bold-64" x="481.884766"/>
    </g>
    <!-- Answer -->
    <g style="fill: #1f2937" transform="translate(838.458197 109.243336) scale(0.095 -0.095)">
     <defs>
      <path id="DejaVuSans-Bold-77" d="M 225 3500 
L 1313 3500 
L 1900 1088 
L 2491 3500 
L 3425 3500 
L 4013 1113 
L 4603 3500 
L 5691 3500 
L 4769 0 
L 3547 0 
L 2956 2406 
L 2369 0 
L 1147 0 
L 225 3500 
z
" transform="scale(0.015625)"/>
     </defs>
     <use xlink:href="#DejaVuSans-Bold-41"/>
     <use xlink:href="#DejaVuSans-Bold-6e" x="77.392578"/>
     <use xlink:href="#DejaVuSans-Bold-73" x="148.583984"/>
     <use xlink:href="#DejaVuSans-Bold-77" x="208.105469"/>
     <use xlink:href="#DejaVuSans-Bold-65" x="300.488281"/>
     <use xlink:href="#DejaVuSans-Bold-72" x="368.310547"/>
    </g>
   </g>
   <g id="text_20">
    <!-- Factual answer -->
    <g style="fill: #6b7280" transform="translate(828.325385 137.142469) scale(0.08 -0.08)">
     <use xlink:href="#DejaVuSans-46"/>
     <use xlink:href="#DejaVuSans-61" x="48.394531"/>
     <use xlink:href="#DejaVuSans-63" x="109.673828"/>
     <use xlink:href="#DejaVuSans-74" x="164.654297"/>
     <use xlink:href="#DejaVuSans-75" x="203.863281"/>
     <use xlink:href="#DejaVuSans-61" x="267.242188"/>
     <use xlink:href="#DejaVuSans-6c" x="328.521484"/>
     <use xlink:href="#DejaVuSans-20" x="356.304688"/>
     <use xlink:href="#DejaVuSans-61" x="388.091797"/>
     <use xlink:href="#DejaVuSans-6e" x="449.371094"/>
     <use xlink:href="#DejaVuSans-73" x="512.75"/>
     <use xlink:href="#DejaVuSans-77" x="564.849609"/>
     <use xlink:href="#DejaVuSans-65" x="646.636719"/>
     <use xlink:href="#DejaVuSans-72" x="708.160156"/>
    </g>
    <!-- based on -->
    <g style="fill: #6b7280" transform="translate(839.966635 147.316469) scale(0.08 -0.08)">
     <use xlink:href="#DejaVuSans-62"/>
     <use xlink:href="#DejaVuSans-61" x="63.476562"/>
     <use xlink:href="#DejaVuSans-73" x="124.755859"/>
     <use xlink:href="#DejaVuSans-65" x="176.855469"/>
     <use xlink:href="#DejaVuSans-64" x="238.378906"/>
     <use xlink:href="#DejaVuSans-20" x="301.855469"/>
     <use xlink:href="#DejaVuSans-6f" x="333.642578"/>
     <use xlink:href="#DejaVuSans-6e" x="394.824219"/>
    </g>
    <!-- documents -->
    <g style="fill: #6b7280" transform="translate(836.02976 157.490469) scale(0.08 -0.08)">
     <use xlink:href="#DejaVuSans-64"/>
     <use xlink:href="#DejaVuSans-6f" x="63.476562"/>
     <use xlink:href="#DejaVuSans-63" x="124.658203"/>
     <use xlink:href="#DejaVuSans-75" x="179.638672"/>
     <use xlink:href="#DejaVuSans-6d" x="243.017578"/>
     <use xlink:href="#DejaVuSans-65" x="340.429688"/>
     <use xlink:href="#DejaVuSans-6e" x="401.953125"/>
     <use xlink:href="#DejaVuSans-74" x="465.332031"/>
     <use xlink:href="#DejaVuSans-73" x="504.541016"/>
    </g>
   </g>
  </g>
 </g>
 <defs>
  <clipPath id="p6f9b554e02">
   <rect x="7.2" y="23.077969" width="914.4" height="250.32"/>
  </clipPath>
 </defs>
</svg>
