<?xml version="1.0" encoding="utf-8" standalone="no"?>
<!DOCTYPE svg PUBLIC "-//W3C//DTD SVG 1.1//EN"
  "http://www.w3.org/Graphics/SVG/1.1/DTD/svg11.dtd">
<svg xmlns:xlink="http://www.w3.org/1999/xlink" width="780.179686pt" height="223.037813pt" viewBox="0 0 780.179686 223.037813" xmlns="http://www.w3.org/2000/svg" version="1.1">
 <metadata>
  <rdf:RDF xmlns:dc="http://purl.org/dc/elements/1.1/" xmlns:cc="http://creativecommons.org/ns#" xmlns:rdf="http://www.w3.org/1999/02/22-rdf-syntax-ns#">
   <cc:Work>
    <dc:type rdf:resource="http://purl.org/dc/dcmitype/StillImage"/>
    <dc:date>2026-04-16T23:42:31.582753</dc:date>
    <dc:format>image/svg+xml</dc:format>
    <dc:creator>
     <cc:Agent>
      <dc:title>Matplotlib v3.8.0, https://matplotlib.org/</dc:title>
     </cc:Agent>
    </dc:creator>
   </cc:Work>
  </rdf:RDF>
 </metadata>
 <defs>
  <style type="text/css">*{stroke-linejoin: round; stroke-linecap: butt}</style>
 </defs>
 <g id="figure_1">
  <g id="patch_1">
   <path d="M 0 223.037813 
L 780.179686 223.037813 
L 780.179686 0 
L 0 0 
z
" style="fill: #ffffff"/>
  </g>
  <g id="axes_1">
   <g id="text_1">
    <!-- Raw text -->
    <g style="fill: #6b7280" transform="translate(27.27125 55.525313) scale(0.09 -0.09)">
     <defs>
      <path id="DejaVuSans-52" d="M 2841 2188 
Q 3044 2119 3236 1894 
Q 3428 1669 3622 1275 
L 4263 0 
L 3584 0 
L 2988 1197 
Q 2756 1666 2539 1819 
Q 2322 1972 1947 1972 
L 1259 1972 
L 1259 0 
L 628 0 
L 628 4666 
L 2053 4666 
Q 2853 4666 3247 4331 
Q 3641 3997 3641 3322 
Q 3641 2881 3436 2590 
Q 3231 2300 2841 2188 
z
M 1259 4147 
L 1259 2491 
L 2053 2491 
Q 2509 2491 2742 2702 
Q 2975 2913 2975 3322 
Q 2975 3731 2742 3939 
Q 2509 4147 2053 4147 
L 1259 4147 
z
" transform="scale(0.015625)"/>
      <path id="DejaVuSans-61" d="M 2194 1759 
Q 1497 1759 1228 1600 
Q 959 1441 959 1056 
Q 959 750 1161 570 
Q 1363 391 1709 391 
Q 2188 391 2477 730 
Q 2766 1069 2766 1631 
L 2766 1759 
L 2194 1759 
z
M 3341 1997 
L 3341 0 
L 2766 0 
L 2766 531 
Q 2569 213 2275 61 
Q 1981 -91 1556 -91 
Q 1019 -91 701 211 
Q 384 513 384 1019 
Q 384 1609 779 1909 
Q 1175 2209 1959 2209 
L 2766 2209 
L 2766 2266 
Q 2766 2663 2505 2880 
Q 2244 3097 1772 3097 
Q 1472 3097 1187 3025 
Q 903 2953 641 2809 
L 641 3341 
Q 956 3463 1253 3523 
Q 1550 3584 1831 3584 
Q 2591 3584 2966 3190 
Q 3341 2797 3341 1997 
z
" transform="scale(0.015625)"/>
      <path id="DejaVuSans-77" d="M 269 3500 
L 844 3500 
L 1563 769 
L 2278 3500 
L 2956 3500 
L 3675 769 
L 4391 3500 
L 4966 3500 
L 4050 0 
L 3372 0 
L 2619 2869 
L 1863 0 
L 1184 0 
L 269 3500 
z
" transform="scale(0.015625)"/>
      <path id="DejaVuSans-20" transform="scale(0.015625)"/>
      <path id="DejaVuSans-74" d="M 1172 4494 
L 1172 3500 
L 2356 3500 
L 2356 3053 
L 1172 3053 
L 1172 1153 
Q 1172 725 1289 603 
Q 1406 481 1766 481 
L 2356 481 
L 2356 0 
L 1766 0 
Q 1100 0 847 248 
Q 594 497 594 1153 
L 594 3053 
L 172 3053 
L 172 3500 
L 594 3500 
L 594 4494 
L 1172 4494 
z
" transform="scale(0.015625)"/>
      <path id="DejaVuSans-65" d="M 3597 1894 
L 3597 1613 
L 953 1613 
Q 991 1019 1311 708 
Q 1631 397 2203 397 
Q 2534 397 2845 478 
Q 3156 559 3463 722 
L 3463 178 
Q 3153 47 2828 -22 
Q 2503 -91 2169 -91 
Q 1331 -91 842 396 
Q 353 884 353 1716 
Q 353 2575 817 3079 
Q 1281 3584 2069 3584 
Q 2775 3584 3186 3129 
Q 3597 2675 3597 1894 
z
M 3022 2063 
Q 3016 2534 2758 2815 
Q 2500 3097 2075 3097 
Q 1594 3097 1305 2825 
Q 1016 2553 972 2059 
L 3022 2063 
z
" transform="scale(0.015625)"/>
      <path id="DejaVuSans-78" d="M 3513 3500 
L 2247 1797 
L 3578 0 
L 2900 0 
L 1881 1375 
L 863 0 
L 184 0 
L 1544 1831 
L 300 3500 
L 978 3500 
L 1906 2253 
L 2834 3500 
L 3513 3500 
z
" transform="scale(0.015625)"/>
     </defs>
     <use xlink:href="#DejaVuSans-52"/>
     <use xlink:href="#DejaVuSans-61" x="67.232422"/>
     <use xlink:href="#DejaVuSans-77" x="128.511719"/>
     <use xlink:href="#DejaVuSans-20" x="210.298828"/>
     <use xlink:href="#DejaVuSans-74" x="242.085938"/>
     <use xlink:href="#DejaVuSans-65" x="281.294922"/>
     <use xlink:href="#DejaVuSans-78" x="341.068359"/>
     <use xlink:href="#DejaVuSans-74" x="400.248047"/>
    </g>
   </g>
   <g id="text_2">
    <g id="patch_2">
     <path d="M 7.2 90.800469 
L 86.893281 90.800469 
Q 90.193281 90.800469 90.193281 87.500469 
L 90.193281 76.854531 
Q 90.193281 73.554531 86.893281 73.554531 
L 7.2 73.554531 
Q 3.9 73.554531 3.9 76.854531 
L 3.9 87.500469 
Q 3.9 90.800469 7.2 90.800469 
z
" style="fill: #f3f4f6; stroke: #6b7280; stroke-linejoin: miter"/>
    </g>
    <!-- "Hello, world!" -->
    <g style="fill: #1f2937" transform="translate(7.2 85.212813) scale(0.11 -0.11)">
     <defs>
      <path id="DejaVuSans-22" d="M 1147 4666 
L 1147 2931 
L 616 2931 
L 616 4666 
L 1147 4666 
z
M 2328 4666 
L 2328 2931 
L 1797 2931 
L 1797 4666 
L 2328 4666 
z
" transform="scale(0.015625)"/>
      <path id="DejaVuSans-48" d="M 628 4666 
L 1259 4666 
L 1259 2753 
L 3553 2753 
L 3553 4666 
L 4184 4666 
L 4184 0 
L 3553 0 
L 3553 2222 
L 1259 2222 
L 1259 0 
L 628 0 
L 628 4666 
z
" transform="scale(0.015625)"/>
      <path id="DejaVuSans-6c" d="M 603 4863 
L 1178 4863 
L 1178 0 
L 603 0 
L 603 4863 
z
" transform="scale(0.015625)"/>
      <path id="DejaVuSans-6f" d="M 1959 3097 
Q 1497 3097 1228 2736 
Q 959 2375 959 1747 
Q 959 1119 1226 758 
Q 1494 397 1959 397 
Q 2419 397 2687 759 
Q 2956 1122 2956 1747 
Q 2956 2369 2687 2733 
Q 2419 3097 1959 3097 
z
M 1959 3584 
Q 2709 3584 3137 3096 
Q 3566 2609 3566 1747 
Q 3566 888 3137 398 
Q 2709 -91 1959 -91 
Q 1206 -91 779 398 
Q 353 888 353 1747 
Q 353 2609 779 3096 
Q 1206 3584 1959 3584 
z
" transform="scale(0.015625)"/>
      <path id="DejaVuSans-2c" d="M 750 794 
L 1409 794 
L 1409 256 
L 897 -744 
L 494 -744 
L 750 256 
L 750 794 
z
" transform="scale(0.015625)"/>
      <path id="DejaVuSans-72" d="M 2631 2963 
Q 2534 3019 2420 3045 
Q 2306 3072 2169 3072 
Q 1681 3072 1420 2755 
Q 1159 2438 1159 1844 
L 1159 0 
L 581 0 
L 581 3500 
L 1159 3500 
L 1159 2956 
Q 1341 3275 1631 3429 
Q 1922 3584 2338 3584 
Q 2397 3584 2469 3576 
Q 2541 3569 2628 3553 
L 2631 2963 
z
" transform="scale(0.015625)"/>
      <path id="DejaVuSans-64" d="M 2906 2969 
L 2906 4863 
L 3481 4863 
L 3481 0 
L 2906 0 
L 2906 525 
Q 2725 213 2448 61 
Q 2172 -91 1784 -91 
Q 1150 -91 751 415 
Q 353 922 353 1747 
Q 353 2572 751 3078 
Q 1150 3584 1784 3584 
Q 2172 3584 2448 3432 
Q 2725 3281 2906 2969 
z
M 947 1747 
Q 947 1113 1208 752 
Q 1469 391 1925 391 
Q 2381 391 2643 752 
Q 2906 1113 2906 1747 
Q 2906 2381 2643 2742 
Q 2381 3103 1925 3103 
Q 1469 3103 1208 2742 
Q 947 2381 947 1747 
z
" transform="scale(0.015625)"/>
      <path id="DejaVuSans-21" d="M 966 794 
L 1600 794 
L 1600 0 
L 966 0 
L 966 794 
z
M 966 4666 
L 1600 4666 
L 1600 2619 
L 1538 1503 
L 1031 1503 
L 966 2619 
L 966 4666 
z
" transform="scale(0.015625)"/>
     </defs>
     <use xlink:href="#DejaVuSans-22"/>
     <use xlink:href="#DejaVuSans-48" x="45.996094"/>
     <use xlink:href="#DejaVuSans-65" x="121.191406"/>
     <use xlink:href="#DejaVuSans-6c" x="182.714844"/>
     <use xlink:href="#DejaVuSans-6c" x="210.498047"/>
     <use xlink:href="#DejaVuSans-6f" x="238.28125"/>
     <use xlink:href="#DejaVuSans-2c" x="299.462891"/>
     <use xlink:href="#DejaVuSans-20" x="331.25"/>
     <use xlink:href="#DejaVuSans-77" x="363.037109"/>
     <use xlink:href="#DejaVuSans-6f" x="444.824219"/>
     <use xlink:href="#DejaVuSans-72" x="506.005859"/>
     <use xlink:href="#DejaVuSans-6c" x="547.119141"/>
     <use xlink:href="#DejaVuSans-64" x="574.902344"/>
     <use xlink:href="#DejaVuSans-21" x="638.378906"/>
     <use xlink:href="#DejaVuSans-22" x="678.466797"/>
    </g>
   </g>
   <g id="patch_3">
    <path d="M 100.168969 85.212813 
Q 125.435196 85.212813 149.024373 85.212813 
" style="fill: none; stroke: #374151; stroke-width: 1.5; stroke-linecap: round"/>
    <path d="M 145.824373 83.612813 
L 149.024373 85.212813 
L 145.824373 86.812813 
z
" style="fill: #374151; stroke: #374151; stroke-width: 1.5; stroke-linecap: round"/>
   </g>
   <g id="text_3">
    <!-- Tokenizer -->
    <g style="fill: #6b7280" transform="translate(106.739402 70.369063) scale(0.08 -0.08)">
     <defs>
      <path id="DejaVuSans-54" d="M -19 4666 
L 3928 4666 
L 3928 4134 
L 2272 4134 
L 2272 0 
L 1638 0 
L 1638 4134 
L -19 4134 
L -19 4666 
z
" transform="scale(0.015625)"/>
      <path id="DejaVuSans-6b" d="M 581 4863 
L 1159 4863 
L 1159 1991 
L 2875 3500 
L 3609 3500 
L 1753 1863 
L 3688 0 
L 2938 0 
L 1159 1709 
L 1159 0 
L 581 0 
L 581 4863 
z
" transform="scale(0.015625)"/>
      <path id="DejaVuSans-6e" d="M 3513 2113 
L 3513 0 
L 2938 0 
L 2938 2094 
Q 2938 2591 2744 2837 
Q 2550 3084 2163 3084 
Q 1697 3084 1428 2787 
Q 1159 2491 1159 1978 
L 1159 0 
L 581 0 
L 581 3500 
L 1159 3500 
L 1159 2956 
Q 1366 3272 1645 3428 
Q 1925 3584 2291 3584 
Q 2894 3584 3203 3211 
Q 3513 2838 3513 2113 
z
" transform="scale(0.015625)"/>
      <path id="DejaVuSans-69" d="M 603 3500 
L 1178 3500 
L 1178 0 
L 603 0 
L 603 3500 
z
M 603 4863 
L 1178 4863 
L 1178 4134 
L 603 4134 
L 603 4863 
z
" transform="scale(0.015625)"/>
      <path id="DejaVuSans-7a" d="M 353 3500 
L 3084 3500 
L 3084 2975 
L 922 459 
L 3084 459 
L 3084 0 
L 275 0 
L 275 525 
L 2438 3041 
L 353 3041 
L 353 3500 
z
" transform="scale(0.015625)"/>
     </defs>
     <use xlink:href="#DejaVuSans-54"/>
     <use xlink:href="#DejaVuSans-6f" x="44.083984"/>
     <use xlink:href="#DejaVuSans-6b" x="105.265625"/>
     <use xlink:href="#DejaVuSans-65" x="159.550781"/>
     <use xlink:href="#DejaVuSans-6e" x="221.074219"/>
     <use xlink:href="#DejaVuSans-69" x="284.453125"/>
     <use xlink:href="#DejaVuSans-7a" x="312.236328"/>
     <use xlink:href="#DejaVuSans-65" x="364.726562"/>
     <use xlink:href="#DejaVuSans-72" x="426.25"/>
    </g>
   </g>
   <g id="text_4">
    <!-- token 0 -->
    <g style="fill: #6b7280" transform="translate(152.269499 55.525313) scale(0.075 -0.075)">
     <defs>
      <path id="DejaVuSans-30" d="M 2034 4250 
Q 1547 4250 1301 3770 
Q 1056 3291 1056 2328 
Q 1056 1369 1301 889 
Q 1547 409 2034 409 
Q 2525 409 2770 889 
Q 3016 1369 3016 2328 
Q 3016 3291 2770 3770 
Q 2525 4250 2034 4250 
z
M 2034 4750 
Q 2819 4750 3233 4129 
Q 3647 3509 3647 2328 
Q 3647 1150 3233 529 
Q 2819 -91 2034 -91 
Q 1250 -91 836 529 
Q 422 1150 422 2328 
Q 422 3509 836 4129 
Q 1250 4750 2034 4750 
z
" transform="scale(0.015625)"/>
     </defs>
     <use xlink:href="#DejaVuSans-74"/>
     <use xlink:href="#DejaVuSans-6f" x="39.208984"/>
     <use xlink:href="#DejaVuSans-6b" x="100.390625"/>
     <use xlink:href="#DejaVuSans-65" x="154.675781"/>
     <use xlink:href="#DejaVuSans-6e" x="216.199219"/>
     <use xlink:href="#DejaVuSans-20" x="279.578125"/>
     <use xlink:href="#DejaVuSans-30" x="311.365234"/>
    </g>
   </g>
   <g id="text_5">
    <g id="patch_4">
     <path d="M 149.057195 89.7925 
L 183.605632 89.7925 
Q 186.105632 89.7925 186.105632 87.2925 
L 186.105632 77.614375 
Q 186.105632 75.114375 183.605632 75.114375 
L 149.057195 75.114375 
Q 146.557195 75.114375 146.557195 77.614375 
L 146.557195 87.2925 
Q 146.557195 89.7925 149.057195 89.7925 
z
" style="fill: #e0e7ff; stroke: #2563eb; stroke-width: 1.2; stroke-linejoin: miter"/>
    </g>
    <!-- "Hello" -->
    <g style="fill: #1f2937" transform="translate(149.057195 85.212813) scale(0.1 -0.1)">
     <use xlink:href="#DejaVuSans-22"/>
     <use xlink:href="#DejaVuSans-48" x="45.996094"/>
     <use xlink:href="#DejaVuSans-65" x="121.191406"/>
     <use xlink:href="#DejaVuSans-6c" x="182.714844"/>
     <use xlink:href="#DejaVuSans-6c" x="210.498047"/>
     <use xlink:href="#DejaVuSans-6f" x="238.28125"/>
     <use xlink:href="#DejaVuSans-22" x="299.462891"/>
    </g>
   </g>
   <g id="text_6">
    <!-- token 1 -->
    <g style="fill: #6b7280" transform="translate(220.432227 55.525313) scale(0.075 -0.075)">
     <defs>
      <path id="DejaVuSans-31" d="M 794 531 
L 1825 531 
L 1825 4091 
L 703 3866 
L 703 4441 
L 1819 4666 
L 2450 4666 
L 2450 531 
L 3481 531 
L 3481 0 
L 794 0 
L 794 531 
z
" transform="scale(0.015625)"/>
     </defs>
     <use xlink:href="#DejaVuSans-74"/>
     <use xlink:href="#DejaVuSans-6f" x="39.208984"/>
     <use xlink:href="#DejaVuSans-6b" x="100.390625"/>
     <use xlink:href="#DejaVuSans-65" x="154.675781"/>
     <use xlink:href="#DejaVuSans-6e" x="216.199219"/>
     <use xlink:href="#DejaVuSans-20" x="279.578125"/>
     <use xlink:href="#DejaVuSans-31" x="311.365234"/>
    </g>
   </g>
   <g id="text_7">
    <g id="patch_5">
     <path d="M 228.305078 89.7925 
L 240.683203 89.7925 
Q 243.183203 89.7925 243.183203 87.2925 
L 243.183203 77.614375 
Q 243.183203 75.114375 240.683203 75.114375 
L 228.305078 75.114375 
Q 225.805078 75.114375 225.805078 77.614375 
L 225.805078 87.2925 
Q 225.805078 89.7925 228.305078 89.7925 
z
" style="fill: #fef3c7; stroke: #d97706; stroke-width: 1.2; stroke-linejoin: miter"/>
    </g>
    <!-- "," -->
    <g style="fill: #1f2937" transform="translate(228.305078 85.212813) scale(0.1 -0.1)">
     <use xlink:href="#DejaVuSans-22"/>
     <use xlink:href="#DejaVuSans-2c" x="45.996094"/>
     <use xlink:href="#DejaVuSans-22" x="77.783203"/>
    </g>
   </g>
   <g id="text_8">
    <!-- token 2 -->
    <g style="fill: #6b7280" transform="translate(288.594954 55.525313) scale(0.075 -0.075)">
     <defs>
      <path id="DejaVuSans-32" d="M 1228 531 
L 3431 531 
L 3431 0 
L 469 0 
L 469 531 
Q 828 903 1448 1529 
Q 2069 2156 2228 2338 
Q 2531 2678 2651 2914 
Q 2772 3150 2772 3378 
Q 2772 3750 2511 3984 
Q 2250 4219 1831 4219 
Q 1534 4219 1204 4116 
Q 875 4013 500 3803 
L 500 4441 
Q 881 4594 1212 4672 
Q 1544 4750 1819 4750 
Q 2544 4750 2975 4387 
Q 3406 4025 3406 3419 
Q 3406 3131 3298 2873 
Q 3191 2616 2906 2266 
Q 2828 2175 2409 1742 
Q 1991 1309 1228 531 
z
" transform="scale(0.015625)"/>
     </defs>
     <use xlink:href="#DejaVuSans-74"/>
     <use xlink:href="#DejaVuSans-6f" x="39.208984"/>
     <use xlink:href="#DejaVuSans-6b" x="100.390625"/>
     <use xlink:href="#DejaVuSans-65" x="154.675781"/>
     <use xlink:href="#DejaVuSans-6e" x="216.199219"/>
     <use xlink:href="#DejaVuSans-20" x="279.578125"/>
     <use xlink:href="#DejaVuSans-32" x="311.365234"/>
    </g>
   </g>
   <g id="text_9">
    <g id="patch_6">
     <path d="M 280.415462 89.7925 
L 324.898274 89.7925 
Q 327.398274 89.7925 327.398274 87.2925 
L 327.398274 77.614375 
Q 327.398274 75.114375 324.898274 75.114375 
L 280.415462 75.114375 
Q 277.915462 75.114375 277.915462 77.614375 
L 277.915462 87.2925 
Q 277.915462 89.7925 280.415462 89.7925 
z
" style="fill: #d1fae5; stroke: #059669; stroke-width: 1.2; stroke-linejoin: miter"/>
    </g>
    <!-- "Ġworld" -->
    <g style="fill: #1f2937" transform="translate(280.415462 85.212813) scale(0.1 -0.1)">
     <defs>
      <path id="DejaVuSans-120" d="M 2369 5850 
L 3006 5850 
L 3006 5210 
L 2369 5210 
L 2369 5850 
z
M 3809 666 
L 3809 1919 
L 2778 1919 
L 2778 2438 
L 4434 2438 
L 4434 434 
Q 4069 175 3628 42 
Q 3188 -91 2688 -91 
Q 1594 -91 976 548 
Q 359 1188 359 2328 
Q 359 3472 976 4111 
Q 1594 4750 2688 4750 
Q 3144 4750 3555 4637 
Q 3966 4525 4313 4306 
L 4313 3634 
Q 3963 3931 3569 4081 
Q 3175 4231 2741 4231 
Q 1884 4231 1454 3753 
Q 1025 3275 1025 2328 
Q 1025 1384 1454 906 
Q 1884 428 2741 428 
Q 3075 428 3337 486 
Q 3600 544 3809 666 
z
" transform="scale(0.015625)"/>
     </defs>
     <use xlink:href="#DejaVuSans-22"/>
     <use xlink:href="#DejaVuSans-120" x="45.996094"/>
     <use xlink:href="#DejaVuSans-77" x="123.486328"/>
     <use xlink:href="#DejaVuSans-6f" x="205.273438"/>
     <use xlink:href="#DejaVuSans-72" x="266.455078"/>
     <use xlink:href="#DejaVuSans-6c" x="307.568359"/>
     <use xlink:href="#DejaVuSans-64" x="335.351562"/>
     <use xlink:href="#DejaVuSans-22" x="398.828125"/>
    </g>
   </g>
   <g id="text_10">
    <!-- token 3 -->
    <g style="fill: #6b7280" transform="translate(356.757681 55.525313) scale(0.075 -0.075)">
     <defs>
      <path id="DejaVuSans-33" d="M 2597 2516 
Q 3050 2419 3304 2112 
Q 3559 1806 3559 1356 
Q 3559 666 3084 287 
Q 2609 -91 1734 -91 
Q 1441 -91 1130 -33 
Q 819 25 488 141 
L 488 750 
Q 750 597 1062 519 
Q 1375 441 1716 441 
Q 2309 441 2620 675 
Q 2931 909 2931 1356 
Q 2931 1769 2642 2001 
Q 2353 2234 1838 2234 
L 1294 2234 
L 1294 2753 
L 1863 2753 
Q 2328 2753 2575 2939 
Q 2822 3125 2822 3475 
Q 2822 3834 2567 4026 
Q 2313 4219 1838 4219 
Q 1578 4219 1281 4162 
Q 984 4106 628 3988 
L 628 4550 
Q 988 4650 1302 4700 
Q 1616 4750 1894 4750 
Q 2613 4750 3031 4423 
Q 3450 4097 3450 3541 
Q 3450 3153 3228 2886 
Q 3006 2619 2597 2516 
z
" transform="scale(0.015625)"/>
     </defs>
     <use xlink:href="#DejaVuSans-74"/>
     <use xlink:href="#DejaVuSans-6f" x="39.208984"/>
     <use xlink:href="#DejaVuSans-6b" x="100.390625"/>
     <use xlink:href="#DejaVuSans-65" x="154.675781"/>
     <use xlink:href="#DejaVuSans-6e" x="216.199219"/>
     <use xlink:href="#DejaVuSans-20" x="279.578125"/>
     <use xlink:href="#DejaVuSans-33" x="311.365234"/>
    </g>
   </g>
   <g id="text_11">
    <g id="patch_7">
     <path d="M 364.214908 89.7925 
L 377.424283 89.7925 
Q 379.924283 89.7925 379.924283 87.2925 
L 379.924283 77.614375 
Q 379.924283 75.114375 377.424283 75.114375 
L 364.214908 75.114375 
Q 361.714908 75.114375 361.714908 77.614375 
L 361.714908 87.2925 
Q 361.714908 89.7925 364.214908 89.7925 
z
" style="fill: #fce7f3; stroke: #db2777; stroke-width: 1.2; stroke-linejoin: miter"/>
    </g>
    <!-- "!" -->
    <g style="fill: #1f2937" transform="translate(364.214908 85.212813) scale(0.1 -0.1)">
     <use xlink:href="#DejaVuSans-22"/>
     <use xlink:href="#DejaVuSans-21" x="45.996094"/>
     <use xlink:href="#DejaVuSans-22" x="86.083984"/>
    </g>
   </g>
   <g id="text_12">
    <!-- Vocabulary -->
    <g style="fill: #6b7280" transform="translate(22.0175 122.634781) scale(0.09 -0.09)">
     <defs>
      <path id="DejaVuSans-Oblique-56" d="M 1319 0 
L 500 4666 
L 1119 4666 
L 1797 653 
L 4063 4666 
L 4750 4666 
L 2053 0 
L 1319 0 
z
" transform="scale(0.015625)"/>
      <path id="DejaVuSans-Oblique-6f" d="M 1625 -91 
Q 1009 -91 651 289 
Q 294 669 294 1325 
Q 294 1706 417 2101 
Q 541 2497 738 2766 
Q 1047 3184 1428 3384 
Q 1809 3584 2291 3584 
Q 2888 3584 3255 3212 
Q 3622 2841 3622 2241 
Q 3622 1825 3500 1412 
Q 3378 1000 3181 728 
Q 2875 309 2494 109 
Q 2113 -91 1625 -91 
z
M 891 1344 
Q 891 869 1089 633 
Q 1288 397 1691 397 
Q 2269 397 2648 901 
Q 3028 1406 3028 2181 
Q 3028 2634 2825 2865 
Q 2622 3097 2228 3097 
Q 1903 3097 1650 2945 
Q 1397 2794 1197 2484 
Q 1050 2253 970 1956 
Q 891 1659 891 1344 
z
" transform="scale(0.015625)"/>
      <path id="DejaVuSans-Oblique-63" d="M 3431 3366 
L 3316 2797 
Q 3109 2947 2876 3022 
Q 2644 3097 2394 3097 
Q 2119 3097 1870 3000 
Q 1622 2903 1453 2725 
Q 1184 2453 1037 2087 
Q 891 1722 891 1331 
Q 891 859 1127 628 
Q 1363 397 1844 397 
Q 2081 397 2348 469 
Q 2616 541 2906 684 
L 2797 116 
Q 2547 13 2283 -39 
Q 2019 -91 1741 -91 
Q 1044 -91 669 257 
Q 294 606 294 1253 
Q 294 1797 489 2255 
Q 684 2713 1069 3078 
Q 1331 3328 1684 3456 
Q 2038 3584 2456 3584 
Q 2700 3584 2940 3529 
Q 3181 3475 3431 3366 
z
" transform="scale(0.015625)"/>
      <path id="DejaVuSans-Oblique-61" d="M 3438 1997 
L 3047 0 
L 2472 0 
L 2578 531 
Q 2325 219 2001 64 
Q 1678 -91 1281 -91 
Q 834 -91 548 182 
Q 263 456 263 884 
Q 263 1497 752 1853 
Q 1241 2209 2100 2209 
L 2900 2209 
L 2931 2363 
Q 2938 2388 2941 2417 
Q 2944 2447 2944 2509 
Q 2944 2788 2717 2942 
Q 2491 3097 2081 3097 
Q 1800 3097 1504 3025 
Q 1209 2953 897 2809 
L 997 3341 
Q 1322 3463 1633 3523 
Q 1944 3584 2234 3584 
Q 2853 3584 3176 3315 
Q 3500 3047 3500 2534 
Q 3500 2431 3484 2292 
Q 3469 2153 3438 1997 
z
M 2816 1759 
L 2241 1759 
Q 1534 1759 1195 1570 
Q 856 1381 856 984 
Q 856 709 1029 553 
Q 1203 397 1509 397 
Q 1978 397 2328 733 
Q 2678 1069 2791 1631 
L 2816 1759 
z
" transform="scale(0.015625)"/>
      <path id="DejaVuSans-Oblique-62" d="M 3169 2138 
Q 3169 2591 2961 2847 
Q 2753 3103 2388 3103 
Q 2122 3103 1889 2973 
Q 1656 2844 1484 2597 
Q 1303 2338 1198 1995 
Q 1094 1653 1094 1313 
Q 1094 881 1298 636 
Q 1503 391 1863 391 
Q 2134 391 2365 517 
Q 2597 644 2772 891 
Q 2950 1147 3059 1487 
Q 3169 1828 3169 2138 
z
M 1381 2969 
Q 1594 3256 1914 3420 
Q 2234 3584 2584 3584 
Q 3122 3584 3439 3221 
Q 3756 2859 3756 2241 
Q 3756 1734 3570 1259 
Q 3384 784 3041 416 
Q 2816 172 2522 40 
Q 2228 -91 1906 -91 
Q 1566 -91 1316 65 
Q 1066 222 909 531 
L 806 0 
L 231 0 
L 1178 4863 
L 1753 4863 
L 1381 2969 
z
" transform="scale(0.015625)"/>
      <path id="DejaVuSans-Oblique-75" d="M 428 1388 
L 838 3500 
L 1416 3500 
L 1006 1409 
Q 975 1256 961 1147 
Q 947 1038 947 966 
Q 947 700 1109 554 
Q 1272 409 1569 409 
Q 2031 409 2368 721 
Q 2706 1034 2809 1563 
L 3194 3500 
L 3769 3500 
L 3091 0 
L 2516 0 
L 2631 550 
Q 2388 244 2052 76 
Q 1716 -91 1338 -91 
Q 878 -91 622 161 
Q 366 413 366 863 
Q 366 956 381 1097 
Q 397 1238 428 1388 
z
" transform="scale(0.015625)"/>
      <path id="DejaVuSans-Oblique-6c" d="M 1172 4863 
L 1747 4863 
L 800 0 
L 225 0 
L 1172 4863 
z
" transform="scale(0.015625)"/>
      <path id="DejaVuSans-Oblique-72" d="M 2853 2969 
Q 2766 3016 2653 3041 
Q 2541 3066 2413 3066 
Q 1953 3066 1609 2717 
Q 1266 2369 1153 1784 
L 800 0 
L 225 0 
L 909 3500 
L 1484 3500 
L 1375 2956 
Q 1603 3259 1920 3421 
Q 2238 3584 2597 3584 
Q 2691 3584 2781 3573 
Q 2872 3563 2963 3538 
L 2853 2969 
z
" transform="scale(0.015625)"/>
      <path id="DejaVuSans-Oblique-79" d="M 1588 -325 
Q 1188 -997 936 -1164 
Q 684 -1331 294 -1331 
L -159 -1331 
L -63 -850 
L 269 -850 
Q 509 -850 678 -719 
Q 847 -588 1056 -206 
L 1234 128 
L 459 3500 
L 1069 3500 
L 1650 819 
L 3256 3500 
L 3859 3500 
L 1588 -325 
z
" transform="scale(0.015625)"/>
     </defs>
     <use xlink:href="#DejaVuSans-Oblique-56"/>
     <use xlink:href="#DejaVuSans-Oblique-6f" x="62.533203"/>
     <use xlink:href="#DejaVuSans-Oblique-63" x="123.714844"/>
     <use xlink:href="#DejaVuSans-Oblique-61" x="178.695312"/>
     <use xlink:href="#DejaVuSans-Oblique-62" x="239.974609"/>
     <use xlink:href="#DejaVuSans-Oblique-75" x="303.451172"/>
     <use xlink:href="#DejaVuSans-Oblique-6c" x="366.830078"/>
     <use xlink:href="#DejaVuSans-Oblique-61" x="394.613281"/>
     <use xlink:href="#DejaVuSans-Oblique-72" x="455.892578"/>
     <use xlink:href="#DejaVuSans-Oblique-79" x="497.005859"/>
    </g>
    <!-- lookup -->
    <g style="fill: #6b7280" transform="translate(31.975156 132.712813) scale(0.09 -0.09)">
     <defs>
      <path id="DejaVuSans-Oblique-6b" d="M 1172 4863 
L 1747 4863 
L 1197 2028 
L 3169 3500 
L 3916 3500 
L 1716 1825 
L 3322 0 
L 2625 0 
L 1131 1709 
L 800 0 
L 225 0 
L 1172 4863 
z
" transform="scale(0.015625)"/>
      <path id="DejaVuSans-Oblique-70" d="M 3175 2156 
Q 3175 2616 2975 2859 
Q 2775 3103 2400 3103 
Q 2144 3103 1911 2972 
Q 1678 2841 1497 2591 
Q 1319 2344 1212 1994 
Q 1106 1644 1106 1300 
Q 1106 863 1306 627 
Q 1506 391 1875 391 
Q 2147 391 2380 519 
Q 2613 647 2778 891 
Q 2956 1147 3065 1494 
Q 3175 1841 3175 2156 
z
M 1394 2969 
Q 1625 3272 1939 3428 
Q 2253 3584 2638 3584 
Q 3175 3584 3472 3232 
Q 3769 2881 3769 2247 
Q 3769 1728 3584 1258 
Q 3400 788 3053 416 
Q 2822 169 2531 39 
Q 2241 -91 1919 -91 
Q 1547 -91 1294 64 
Q 1041 219 916 525 
L 556 -1331 
L -19 -1331 
L 922 3500 
L 1497 3500 
L 1394 2969 
z
" transform="scale(0.015625)"/>
     </defs>
     <use xlink:href="#DejaVuSans-Oblique-6c"/>
     <use xlink:href="#DejaVuSans-Oblique-6f" x="27.783203"/>
     <use xlink:href="#DejaVuSans-Oblique-6f" x="88.964844"/>
     <use xlink:href="#DejaVuSans-Oblique-6b" x="150.146484"/>
     <use xlink:href="#DejaVuSans-Oblique-75" x="208.056641"/>
     <use xlink:href="#DejaVuSans-Oblique-70" x="271.435547"/>
    </g>
   </g>
   <g id="text_13">
    <!-- Token IDs -->
    <g style="fill: #6b7280" transform="translate(25.679375 162.400313) scale(0.09 -0.09)">
     <defs>
      <path id="DejaVuSans-49" d="M 628 4666 
L 1259 4666 
L 1259 0 
L 628 0 
L 628 4666 
z
" transform="scale(0.015625)"/>
      <path id="DejaVuSans-44" d="M 1259 4147 
L 1259 519 
L 2022 519 
Q 2988 519 3436 956 
Q 3884 1394 3884 2338 
Q 3884 3275 3436 3711 
Q 2988 4147 2022 4147 
L 1259 4147 
z
M 628 4666 
L 1925 4666 
Q 3281 4666 3915 4102 
Q 4550 3538 4550 2338 
Q 4550 1131 3912 565 
Q 3275 0 1925 0 
L 628 0 
L 628 4666 
z
" transform="scale(0.015625)"/>
      <path id="DejaVuSans-73" d="M 2834 3397 
L 2834 2853 
Q 2591 2978 2328 3040 
Q 2066 3103 1784 3103 
Q 1356 3103 1142 2972 
Q 928 2841 928 2578 
Q 928 2378 1081 2264 
Q 1234 2150 1697 2047 
L 1894 2003 
Q 2506 1872 2764 1633 
Q 3022 1394 3022 966 
Q 3022 478 2636 193 
Q 2250 -91 1575 -91 
Q 1294 -91 989 -36 
Q 684 19 347 128 
L 347 722 
Q 666 556 975 473 
Q 1284 391 1588 391 
Q 1994 391 2212 530 
Q 2431 669 2431 922 
Q 2431 1156 2273 1281 
Q 2116 1406 1581 1522 
L 1381 1569 
Q 847 1681 609 1914 
Q 372 2147 372 2553 
Q 372 3047 722 3315 
Q 1072 3584 1716 3584 
Q 2034 3584 2315 3537 
Q 2597 3491 2834 3397 
z
" transform="scale(0.015625)"/>
     </defs>
     <use xlink:href="#DejaVuSans-54"/>
     <use xlink:href="#DejaVuSans-6f" x="44.083984"/>
     <use xlink:href="#DejaVuSans-6b" x="105.265625"/>
     <use xlink:href="#DejaVuSans-65" x="159.550781"/>
     <use xlink:href="#DejaVuSans-6e" x="221.074219"/>
     <use xlink:href="#DejaVuSans-20" x="284.453125"/>
     <use xlink:href="#DejaVuSans-49" x="316.240234"/>
     <use xlink:href="#DejaVuSans-44" x="345.732422"/>
     <use xlink:href="#DejaVuSans-73" x="422.734375"/>
    </g>
   </g>
   <g id="text_14">
    <!-- (integers) -->
    <g style="fill: #6b7280" transform="translate(27.521016 189.119063) scale(0.08 -0.08)">
     <defs>
      <path id="DejaVuSans-28" d="M 1984 4856 
Q 1566 4138 1362 3434 
Q 1159 2731 1159 2009 
Q 1159 1288 1364 580 
Q 1569 -128 1984 -844 
L 1484 -844 
Q 1016 -109 783 600 
Q 550 1309 550 2009 
Q 550 2706 781 3412 
Q 1013 4119 1484 4856 
L 1984 4856 
z
" transform="scale(0.015625)"/>
      <path id="DejaVuSans-67" d="M 2906 1791 
Q 2906 2416 2648 2759 
Q 2391 3103 1925 3103 
Q 1463 3103 1205 2759 
Q 947 2416 947 1791 
Q 947 1169 1205 825 
Q 1463 481 1925 481 
Q 2391 481 2648 825 
Q 2906 1169 2906 1791 
z
M 3481 434 
Q 3481 -459 3084 -895 
Q 2688 -1331 1869 -1331 
Q 1566 -1331 1297 -1286 
Q 1028 -1241 775 -1147 
L 775 -588 
Q 1028 -725 1275 -790 
Q 1522 -856 1778 -856 
Q 2344 -856 2625 -561 
Q 2906 -266 2906 331 
L 2906 616 
Q 2728 306 2450 153 
Q 2172 0 1784 0 
Q 1141 0 747 490 
Q 353 981 353 1791 
Q 353 2603 747 3093 
Q 1141 3584 1784 3584 
Q 2172 3584 2450 3431 
Q 2728 3278 2906 2969 
L 2906 3500 
L 3481 3500 
L 3481 434 
z
" transform="scale(0.015625)"/>
      <path id="DejaVuSans-29" d="M 513 4856 
L 1013 4856 
Q 1481 4119 1714 3412 
Q 1947 2706 1947 2009 
Q 1947 1309 1714 600 
Q 1481 -109 1013 -844 
L 513 -844 
Q 928 -128 1133 580 
Q 1338 1288 1338 2009 
Q 1338 2731 1133 3434 
Q 928 4138 513 4856 
z
" transform="scale(0.015625)"/>
     </defs>
     <use xlink:href="#DejaVuSans-28"/>
     <use xlink:href="#DejaVuSans-69" x="39.013672"/>
     <use xlink:href="#DejaVuSans-6e" x="66.796875"/>
     <use xlink:href="#DejaVuSans-74" x="130.175781"/>
     <use xlink:href="#DejaVuSans-65" x="169.384766"/>
     <use xlink:href="#DejaVuSans-67" x="230.908203"/>
     <use xlink:href="#DejaVuSans-65" x="294.384766"/>
     <use xlink:href="#DejaVuSans-72" x="355.908203"/>
     <use xlink:href="#DejaVuSans-73" x="397.021484"/>
     <use xlink:href="#DejaVuSans-29" x="449.121094"/>
    </g>
   </g>
   <g id="patch_8">
    <path d="M 166.331413 107.991591 
Q 166.331413 111.929557 166.331413 114.525883 
" style="fill: none; stroke: #374151; stroke-width: 1.2; stroke-linecap: round"/>
    <path d="M 168.331413 110.525883 
L 166.331413 114.525883 
L 164.331413 110.525883 
z
" style="fill: #374151; stroke: #374151; stroke-width: 1.2; stroke-linecap: round"/>
   </g>
   <g id="text_15">
    <g id="patch_9">
     <path d="M 147.197429 167.437969 
L 185.465398 167.437969 
Q 188.215398 167.437969 188.215398 164.687969 
L 188.215398 154.042031 
Q 188.215398 151.292031 185.465398 151.292031 
L 147.197429 151.292031 
Q 144.447429 151.292031 144.447429 154.042031 
L 144.447429 164.687969 
Q 144.447429 167.437969 147.197429 167.437969 
z
" style="fill: #e0e7ff; stroke: #2563eb; stroke-width: 1.2; stroke-linejoin: miter"/>
    </g>
    <!-- 15496 -->
    <g style="fill: #1f2937" transform="translate(147.197429 162.400313) scale(0.11 -0.11)">
     <defs>
      <path id="DejaVuSans-Bold-31" d="M 750 831 
L 1813 831 
L 1813 3847 
L 722 3622 
L 722 4441 
L 1806 4666 
L 2950 4666 
L 2950 831 
L 4013 831 
L 4013 0 
L 750 0 
L 750 831 
z
" transform="scale(0.015625)"/>
      <path id="DejaVuSans-Bold-35" d="M 678 4666 
L 3669 4666 
L 3669 3781 
L 1638 3781 
L 1638 3059 
Q 1775 3097 1914 3117 
Q 2053 3138 2203 3138 
Q 3056 3138 3531 2711 
Q 4006 2284 4006 1522 
Q 4006 766 3489 337 
Q 2972 -91 2053 -91 
Q 1656 -91 1267 -14 
Q 878 63 494 219 
L 494 1166 
Q 875 947 1217 837 
Q 1559 728 1863 728 
Q 2300 728 2551 942 
Q 2803 1156 2803 1522 
Q 2803 1891 2551 2103 
Q 2300 2316 1863 2316 
Q 1603 2316 1309 2248 
Q 1016 2181 678 2041 
L 678 4666 
z
" transform="scale(0.015625)"/>
      <path id="DejaVuSans-Bold-34" d="M 2356 3675 
L 1038 1722 
L 2356 1722 
L 2356 3675 
z
M 2156 4666 
L 3494 4666 
L 3494 1722 
L 4159 1722 
L 4159 850 
L 3494 850 
L 3494 0 
L 2356 0 
L 2356 850 
L 288 850 
L 288 1881 
L 2156 4666 
z
" transform="scale(0.015625)"/>
      <path id="DejaVuSans-Bold-39" d="M 641 103 
L 641 966 
Q 928 831 1190 764 
Q 1453 697 1709 697 
Q 2247 697 2547 995 
Q 2847 1294 2900 1881 
Q 2688 1725 2447 1647 
Q 2206 1569 1925 1569 
Q 1209 1569 770 1986 
Q 331 2403 331 3084 
Q 331 3838 820 4291 
Q 1309 4744 2131 4744 
Q 3044 4744 3544 4128 
Q 4044 3513 4044 2388 
Q 4044 1231 3459 570 
Q 2875 -91 1856 -91 
Q 1528 -91 1228 -42 
Q 928 6 641 103 
z
M 2125 2350 
Q 2441 2350 2600 2554 
Q 2759 2759 2759 3169 
Q 2759 3575 2600 3781 
Q 2441 3988 2125 3988 
Q 1809 3988 1650 3781 
Q 1491 3575 1491 3169 
Q 1491 2759 1650 2554 
Q 1809 2350 2125 2350 
z
" transform="scale(0.015625)"/>
      <path id="DejaVuSans-Bold-36" d="M 2316 2303 
Q 2000 2303 1842 2098 
Q 1684 1894 1684 1484 
Q 1684 1075 1842 870 
Q 2000 666 2316 666 
Q 2634 666 2792 870 
Q 2950 1075 2950 1484 
Q 2950 1894 2792 2098 
Q 2634 2303 2316 2303 
z
M 3803 4544 
L 3803 3681 
Q 3506 3822 3243 3889 
Q 2981 3956 2731 3956 
Q 2194 3956 1894 3657 
Q 1594 3359 1544 2772 
Q 1750 2925 1990 3001 
Q 2231 3078 2516 3078 
Q 3231 3078 3670 2659 
Q 4109 2241 4109 1563 
Q 4109 813 3618 361 
Q 3128 -91 2303 -91 
Q 1394 -91 895 523 
Q 397 1138 397 2266 
Q 397 3422 980 4083 
Q 1563 4744 2578 4744 
Q 2900 4744 3203 4694 
Q 3506 4644 3803 4544 
z
" transform="scale(0.015625)"/>
     </defs>
     <use xlink:href="#DejaVuSans-Bold-31"/>
     <use xlink:href="#DejaVuSans-Bold-35" x="69.580078"/>
     <use xlink:href="#DejaVuSans-Bold-34" x="139.160156"/>
     <use xlink:href="#DejaVuSans-Bold-39" x="208.740234"/>
     <use xlink:href="#DejaVuSans-Bold-36" x="278.320312"/>
    </g>
   </g>
   <g id="patch_10">
    <path d="M 234.494141 107.991591 
Q 234.494141 111.929557 234.494141 114.525883 
" style="fill: none; stroke: #374151; stroke-width: 1.2; stroke-linecap: round"/>
    <path d="M 236.494141 110.525883 
L 234.494141 114.525883 
L 232.494141 110.525883 
z
" style="fill: #374151; stroke: #374151; stroke-width: 1.2; stroke-linecap: round"/>
   </g>
   <g id="text_16">
    <g id="patch_11">
     <path d="M 226.840547 167.437969 
L 242.147734 167.437969 
Q 244.897734 167.437969 244.897734 164.687969 
L 244.897734 154.042031 
Q 244.897734 151.292031 242.147734 151.292031 
L 226.840547 151.292031 
Q 224.090547 151.292031 224.090547 154.042031 
L 224.090547 164.687969 
Q 224.090547 167.437969 226.840547 167.437969 
z
" style="fill: #fef3c7; stroke: #d97706; stroke-width: 1.2; stroke-linejoin: miter"/>
    </g>
    <!-- 11 -->
    <g style="fill: #1f2937" transform="translate(226.840547 162.400313) scale(0.11 -0.11)">
     <use xlink:href="#DejaVuSans-Bold-31"/>
     <use xlink:href="#DejaVuSans-Bold-31" x="69.580078"/>
    </g>
   </g>
   <g id="patch_12">
    <path d="M 302.656868 107.991591 
Q 302.656868 111.929557 302.656868 114.525883 
" style="fill: none; stroke: #374151; stroke-width: 1.2; stroke-linecap: round"/>
    <path d="M 304.656868 110.525883 
L 302.656868 114.525883 
L 300.656868 110.525883 
z
" style="fill: #374151; stroke: #374151; stroke-width: 1.2; stroke-linecap: round"/>
   </g>
   <g id="text_17">
    <g id="patch_13">
     <path d="M 291.176477 167.437969 
L 314.137259 167.437969 
Q 316.887259 167.437969 316.887259 164.687969 
L 316.887259 154.042031 
Q 316.887259 151.292031 314.137259 151.292031 
L 291.176477 151.292031 
Q 288.426477 151.292031 288.426477 154.042031 
L 288.426477 164.687969 
Q 288.426477 167.437969 291.176477 167.437969 
z
" style="fill: #d1fae5; stroke: #059669; stroke-width: 1.2; stroke-linejoin: miter"/>
    </g>
    <!-- 995 -->
    <g style="fill: #1f2937" transform="translate(291.176477 162.400313) scale(0.11 -0.11)">
     <use xlink:href="#DejaVuSans-Bold-39"/>
     <use xlink:href="#DejaVuSans-Bold-39" x="69.580078"/>
     <use xlink:href="#DejaVuSans-Bold-35" x="139.160156"/>
    </g>
   </g>
   <g id="patch_14">
    <path d="M 370.819595 107.991591 
Q 370.819595 111.929557 370.819595 114.525883 
" style="fill: none; stroke: #374151; stroke-width: 1.2; stroke-linecap: round"/>
    <path d="M 372.819595 110.525883 
L 370.819595 114.525883 
L 368.819595 110.525883 
z
" style="fill: #374151; stroke: #374151; stroke-width: 1.2; stroke-linecap: round"/>
   </g>
   <g id="text_18">
    <g id="patch_15">
     <path d="M 366.992798 167.437969 
L 374.646392 167.437969 
Q 377.396392 167.437969 377.396392 164.687969 
L 377.396392 154.042031 
Q 377.396392 151.292031 374.646392 151.292031 
L 366.992798 151.292031 
Q 364.242798 151.292031 364.242798 154.042031 
L 364.242798 164.687969 
Q 364.242798 167.437969 366.992798 167.437969 
z
" style="fill: #fce7f3; stroke: #db2777; stroke-width: 1.2; stroke-linejoin: miter"/>
    </g>
    <!-- 0 -->
    <g style="fill: #1f2937" transform="translate(366.992798 162.400313) scale(0.11 -0.11)">
     <defs>
      <path id="DejaVuSans-Bold-30" d="M 2944 2338 
Q 2944 3213 2780 3570 
Q 2616 3928 2228 3928 
Q 1841 3928 1675 3570 
Q 1509 3213 1509 2338 
Q 1509 1453 1675 1090 
Q 1841 728 2228 728 
Q 2613 728 2778 1090 
Q 2944 1453 2944 2338 
z
M 4147 2328 
Q 4147 1169 3647 539 
Q 3147 -91 2228 -91 
Q 1306 -91 806 539 
Q 306 1169 306 2328 
Q 306 3491 806 4120 
Q 1306 4750 2228 4750 
Q 3147 4750 3647 4120 
Q 4147 3491 4147 2328 
z
" transform="scale(0.015625)"/>
     </defs>
     <use xlink:href="#DejaVuSans-Bold-30"/>
    </g>
   </g>
   <g id="patch_16">
    <path d="M 447.801791 85.212813 
Q 476.47193 85.212813 503.465019 85.212813 
" style="fill: none; stroke: #374151; stroke-width: 1.5; stroke-linecap: round"/>
    <path d="M 500.265019 83.612813 
L 503.465019 85.212813 
L 500.265019 86.812813 
z
" style="fill: #374151; stroke: #374151; stroke-width: 1.5; stroke-linecap: round"/>
   </g>
   <g id="text_19">
    <!-- Embedding -->
    <g style="fill: #6b7280" transform="translate(453.783072 61.410813) scale(0.08 -0.08)">
     <defs>
      <path id="DejaVuSans-45" d="M 628 4666 
L 3578 4666 
L 3578 4134 
L 1259 4134 
L 1259 2753 
L 3481 2753 
L 3481 2222 
L 1259 2222 
L 1259 531 
L 3634 531 
L 3634 0 
L 628 0 
L 628 4666 
z
" transform="scale(0.015625)"/>
      <path id="DejaVuSans-6d" d="M 3328 2828 
Q 3544 3216 3844 3400 
Q 4144 3584 4550 3584 
Q 5097 3584 5394 3201 
Q 5691 2819 5691 2113 
L 5691 0 
L 5113 0 
L 5113 2094 
Q 5113 2597 4934 2840 
Q 4756 3084 4391 3084 
Q 3944 3084 3684 2787 
Q 3425 2491 3425 1978 
L 3425 0 
L 2847 0 
L 2847 2094 
Q 2847 2600 2669 2842 
Q 2491 3084 2119 3084 
Q 1678 3084 1418 2786 
Q 1159 2488 1159 1978 
L 1159 0 
L 581 0 
L 581 3500 
L 1159 3500 
L 1159 2956 
Q 1356 3278 1631 3431 
Q 1906 3584 2284 3584 
Q 2666 3584 2933 3390 
Q 3200 3197 3328 2828 
z
" transform="scale(0.015625)"/>
      <path id="DejaVuSans-62" d="M 3116 1747 
Q 3116 2381 2855 2742 
Q 2594 3103 2138 3103 
Q 1681 3103 1420 2742 
Q 1159 2381 1159 1747 
Q 1159 1113 1420 752 
Q 1681 391 2138 391 
Q 2594 391 2855 752 
Q 3116 1113 3116 1747 
z
M 1159 2969 
Q 1341 3281 1617 3432 
Q 1894 3584 2278 3584 
Q 2916 3584 3314 3078 
Q 3713 2572 3713 1747 
Q 3713 922 3314 415 
Q 2916 -91 2278 -91 
Q 1894 -91 1617 61 
Q 1341 213 1159 525 
L 1159 0 
L 581 0 
L 581 4863 
L 1159 4863 
L 1159 2969 
z
" transform="scale(0.015625)"/>
     </defs>
     <use xlink:href="#DejaVuSans-45"/>
     <use xlink:href="#DejaVuSans-6d" x="63.183594"/>
     <use xlink:href="#DejaVuSans-62" x="160.595703"/>
     <use xlink:href="#DejaVuSans-65" x="224.072266"/>
     <use xlink:href="#DejaVuSans-64" x="285.595703"/>
     <use xlink:href="#DejaVuSans-64" x="349.072266"/>
     <use xlink:href="#DejaVuSans-69" x="412.548828"/>
     <use xlink:href="#DejaVuSans-6e" x="440.332031"/>
     <use xlink:href="#DejaVuSans-67" x="503.710938"/>
    </g>
    <!-- table -->
    <g style="fill: #6b7280" transform="translate(466.340572 70.369063) scale(0.08 -0.08)">
     <use xlink:href="#DejaVuSans-74"/>
     <use xlink:href="#DejaVuSans-61" x="39.208984"/>
     <use xlink:href="#DejaVuSans-62" x="100.488281"/>
     <use xlink:href="#DejaVuSans-6c" x="163.964844"/>
     <use xlink:href="#DejaVuSans-65" x="191.748047"/>
    </g>
   </g>
   <g id="text_20">
    <!-- (d_model=768) -->
    <g style="fill: #6b7280" transform="translate(449.256588 105.994063) scale(0.07 -0.07)">
     <defs>
      <path id="DejaVuSans-5f" d="M 3263 -1063 
L 3263 -1509 
L -63 -1509 
L -63 -1063 
L 3263 -1063 
z
" transform="scale(0.015625)"/>
      <path id="DejaVuSans-3d" d="M 678 2906 
L 4684 2906 
L 4684 2381 
L 678 2381 
L 678 2906 
z
M 678 1631 
L 4684 1631 
L 4684 1100 
L 678 1100 
L 678 1631 
z
" transform="scale(0.015625)"/>
      <path id="DejaVuSans-37" d="M 525 4666 
L 3525 4666 
L 3525 4397 
L 1831 0 
L 1172 0 
L 2766 4134 
L 525 4134 
L 525 4666 
z
" transform="scale(0.015625)"/>
      <path id="DejaVuSans-36" d="M 2113 2584 
Q 1688 2584 1439 2293 
Q 1191 2003 1191 1497 
Q 1191 994 1439 701 
Q 1688 409 2113 409 
Q 2538 409 2786 701 
Q 3034 994 3034 1497 
Q 3034 2003 2786 2293 
Q 2538 2584 2113 2584 
z
M 3366 4563 
L 3366 3988 
Q 3128 4100 2886 4159 
Q 2644 4219 2406 4219 
Q 1781 4219 1451 3797 
Q 1122 3375 1075 2522 
Q 1259 2794 1537 2939 
Q 1816 3084 2150 3084 
Q 2853 3084 3261 2657 
Q 3669 2231 3669 1497 
Q 3669 778 3244 343 
Q 2819 -91 2113 -91 
Q 1303 -91 875 529 
Q 447 1150 447 2328 
Q 447 3434 972 4092 
Q 1497 4750 2381 4750 
Q 2619 4750 2861 4703 
Q 3103 4656 3366 4563 
z
" transform="scale(0.015625)"/>
      <path id="DejaVuSans-38" d="M 2034 2216 
Q 1584 2216 1326 1975 
Q 1069 1734 1069 1313 
Q 1069 891 1326 650 
Q 1584 409 2034 409 
Q 2484 409 2743 651 
Q 3003 894 3003 1313 
Q 3003 1734 2745 1975 
Q 2488 2216 2034 2216 
z
M 1403 2484 
Q 997 2584 770 2862 
Q 544 3141 544 3541 
Q 544 4100 942 4425 
Q 1341 4750 2034 4750 
Q 2731 4750 3128 4425 
Q 3525 4100 3525 3541 
Q 3525 3141 3298 2862 
Q 3072 2584 2669 2484 
Q 3125 2378 3379 2068 
Q 3634 1759 3634 1313 
Q 3634 634 3220 271 
Q 2806 -91 2034 -91 
Q 1263 -91 848 271 
Q 434 634 434 1313 
Q 434 1759 690 2068 
Q 947 2378 1403 2484 
z
M 1172 3481 
Q 1172 3119 1398 2916 
Q 1625 2713 2034 2713 
Q 2441 2713 2670 2916 
Q 2900 3119 2900 3481 
Q 2900 3844 2670 4047 
Q 2441 4250 2034 4250 
Q 1625 4250 1398 4047 
Q 1172 3844 1172 3481 
z
" transform="scale(0.015625)"/>
     </defs>
     <use xlink:href="#DejaVuSans-28"/>
     <use xlink:href="#DejaVuSans-64" x="39.013672"/>
     <use xlink:href="#DejaVuSans-5f" x="102.490234"/>
     <use xlink:href="#DejaVuSans-6d" x="152.490234"/>
     <use xlink:href="#DejaVuSans-6f" x="249.902344"/>
     <use xlink:href="#DejaVuSans-64" x="311.083984"/>
     <use xlink:href="#DejaVuSans-65" x="374.560547"/>
     <use xlink:href="#DejaVuSans-6c" x="436.083984"/>
     <use xlink:href="#DejaVuSans-3d" x="463.867188"/>
     <use xlink:href="#DejaVuSans-37" x="547.65625"/>
     <use xlink:href="#DejaVuSans-36" x="611.279297"/>
     <use xlink:href="#DejaVuSans-38" x="674.902344"/>
     <use xlink:href="#DejaVuSans-29" x="738.525391"/>
    </g>
   </g>
   <g id="patch_17">
    <path d="M 527.593868 108.962813 
L 549.405941 108.962813 
L 549.405941 61.462813 
L 527.593868 61.462813 
z
" clip-path="url(#pa803193300)" style="fill: #b7d4ea; stroke: #ffffff; stroke-width: 0.5; stroke-linejoin: miter"/>
   </g>
   <g id="patch_18">
    <path d="M 551.450822 108.962813 
L 573.262895 108.962813 
L 573.262895 61.462813 
L 551.450822 61.462813 
z
" clip-path="url(#pa803193300)" style="fill: #9ac8e0; stroke: #ffffff; stroke-width: 0.5; stroke-linejoin: miter"/>
   </g>
   <g id="patch_19">
    <path d="M 575.307777 108.962813 
L 597.11985 108.962813 
L 597.11985 61.462813 
L 575.307777 61.462813 
z
" clip-path="url(#pa803193300)" style="fill: #77b5d9; stroke: #ffffff; stroke-width: 0.5; stroke-linejoin: miter"/>
   </g>
   <g id="patch_20">
    <path d="M 599.164732 108.962813 
L 620.976804 108.962813 
L 620.976804 61.462813 
L 599.164732 61.462813 
z
" clip-path="url(#pa803193300)" style="fill: #58a1cf; stroke: #ffffff; stroke-width: 0.5; stroke-linejoin: miter"/>
   </g>
   <g id="patch_21">
    <path d="M 623.021686 108.962813 
L 644.833759 108.962813 
L 644.833759 61.462813 
L 623.021686 61.462813 
z
" clip-path="url(#pa803193300)" style="fill: #3d8dc4; stroke: #ffffff; stroke-width: 0.5; stroke-linejoin: miter"/>
   </g>
   <g id="patch_22">
    <path d="M 646.878641 108.962813 
L 668.690713 108.962813 
L 668.690713 61.462813 
L 646.878641 61.462813 
z
" clip-path="url(#pa803193300)" style="fill: #2676b8; stroke: #ffffff; stroke-width: 0.5; stroke-linejoin: miter"/>
   </g>
   <g id="patch_23">
    <path d="M 670.735595 108.962813 
L 692.547668 108.962813 
L 692.547668 61.462813 
L 670.735595 61.462813 
z
" clip-path="url(#pa803193300)" style="fill: #1460a8; stroke: #ffffff; stroke-width: 0.5; stroke-linejoin: miter"/>
   </g>
   <g id="patch_24">
    <path d="M 694.59255 108.962813 
L 716.404622 108.962813 
L 716.404622 61.462813 
L 694.59255 61.462813 
z
" clip-path="url(#pa803193300)" style="fill: #084a91; stroke: #ffffff; stroke-width: 0.5; stroke-linejoin: miter"/>
   </g>
   <g id="text_21">
    <!-- 768-dim embedding vector -->
    <g style="fill: #6b7280" transform="translate(561.733795 126.775313) scale(0.09 -0.09)">
     <defs>
      <path id="DejaVuSans-2d" d="M 313 2009 
L 1997 2009 
L 1997 1497 
L 313 1497 
L 313 2009 
z
" transform="scale(0.015625)"/>
      <path id="DejaVuSans-76" d="M 191 3500 
L 800 3500 
L 1894 563 
L 2988 3500 
L 3597 3500 
L 2284 0 
L 1503 0 
L 191 3500 
z
" transform="scale(0.015625)"/>
      <path id="DejaVuSans-63" d="M 3122 3366 
L 3122 2828 
Q 2878 2963 2633 3030 
Q 2388 3097 2138 3097 
Q 1578 3097 1268 2742 
Q 959 2388 959 1747 
Q 959 1106 1268 751 
Q 1578 397 2138 397 
Q 2388 397 2633 464 
Q 2878 531 3122 666 
L 3122 134 
Q 2881 22 2623 -34 
Q 2366 -91 2075 -91 
Q 1284 -91 818 406 
Q 353 903 353 1747 
Q 353 2603 823 3093 
Q 1294 3584 2113 3584 
Q 2378 3584 2631 3529 
Q 2884 3475 3122 3366 
z
" transform="scale(0.015625)"/>
     </defs>
     <use xlink:href="#DejaVuSans-37"/>
     <use xlink:href="#DejaVuSans-36" x="63.623047"/>
     <use xlink:href="#DejaVuSans-38" x="127.246094"/>
     <use xlink:href="#DejaVuSans-2d" x="190.869141"/>
     <use xlink:href="#DejaVuSans-64" x="226.953125"/>
     <use xlink:href="#DejaVuSans-69" x="290.429688"/>
     <use xlink:href="#DejaVuSans-6d" x="318.212891"/>
     <use xlink:href="#DejaVuSans-20" x="415.625"/>
     <use xlink:href="#DejaVuSans-65" x="447.412109"/>
     <use xlink:href="#DejaVuSans-6d" x="508.935547"/>
     <use xlink:href="#DejaVuSans-62" x="606.347656"/>
     <use xlink:href="#DejaVuSans-65" x="669.824219"/>
     <use xlink:href="#DejaVuSans-64" x="731.347656"/>
     <use xlink:href="#DejaVuSans-64" x="794.824219"/>
     <use xlink:href="#DejaVuSans-69" x="858.300781"/>
     <use xlink:href="#DejaVuSans-6e" x="886.083984"/>
     <use xlink:href="#DejaVuSans-67" x="949.462891"/>
     <use xlink:href="#DejaVuSans-20" x="1012.939453"/>
     <use xlink:href="#DejaVuSans-76" x="1044.726562"/>
     <use xlink:href="#DejaVuSans-65" x="1103.90625"/>
     <use xlink:href="#DejaVuSans-63" x="1165.429688"/>
     <use xlink:href="#DejaVuSans-74" x="1220.410156"/>
     <use xlink:href="#DejaVuSans-6f" x="1259.619141"/>
     <use xlink:href="#DejaVuSans-72" x="1320.800781"/>
    </g>
   </g>
   <g id="text_22">
    <!-- Token embedding -->
    <g style="fill: #6b7280" transform="translate(583.340827 46.619063) scale(0.09 -0.09)">
     <use xlink:href="#DejaVuSans-54"/>
     <use xlink:href="#DejaVuSans-6f" x="44.083984"/>
     <use xlink:href="#DejaVuSans-6b" x="105.265625"/>
     <use xlink:href="#DejaVuSans-65" x="159.550781"/>
     <use xlink:href="#DejaVuSans-6e" x="221.074219"/>
     <use xlink:href="#DejaVuSans-20" x="284.453125"/>
     <use xlink:href="#DejaVuSans-65" x="316.240234"/>
     <use xlink:href="#DejaVuSans-6d" x="377.763672"/>
     <use xlink:href="#DejaVuSans-62" x="475.175781"/>
     <use xlink:href="#DejaVuSans-65" x="538.652344"/>
     <use xlink:href="#DejaVuSans-64" x="600.175781"/>
     <use xlink:href="#DejaVuSans-64" x="663.652344"/>
     <use xlink:href="#DejaVuSans-69" x="727.128906"/>
     <use xlink:href="#DejaVuSans-6e" x="754.912109"/>
     <use xlink:href="#DejaVuSans-67" x="818.291016"/>
    </g>
   </g>
   <g id="patch_25">
    <path d="M 626.940695 125.600902 
Q 625.210342 118.254714 623.73632 111.996779 
" style="fill: none; stroke: #7c3aed; stroke-linecap: round"/>
    <path d="M 622.912604 115.478373 
L 623.73632 111.996779 
L 626.027365 114.744708 
" style="fill: none; stroke: #7c3aed; stroke-linecap: round"/>
   </g>
   <g id="text_23">
    <!-- + positional -->
    <g style="fill: #7c3aed" transform="translate(605.808584 135.629563) scale(0.08 -0.08)">
     <defs>
      <path id="DejaVuSans-2b" d="M 2944 4013 
L 2944 2272 
L 4684 2272 
L 4684 1741 
L 2944 1741 
L 2944 0 
L 2419 0 
L 2419 1741 
L 678 1741 
L 678 2272 
L 2419 2272 
L 2419 4013 
L 2944 4013 
z
" transform="scale(0.015625)"/>
      <path id="DejaVuSans-70" d="M 1159 525 
L 1159 -1331 
L 581 -1331 
L 581 3500 
L 1159 3500 
L 1159 2969 
Q 1341 3281 1617 3432 
Q 1894 3584 2278 3584 
Q 2916 3584 3314 3078 
Q 3713 2572 3713 1747 
Q 3713 922 3314 415 
Q 2916 -91 2278 -91 
Q 1894 -91 1617 61 
Q 1341 213 1159 525 
z
M 3116 1747 
Q 3116 2381 2855 2742 
Q 2594 3103 2138 3103 
Q 1681 3103 1420 2742 
Q 1159 2381 1159 1747 
Q 1159 1113 1420 752 
Q 1681 391 2138 391 
Q 2594 391 2855 752 
Q 3116 1113 3116 1747 
z
" transform="scale(0.015625)"/>
     </defs>
     <use xlink:href="#DejaVuSans-2b"/>
     <use xlink:href="#DejaVuSans-20" x="83.789062"/>
     <use xlink:href="#DejaVuSans-70" x="115.576172"/>
     <use xlink:href="#DejaVuSans-6f" x="179.052734"/>
     <use xlink:href="#DejaVuSans-73" x="240.234375"/>
     <use xlink:href="#DejaVuSans-69" x="292.333984"/>
     <use xlink:href="#DejaVuSans-74" x="320.117188"/>
     <use xlink:href="#DejaVuSans-69" x="359.326172"/>
     <use xlink:href="#DejaVuSans-6f" x="387.109375"/>
     <use xlink:href="#DejaVuSans-6e" x="448.291016"/>
     <use xlink:href="#DejaVuSans-61" x="511.669922"/>
     <use xlink:href="#DejaVuSans-6c" x="572.949219"/>
    </g>
    <!-- encoding -->
    <g style="fill: #7c3aed" transform="translate(611.469834 144.587813) scale(0.08 -0.08)">
     <use xlink:href="#DejaVuSans-65"/>
     <use xlink:href="#DejaVuSans-6e" x="61.523438"/>
     <use xlink:href="#DejaVuSans-63" x="124.902344"/>
     <use xlink:href="#DejaVuSans-6f" x="179.882812"/>
     <use xlink:href="#DejaVuSans-64" x="241.064453"/>
     <use xlink:href="#DejaVuSans-69" x="304.541016"/>
     <use xlink:href="#DejaVuSans-6e" x="332.324219"/>
     <use xlink:href="#DejaVuSans-67" x="395.703125"/>
    </g>
   </g>
   <g id="text_24">
    <!-- LLM Tokenization Pipeline -->
    <g style="fill: #1f2937" transform="translate(295.909842 17.837813) scale(0.14 -0.14)">
     <defs>
      <path id="DejaVuSans-Bold-4c" d="M 588 4666 
L 1791 4666 
L 1791 909 
L 3903 909 
L 3903 0 
L 588 0 
L 588 4666 
z
" transform="scale(0.015625)"/>
      <path id="DejaVuSans-Bold-4d" d="M 588 4666 
L 2119 4666 
L 3181 2169 
L 4250 4666 
L 5778 4666 
L 5778 0 
L 4641 0 
L 4641 3413 
L 3566 897 
L 2803 897 
L 1728 3413 
L 1728 0 
L 588 0 
L 588 4666 
z
" transform="scale(0.015625)"/>
      <path id="DejaVuSans-Bold-20" transform="scale(0.015625)"/>
      <path id="DejaVuSans-Bold-54" d="M 31 4666 
L 4331 4666 
L 4331 3756 
L 2784 3756 
L 2784 0 
L 1581 0 
L 1581 3756 
L 31 3756 
L 31 4666 
z
" transform="scale(0.015625)"/>
      <path id="DejaVuSans-Bold-6f" d="M 2203 2784 
Q 1831 2784 1636 2517 
Q 1441 2250 1441 1747 
Q 1441 1244 1636 976 
Q 1831 709 2203 709 
Q 2569 709 2762 976 
Q 2956 1244 2956 1747 
Q 2956 2250 2762 2517 
Q 2569 2784 2203 2784 
z
M 2203 3584 
Q 3106 3584 3614 3096 
Q 4122 2609 4122 1747 
Q 4122 884 3614 396 
Q 3106 -91 2203 -91 
Q 1297 -91 786 396 
Q 275 884 275 1747 
Q 275 2609 786 3096 
Q 1297 3584 2203 3584 
z
" transform="scale(0.015625)"/>
      <path id="DejaVuSans-Bold-6b" d="M 538 4863 
L 1656 4863 
L 1656 2216 
L 2944 3500 
L 4244 3500 
L 2534 1894 
L 4378 0 
L 3022 0 
L 1656 1459 
L 1656 0 
L 538 0 
L 538 4863 
z
" transform="scale(0.015625)"/>
      <path id="DejaVuSans-Bold-65" d="M 4031 1759 
L 4031 1441 
L 1416 1441 
Q 1456 1047 1700 850 
Q 1944 653 2381 653 
Q 2734 653 3104 758 
Q 3475 863 3866 1075 
L 3866 213 
Q 3469 63 3072 -14 
Q 2675 -91 2278 -91 
Q 1328 -91 801 392 
Q 275 875 275 1747 
Q 275 2603 792 3093 
Q 1309 3584 2216 3584 
Q 3041 3584 3536 3087 
Q 4031 2591 4031 1759 
z
M 2881 2131 
Q 2881 2450 2695 2645 
Q 2509 2841 2209 2841 
Q 1884 2841 1681 2658 
Q 1478 2475 1428 2131 
L 2881 2131 
z
" transform="scale(0.015625)"/>
      <path id="DejaVuSans-Bold-6e" d="M 4056 2131 
L 4056 0 
L 2931 0 
L 2931 347 
L 2931 1631 
Q 2931 2084 2911 2256 
Q 2891 2428 2841 2509 
Q 2775 2619 2662 2680 
Q 2550 2741 2406 2741 
Q 2056 2741 1856 2470 
Q 1656 2200 1656 1722 
L 1656 0 
L 538 0 
L 538 3500 
L 1656 3500 
L 1656 2988 
Q 1909 3294 2193 3439 
Q 2478 3584 2822 3584 
Q 3428 3584 3742 3212 
Q 4056 2841 4056 2131 
z
" transform="scale(0.015625)"/>
      <path id="DejaVuSans-Bold-69" d="M 538 3500 
L 1656 3500 
L 1656 0 
L 538 0 
L 538 3500 
z
M 538 4863 
L 1656 4863 
L 1656 3950 
L 538 3950 
L 538 4863 
z
" transform="scale(0.015625)"/>
      <path id="DejaVuSans-Bold-7a" d="M 366 3500 
L 3419 3500 
L 3419 2719 
L 1575 800 
L 3419 800 
L 3419 0 
L 288 0 
L 288 781 
L 2131 2700 
L 366 2700 
L 366 3500 
z
" transform="scale(0.015625)"/>
      <path id="DejaVuSans-Bold-61" d="M 2106 1575 
Q 1756 1575 1579 1456 
Q 1403 1338 1403 1106 
Q 1403 894 1545 773 
Q 1688 653 1941 653 
Q 2256 653 2472 879 
Q 2688 1106 2688 1447 
L 2688 1575 
L 2106 1575 
z
M 3816 1997 
L 3816 0 
L 2688 0 
L 2688 519 
Q 2463 200 2181 54 
Q 1900 -91 1497 -91 
Q 953 -91 614 226 
Q 275 544 275 1050 
Q 275 1666 698 1953 
Q 1122 2241 2028 2241 
L 2688 2241 
L 2688 2328 
Q 2688 2594 2478 2717 
Q 2269 2841 1825 2841 
Q 1466 2841 1156 2769 
Q 847 2697 581 2553 
L 581 3406 
Q 941 3494 1303 3539 
Q 1666 3584 2028 3584 
Q 2975 3584 3395 3211 
Q 3816 2838 3816 1997 
z
" transform="scale(0.015625)"/>
      <path id="DejaVuSans-Bold-74" d="M 1759 4494 
L 1759 3500 
L 2913 3500 
L 2913 2700 
L 1759 2700 
L 1759 1216 
Q 1759 972 1856 886 
Q 1953 800 2241 800 
L 2816 800 
L 2816 0 
L 1856 0 
Q 1194 0 917 276 
Q 641 553 641 1216 
L 641 2700 
L 84 2700 
L 84 3500 
L 641 3500 
L 641 4494 
L 1759 4494 
z
" transform="scale(0.015625)"/>
      <path id="DejaVuSans-Bold-50" d="M 588 4666 
L 2584 4666 
Q 3475 4666 3951 4270 
Q 4428 3875 4428 3144 
Q 4428 2409 3951 2014 
Q 3475 1619 2584 1619 
L 1791 1619 
L 1791 0 
L 588 0 
L 588 4666 
z
M 1791 3794 
L 1791 2491 
L 2456 2491 
Q 2806 2491 2997 2661 
Q 3188 2831 3188 3144 
Q 3188 3456 2997 3625 
Q 2806 3794 2456 3794 
L 1791 3794 
z
" transform="scale(0.015625)"/>
      <path id="DejaVuSans-Bold-70" d="M 1656 506 
L 1656 -1331 
L 538 -1331 
L 538 3500 
L 1656 3500 
L 1656 2988 
Q 1888 3294 2169 3439 
Q 2450 3584 2816 3584 
Q 3463 3584 3878 3070 
Q 4294 2556 4294 1747 
Q 4294 938 3878 423 
Q 3463 -91 2816 -91 
Q 2450 -91 2169 54 
Q 1888 200 1656 506 
z
M 2400 2772 
Q 2041 2772 1848 2508 
Q 1656 2244 1656 1747 
Q 1656 1250 1848 986 
Q 2041 722 2400 722 
Q 2759 722 2948 984 
Q 3138 1247 3138 1747 
Q 3138 2247 2948 2509 
Q 2759 2772 2400 2772 
z
" transform="scale(0.015625)"/>
      <path id="DejaVuSans-Bold-6c" d="M 538 4863 
L 1656 4863 
L 1656 0 
L 538 0 
L 538 4863 
z
" transform="scale(0.015625)"/>
     </defs>
     <use xlink:href="#DejaVuSans-Bold-4c"/>
     <use xlink:href="#DejaVuSans-Bold-4c" x="63.720703"/>
     <use xlink:href="#DejaVuSans-Bold-4d" x="127.441406"/>
     <use xlink:href="#DejaVuSans-Bold-20" x="226.953125"/>
     <use xlink:href="#DejaVuSans-Bold-54" x="261.767578"/>
     <use xlink:href="#DejaVuSans-Bold-6f" x="316.730469"/>
     <use xlink:href="#DejaVuSans-Bold-6b" x="385.431641"/>
     <use xlink:href="#DejaVuSans-Bold-65" x="449.310547"/>
     <use xlink:href="#DejaVuSans-Bold-6e" x="517.132812"/>
     <use xlink:href="#DejaVuSans-Bold-69" x="588.324219"/>
     <use xlink:href="#DejaVuSans-Bold-7a" x="622.601562"/>
     <use xlink:href="#DejaVuSans-Bold-61" x="680.804688"/>
     <use xlink:href="#DejaVuSans-Bold-74" x="748.285156"/>
     <use xlink:href="#DejaVuSans-Bold-69" x="796.087891"/>
     <use xlink:href="#DejaVuSans-Bold-6f" x="830.365234"/>
     <use xlink:href="#DejaVuSans-Bold-6e" x="899.066406"/>
     <use xlink:href="#DejaVuSans-Bold-20" x="970.257812"/>
     <use xlink:href="#DejaVuSans-Bold-50" x="1005.072266"/>
     <use xlink:href="#DejaVuSans-Bold-69" x="1078.363281"/>
     <use xlink:href="#DejaVuSans-Bold-70" x="1112.640625"/>
     <use xlink:href="#DejaVuSans-Bold-65" x="1184.222656"/>
     <use xlink:href="#DejaVuSans-Bold-6c" x="1252.044922"/>
     <use xlink:href="#DejaVuSans-Bold-69" x="1286.322266"/>
     <use xlink:href="#DejaVuSans-Bold-6e" x="1320.599609"/>
     <use xlink:href="#DejaVuSans-Bold-65" x="1391.791016"/>
    </g>
   </g>
   <g id="text_25">
    <!-- ··· -->
    <g style="fill: #ffffff" transform="translate(609.531351 89.075938) scale(0.14 -0.14)">
     <defs>
      <path id="DejaVuSans-b7" d="M 684 2619 
L 1344 2619 
L 1344 1825 
L 684 1825 
L 684 2619 
z
" transform="scale(0.015625)"/>
     </defs>
     <use xlink:href="#DejaVuSans-b7"/>
     <use xlink:href="#DejaVuSans-b7" x="31.787109"/>
     <use xlink:href="#DejaVuSans-b7" x="63.574219"/>
    </g>
   </g>
  </g>
 </g>
 <defs>
  <clipPath id="pa803193300">
   <rect x="23.189686" y="25.837813" width="749.79" height="190"/>
  </clipPath>
 </defs>
</svg>
