<?xml version="1.0" encoding="utf-8" standalone="no"?>
<!DOCTYPE svg PUBLIC "-//W3C//DTD SVG 1.1//EN"
  "http://www.w3.org/Graphics/SVG/1.1/DTD/svg11.dtd">
<svg xmlns:xlink="http://www.w3.org/1999/xlink" width="928.343125pt" height="285.03625pt" viewBox="0 0 928.343125 285.03625" xmlns="http://www.w3.org/2000/svg" version="1.1">
 <metadata>
  <rdf:RDF xmlns:dc="http://purl.org/dc/elements/1.1/" xmlns:cc="http://creativecommons.org/ns#" xmlns:rdf="http://www.w3.org/1999/02/22-rdf-syntax-ns#">
   <cc:Work>
    <dc:type rdf:resource="http://purl.org/dc/dcmitype/StillImage"/>
    <dc:date>2026-04-24T07:26:54.488273</dc:date>
    <dc:format>image/svg+xml</dc:format>
    <dc:creator>
     <cc:Agent>
      <dc:title>Matplotlib v3.8.0, https://matplotlib.org/</dc:title>
     </cc:Agent>
    </dc:creator>
   </cc:Work>
  </rdf:RDF>
 </metadata>
 <defs>
  <style type="text/css">*{stroke-linejoin: round; stroke-linecap: butt}</style>
 </defs>
 <g id="figure_1">
  <g id="patch_1">
   <path d="M 0 285.03625 
L 928.343125 285.03625 
L 928.343125 0 
L 0 0 
z
" style="fill: #ffffff"/>
  </g>
  <g id="axes_1">
   <g id="patch_2">
    <path d="M 40.603125 247.48 
L 304.343125 247.48 
L 304.343125 49.92 
L 40.603125 49.92 
z
" style="fill: #ffffff"/>
   </g>
   <g id="matplotlib.axis_1">
    <g id="xtick_1">
     <g id="line2d_1">
      <path d="M 52.591307 247.48 
L 52.591307 49.92 
" clip-path="url(#p136ff49f31)" style="fill: none; stroke: #cbd5e1; stroke-opacity: 0.6; stroke-width: 0.5; stroke-linecap: square"/>
     </g>
     <g id="line2d_2">
      <defs>
       <path id="m40e85d44c6" d="M 0 0 
L 0 3.5 
" style="stroke: #000000; stroke-width: 0.8"/>
      </defs>
      <g>
       <use xlink:href="#m40e85d44c6" x="52.591307" y="247.48" style="stroke: #000000; stroke-width: 0.8"/>
      </g>
     </g>
     <g id="text_1">
      <!-- −3 -->
      <g transform="translate(45.220213 262.078437) scale(0.1 -0.1)">
       <defs>
        <path id="DejaVuSans-2212" d="M 678 2272 
L 4684 2272 
L 4684 1741 
L 678 1741 
L 678 2272 
z
" transform="scale(0.015625)"/>
        <path id="DejaVuSans-33" d="M 2597 2516 
Q 3050 2419 3304 2112 
Q 3559 1806 3559 1356 
Q 3559 666 3084 287 
Q 2609 -91 1734 -91 
Q 1441 -91 1130 -33 
Q 819 25 488 141 
L 488 750 
Q 750 597 1062 519 
Q 1375 441 1716 441 
Q 2309 441 2620 675 
Q 2931 909 2931 1356 
Q 2931 1769 2642 2001 
Q 2353 2234 1838 2234 
L 1294 2234 
L 1294 2753 
L 1863 2753 
Q 2328 2753 2575 2939 
Q 2822 3125 2822 3475 
Q 2822 3834 2567 4026 
Q 2313 4219 1838 4219 
Q 1578 4219 1281 4162 
Q 984 4106 628 3988 
L 628 4550 
Q 988 4650 1302 4700 
Q 1616 4750 1894 4750 
Q 2613 4750 3031 4423 
Q 3450 4097 3450 3541 
Q 3450 3153 3228 2886 
Q 3006 2619 2597 2516 
z
" transform="scale(0.015625)"/>
       </defs>
       <use xlink:href="#DejaVuSans-2212"/>
       <use xlink:href="#DejaVuSans-33" x="83.789062"/>
      </g>
     </g>
    </g>
    <g id="xtick_2">
     <g id="line2d_3">
      <path d="M 92.551913 247.48 
L 92.551913 49.92 
" clip-path="url(#p136ff49f31)" style="fill: none; stroke: #cbd5e1; stroke-opacity: 0.6; stroke-width: 0.5; stroke-linecap: square"/>
     </g>
     <g id="line2d_4">
      <g>
       <use xlink:href="#m40e85d44c6" x="92.551913" y="247.48" style="stroke: #000000; stroke-width: 0.8"/>
      </g>
     </g>
     <g id="text_2">
      <!-- −2 -->
      <g transform="translate(85.180819 262.078437) scale(0.1 -0.1)">
       <defs>
        <path id="DejaVuSans-32" d="M 1228 531 
L 3431 531 
L 3431 0 
L 469 0 
L 469 531 
Q 828 903 1448 1529 
Q 2069 2156 2228 2338 
Q 2531 2678 2651 2914 
Q 2772 3150 2772 3378 
Q 2772 3750 2511 3984 
Q 2250 4219 1831 4219 
Q 1534 4219 1204 4116 
Q 875 4013 500 3803 
L 500 4441 
Q 881 4594 1212 4672 
Q 1544 4750 1819 4750 
Q 2544 4750 2975 4387 
Q 3406 4025 3406 3419 
Q 3406 3131 3298 2873 
Q 3191 2616 2906 2266 
Q 2828 2175 2409 1742 
Q 1991 1309 1228 531 
z
" transform="scale(0.015625)"/>
       </defs>
       <use xlink:href="#DejaVuSans-2212"/>
       <use xlink:href="#DejaVuSans-32" x="83.789062"/>
      </g>
     </g>
    </g>
    <g id="xtick_3">
     <g id="line2d_5">
      <path d="M 132.512519 247.48 
L 132.512519 49.92 
" clip-path="url(#p136ff49f31)" style="fill: none; stroke: #cbd5e1; stroke-opacity: 0.6; stroke-width: 0.5; stroke-linecap: square"/>
     </g>
     <g id="line2d_6">
      <g>
       <use xlink:href="#m40e85d44c6" x="132.512519" y="247.48" style="stroke: #000000; stroke-width: 0.8"/>
      </g>
     </g>
     <g id="text_3">
      <!-- −1 -->
      <g transform="translate(125.141425 262.078437) scale(0.1 -0.1)">
       <defs>
        <path id="DejaVuSans-31" d="M 794 531 
L 1825 531 
L 1825 4091 
L 703 3866 
L 703 4441 
L 1819 4666 
L 2450 4666 
L 2450 531 
L 3481 531 
L 3481 0 
L 794 0 
L 794 531 
z
" transform="scale(0.015625)"/>
       </defs>
       <use xlink:href="#DejaVuSans-2212"/>
       <use xlink:href="#DejaVuSans-31" x="83.789062"/>
      </g>
     </g>
    </g>
    <g id="xtick_4">
     <g id="line2d_7">
      <path d="M 172.473125 247.48 
L 172.473125 49.92 
" clip-path="url(#p136ff49f31)" style="fill: none; stroke: #cbd5e1; stroke-opacity: 0.6; stroke-width: 0.5; stroke-linecap: square"/>
     </g>
     <g id="line2d_8">
      <g>
       <use xlink:href="#m40e85d44c6" x="172.473125" y="247.48" style="stroke: #000000; stroke-width: 0.8"/>
      </g>
     </g>
     <g id="text_4">
      <!-- 0 -->
      <g transform="translate(169.291875 262.078437) scale(0.1 -0.1)">
       <defs>
        <path id="DejaVuSans-30" d="M 2034 4250 
Q 1547 4250 1301 3770 
Q 1056 3291 1056 2328 
Q 1056 1369 1301 889 
Q 1547 409 2034 409 
Q 2525 409 2770 889 
Q 3016 1369 3016 2328 
Q 3016 3291 2770 3770 
Q 2525 4250 2034 4250 
z
M 2034 4750 
Q 2819 4750 3233 4129 
Q 3647 3509 3647 2328 
Q 3647 1150 3233 529 
Q 2819 -91 2034 -91 
Q 1250 -91 836 529 
Q 422 1150 422 2328 
Q 422 3509 836 4129 
Q 1250 4750 2034 4750 
z
" transform="scale(0.015625)"/>
       </defs>
       <use xlink:href="#DejaVuSans-30"/>
      </g>
     </g>
    </g>
    <g id="xtick_5">
     <g id="line2d_9">
      <path d="M 212.433731 247.48 
L 212.433731 49.92 
" clip-path="url(#p136ff49f31)" style="fill: none; stroke: #cbd5e1; stroke-opacity: 0.6; stroke-width: 0.5; stroke-linecap: square"/>
     </g>
     <g id="line2d_10">
      <g>
       <use xlink:href="#m40e85d44c6" x="212.433731" y="247.48" style="stroke: #000000; stroke-width: 0.8"/>
      </g>
     </g>
     <g id="text_5">
      <!-- 1 -->
      <g transform="translate(209.252481 262.078437) scale(0.1 -0.1)">
       <use xlink:href="#DejaVuSans-31"/>
      </g>
     </g>
    </g>
    <g id="xtick_6">
     <g id="line2d_11">
      <path d="M 252.394337 247.48 
L 252.394337 49.92 
" clip-path="url(#p136ff49f31)" style="fill: none; stroke: #cbd5e1; stroke-opacity: 0.6; stroke-width: 0.5; stroke-linecap: square"/>
     </g>
     <g id="line2d_12">
      <g>
       <use xlink:href="#m40e85d44c6" x="252.394337" y="247.48" style="stroke: #000000; stroke-width: 0.8"/>
      </g>
     </g>
     <g id="text_6">
      <!-- 2 -->
      <g transform="translate(249.213087 262.078437) scale(0.1 -0.1)">
       <use xlink:href="#DejaVuSans-32"/>
      </g>
     </g>
    </g>
    <g id="xtick_7">
     <g id="line2d_13">
      <path d="M 292.354943 247.48 
L 292.354943 49.92 
" clip-path="url(#p136ff49f31)" style="fill: none; stroke: #cbd5e1; stroke-opacity: 0.6; stroke-width: 0.5; stroke-linecap: square"/>
     </g>
     <g id="line2d_14">
      <g>
       <use xlink:href="#m40e85d44c6" x="292.354943" y="247.48" style="stroke: #000000; stroke-width: 0.8"/>
      </g>
     </g>
     <g id="text_7">
      <!-- 3 -->
      <g transform="translate(289.173693 262.078437) scale(0.1 -0.1)">
       <use xlink:href="#DejaVuSans-33"/>
      </g>
     </g>
    </g>
    <g id="text_8">
     <!-- Weight w -->
     <g transform="translate(149.37625 275.756562) scale(0.1 -0.1)">
      <defs>
       <path id="DejaVuSans-57" d="M 213 4666 
L 850 4666 
L 1831 722 
L 2809 4666 
L 3519 4666 
L 4500 722 
L 5478 4666 
L 6119 4666 
L 4947 0 
L 4153 0 
L 3169 4050 
L 2175 0 
L 1381 0 
L 213 4666 
z
" transform="scale(0.015625)"/>
       <path id="DejaVuSans-65" d="M 3597 1894 
L 3597 1613 
L 953 1613 
Q 991 1019 1311 708 
Q 1631 397 2203 397 
Q 2534 397 2845 478 
Q 3156 559 3463 722 
L 3463 178 
Q 3153 47 2828 -22 
Q 2503 -91 2169 -91 
Q 1331 -91 842 396 
Q 353 884 353 1716 
Q 353 2575 817 3079 
Q 1281 3584 2069 3584 
Q 2775 3584 3186 3129 
Q 3597 2675 3597 1894 
z
M 3022 2063 
Q 3016 2534 2758 2815 
Q 2500 3097 2075 3097 
Q 1594 3097 1305 2825 
Q 1016 2553 972 2059 
L 3022 2063 
z
" transform="scale(0.015625)"/>
       <path id="DejaVuSans-69" d="M 603 3500 
L 1178 3500 
L 1178 0 
L 603 0 
L 603 3500 
z
M 603 4863 
L 1178 4863 
L 1178 4134 
L 603 4134 
L 603 4863 
z
" transform="scale(0.015625)"/>
       <path id="DejaVuSans-67" d="M 2906 1791 
Q 2906 2416 2648 2759 
Q 2391 3103 1925 3103 
Q 1463 3103 1205 2759 
Q 947 2416 947 1791 
Q 947 1169 1205 825 
Q 1463 481 1925 481 
Q 2391 481 2648 825 
Q 2906 1169 2906 1791 
z
M 3481 434 
Q 3481 -459 3084 -895 
Q 2688 -1331 1869 -1331 
Q 1566 -1331 1297 -1286 
Q 1028 -1241 775 -1147 
L 775 -588 
Q 1028 -725 1275 -790 
Q 1522 -856 1778 -856 
Q 2344 -856 2625 -561 
Q 2906 -266 2906 331 
L 2906 616 
Q 2728 306 2450 153 
Q 2172 0 1784 0 
Q 1141 0 747 490 
Q 353 981 353 1791 
Q 353 2603 747 3093 
Q 1141 3584 1784 3584 
Q 2172 3584 2450 3431 
Q 2728 3278 2906 2969 
L 2906 3500 
L 3481 3500 
L 3481 434 
z
" transform="scale(0.015625)"/>
       <path id="DejaVuSans-68" d="M 3513 2113 
L 3513 0 
L 2938 0 
L 2938 2094 
Q 2938 2591 2744 2837 
Q 2550 3084 2163 3084 
Q 1697 3084 1428 2787 
Q 1159 2491 1159 1978 
L 1159 0 
L 581 0 
L 581 4863 
L 1159 4863 
L 1159 2956 
Q 1366 3272 1645 3428 
Q 1925 3584 2291 3584 
Q 2894 3584 3203 3211 
Q 3513 2838 3513 2113 
z
" transform="scale(0.015625)"/>
       <path id="DejaVuSans-74" d="M 1172 4494 
L 1172 3500 
L 2356 3500 
L 2356 3053 
L 1172 3053 
L 1172 1153 
Q 1172 725 1289 603 
Q 1406 481 1766 481 
L 2356 481 
L 2356 0 
L 1766 0 
Q 1100 0 847 248 
Q 594 497 594 1153 
L 594 3053 
L 172 3053 
L 172 3500 
L 594 3500 
L 594 4494 
L 1172 4494 
z
" transform="scale(0.015625)"/>
       <path id="DejaVuSans-20" transform="scale(0.015625)"/>
       <path id="DejaVuSans-77" d="M 269 3500 
L 844 3500 
L 1563 769 
L 2278 3500 
L 2956 3500 
L 3675 769 
L 4391 3500 
L 4966 3500 
L 4050 0 
L 3372 0 
L 2619 2869 
L 1863 0 
L 1184 0 
L 269 3500 
z
" transform="scale(0.015625)"/>
      </defs>
      <use xlink:href="#DejaVuSans-57"/>
      <use xlink:href="#DejaVuSans-65" x="93.001953"/>
      <use xlink:href="#DejaVuSans-69" x="154.525391"/>
      <use xlink:href="#DejaVuSans-67" x="182.308594"/>
      <use xlink:href="#DejaVuSans-68" x="245.785156"/>
      <use xlink:href="#DejaVuSans-74" x="309.164062"/>
      <use xlink:href="#DejaVuSans-20" x="348.373047"/>
      <use xlink:href="#DejaVuSans-77" x="380.160156"/>
     </g>
    </g>
   </g>
   <g id="matplotlib.axis_2">
    <g id="ytick_1">
     <g id="line2d_15">
      <path d="M 40.603125 243.798607 
L 304.343125 243.798607 
" clip-path="url(#p136ff49f31)" style="fill: none; stroke: #cbd5e1; stroke-opacity: 0.6; stroke-width: 0.5; stroke-linecap: square"/>
     </g>
     <g id="line2d_16">
      <defs>
       <path id="m826dab7c70" d="M 0 0 
L -3.5 0 
" style="stroke: #000000; stroke-width: 0.8"/>
      </defs>
      <g>
       <use xlink:href="#m826dab7c70" x="40.603125" y="243.798607" style="stroke: #000000; stroke-width: 0.8"/>
      </g>
     </g>
     <g id="text_9">
      <!-- 0 -->
      <g transform="translate(27.240625 247.597826) scale(0.1 -0.1)">
       <use xlink:href="#DejaVuSans-30"/>
      </g>
     </g>
    </g>
    <g id="ytick_2">
     <g id="line2d_17">
      <path d="M 40.603125 205.655861 
L 304.343125 205.655861 
" clip-path="url(#p136ff49f31)" style="fill: none; stroke: #cbd5e1; stroke-opacity: 0.6; stroke-width: 0.5; stroke-linecap: square"/>
     </g>
     <g id="line2d_18">
      <g>
       <use xlink:href="#m826dab7c70" x="40.603125" y="205.655861" style="stroke: #000000; stroke-width: 0.8"/>
      </g>
     </g>
     <g id="text_10">
      <!-- 2 -->
      <g transform="translate(27.240625 209.45508) scale(0.1 -0.1)">
       <use xlink:href="#DejaVuSans-32"/>
      </g>
     </g>
    </g>
    <g id="ytick_3">
     <g id="line2d_19">
      <path d="M 40.603125 167.513115 
L 304.343125 167.513115 
" clip-path="url(#p136ff49f31)" style="fill: none; stroke: #cbd5e1; stroke-opacity: 0.6; stroke-width: 0.5; stroke-linecap: square"/>
     </g>
     <g id="line2d_20">
      <g>
       <use xlink:href="#m826dab7c70" x="40.603125" y="167.513115" style="stroke: #000000; stroke-width: 0.8"/>
      </g>
     </g>
     <g id="text_11">
      <!-- 4 -->
      <g transform="translate(27.240625 171.312334) scale(0.1 -0.1)">
       <defs>
        <path id="DejaVuSans-34" d="M 2419 4116 
L 825 1625 
L 2419 1625 
L 2419 4116 
z
M 2253 4666 
L 3047 4666 
L 3047 1625 
L 3713 1625 
L 3713 1100 
L 3047 1100 
L 3047 0 
L 2419 0 
L 2419 1100 
L 313 1100 
L 313 1709 
L 2253 4666 
z
" transform="scale(0.015625)"/>
       </defs>
       <use xlink:href="#DejaVuSans-34"/>
      </g>
     </g>
    </g>
    <g id="ytick_4">
     <g id="line2d_21">
      <path d="M 40.603125 129.37037 
L 304.343125 129.37037 
" clip-path="url(#p136ff49f31)" style="fill: none; stroke: #cbd5e1; stroke-opacity: 0.6; stroke-width: 0.5; stroke-linecap: square"/>
     </g>
     <g id="line2d_22">
      <g>
       <use xlink:href="#m826dab7c70" x="40.603125" y="129.37037" style="stroke: #000000; stroke-width: 0.8"/>
      </g>
     </g>
     <g id="text_12">
      <!-- 6 -->
      <g transform="translate(27.240625 133.169588) scale(0.1 -0.1)">
       <defs>
        <path id="DejaVuSans-36" d="M 2113 2584 
Q 1688 2584 1439 2293 
Q 1191 2003 1191 1497 
Q 1191 994 1439 701 
Q 1688 409 2113 409 
Q 2538 409 2786 701 
Q 3034 994 3034 1497 
Q 3034 2003 2786 2293 
Q 2538 2584 2113 2584 
z
M 3366 4563 
L 3366 3988 
Q 3128 4100 2886 4159 
Q 2644 4219 2406 4219 
Q 1781 4219 1451 3797 
Q 1122 3375 1075 2522 
Q 1259 2794 1537 2939 
Q 1816 3084 2150 3084 
Q 2853 3084 3261 2657 
Q 3669 2231 3669 1497 
Q 3669 778 3244 343 
Q 2819 -91 2113 -91 
Q 1303 -91 875 529 
Q 447 1150 447 2328 
Q 447 3434 972 4092 
Q 1497 4750 2381 4750 
Q 2619 4750 2861 4703 
Q 3103 4656 3366 4563 
z
" transform="scale(0.015625)"/>
       </defs>
       <use xlink:href="#DejaVuSans-36"/>
      </g>
     </g>
    </g>
    <g id="ytick_5">
     <g id="line2d_23">
      <path d="M 40.603125 91.227624 
L 304.343125 91.227624 
" clip-path="url(#p136ff49f31)" style="fill: none; stroke: #cbd5e1; stroke-opacity: 0.6; stroke-width: 0.5; stroke-linecap: square"/>
     </g>
     <g id="line2d_24">
      <g>
       <use xlink:href="#m826dab7c70" x="40.603125" y="91.227624" style="stroke: #000000; stroke-width: 0.8"/>
      </g>
     </g>
     <g id="text_13">
      <!-- 8 -->
      <g transform="translate(27.240625 95.026843) scale(0.1 -0.1)">
       <defs>
        <path id="DejaVuSans-38" d="M 2034 2216 
Q 1584 2216 1326 1975 
Q 1069 1734 1069 1313 
Q 1069 891 1326 650 
Q 1584 409 2034 409 
Q 2484 409 2743 651 
Q 3003 894 3003 1313 
Q 3003 1734 2745 1975 
Q 2488 2216 2034 2216 
z
M 1403 2484 
Q 997 2584 770 2862 
Q 544 3141 544 3541 
Q 544 4100 942 4425 
Q 1341 4750 2034 4750 
Q 2731 4750 3128 4425 
Q 3525 4100 3525 3541 
Q 3525 3141 3298 2862 
Q 3072 2584 2669 2484 
Q 3125 2378 3379 2068 
Q 3634 1759 3634 1313 
Q 3634 634 3220 271 
Q 2806 -91 2034 -91 
Q 1263 -91 848 271 
Q 434 634 434 1313 
Q 434 1759 690 2068 
Q 947 2378 1403 2484 
z
M 1172 3481 
Q 1172 3119 1398 2916 
Q 1625 2713 2034 2713 
Q 2441 2713 2670 2916 
Q 2900 3119 2900 3481 
Q 2900 3844 2670 4047 
Q 2441 4250 2034 4250 
Q 1625 4250 1398 4047 
Q 1172 3844 1172 3481 
z
" transform="scale(0.015625)"/>
       </defs>
       <use xlink:href="#DejaVuSans-38"/>
      </g>
     </g>
    </g>
    <g id="ytick_6">
     <g id="line2d_25">
      <path d="M 40.603125 53.084878 
L 304.343125 53.084878 
" clip-path="url(#p136ff49f31)" style="fill: none; stroke: #cbd5e1; stroke-opacity: 0.6; stroke-width: 0.5; stroke-linecap: square"/>
     </g>
     <g id="line2d_26">
      <g>
       <use xlink:href="#m826dab7c70" x="40.603125" y="53.084878" style="stroke: #000000; stroke-width: 0.8"/>
      </g>
     </g>
     <g id="text_14">
      <!-- 10 -->
      <g transform="translate(20.878125 56.884097) scale(0.1 -0.1)">
       <use xlink:href="#DejaVuSans-31"/>
       <use xlink:href="#DejaVuSans-30" x="63.623047"/>
      </g>
     </g>
    </g>
    <g id="text_15">
     <!-- Loss -->
     <g transform="translate(14.798438 159.667187) rotate(-90) scale(0.1 -0.1)">
      <defs>
       <path id="DejaVuSans-4c" d="M 628 4666 
L 1259 4666 
L 1259 531 
L 3531 531 
L 3531 0 
L 628 0 
L 628 4666 
z
" transform="scale(0.015625)"/>
       <path id="DejaVuSans-6f" d="M 1959 3097 
Q 1497 3097 1228 2736 
Q 959 2375 959 1747 
Q 959 1119 1226 758 
Q 1494 397 1959 397 
Q 2419 397 2687 759 
Q 2956 1122 2956 1747 
Q 2956 2369 2687 2733 
Q 2419 3097 1959 3097 
z
M 1959 3584 
Q 2709 3584 3137 3096 
Q 3566 2609 3566 1747 
Q 3566 888 3137 398 
Q 2709 -91 1959 -91 
Q 1206 -91 779 398 
Q 353 888 353 1747 
Q 353 2609 779 3096 
Q 1206 3584 1959 3584 
z
" transform="scale(0.015625)"/>
       <path id="DejaVuSans-73" d="M 2834 3397 
L 2834 2853 
Q 2591 2978 2328 3040 
Q 2066 3103 1784 3103 
Q 1356 3103 1142 2972 
Q 928 2841 928 2578 
Q 928 2378 1081 2264 
Q 1234 2150 1697 2047 
L 1894 2003 
Q 2506 1872 2764 1633 
Q 3022 1394 3022 966 
Q 3022 478 2636 193 
Q 2250 -91 1575 -91 
Q 1294 -91 989 -36 
Q 684 19 347 128 
L 347 722 
Q 666 556 975 473 
Q 1284 391 1588 391 
Q 1994 391 2212 530 
Q 2431 669 2431 922 
Q 2431 1156 2273 1281 
Q 2116 1406 1581 1522 
L 1381 1569 
Q 847 1681 609 1914 
Q 372 2147 372 2553 
Q 372 3047 722 3315 
Q 1072 3584 1716 3584 
Q 2034 3584 2315 3537 
Q 2597 3491 2834 3397 
z
" transform="scale(0.015625)"/>
      </defs>
      <use xlink:href="#DejaVuSans-4c"/>
      <use xlink:href="#DejaVuSans-6f" x="53.962891"/>
      <use xlink:href="#DejaVuSans-73" x="115.144531"/>
      <use xlink:href="#DejaVuSans-73" x="167.244141"/>
     </g>
    </g>
   </g>
   <g id="line2d_27">
    <path d="M 52.591307 66.341129 
L 55.798847 76.805447 
L 58.204502 83.965678 
L 60.610158 90.479811 
L 63.015813 96.346306 
L 65.421468 101.609427 
L 67.827123 106.355265 
L 71.034663 112.089691 
L 80.657284 128.539791 
L 83.864825 134.794793 
L 87.072365 141.709509 
L 90.279905 149.244403 
L 95.091216 161.290976 
L 99.902526 173.296899 
L 103.110066 180.684295 
L 105.515722 185.672298 
L 107.921377 190.076608 
L 109.525147 192.658919 
L 111.128917 194.950231 
L 112.732687 196.954133 
L 114.336457 198.68328 
L 115.940227 200.15889 
L 117.543998 201.409889 
L 119.949653 202.94429 
L 122.355308 204.193972 
L 128.770389 207.288953 
L 131.176044 208.754802 
L 133.581699 210.544588 
L 135.987354 212.704539 
L 138.393009 215.23517 
L 140.798665 218.091232 
L 144.006205 222.250198 
L 149.6194 229.617589 
L 152.025056 232.419341 
L 154.430711 234.799598 
L 156.034481 236.094303 
L 157.638251 237.124547 
L 159.242021 237.873023 
L 160.845791 238.331268 
L 162.449562 238.5 
L 164.053332 238.38909 
L 165.657102 238.017167 
L 167.260872 237.410869 
L 168.864642 236.603775 
L 171.270297 235.103476 
L 175.279723 232.200695 
L 178.487263 229.920515 
L 180.892918 228.443386 
L 183.298573 227.275186 
L 184.902344 226.697167 
L 186.506114 226.287301 
L 188.109884 226.041694 
L 190.515539 225.950586 
L 192.921194 226.1191 
L 200.13816 226.921674 
L 201.74193 226.877599 
L 203.3457 226.657872 
L 204.94947 226.225079 
L 206.553241 225.547894 
L 208.157011 224.602331 
L 209.760781 223.37271 
L 211.364551 221.852286 
L 212.968321 220.043518 
L 214.572091 217.957973 
L 216.977746 214.357073 
L 219.383402 210.280787 
L 222.590942 204.334513 
L 230.609793 189.110119 
L 233.817333 183.689011 
L 236.222988 180.047077 
L 238.628643 176.777523 
L 241.034299 173.838736 
L 244.241839 170.284886 
L 249.855034 164.205008 
L 252.26069 161.26421 
L 254.666345 157.91255 
L 257.072 154.032932 
L 259.477655 149.543303 
L 261.88331 144.404035 
L 264.288966 138.621484 
L 266.694621 132.247421 
L 269.902161 122.993346 
L 274.713472 108.136848 
L 280.326667 90.754275 
L 283.534207 81.39346 
L 286.741748 72.669908 
L 289.949288 64.598177 
L 292.354943 58.9 
L 292.354943 58.9 
" clip-path="url(#p136ff49f31)" style="fill: none; stroke: #cbd5e1; stroke-width: 2; stroke-linecap: square"/>
   </g>
   <g id="line2d_28">
    <path d="M 272.37464 115.446295 
L 271.07658 119.441841 
L 269.798651 123.302862 
L 268.548047 126.990148 
L 267.331038 130.473068 
L 266.152739 133.73062 
L 265.016992 136.751405 
L 263.926353 139.532734 
L 262.882175 142.079163 
L 261.884748 144.400769 
L 260.933472 146.511446 
L 260.027048 148.427375 
L 259.163657 150.165781 
L 258.341117 151.743991 
L 257.557019 153.178774 
L 256.808836 154.485917 
L 256.094007 155.679988 
L 255.409996 156.774231 
L 254.754338 157.780561 
L 254.124666 158.709613 
L 253.518728 159.570833 
" clip-path="url(#p136ff49f31)" style="fill: none; stroke: #16a34a; stroke-width: 1.5; stroke-linecap: square"/>
    <defs>
     <path id="m936082eb7b" d="M 0 2 
C 0.530406 2 1.03916 1.789267 1.414214 1.414214 
C 1.789267 1.03916 2 0.530406 2 0 
C 2 -0.530406 1.789267 -1.03916 1.414214 -1.414214 
C 1.03916 -1.789267 0.530406 -2 0 -2 
C -0.530406 -2 -1.03916 -1.789267 -1.414214 -1.414214 
C -1.789267 -1.03916 -2 -0.530406 -2 0 
C -2 0.530406 -1.789267 1.03916 -1.414214 1.414214 
C -1.03916 1.789267 -0.530406 2 0 2 
z
" style="stroke: #16a34a"/>
    </defs>
    <g clip-path="url(#p136ff49f31)">
     <use xlink:href="#m936082eb7b" x="272.37464" y="115.446295" style="fill: #16a34a; stroke: #16a34a"/>
     <use xlink:href="#m936082eb7b" x="271.07658" y="119.441841" style="fill: #16a34a; stroke: #16a34a"/>
     <use xlink:href="#m936082eb7b" x="269.798651" y="123.302862" style="fill: #16a34a; stroke: #16a34a"/>
     <use xlink:href="#m936082eb7b" x="268.548047" y="126.990148" style="fill: #16a34a; stroke: #16a34a"/>
     <use xlink:href="#m936082eb7b" x="267.331038" y="130.473068" style="fill: #16a34a; stroke: #16a34a"/>
     <use xlink:href="#m936082eb7b" x="266.152739" y="133.73062" style="fill: #16a34a; stroke: #16a34a"/>
     <use xlink:href="#m936082eb7b" x="265.016992" y="136.751405" style="fill: #16a34a; stroke: #16a34a"/>
     <use xlink:href="#m936082eb7b" x="263.926353" y="139.532734" style="fill: #16a34a; stroke: #16a34a"/>
     <use xlink:href="#m936082eb7b" x="262.882175" y="142.079163" style="fill: #16a34a; stroke: #16a34a"/>
     <use xlink:href="#m936082eb7b" x="261.884748" y="144.400769" style="fill: #16a34a; stroke: #16a34a"/>
     <use xlink:href="#m936082eb7b" x="260.933472" y="146.511446" style="fill: #16a34a; stroke: #16a34a"/>
     <use xlink:href="#m936082eb7b" x="260.027048" y="148.427375" style="fill: #16a34a; stroke: #16a34a"/>
     <use xlink:href="#m936082eb7b" x="259.163657" y="150.165781" style="fill: #16a34a; stroke: #16a34a"/>
     <use xlink:href="#m936082eb7b" x="258.341117" y="151.743991" style="fill: #16a34a; stroke: #16a34a"/>
     <use xlink:href="#m936082eb7b" x="257.557019" y="153.178774" style="fill: #16a34a; stroke: #16a34a"/>
     <use xlink:href="#m936082eb7b" x="256.808836" y="154.485917" style="fill: #16a34a; stroke: #16a34a"/>
     <use xlink:href="#m936082eb7b" x="256.094007" y="155.679988" style="fill: #16a34a; stroke: #16a34a"/>
     <use xlink:href="#m936082eb7b" x="255.409996" y="156.774231" style="fill: #16a34a; stroke: #16a34a"/>
     <use xlink:href="#m936082eb7b" x="254.754338" y="157.780561" style="fill: #16a34a; stroke: #16a34a"/>
     <use xlink:href="#m936082eb7b" x="254.124666" y="158.709613" style="fill: #16a34a; stroke: #16a34a"/>
     <use xlink:href="#m936082eb7b" x="253.518728" y="159.570833" style="fill: #16a34a; stroke: #16a34a"/>
    </g>
   </g>
   <g id="patch_3">
    <path d="M 40.603125 247.48 
L 40.603125 49.92 
" style="fill: none; stroke: #000000; stroke-width: 0.8; stroke-linejoin: miter; stroke-linecap: square"/>
   </g>
   <g id="patch_4">
    <path d="M 40.603125 247.48 
L 304.343125 247.48 
" style="fill: none; stroke: #000000; stroke-width: 0.8; stroke-linejoin: miter; stroke-linecap: square"/>
   </g>
   <g id="text_16">
    <!-- Converges but very slowly -->
    <g style="fill: #16a34a" transform="translate(190.385925 61.92555) scale(0.08 -0.08)">
     <defs>
      <path id="DejaVuSans-Oblique-43" d="M 4447 4306 
L 4319 3641 
Q 4019 3944 3683 4091 
Q 3347 4238 2956 4238 
Q 2422 4238 2017 3981 
Q 1613 3725 1319 3200 
Q 1131 2863 1032 2486 
Q 934 2109 934 1728 
Q 934 1091 1264 756 
Q 1594 422 2222 422 
Q 2656 422 3056 561 
Q 3456 700 3834 978 
L 3688 231 
Q 3316 72 2936 -9 
Q 2556 -91 2175 -91 
Q 1278 -91 773 396 
Q 269 884 269 1753 
Q 269 2309 461 2846 
Q 653 3384 1013 3828 
Q 1394 4300 1883 4525 
Q 2372 4750 3022 4750 
Q 3422 4750 3780 4639 
Q 4138 4528 4447 4306 
z
" transform="scale(0.015625)"/>
      <path id="DejaVuSans-Oblique-6f" d="M 1625 -91 
Q 1009 -91 651 289 
Q 294 669 294 1325 
Q 294 1706 417 2101 
Q 541 2497 738 2766 
Q 1047 3184 1428 3384 
Q 1809 3584 2291 3584 
Q 2888 3584 3255 3212 
Q 3622 2841 3622 2241 
Q 3622 1825 3500 1412 
Q 3378 1000 3181 728 
Q 2875 309 2494 109 
Q 2113 -91 1625 -91 
z
M 891 1344 
Q 891 869 1089 633 
Q 1288 397 1691 397 
Q 2269 397 2648 901 
Q 3028 1406 3028 2181 
Q 3028 2634 2825 2865 
Q 2622 3097 2228 3097 
Q 1903 3097 1650 2945 
Q 1397 2794 1197 2484 
Q 1050 2253 970 1956 
Q 891 1659 891 1344 
z
" transform="scale(0.015625)"/>
      <path id="DejaVuSans-Oblique-6e" d="M 3566 2113 
L 3156 0 
L 2578 0 
L 2988 2091 
Q 3016 2238 3031 2350 
Q 3047 2463 3047 2528 
Q 3047 2791 2881 2937 
Q 2716 3084 2419 3084 
Q 1956 3084 1622 2776 
Q 1288 2469 1184 1941 
L 800 0 
L 225 0 
L 903 3500 
L 1478 3500 
L 1363 2950 
Q 1603 3253 1940 3418 
Q 2278 3584 2650 3584 
Q 3113 3584 3367 3334 
Q 3622 3084 3622 2631 
Q 3622 2519 3608 2391 
Q 3594 2263 3566 2113 
z
" transform="scale(0.015625)"/>
      <path id="DejaVuSans-Oblique-76" d="M 459 3500 
L 1069 3500 
L 1581 525 
L 3256 3500 
L 3866 3500 
L 1875 0 
L 1100 0 
L 459 3500 
z
" transform="scale(0.015625)"/>
      <path id="DejaVuSans-Oblique-65" d="M 3078 2063 
Q 3088 2113 3092 2166 
Q 3097 2219 3097 2272 
Q 3097 2653 2873 2875 
Q 2650 3097 2266 3097 
Q 1838 3097 1509 2826 
Q 1181 2556 1013 2059 
L 3078 2063 
z
M 3578 1613 
L 903 1613 
Q 884 1494 878 1425 
Q 872 1356 872 1306 
Q 872 872 1139 634 
Q 1406 397 1894 397 
Q 2269 397 2603 481 
Q 2938 566 3225 728 
L 3116 159 
Q 2806 34 2476 -28 
Q 2147 -91 1806 -91 
Q 1078 -91 686 257 
Q 294 606 294 1247 
Q 294 1794 489 2264 
Q 684 2734 1063 3103 
Q 1306 3334 1642 3459 
Q 1978 3584 2356 3584 
Q 2950 3584 3301 3228 
Q 3653 2872 3653 2272 
Q 3653 2128 3634 1964 
Q 3616 1800 3578 1613 
z
" transform="scale(0.015625)"/>
      <path id="DejaVuSans-Oblique-72" d="M 2853 2969 
Q 2766 3016 2653 3041 
Q 2541 3066 2413 3066 
Q 1953 3066 1609 2717 
Q 1266 2369 1153 1784 
L 800 0 
L 225 0 
L 909 3500 
L 1484 3500 
L 1375 2956 
Q 1603 3259 1920 3421 
Q 2238 3584 2597 3584 
Q 2691 3584 2781 3573 
Q 2872 3563 2963 3538 
L 2853 2969 
z
" transform="scale(0.015625)"/>
      <path id="DejaVuSans-Oblique-67" d="M 3816 3500 
L 3219 434 
Q 3047 -456 2561 -893 
Q 2075 -1331 1253 -1331 
Q 950 -1331 690 -1286 
Q 431 -1241 206 -1147 
L 313 -588 
Q 525 -725 762 -790 
Q 1000 -856 1269 -856 
Q 1816 -856 2167 -557 
Q 2519 -259 2631 300 
L 2681 563 
Q 2441 288 2122 144 
Q 1803 0 1434 0 
Q 903 0 598 351 
Q 294 703 294 1319 
Q 294 1803 478 2267 
Q 663 2731 997 3091 
Q 1219 3328 1514 3456 
Q 1809 3584 2131 3584 
Q 2484 3584 2746 3420 
Q 3009 3256 3138 2956 
L 3238 3500 
L 3816 3500 
z
M 2950 2216 
Q 2950 2641 2750 2872 
Q 2550 3103 2181 3103 
Q 1953 3103 1747 3012 
Q 1541 2922 1394 2759 
Q 1156 2491 1023 2127 
Q 891 1763 891 1375 
Q 891 944 1092 712 
Q 1294 481 1672 481 
Q 2219 481 2584 976 
Q 2950 1472 2950 2216 
z
" transform="scale(0.015625)"/>
      <path id="DejaVuSans-Oblique-73" d="M 3200 3397 
L 3091 2853 
Q 2863 2978 2609 3040 
Q 2356 3103 2088 3103 
Q 1634 3103 1373 2948 
Q 1113 2794 1113 2528 
Q 1113 2219 1719 2053 
Q 1766 2041 1788 2034 
L 1972 1978 
Q 2547 1819 2739 1644 
Q 2931 1469 2931 1166 
Q 2931 609 2489 259 
Q 2047 -91 1331 -91 
Q 1053 -91 747 -37 
Q 441 16 72 128 
L 184 722 
Q 500 559 806 475 
Q 1113 391 1394 391 
Q 1816 391 2080 572 
Q 2344 753 2344 1031 
Q 2344 1331 1650 1516 
L 1591 1531 
L 1394 1581 
Q 956 1697 753 1886 
Q 550 2075 550 2369 
Q 550 2928 970 3256 
Q 1391 3584 2113 3584 
Q 2397 3584 2667 3537 
Q 2938 3491 3200 3397 
z
" transform="scale(0.015625)"/>
      <path id="DejaVuSans-Oblique-20" transform="scale(0.015625)"/>
      <path id="DejaVuSans-Oblique-62" d="M 3169 2138 
Q 3169 2591 2961 2847 
Q 2753 3103 2388 3103 
Q 2122 3103 1889 2973 
Q 1656 2844 1484 2597 
Q 1303 2338 1198 1995 
Q 1094 1653 1094 1313 
Q 1094 881 1298 636 
Q 1503 391 1863 391 
Q 2134 391 2365 517 
Q 2597 644 2772 891 
Q 2950 1147 3059 1487 
Q 3169 1828 3169 2138 
z
M 1381 2969 
Q 1594 3256 1914 3420 
Q 2234 3584 2584 3584 
Q 3122 3584 3439 3221 
Q 3756 2859 3756 2241 
Q 3756 1734 3570 1259 
Q 3384 784 3041 416 
Q 2816 172 2522 40 
Q 2228 -91 1906 -91 
Q 1566 -91 1316 65 
Q 1066 222 909 531 
L 806 0 
L 231 0 
L 1178 4863 
L 1753 4863 
L 1381 2969 
z
" transform="scale(0.015625)"/>
      <path id="DejaVuSans-Oblique-75" d="M 428 1388 
L 838 3500 
L 1416 3500 
L 1006 1409 
Q 975 1256 961 1147 
Q 947 1038 947 966 
Q 947 700 1109 554 
Q 1272 409 1569 409 
Q 2031 409 2368 721 
Q 2706 1034 2809 1563 
L 3194 3500 
L 3769 3500 
L 3091 0 
L 2516 0 
L 2631 550 
Q 2388 244 2052 76 
Q 1716 -91 1338 -91 
Q 878 -91 622 161 
Q 366 413 366 863 
Q 366 956 381 1097 
Q 397 1238 428 1388 
z
" transform="scale(0.015625)"/>
      <path id="DejaVuSans-Oblique-74" d="M 2706 3500 
L 2619 3053 
L 1472 3053 
L 1100 1153 
Q 1081 1047 1072 975 
Q 1063 903 1063 863 
Q 1063 663 1183 572 
Q 1303 481 1569 481 
L 2150 481 
L 2053 0 
L 1503 0 
Q 991 0 739 200 
Q 488 400 488 806 
Q 488 878 497 964 
Q 506 1050 525 1153 
L 897 3053 
L 409 3053 
L 500 3500 
L 978 3500 
L 1172 4494 
L 1747 4494 
L 1556 3500 
L 2706 3500 
z
" transform="scale(0.015625)"/>
      <path id="DejaVuSans-Oblique-79" d="M 1588 -325 
Q 1188 -997 936 -1164 
Q 684 -1331 294 -1331 
L -159 -1331 
L -63 -850 
L 269 -850 
Q 509 -850 678 -719 
Q 847 -588 1056 -206 
L 1234 128 
L 459 3500 
L 1069 3500 
L 1650 819 
L 3256 3500 
L 3859 3500 
L 1588 -325 
z
" transform="scale(0.015625)"/>
      <path id="DejaVuSans-Oblique-6c" d="M 1172 4863 
L 1747 4863 
L 800 0 
L 225 0 
L 1172 4863 
z
" transform="scale(0.015625)"/>
      <path id="DejaVuSans-Oblique-77" d="M 544 3500 
L 1113 3500 
L 1259 684 
L 2566 3500 
L 3231 3500 
L 3425 684 
L 4666 3500 
L 5241 3500 
L 3641 0 
L 2969 0 
L 2797 2900 
L 1459 0 
L 781 0 
L 544 3500 
z
" transform="scale(0.015625)"/>
     </defs>
     <use xlink:href="#DejaVuSans-Oblique-43"/>
     <use xlink:href="#DejaVuSans-Oblique-6f" x="69.824219"/>
     <use xlink:href="#DejaVuSans-Oblique-6e" x="131.005859"/>
     <use xlink:href="#DejaVuSans-Oblique-76" x="194.384766"/>
     <use xlink:href="#DejaVuSans-Oblique-65" x="253.564453"/>
     <use xlink:href="#DejaVuSans-Oblique-72" x="315.087891"/>
     <use xlink:href="#DejaVuSans-Oblique-67" x="356.201172"/>
     <use xlink:href="#DejaVuSans-Oblique-65" x="419.677734"/>
     <use xlink:href="#DejaVuSans-Oblique-73" x="481.201172"/>
     <use xlink:href="#DejaVuSans-Oblique-20" x="533.300781"/>
     <use xlink:href="#DejaVuSans-Oblique-62" x="565.087891"/>
     <use xlink:href="#DejaVuSans-Oblique-75" x="628.564453"/>
     <use xlink:href="#DejaVuSans-Oblique-74" x="691.943359"/>
     <use xlink:href="#DejaVuSans-Oblique-20" x="731.152344"/>
     <use xlink:href="#DejaVuSans-Oblique-76" x="762.939453"/>
     <use xlink:href="#DejaVuSans-Oblique-65" x="822.119141"/>
     <use xlink:href="#DejaVuSans-Oblique-72" x="883.642578"/>
     <use xlink:href="#DejaVuSans-Oblique-79" x="924.755859"/>
     <use xlink:href="#DejaVuSans-Oblique-20" x="983.935547"/>
     <use xlink:href="#DejaVuSans-Oblique-73" x="1015.722656"/>
     <use xlink:href="#DejaVuSans-Oblique-6c" x="1067.822266"/>
     <use xlink:href="#DejaVuSans-Oblique-6f" x="1095.605469"/>
     <use xlink:href="#DejaVuSans-Oblique-77" x="1156.787109"/>
     <use xlink:href="#DejaVuSans-Oblique-6c" x="1238.574219"/>
     <use xlink:href="#DejaVuSans-Oblique-79" x="1266.357422"/>
    </g>
   </g>
   <g id="text_17">
    <!-- Too Small (α=0.005) -->
    <g style="fill: #16a34a" transform="translate(115.749688 43.92) scale(0.1 -0.1)">
     <defs>
      <path id="DejaVuSans-Bold-54" d="M 31 4666 
L 4331 4666 
L 4331 3756 
L 2784 3756 
L 2784 0 
L 1581 0 
L 1581 3756 
L 31 3756 
L 31 4666 
z
" transform="scale(0.015625)"/>
      <path id="DejaVuSans-Bold-6f" d="M 2203 2784 
Q 1831 2784 1636 2517 
Q 1441 2250 1441 1747 
Q 1441 1244 1636 976 
Q 1831 709 2203 709 
Q 2569 709 2762 976 
Q 2956 1244 2956 1747 
Q 2956 2250 2762 2517 
Q 2569 2784 2203 2784 
z
M 2203 3584 
Q 3106 3584 3614 3096 
Q 4122 2609 4122 1747 
Q 4122 884 3614 396 
Q 3106 -91 2203 -91 
Q 1297 -91 786 396 
Q 275 884 275 1747 
Q 275 2609 786 3096 
Q 1297 3584 2203 3584 
z
" transform="scale(0.015625)"/>
      <path id="DejaVuSans-Bold-20" transform="scale(0.015625)"/>
      <path id="DejaVuSans-Bold-53" d="M 3834 4519 
L 3834 3531 
Q 3450 3703 3084 3790 
Q 2719 3878 2394 3878 
Q 1963 3878 1756 3759 
Q 1550 3641 1550 3391 
Q 1550 3203 1689 3098 
Q 1828 2994 2194 2919 
L 2706 2816 
Q 3484 2659 3812 2340 
Q 4141 2022 4141 1434 
Q 4141 663 3683 286 
Q 3225 -91 2284 -91 
Q 1841 -91 1394 -6 
Q 947 78 500 244 
L 500 1259 
Q 947 1022 1364 901 
Q 1781 781 2169 781 
Q 2563 781 2772 912 
Q 2981 1044 2981 1288 
Q 2981 1506 2839 1625 
Q 2697 1744 2272 1838 
L 1806 1941 
Q 1106 2091 782 2419 
Q 459 2747 459 3303 
Q 459 4000 909 4375 
Q 1359 4750 2203 4750 
Q 2588 4750 2994 4692 
Q 3400 4634 3834 4519 
z
" transform="scale(0.015625)"/>
      <path id="DejaVuSans-Bold-6d" d="M 3781 2919 
Q 3994 3244 4286 3414 
Q 4578 3584 4928 3584 
Q 5531 3584 5847 3212 
Q 6163 2841 6163 2131 
L 6163 0 
L 5038 0 
L 5038 1825 
Q 5041 1866 5042 1909 
Q 5044 1953 5044 2034 
Q 5044 2406 4934 2573 
Q 4825 2741 4581 2741 
Q 4263 2741 4089 2478 
Q 3916 2216 3909 1719 
L 3909 0 
L 2784 0 
L 2784 1825 
Q 2784 2406 2684 2573 
Q 2584 2741 2328 2741 
Q 2006 2741 1831 2477 
Q 1656 2213 1656 1722 
L 1656 0 
L 531 0 
L 531 3500 
L 1656 3500 
L 1656 2988 
Q 1863 3284 2130 3434 
Q 2397 3584 2719 3584 
Q 3081 3584 3359 3409 
Q 3638 3234 3781 2919 
z
" transform="scale(0.015625)"/>
      <path id="DejaVuSans-Bold-61" d="M 2106 1575 
Q 1756 1575 1579 1456 
Q 1403 1338 1403 1106 
Q 1403 894 1545 773 
Q 1688 653 1941 653 
Q 2256 653 2472 879 
Q 2688 1106 2688 1447 
L 2688 1575 
L 2106 1575 
z
M 3816 1997 
L 3816 0 
L 2688 0 
L 2688 519 
Q 2463 200 2181 54 
Q 1900 -91 1497 -91 
Q 953 -91 614 226 
Q 275 544 275 1050 
Q 275 1666 698 1953 
Q 1122 2241 2028 2241 
L 2688 2241 
L 2688 2328 
Q 2688 2594 2478 2717 
Q 2269 2841 1825 2841 
Q 1466 2841 1156 2769 
Q 847 2697 581 2553 
L 581 3406 
Q 941 3494 1303 3539 
Q 1666 3584 2028 3584 
Q 2975 3584 3395 3211 
Q 3816 2838 3816 1997 
z
" transform="scale(0.015625)"/>
      <path id="DejaVuSans-Bold-6c" d="M 538 4863 
L 1656 4863 
L 1656 0 
L 538 0 
L 538 4863 
z
" transform="scale(0.015625)"/>
      <path id="DejaVuSans-Bold-28" d="M 2413 -844 
L 1484 -844 
Q 1006 -72 778 623 
Q 550 1319 550 2003 
Q 550 2688 779 3389 
Q 1009 4091 1484 4856 
L 2413 4856 
Q 2013 4116 1813 3408 
Q 1613 2700 1613 2009 
Q 1613 1319 1811 609 
Q 2009 -100 2413 -844 
z
" transform="scale(0.015625)"/>
      <path id="DejaVuSans-Bold-3b1" d="M 3006 3163 
L 3119 3500 
L 4088 3500 
L 3484 1697 
L 3569 1219 
Q 3659 703 3872 703 
L 4128 703 
L 4128 0 
L 3809 0 
Q 3313 0 3059 263 
Q 3003 322 2988 353 
Q 2838 163 2689 39 
Q 2541 -84 1763 -78 
Q 988 -72 648 400 
Q 309 872 309 1794 
Q 309 2713 663 3088 
Q 1109 3569 1966 3578 
Q 2688 3588 3006 3163 
z
M 2575 1841 
L 2481 2350 
Q 2394 2825 1981 2828 
Q 1772 2828 1598 2558 
Q 1425 2288 1425 1741 
Q 1425 1191 1581 944 
Q 1738 697 1969 691 
Q 2213 684 2363 1163 
L 2575 1841 
z
" transform="scale(0.015625)"/>
      <path id="DejaVuSans-Bold-3d" d="M 678 3084 
L 4684 3084 
L 4684 2350 
L 678 2350 
L 678 3084 
z
M 678 1663 
L 4684 1663 
L 4684 922 
L 678 922 
L 678 1663 
z
" transform="scale(0.015625)"/>
      <path id="DejaVuSans-Bold-30" d="M 2944 2338 
Q 2944 3213 2780 3570 
Q 2616 3928 2228 3928 
Q 1841 3928 1675 3570 
Q 1509 3213 1509 2338 
Q 1509 1453 1675 1090 
Q 1841 728 2228 728 
Q 2613 728 2778 1090 
Q 2944 1453 2944 2338 
z
M 4147 2328 
Q 4147 1169 3647 539 
Q 3147 -91 2228 -91 
Q 1306 -91 806 539 
Q 306 1169 306 2328 
Q 306 3491 806 4120 
Q 1306 4750 2228 4750 
Q 3147 4750 3647 4120 
Q 4147 3491 4147 2328 
z
" transform="scale(0.015625)"/>
      <path id="DejaVuSans-Bold-2e" d="M 653 1209 
L 1778 1209 
L 1778 0 
L 653 0 
L 653 1209 
z
" transform="scale(0.015625)"/>
      <path id="DejaVuSans-Bold-35" d="M 678 4666 
L 3669 4666 
L 3669 3781 
L 1638 3781 
L 1638 3059 
Q 1775 3097 1914 3117 
Q 2053 3138 2203 3138 
Q 3056 3138 3531 2711 
Q 4006 2284 4006 1522 
Q 4006 766 3489 337 
Q 2972 -91 2053 -91 
Q 1656 -91 1267 -14 
Q 878 63 494 219 
L 494 1166 
Q 875 947 1217 837 
Q 1559 728 1863 728 
Q 2300 728 2551 942 
Q 2803 1156 2803 1522 
Q 2803 1891 2551 2103 
Q 2300 2316 1863 2316 
Q 1603 2316 1309 2248 
Q 1016 2181 678 2041 
L 678 4666 
z
" transform="scale(0.015625)"/>
      <path id="DejaVuSans-Bold-29" d="M 513 -844 
Q 913 -100 1113 609 
Q 1313 1319 1313 2009 
Q 1313 2700 1113 3408 
Q 913 4116 513 4856 
L 1441 4856 
Q 1916 4091 2145 3389 
Q 2375 2688 2375 2003 
Q 2375 1319 2147 623 
Q 1919 -72 1441 -844 
L 513 -844 
z
" transform="scale(0.015625)"/>
     </defs>
     <use xlink:href="#DejaVuSans-Bold-54"/>
     <use xlink:href="#DejaVuSans-Bold-6f" x="54.962891"/>
     <use xlink:href="#DejaVuSans-Bold-6f" x="123.664062"/>
     <use xlink:href="#DejaVuSans-Bold-20" x="192.365234"/>
     <use xlink:href="#DejaVuSans-Bold-53" x="227.179688"/>
     <use xlink:href="#DejaVuSans-Bold-6d" x="299.201172"/>
     <use xlink:href="#DejaVuSans-Bold-61" x="403.400391"/>
     <use xlink:href="#DejaVuSans-Bold-6c" x="470.880859"/>
     <use xlink:href="#DejaVuSans-Bold-6c" x="505.158203"/>
     <use xlink:href="#DejaVuSans-Bold-20" x="539.435547"/>
     <use xlink:href="#DejaVuSans-Bold-28" x="574.25"/>
     <use xlink:href="#DejaVuSans-Bold-3b1" x="619.953125"/>
     <use xlink:href="#DejaVuSans-Bold-3d" x="688.654297"/>
     <use xlink:href="#DejaVuSans-Bold-30" x="772.443359"/>
     <use xlink:href="#DejaVuSans-Bold-2e" x="842.023438"/>
     <use xlink:href="#DejaVuSans-Bold-30" x="880.011719"/>
     <use xlink:href="#DejaVuSans-Bold-30" x="949.591797"/>
     <use xlink:href="#DejaVuSans-Bold-35" x="1019.171875"/>
     <use xlink:href="#DejaVuSans-Bold-29" x="1088.751953"/>
    </g>
   </g>
   <g id="line2d_29">
    <defs>
     <path id="macdd82d27a" d="M -4 4 
L 4 4 
L 4 -4 
L -4 -4 
z
" style="stroke: #16a34a; stroke-linejoin: miter"/>
    </defs>
    <g clip-path="url(#p136ff49f31)">
     <use xlink:href="#macdd82d27a" x="272.37464" y="115.446295" style="fill: #16a34a; stroke: #16a34a; stroke-linejoin: miter"/>
    </g>
   </g>
  </g>
  <g id="axes_2">
   <g id="patch_5">
    <path d="M 349.003125 247.48 
L 612.743125 247.48 
L 612.743125 49.92 
L 349.003125 49.92 
z
" style="fill: #ffffff"/>
   </g>
   <g id="matplotlib.axis_3">
    <g id="xtick_8">
     <g id="line2d_30">
      <path d="M 360.991307 247.48 
L 360.991307 49.92 
" clip-path="url(#p0df5b64981)" style="fill: none; stroke: #cbd5e1; stroke-opacity: 0.6; stroke-width: 0.5; stroke-linecap: square"/>
     </g>
     <g id="line2d_31">
      <g>
       <use xlink:href="#m40e85d44c6" x="360.991307" y="247.48" style="stroke: #000000; stroke-width: 0.8"/>
      </g>
     </g>
     <g id="text_18">
      <!-- −3 -->
      <g transform="translate(353.620213 262.078437) scale(0.1 -0.1)">
       <use xlink:href="#DejaVuSans-2212"/>
       <use xlink:href="#DejaVuSans-33" x="83.789062"/>
      </g>
     </g>
    </g>
    <g id="xtick_9">
     <g id="line2d_32">
      <path d="M 400.951913 247.48 
L 400.951913 49.92 
" clip-path="url(#p0df5b64981)" style="fill: none; stroke: #cbd5e1; stroke-opacity: 0.6; stroke-width: 0.5; stroke-linecap: square"/>
     </g>
     <g id="line2d_33">
      <g>
       <use xlink:href="#m40e85d44c6" x="400.951913" y="247.48" style="stroke: #000000; stroke-width: 0.8"/>
      </g>
     </g>
     <g id="text_19">
      <!-- −2 -->
      <g transform="translate(393.580819 262.078437) scale(0.1 -0.1)">
       <use xlink:href="#DejaVuSans-2212"/>
       <use xlink:href="#DejaVuSans-32" x="83.789062"/>
      </g>
     </g>
    </g>
    <g id="xtick_10">
     <g id="line2d_34">
      <path d="M 440.912519 247.48 
L 440.912519 49.92 
" clip-path="url(#p0df5b64981)" style="fill: none; stroke: #cbd5e1; stroke-opacity: 0.6; stroke-width: 0.5; stroke-linecap: square"/>
     </g>
     <g id="line2d_35">
      <g>
       <use xlink:href="#m40e85d44c6" x="440.912519" y="247.48" style="stroke: #000000; stroke-width: 0.8"/>
      </g>
     </g>
     <g id="text_20">
      <!-- −1 -->
      <g transform="translate(433.541425 262.078437) scale(0.1 -0.1)">
       <use xlink:href="#DejaVuSans-2212"/>
       <use xlink:href="#DejaVuSans-31" x="83.789062"/>
      </g>
     </g>
    </g>
    <g id="xtick_11">
     <g id="line2d_36">
      <path d="M 480.873125 247.48 
L 480.873125 49.92 
" clip-path="url(#p0df5b64981)" style="fill: none; stroke: #cbd5e1; stroke-opacity: 0.6; stroke-width: 0.5; stroke-linecap: square"/>
     </g>
     <g id="line2d_37">
      <g>
       <use xlink:href="#m40e85d44c6" x="480.873125" y="247.48" style="stroke: #000000; stroke-width: 0.8"/>
      </g>
     </g>
     <g id="text_21">
      <!-- 0 -->
      <g transform="translate(477.691875 262.078437) scale(0.1 -0.1)">
       <use xlink:href="#DejaVuSans-30"/>
      </g>
     </g>
    </g>
    <g id="xtick_12">
     <g id="line2d_38">
      <path d="M 520.833731 247.48 
L 520.833731 49.92 
" clip-path="url(#p0df5b64981)" style="fill: none; stroke: #cbd5e1; stroke-opacity: 0.6; stroke-width: 0.5; stroke-linecap: square"/>
     </g>
     <g id="line2d_39">
      <g>
       <use xlink:href="#m40e85d44c6" x="520.833731" y="247.48" style="stroke: #000000; stroke-width: 0.8"/>
      </g>
     </g>
     <g id="text_22">
      <!-- 1 -->
      <g transform="translate(517.652481 262.078437) scale(0.1 -0.1)">
       <use xlink:href="#DejaVuSans-31"/>
      </g>
     </g>
    </g>
    <g id="xtick_13">
     <g id="line2d_40">
      <path d="M 560.794337 247.48 
L 560.794337 49.92 
" clip-path="url(#p0df5b64981)" style="fill: none; stroke: #cbd5e1; stroke-opacity: 0.6; stroke-width: 0.5; stroke-linecap: square"/>
     </g>
     <g id="line2d_41">
      <g>
       <use xlink:href="#m40e85d44c6" x="560.794337" y="247.48" style="stroke: #000000; stroke-width: 0.8"/>
      </g>
     </g>
     <g id="text_23">
      <!-- 2 -->
      <g transform="translate(557.613087 262.078437) scale(0.1 -0.1)">
       <use xlink:href="#DejaVuSans-32"/>
      </g>
     </g>
    </g>
    <g id="xtick_14">
     <g id="line2d_42">
      <path d="M 600.754943 247.48 
L 600.754943 49.92 
" clip-path="url(#p0df5b64981)" style="fill: none; stroke: #cbd5e1; stroke-opacity: 0.6; stroke-width: 0.5; stroke-linecap: square"/>
     </g>
     <g id="line2d_43">
      <g>
       <use xlink:href="#m40e85d44c6" x="600.754943" y="247.48" style="stroke: #000000; stroke-width: 0.8"/>
      </g>
     </g>
     <g id="text_24">
      <!-- 3 -->
      <g transform="translate(597.573693 262.078437) scale(0.1 -0.1)">
       <use xlink:href="#DejaVuSans-33"/>
      </g>
     </g>
    </g>
    <g id="text_25">
     <!-- Weight w -->
     <g transform="translate(457.77625 275.756562) scale(0.1 -0.1)">
      <use xlink:href="#DejaVuSans-57"/>
      <use xlink:href="#DejaVuSans-65" x="93.001953"/>
      <use xlink:href="#DejaVuSans-69" x="154.525391"/>
      <use xlink:href="#DejaVuSans-67" x="182.308594"/>
      <use xlink:href="#DejaVuSans-68" x="245.785156"/>
      <use xlink:href="#DejaVuSans-74" x="309.164062"/>
      <use xlink:href="#DejaVuSans-20" x="348.373047"/>
      <use xlink:href="#DejaVuSans-77" x="380.160156"/>
     </g>
    </g>
   </g>
   <g id="matplotlib.axis_4">
    <g id="ytick_7">
     <g id="line2d_44">
      <path d="M 349.003125 243.798607 
L 612.743125 243.798607 
" clip-path="url(#p0df5b64981)" style="fill: none; stroke: #cbd5e1; stroke-opacity: 0.6; stroke-width: 0.5; stroke-linecap: square"/>
     </g>
     <g id="line2d_45">
      <g>
       <use xlink:href="#m826dab7c70" x="349.003125" y="243.798607" style="stroke: #000000; stroke-width: 0.8"/>
      </g>
     </g>
     <g id="text_26">
      <!-- 0 -->
      <g transform="translate(335.640625 247.597826) scale(0.1 -0.1)">
       <use xlink:href="#DejaVuSans-30"/>
      </g>
     </g>
    </g>
    <g id="ytick_8">
     <g id="line2d_46">
      <path d="M 349.003125 205.655861 
L 612.743125 205.655861 
" clip-path="url(#p0df5b64981)" style="fill: none; stroke: #cbd5e1; stroke-opacity: 0.6; stroke-width: 0.5; stroke-linecap: square"/>
     </g>
     <g id="line2d_47">
      <g>
       <use xlink:href="#m826dab7c70" x="349.003125" y="205.655861" style="stroke: #000000; stroke-width: 0.8"/>
      </g>
     </g>
     <g id="text_27">
      <!-- 2 -->
      <g transform="translate(335.640625 209.45508) scale(0.1 -0.1)">
       <use xlink:href="#DejaVuSans-32"/>
      </g>
     </g>
    </g>
    <g id="ytick_9">
     <g id="line2d_48">
      <path d="M 349.003125 167.513115 
L 612.743125 167.513115 
" clip-path="url(#p0df5b64981)" style="fill: none; stroke: #cbd5e1; stroke-opacity: 0.6; stroke-width: 0.5; stroke-linecap: square"/>
     </g>
     <g id="line2d_49">
      <g>
       <use xlink:href="#m826dab7c70" x="349.003125" y="167.513115" style="stroke: #000000; stroke-width: 0.8"/>
      </g>
     </g>
     <g id="text_28">
      <!-- 4 -->
      <g transform="translate(335.640625 171.312334) scale(0.1 -0.1)">
       <use xlink:href="#DejaVuSans-34"/>
      </g>
     </g>
    </g>
    <g id="ytick_10">
     <g id="line2d_50">
      <path d="M 349.003125 129.37037 
L 612.743125 129.37037 
" clip-path="url(#p0df5b64981)" style="fill: none; stroke: #cbd5e1; stroke-opacity: 0.6; stroke-width: 0.5; stroke-linecap: square"/>
     </g>
     <g id="line2d_51">
      <g>
       <use xlink:href="#m826dab7c70" x="349.003125" y="129.37037" style="stroke: #000000; stroke-width: 0.8"/>
      </g>
     </g>
     <g id="text_29">
      <!-- 6 -->
      <g transform="translate(335.640625 133.169588) scale(0.1 -0.1)">
       <use xlink:href="#DejaVuSans-36"/>
      </g>
     </g>
    </g>
    <g id="ytick_11">
     <g id="line2d_52">
      <path d="M 349.003125 91.227624 
L 612.743125 91.227624 
" clip-path="url(#p0df5b64981)" style="fill: none; stroke: #cbd5e1; stroke-opacity: 0.6; stroke-width: 0.5; stroke-linecap: square"/>
     </g>
     <g id="line2d_53">
      <g>
       <use xlink:href="#m826dab7c70" x="349.003125" y="91.227624" style="stroke: #000000; stroke-width: 0.8"/>
      </g>
     </g>
     <g id="text_30">
      <!-- 8 -->
      <g transform="translate(335.640625 95.026843) scale(0.1 -0.1)">
       <use xlink:href="#DejaVuSans-38"/>
      </g>
     </g>
    </g>
    <g id="ytick_12">
     <g id="line2d_54">
      <path d="M 349.003125 53.084878 
L 612.743125 53.084878 
" clip-path="url(#p0df5b64981)" style="fill: none; stroke: #cbd5e1; stroke-opacity: 0.6; stroke-width: 0.5; stroke-linecap: square"/>
     </g>
     <g id="line2d_55">
      <g>
       <use xlink:href="#m826dab7c70" x="349.003125" y="53.084878" style="stroke: #000000; stroke-width: 0.8"/>
      </g>
     </g>
     <g id="text_31">
      <!-- 10 -->
      <g transform="translate(329.278125 56.884097) scale(0.1 -0.1)">
       <use xlink:href="#DejaVuSans-31"/>
       <use xlink:href="#DejaVuSans-30" x="63.623047"/>
      </g>
     </g>
    </g>
    <g id="text_32">
     <!-- Loss -->
     <g transform="translate(323.198438 159.667187) rotate(-90) scale(0.1 -0.1)">
      <use xlink:href="#DejaVuSans-4c"/>
      <use xlink:href="#DejaVuSans-6f" x="53.962891"/>
      <use xlink:href="#DejaVuSans-73" x="115.144531"/>
      <use xlink:href="#DejaVuSans-73" x="167.244141"/>
     </g>
    </g>
   </g>
   <g id="line2d_56">
    <path d="M 360.991307 66.341129 
L 364.198847 76.805447 
L 366.604502 83.965678 
L 369.010158 90.479811 
L 371.415813 96.346306 
L 373.821468 101.609427 
L 376.227123 106.355265 
L 379.434663 112.089691 
L 389.057284 128.539791 
L 392.264825 134.794793 
L 395.472365 141.709509 
L 398.679905 149.244403 
L 403.491216 161.290976 
L 408.302526 173.296899 
L 411.510066 180.684295 
L 413.915722 185.672298 
L 416.321377 190.076608 
L 417.925147 192.658919 
L 419.528917 194.950231 
L 421.132687 196.954133 
L 422.736457 198.68328 
L 424.340227 200.15889 
L 425.943998 201.409889 
L 428.349653 202.94429 
L 430.755308 204.193972 
L 437.170389 207.288953 
L 439.576044 208.754802 
L 441.981699 210.544588 
L 444.387354 212.704539 
L 446.793009 215.23517 
L 449.198665 218.091232 
L 452.406205 222.250198 
L 458.0194 229.617589 
L 460.425056 232.419341 
L 462.830711 234.799598 
L 464.434481 236.094303 
L 466.038251 237.124547 
L 467.642021 237.873023 
L 469.245791 238.331268 
L 470.849562 238.5 
L 472.453332 238.38909 
L 474.057102 238.017167 
L 475.660872 237.410869 
L 477.264642 236.603775 
L 479.670297 235.103476 
L 483.679723 232.200695 
L 486.887263 229.920515 
L 489.292918 228.443386 
L 491.698573 227.275186 
L 493.302344 226.697167 
L 494.906114 226.287301 
L 496.509884 226.041694 
L 498.915539 225.950586 
L 501.321194 226.1191 
L 508.53816 226.921674 
L 510.14193 226.877599 
L 511.7457 226.657872 
L 513.34947 226.225079 
L 514.953241 225.547894 
L 516.557011 224.602331 
L 518.160781 223.37271 
L 519.764551 221.852286 
L 521.368321 220.043518 
L 522.972091 217.957973 
L 525.377746 214.357073 
L 527.783402 210.280787 
L 530.990942 204.334513 
L 539.009793 189.110119 
L 542.217333 183.689011 
L 544.622988 180.047077 
L 547.028643 176.777523 
L 549.434299 173.838736 
L 552.641839 170.284886 
L 558.255034 164.205008 
L 560.66069 161.26421 
L 563.066345 157.91255 
L 565.472 154.032932 
L 567.877655 149.543303 
L 570.28331 144.404035 
L 572.688966 138.621484 
L 575.094621 132.247421 
L 578.302161 122.993346 
L 583.113472 108.136848 
L 588.726667 90.754275 
L 591.934207 81.39346 
L 595.141748 72.669908 
L 598.349288 64.598177 
L 600.754943 58.9 
L 600.754943 58.9 
" clip-path="url(#p0df5b64981)" style="fill: none; stroke: #cbd5e1; stroke-width: 2; stroke-linecap: square"/>
   </g>
   <g id="line2d_57">
    <path d="M 580.77464 115.446295 
L 567.794042 149.710147 
L 559.459985 162.774959 
L 554.352022 168.471089 
L 549.921665 173.276838 
L 545.136459 179.318684 
L 539.266883 188.65399 
L 531.867212 202.649911 
L 523.784951 216.801365 
L 517.663632 223.784843 
L 514.310738 225.850243 
L 512.478376 226.488632 
L 511.377878 226.725828 
L 510.666729 226.826963 
L 510.183923 226.874259 
L 509.844952 226.897813 
L 509.601335 226.910069 
L 509.423306 226.916649 
L 509.291627 226.920263 
L 509.193361 226.922282 
L 509.119545 226.923424 
" clip-path="url(#p0df5b64981)" style="fill: none; stroke: #2563eb; stroke-width: 1.5; stroke-linecap: square"/>
    <defs>
     <path id="ma7fa1e0242" d="M 0 2 
C 0.530406 2 1.03916 1.789267 1.414214 1.414214 
C 1.789267 1.03916 2 0.530406 2 0 
C 2 -0.530406 1.789267 -1.03916 1.414214 -1.414214 
C 1.03916 -1.789267 0.530406 -2 0 -2 
C -0.530406 -2 -1.03916 -1.789267 -1.414214 -1.414214 
C -1.789267 -1.03916 -2 -0.530406 -2 0 
C -2 0.530406 -1.789267 1.03916 -1.414214 1.414214 
C -1.03916 1.789267 -0.530406 2 0 2 
z
" style="stroke: #2563eb"/>
    </defs>
    <g clip-path="url(#p0df5b64981)">
     <use xlink:href="#ma7fa1e0242" x="580.77464" y="115.446295" style="fill: #2563eb; stroke: #2563eb"/>
     <use xlink:href="#ma7fa1e0242" x="567.794042" y="149.710147" style="fill: #2563eb; stroke: #2563eb"/>
     <use xlink:href="#ma7fa1e0242" x="559.459985" y="162.774959" style="fill: #2563eb; stroke: #2563eb"/>
     <use xlink:href="#ma7fa1e0242" x="554.352022" y="168.471089" style="fill: #2563eb; stroke: #2563eb"/>
     <use xlink:href="#ma7fa1e0242" x="549.921665" y="173.276838" style="fill: #2563eb; stroke: #2563eb"/>
     <use xlink:href="#ma7fa1e0242" x="545.136459" y="179.318684" style="fill: #2563eb; stroke: #2563eb"/>
     <use xlink:href="#ma7fa1e0242" x="539.266883" y="188.65399" style="fill: #2563eb; stroke: #2563eb"/>
     <use xlink:href="#ma7fa1e0242" x="531.867212" y="202.649911" style="fill: #2563eb; stroke: #2563eb"/>
     <use xlink:href="#ma7fa1e0242" x="523.784951" y="216.801365" style="fill: #2563eb; stroke: #2563eb"/>
     <use xlink:href="#ma7fa1e0242" x="517.663632" y="223.784843" style="fill: #2563eb; stroke: #2563eb"/>
     <use xlink:href="#ma7fa1e0242" x="514.310738" y="225.850243" style="fill: #2563eb; stroke: #2563eb"/>
     <use xlink:href="#ma7fa1e0242" x="512.478376" y="226.488632" style="fill: #2563eb; stroke: #2563eb"/>
     <use xlink:href="#ma7fa1e0242" x="511.377878" y="226.725828" style="fill: #2563eb; stroke: #2563eb"/>
     <use xlink:href="#ma7fa1e0242" x="510.666729" y="226.826963" style="fill: #2563eb; stroke: #2563eb"/>
     <use xlink:href="#ma7fa1e0242" x="510.183923" y="226.874259" style="fill: #2563eb; stroke: #2563eb"/>
     <use xlink:href="#ma7fa1e0242" x="509.844952" y="226.897813" style="fill: #2563eb; stroke: #2563eb"/>
     <use xlink:href="#ma7fa1e0242" x="509.601335" y="226.910069" style="fill: #2563eb; stroke: #2563eb"/>
     <use xlink:href="#ma7fa1e0242" x="509.423306" y="226.916649" style="fill: #2563eb; stroke: #2563eb"/>
     <use xlink:href="#ma7fa1e0242" x="509.291627" y="226.920263" style="fill: #2563eb; stroke: #2563eb"/>
     <use xlink:href="#ma7fa1e0242" x="509.193361" y="226.922282" style="fill: #2563eb; stroke: #2563eb"/>
     <use xlink:href="#ma7fa1e0242" x="509.119545" y="226.923424" style="fill: #2563eb; stroke: #2563eb"/>
    </g>
   </g>
   <g id="patch_6">
    <path d="M 349.003125 247.48 
L 349.003125 49.92 
" style="fill: none; stroke: #000000; stroke-width: 0.8; stroke-linejoin: miter; stroke-linecap: square"/>
   </g>
   <g id="patch_7">
    <path d="M 349.003125 247.48 
L 612.743125 247.48 
" style="fill: none; stroke: #000000; stroke-width: 0.8; stroke-linejoin: miter; stroke-linecap: square"/>
   </g>
   <g id="text_33">
    <!-- Converges efficiently -->
    <g style="fill: #2563eb" transform="translate(520.137175 61.92555) scale(0.08 -0.08)">
     <defs>
      <path id="DejaVuSans-Oblique-66" d="M 3059 4863 
L 2969 4384 
L 2419 4384 
Q 2106 4384 1964 4261 
Q 1822 4138 1753 3809 
L 1691 3500 
L 2638 3500 
L 2553 3053 
L 1606 3053 
L 1013 0 
L 434 0 
L 1031 3053 
L 481 3053 
L 563 3500 
L 1113 3500 
L 1159 3744 
Q 1278 4363 1576 4613 
Q 1875 4863 2516 4863 
L 3059 4863 
z
" transform="scale(0.015625)"/>
      <path id="DejaVuSans-Oblique-69" d="M 1172 4863 
L 1747 4863 
L 1606 4134 
L 1031 4134 
L 1172 4863 
z
M 909 3500 
L 1484 3500 
L 800 0 
L 225 0 
L 909 3500 
z
" transform="scale(0.015625)"/>
      <path id="DejaVuSans-Oblique-63" d="M 3431 3366 
L 3316 2797 
Q 3109 2947 2876 3022 
Q 2644 3097 2394 3097 
Q 2119 3097 1870 3000 
Q 1622 2903 1453 2725 
Q 1184 2453 1037 2087 
Q 891 1722 891 1331 
Q 891 859 1127 628 
Q 1363 397 1844 397 
Q 2081 397 2348 469 
Q 2616 541 2906 684 
L 2797 116 
Q 2547 13 2283 -39 
Q 2019 -91 1741 -91 
Q 1044 -91 669 257 
Q 294 606 294 1253 
Q 294 1797 489 2255 
Q 684 2713 1069 3078 
Q 1331 3328 1684 3456 
Q 2038 3584 2456 3584 
Q 2700 3584 2940 3529 
Q 3181 3475 3431 3366 
z
" transform="scale(0.015625)"/>
     </defs>
     <use xlink:href="#DejaVuSans-Oblique-43"/>
     <use xlink:href="#DejaVuSans-Oblique-6f" x="69.824219"/>
     <use xlink:href="#DejaVuSans-Oblique-6e" x="131.005859"/>
     <use xlink:href="#DejaVuSans-Oblique-76" x="194.384766"/>
     <use xlink:href="#DejaVuSans-Oblique-65" x="253.564453"/>
     <use xlink:href="#DejaVuSans-Oblique-72" x="315.087891"/>
     <use xlink:href="#DejaVuSans-Oblique-67" x="356.201172"/>
     <use xlink:href="#DejaVuSans-Oblique-65" x="419.677734"/>
     <use xlink:href="#DejaVuSans-Oblique-73" x="481.201172"/>
     <use xlink:href="#DejaVuSans-Oblique-20" x="533.300781"/>
     <use xlink:href="#DejaVuSans-Oblique-65" x="565.087891"/>
     <use xlink:href="#DejaVuSans-Oblique-66" x="626.611328"/>
     <use xlink:href="#DejaVuSans-Oblique-66" x="661.816406"/>
     <use xlink:href="#DejaVuSans-Oblique-69" x="697.021484"/>
     <use xlink:href="#DejaVuSans-Oblique-63" x="724.804688"/>
     <use xlink:href="#DejaVuSans-Oblique-69" x="779.785156"/>
     <use xlink:href="#DejaVuSans-Oblique-65" x="807.568359"/>
     <use xlink:href="#DejaVuSans-Oblique-6e" x="869.091797"/>
     <use xlink:href="#DejaVuSans-Oblique-74" x="932.470703"/>
     <use xlink:href="#DejaVuSans-Oblique-6c" x="971.679688"/>
     <use xlink:href="#DejaVuSans-Oblique-79" x="999.462891"/>
    </g>
   </g>
   <g id="text_34">
    <!-- Good (α=0.05) -->
    <g style="fill: #2563eb" transform="translate(440.048125 43.92) scale(0.1 -0.1)">
     <defs>
      <path id="DejaVuSans-Bold-47" d="M 4781 347 
Q 4331 128 3847 18 
Q 3363 -91 2847 -91 
Q 1681 -91 1000 561 
Q 319 1213 319 2328 
Q 319 3456 1012 4103 
Q 1706 4750 2913 4750 
Q 3378 4750 3804 4662 
Q 4231 4575 4609 4403 
L 4609 3438 
Q 4219 3659 3833 3768 
Q 3447 3878 3059 3878 
Q 2341 3878 1952 3476 
Q 1563 3075 1563 2328 
Q 1563 1588 1938 1184 
Q 2313 781 3003 781 
Q 3191 781 3352 804 
Q 3513 828 3641 878 
L 3641 1784 
L 2906 1784 
L 2906 2591 
L 4781 2591 
L 4781 347 
z
" transform="scale(0.015625)"/>
      <path id="DejaVuSans-Bold-64" d="M 2919 2988 
L 2919 4863 
L 4044 4863 
L 4044 0 
L 2919 0 
L 2919 506 
Q 2688 197 2409 53 
Q 2131 -91 1766 -91 
Q 1119 -91 703 423 
Q 288 938 288 1747 
Q 288 2556 703 3070 
Q 1119 3584 1766 3584 
Q 2128 3584 2408 3439 
Q 2688 3294 2919 2988 
z
M 2181 722 
Q 2541 722 2730 984 
Q 2919 1247 2919 1747 
Q 2919 2247 2730 2509 
Q 2541 2772 2181 2772 
Q 1825 2772 1636 2509 
Q 1447 2247 1447 1747 
Q 1447 1247 1636 984 
Q 1825 722 2181 722 
z
" transform="scale(0.015625)"/>
     </defs>
     <use xlink:href="#DejaVuSans-Bold-47"/>
     <use xlink:href="#DejaVuSans-Bold-6f" x="82.080078"/>
     <use xlink:href="#DejaVuSans-Bold-6f" x="150.78125"/>
     <use xlink:href="#DejaVuSans-Bold-64" x="219.482422"/>
     <use xlink:href="#DejaVuSans-Bold-20" x="291.064453"/>
     <use xlink:href="#DejaVuSans-Bold-28" x="325.878906"/>
     <use xlink:href="#DejaVuSans-Bold-3b1" x="371.582031"/>
     <use xlink:href="#DejaVuSans-Bold-3d" x="440.283203"/>
     <use xlink:href="#DejaVuSans-Bold-30" x="524.072266"/>
     <use xlink:href="#DejaVuSans-Bold-2e" x="593.652344"/>
     <use xlink:href="#DejaVuSans-Bold-30" x="631.640625"/>
     <use xlink:href="#DejaVuSans-Bold-35" x="701.220703"/>
     <use xlink:href="#DejaVuSans-Bold-29" x="770.800781"/>
    </g>
   </g>
   <g id="line2d_58">
    <defs>
     <path id="m11f8b007c7" d="M -4 4 
L 4 4 
L 4 -4 
L -4 -4 
z
" style="stroke: #2563eb; stroke-linejoin: miter"/>
    </defs>
    <g clip-path="url(#p0df5b64981)">
     <use xlink:href="#m11f8b007c7" x="580.77464" y="115.446295" style="fill: #2563eb; stroke: #2563eb; stroke-linejoin: miter"/>
    </g>
   </g>
  </g>
  <g id="axes_3">
   <g id="patch_8">
    <path d="M 657.403125 247.48 
L 921.143125 247.48 
L 921.143125 49.92 
L 657.403125 49.92 
z
" style="fill: #ffffff"/>
   </g>
   <g id="matplotlib.axis_5">
    <g id="xtick_15">
     <g id="line2d_59">
      <path d="M 669.391307 247.48 
L 669.391307 49.92 
" clip-path="url(#pe420626701)" style="fill: none; stroke: #cbd5e1; stroke-opacity: 0.6; stroke-width: 0.5; stroke-linecap: square"/>
     </g>
     <g id="line2d_60">
      <g>
       <use xlink:href="#m40e85d44c6" x="669.391307" y="247.48" style="stroke: #000000; stroke-width: 0.8"/>
      </g>
     </g>
     <g id="text_35">
      <!-- −3 -->
      <g transform="translate(662.020213 262.078437) scale(0.1 -0.1)">
       <use xlink:href="#DejaVuSans-2212"/>
       <use xlink:href="#DejaVuSans-33" x="83.789062"/>
      </g>
     </g>
    </g>
    <g id="xtick_16">
     <g id="line2d_61">
      <path d="M 709.351913 247.48 
L 709.351913 49.92 
" clip-path="url(#pe420626701)" style="fill: none; stroke: #cbd5e1; stroke-opacity: 0.6; stroke-width: 0.5; stroke-linecap: square"/>
     </g>
     <g id="line2d_62">
      <g>
       <use xlink:href="#m40e85d44c6" x="709.351913" y="247.48" style="stroke: #000000; stroke-width: 0.8"/>
      </g>
     </g>
     <g id="text_36">
      <!-- −2 -->
      <g transform="translate(701.980819 262.078437) scale(0.1 -0.1)">
       <use xlink:href="#DejaVuSans-2212"/>
       <use xlink:href="#DejaVuSans-32" x="83.789062"/>
      </g>
     </g>
    </g>
    <g id="xtick_17">
     <g id="line2d_63">
      <path d="M 749.312519 247.48 
L 749.312519 49.92 
" clip-path="url(#pe420626701)" style="fill: none; stroke: #cbd5e1; stroke-opacity: 0.6; stroke-width: 0.5; stroke-linecap: square"/>
     </g>
     <g id="line2d_64">
      <g>
       <use xlink:href="#m40e85d44c6" x="749.312519" y="247.48" style="stroke: #000000; stroke-width: 0.8"/>
      </g>
     </g>
     <g id="text_37">
      <!-- −1 -->
      <g transform="translate(741.941425 262.078437) scale(0.1 -0.1)">
       <use xlink:href="#DejaVuSans-2212"/>
       <use xlink:href="#DejaVuSans-31" x="83.789062"/>
      </g>
     </g>
    </g>
    <g id="xtick_18">
     <g id="line2d_65">
      <path d="M 789.273125 247.48 
L 789.273125 49.92 
" clip-path="url(#pe420626701)" style="fill: none; stroke: #cbd5e1; stroke-opacity: 0.6; stroke-width: 0.5; stroke-linecap: square"/>
     </g>
     <g id="line2d_66">
      <g>
       <use xlink:href="#m40e85d44c6" x="789.273125" y="247.48" style="stroke: #000000; stroke-width: 0.8"/>
      </g>
     </g>
     <g id="text_38">
      <!-- 0 -->
      <g transform="translate(786.091875 262.078437) scale(0.1 -0.1)">
       <use xlink:href="#DejaVuSans-30"/>
      </g>
     </g>
    </g>
    <g id="xtick_19">
     <g id="line2d_67">
      <path d="M 829.233731 247.48 
L 829.233731 49.92 
" clip-path="url(#pe420626701)" style="fill: none; stroke: #cbd5e1; stroke-opacity: 0.6; stroke-width: 0.5; stroke-linecap: square"/>
     </g>
     <g id="line2d_68">
      <g>
       <use xlink:href="#m40e85d44c6" x="829.233731" y="247.48" style="stroke: #000000; stroke-width: 0.8"/>
      </g>
     </g>
     <g id="text_39">
      <!-- 1 -->
      <g transform="translate(826.052481 262.078437) scale(0.1 -0.1)">
       <use xlink:href="#DejaVuSans-31"/>
      </g>
     </g>
    </g>
    <g id="xtick_20">
     <g id="line2d_69">
      <path d="M 869.194337 247.48 
L 869.194337 49.92 
" clip-path="url(#pe420626701)" style="fill: none; stroke: #cbd5e1; stroke-opacity: 0.6; stroke-width: 0.5; stroke-linecap: square"/>
     </g>
     <g id="line2d_70">
      <g>
       <use xlink:href="#m40e85d44c6" x="869.194337" y="247.48" style="stroke: #000000; stroke-width: 0.8"/>
      </g>
     </g>
     <g id="text_40">
      <!-- 2 -->
      <g transform="translate(866.013087 262.078437) scale(0.1 -0.1)">
       <use xlink:href="#DejaVuSans-32"/>
      </g>
     </g>
    </g>
    <g id="xtick_21">
     <g id="line2d_71">
      <path d="M 909.154943 247.48 
L 909.154943 49.92 
" clip-path="url(#pe420626701)" style="fill: none; stroke: #cbd5e1; stroke-opacity: 0.6; stroke-width: 0.5; stroke-linecap: square"/>
     </g>
     <g id="line2d_72">
      <g>
       <use xlink:href="#m40e85d44c6" x="909.154943" y="247.48" style="stroke: #000000; stroke-width: 0.8"/>
      </g>
     </g>
     <g id="text_41">
      <!-- 3 -->
      <g transform="translate(905.973693 262.078437) scale(0.1 -0.1)">
       <use xlink:href="#DejaVuSans-33"/>
      </g>
     </g>
    </g>
    <g id="text_42">
     <!-- Weight w -->
     <g transform="translate(766.17625 275.756562) scale(0.1 -0.1)">
      <use xlink:href="#DejaVuSans-57"/>
      <use xlink:href="#DejaVuSans-65" x="93.001953"/>
      <use xlink:href="#DejaVuSans-69" x="154.525391"/>
      <use xlink:href="#DejaVuSans-67" x="182.308594"/>
      <use xlink:href="#DejaVuSans-68" x="245.785156"/>
      <use xlink:href="#DejaVuSans-74" x="309.164062"/>
      <use xlink:href="#DejaVuSans-20" x="348.373047"/>
      <use xlink:href="#DejaVuSans-77" x="380.160156"/>
     </g>
    </g>
   </g>
   <g id="matplotlib.axis_6">
    <g id="ytick_13">
     <g id="line2d_73">
      <path d="M 657.403125 243.798607 
L 921.143125 243.798607 
" clip-path="url(#pe420626701)" style="fill: none; stroke: #cbd5e1; stroke-opacity: 0.6; stroke-width: 0.5; stroke-linecap: square"/>
     </g>
     <g id="line2d_74">
      <g>
       <use xlink:href="#m826dab7c70" x="657.403125" y="243.798607" style="stroke: #000000; stroke-width: 0.8"/>
      </g>
     </g>
     <g id="text_43">
      <!-- 0 -->
      <g transform="translate(644.040625 247.597826) scale(0.1 -0.1)">
       <use xlink:href="#DejaVuSans-30"/>
      </g>
     </g>
    </g>
    <g id="ytick_14">
     <g id="line2d_75">
      <path d="M 657.403125 205.655861 
L 921.143125 205.655861 
" clip-path="url(#pe420626701)" style="fill: none; stroke: #cbd5e1; stroke-opacity: 0.6; stroke-width: 0.5; stroke-linecap: square"/>
     </g>
     <g id="line2d_76">
      <g>
       <use xlink:href="#m826dab7c70" x="657.403125" y="205.655861" style="stroke: #000000; stroke-width: 0.8"/>
      </g>
     </g>
     <g id="text_44">
      <!-- 2 -->
      <g transform="translate(644.040625 209.45508) scale(0.1 -0.1)">
       <use xlink:href="#DejaVuSans-32"/>
      </g>
     </g>
    </g>
    <g id="ytick_15">
     <g id="line2d_77">
      <path d="M 657.403125 167.513115 
L 921.143125 167.513115 
" clip-path="url(#pe420626701)" style="fill: none; stroke: #cbd5e1; stroke-opacity: 0.6; stroke-width: 0.5; stroke-linecap: square"/>
     </g>
     <g id="line2d_78">
      <g>
       <use xlink:href="#m826dab7c70" x="657.403125" y="167.513115" style="stroke: #000000; stroke-width: 0.8"/>
      </g>
     </g>
     <g id="text_45">
      <!-- 4 -->
      <g transform="translate(644.040625 171.312334) scale(0.1 -0.1)">
       <use xlink:href="#DejaVuSans-34"/>
      </g>
     </g>
    </g>
    <g id="ytick_16">
     <g id="line2d_79">
      <path d="M 657.403125 129.37037 
L 921.143125 129.37037 
" clip-path="url(#pe420626701)" style="fill: none; stroke: #cbd5e1; stroke-opacity: 0.6; stroke-width: 0.5; stroke-linecap: square"/>
     </g>
     <g id="line2d_80">
      <g>
       <use xlink:href="#m826dab7c70" x="657.403125" y="129.37037" style="stroke: #000000; stroke-width: 0.8"/>
      </g>
     </g>
     <g id="text_46">
      <!-- 6 -->
      <g transform="translate(644.040625 133.169588) scale(0.1 -0.1)">
       <use xlink:href="#DejaVuSans-36"/>
      </g>
     </g>
    </g>
    <g id="ytick_17">
     <g id="line2d_81">
      <path d="M 657.403125 91.227624 
L 921.143125 91.227624 
" clip-path="url(#pe420626701)" style="fill: none; stroke: #cbd5e1; stroke-opacity: 0.6; stroke-width: 0.5; stroke-linecap: square"/>
     </g>
     <g id="line2d_82">
      <g>
       <use xlink:href="#m826dab7c70" x="657.403125" y="91.227624" style="stroke: #000000; stroke-width: 0.8"/>
      </g>
     </g>
     <g id="text_47">
      <!-- 8 -->
      <g transform="translate(644.040625 95.026843) scale(0.1 -0.1)">
       <use xlink:href="#DejaVuSans-38"/>
      </g>
     </g>
    </g>
    <g id="ytick_18">
     <g id="line2d_83">
      <path d="M 657.403125 53.084878 
L 921.143125 53.084878 
" clip-path="url(#pe420626701)" style="fill: none; stroke: #cbd5e1; stroke-opacity: 0.6; stroke-width: 0.5; stroke-linecap: square"/>
     </g>
     <g id="line2d_84">
      <g>
       <use xlink:href="#m826dab7c70" x="657.403125" y="53.084878" style="stroke: #000000; stroke-width: 0.8"/>
      </g>
     </g>
     <g id="text_48">
      <!-- 10 -->
      <g transform="translate(637.678125 56.884097) scale(0.1 -0.1)">
       <use xlink:href="#DejaVuSans-31"/>
       <use xlink:href="#DejaVuSans-30" x="63.623047"/>
      </g>
     </g>
    </g>
    <g id="text_49">
     <!-- Loss -->
     <g transform="translate(631.598437 159.667187) rotate(-90) scale(0.1 -0.1)">
      <use xlink:href="#DejaVuSans-4c"/>
      <use xlink:href="#DejaVuSans-6f" x="53.962891"/>
      <use xlink:href="#DejaVuSans-73" x="115.144531"/>
      <use xlink:href="#DejaVuSans-73" x="167.244141"/>
     </g>
    </g>
   </g>
   <g id="line2d_85">
    <path d="M 669.391307 66.341129 
L 672.598847 76.805447 
L 675.004502 83.965678 
L 677.410158 90.479811 
L 679.815813 96.346306 
L 682.221468 101.609427 
L 684.627123 106.355265 
L 687.834663 112.089691 
L 697.457284 128.539791 
L 700.664825 134.794793 
L 703.872365 141.709509 
L 707.079905 149.244403 
L 711.891216 161.290976 
L 716.702526 173.296899 
L 719.910066 180.684295 
L 722.315722 185.672298 
L 724.721377 190.076608 
L 726.325147 192.658919 
L 727.928917 194.950231 
L 729.532687 196.954133 
L 731.136457 198.68328 
L 732.740227 200.15889 
L 734.343998 201.409889 
L 736.749653 202.94429 
L 739.155308 204.193972 
L 745.570389 207.288953 
L 747.976044 208.754802 
L 750.381699 210.544588 
L 752.787354 212.704539 
L 755.193009 215.23517 
L 757.598665 218.091232 
L 760.806205 222.250198 
L 766.4194 229.617589 
L 768.825056 232.419341 
L 771.230711 234.799598 
L 772.834481 236.094303 
L 774.438251 237.124547 
L 776.042021 237.873023 
L 777.645791 238.331268 
L 779.249562 238.5 
L 780.853332 238.38909 
L 782.457102 238.017167 
L 784.060872 237.410869 
L 785.664642 236.603775 
L 788.070297 235.103476 
L 792.079723 232.200695 
L 795.287263 229.920515 
L 797.692918 228.443386 
L 800.098573 227.275186 
L 801.702344 226.697167 
L 803.306114 226.287301 
L 804.909884 226.041694 
L 807.315539 225.950586 
L 809.721194 226.1191 
L 816.93816 226.921674 
L 818.54193 226.877599 
L 820.1457 226.657872 
L 821.74947 226.225079 
L 823.353241 225.547894 
L 824.957011 224.602331 
L 826.560781 223.37271 
L 828.164551 221.852286 
L 829.768321 220.043518 
L 831.372091 217.957973 
L 833.777746 214.357073 
L 836.183402 210.280787 
L 839.390942 204.334513 
L 847.409793 189.110119 
L 850.617333 183.689011 
L 853.022988 180.047077 
L 855.428643 176.777523 
L 857.834299 173.838736 
L 861.041839 170.284886 
L 866.655034 164.205008 
L 869.06069 161.26421 
L 871.466345 157.91255 
L 873.872 154.032932 
L 876.277655 149.543303 
L 878.68331 144.404035 
L 881.088966 138.621484 
L 883.494621 132.247421 
L 886.702161 122.993346 
L 891.513472 108.136848 
L 897.126667 90.754275 
L 900.334207 81.39346 
L 903.541748 72.669908 
L 906.749288 64.598177 
L 909.154943 58.9 
L 909.154943 58.9 
" clip-path="url(#pe420626701)" style="fill: none; stroke: #cbd5e1; stroke-width: 2; stroke-linecap: square"/>
   </g>
   <g id="line2d_86">
    <path d="M 889.17464 115.446295 
L 759.368657 220.351195 
L 814.006255 226.688726 
L 819.210619 226.809604 
L 813.936099 226.679957 
L 819.197131 226.811297 
L 813.964803 226.683556 
L 819.202928 226.810571 
L 813.952474 226.682012 
L 819.200485 226.810877 
L 813.95767 226.682663 
L 819.201523 226.810747 
L 813.955462 226.682387 
L 819.201084 226.810802 
L 813.956397 226.682504 
L 819.20127 226.810779 
L 813.956001 226.682454 
L 819.201191 226.810789 
L 813.956169 226.682475 
L 819.201225 226.810785 
L 813.956098 226.682466 
" clip-path="url(#pe420626701)" style="fill: none; stroke: #dc2626; stroke-width: 1.5; stroke-linecap: square"/>
    <defs>
     <path id="m9cf44ff744" d="M 0 2 
C 0.530406 2 1.03916 1.789267 1.414214 1.414214 
C 1.789267 1.03916 2 0.530406 2 0 
C 2 -0.530406 1.789267 -1.03916 1.414214 -1.414214 
C 1.03916 -1.789267 0.530406 -2 0 -2 
C -0.530406 -2 -1.03916 -1.789267 -1.414214 -1.414214 
C -1.789267 -1.03916 -2 -0.530406 -2 0 
C -2 0.530406 -1.789267 1.03916 -1.414214 1.414214 
C -1.03916 1.789267 -0.530406 2 0 2 
z
" style="stroke: #dc2626"/>
    </defs>
    <g clip-path="url(#pe420626701)">
     <use xlink:href="#m9cf44ff744" x="889.17464" y="115.446295" style="fill: #dc2626; stroke: #dc2626"/>
     <use xlink:href="#m9cf44ff744" x="759.368657" y="220.351195" style="fill: #dc2626; stroke: #dc2626"/>
     <use xlink:href="#m9cf44ff744" x="814.006255" y="226.688726" style="fill: #dc2626; stroke: #dc2626"/>
     <use xlink:href="#m9cf44ff744" x="819.210619" y="226.809604" style="fill: #dc2626; stroke: #dc2626"/>
     <use xlink:href="#m9cf44ff744" x="813.936099" y="226.679957" style="fill: #dc2626; stroke: #dc2626"/>
     <use xlink:href="#m9cf44ff744" x="819.197131" y="226.811297" style="fill: #dc2626; stroke: #dc2626"/>
     <use xlink:href="#m9cf44ff744" x="813.964803" y="226.683556" style="fill: #dc2626; stroke: #dc2626"/>
     <use xlink:href="#m9cf44ff744" x="819.202928" y="226.810571" style="fill: #dc2626; stroke: #dc2626"/>
     <use xlink:href="#m9cf44ff744" x="813.952474" y="226.682012" style="fill: #dc2626; stroke: #dc2626"/>
     <use xlink:href="#m9cf44ff744" x="819.200485" y="226.810877" style="fill: #dc2626; stroke: #dc2626"/>
     <use xlink:href="#m9cf44ff744" x="813.95767" y="226.682663" style="fill: #dc2626; stroke: #dc2626"/>
     <use xlink:href="#m9cf44ff744" x="819.201523" y="226.810747" style="fill: #dc2626; stroke: #dc2626"/>
     <use xlink:href="#m9cf44ff744" x="813.955462" y="226.682387" style="fill: #dc2626; stroke: #dc2626"/>
     <use xlink:href="#m9cf44ff744" x="819.201084" y="226.810802" style="fill: #dc2626; stroke: #dc2626"/>
     <use xlink:href="#m9cf44ff744" x="813.956397" y="226.682504" style="fill: #dc2626; stroke: #dc2626"/>
     <use xlink:href="#m9cf44ff744" x="819.20127" y="226.810779" style="fill: #dc2626; stroke: #dc2626"/>
     <use xlink:href="#m9cf44ff744" x="813.956001" y="226.682454" style="fill: #dc2626; stroke: #dc2626"/>
     <use xlink:href="#m9cf44ff744" x="819.201191" y="226.810789" style="fill: #dc2626; stroke: #dc2626"/>
     <use xlink:href="#m9cf44ff744" x="813.956169" y="226.682475" style="fill: #dc2626; stroke: #dc2626"/>
     <use xlink:href="#m9cf44ff744" x="819.201225" y="226.810785" style="fill: #dc2626; stroke: #dc2626"/>
     <use xlink:href="#m9cf44ff744" x="813.956098" y="226.682466" style="fill: #dc2626; stroke: #dc2626"/>
    </g>
   </g>
   <g id="patch_9">
    <path d="M 657.403125 247.48 
L 657.403125 49.92 
" style="fill: none; stroke: #000000; stroke-width: 0.8; stroke-linejoin: miter; stroke-linecap: square"/>
   </g>
   <g id="patch_10">
    <path d="M 657.403125 247.48 
L 921.143125 247.48 
" style="fill: none; stroke: #000000; stroke-width: 0.8; stroke-linejoin: miter; stroke-linecap: square"/>
   </g>
   <g id="text_50">
    <!-- Diverges / oscillates -->
    <g style="fill: #dc2626" transform="translate(832.695925 61.92555) scale(0.08 -0.08)">
     <defs>
      <path id="DejaVuSans-Oblique-44" d="M 1081 4666 
L 2438 4666 
Q 3519 4666 4070 4208 
Q 4622 3750 4622 2847 
Q 4622 2250 4412 1698 
Q 4203 1147 3834 769 
Q 3463 381 2891 190 
Q 2319 0 1538 0 
L 172 0 
L 1081 4666 
z
M 1613 4147 
L 909 519 
L 1734 519 
Q 2794 519 3375 1128 
Q 3956 1738 3956 2847 
Q 3956 3519 3581 3833 
Q 3206 4147 2406 4147 
L 1613 4147 
z
" transform="scale(0.015625)"/>
      <path id="DejaVuSans-Oblique-2f" d="M 2175 4666 
L 2731 4666 
L 84 -594 
L -469 -594 
L 2175 4666 
z
" transform="scale(0.015625)"/>
      <path id="DejaVuSans-Oblique-61" d="M 3438 1997 
L 3047 0 
L 2472 0 
L 2578 531 
Q 2325 219 2001 64 
Q 1678 -91 1281 -91 
Q 834 -91 548 182 
Q 263 456 263 884 
Q 263 1497 752 1853 
Q 1241 2209 2100 2209 
L 2900 2209 
L 2931 2363 
Q 2938 2388 2941 2417 
Q 2944 2447 2944 2509 
Q 2944 2788 2717 2942 
Q 2491 3097 2081 3097 
Q 1800 3097 1504 3025 
Q 1209 2953 897 2809 
L 997 3341 
Q 1322 3463 1633 3523 
Q 1944 3584 2234 3584 
Q 2853 3584 3176 3315 
Q 3500 3047 3500 2534 
Q 3500 2431 3484 2292 
Q 3469 2153 3438 1997 
z
M 2816 1759 
L 2241 1759 
Q 1534 1759 1195 1570 
Q 856 1381 856 984 
Q 856 709 1029 553 
Q 1203 397 1509 397 
Q 1978 397 2328 733 
Q 2678 1069 2791 1631 
L 2816 1759 
z
" transform="scale(0.015625)"/>
     </defs>
     <use xlink:href="#DejaVuSans-Oblique-44"/>
     <use xlink:href="#DejaVuSans-Oblique-69" x="77.001953"/>
     <use xlink:href="#DejaVuSans-Oblique-76" x="104.785156"/>
     <use xlink:href="#DejaVuSans-Oblique-65" x="163.964844"/>
     <use xlink:href="#DejaVuSans-Oblique-72" x="225.488281"/>
     <use xlink:href="#DejaVuSans-Oblique-67" x="266.601562"/>
     <use xlink:href="#DejaVuSans-Oblique-65" x="330.078125"/>
     <use xlink:href="#DejaVuSans-Oblique-73" x="391.601562"/>
     <use xlink:href="#DejaVuSans-Oblique-20" x="443.701172"/>
     <use xlink:href="#DejaVuSans-Oblique-2f" x="475.488281"/>
     <use xlink:href="#DejaVuSans-Oblique-20" x="509.179688"/>
     <use xlink:href="#DejaVuSans-Oblique-6f" x="540.966797"/>
     <use xlink:href="#DejaVuSans-Oblique-73" x="602.148438"/>
     <use xlink:href="#DejaVuSans-Oblique-63" x="654.248047"/>
     <use xlink:href="#DejaVuSans-Oblique-69" x="709.228516"/>
     <use xlink:href="#DejaVuSans-Oblique-6c" x="737.011719"/>
     <use xlink:href="#DejaVuSans-Oblique-6c" x="764.794922"/>
     <use xlink:href="#DejaVuSans-Oblique-61" x="792.578125"/>
     <use xlink:href="#DejaVuSans-Oblique-74" x="853.857422"/>
     <use xlink:href="#DejaVuSans-Oblique-65" x="893.066406"/>
     <use xlink:href="#DejaVuSans-Oblique-73" x="954.589844"/>
    </g>
   </g>
   <g id="text_51">
    <!-- Too Large (α=0.5) -->
    <g style="fill: #dc2626" transform="translate(739.124687 43.92) scale(0.1 -0.1)">
     <defs>
      <path id="DejaVuSans-Bold-4c" d="M 588 4666 
L 1791 4666 
L 1791 909 
L 3903 909 
L 3903 0 
L 588 0 
L 588 4666 
z
" transform="scale(0.015625)"/>
      <path id="DejaVuSans-Bold-72" d="M 3138 2547 
Q 2991 2616 2845 2648 
Q 2700 2681 2553 2681 
Q 2122 2681 1889 2404 
Q 1656 2128 1656 1613 
L 1656 0 
L 538 0 
L 538 3500 
L 1656 3500 
L 1656 2925 
Q 1872 3269 2151 3426 
Q 2431 3584 2822 3584 
Q 2878 3584 2943 3579 
Q 3009 3575 3134 3559 
L 3138 2547 
z
" transform="scale(0.015625)"/>
      <path id="DejaVuSans-Bold-67" d="M 2919 594 
Q 2688 288 2409 144 
Q 2131 0 1766 0 
Q 1125 0 706 504 
Q 288 1009 288 1791 
Q 288 2575 706 3076 
Q 1125 3578 1766 3578 
Q 2131 3578 2409 3434 
Q 2688 3291 2919 2981 
L 2919 3500 
L 4044 3500 
L 4044 353 
Q 4044 -491 3511 -936 
Q 2978 -1381 1966 -1381 
Q 1638 -1381 1331 -1331 
Q 1025 -1281 716 -1178 
L 716 -306 
Q 1009 -475 1290 -558 
Q 1572 -641 1856 -641 
Q 2406 -641 2662 -400 
Q 2919 -159 2919 353 
L 2919 594 
z
M 2181 2772 
Q 1834 2772 1640 2515 
Q 1447 2259 1447 1791 
Q 1447 1309 1634 1061 
Q 1822 813 2181 813 
Q 2531 813 2725 1069 
Q 2919 1325 2919 1791 
Q 2919 2259 2725 2515 
Q 2531 2772 2181 2772 
z
" transform="scale(0.015625)"/>
      <path id="DejaVuSans-Bold-65" d="M 4031 1759 
L 4031 1441 
L 1416 1441 
Q 1456 1047 1700 850 
Q 1944 653 2381 653 
Q 2734 653 3104 758 
Q 3475 863 3866 1075 
L 3866 213 
Q 3469 63 3072 -14 
Q 2675 -91 2278 -91 
Q 1328 -91 801 392 
Q 275 875 275 1747 
Q 275 2603 792 3093 
Q 1309 3584 2216 3584 
Q 3041 3584 3536 3087 
Q 4031 2591 4031 1759 
z
M 2881 2131 
Q 2881 2450 2695 2645 
Q 2509 2841 2209 2841 
Q 1884 2841 1681 2658 
Q 1478 2475 1428 2131 
L 2881 2131 
z
" transform="scale(0.015625)"/>
     </defs>
     <use xlink:href="#DejaVuSans-Bold-54"/>
     <use xlink:href="#DejaVuSans-Bold-6f" x="54.962891"/>
     <use xlink:href="#DejaVuSans-Bold-6f" x="123.664062"/>
     <use xlink:href="#DejaVuSans-Bold-20" x="192.365234"/>
     <use xlink:href="#DejaVuSans-Bold-4c" x="227.179688"/>
     <use xlink:href="#DejaVuSans-Bold-61" x="290.900391"/>
     <use xlink:href="#DejaVuSans-Bold-72" x="358.380859"/>
     <use xlink:href="#DejaVuSans-Bold-67" x="407.697266"/>
     <use xlink:href="#DejaVuSans-Bold-65" x="479.279297"/>
     <use xlink:href="#DejaVuSans-Bold-20" x="547.101562"/>
     <use xlink:href="#DejaVuSans-Bold-28" x="581.916016"/>
     <use xlink:href="#DejaVuSans-Bold-3b1" x="627.619141"/>
     <use xlink:href="#DejaVuSans-Bold-3d" x="696.320312"/>
     <use xlink:href="#DejaVuSans-Bold-30" x="780.109375"/>
     <use xlink:href="#DejaVuSans-Bold-2e" x="849.689453"/>
     <use xlink:href="#DejaVuSans-Bold-35" x="887.677734"/>
     <use xlink:href="#DejaVuSans-Bold-29" x="957.257812"/>
    </g>
   </g>
   <g id="line2d_87">
    <defs>
     <path id="m416f06488d" d="M -4 4 
L 4 4 
L 4 -4 
L -4 -4 
z
" style="stroke: #dc2626; stroke-linejoin: miter"/>
    </defs>
    <g clip-path="url(#pe420626701)">
     <use xlink:href="#m416f06488d" x="889.17464" y="115.446295" style="fill: #dc2626; stroke: #dc2626; stroke-linejoin: miter"/>
    </g>
   </g>
  </g>
  <g id="text_52">
   <!-- Effect of Learning Rate on Optimization -->
   <g style="fill: #0f172a" transform="translate(318.48125 17.077969) scale(0.13 -0.13)">
    <defs>
     <path id="DejaVuSans-Bold-45" d="M 588 4666 
L 3834 4666 
L 3834 3756 
L 1791 3756 
L 1791 2888 
L 3713 2888 
L 3713 1978 
L 1791 1978 
L 1791 909 
L 3903 909 
L 3903 0 
L 588 0 
L 588 4666 
z
" transform="scale(0.015625)"/>
     <path id="DejaVuSans-Bold-66" d="M 2841 4863 
L 2841 4128 
L 2222 4128 
Q 1984 4128 1890 4042 
Q 1797 3956 1797 3744 
L 1797 3500 
L 2753 3500 
L 2753 2700 
L 1797 2700 
L 1797 0 
L 678 0 
L 678 2700 
L 122 2700 
L 122 3500 
L 678 3500 
L 678 3744 
Q 678 4316 997 4589 
Q 1316 4863 1984 4863 
L 2841 4863 
z
" transform="scale(0.015625)"/>
     <path id="DejaVuSans-Bold-63" d="M 3366 3391 
L 3366 2478 
Q 3138 2634 2908 2709 
Q 2678 2784 2431 2784 
Q 1963 2784 1702 2511 
Q 1441 2238 1441 1747 
Q 1441 1256 1702 982 
Q 1963 709 2431 709 
Q 2694 709 2930 787 
Q 3166 866 3366 1019 
L 3366 103 
Q 3103 6 2833 -42 
Q 2563 -91 2291 -91 
Q 1344 -91 809 395 
Q 275 881 275 1747 
Q 275 2613 809 3098 
Q 1344 3584 2291 3584 
Q 2566 3584 2833 3536 
Q 3100 3488 3366 3391 
z
" transform="scale(0.015625)"/>
     <path id="DejaVuSans-Bold-74" d="M 1759 4494 
L 1759 3500 
L 2913 3500 
L 2913 2700 
L 1759 2700 
L 1759 1216 
Q 1759 972 1856 886 
Q 1953 800 2241 800 
L 2816 800 
L 2816 0 
L 1856 0 
Q 1194 0 917 276 
Q 641 553 641 1216 
L 641 2700 
L 84 2700 
L 84 3500 
L 641 3500 
L 641 4494 
L 1759 4494 
z
" transform="scale(0.015625)"/>
     <path id="DejaVuSans-Bold-6e" d="M 4056 2131 
L 4056 0 
L 2931 0 
L 2931 347 
L 2931 1631 
Q 2931 2084 2911 2256 
Q 2891 2428 2841 2509 
Q 2775 2619 2662 2680 
Q 2550 2741 2406 2741 
Q 2056 2741 1856 2470 
Q 1656 2200 1656 1722 
L 1656 0 
L 538 0 
L 538 3500 
L 1656 3500 
L 1656 2988 
Q 1909 3294 2193 3439 
Q 2478 3584 2822 3584 
Q 3428 3584 3742 3212 
Q 4056 2841 4056 2131 
z
" transform="scale(0.015625)"/>
     <path id="DejaVuSans-Bold-69" d="M 538 3500 
L 1656 3500 
L 1656 0 
L 538 0 
L 538 3500 
z
M 538 4863 
L 1656 4863 
L 1656 3950 
L 538 3950 
L 538 4863 
z
" transform="scale(0.015625)"/>
     <path id="DejaVuSans-Bold-52" d="M 2297 2597 
Q 2675 2597 2839 2737 
Q 3003 2878 3003 3200 
Q 3003 3519 2839 3656 
Q 2675 3794 2297 3794 
L 1791 3794 
L 1791 2597 
L 2297 2597 
z
M 1791 1766 
L 1791 0 
L 588 0 
L 588 4666 
L 2425 4666 
Q 3347 4666 3776 4356 
Q 4206 4047 4206 3378 
Q 4206 2916 3982 2619 
Q 3759 2322 3309 2181 
Q 3556 2125 3751 1926 
Q 3947 1728 4147 1325 
L 4800 0 
L 3519 0 
L 2950 1159 
Q 2778 1509 2601 1637 
Q 2425 1766 2131 1766 
L 1791 1766 
z
" transform="scale(0.015625)"/>
     <path id="DejaVuSans-Bold-4f" d="M 2719 3878 
Q 2169 3878 1866 3472 
Q 1563 3066 1563 2328 
Q 1563 1594 1866 1187 
Q 2169 781 2719 781 
Q 3272 781 3575 1187 
Q 3878 1594 3878 2328 
Q 3878 3066 3575 3472 
Q 3272 3878 2719 3878 
z
M 2719 4750 
Q 3844 4750 4481 4106 
Q 5119 3463 5119 2328 
Q 5119 1197 4481 553 
Q 3844 -91 2719 -91 
Q 1597 -91 958 553 
Q 319 1197 319 2328 
Q 319 3463 958 4106 
Q 1597 4750 2719 4750 
z
" transform="scale(0.015625)"/>
     <path id="DejaVuSans-Bold-70" d="M 1656 506 
L 1656 -1331 
L 538 -1331 
L 538 3500 
L 1656 3500 
L 1656 2988 
Q 1888 3294 2169 3439 
Q 2450 3584 2816 3584 
Q 3463 3584 3878 3070 
Q 4294 2556 4294 1747 
Q 4294 938 3878 423 
Q 3463 -91 2816 -91 
Q 2450 -91 2169 54 
Q 1888 200 1656 506 
z
M 2400 2772 
Q 2041 2772 1848 2508 
Q 1656 2244 1656 1747 
Q 1656 1250 1848 986 
Q 2041 722 2400 722 
Q 2759 722 2948 984 
Q 3138 1247 3138 1747 
Q 3138 2247 2948 2509 
Q 2759 2772 2400 2772 
z
" transform="scale(0.015625)"/>
     <path id="DejaVuSans-Bold-7a" d="M 366 3500 
L 3419 3500 
L 3419 2719 
L 1575 800 
L 3419 800 
L 3419 0 
L 288 0 
L 288 781 
L 2131 2700 
L 366 2700 
L 366 3500 
z
" transform="scale(0.015625)"/>
    </defs>
    <use xlink:href="#DejaVuSans-Bold-45"/>
    <use xlink:href="#DejaVuSans-Bold-66" x="68.310547"/>
    <use xlink:href="#DejaVuSans-Bold-66" x="111.816406"/>
    <use xlink:href="#DejaVuSans-Bold-65" x="155.322266"/>
    <use xlink:href="#DejaVuSans-Bold-63" x="223.144531"/>
    <use xlink:href="#DejaVuSans-Bold-74" x="282.421875"/>
    <use xlink:href="#DejaVuSans-Bold-20" x="330.224609"/>
    <use xlink:href="#DejaVuSans-Bold-6f" x="365.039062"/>
    <use xlink:href="#DejaVuSans-Bold-66" x="433.740234"/>
    <use xlink:href="#DejaVuSans-Bold-20" x="477.246094"/>
    <use xlink:href="#DejaVuSans-Bold-4c" x="512.060547"/>
    <use xlink:href="#DejaVuSans-Bold-65" x="575.78125"/>
    <use xlink:href="#DejaVuSans-Bold-61" x="643.603516"/>
    <use xlink:href="#DejaVuSans-Bold-72" x="711.083984"/>
    <use xlink:href="#DejaVuSans-Bold-6e" x="760.400391"/>
    <use xlink:href="#DejaVuSans-Bold-69" x="831.591797"/>
    <use xlink:href="#DejaVuSans-Bold-6e" x="865.869141"/>
    <use xlink:href="#DejaVuSans-Bold-67" x="937.060547"/>
    <use xlink:href="#DejaVuSans-Bold-20" x="1008.642578"/>
    <use xlink:href="#DejaVuSans-Bold-52" x="1043.457031"/>
    <use xlink:href="#DejaVuSans-Bold-61" x="1120.458984"/>
    <use xlink:href="#DejaVuSans-Bold-74" x="1187.939453"/>
    <use xlink:href="#DejaVuSans-Bold-65" x="1235.742188"/>
    <use xlink:href="#DejaVuSans-Bold-20" x="1303.564453"/>
    <use xlink:href="#DejaVuSans-Bold-6f" x="1338.378906"/>
    <use xlink:href="#DejaVuSans-Bold-6e" x="1407.080078"/>
    <use xlink:href="#DejaVuSans-Bold-20" x="1478.271484"/>
    <use xlink:href="#DejaVuSans-Bold-4f" x="1513.085938"/>
    <use xlink:href="#DejaVuSans-Bold-70" x="1598.095703"/>
    <use xlink:href="#DejaVuSans-Bold-74" x="1669.677734"/>
    <use xlink:href="#DejaVuSans-Bold-69" x="1717.480469"/>
    <use xlink:href="#DejaVuSans-Bold-6d" x="1751.757812"/>
    <use xlink:href="#DejaVuSans-Bold-69" x="1855.957031"/>
    <use xlink:href="#DejaVuSans-Bold-7a" x="1890.234375"/>
    <use xlink:href="#DejaVuSans-Bold-61" x="1948.4375"/>
    <use xlink:href="#DejaVuSans-Bold-74" x="2015.917969"/>
    <use xlink:href="#DejaVuSans-Bold-69" x="2063.720703"/>
    <use xlink:href="#DejaVuSans-Bold-6f" x="2097.998047"/>
    <use xlink:href="#DejaVuSans-Bold-6e" x="2166.699219"/>
   </g>
  </g>
 </g>
 <defs>
  <clipPath id="p136ff49f31">
   <rect x="40.603125" y="49.92" width="263.74" height="197.56"/>
  </clipPath>
  <clipPath id="p0df5b64981">
   <rect x="349.003125" y="49.92" width="263.74" height="197.56"/>
  </clipPath>
  <clipPath id="pe420626701">
   <rect x="657.403125" y="49.92" width="263.74" height="197.56"/>
  </clipPath>
 </defs>
</svg>
