<?xml version="1.0" encoding="utf-8" standalone="no"?>
<!DOCTYPE svg PUBLIC "-//W3C//DTD SVG 1.1//EN"
  "http://www.w3.org/Graphics/SVG/1.1/DTD/svg11.dtd">
<svg xmlns:xlink="http://www.w3.org/1999/xlink" width="712.8pt" height="316.637812pt" viewBox="0 0 712.8 316.637812" xmlns="http://www.w3.org/2000/svg" version="1.1">
 <metadata>
  <rdf:RDF xmlns:dc="http://purl.org/dc/elements/1.1/" xmlns:cc="http://creativecommons.org/ns#" xmlns:rdf="http://www.w3.org/1999/02/22-rdf-syntax-ns#">
   <cc:Work>
    <dc:type rdf:resource="http://purl.org/dc/dcmitype/StillImage"/>
    <dc:date>2026-04-24T07:26:53.837567</dc:date>
    <dc:format>image/svg+xml</dc:format>
    <dc:creator>
     <cc:Agent>
      <dc:title>Matplotlib v3.8.0, https://matplotlib.org/</dc:title>
     </cc:Agent>
    </dc:creator>
   </cc:Work>
  </rdf:RDF>
 </metadata>
 <defs>
  <style type="text/css">*{stroke-linejoin: round; stroke-linecap: butt}</style>
 </defs>
 <g id="figure_1">
  <g id="patch_1">
   <path d="M 0 316.637812 
L 712.8 316.637812 
L 712.8 0 
L 0 0 
z
" style="fill: #ffffff"/>
  </g>
  <g id="axes_1">
   <g id="patch_2">
    <path d="M 77.04 109.027146 
C 82.966971 109.027146 88.651987 106.902212 92.842988 103.120336 
C 97.033989 99.33846 99.3888 94.208415 99.3888 88.860035 
C 99.3888 83.511654 97.033989 78.38161 92.842988 74.599734 
C 88.651987 70.817858 82.966971 68.692924 77.04 68.692924 
C 71.113029 68.692924 65.428013 70.817858 61.237012 74.599734 
C 57.046011 78.38161 54.6912 83.511654 54.6912 88.860035 
C 54.6912 94.208415 57.046011 99.33846 61.237012 103.120336 
C 65.428013 106.902212 71.113029 109.027146 77.04 109.027146 
z
" clip-path="url(#pf43c2c5f5f)" style="fill: #dbeafe; stroke: #2563eb; stroke-width: 1.5; stroke-linejoin: miter"/>
   </g>
   <g id="patch_3">
    <path d="M 101.214097 89.673825 
Q 187.735155 128.248368 272.724498 166.140012 
" style="fill: none; stroke: #475569; stroke-width: 1.5; stroke-linecap: round"/>
    <path d="M 269.885552 162.684527 
L 272.724498 166.140012 
L 268.256742 166.337878 
z
" style="fill: #475569; stroke: #475569; stroke-width: 1.5; stroke-linecap: round"/>
   </g>
   <g id="text_1">
    <!-- w₁ -->
    <g style="fill: #dc2626" transform="translate(166.278087 118.79559) scale(0.11 -0.11)">
     <defs>
      <path id="DejaVuSans-Bold-77" d="M 225 3500 
L 1313 3500 
L 1900 1088 
L 2491 3500 
L 3425 3500 
L 4013 1113 
L 4603 3500 
L 5691 3500 
L 4769 0 
L 3547 0 
L 2956 2406 
L 2369 0 
L 1147 0 
L 225 3500 
z
" transform="scale(0.015625)"/>
      <path id="DejaVuSans-Bold-2081" d="M 441 490 
L 1088 490 
L 1088 2118 
L 384 1956 
L 384 2456 
L 1100 2609 
L 1806 2609 
L 1806 490 
L 2444 490 
L 2444 0 
L 441 0 
L 441 490 
z
" transform="scale(0.015625)"/>
     </defs>
     <use xlink:href="#DejaVuSans-Bold-77"/>
     <use xlink:href="#DejaVuSans-Bold-2081" x="92.382812"/>
    </g>
   </g>
   <g id="patch_4">
    <path d="M 77.04 187.804924 
C 82.966971 187.804924 88.651987 185.67999 92.842988 181.898114 
C 97.033989 178.116237 99.3888 172.986193 99.3888 167.637812 
C 99.3888 162.289432 97.033989 157.159388 92.842988 153.377511 
C 88.651987 149.595635 82.966971 147.470701 77.04 147.470701 
C 71.113029 147.470701 65.428013 149.595635 61.237012 153.377511 
C 57.046011 157.159388 54.6912 162.289432 54.6912 167.637812 
C 54.6912 172.986193 57.046011 178.116237 61.237012 181.898114 
C 65.428013 185.67999 71.113029 187.804924 77.04 187.804924 
z
" clip-path="url(#pf43c2c5f5f)" style="fill: #dbeafe; stroke: #2563eb; stroke-width: 1.5; stroke-linejoin: miter"/>
   </g>
   <g id="patch_5">
    <path d="M 101.386651 167.637812 
Q 187.734366 167.637812 272.405031 167.637812 
" style="fill: none; stroke: #475569; stroke-width: 1.5; stroke-linecap: round"/>
    <path d="M 268.405031 165.637812 
L 272.405031 167.637812 
L 268.405031 169.637812 
z
" style="fill: #475569; stroke: #475569; stroke-width: 1.5; stroke-linecap: round"/>
   </g>
   <g id="text_2">
    <!-- w₂ -->
    <g style="fill: #dc2626" transform="translate(166.278087 158.184479) scale(0.11 -0.11)">
     <defs>
      <path id="DejaVuSans-Bold-2082" d="M 1288 525 
L 2444 525 
L 2444 0 
L 341 0 
L 341 478 
L 1319 1309 
Q 1509 1475 1590 1600 
Q 1672 1725 1672 1850 
Q 1672 2006 1558 2103 
Q 1444 2200 1259 2200 
Q 1066 2200 844 2129 
Q 622 2059 359 1912 
L 359 2493 
Q 631 2578 886 2620 
Q 1141 2662 1375 2662 
Q 1869 2662 2150 2460 
Q 2431 2259 2431 1912 
Q 2431 1687 2320 1498 
Q 2209 1309 1894 1040 
L 1288 525 
z
" transform="scale(0.015625)"/>
     </defs>
     <use xlink:href="#DejaVuSans-Bold-77"/>
     <use xlink:href="#DejaVuSans-Bold-2082" x="92.382812"/>
    </g>
   </g>
   <g id="patch_6">
    <path d="M 77.04 266.582701 
C 82.966971 266.582701 88.651987 264.457767 92.842988 260.675891 
C 97.033989 256.894015 99.3888 251.763971 99.3888 246.41559 
C 99.3888 241.06721 97.033989 235.937165 92.842988 232.155289 
C 88.651987 228.373413 82.966971 226.248479 77.04 226.248479 
C 71.113029 226.248479 65.428013 228.373413 61.237012 232.155289 
C 57.046011 235.937165 54.6912 241.06721 54.6912 246.41559 
C 54.6912 251.763971 57.046011 256.894015 61.237012 260.675891 
C 65.428013 264.457767 71.113029 266.582701 77.04 266.582701 
z
" clip-path="url(#pf43c2c5f5f)" style="fill: #dbeafe; stroke: #2563eb; stroke-width: 1.5; stroke-linejoin: miter"/>
   </g>
   <g id="patch_7">
    <path d="M 101.214097 245.6018 
Q 187.735155 207.027257 272.724498 169.135613 
" style="fill: none; stroke: #475569; stroke-width: 1.5; stroke-linecap: round"/>
    <path d="M 268.256742 168.937747 
L 272.724498 169.135613 
L 269.885552 172.591098 
z
" style="fill: #475569; stroke: #475569; stroke-width: 1.5; stroke-linecap: round"/>
   </g>
   <g id="text_3">
    <!-- w₃ -->
    <g style="fill: #dc2626" transform="translate(166.278087 197.573368) scale(0.11 -0.11)">
     <defs>
      <path id="DejaVuSans-Bold-2083" d="M 1850 1412 
Q 2138 1356 2297 1184 
Q 2456 1012 2456 759 
Q 2456 356 2147 154 
Q 1838 -47 1209 -47 
Q 956 -47 725 -11 
Q 494 25 281 93 
L 281 637 
Q 488 525 688 467 
Q 888 409 1075 409 
Q 1372 409 1534 509 
Q 1697 609 1697 793 
Q 1697 993 1530 1088 
Q 1363 1184 1006 1184 
L 775 1184 
L 775 1612 
L 1038 1612 
Q 1344 1612 1484 1685 
Q 1625 1759 1625 1918 
Q 1625 2059 1503 2129 
Q 1381 2200 1131 2200 
Q 969 2200 776 2159 
Q 584 2118 366 2034 
L 366 2553 
Q 569 2606 805 2634 
Q 1041 2662 1313 2662 
Q 1834 2662 2111 2487 
Q 2388 2312 2388 1984 
Q 2388 1768 2247 1618 
Q 2106 1468 1850 1412 
z
" transform="scale(0.015625)"/>
     </defs>
     <use xlink:href="#DejaVuSans-Bold-77"/>
     <use xlink:href="#DejaVuSans-Bold-2083" x="92.382812"/>
    </g>
   </g>
   <g id="text_4">
    <!-- +b -->
    <g style="fill: #92400e" transform="translate(278.014375 63.651146) scale(0.11 -0.11)">
     <defs>
      <path id="DejaVuSans-Bold-2b" d="M 3053 4013 
L 3053 2375 
L 4684 2375 
L 4684 1638 
L 3053 1638 
L 3053 0 
L 2309 0 
L 2309 1638 
L 678 1638 
L 678 2375 
L 2309 2375 
L 2309 4013 
L 3053 4013 
z
" transform="scale(0.015625)"/>
      <path id="DejaVuSans-Bold-62" d="M 2400 722 
Q 2759 722 2948 984 
Q 3138 1247 3138 1747 
Q 3138 2247 2948 2509 
Q 2759 2772 2400 2772 
Q 2041 2772 1848 2508 
Q 1656 2244 1656 1747 
Q 1656 1250 1848 986 
Q 2041 722 2400 722 
z
M 1656 2988 
Q 1888 3294 2169 3439 
Q 2450 3584 2816 3584 
Q 3463 3584 3878 3070 
Q 4294 2556 4294 1747 
Q 4294 938 3878 423 
Q 3463 -91 2816 -91 
Q 2450 -91 2169 54 
Q 1888 200 1656 506 
L 1656 0 
L 538 0 
L 538 4863 
L 1656 4863 
L 1656 2988 
z
" transform="scale(0.015625)"/>
     </defs>
     <use xlink:href="#DejaVuSans-Bold-2b"/>
     <use xlink:href="#DejaVuSans-Bold-62" x="83.789062"/>
    </g>
   </g>
   <g id="patch_8">
    <path d="M 286.56 68.806244 
Q 286.56 84.765662 286.56 99.048029 
" style="fill: none; stroke: #d97706; stroke-width: 1.5; stroke-linecap: round"/>
    <path d="M 288.56 95.048029 
L 286.56 99.048029 
L 284.56 95.048029 
z
" style="fill: #d97706; stroke: #d97706; stroke-width: 1.5; stroke-linecap: round"/>
   </g>
   <g id="patch_9">
    <path d="M 286.56 194.107146 
C 294.339149 194.107146 301.800732 191.31817 307.301422 186.354458 
C 312.802111 181.390745 315.8928 174.657562 315.8928 167.637812 
C 315.8928 160.618063 312.802111 153.88488 307.301422 148.921167 
C 301.800732 143.957455 294.339149 141.168479 286.56 141.168479 
C 278.780851 141.168479 271.319268 143.957455 265.818578 148.921167 
C 260.317889 153.88488 257.2272 160.618063 257.2272 167.637812 
C 257.2272 174.657562 260.317889 181.390745 265.818578 186.354458 
C 271.319268 191.31817 278.780851 194.107146 286.56 194.107146 
z
" clip-path="url(#pf43c2c5f5f)" style="fill: #fef3c7; stroke: #d97706; stroke-width: 2; stroke-linejoin: miter"/>
   </g>
   <g id="text_5">
    <!-- z = Σwᵢxᵢ + b -->
    <g style="fill: #6b7280" transform="translate(257.283281 201.03959) scale(0.09 -0.09)">
     <defs>
      <path id="DejaVuSans-7a" d="M 353 3500 
L 3084 3500 
L 3084 2975 
L 922 459 
L 3084 459 
L 3084 0 
L 275 0 
L 275 525 
L 2438 3041 
L 353 3041 
L 353 3500 
z
" transform="scale(0.015625)"/>
      <path id="DejaVuSans-20" transform="scale(0.015625)"/>
      <path id="DejaVuSans-3d" d="M 678 2906 
L 4684 2906 
L 4684 2381 
L 678 2381 
L 678 2906 
z
M 678 1631 
L 4684 1631 
L 4684 1100 
L 678 1100 
L 678 1631 
z
" transform="scale(0.015625)"/>
      <path id="DejaVuSans-3a3" d="M 1353 531 
L 3634 531 
L 3634 0 
L 628 0 
L 628 531 
L 2125 2481 
L 628 4134 
L 628 4666 
L 3578 4666 
L 3578 4134 
L 1353 4134 
L 2850 2494 
L 1353 531 
z
" transform="scale(0.015625)"/>
      <path id="DejaVuSans-77" d="M 269 3500 
L 844 3500 
L 1563 769 
L 2278 3500 
L 2956 3500 
L 3675 769 
L 4391 3500 
L 4966 3500 
L 4050 0 
L 3372 0 
L 2619 2869 
L 1863 0 
L 1184 0 
L 269 3500 
z
" transform="scale(0.015625)"/>
      <path id="DejaVuSans-1d62" d="M 381 1959 
L 744 1959 
L 744 0 
L 381 0 
L 381 1959 
z
M 381 2721 
L 744 2721 
L 744 2315 
L 381 2315 
L 381 2721 
z
" transform="scale(0.015625)"/>
      <path id="DejaVuSans-78" d="M 3513 3500 
L 2247 1797 
L 3578 0 
L 2900 0 
L 1881 1375 
L 863 0 
L 184 0 
L 1544 1831 
L 300 3500 
L 978 3500 
L 1906 2253 
L 2834 3500 
L 3513 3500 
z
" transform="scale(0.015625)"/>
      <path id="DejaVuSans-2b" d="M 2944 4013 
L 2944 2272 
L 4684 2272 
L 4684 1741 
L 2944 1741 
L 2944 0 
L 2419 0 
L 2419 1741 
L 678 1741 
L 678 2272 
L 2419 2272 
L 2419 4013 
L 2944 4013 
z
" transform="scale(0.015625)"/>
      <path id="DejaVuSans-62" d="M 3116 1747 
Q 3116 2381 2855 2742 
Q 2594 3103 2138 3103 
Q 1681 3103 1420 2742 
Q 1159 2381 1159 1747 
Q 1159 1113 1420 752 
Q 1681 391 2138 391 
Q 2594 391 2855 752 
Q 3116 1113 3116 1747 
z
M 1159 2969 
Q 1341 3281 1617 3432 
Q 1894 3584 2278 3584 
Q 2916 3584 3314 3078 
Q 3713 2572 3713 1747 
Q 3713 922 3314 415 
Q 2916 -91 2278 -91 
Q 1894 -91 1617 61 
Q 1341 213 1159 525 
L 1159 0 
L 581 0 
L 581 4863 
L 1159 4863 
L 1159 2969 
z
" transform="scale(0.015625)"/>
     </defs>
     <use xlink:href="#DejaVuSans-7a"/>
     <use xlink:href="#DejaVuSans-20" x="52.490234"/>
     <use xlink:href="#DejaVuSans-3d" x="84.277344"/>
     <use xlink:href="#DejaVuSans-20" x="168.066406"/>
     <use xlink:href="#DejaVuSans-3a3" x="199.853516"/>
     <use xlink:href="#DejaVuSans-77" x="263.037109"/>
     <use xlink:href="#DejaVuSans-1d62" x="344.824219"/>
     <use xlink:href="#DejaVuSans-78" x="362.695312"/>
     <use xlink:href="#DejaVuSans-1d62" x="421.875"/>
     <use xlink:href="#DejaVuSans-20" x="439.746094"/>
     <use xlink:href="#DejaVuSans-2b" x="471.533203"/>
     <use xlink:href="#DejaVuSans-20" x="555.322266"/>
     <use xlink:href="#DejaVuSans-62" x="587.109375"/>
    </g>
   </g>
   <g id="patch_10">
    <path d="M 317.891791 167.637812 
Q 373.859849 167.637812 428.150855 167.637812 
" style="fill: none; stroke: #374151; stroke-width: 1.5; stroke-linecap: round"/>
    <path d="M 424.150855 165.637812 
L 428.150855 167.637812 
L 424.150855 169.637812 
z
" style="fill: #374151; stroke: #374151; stroke-width: 1.5; stroke-linecap: round"/>
   </g>
   <g id="text_6">
    <!-- z -->
    <g style="fill: #475569" transform="translate(370.973359 148.731146) scale(0.11 -0.11)">
     <use xlink:href="#DejaVuSans-7a"/>
    </g>
   </g>
   <g id="patch_11">
    <path d="M 440.9064 199.779146 
L 551.2536 199.779146 
Q 559.6344 199.779146 559.6344 192.216479 
L 559.6344 143.059146 
Q 559.6344 135.496479 551.2536 135.496479 
L 440.9064 135.496479 
Q 432.5256 135.496479 432.5256 143.059146 
L 432.5256 192.216479 
Q 432.5256 199.779146 440.9064 199.779146 
z
" clip-path="url(#pf43c2c5f5f)" style="fill: #dcfce7; stroke: #16a34a; stroke-width: 1.5; stroke-linejoin: miter"/>
   </g>
   <g id="patch_12">
    <path d="M 557.440433 167.637812 
Q 588.616615 167.637812 618.115746 167.637812 
" style="fill: none; stroke: #374151; stroke-width: 1.5; stroke-linecap: round"/>
    <path d="M 614.115746 165.637812 
L 618.115746 167.637812 
L 614.115746 169.637812 
z
" style="fill: #374151; stroke: #374151; stroke-width: 1.5; stroke-linecap: round"/>
   </g>
   <g id="patch_13">
    <path d="M 649.728 187.804924 
C 655.654971 187.804924 661.339987 185.67999 665.530988 181.898114 
C 669.721989 178.116237 672.0768 172.986193 672.0768 167.637812 
C 672.0768 162.289432 669.721989 157.159388 665.530988 153.377511 
C 661.339987 149.595635 655.654971 147.470701 649.728 147.470701 
C 643.801029 147.470701 638.116013 149.595635 633.925012 153.377511 
C 629.734011 157.159388 627.3792 162.289432 627.3792 167.637812 
C 627.3792 172.986193 629.734011 178.116237 633.925012 181.898114 
C 638.116013 185.67999 643.801029 187.804924 649.728 187.804924 
z
" clip-path="url(#pf43c2c5f5f)" style="fill: #fce7f3; stroke: #db2777; stroke-width: 1.5; stroke-linejoin: miter"/>
   </g>
   <g id="text_7">
    <g id="patch_14">
     <path d="M 257.584336 287.461484 
L 455.215664 287.461484 
Q 459.415664 287.461484 459.415664 283.261484 
L 459.415664 272.643359 
Q 459.415664 268.443359 455.215664 268.443359 
L 257.584336 268.443359 
Q 253.384336 268.443359 253.384336 272.643359 
L 253.384336 283.261484 
Q 253.384336 287.461484 257.584336 287.461484 
z
" style="fill: #f3f4f6; stroke: #cbd5e1; stroke-linejoin: miter"/>
    </g>
    <!-- output  ŷ = f(w₁x₁ + w₂x₂ + w₃x₃ + b) -->
    <g style="fill: #1f2937" transform="translate(257.584336 281.077812) scale(0.105 -0.105)">
     <defs>
      <path id="DejaVuSans-6f" d="M 1959 3097 
Q 1497 3097 1228 2736 
Q 959 2375 959 1747 
Q 959 1119 1226 758 
Q 1494 397 1959 397 
Q 2419 397 2687 759 
Q 2956 1122 2956 1747 
Q 2956 2369 2687 2733 
Q 2419 3097 1959 3097 
z
M 1959 3584 
Q 2709 3584 3137 3096 
Q 3566 2609 3566 1747 
Q 3566 888 3137 398 
Q 2709 -91 1959 -91 
Q 1206 -91 779 398 
Q 353 888 353 1747 
Q 353 2609 779 3096 
Q 1206 3584 1959 3584 
z
" transform="scale(0.015625)"/>
      <path id="DejaVuSans-75" d="M 544 1381 
L 544 3500 
L 1119 3500 
L 1119 1403 
Q 1119 906 1312 657 
Q 1506 409 1894 409 
Q 2359 409 2629 706 
Q 2900 1003 2900 1516 
L 2900 3500 
L 3475 3500 
L 3475 0 
L 2900 0 
L 2900 538 
Q 2691 219 2414 64 
Q 2138 -91 1772 -91 
Q 1169 -91 856 284 
Q 544 659 544 1381 
z
M 1991 3584 
L 1991 3584 
z
" transform="scale(0.015625)"/>
      <path id="DejaVuSans-74" d="M 1172 4494 
L 1172 3500 
L 2356 3500 
L 2356 3053 
L 1172 3053 
L 1172 1153 
Q 1172 725 1289 603 
Q 1406 481 1766 481 
L 2356 481 
L 2356 0 
L 1766 0 
Q 1100 0 847 248 
Q 594 497 594 1153 
L 594 3053 
L 172 3053 
L 172 3500 
L 594 3500 
L 594 4494 
L 1172 4494 
z
" transform="scale(0.015625)"/>
      <path id="DejaVuSans-70" d="M 1159 525 
L 1159 -1331 
L 581 -1331 
L 581 3500 
L 1159 3500 
L 1159 2969 
Q 1341 3281 1617 3432 
Q 1894 3584 2278 3584 
Q 2916 3584 3314 3078 
Q 3713 2572 3713 1747 
Q 3713 922 3314 415 
Q 2916 -91 2278 -91 
Q 1894 -91 1617 61 
Q 1341 213 1159 525 
z
M 3116 1747 
Q 3116 2381 2855 2742 
Q 2594 3103 2138 3103 
Q 1681 3103 1420 2742 
Q 1159 2381 1159 1747 
Q 1159 1113 1420 752 
Q 1681 391 2138 391 
Q 2594 391 2855 752 
Q 3116 1113 3116 1747 
z
" transform="scale(0.015625)"/>
      <path id="DejaVuSans-177" d="M 1663 5141 
L 2125 5141 
L 2891 3966 
L 2456 3966 
L 1894 4731 
L 1331 3966 
L 897 3966 
L 1663 5141 
z
M 2059 -325 
Q 1816 -950 1584 -1140 
Q 1353 -1331 966 -1331 
L 506 -1331 
L 506 -850 
L 844 -850 
Q 1081 -850 1212 -737 
Q 1344 -625 1503 -206 
L 1606 56 
L 191 3500 
L 800 3500 
L 1894 763 
L 2988 3500 
L 3597 3500 
L 2059 -325 
z
" transform="scale(0.015625)"/>
      <path id="DejaVuSans-66" d="M 2375 4863 
L 2375 4384 
L 1825 4384 
Q 1516 4384 1395 4259 
Q 1275 4134 1275 3809 
L 1275 3500 
L 2222 3500 
L 2222 3053 
L 1275 3053 
L 1275 0 
L 697 0 
L 697 3053 
L 147 3053 
L 147 3500 
L 697 3500 
L 697 3744 
Q 697 4328 969 4595 
Q 1241 4863 1831 4863 
L 2375 4863 
z
" transform="scale(0.015625)"/>
      <path id="DejaVuSans-28" d="M 1984 4856 
Q 1566 4138 1362 3434 
Q 1159 2731 1159 2009 
Q 1159 1288 1364 580 
Q 1569 -128 1984 -844 
L 1484 -844 
Q 1016 -109 783 600 
Q 550 1309 550 2009 
Q 550 2706 781 3412 
Q 1013 4119 1484 4856 
L 1984 4856 
z
" transform="scale(0.015625)"/>
      <path id="DejaVuSans-2081" d="M 488 343 
L 1125 343 
L 1125 2253 
L 428 2125 
L 428 2487 
L 1147 2609 
L 1575 2609 
L 1575 343 
L 2216 343 
L 2216 0 
L 488 0 
L 488 343 
z
" transform="scale(0.015625)"/>
      <path id="DejaVuSans-2082" d="M 838 356 
L 2163 356 
L 2163 0 
L 294 0 
L 294 343 
Q 400 440 597 615 
Q 1672 1568 1672 1862 
Q 1672 2068 1509 2194 
Q 1347 2321 1081 2321 
Q 919 2321 728 2266 
Q 538 2212 313 2103 
L 313 2487 
Q 553 2575 761 2618 
Q 969 2662 1147 2662 
Q 1600 2662 1872 2456 
Q 2144 2250 2144 1912 
Q 2144 1478 1109 590 
Q 934 440 838 356 
z
" transform="scale(0.015625)"/>
      <path id="DejaVuSans-2083" d="M 1638 1412 
Q 1925 1356 2083 1185 
Q 2241 1015 2241 759 
Q 2241 371 1944 162 
Q 1647 -47 1094 -47 
Q 916 -47 720 -14 
Q 525 18 306 81 
L 306 459 
Q 469 375 655 334 
Q 841 293 1050 293 
Q 1391 293 1578 416 
Q 1766 540 1766 759 
Q 1766 990 1592 1109 
Q 1419 1228 1081 1228 
L 813 1228 
L 813 1565 
L 1106 1565 
Q 1400 1565 1551 1663 
Q 1703 1762 1703 1950 
Q 1703 2131 1547 2226 
Q 1391 2321 1094 2321 
Q 969 2321 809 2293 
Q 650 2265 397 2193 
L 397 2553 
Q 625 2606 825 2634 
Q 1025 2662 1197 2662 
Q 1647 2662 1911 2477 
Q 2175 2293 2175 1984 
Q 2175 1768 2034 1618 
Q 1894 1468 1638 1412 
z
" transform="scale(0.015625)"/>
      <path id="DejaVuSans-29" d="M 513 4856 
L 1013 4856 
Q 1481 4119 1714 3412 
Q 1947 2706 1947 2009 
Q 1947 1309 1714 600 
Q 1481 -109 1013 -844 
L 513 -844 
Q 928 -128 1133 580 
Q 1338 1288 1338 2009 
Q 1338 2731 1133 3434 
Q 928 4138 513 4856 
z
" transform="scale(0.015625)"/>
     </defs>
     <use xlink:href="#DejaVuSans-6f"/>
     <use xlink:href="#DejaVuSans-75" x="61.181641"/>
     <use xlink:href="#DejaVuSans-74" x="124.560547"/>
     <use xlink:href="#DejaVuSans-70" x="163.769531"/>
     <use xlink:href="#DejaVuSans-75" x="227.246094"/>
     <use xlink:href="#DejaVuSans-74" x="290.625"/>
     <use xlink:href="#DejaVuSans-20" x="329.833984"/>
     <use xlink:href="#DejaVuSans-20" x="361.621094"/>
     <use xlink:href="#DejaVuSans-177" x="393.408203"/>
     <use xlink:href="#DejaVuSans-20" x="452.587891"/>
     <use xlink:href="#DejaVuSans-3d" x="484.375"/>
     <use xlink:href="#DejaVuSans-20" x="568.164062"/>
     <use xlink:href="#DejaVuSans-66" x="599.951172"/>
     <use xlink:href="#DejaVuSans-28" x="635.15625"/>
     <use xlink:href="#DejaVuSans-77" x="674.169922"/>
     <use xlink:href="#DejaVuSans-2081" x="755.957031"/>
     <use xlink:href="#DejaVuSans-78" x="796.044922"/>
     <use xlink:href="#DejaVuSans-2081" x="855.224609"/>
     <use xlink:href="#DejaVuSans-20" x="895.3125"/>
     <use xlink:href="#DejaVuSans-2b" x="927.099609"/>
     <use xlink:href="#DejaVuSans-20" x="1010.888672"/>
     <use xlink:href="#DejaVuSans-77" x="1042.675781"/>
     <use xlink:href="#DejaVuSans-2082" x="1124.462891"/>
     <use xlink:href="#DejaVuSans-78" x="1164.550781"/>
     <use xlink:href="#DejaVuSans-2082" x="1223.730469"/>
     <use xlink:href="#DejaVuSans-20" x="1263.818359"/>
     <use xlink:href="#DejaVuSans-2b" x="1295.605469"/>
     <use xlink:href="#DejaVuSans-20" x="1379.394531"/>
     <use xlink:href="#DejaVuSans-77" x="1411.181641"/>
     <use xlink:href="#DejaVuSans-2083" x="1492.96875"/>
     <use xlink:href="#DejaVuSans-78" x="1533.056641"/>
     <use xlink:href="#DejaVuSans-2083" x="1592.236328"/>
     <use xlink:href="#DejaVuSans-20" x="1632.324219"/>
     <use xlink:href="#DejaVuSans-2b" x="1664.111328"/>
     <use xlink:href="#DejaVuSans-20" x="1747.900391"/>
     <use xlink:href="#DejaVuSans-62" x="1779.6875"/>
     <use xlink:href="#DejaVuSans-29" x="1843.164062"/>
    </g>
   </g>
   <g id="text_8">
    <!-- Artificial Neuron -->
    <g style="fill: #0f172a" transform="translate(291.397344 17.837812) scale(0.14 -0.14)">
     <defs>
      <path id="DejaVuSans-Bold-41" d="M 3419 850 
L 1538 850 
L 1241 0 
L 31 0 
L 1759 4666 
L 3194 4666 
L 4922 0 
L 3713 0 
L 3419 850 
z
M 1838 1716 
L 3116 1716 
L 2478 3572 
L 1838 1716 
z
" transform="scale(0.015625)"/>
      <path id="DejaVuSans-Bold-72" d="M 3138 2547 
Q 2991 2616 2845 2648 
Q 2700 2681 2553 2681 
Q 2122 2681 1889 2404 
Q 1656 2128 1656 1613 
L 1656 0 
L 538 0 
L 538 3500 
L 1656 3500 
L 1656 2925 
Q 1872 3269 2151 3426 
Q 2431 3584 2822 3584 
Q 2878 3584 2943 3579 
Q 3009 3575 3134 3559 
L 3138 2547 
z
" transform="scale(0.015625)"/>
      <path id="DejaVuSans-Bold-74" d="M 1759 4494 
L 1759 3500 
L 2913 3500 
L 2913 2700 
L 1759 2700 
L 1759 1216 
Q 1759 972 1856 886 
Q 1953 800 2241 800 
L 2816 800 
L 2816 0 
L 1856 0 
Q 1194 0 917 276 
Q 641 553 641 1216 
L 641 2700 
L 84 2700 
L 84 3500 
L 641 3500 
L 641 4494 
L 1759 4494 
z
" transform="scale(0.015625)"/>
      <path id="DejaVuSans-Bold-69" d="M 538 3500 
L 1656 3500 
L 1656 0 
L 538 0 
L 538 3500 
z
M 538 4863 
L 1656 4863 
L 1656 3950 
L 538 3950 
L 538 4863 
z
" transform="scale(0.015625)"/>
      <path id="DejaVuSans-Bold-66" d="M 2841 4863 
L 2841 4128 
L 2222 4128 
Q 1984 4128 1890 4042 
Q 1797 3956 1797 3744 
L 1797 3500 
L 2753 3500 
L 2753 2700 
L 1797 2700 
L 1797 0 
L 678 0 
L 678 2700 
L 122 2700 
L 122 3500 
L 678 3500 
L 678 3744 
Q 678 4316 997 4589 
Q 1316 4863 1984 4863 
L 2841 4863 
z
" transform="scale(0.015625)"/>
      <path id="DejaVuSans-Bold-63" d="M 3366 3391 
L 3366 2478 
Q 3138 2634 2908 2709 
Q 2678 2784 2431 2784 
Q 1963 2784 1702 2511 
Q 1441 2238 1441 1747 
Q 1441 1256 1702 982 
Q 1963 709 2431 709 
Q 2694 709 2930 787 
Q 3166 866 3366 1019 
L 3366 103 
Q 3103 6 2833 -42 
Q 2563 -91 2291 -91 
Q 1344 -91 809 395 
Q 275 881 275 1747 
Q 275 2613 809 3098 
Q 1344 3584 2291 3584 
Q 2566 3584 2833 3536 
Q 3100 3488 3366 3391 
z
" transform="scale(0.015625)"/>
      <path id="DejaVuSans-Bold-61" d="M 2106 1575 
Q 1756 1575 1579 1456 
Q 1403 1338 1403 1106 
Q 1403 894 1545 773 
Q 1688 653 1941 653 
Q 2256 653 2472 879 
Q 2688 1106 2688 1447 
L 2688 1575 
L 2106 1575 
z
M 3816 1997 
L 3816 0 
L 2688 0 
L 2688 519 
Q 2463 200 2181 54 
Q 1900 -91 1497 -91 
Q 953 -91 614 226 
Q 275 544 275 1050 
Q 275 1666 698 1953 
Q 1122 2241 2028 2241 
L 2688 2241 
L 2688 2328 
Q 2688 2594 2478 2717 
Q 2269 2841 1825 2841 
Q 1466 2841 1156 2769 
Q 847 2697 581 2553 
L 581 3406 
Q 941 3494 1303 3539 
Q 1666 3584 2028 3584 
Q 2975 3584 3395 3211 
Q 3816 2838 3816 1997 
z
" transform="scale(0.015625)"/>
      <path id="DejaVuSans-Bold-6c" d="M 538 4863 
L 1656 4863 
L 1656 0 
L 538 0 
L 538 4863 
z
" transform="scale(0.015625)"/>
      <path id="DejaVuSans-Bold-20" transform="scale(0.015625)"/>
      <path id="DejaVuSans-Bold-4e" d="M 588 4666 
L 1931 4666 
L 3628 1466 
L 3628 4666 
L 4769 4666 
L 4769 0 
L 3425 0 
L 1728 3200 
L 1728 0 
L 588 0 
L 588 4666 
z
" transform="scale(0.015625)"/>
      <path id="DejaVuSans-Bold-65" d="M 4031 1759 
L 4031 1441 
L 1416 1441 
Q 1456 1047 1700 850 
Q 1944 653 2381 653 
Q 2734 653 3104 758 
Q 3475 863 3866 1075 
L 3866 213 
Q 3469 63 3072 -14 
Q 2675 -91 2278 -91 
Q 1328 -91 801 392 
Q 275 875 275 1747 
Q 275 2603 792 3093 
Q 1309 3584 2216 3584 
Q 3041 3584 3536 3087 
Q 4031 2591 4031 1759 
z
M 2881 2131 
Q 2881 2450 2695 2645 
Q 2509 2841 2209 2841 
Q 1884 2841 1681 2658 
Q 1478 2475 1428 2131 
L 2881 2131 
z
" transform="scale(0.015625)"/>
      <path id="DejaVuSans-Bold-75" d="M 500 1363 
L 500 3500 
L 1625 3500 
L 1625 3150 
Q 1625 2866 1622 2436 
Q 1619 2006 1619 1863 
Q 1619 1441 1641 1255 
Q 1663 1069 1716 984 
Q 1784 875 1895 815 
Q 2006 756 2150 756 
Q 2500 756 2700 1025 
Q 2900 1294 2900 1772 
L 2900 3500 
L 4019 3500 
L 4019 0 
L 2900 0 
L 2900 506 
Q 2647 200 2364 54 
Q 2081 -91 1741 -91 
Q 1134 -91 817 281 
Q 500 653 500 1363 
z
" transform="scale(0.015625)"/>
      <path id="DejaVuSans-Bold-6f" d="M 2203 2784 
Q 1831 2784 1636 2517 
Q 1441 2250 1441 1747 
Q 1441 1244 1636 976 
Q 1831 709 2203 709 
Q 2569 709 2762 976 
Q 2956 1244 2956 1747 
Q 2956 2250 2762 2517 
Q 2569 2784 2203 2784 
z
M 2203 3584 
Q 3106 3584 3614 3096 
Q 4122 2609 4122 1747 
Q 4122 884 3614 396 
Q 3106 -91 2203 -91 
Q 1297 -91 786 396 
Q 275 884 275 1747 
Q 275 2609 786 3096 
Q 1297 3584 2203 3584 
z
" transform="scale(0.015625)"/>
      <path id="DejaVuSans-Bold-6e" d="M 4056 2131 
L 4056 0 
L 2931 0 
L 2931 347 
L 2931 1631 
Q 2931 2084 2911 2256 
Q 2891 2428 2841 2509 
Q 2775 2619 2662 2680 
Q 2550 2741 2406 2741 
Q 2056 2741 1856 2470 
Q 1656 2200 1656 1722 
L 1656 0 
L 538 0 
L 538 3500 
L 1656 3500 
L 1656 2988 
Q 1909 3294 2193 3439 
Q 2478 3584 2822 3584 
Q 3428 3584 3742 3212 
Q 4056 2841 4056 2131 
z
" transform="scale(0.015625)"/>
     </defs>
     <use xlink:href="#DejaVuSans-Bold-41"/>
     <use xlink:href="#DejaVuSans-Bold-72" x="77.392578"/>
     <use xlink:href="#DejaVuSans-Bold-74" x="126.708984"/>
     <use xlink:href="#DejaVuSans-Bold-69" x="174.511719"/>
     <use xlink:href="#DejaVuSans-Bold-66" x="208.789062"/>
     <use xlink:href="#DejaVuSans-Bold-69" x="252.294922"/>
     <use xlink:href="#DejaVuSans-Bold-63" x="286.572266"/>
     <use xlink:href="#DejaVuSans-Bold-69" x="345.849609"/>
     <use xlink:href="#DejaVuSans-Bold-61" x="380.126953"/>
     <use xlink:href="#DejaVuSans-Bold-6c" x="447.607422"/>
     <use xlink:href="#DejaVuSans-Bold-20" x="481.884766"/>
     <use xlink:href="#DejaVuSans-Bold-4e" x="516.699219"/>
     <use xlink:href="#DejaVuSans-Bold-65" x="600.390625"/>
     <use xlink:href="#DejaVuSans-Bold-75" x="668.212891"/>
     <use xlink:href="#DejaVuSans-Bold-72" x="739.404297"/>
     <use xlink:href="#DejaVuSans-Bold-6f" x="788.720703"/>
     <use xlink:href="#DejaVuSans-Bold-6e" x="857.421875"/>
    </g>
   </g>
   <g id="text_9">
    <!-- x₁ -->
    <g style="fill: #1e40af" transform="translate(70.542188 92.171285) scale(0.12 -0.12)">
     <defs>
      <path id="DejaVuSans-Bold-78" d="M 1422 1791 
L 159 3500 
L 1344 3500 
L 2059 2463 
L 2784 3500 
L 3969 3500 
L 2706 1797 
L 4031 0 
L 2847 0 
L 2059 1106 
L 1281 0 
L 97 0 
L 1422 1791 
z
" transform="scale(0.015625)"/>
     </defs>
     <use xlink:href="#DejaVuSans-Bold-78"/>
     <use xlink:href="#DejaVuSans-Bold-2081" x="64.501953"/>
    </g>
   </g>
   <g id="text_10">
    <!-- x₂ -->
    <g style="fill: #1e40af" transform="translate(70.542188 170.949062) scale(0.12 -0.12)">
     <use xlink:href="#DejaVuSans-Bold-78"/>
     <use xlink:href="#DejaVuSans-Bold-2082" x="64.501953"/>
    </g>
   </g>
   <g id="text_11">
    <!-- x₃ -->
    <g style="fill: #1e40af" transform="translate(70.542188 249.72684) scale(0.12 -0.12)">
     <use xlink:href="#DejaVuSans-Bold-78"/>
     <use xlink:href="#DejaVuSans-Bold-2083" x="64.501953"/>
    </g>
   </g>
   <g id="text_12">
    <!-- ∑ -->
    <g style="fill: #92400e" transform="translate(280.494844 169.453576) scale(0.18 -0.18)">
     <defs>
      <path id="DejaVuSans-2211" d="M 172 4603 
L 4103 4603 
L 4103 4000 
L 1106 4000 
L 3206 1759 
L 1038 -628 
L 4184 -628 
L 4184 -1228 
L 78 -1228 
L 78 -763 
L 2344 1741 
L 172 4050 
L 172 4603 
z
" transform="scale(0.015625)"/>
     </defs>
     <use xlink:href="#DejaVuSans-2211"/>
    </g>
   </g>
   <g id="text_13">
    <!-- Activation -->
    <g style="fill: #1f2937" transform="translate(464.543516 164.514328) scale(0.11 -0.11)">
     <defs>
      <path id="DejaVuSans-Bold-76" d="M 97 3500 
L 1216 3500 
L 2088 1081 
L 2956 3500 
L 4078 3500 
L 2700 0 
L 1472 0 
L 97 3500 
z
" transform="scale(0.015625)"/>
     </defs>
     <use xlink:href="#DejaVuSans-Bold-41"/>
     <use xlink:href="#DejaVuSans-Bold-63" x="77.392578"/>
     <use xlink:href="#DejaVuSans-Bold-74" x="136.669922"/>
     <use xlink:href="#DejaVuSans-Bold-69" x="184.472656"/>
     <use xlink:href="#DejaVuSans-Bold-76" x="218.75"/>
     <use xlink:href="#DejaVuSans-Bold-61" x="283.935547"/>
     <use xlink:href="#DejaVuSans-Bold-74" x="351.416016"/>
     <use xlink:href="#DejaVuSans-Bold-69" x="399.21875"/>
     <use xlink:href="#DejaVuSans-Bold-6f" x="433.496094"/>
     <use xlink:href="#DejaVuSans-Bold-6e" x="502.197266"/>
    </g>
    <!-- f(z) -->
    <g style="fill: #1f2937" transform="translate(485.458984 176.831922) scale(0.11 -0.11)">
     <defs>
      <path id="DejaVuSans-Bold-28" d="M 2413 -844 
L 1484 -844 
Q 1006 -72 778 623 
Q 550 1319 550 2003 
Q 550 2688 779 3389 
Q 1009 4091 1484 4856 
L 2413 4856 
Q 2013 4116 1813 3408 
Q 1613 2700 1613 2009 
Q 1613 1319 1811 609 
Q 2009 -100 2413 -844 
z
" transform="scale(0.015625)"/>
      <path id="DejaVuSans-Bold-7a" d="M 366 3500 
L 3419 3500 
L 3419 2719 
L 1575 800 
L 3419 800 
L 3419 0 
L 288 0 
L 288 781 
L 2131 2700 
L 366 2700 
L 366 3500 
z
" transform="scale(0.015625)"/>
      <path id="DejaVuSans-Bold-29" d="M 513 -844 
Q 913 -100 1113 609 
Q 1313 1319 1313 2009 
Q 1313 2700 1113 3408 
Q 913 4116 513 4856 
L 1441 4856 
Q 1916 4091 2145 3389 
Q 2375 2688 2375 2003 
Q 2375 1319 2147 623 
Q 1919 -72 1441 -844 
L 513 -844 
z
" transform="scale(0.015625)"/>
     </defs>
     <use xlink:href="#DejaVuSans-Bold-66"/>
     <use xlink:href="#DejaVuSans-Bold-28" x="43.505859"/>
     <use xlink:href="#DejaVuSans-Bold-7a" x="89.208984"/>
     <use xlink:href="#DejaVuSans-Bold-29" x="147.412109"/>
    </g>
   </g>
   <g id="text_14">
    <!-- ŷ -->
    <g style="fill: #db2777" transform="translate(645.490813 171.434219) scale(0.13 -0.13)">
     <defs>
      <path id="DejaVuSans-Bold-177" d="M 1688 5119 
L 2444 5119 
L 3244 3944 
L 2688 3944 
L 2066 4647 
L 1444 3944 
L 888 3944 
L 1688 5119 
z
M 78 3500 
L 1197 3500 
L 2138 1125 
L 2938 3500 
L 4056 3500 
L 2584 -331 
Q 2363 -916 2067 -1148 
Q 1772 -1381 1288 -1381 
L 641 -1381 
L 641 -647 
L 991 -647 
Q 1275 -647 1404 -556 
Q 1534 -466 1606 -231 
L 1638 -134 
L 78 3500 
z
" transform="scale(0.015625)"/>
     </defs>
     <use xlink:href="#DejaVuSans-Bold-177"/>
    </g>
   </g>
  </g>
 </g>
 <defs>
  <clipPath id="pf43c2c5f5f">
   <rect x="7.2" y="25.837812" width="698.4" height="283.6"/>
  </clipPath>
 </defs>
</svg>
