<svg xmlns="http://www.w3.org/2000/svg" viewBox="0 0 640 180" font-family="'Segoe UI', Arial, sans-serif" font-size="14">
  <defs>
    <marker id="as" markerWidth="8" markerHeight="6" refX="8" refY="3" orient="auto">
      <path d="M0,0 L8,3 L0,6 Z" fill="#555"/>
    </marker>
  </defs>

  <!-- Logits -->
  <text x="50" y="22" font-size="13" font-weight="bold" fill="#555">Logits:</text>
  <g transform="translate(15,30)">
    <rect x="0" y="0" width="50" height="30" rx="3" fill="#f5f5f5" stroke="#ccc"/>
    <text x="25" y="20" text-anchor="middle" font-size="11" fill="#666">0.1</text>
    <rect x="50" y="0" width="50" height="30" rx="3" fill="#fef3c7" stroke="#d97706" stroke-width="1.5"/>
    <text x="75" y="20" text-anchor="middle" font-size="11" fill="#92400e" font-weight="bold">8.3</text>
    <rect x="100" y="0" width="50" height="30" rx="3" fill="#f5f5f5" stroke="#ccc"/>
    <text x="125" y="20" text-anchor="middle" font-size="11" fill="#666">0.5</text>
    <rect x="150" y="0" width="50" height="30" rx="3" fill="#f5f5f5" stroke="#ccc"/>
    <text x="175" y="20" text-anchor="middle" font-size="11" fill="#666">0.2</text>
    <rect x="200" y="0" width="50" height="30" rx="3" fill="#f5f5f5" stroke="#ccc"/>
    <text x="225" y="20" text-anchor="middle" font-size="11" fill="#666">0.0</text>
    <rect x="250" y="0" width="50" height="30" rx="3" fill="#f5f5f5" stroke="#ccc"/>
    <text x="275" y="20" text-anchor="middle" font-size="11" fill="#666">0.3</text>
    <rect x="300" y="0" width="50" height="30" rx="3" fill="#f5f5f5" stroke="#ccc"/>
    <text x="325" y="20" text-anchor="middle" font-size="11" fill="#666">0.1</text>
    <rect x="350" y="0" width="50" height="30" rx="3" fill="#f5f5f5" stroke="#ccc"/>
    <text x="375" y="20" text-anchor="middle" font-size="11" fill="#666">0.4</text>
    <rect x="400" y="0" width="50" height="30" rx="3" fill="#f5f5f5" stroke="#ccc"/>
    <text x="425" y="20" text-anchor="middle" font-size="11" fill="#666">0.0</text>
    <rect x="450" y="0" width="50" height="30" rx="3" fill="#f5f5f5" stroke="#ccc"/>
    <text x="475" y="20" text-anchor="middle" font-size="11" fill="#666">0.1</text>
  </g>

  <!-- Arrow down -->
  <line x1="265" y1="68" x2="265" y2="95" stroke="#555" stroke-width="1.5" marker-end="url(#as)"/>
  <text x="540" y="55" font-size="12" fill="#d97706" font-style="italic">&#x2191; highest</text>

  <!-- Softmax -->
  <text x="50" y="110" font-size="13" font-weight="bold" fill="#555">Softmax:</text>
  <g transform="translate(15,115)">
    <rect x="0" y="0" width="50" height="30" rx="3" fill="#f5f5f5" stroke="#ccc"/>
    <text x="25" y="20" text-anchor="middle" font-size="11" fill="#666">0.00</text>
    <rect x="50" y="0" width="50" height="30" rx="3" fill="#d1fae5" stroke="#059669" stroke-width="2"/>
    <text x="75" y="20" text-anchor="middle" font-size="11" fill="#065f46" font-weight="bold">0.98</text>
    <rect x="100" y="0" width="50" height="30" rx="3" fill="#f5f5f5" stroke="#ccc"/>
    <text x="125" y="20" text-anchor="middle" font-size="11" fill="#666">0.00</text>
    <rect x="150" y="0" width="50" height="30" rx="3" fill="#f5f5f5" stroke="#ccc"/>
    <text x="175" y="20" text-anchor="middle" font-size="11" fill="#666">0.00</text>
    <rect x="200" y="0" width="50" height="30" rx="3" fill="#f5f5f5" stroke="#ccc"/>
    <text x="225" y="20" text-anchor="middle" font-size="11" fill="#666">0.00</text>
    <rect x="250" y="0" width="50" height="30" rx="3" fill="#f5f5f5" stroke="#ccc"/>
    <text x="275" y="20" text-anchor="middle" font-size="11" fill="#666">0.00</text>
    <rect x="300" y="0" width="50" height="30" rx="3" fill="#f5f5f5" stroke="#ccc"/>
    <text x="325" y="20" text-anchor="middle" font-size="11" fill="#666">0.00</text>
    <rect x="350" y="0" width="50" height="30" rx="3" fill="#f5f5f5" stroke="#ccc"/>
    <text x="375" y="20" text-anchor="middle" font-size="11" fill="#666">0.00</text>
    <rect x="400" y="0" width="50" height="30" rx="3" fill="#f5f5f5" stroke="#ccc"/>
    <text x="425" y="20" text-anchor="middle" font-size="11" fill="#666">0.00</text>
    <rect x="450" y="0" width="50" height="30" rx="3" fill="#f5f5f5" stroke="#ccc"/>
    <text x="475" y="20" text-anchor="middle" font-size="11" fill="#666">0.00</text>
  </g>

  <!-- Predicted class -->
  <text x="540" y="140" font-size="13" fill="#059669" font-weight="bold">Predicted: 1</text>

  <!-- Class labels -->
  <g transform="translate(15,155)" font-size="10" fill="#aaa">
    <text x="25" y="12" text-anchor="middle">0</text>
    <text x="75" y="12" text-anchor="middle">1</text>
    <text x="125" y="12" text-anchor="middle">2</text>
    <text x="175" y="12" text-anchor="middle">3</text>
    <text x="225" y="12" text-anchor="middle">4</text>
    <text x="275" y="12" text-anchor="middle">5</text>
    <text x="325" y="12" text-anchor="middle">6</text>
    <text x="375" y="12" text-anchor="middle">7</text>
    <text x="425" y="12" text-anchor="middle">8</text>
    <text x="475" y="12" text-anchor="middle">9</text>
  </g>
</svg>