<?xml version="1.0" encoding="utf-8" standalone="no"?>
<!DOCTYPE svg PUBLIC "-//W3C//DTD SVG 1.1//EN"
  "http://www.w3.org/Graphics/SVG/1.1/DTD/svg11.dtd">
<svg xmlns:xlink="http://www.w3.org/1999/xlink" width="712.8pt" height="388.637812pt" viewBox="0 0 712.8 388.637812" xmlns="http://www.w3.org/2000/svg" version="1.1">
 <metadata>
  <rdf:RDF xmlns:dc="http://purl.org/dc/elements/1.1/" xmlns:cc="http://creativecommons.org/ns#" xmlns:rdf="http://www.w3.org/1999/02/22-rdf-syntax-ns#">
   <cc:Work>
    <dc:type rdf:resource="http://purl.org/dc/dcmitype/StillImage"/>
    <dc:date>2026-04-24T07:26:54.358856</dc:date>
    <dc:format>image/svg+xml</dc:format>
    <dc:creator>
     <cc:Agent>
      <dc:title>Matplotlib v3.8.0, https://matplotlib.org/</dc:title>
     </cc:Agent>
    </dc:creator>
   </cc:Work>
  </rdf:RDF>
 </metadata>
 <defs>
  <style type="text/css">*{stroke-linejoin: round; stroke-linecap: butt}</style>
 </defs>
 <g id="figure_1">
  <g id="patch_1">
   <path d="M 0 388.637812 
L 712.8 388.637812 
L 712.8 0 
L 0 0 
z
" style="fill: #ffffff"/>
  </g>
  <g id="axes_1">
   <g id="patch_2">
    <path d="M 213.9264 98.250903 
L 498.8736 98.250903 
Q 507.2544 98.250903 507.2544 90.492358 
L 507.2544 51.699631 
Q 507.2544 43.941085 498.8736 43.941085 
L 213.9264 43.941085 
Q 205.5456 43.941085 205.5456 51.699631 
L 205.5456 90.492358 
Q 205.5456 98.250903 213.9264 98.250903 
z
" clip-path="url(#p2a8ae83d75)" style="fill: #f3f4f6; stroke: #6b7280; stroke-width: 1.5; stroke-linejoin: miter"/>
   </g>
   <g id="patch_3">
    <path d="M 356.4 97.661183 
Q 356.4 103.422965 356.4 107.507696 
" style="fill: none; stroke: #374151; stroke-width: 1.5; stroke-linecap: round"/>
    <path d="M 358.4 103.507696 
L 356.4 107.507696 
L 354.4 103.507696 
z
" style="fill: #374151; stroke: #374151; stroke-width: 1.5; stroke-linecap: round"/>
   </g>
   <g id="patch_4">
    <path d="M 213.9264 162.905449 
L 498.8736 162.905449 
Q 507.2544 162.905449 507.2544 155.146903 
L 507.2544 116.354176 
Q 507.2544 108.595631 498.8736 108.595631 
L 213.9264 108.595631 
Q 205.5456 108.595631 205.5456 116.354176 
L 205.5456 155.146903 
Q 205.5456 162.905449 213.9264 162.905449 
z
" clip-path="url(#p2a8ae83d75)" style="fill: #dbeafe; stroke: #2563eb; stroke-width: 1.5; stroke-linejoin: miter"/>
   </g>
   <g id="patch_5">
    <path d="M 356.4 162.315729 
Q 356.4 168.077511 356.4 172.162241 
" style="fill: none; stroke: #374151; stroke-width: 1.5; stroke-linecap: round"/>
    <path d="M 358.4 168.162241 
L 356.4 172.162241 
L 354.4 168.162241 
z
" style="fill: #374151; stroke: #374151; stroke-width: 1.5; stroke-linecap: round"/>
   </g>
   <g id="patch_6">
    <path d="M 213.9264 227.559994 
L 498.8736 227.559994 
Q 507.2544 227.559994 507.2544 219.801449 
L 507.2544 181.008722 
Q 507.2544 173.250176 498.8736 173.250176 
L 213.9264 173.250176 
Q 205.5456 173.250176 205.5456 181.008722 
L 205.5456 219.801449 
Q 205.5456 227.559994 213.9264 227.559994 
z
" clip-path="url(#p2a8ae83d75)" style="fill: #ffedd5; stroke: #ea580c; stroke-width: 1.5; stroke-linejoin: miter"/>
   </g>
   <g id="patch_7">
    <path d="M 356.4 226.970274 
Q 356.4 232.732056 356.4 236.816787 
" style="fill: none; stroke: #374151; stroke-width: 1.5; stroke-linecap: round"/>
    <path d="M 358.4 232.816787 
L 356.4 236.816787 
L 354.4 232.816787 
z
" style="fill: #374151; stroke: #374151; stroke-width: 1.5; stroke-linecap: round"/>
   </g>
   <g id="patch_8">
    <path d="M 213.9264 292.21454 
L 498.8736 292.21454 
Q 507.2544 292.21454 507.2544 284.455994 
L 507.2544 245.663267 
Q 507.2544 237.904722 498.8736 237.904722 
L 213.9264 237.904722 
Q 205.5456 237.904722 205.5456 245.663267 
L 205.5456 284.455994 
Q 205.5456 292.21454 213.9264 292.21454 
z
" clip-path="url(#p2a8ae83d75)" style="fill: #ede9fe; stroke: #7c3aed; stroke-width: 1.5; stroke-linejoin: miter"/>
   </g>
   <g id="patch_9">
    <path d="M 356.4 291.62482 
Q 356.4 297.386601 356.4 301.471332 
" style="fill: none; stroke: #374151; stroke-width: 1.5; stroke-linecap: round"/>
    <path d="M 358.4 297.471332 
L 356.4 301.471332 
L 354.4 297.471332 
z
" style="fill: #374151; stroke: #374151; stroke-width: 1.5; stroke-linecap: round"/>
   </g>
   <g id="patch_10">
    <path d="M 213.9264 356.869085 
L 498.8736 356.869085 
Q 507.2544 356.869085 507.2544 349.11054 
L 507.2544 310.317812 
Q 507.2544 302.559267 498.8736 302.559267 
L 213.9264 302.559267 
Q 205.5456 302.559267 205.5456 310.317812 
L 205.5456 349.11054 
Q 205.5456 356.869085 213.9264 356.869085 
z
" clip-path="url(#p2a8ae83d75)" style="fill: #dcfce7; stroke: #16a34a; stroke-width: 1.5; stroke-linejoin: miter"/>
   </g>
   <g id="patch_11">
    <path d="M 563.958204 329.310149 
Q 334.799881 281.609515 356.008114 50.74685 
" style="fill: none; stroke: #d97706; stroke-width: 2; stroke-linecap: round"/>
    <path d="M 353.179073 55.307172 
L 356.008114 50.74685 
L 357.958947 55.746276 
z
" style="fill: #d97706; stroke: #d97706; stroke-width: 2; stroke-linecap: round"/>
   </g>
   <g id="text_1">
    <!-- next -->
    <g style="fill: #92400e" transform="translate(590.791641 190.327054) scale(0.09 -0.09)">
     <defs>
      <path id="DejaVuSans-Oblique-6e" d="M 3566 2113 
L 3156 0 
L 2578 0 
L 2988 2091 
Q 3016 2238 3031 2350 
Q 3047 2463 3047 2528 
Q 3047 2791 2881 2937 
Q 2716 3084 2419 3084 
Q 1956 3084 1622 2776 
Q 1288 2469 1184 1941 
L 800 0 
L 225 0 
L 903 3500 
L 1478 3500 
L 1363 2950 
Q 1603 3253 1940 3418 
Q 2278 3584 2650 3584 
Q 3113 3584 3367 3334 
Q 3622 3084 3622 2631 
Q 3622 2519 3608 2391 
Q 3594 2263 3566 2113 
z
" transform="scale(0.015625)"/>
      <path id="DejaVuSans-Oblique-65" d="M 3078 2063 
Q 3088 2113 3092 2166 
Q 3097 2219 3097 2272 
Q 3097 2653 2873 2875 
Q 2650 3097 2266 3097 
Q 1838 3097 1509 2826 
Q 1181 2556 1013 2059 
L 3078 2063 
z
M 3578 1613 
L 903 1613 
Q 884 1494 878 1425 
Q 872 1356 872 1306 
Q 872 872 1139 634 
Q 1406 397 1894 397 
Q 2269 397 2603 481 
Q 2938 566 3225 728 
L 3116 159 
Q 2806 34 2476 -28 
Q 2147 -91 1806 -91 
Q 1078 -91 686 257 
Q 294 606 294 1247 
Q 294 1794 489 2264 
Q 684 2734 1063 3103 
Q 1306 3334 1642 3459 
Q 1978 3584 2356 3584 
Q 2950 3584 3301 3228 
Q 3653 2872 3653 2272 
Q 3653 2128 3634 1964 
Q 3616 1800 3578 1613 
z
" transform="scale(0.015625)"/>
      <path id="DejaVuSans-Oblique-78" d="M 3841 3500 
L 2234 1784 
L 3219 0 
L 2559 0 
L 1819 1388 
L 531 0 
L -166 0 
L 1556 1844 
L 641 3500 
L 1300 3500 
L 1972 2234 
L 3144 3500 
L 3841 3500 
z
" transform="scale(0.015625)"/>
      <path id="DejaVuSans-Oblique-74" d="M 2706 3500 
L 2619 3053 
L 1472 3053 
L 1100 1153 
Q 1081 1047 1072 975 
Q 1063 903 1063 863 
Q 1063 663 1183 572 
Q 1303 481 1569 481 
L 2150 481 
L 2053 0 
L 1503 0 
Q 991 0 739 200 
Q 488 400 488 806 
Q 488 878 497 964 
Q 506 1050 525 1153 
L 897 3053 
L 409 3053 
L 500 3500 
L 978 3500 
L 1172 4494 
L 1747 4494 
L 1556 3500 
L 2706 3500 
z
" transform="scale(0.015625)"/>
     </defs>
     <use xlink:href="#DejaVuSans-Oblique-6e"/>
     <use xlink:href="#DejaVuSans-Oblique-65" x="63.378906"/>
     <use xlink:href="#DejaVuSans-Oblique-78" x="124.902344"/>
     <use xlink:href="#DejaVuSans-Oblique-74" x="184.082031"/>
    </g>
    <!-- batch -->
    <g style="fill: #92400e" transform="translate(588.135234 200.405085) scale(0.09 -0.09)">
     <defs>
      <path id="DejaVuSans-Oblique-62" d="M 3169 2138 
Q 3169 2591 2961 2847 
Q 2753 3103 2388 3103 
Q 2122 3103 1889 2973 
Q 1656 2844 1484 2597 
Q 1303 2338 1198 1995 
Q 1094 1653 1094 1313 
Q 1094 881 1298 636 
Q 1503 391 1863 391 
Q 2134 391 2365 517 
Q 2597 644 2772 891 
Q 2950 1147 3059 1487 
Q 3169 1828 3169 2138 
z
M 1381 2969 
Q 1594 3256 1914 3420 
Q 2234 3584 2584 3584 
Q 3122 3584 3439 3221 
Q 3756 2859 3756 2241 
Q 3756 1734 3570 1259 
Q 3384 784 3041 416 
Q 2816 172 2522 40 
Q 2228 -91 1906 -91 
Q 1566 -91 1316 65 
Q 1066 222 909 531 
L 806 0 
L 231 0 
L 1178 4863 
L 1753 4863 
L 1381 2969 
z
" transform="scale(0.015625)"/>
      <path id="DejaVuSans-Oblique-61" d="M 3438 1997 
L 3047 0 
L 2472 0 
L 2578 531 
Q 2325 219 2001 64 
Q 1678 -91 1281 -91 
Q 834 -91 548 182 
Q 263 456 263 884 
Q 263 1497 752 1853 
Q 1241 2209 2100 2209 
L 2900 2209 
L 2931 2363 
Q 2938 2388 2941 2417 
Q 2944 2447 2944 2509 
Q 2944 2788 2717 2942 
Q 2491 3097 2081 3097 
Q 1800 3097 1504 3025 
Q 1209 2953 897 2809 
L 997 3341 
Q 1322 3463 1633 3523 
Q 1944 3584 2234 3584 
Q 2853 3584 3176 3315 
Q 3500 3047 3500 2534 
Q 3500 2431 3484 2292 
Q 3469 2153 3438 1997 
z
M 2816 1759 
L 2241 1759 
Q 1534 1759 1195 1570 
Q 856 1381 856 984 
Q 856 709 1029 553 
Q 1203 397 1509 397 
Q 1978 397 2328 733 
Q 2678 1069 2791 1631 
L 2816 1759 
z
" transform="scale(0.015625)"/>
      <path id="DejaVuSans-Oblique-63" d="M 3431 3366 
L 3316 2797 
Q 3109 2947 2876 3022 
Q 2644 3097 2394 3097 
Q 2119 3097 1870 3000 
Q 1622 2903 1453 2725 
Q 1184 2453 1037 2087 
Q 891 1722 891 1331 
Q 891 859 1127 628 
Q 1363 397 1844 397 
Q 2081 397 2348 469 
Q 2616 541 2906 684 
L 2797 116 
Q 2547 13 2283 -39 
Q 2019 -91 1741 -91 
Q 1044 -91 669 257 
Q 294 606 294 1253 
Q 294 1797 489 2255 
Q 684 2713 1069 3078 
Q 1331 3328 1684 3456 
Q 2038 3584 2456 3584 
Q 2700 3584 2940 3529 
Q 3181 3475 3431 3366 
z
" transform="scale(0.015625)"/>
      <path id="DejaVuSans-Oblique-68" d="M 3566 2113 
L 3156 0 
L 2578 0 
L 2988 2091 
Q 3016 2238 3031 2350 
Q 3047 2463 3047 2528 
Q 3047 2791 2881 2937 
Q 2716 3084 2419 3084 
Q 1956 3084 1617 2771 
Q 1278 2459 1178 1941 
L 800 0 
L 225 0 
L 1172 4863 
L 1747 4863 
L 1375 2950 
Q 1594 3244 1934 3414 
Q 2275 3584 2650 3584 
Q 3113 3584 3367 3334 
Q 3622 3084 3622 2631 
Q 3622 2519 3608 2391 
Q 3594 2263 3566 2113 
z
" transform="scale(0.015625)"/>
     </defs>
     <use xlink:href="#DejaVuSans-Oblique-62"/>
     <use xlink:href="#DejaVuSans-Oblique-61" x="63.476562"/>
     <use xlink:href="#DejaVuSans-Oblique-74" x="124.755859"/>
     <use xlink:href="#DejaVuSans-Oblique-63" x="163.964844"/>
     <use xlink:href="#DejaVuSans-Oblique-68" x="218.945312"/>
    </g>
   </g>
   <g id="text_2">
    <g id="patch_12">
     <path d="M 51.402539 140.30468 
L 102.677461 140.30468 
Q 105.227461 140.30468 105.227461 137.75468 
L 105.227461 120.010134 
Q 105.227461 117.460134 102.677461 117.460134 
L 51.402539 117.460134 
Q 48.852539 117.460134 48.852539 120.010134 
L 48.852539 137.75468 
Q 48.852539 140.30468 51.402539 140.30468 
z
" style="fill: #fee2e2; stroke: #dc2626; stroke-linejoin: miter"/>
    </g>
    <!-- optimizer -->
    <g style="fill: #dc2626" transform="translate(56.981328 126.232399) scale(0.085 -0.085)">
     <defs>
      <path id="DejaVuSans-6f" d="M 1959 3097 
Q 1497 3097 1228 2736 
Q 959 2375 959 1747 
Q 959 1119 1226 758 
Q 1494 397 1959 397 
Q 2419 397 2687 759 
Q 2956 1122 2956 1747 
Q 2956 2369 2687 2733 
Q 2419 3097 1959 3097 
z
M 1959 3584 
Q 2709 3584 3137 3096 
Q 3566 2609 3566 1747 
Q 3566 888 3137 398 
Q 2709 -91 1959 -91 
Q 1206 -91 779 398 
Q 353 888 353 1747 
Q 353 2609 779 3096 
Q 1206 3584 1959 3584 
z
" transform="scale(0.015625)"/>
      <path id="DejaVuSans-70" d="M 1159 525 
L 1159 -1331 
L 581 -1331 
L 581 3500 
L 1159 3500 
L 1159 2969 
Q 1341 3281 1617 3432 
Q 1894 3584 2278 3584 
Q 2916 3584 3314 3078 
Q 3713 2572 3713 1747 
Q 3713 922 3314 415 
Q 2916 -91 2278 -91 
Q 1894 -91 1617 61 
Q 1341 213 1159 525 
z
M 3116 1747 
Q 3116 2381 2855 2742 
Q 2594 3103 2138 3103 
Q 1681 3103 1420 2742 
Q 1159 2381 1159 1747 
Q 1159 1113 1420 752 
Q 1681 391 2138 391 
Q 2594 391 2855 752 
Q 3116 1113 3116 1747 
z
" transform="scale(0.015625)"/>
      <path id="DejaVuSans-74" d="M 1172 4494 
L 1172 3500 
L 2356 3500 
L 2356 3053 
L 1172 3053 
L 1172 1153 
Q 1172 725 1289 603 
Q 1406 481 1766 481 
L 2356 481 
L 2356 0 
L 1766 0 
Q 1100 0 847 248 
Q 594 497 594 1153 
L 594 3053 
L 172 3053 
L 172 3500 
L 594 3500 
L 594 4494 
L 1172 4494 
z
" transform="scale(0.015625)"/>
      <path id="DejaVuSans-69" d="M 603 3500 
L 1178 3500 
L 1178 0 
L 603 0 
L 603 3500 
z
M 603 4863 
L 1178 4863 
L 1178 4134 
L 603 4134 
L 603 4863 
z
" transform="scale(0.015625)"/>
      <path id="DejaVuSans-6d" d="M 3328 2828 
Q 3544 3216 3844 3400 
Q 4144 3584 4550 3584 
Q 5097 3584 5394 3201 
Q 5691 2819 5691 2113 
L 5691 0 
L 5113 0 
L 5113 2094 
Q 5113 2597 4934 2840 
Q 4756 3084 4391 3084 
Q 3944 3084 3684 2787 
Q 3425 2491 3425 1978 
L 3425 0 
L 2847 0 
L 2847 2094 
Q 2847 2600 2669 2842 
Q 2491 3084 2119 3084 
Q 1678 3084 1418 2786 
Q 1159 2488 1159 1978 
L 1159 0 
L 581 0 
L 581 3500 
L 1159 3500 
L 1159 2956 
Q 1356 3278 1631 3431 
Q 1906 3584 2284 3584 
Q 2666 3584 2933 3390 
Q 3200 3197 3328 2828 
z
" transform="scale(0.015625)"/>
      <path id="DejaVuSans-7a" d="M 353 3500 
L 3084 3500 
L 3084 2975 
L 922 459 
L 3084 459 
L 3084 0 
L 275 0 
L 275 525 
L 2438 3041 
L 353 3041 
L 353 3500 
z
" transform="scale(0.015625)"/>
      <path id="DejaVuSans-65" d="M 3597 1894 
L 3597 1613 
L 953 1613 
Q 991 1019 1311 708 
Q 1631 397 2203 397 
Q 2534 397 2845 478 
Q 3156 559 3463 722 
L 3463 178 
Q 3153 47 2828 -22 
Q 2503 -91 2169 -91 
Q 1331 -91 842 396 
Q 353 884 353 1716 
Q 353 2575 817 3079 
Q 1281 3584 2069 3584 
Q 2775 3584 3186 3129 
Q 3597 2675 3597 1894 
z
M 3022 2063 
Q 3016 2534 2758 2815 
Q 2500 3097 2075 3097 
Q 1594 3097 1305 2825 
Q 1016 2553 972 2059 
L 3022 2063 
z
" transform="scale(0.015625)"/>
      <path id="DejaVuSans-72" d="M 2631 2963 
Q 2534 3019 2420 3045 
Q 2306 3072 2169 3072 
Q 1681 3072 1420 2755 
Q 1159 2438 1159 1844 
L 1159 0 
L 581 0 
L 581 3500 
L 1159 3500 
L 1159 2956 
Q 1341 3275 1631 3429 
Q 1922 3584 2338 3584 
Q 2397 3584 2469 3576 
Q 2541 3569 2628 3553 
L 2631 2963 
z
" transform="scale(0.015625)"/>
     </defs>
     <use xlink:href="#DejaVuSans-6f"/>
     <use xlink:href="#DejaVuSans-70" x="61.181641"/>
     <use xlink:href="#DejaVuSans-74" x="124.658203"/>
     <use xlink:href="#DejaVuSans-69" x="163.867188"/>
     <use xlink:href="#DejaVuSans-6d" x="191.650391"/>
     <use xlink:href="#DejaVuSans-69" x="289.0625"/>
     <use xlink:href="#DejaVuSans-7a" x="316.845703"/>
     <use xlink:href="#DejaVuSans-65" x="369.335938"/>
     <use xlink:href="#DejaVuSans-72" x="430.859375"/>
    </g>
    <!-- .zero_grad() -->
    <g style="fill: #dc2626" transform="translate(51.402539 135.75054) scale(0.085 -0.085)">
     <defs>
      <path id="DejaVuSans-2e" d="M 684 794 
L 1344 794 
L 1344 0 
L 684 0 
L 684 794 
z
" transform="scale(0.015625)"/>
      <path id="DejaVuSans-5f" d="M 3263 -1063 
L 3263 -1509 
L -63 -1509 
L -63 -1063 
L 3263 -1063 
z
" transform="scale(0.015625)"/>
      <path id="DejaVuSans-67" d="M 2906 1791 
Q 2906 2416 2648 2759 
Q 2391 3103 1925 3103 
Q 1463 3103 1205 2759 
Q 947 2416 947 1791 
Q 947 1169 1205 825 
Q 1463 481 1925 481 
Q 2391 481 2648 825 
Q 2906 1169 2906 1791 
z
M 3481 434 
Q 3481 -459 3084 -895 
Q 2688 -1331 1869 -1331 
Q 1566 -1331 1297 -1286 
Q 1028 -1241 775 -1147 
L 775 -588 
Q 1028 -725 1275 -790 
Q 1522 -856 1778 -856 
Q 2344 -856 2625 -561 
Q 2906 -266 2906 331 
L 2906 616 
Q 2728 306 2450 153 
Q 2172 0 1784 0 
Q 1141 0 747 490 
Q 353 981 353 1791 
Q 353 2603 747 3093 
Q 1141 3584 1784 3584 
Q 2172 3584 2450 3431 
Q 2728 3278 2906 2969 
L 2906 3500 
L 3481 3500 
L 3481 434 
z
" transform="scale(0.015625)"/>
      <path id="DejaVuSans-61" d="M 2194 1759 
Q 1497 1759 1228 1600 
Q 959 1441 959 1056 
Q 959 750 1161 570 
Q 1363 391 1709 391 
Q 2188 391 2477 730 
Q 2766 1069 2766 1631 
L 2766 1759 
L 2194 1759 
z
M 3341 1997 
L 3341 0 
L 2766 0 
L 2766 531 
Q 2569 213 2275 61 
Q 1981 -91 1556 -91 
Q 1019 -91 701 211 
Q 384 513 384 1019 
Q 384 1609 779 1909 
Q 1175 2209 1959 2209 
L 2766 2209 
L 2766 2266 
Q 2766 2663 2505 2880 
Q 2244 3097 1772 3097 
Q 1472 3097 1187 3025 
Q 903 2953 641 2809 
L 641 3341 
Q 956 3463 1253 3523 
Q 1550 3584 1831 3584 
Q 2591 3584 2966 3190 
Q 3341 2797 3341 1997 
z
" transform="scale(0.015625)"/>
      <path id="DejaVuSans-64" d="M 2906 2969 
L 2906 4863 
L 3481 4863 
L 3481 0 
L 2906 0 
L 2906 525 
Q 2725 213 2448 61 
Q 2172 -91 1784 -91 
Q 1150 -91 751 415 
Q 353 922 353 1747 
Q 353 2572 751 3078 
Q 1150 3584 1784 3584 
Q 2172 3584 2448 3432 
Q 2725 3281 2906 2969 
z
M 947 1747 
Q 947 1113 1208 752 
Q 1469 391 1925 391 
Q 2381 391 2643 752 
Q 2906 1113 2906 1747 
Q 2906 2381 2643 2742 
Q 2381 3103 1925 3103 
Q 1469 3103 1208 2742 
Q 947 2381 947 1747 
z
" transform="scale(0.015625)"/>
      <path id="DejaVuSans-28" d="M 1984 4856 
Q 1566 4138 1362 3434 
Q 1159 2731 1159 2009 
Q 1159 1288 1364 580 
Q 1569 -128 1984 -844 
L 1484 -844 
Q 1016 -109 783 600 
Q 550 1309 550 2009 
Q 550 2706 781 3412 
Q 1013 4119 1484 4856 
L 1984 4856 
z
" transform="scale(0.015625)"/>
      <path id="DejaVuSans-29" d="M 513 4856 
L 1013 4856 
Q 1481 4119 1714 3412 
Q 1947 2706 1947 2009 
Q 1947 1309 1714 600 
Q 1481 -109 1013 -844 
L 513 -844 
Q 928 -128 1133 580 
Q 1338 1288 1338 2009 
Q 1338 2731 1133 3434 
Q 928 4138 513 4856 
z
" transform="scale(0.015625)"/>
     </defs>
     <use xlink:href="#DejaVuSans-2e"/>
     <use xlink:href="#DejaVuSans-7a" x="31.787109"/>
     <use xlink:href="#DejaVuSans-65" x="84.277344"/>
     <use xlink:href="#DejaVuSans-72" x="145.800781"/>
     <use xlink:href="#DejaVuSans-6f" x="184.664062"/>
     <use xlink:href="#DejaVuSans-5f" x="245.845703"/>
     <use xlink:href="#DejaVuSans-67" x="295.845703"/>
     <use xlink:href="#DejaVuSans-72" x="359.322266"/>
     <use xlink:href="#DejaVuSans-61" x="400.435547"/>
     <use xlink:href="#DejaVuSans-64" x="461.714844"/>
     <use xlink:href="#DejaVuSans-28" x="525.191406"/>
     <use xlink:href="#DejaVuSans-29" x="564.205078"/>
    </g>
   </g>
   <g id="patch_13">
    <path d="M 155.865762 135.75054 
Q 181.799691 135.75054 206.615587 135.75054 
" style="fill: none; stroke: #dc2626; stroke-linecap: round"/>
    <path d="M 203.415587 134.15054 
L 206.615587 135.75054 
L 203.415587 137.35054 
z
" style="fill: #dc2626; stroke: #dc2626; stroke-linecap: round"/>
   </g>
   <g id="text_3">
    <!-- PyTorch Training Loop -->
    <g style="fill: #0f172a" transform="translate(269.412969 17.837812) scale(0.14 -0.14)">
     <defs>
      <path id="DejaVuSans-Bold-50" d="M 588 4666 
L 2584 4666 
Q 3475 4666 3951 4270 
Q 4428 3875 4428 3144 
Q 4428 2409 3951 2014 
Q 3475 1619 2584 1619 
L 1791 1619 
L 1791 0 
L 588 0 
L 588 4666 
z
M 1791 3794 
L 1791 2491 
L 2456 2491 
Q 2806 2491 2997 2661 
Q 3188 2831 3188 3144 
Q 3188 3456 2997 3625 
Q 2806 3794 2456 3794 
L 1791 3794 
z
" transform="scale(0.015625)"/>
      <path id="DejaVuSans-Bold-79" d="M 78 3500 
L 1197 3500 
L 2138 1125 
L 2938 3500 
L 4056 3500 
L 2584 -331 
Q 2363 -916 2067 -1148 
Q 1772 -1381 1288 -1381 
L 641 -1381 
L 641 -647 
L 991 -647 
Q 1275 -647 1404 -556 
Q 1534 -466 1606 -231 
L 1638 -134 
L 78 3500 
z
" transform="scale(0.015625)"/>
      <path id="DejaVuSans-Bold-54" d="M 31 4666 
L 4331 4666 
L 4331 3756 
L 2784 3756 
L 2784 0 
L 1581 0 
L 1581 3756 
L 31 3756 
L 31 4666 
z
" transform="scale(0.015625)"/>
      <path id="DejaVuSans-Bold-6f" d="M 2203 2784 
Q 1831 2784 1636 2517 
Q 1441 2250 1441 1747 
Q 1441 1244 1636 976 
Q 1831 709 2203 709 
Q 2569 709 2762 976 
Q 2956 1244 2956 1747 
Q 2956 2250 2762 2517 
Q 2569 2784 2203 2784 
z
M 2203 3584 
Q 3106 3584 3614 3096 
Q 4122 2609 4122 1747 
Q 4122 884 3614 396 
Q 3106 -91 2203 -91 
Q 1297 -91 786 396 
Q 275 884 275 1747 
Q 275 2609 786 3096 
Q 1297 3584 2203 3584 
z
" transform="scale(0.015625)"/>
      <path id="DejaVuSans-Bold-72" d="M 3138 2547 
Q 2991 2616 2845 2648 
Q 2700 2681 2553 2681 
Q 2122 2681 1889 2404 
Q 1656 2128 1656 1613 
L 1656 0 
L 538 0 
L 538 3500 
L 1656 3500 
L 1656 2925 
Q 1872 3269 2151 3426 
Q 2431 3584 2822 3584 
Q 2878 3584 2943 3579 
Q 3009 3575 3134 3559 
L 3138 2547 
z
" transform="scale(0.015625)"/>
      <path id="DejaVuSans-Bold-63" d="M 3366 3391 
L 3366 2478 
Q 3138 2634 2908 2709 
Q 2678 2784 2431 2784 
Q 1963 2784 1702 2511 
Q 1441 2238 1441 1747 
Q 1441 1256 1702 982 
Q 1963 709 2431 709 
Q 2694 709 2930 787 
Q 3166 866 3366 1019 
L 3366 103 
Q 3103 6 2833 -42 
Q 2563 -91 2291 -91 
Q 1344 -91 809 395 
Q 275 881 275 1747 
Q 275 2613 809 3098 
Q 1344 3584 2291 3584 
Q 2566 3584 2833 3536 
Q 3100 3488 3366 3391 
z
" transform="scale(0.015625)"/>
      <path id="DejaVuSans-Bold-68" d="M 4056 2131 
L 4056 0 
L 2931 0 
L 2931 347 
L 2931 1625 
Q 2931 2084 2911 2256 
Q 2891 2428 2841 2509 
Q 2775 2619 2662 2680 
Q 2550 2741 2406 2741 
Q 2056 2741 1856 2470 
Q 1656 2200 1656 1722 
L 1656 0 
L 538 0 
L 538 4863 
L 1656 4863 
L 1656 2988 
Q 1909 3294 2193 3439 
Q 2478 3584 2822 3584 
Q 3428 3584 3742 3212 
Q 4056 2841 4056 2131 
z
" transform="scale(0.015625)"/>
      <path id="DejaVuSans-Bold-20" transform="scale(0.015625)"/>
      <path id="DejaVuSans-Bold-61" d="M 2106 1575 
Q 1756 1575 1579 1456 
Q 1403 1338 1403 1106 
Q 1403 894 1545 773 
Q 1688 653 1941 653 
Q 2256 653 2472 879 
Q 2688 1106 2688 1447 
L 2688 1575 
L 2106 1575 
z
M 3816 1997 
L 3816 0 
L 2688 0 
L 2688 519 
Q 2463 200 2181 54 
Q 1900 -91 1497 -91 
Q 953 -91 614 226 
Q 275 544 275 1050 
Q 275 1666 698 1953 
Q 1122 2241 2028 2241 
L 2688 2241 
L 2688 2328 
Q 2688 2594 2478 2717 
Q 2269 2841 1825 2841 
Q 1466 2841 1156 2769 
Q 847 2697 581 2553 
L 581 3406 
Q 941 3494 1303 3539 
Q 1666 3584 2028 3584 
Q 2975 3584 3395 3211 
Q 3816 2838 3816 1997 
z
" transform="scale(0.015625)"/>
      <path id="DejaVuSans-Bold-69" d="M 538 3500 
L 1656 3500 
L 1656 0 
L 538 0 
L 538 3500 
z
M 538 4863 
L 1656 4863 
L 1656 3950 
L 538 3950 
L 538 4863 
z
" transform="scale(0.015625)"/>
      <path id="DejaVuSans-Bold-6e" d="M 4056 2131 
L 4056 0 
L 2931 0 
L 2931 347 
L 2931 1631 
Q 2931 2084 2911 2256 
Q 2891 2428 2841 2509 
Q 2775 2619 2662 2680 
Q 2550 2741 2406 2741 
Q 2056 2741 1856 2470 
Q 1656 2200 1656 1722 
L 1656 0 
L 538 0 
L 538 3500 
L 1656 3500 
L 1656 2988 
Q 1909 3294 2193 3439 
Q 2478 3584 2822 3584 
Q 3428 3584 3742 3212 
Q 4056 2841 4056 2131 
z
" transform="scale(0.015625)"/>
      <path id="DejaVuSans-Bold-67" d="M 2919 594 
Q 2688 288 2409 144 
Q 2131 0 1766 0 
Q 1125 0 706 504 
Q 288 1009 288 1791 
Q 288 2575 706 3076 
Q 1125 3578 1766 3578 
Q 2131 3578 2409 3434 
Q 2688 3291 2919 2981 
L 2919 3500 
L 4044 3500 
L 4044 353 
Q 4044 -491 3511 -936 
Q 2978 -1381 1966 -1381 
Q 1638 -1381 1331 -1331 
Q 1025 -1281 716 -1178 
L 716 -306 
Q 1009 -475 1290 -558 
Q 1572 -641 1856 -641 
Q 2406 -641 2662 -400 
Q 2919 -159 2919 353 
L 2919 594 
z
M 2181 2772 
Q 1834 2772 1640 2515 
Q 1447 2259 1447 1791 
Q 1447 1309 1634 1061 
Q 1822 813 2181 813 
Q 2531 813 2725 1069 
Q 2919 1325 2919 1791 
Q 2919 2259 2725 2515 
Q 2531 2772 2181 2772 
z
" transform="scale(0.015625)"/>
      <path id="DejaVuSans-Bold-4c" d="M 588 4666 
L 1791 4666 
L 1791 909 
L 3903 909 
L 3903 0 
L 588 0 
L 588 4666 
z
" transform="scale(0.015625)"/>
      <path id="DejaVuSans-Bold-70" d="M 1656 506 
L 1656 -1331 
L 538 -1331 
L 538 3500 
L 1656 3500 
L 1656 2988 
Q 1888 3294 2169 3439 
Q 2450 3584 2816 3584 
Q 3463 3584 3878 3070 
Q 4294 2556 4294 1747 
Q 4294 938 3878 423 
Q 3463 -91 2816 -91 
Q 2450 -91 2169 54 
Q 1888 200 1656 506 
z
M 2400 2772 
Q 2041 2772 1848 2508 
Q 1656 2244 1656 1747 
Q 1656 1250 1848 986 
Q 2041 722 2400 722 
Q 2759 722 2948 984 
Q 3138 1247 3138 1747 
Q 3138 2247 2948 2509 
Q 2759 2772 2400 2772 
z
" transform="scale(0.015625)"/>
     </defs>
     <use xlink:href="#DejaVuSans-Bold-50"/>
     <use xlink:href="#DejaVuSans-Bold-79" x="75.166016"/>
     <use xlink:href="#DejaVuSans-Bold-54" x="140.351562"/>
     <use xlink:href="#DejaVuSans-Bold-6f" x="195.314453"/>
     <use xlink:href="#DejaVuSans-Bold-72" x="264.015625"/>
     <use xlink:href="#DejaVuSans-Bold-63" x="313.332031"/>
     <use xlink:href="#DejaVuSans-Bold-68" x="372.609375"/>
     <use xlink:href="#DejaVuSans-Bold-20" x="443.800781"/>
     <use xlink:href="#DejaVuSans-Bold-54" x="478.615234"/>
     <use xlink:href="#DejaVuSans-Bold-72" x="535.828125"/>
     <use xlink:href="#DejaVuSans-Bold-61" x="585.144531"/>
     <use xlink:href="#DejaVuSans-Bold-69" x="652.625"/>
     <use xlink:href="#DejaVuSans-Bold-6e" x="686.902344"/>
     <use xlink:href="#DejaVuSans-Bold-69" x="758.09375"/>
     <use xlink:href="#DejaVuSans-Bold-6e" x="792.371094"/>
     <use xlink:href="#DejaVuSans-Bold-67" x="863.5625"/>
     <use xlink:href="#DejaVuSans-Bold-20" x="935.144531"/>
     <use xlink:href="#DejaVuSans-Bold-4c" x="969.958984"/>
     <use xlink:href="#DejaVuSans-Bold-6f" x="1033.679688"/>
     <use xlink:href="#DejaVuSans-Bold-6f" x="1102.380859"/>
     <use xlink:href="#DejaVuSans-Bold-70" x="1171.082031"/>
    </g>
   </g>
   <g id="text_4">
    <!-- Load Batch (x, y) -->
    <g style="fill: #1f2937" transform="translate(303.766719 74.088338) scale(0.11 -0.11)">
     <defs>
      <path id="DejaVuSans-Bold-64" d="M 2919 2988 
L 2919 4863 
L 4044 4863 
L 4044 0 
L 2919 0 
L 2919 506 
Q 2688 197 2409 53 
Q 2131 -91 1766 -91 
Q 1119 -91 703 423 
Q 288 938 288 1747 
Q 288 2556 703 3070 
Q 1119 3584 1766 3584 
Q 2128 3584 2408 3439 
Q 2688 3294 2919 2988 
z
M 2181 722 
Q 2541 722 2730 984 
Q 2919 1247 2919 1747 
Q 2919 2247 2730 2509 
Q 2541 2772 2181 2772 
Q 1825 2772 1636 2509 
Q 1447 2247 1447 1747 
Q 1447 1247 1636 984 
Q 1825 722 2181 722 
z
" transform="scale(0.015625)"/>
      <path id="DejaVuSans-Bold-42" d="M 2456 2859 
Q 2741 2859 2887 2984 
Q 3034 3109 3034 3353 
Q 3034 3594 2887 3720 
Q 2741 3847 2456 3847 
L 1791 3847 
L 1791 2859 
L 2456 2859 
z
M 2497 819 
Q 2859 819 3042 972 
Q 3225 1125 3225 1434 
Q 3225 1738 3044 1889 
Q 2863 2041 2497 2041 
L 1791 2041 
L 1791 819 
L 2497 819 
z
M 3616 2497 
Q 4003 2384 4215 2081 
Q 4428 1778 4428 1338 
Q 4428 663 3972 331 
Q 3516 0 2584 0 
L 588 0 
L 588 4666 
L 2394 4666 
Q 3366 4666 3802 4372 
Q 4238 4078 4238 3431 
Q 4238 3091 4078 2852 
Q 3919 2613 3616 2497 
z
" transform="scale(0.015625)"/>
      <path id="DejaVuSans-Bold-74" d="M 1759 4494 
L 1759 3500 
L 2913 3500 
L 2913 2700 
L 1759 2700 
L 1759 1216 
Q 1759 972 1856 886 
Q 1953 800 2241 800 
L 2816 800 
L 2816 0 
L 1856 0 
Q 1194 0 917 276 
Q 641 553 641 1216 
L 641 2700 
L 84 2700 
L 84 3500 
L 641 3500 
L 641 4494 
L 1759 4494 
z
" transform="scale(0.015625)"/>
      <path id="DejaVuSans-Bold-28" d="M 2413 -844 
L 1484 -844 
Q 1006 -72 778 623 
Q 550 1319 550 2003 
Q 550 2688 779 3389 
Q 1009 4091 1484 4856 
L 2413 4856 
Q 2013 4116 1813 3408 
Q 1613 2700 1613 2009 
Q 1613 1319 1811 609 
Q 2009 -100 2413 -844 
z
" transform="scale(0.015625)"/>
      <path id="DejaVuSans-Bold-78" d="M 1422 1791 
L 159 3500 
L 1344 3500 
L 2059 2463 
L 2784 3500 
L 3969 3500 
L 2706 1797 
L 4031 0 
L 2847 0 
L 2059 1106 
L 1281 0 
L 97 0 
L 1422 1791 
z
" transform="scale(0.015625)"/>
      <path id="DejaVuSans-Bold-2c" d="M 653 1209 
L 1778 1209 
L 1778 256 
L 1006 -909 
L 341 -909 
L 653 256 
L 653 1209 
z
" transform="scale(0.015625)"/>
      <path id="DejaVuSans-Bold-29" d="M 513 -844 
Q 913 -100 1113 609 
Q 1313 1319 1313 2009 
Q 1313 2700 1113 3408 
Q 913 4116 513 4856 
L 1441 4856 
Q 1916 4091 2145 3389 
Q 2375 2688 2375 2003 
Q 2375 1319 2147 623 
Q 1919 -72 1441 -844 
L 513 -844 
z
" transform="scale(0.015625)"/>
     </defs>
     <use xlink:href="#DejaVuSans-Bold-4c"/>
     <use xlink:href="#DejaVuSans-Bold-6f" x="63.720703"/>
     <use xlink:href="#DejaVuSans-Bold-61" x="132.421875"/>
     <use xlink:href="#DejaVuSans-Bold-64" x="199.902344"/>
     <use xlink:href="#DejaVuSans-Bold-20" x="271.484375"/>
     <use xlink:href="#DejaVuSans-Bold-42" x="306.298828"/>
     <use xlink:href="#DejaVuSans-Bold-61" x="382.519531"/>
     <use xlink:href="#DejaVuSans-Bold-74" x="450"/>
     <use xlink:href="#DejaVuSans-Bold-63" x="497.802734"/>
     <use xlink:href="#DejaVuSans-Bold-68" x="557.080078"/>
     <use xlink:href="#DejaVuSans-Bold-20" x="628.271484"/>
     <use xlink:href="#DejaVuSans-Bold-28" x="663.085938"/>
     <use xlink:href="#DejaVuSans-Bold-78" x="708.789062"/>
     <use xlink:href="#DejaVuSans-Bold-2c" x="773.291016"/>
     <use xlink:href="#DejaVuSans-Bold-20" x="811.279297"/>
     <use xlink:href="#DejaVuSans-Bold-79" x="846.09375"/>
     <use xlink:href="#DejaVuSans-Bold-29" x="911.279297"/>
    </g>
   </g>
   <g id="text_5">
    <!-- Forward Pass -->
    <g style="fill: #1f2937" transform="translate(314.869844 132.627055) scale(0.11 -0.11)">
     <defs>
      <path id="DejaVuSans-Bold-46" d="M 588 4666 
L 3834 4666 
L 3834 3756 
L 1791 3756 
L 1791 2888 
L 3713 2888 
L 3713 1978 
L 1791 1978 
L 1791 0 
L 588 0 
L 588 4666 
z
" transform="scale(0.015625)"/>
      <path id="DejaVuSans-Bold-77" d="M 225 3500 
L 1313 3500 
L 1900 1088 
L 2491 3500 
L 3425 3500 
L 4013 1113 
L 4603 3500 
L 5691 3500 
L 4769 0 
L 3547 0 
L 2956 2406 
L 2369 0 
L 1147 0 
L 225 3500 
z
" transform="scale(0.015625)"/>
      <path id="DejaVuSans-Bold-73" d="M 3272 3391 
L 3272 2541 
Q 2913 2691 2578 2766 
Q 2244 2841 1947 2841 
Q 1628 2841 1473 2761 
Q 1319 2681 1319 2516 
Q 1319 2381 1436 2309 
Q 1553 2238 1856 2203 
L 2053 2175 
Q 2913 2066 3209 1816 
Q 3506 1566 3506 1031 
Q 3506 472 3093 190 
Q 2681 -91 1863 -91 
Q 1516 -91 1145 -36 
Q 775 19 384 128 
L 384 978 
Q 719 816 1070 734 
Q 1422 653 1784 653 
Q 2113 653 2278 743 
Q 2444 834 2444 1013 
Q 2444 1163 2330 1236 
Q 2216 1309 1875 1350 
L 1678 1375 
Q 931 1469 631 1722 
Q 331 1975 331 2491 
Q 331 3047 712 3315 
Q 1094 3584 1881 3584 
Q 2191 3584 2531 3537 
Q 2872 3491 3272 3391 
z
" transform="scale(0.015625)"/>
     </defs>
     <use xlink:href="#DejaVuSans-Bold-46"/>
     <use xlink:href="#DejaVuSans-Bold-6f" x="64.310547"/>
     <use xlink:href="#DejaVuSans-Bold-72" x="133.011719"/>
     <use xlink:href="#DejaVuSans-Bold-77" x="182.328125"/>
     <use xlink:href="#DejaVuSans-Bold-61" x="274.710938"/>
     <use xlink:href="#DejaVuSans-Bold-72" x="342.191406"/>
     <use xlink:href="#DejaVuSans-Bold-64" x="391.507812"/>
     <use xlink:href="#DejaVuSans-Bold-20" x="463.089844"/>
     <use xlink:href="#DejaVuSans-Bold-50" x="497.904297"/>
     <use xlink:href="#DejaVuSans-Bold-61" x="568.570312"/>
     <use xlink:href="#DejaVuSans-Bold-73" x="636.050781"/>
     <use xlink:href="#DejaVuSans-Bold-73" x="695.572266"/>
    </g>
    <!-- pred = model(x) -->
    <g style="fill: #1f2937" transform="translate(306.007969 144.944649) scale(0.11 -0.11)">
     <defs>
      <path id="DejaVuSans-Bold-65" d="M 4031 1759 
L 4031 1441 
L 1416 1441 
Q 1456 1047 1700 850 
Q 1944 653 2381 653 
Q 2734 653 3104 758 
Q 3475 863 3866 1075 
L 3866 213 
Q 3469 63 3072 -14 
Q 2675 -91 2278 -91 
Q 1328 -91 801 392 
Q 275 875 275 1747 
Q 275 2603 792 3093 
Q 1309 3584 2216 3584 
Q 3041 3584 3536 3087 
Q 4031 2591 4031 1759 
z
M 2881 2131 
Q 2881 2450 2695 2645 
Q 2509 2841 2209 2841 
Q 1884 2841 1681 2658 
Q 1478 2475 1428 2131 
L 2881 2131 
z
" transform="scale(0.015625)"/>
      <path id="DejaVuSans-Bold-3d" d="M 678 3084 
L 4684 3084 
L 4684 2350 
L 678 2350 
L 678 3084 
z
M 678 1663 
L 4684 1663 
L 4684 922 
L 678 922 
L 678 1663 
z
" transform="scale(0.015625)"/>
      <path id="DejaVuSans-Bold-6d" d="M 3781 2919 
Q 3994 3244 4286 3414 
Q 4578 3584 4928 3584 
Q 5531 3584 5847 3212 
Q 6163 2841 6163 2131 
L 6163 0 
L 5038 0 
L 5038 1825 
Q 5041 1866 5042 1909 
Q 5044 1953 5044 2034 
Q 5044 2406 4934 2573 
Q 4825 2741 4581 2741 
Q 4263 2741 4089 2478 
Q 3916 2216 3909 1719 
L 3909 0 
L 2784 0 
L 2784 1825 
Q 2784 2406 2684 2573 
Q 2584 2741 2328 2741 
Q 2006 2741 1831 2477 
Q 1656 2213 1656 1722 
L 1656 0 
L 531 0 
L 531 3500 
L 1656 3500 
L 1656 2988 
Q 1863 3284 2130 3434 
Q 2397 3584 2719 3584 
Q 3081 3584 3359 3409 
Q 3638 3234 3781 2919 
z
" transform="scale(0.015625)"/>
      <path id="DejaVuSans-Bold-6c" d="M 538 4863 
L 1656 4863 
L 1656 0 
L 538 0 
L 538 4863 
z
" transform="scale(0.015625)"/>
     </defs>
     <use xlink:href="#DejaVuSans-Bold-70"/>
     <use xlink:href="#DejaVuSans-Bold-72" x="71.582031"/>
     <use xlink:href="#DejaVuSans-Bold-65" x="120.898438"/>
     <use xlink:href="#DejaVuSans-Bold-64" x="188.720703"/>
     <use xlink:href="#DejaVuSans-Bold-20" x="260.302734"/>
     <use xlink:href="#DejaVuSans-Bold-3d" x="295.117188"/>
     <use xlink:href="#DejaVuSans-Bold-20" x="378.90625"/>
     <use xlink:href="#DejaVuSans-Bold-6d" x="413.720703"/>
     <use xlink:href="#DejaVuSans-Bold-6f" x="517.919922"/>
     <use xlink:href="#DejaVuSans-Bold-64" x="586.621094"/>
     <use xlink:href="#DejaVuSans-Bold-65" x="658.203125"/>
     <use xlink:href="#DejaVuSans-Bold-6c" x="726.025391"/>
     <use xlink:href="#DejaVuSans-Bold-28" x="760.302734"/>
     <use xlink:href="#DejaVuSans-Bold-78" x="806.005859"/>
     <use xlink:href="#DejaVuSans-Bold-29" x="870.507812"/>
    </g>
   </g>
   <g id="text_6">
    <!-- Compute Loss -->
    <g style="fill: #1f2937" transform="translate(312.897578 197.128632) scale(0.11 -0.11)">
     <defs>
      <path id="DejaVuSans-Bold-43" d="M 4288 256 
Q 3956 84 3597 -3 
Q 3238 -91 2847 -91 
Q 1681 -91 1000 561 
Q 319 1213 319 2328 
Q 319 3447 1000 4098 
Q 1681 4750 2847 4750 
Q 3238 4750 3597 4662 
Q 3956 4575 4288 4403 
L 4288 3438 
Q 3953 3666 3628 3772 
Q 3303 3878 2944 3878 
Q 2300 3878 1931 3465 
Q 1563 3053 1563 2328 
Q 1563 1606 1931 1193 
Q 2300 781 2944 781 
Q 3303 781 3628 887 
Q 3953 994 4288 1222 
L 4288 256 
z
" transform="scale(0.015625)"/>
      <path id="DejaVuSans-Bold-75" d="M 500 1363 
L 500 3500 
L 1625 3500 
L 1625 3150 
Q 1625 2866 1622 2436 
Q 1619 2006 1619 1863 
Q 1619 1441 1641 1255 
Q 1663 1069 1716 984 
Q 1784 875 1895 815 
Q 2006 756 2150 756 
Q 2500 756 2700 1025 
Q 2900 1294 2900 1772 
L 2900 3500 
L 4019 3500 
L 4019 0 
L 2900 0 
L 2900 506 
Q 2647 200 2364 54 
Q 2081 -91 1741 -91 
Q 1134 -91 817 281 
Q 500 653 500 1363 
z
" transform="scale(0.015625)"/>
     </defs>
     <use xlink:href="#DejaVuSans-Bold-43"/>
     <use xlink:href="#DejaVuSans-Bold-6f" x="73.388672"/>
     <use xlink:href="#DejaVuSans-Bold-6d" x="142.089844"/>
     <use xlink:href="#DejaVuSans-Bold-70" x="246.289062"/>
     <use xlink:href="#DejaVuSans-Bold-75" x="317.871094"/>
     <use xlink:href="#DejaVuSans-Bold-74" x="389.0625"/>
     <use xlink:href="#DejaVuSans-Bold-65" x="436.865234"/>
     <use xlink:href="#DejaVuSans-Bold-20" x="504.6875"/>
     <use xlink:href="#DejaVuSans-Bold-4c" x="539.501953"/>
     <use xlink:href="#DejaVuSans-Bold-6f" x="603.222656"/>
     <use xlink:href="#DejaVuSans-Bold-73" x="671.923828"/>
     <use xlink:href="#DejaVuSans-Bold-73" x="731.445312"/>
    </g>
    <!-- loss = loss_fn(pred, y) -->
    <g style="fill: #1f2937" transform="translate(287.549453 209.446226) scale(0.11 -0.11)">
     <defs>
      <path id="DejaVuSans-Bold-5f" d="M 3200 -916 
L 3200 -1509 
L 0 -1509 
L 0 -916 
L 3200 -916 
z
" transform="scale(0.015625)"/>
      <path id="DejaVuSans-Bold-66" d="M 2841 4863 
L 2841 4128 
L 2222 4128 
Q 1984 4128 1890 4042 
Q 1797 3956 1797 3744 
L 1797 3500 
L 2753 3500 
L 2753 2700 
L 1797 2700 
L 1797 0 
L 678 0 
L 678 2700 
L 122 2700 
L 122 3500 
L 678 3500 
L 678 3744 
Q 678 4316 997 4589 
Q 1316 4863 1984 4863 
L 2841 4863 
z
" transform="scale(0.015625)"/>
     </defs>
     <use xlink:href="#DejaVuSans-Bold-6c"/>
     <use xlink:href="#DejaVuSans-Bold-6f" x="34.277344"/>
     <use xlink:href="#DejaVuSans-Bold-73" x="102.978516"/>
     <use xlink:href="#DejaVuSans-Bold-73" x="162.5"/>
     <use xlink:href="#DejaVuSans-Bold-20" x="222.021484"/>
     <use xlink:href="#DejaVuSans-Bold-3d" x="256.835938"/>
     <use xlink:href="#DejaVuSans-Bold-20" x="340.625"/>
     <use xlink:href="#DejaVuSans-Bold-6c" x="375.439453"/>
     <use xlink:href="#DejaVuSans-Bold-6f" x="409.716797"/>
     <use xlink:href="#DejaVuSans-Bold-73" x="478.417969"/>
     <use xlink:href="#DejaVuSans-Bold-73" x="537.939453"/>
     <use xlink:href="#DejaVuSans-Bold-5f" x="597.460938"/>
     <use xlink:href="#DejaVuSans-Bold-66" x="647.460938"/>
     <use xlink:href="#DejaVuSans-Bold-6e" x="690.966797"/>
     <use xlink:href="#DejaVuSans-Bold-28" x="762.158203"/>
     <use xlink:href="#DejaVuSans-Bold-70" x="807.861328"/>
     <use xlink:href="#DejaVuSans-Bold-72" x="879.443359"/>
     <use xlink:href="#DejaVuSans-Bold-65" x="928.759766"/>
     <use xlink:href="#DejaVuSans-Bold-64" x="996.582031"/>
     <use xlink:href="#DejaVuSans-Bold-2c" x="1068.164062"/>
     <use xlink:href="#DejaVuSans-Bold-20" x="1106.152344"/>
     <use xlink:href="#DejaVuSans-Bold-79" x="1140.966797"/>
     <use xlink:href="#DejaVuSans-Bold-29" x="1206.152344"/>
    </g>
   </g>
   <g id="text_7">
    <!-- Backward Pass -->
    <g style="fill: #1f2937" transform="translate(310.07625 261.936146) scale(0.11 -0.11)">
     <defs>
      <path id="DejaVuSans-Bold-6b" d="M 538 4863 
L 1656 4863 
L 1656 2216 
L 2944 3500 
L 4244 3500 
L 2534 1894 
L 4378 0 
L 3022 0 
L 1656 1459 
L 1656 0 
L 538 0 
L 538 4863 
z
" transform="scale(0.015625)"/>
     </defs>
     <use xlink:href="#DejaVuSans-Bold-42"/>
     <use xlink:href="#DejaVuSans-Bold-61" x="76.220703"/>
     <use xlink:href="#DejaVuSans-Bold-63" x="143.701172"/>
     <use xlink:href="#DejaVuSans-Bold-6b" x="202.978516"/>
     <use xlink:href="#DejaVuSans-Bold-77" x="269.482422"/>
     <use xlink:href="#DejaVuSans-Bold-61" x="361.865234"/>
     <use xlink:href="#DejaVuSans-Bold-72" x="429.345703"/>
     <use xlink:href="#DejaVuSans-Bold-64" x="478.662109"/>
     <use xlink:href="#DejaVuSans-Bold-20" x="550.244141"/>
     <use xlink:href="#DejaVuSans-Bold-50" x="585.058594"/>
     <use xlink:href="#DejaVuSans-Bold-61" x="655.724609"/>
     <use xlink:href="#DejaVuSans-Bold-73" x="723.205078"/>
     <use xlink:href="#DejaVuSans-Bold-73" x="782.726562"/>
    </g>
    <!-- loss.backward() -->
    <g style="fill: #1f2937" transform="translate(307.064141 274.25374) scale(0.11 -0.11)">
     <defs>
      <path id="DejaVuSans-Bold-2e" d="M 653 1209 
L 1778 1209 
L 1778 0 
L 653 0 
L 653 1209 
z
" transform="scale(0.015625)"/>
      <path id="DejaVuSans-Bold-62" d="M 2400 722 
Q 2759 722 2948 984 
Q 3138 1247 3138 1747 
Q 3138 2247 2948 2509 
Q 2759 2772 2400 2772 
Q 2041 2772 1848 2508 
Q 1656 2244 1656 1747 
Q 1656 1250 1848 986 
Q 2041 722 2400 722 
z
M 1656 2988 
Q 1888 3294 2169 3439 
Q 2450 3584 2816 3584 
Q 3463 3584 3878 3070 
Q 4294 2556 4294 1747 
Q 4294 938 3878 423 
Q 3463 -91 2816 -91 
Q 2450 -91 2169 54 
Q 1888 200 1656 506 
L 1656 0 
L 538 0 
L 538 4863 
L 1656 4863 
L 1656 2988 
z
" transform="scale(0.015625)"/>
     </defs>
     <use xlink:href="#DejaVuSans-Bold-6c"/>
     <use xlink:href="#DejaVuSans-Bold-6f" x="34.277344"/>
     <use xlink:href="#DejaVuSans-Bold-73" x="102.978516"/>
     <use xlink:href="#DejaVuSans-Bold-73" x="162.5"/>
     <use xlink:href="#DejaVuSans-Bold-2e" x="222.021484"/>
     <use xlink:href="#DejaVuSans-Bold-62" x="260.009766"/>
     <use xlink:href="#DejaVuSans-Bold-61" x="331.591797"/>
     <use xlink:href="#DejaVuSans-Bold-63" x="399.072266"/>
     <use xlink:href="#DejaVuSans-Bold-6b" x="458.349609"/>
     <use xlink:href="#DejaVuSans-Bold-77" x="524.853516"/>
     <use xlink:href="#DejaVuSans-Bold-61" x="617.236328"/>
     <use xlink:href="#DejaVuSans-Bold-72" x="684.716797"/>
     <use xlink:href="#DejaVuSans-Bold-64" x="734.033203"/>
     <use xlink:href="#DejaVuSans-Bold-28" x="805.615234"/>
     <use xlink:href="#DejaVuSans-Bold-29" x="851.318359"/>
    </g>
   </g>
   <g id="text_8">
    <!-- Update Weights -->
    <g style="fill: #1f2937" transform="translate(306.837266 326.547723) scale(0.11 -0.11)">
     <defs>
      <path id="DejaVuSans-Bold-55" d="M 588 4666 
L 1791 4666 
L 1791 1869 
Q 1791 1291 1980 1042 
Q 2169 794 2597 794 
Q 3028 794 3217 1042 
Q 3406 1291 3406 1869 
L 3406 4666 
L 4609 4666 
L 4609 1869 
Q 4609 878 4112 393 
Q 3616 -91 2597 -91 
Q 1581 -91 1084 393 
Q 588 878 588 1869 
L 588 4666 
z
" transform="scale(0.015625)"/>
      <path id="DejaVuSans-Bold-57" d="M 191 4666 
L 1344 4666 
L 2150 1275 
L 2950 4666 
L 4109 4666 
L 4909 1275 
L 5716 4666 
L 6859 4666 
L 5759 0 
L 4372 0 
L 3525 3547 
L 2688 0 
L 1300 0 
L 191 4666 
z
" transform="scale(0.015625)"/>
     </defs>
     <use xlink:href="#DejaVuSans-Bold-55"/>
     <use xlink:href="#DejaVuSans-Bold-70" x="81.201172"/>
     <use xlink:href="#DejaVuSans-Bold-64" x="152.783203"/>
     <use xlink:href="#DejaVuSans-Bold-61" x="224.365234"/>
     <use xlink:href="#DejaVuSans-Bold-74" x="291.845703"/>
     <use xlink:href="#DejaVuSans-Bold-65" x="339.648438"/>
     <use xlink:href="#DejaVuSans-Bold-20" x="407.470703"/>
     <use xlink:href="#DejaVuSans-Bold-57" x="442.285156"/>
     <use xlink:href="#DejaVuSans-Bold-65" x="548.962891"/>
     <use xlink:href="#DejaVuSans-Bold-69" x="616.785156"/>
     <use xlink:href="#DejaVuSans-Bold-67" x="651.0625"/>
     <use xlink:href="#DejaVuSans-Bold-68" x="722.644531"/>
     <use xlink:href="#DejaVuSans-Bold-74" x="793.835938"/>
     <use xlink:href="#DejaVuSans-Bold-73" x="841.638672"/>
    </g>
    <!-- optimizer.step() -->
    <g style="fill: #1f2937" transform="translate(307.007422 338.951254) scale(0.11 -0.11)">
     <defs>
      <path id="DejaVuSans-Bold-7a" d="M 366 3500 
L 3419 3500 
L 3419 2719 
L 1575 800 
L 3419 800 
L 3419 0 
L 288 0 
L 288 781 
L 2131 2700 
L 366 2700 
L 366 3500 
z
" transform="scale(0.015625)"/>
     </defs>
     <use xlink:href="#DejaVuSans-Bold-6f"/>
     <use xlink:href="#DejaVuSans-Bold-70" x="68.701172"/>
     <use xlink:href="#DejaVuSans-Bold-74" x="140.283203"/>
     <use xlink:href="#DejaVuSans-Bold-69" x="188.085938"/>
     <use xlink:href="#DejaVuSans-Bold-6d" x="222.363281"/>
     <use xlink:href="#DejaVuSans-Bold-69" x="326.5625"/>
     <use xlink:href="#DejaVuSans-Bold-7a" x="360.839844"/>
     <use xlink:href="#DejaVuSans-Bold-65" x="419.042969"/>
     <use xlink:href="#DejaVuSans-Bold-72" x="486.865234"/>
     <use xlink:href="#DejaVuSans-Bold-2e" x="521.931641"/>
     <use xlink:href="#DejaVuSans-Bold-73" x="559.919922"/>
     <use xlink:href="#DejaVuSans-Bold-74" x="619.441406"/>
     <use xlink:href="#DejaVuSans-Bold-65" x="667.244141"/>
     <use xlink:href="#DejaVuSans-Bold-70" x="735.066406"/>
     <use xlink:href="#DejaVuSans-Bold-28" x="806.648438"/>
     <use xlink:href="#DejaVuSans-Bold-29" x="852.351562"/>
    </g>
   </g>
  </g>
 </g>
 <defs>
  <clipPath id="p2a8ae83d75">
   <rect x="7.2" y="25.837812" width="698.4" height="355.6"/>
  </clipPath>
 </defs>
</svg>
