<svg xmlns="http://www.w3.org/2000/svg" width="1040" height="640" viewBox="0 0 1040 640">
<rect width="100%" height="100%" fill="white"/>
<text x="520" y="42" text-anchor="middle" font-family="Helvetica,Arial,sans-serif" font-size="28" font-weight="700" fill="#222">Fibonacci 20..40 Scaling Comparison</text>
<text x="520" y="69" text-anchor="middle" font-family="Helvetica,Arial,sans-serif" font-size="16" fill="#444">Bars: mean over 5 runs, Error bars: ±1 std dev</text>
<line x1="110" y1="514.00" x2="996" y2="514.00" stroke="#e6e6e6"/>
<text x="98" y="519.00" text-anchor="end" font-family="Helvetica,Arial,sans-serif" font-size="14" fill="#555">0.00</text>
<line x1="110" y1="428.40" x2="996" y2="428.40" stroke="#e6e6e6"/>
<text x="98" y="433.40" text-anchor="end" font-family="Helvetica,Arial,sans-serif" font-size="14" fill="#555">0.24</text>
<line x1="110" y1="342.80" x2="996" y2="342.80" stroke="#e6e6e6"/>
<text x="98" y="347.80" text-anchor="end" font-family="Helvetica,Arial,sans-serif" font-size="14" fill="#555">0.48</text>
<line x1="110" y1="257.20" x2="996" y2="257.20" stroke="#e6e6e6"/>
<text x="98" y="262.20" text-anchor="end" font-family="Helvetica,Arial,sans-serif" font-size="14" fill="#555">0.72</text>
<line x1="110" y1="171.60" x2="996" y2="171.60" stroke="#e6e6e6"/>
<text x="98" y="176.60" text-anchor="end" font-family="Helvetica,Arial,sans-serif" font-size="14" fill="#555">0.96</text>
<line x1="110" y1="86.00" x2="996" y2="86.00" stroke="#e6e6e6"/>
<text x="98" y="91.00" text-anchor="end" font-family="Helvetica,Arial,sans-serif" font-size="14" fill="#555">1.20</text>
<line x1="110" y1="86" x2="110" y2="514" stroke="#222" stroke-width="1.5"/>
<line x1="110" y1="514" x2="996" y2="514" stroke="#222" stroke-width="1.5"/>
<rect x="157.25" y="163.22" width="59.07" height="350.78" fill="#F58518"/>
<line x1="186.79" y1="157.33" x2="186.79" y2="169.11" stroke="#222" stroke-width="1.4"/>
<line x1="176.45" y1="157.33" x2="197.12" y2="157.33" stroke="#222" stroke-width="1.4"/>
<line x1="176.45" y1="169.11" x2="197.12" y2="169.11" stroke="#222" stroke-width="1.4"/>
<text x="186.79" y="152.22" text-anchor="middle" font-family="Helvetica,Arial,sans-serif" font-size="12" fill="#222">0.982</text>
<rect x="228.13" y="166.34" width="59.07" height="347.66" fill="#54A24B"/>
<line x1="257.67" y1="166.22" x2="257.67" y2="166.46" stroke="#222" stroke-width="1.4"/>
<line x1="247.33" y1="166.22" x2="268.00" y2="166.22" stroke="#222" stroke-width="1.4"/>
<line x1="247.33" y1="166.46" x2="268.00" y2="166.46" stroke="#222" stroke-width="1.4"/>
<text x="257.67" y="155.34" text-anchor="middle" font-family="Helvetica,Arial,sans-serif" font-size="12" fill="#222">0.973</text>
<rect x="299.01" y="164.96" width="59.07" height="349.04" fill="#4C78A8"/>
<line x1="328.55" y1="163.53" x2="328.55" y2="166.39" stroke="#222" stroke-width="1.4"/>
<line x1="318.21" y1="163.53" x2="338.88" y2="163.53" stroke="#222" stroke-width="1.4"/>
<line x1="318.21" y1="166.39" x2="338.88" y2="166.39" stroke="#222" stroke-width="1.4"/>
<text x="328.55" y="153.96" text-anchor="middle" font-family="Helvetica,Arial,sans-serif" font-size="12" fill="#222">0.977</text>
<text x="257.67" y="548" text-anchor="middle" font-family="Helvetica,Arial,sans-serif" font-size="16" fill="#222">1</text>
<rect x="452.59" y="169.20" width="59.07" height="344.80" fill="#F58518"/>
<line x1="482.12" y1="168.94" x2="482.12" y2="169.45" stroke="#222" stroke-width="1.4"/>
<line x1="471.78" y1="168.94" x2="492.46" y2="168.94" stroke="#222" stroke-width="1.4"/>
<line x1="471.78" y1="169.45" x2="492.46" y2="169.45" stroke="#222" stroke-width="1.4"/>
<text x="482.12" y="158.20" text-anchor="middle" font-family="Helvetica,Arial,sans-serif" font-size="12" fill="#222">0.965</text>
<rect x="523.47" y="294.79" width="59.07" height="219.21" fill="#54A24B"/>
<line x1="553.00" y1="291.47" x2="553.00" y2="298.10" stroke="#222" stroke-width="1.4"/>
<line x1="542.66" y1="291.47" x2="563.34" y2="291.47" stroke="#222" stroke-width="1.4"/>
<line x1="542.66" y1="298.10" x2="563.34" y2="298.10" stroke="#222" stroke-width="1.4"/>
<text x="553.00" y="283.79" text-anchor="middle" font-family="Helvetica,Arial,sans-serif" font-size="12" fill="#222">0.614</text>
<rect x="594.35" y="271.71" width="59.07" height="242.29" fill="#4C78A8"/>
<line x1="623.88" y1="212.40" x2="623.88" y2="331.02" stroke="#222" stroke-width="1.4"/>
<line x1="613.54" y1="212.40" x2="634.22" y2="212.40" stroke="#222" stroke-width="1.4"/>
<line x1="613.54" y1="331.02" x2="634.22" y2="331.02" stroke="#222" stroke-width="1.4"/>
<text x="623.88" y="260.71" text-anchor="middle" font-family="Helvetica,Arial,sans-serif" font-size="12" fill="#222">0.678</text>
<text x="553.00" y="548" text-anchor="middle" font-family="Helvetica,Arial,sans-serif" font-size="16" fill="#222">2</text>
<rect x="747.92" y="196.93" width="59.07" height="317.07" fill="#F58518"/>
<line x1="777.45" y1="196.07" x2="777.45" y2="197.79" stroke="#222" stroke-width="1.4"/>
<line x1="767.12" y1="196.07" x2="787.79" y2="196.07" stroke="#222" stroke-width="1.4"/>
<line x1="767.12" y1="197.79" x2="787.79" y2="197.79" stroke="#222" stroke-width="1.4"/>
<text x="777.45" y="185.93" text-anchor="middle" font-family="Helvetica,Arial,sans-serif" font-size="12" fill="#222">0.888</text>
<rect x="818.80" y="371.64" width="59.07" height="142.36" fill="#54A24B"/>
<line x1="848.33" y1="371.49" x2="848.33" y2="371.78" stroke="#222" stroke-width="1.4"/>
<line x1="838.00" y1="371.49" x2="858.67" y2="371.49" stroke="#222" stroke-width="1.4"/>
<line x1="838.00" y1="371.78" x2="858.67" y2="371.78" stroke="#222" stroke-width="1.4"/>
<text x="848.33" y="360.64" text-anchor="middle" font-family="Helvetica,Arial,sans-serif" font-size="12" fill="#222">0.398</text>
<rect x="889.68" y="377.83" width="59.07" height="136.17" fill="#4C78A8"/>
<line x1="919.21" y1="376.44" x2="919.21" y2="379.22" stroke="#222" stroke-width="1.4"/>
<line x1="908.88" y1="376.44" x2="929.55" y2="376.44" stroke="#222" stroke-width="1.4"/>
<line x1="908.88" y1="379.22" x2="929.55" y2="379.22" stroke="#222" stroke-width="1.4"/>
<text x="919.21" y="366.83" text-anchor="middle" font-family="Helvetica,Arial,sans-serif" font-size="12" fill="#222">0.381</text>
<text x="848.33" y="548" text-anchor="middle" font-family="Helvetica,Arial,sans-serif" font-size="16" fill="#222">4</text>
<text x="553.00" y="586" text-anchor="middle" font-family="Helvetica,Arial,sans-serif" font-size="18" fill="#222">OMP_NUM_THREADS</text>
<text transform="translate(40,300.00) rotate(-90)" text-anchor="middle" font-family="Helvetica,Arial,sans-serif" font-size="18" fill="#222">Time (s)</text>
<rect x="670" y="81" width="18" height="18" fill="#F58518"/>
<text x="698" y="95" font-family="Helvetica,Arial,sans-serif" font-size="15" fill="#222">parallel for (static)</text>
<rect x="670" y="112" width="18" height="18" fill="#54A24B"/>
<text x="698" y="126" font-family="Helvetica,Arial,sans-serif" font-size="15" fill="#222">parallel for (dynamic,1)</text>
<rect x="670" y="143" width="18" height="18" fill="#4C78A8"/>
<text x="698" y="157" font-family="Helvetica,Arial,sans-serif" font-size="15" fill="#222">OpenMP tasks</text>
</svg>